<?xml version="1.0" encoding="UTF-8" standalone="no"?>
<!DOCTYPE svg PUBLIC "-//W3C//DTD SVG 1.1//EN"
 "http://www.w3.org/Graphics/SVG/1.1/DTD/svg11.dtd">
<!-- Generated by graphviz version 13.1.2 (20250808.2320)
 -->
<!-- Title: inc/Game.h Pages: 1 -->
<svg width="406pt" height="140pt"
 viewBox="0.00 0.00 406.00 140.00" xmlns="http://www.w3.org/2000/svg" xmlns:xlink="http://www.w3.org/1999/xlink">
<g id="graph0" class="graph" transform="scale(1 1) rotate(0) translate(4 136)">
<title>inc/Game.h</title>
<!-- Node1 -->
<g id="Node000001" class="node">
<title>Node1</title>
<g id="a_Node000001"><a xlink:title="Abstract definition file for Games.">
<polygon fill="#999999" stroke="#666666" points="164.88,-132 98.62,-132 98.62,-112 164.88,-112 164.88,-132"/>
<text xml:space="preserve" text-anchor="middle" x="131.75" y="-118.5" font-family="Helvetica,sans-Serif" font-size="10.00">inc/Game.h</text>
</a>
</g>
</g>
<!-- Node2 -->
<g id="Node000002" class="node">
<title>Node2</title>
<g id="a_Node000002"><a xlink:href="$_game_8cpp.html" xlink:title=" ">
<polygon fill="white" stroke="#666666" points="77.5,-76 0,-76 0,-56 77.5,-56 77.5,-76"/>
<text xml:space="preserve" text-anchor="middle" x="38.75" y="-62.5" font-family="Helvetica,sans-Serif" font-size="10.00">src/Game.cpp</text>
</a>
</g>
</g>
<!-- Node1&#45;&gt;Node2 -->
<g id="edge11_Node000001_Node000002" class="edge">
<title>Node1&#45;&gt;Node2</title>
<g id="a_edge11_Node000001_Node000002"><a xlink:title=" ">
<path fill="none" stroke="#63b8ff" d="M106.05,-106.08C89.76,-96.62 69.16,-84.66 55.08,-76.48"/>
<polygon fill="#63b8ff" stroke="#63b8ff" points="103.84,-108.84 114.24,-110.83 107.35,-102.79 103.84,-108.84"/>
</a>
</g>
</g>
<!-- Node3 -->
<g id="Node000003" class="node">
<title>Node3</title>
<g id="a_Node000003"><a xlink:href="$main_8cpp.html" xlink:title=" ">
<polygon fill="white" stroke="#666666" points="167.88,-76 95.62,-76 95.62,-56 167.88,-56 167.88,-76"/>
<text xml:space="preserve" text-anchor="middle" x="131.75" y="-62.5" font-family="Helvetica,sans-Serif" font-size="10.00">src/main.cpp</text>
</a>
</g>
</g>
<!-- Node1&#45;&gt;Node3 -->
<g id="edge12_Node000001_Node000003" class="edge">
<title>Node1&#45;&gt;Node3</title>
<g id="a_edge12_Node000001_Node000003"><a xlink:title=" ">
<path fill="none" stroke="#63b8ff" d="M131.75,-100.13C131.75,-91.9 131.75,-82.85 131.75,-76.3"/>
<polygon fill="#63b8ff" stroke="#63b8ff" points="128.25,-100.08 131.75,-110.08 135.25,-100.08 128.25,-100.08"/>
</a>
</g>
</g>
<!-- Node4 -->
<g id="Node000004" class="node">
<title>Node4</title>
<g id="a_Node000004"><a xlink:href="$_snake_game_8h.html" xlink:title=" ">
<polygon fill="white" stroke="#666666" points="315.38,-76 186.12,-76 186.12,-56 315.38,-56 315.38,-76"/>
<text xml:space="preserve" text-anchor="middle" x="250.75" y="-62.5" font-family="Helvetica,sans-Serif" font-size="10.00">src/scenes/SnakeGame.h</text>
</a>
</g>
</g>
<!-- Node1&#45;&gt;Node4 -->
<g id="edge13_Node000001_Node000004" class="edge">
<title>Node1&#45;&gt;Node4</title>
<g id="a_edge13_Node000001_Node000004"><a xlink:title=" ">
<path fill="none" stroke="#63b8ff" d="M162.87,-106.88C183.98,-97.3 211.32,-84.89 229.86,-76.48"/>
<polygon fill="#63b8ff" stroke="#63b8ff" points="161.52,-103.65 153.86,-110.97 164.41,-110.02 161.52,-103.65"/>
</a>
</g>
</g>
<!-- Node5 -->
<g id="Node000005" class="node">
<title>Node5</title>
<g id="a_Node000005"><a xlink:href="$_dino_game_8cpp.html" xlink:title=" ">
<polygon fill="white" stroke="#666666" points="239.88,-20 107.62,-20 107.62,0 239.88,0 239.88,-20"/>
<text xml:space="preserve" text-anchor="middle" x="173.75" y="-6.5" font-family="Helvetica,sans-Serif" font-size="10.00">src/scenes/DinoGame.cpp</text>
</a>
</g>
</g>
<!-- Node4&#45;&gt;Node5 -->
<g id="edge14_Node000004_Node000005" class="edge">
<title>Node4&#45;&gt;Node5</title>
<g id="a_edge14_Node000004_Node000005"><a xlink:title=" ">
<path fill="none" stroke="#63b8ff" d="M227.93,-49C214.7,-39.72 198.49,-28.35 187.27,-20.48"/>
<polygon fill="#63b8ff" stroke="#63b8ff" points="225.9,-51.85 236.1,-54.72 229.92,-46.12 225.9,-51.85"/>
</a>
</g>
</g>
<!-- Node6 -->
<g id="Node000006" class="node">
<title>Node6</title>
<g id="a_Node000006"><a xlink:href="$_snake_game_8cpp.html" xlink:title=" ">
<polygon fill="white" stroke="#666666" points="397.62,-20 257.88,-20 257.88,0 397.62,0 397.62,-20"/>
<text xml:space="preserve" text-anchor="middle" x="327.75" y="-6.5" font-family="Helvetica,sans-Serif" font-size="10.00">src/scenes/SnakeGame.cpp</text>
</a>
</g>
</g>
<!-- Node4&#45;&gt;Node6 -->
<g id="edge15_Node000004_Node000006" class="edge">
<title>Node4&#45;&gt;Node6</title>
<g id="a_edge15_Node000004_Node000006"><a xlink:title=" ">
<path fill="none" stroke="#63b8ff" d="M273.57,-49C286.8,-39.72 303.01,-28.35 314.23,-20.48"/>
<polygon fill="#63b8ff" stroke="#63b8ff" points="271.58,-46.12 265.4,-54.72 275.6,-51.85 271.58,-46.12"/>
</a>
</g>
</g>
</g>
</svg>
