<?xml version="1.0" encoding="UTF-8" standalone="no"?>
<!DOCTYPE svg PUBLIC "-//W3C//DTD SVG 1.1//EN"
 "http://www.w3.org/Graphics/SVG/1.1/DTD/svg11.dtd">
<!-- Generated by graphviz version 13.1.2 (20250808.2320)
 -->
<!-- Title: inc/TinyEngineUI.h Pages: 1 -->
<svg width="268pt" height="84pt"
 viewBox="0.00 0.00 268.00 84.00" xmlns="http://www.w3.org/2000/svg" xmlns:xlink="http://www.w3.org/1999/xlink">
<g id="graph0" class="graph" transform="scale(1 1) rotate(0) translate(4 80)">
<title>inc/TinyEngineUI.h</title>
<!-- Node1 -->
<g id="Node000001" class="node">
<title>Node1</title>
<g id="a_Node000001"><a xlink:title=" ">
<polygon fill="#999999" stroke="#666666" points="173.88,-76 74.62,-76 74.62,-56 173.88,-56 173.88,-76"/>
<text xml:space="preserve" text-anchor="middle" x="124.25" y="-62.5" font-family="Helvetica,sans-Serif" font-size="10.00">inc/TinyEngineUI.h</text>
</a>
</g>
</g>
<!-- Node2 -->
<g id="Node000002" class="node">
<title>Node2</title>
<g id="a_Node000002"><a xlink:href="$_tiny_engine_u_i_8cpp.html" xlink:title=" ">
<polygon fill="white" stroke="#666666" points="110.5,-20 0,-20 0,0 110.5,0 110.5,-20"/>
<text xml:space="preserve" text-anchor="middle" x="55.25" y="-6.5" font-family="Helvetica,sans-Serif" font-size="10.00">src/TinyEngineUI.cpp</text>
</a>
</g>
</g>
<!-- Node1&#45;&gt;Node2 -->
<g id="edge5_Node000001_Node000002" class="edge">
<title>Node1&#45;&gt;Node2</title>
<g id="a_edge5_Node000001_Node000002"><a xlink:title=" ">
<path fill="none" stroke="#63b8ff" d="M103.4,-48.68C91.52,-39.39 77.08,-28.09 67.13,-20.3"/>
<polygon fill="#63b8ff" stroke="#63b8ff" points="101.01,-51.25 111.04,-54.66 105.32,-45.74 101.01,-51.25"/>
</a>
</g>
</g>
<!-- Node3 -->
<g id="Node000003" class="node">
<title>Node3</title>
<g id="a_Node000003"><a xlink:href="$_dino_game_8cpp.html" xlink:title=" ">
<polygon fill="white" stroke="#666666" points="260.38,-20 128.12,-20 128.12,0 260.38,0 260.38,-20"/>
<text xml:space="preserve" text-anchor="middle" x="194.25" y="-6.5" font-family="Helvetica,sans-Serif" font-size="10.00">src/scenes/DinoGame.cpp</text>
</a>
</g>
</g>
<!-- Node1&#45;&gt;Node3 -->
<g id="edge6_Node000001_Node000003" class="edge">
<title>Node1&#45;&gt;Node3</title>
<g id="a_edge6_Node000001_Node000003"><a xlink:title=" ">
<path fill="none" stroke="#63b8ff" d="M145.41,-48.68C157.45,-39.39 172.1,-28.09 182.2,-20.3"/>
<polygon fill="#63b8ff" stroke="#63b8ff" points="143.42,-45.79 137.64,-54.67 147.7,-51.33 143.42,-45.79"/>
</a>
</g>
</g>
</g>
</svg>
