<?xml version="1.0" encoding="UTF-8" standalone="no"?>
<!DOCTYPE svg PUBLIC "-//W3C//DTD SVG 1.1//EN"
 "http://www.w3.org/Graphics/SVG/1.1/DTD/svg11.dtd">
<!-- Generated by graphviz version 13.1.2 (20250808.2320)
 -->
<!-- Title: DinoGame Pages: 1 -->
<svg width="92pt" height="508pt"
 viewBox="0.00 0.00 92.00 508.00" xmlns="http://www.w3.org/2000/svg" xmlns:xlink="http://www.w3.org/1999/xlink">
<g id="graph0" class="graph" transform="scale(1 1) rotate(0) translate(4 504)">
<title>DinoGame</title>
<!-- Node1 -->
<g id="Node000001" class="node">
<title>Node1</title>
<g id="a_Node000001"><a xlink:title=" ">
<polygon fill="#999999" stroke="none" points="80.25,-132 3.75,-132 3.75,0 80.25,0 80.25,-132"/>
<text xml:space="preserve" text-anchor="start" x="18.75" y="-118.5" font-family="Helvetica,sans-Serif" font-size="10.00">DinoGame</text>
<text xml:space="preserve" text-anchor="start" x="40.5" y="-102.5" font-family="Helvetica,sans-Serif" font-size="10.00"> </text>
<text xml:space="preserve" text-anchor="start" x="7.75" y="-86.5" font-family="Helvetica,sans-Serif" font-size="10.00">+</text>
<text xml:space="preserve" text-anchor="start" x="17.75" y="-86.5" font-family="Helvetica,sans-Serif" font-size="10.00">DinoGame()</text>
<text xml:space="preserve" text-anchor="start" x="7.75" y="-70.5" font-family="Helvetica,sans-Serif" font-size="10.00">+</text>
<text xml:space="preserve" text-anchor="start" x="17.75" y="-70.5" font-family="Helvetica,sans-Serif" font-size="10.00">~DinoGame()</text>
<text xml:space="preserve" text-anchor="start" x="7.75" y="-54.5" font-family="Helvetica,sans-Serif" font-size="10.00">+</text>
<text xml:space="preserve" text-anchor="start" x="17.75" y="-54.5" font-family="Helvetica,sans-Serif" font-size="10.00">create()</text>
<text xml:space="preserve" text-anchor="start" x="7.75" y="-38.5" font-family="Helvetica,sans-Serif" font-size="10.00">+</text>
<text xml:space="preserve" text-anchor="start" x="17.75" y="-38.5" font-family="Helvetica,sans-Serif" font-size="10.00">render()</text>
<text xml:space="preserve" text-anchor="start" x="7.75" y="-22.5" font-family="Helvetica,sans-Serif" font-size="10.00">+</text>
<text xml:space="preserve" text-anchor="start" x="17.75" y="-22.5" font-family="Helvetica,sans-Serif" font-size="10.00">update()</text>
<text xml:space="preserve" text-anchor="start" x="7.75" y="-6.5" font-family="Helvetica,sans-Serif" font-size="10.00">+</text>
<text xml:space="preserve" text-anchor="start" x="17.75" y="-6.5" font-family="Helvetica,sans-Serif" font-size="10.00">destroy()</text>
<polygon fill="#666666" stroke="#666666" points="3.75,-114 3.75,-114 80.25,-114 80.25,-114 3.75,-114"/>
<polygon fill="#666666" stroke="#666666" points="3.75,-98 3.75,-98 80.25,-98 80.25,-98 3.75,-98"/>
<polygon fill="none" stroke="#666666" points="3.75,0 3.75,-132 80.25,-132 80.25,0 3.75,0"/>
</a>
</g>
</g>
<!-- Node2 -->
<g id="Node000002" class="node">
<title>Node2</title>
<g id="a_Node000002"><a xlink:href="$class_game_scene.html" xlink:title=" ">
<polygon fill="white" stroke="none" points="84,-348 0,-348 0,-168 84,-168 84,-348"/>
<text xml:space="preserve" text-anchor="start" x="15" y="-334.5" font-family="Helvetica,sans-Serif" font-size="10.00">GameScene</text>
<text xml:space="preserve" text-anchor="start" x="4.38" y="-318.5" font-family="Helvetica,sans-Serif" font-size="10.00">#</text>
<text xml:space="preserve" text-anchor="start" x="14" y="-318.5" font-family="Helvetica,sans-Serif" font-size="10.00">m_framebuffer</text>
<text xml:space="preserve" text-anchor="start" x="4.38" y="-302.5" font-family="Helvetica,sans-Serif" font-size="10.00">#</text>
<text xml:space="preserve" text-anchor="start" x="14" y="-302.5" font-family="Helvetica,sans-Serif" font-size="10.00">m_renderer</text>
<text xml:space="preserve" text-anchor="start" x="4.38" y="-286.5" font-family="Helvetica,sans-Serif" font-size="10.00">#</text>
<text xml:space="preserve" text-anchor="start" x="14" y="-286.5" font-family="Helvetica,sans-Serif" font-size="10.00">m_engine</text>
<text xml:space="preserve" text-anchor="start" x="4.38" y="-270.5" font-family="Helvetica,sans-Serif" font-size="10.00">#</text>
<text xml:space="preserve" text-anchor="start" x="14" y="-270.5" font-family="Helvetica,sans-Serif" font-size="10.00">sprites</text>
<text xml:space="preserve" text-anchor="start" x="4" y="-254.5" font-family="Helvetica,sans-Serif" font-size="10.00">+</text>
<text xml:space="preserve" text-anchor="start" x="14" y="-254.5" font-family="Helvetica,sans-Serif" font-size="10.00">GameScene()</text>
<text xml:space="preserve" text-anchor="start" x="4" y="-238.5" font-family="Helvetica,sans-Serif" font-size="10.00">+</text>
<text xml:space="preserve" text-anchor="start" x="14" y="-238.5" font-family="Helvetica,sans-Serif" font-size="10.00">~GameScene()</text>
<text xml:space="preserve" text-anchor="start" x="4" y="-222.5" font-family="Helvetica,sans-Serif" font-size="10.00">+</text>
<text xml:space="preserve" text-anchor="start" x="14" y="-222.5" font-family="Helvetica,sans-Serif" font-size="10.00">create()</text>
<text xml:space="preserve" text-anchor="start" x="4" y="-206.5" font-family="Helvetica,sans-Serif" font-size="10.00">+</text>
<text xml:space="preserve" text-anchor="start" x="14" y="-206.5" font-family="Helvetica,sans-Serif" font-size="10.00">render()</text>
<text xml:space="preserve" text-anchor="start" x="4" y="-190.5" font-family="Helvetica,sans-Serif" font-size="10.00">+</text>
<text xml:space="preserve" text-anchor="start" x="14" y="-190.5" font-family="Helvetica,sans-Serif" font-size="10.00">update()</text>
<text xml:space="preserve" text-anchor="start" x="4" y="-174.5" font-family="Helvetica,sans-Serif" font-size="10.00">+</text>
<text xml:space="preserve" text-anchor="start" x="14" y="-174.5" font-family="Helvetica,sans-Serif" font-size="10.00">destroy()</text>
<polygon fill="#666666" stroke="#666666" points="0,-330 0,-330 84,-330 84,-330 0,-330"/>
<polygon fill="#666666" stroke="#666666" points="0,-266 0,-266 12,-266 12,-266 0,-266"/>
<polygon fill="#666666" stroke="#666666" points="12,-266 12,-266 84,-266 84,-266 12,-266"/>
<polygon fill="none" stroke="#666666" points="0,-168 0,-348 84,-348 84,-168 0,-168"/>
</a>
</g>
</g>
<!-- Node2&#45;&gt;Node1 -->
<g id="edge5_Node000001_Node000002" class="edge">
<title>Node2&#45;&gt;Node1</title>
<g id="a_edge5_Node000001_Node000002"><a xlink:title=" ">
<path fill="none" stroke="#63b8ff" d="M42,-156.89C42,-148.36 42,-139.88 42,-131.73"/>
<polygon fill="none" stroke="#63b8ff" points="38.5,-156.61 42,-166.61 45.5,-156.61 38.5,-156.61"/>
</a>
</g>
</g>
<!-- Node3 -->
<g id="Node000003" class="node">
<title>Node3</title>
<g id="a_Node000003"><a xlink:href="$class_scene_i.html" xlink:title=" ">
<polygon fill="white" stroke="none" points="72.38,-500 11.62,-500 11.62,-384 72.38,-384 72.38,-500"/>
<text xml:space="preserve" text-anchor="start" x="26.62" y="-486.5" font-family="Helvetica,sans-Serif" font-size="10.00">SceneI</text>
<text xml:space="preserve" text-anchor="start" x="40.5" y="-470.5" font-family="Helvetica,sans-Serif" font-size="10.00"> </text>
<text xml:space="preserve" text-anchor="start" x="15.62" y="-454.5" font-family="Helvetica,sans-Serif" font-size="10.00">+</text>
<text xml:space="preserve" text-anchor="start" x="25.62" y="-454.5" font-family="Helvetica,sans-Serif" font-size="10.00">~SceneI()</text>
<text xml:space="preserve" text-anchor="start" x="15.62" y="-438.5" font-family="Helvetica,sans-Serif" font-size="10.00">+</text>
<text xml:space="preserve" text-anchor="start" x="25.62" y="-438.5" font-family="Helvetica,sans-Serif" font-size="10.00">create()</text>
<text xml:space="preserve" text-anchor="start" x="15.62" y="-422.5" font-family="Helvetica,sans-Serif" font-size="10.00">+</text>
<text xml:space="preserve" text-anchor="start" x="25.62" y="-422.5" font-family="Helvetica,sans-Serif" font-size="10.00">render()</text>
<text xml:space="preserve" text-anchor="start" x="15.62" y="-406.5" font-family="Helvetica,sans-Serif" font-size="10.00">+</text>
<text xml:space="preserve" text-anchor="start" x="25.62" y="-406.5" font-family="Helvetica,sans-Serif" font-size="10.00">update()</text>
<text xml:space="preserve" text-anchor="start" x="15.62" y="-390.5" font-family="Helvetica,sans-Serif" font-size="10.00">+</text>
<text xml:space="preserve" text-anchor="start" x="25.62" y="-390.5" font-family="Helvetica,sans-Serif" font-size="10.00">destroy()</text>
<polygon fill="#666666" stroke="#666666" points="11.62,-482 11.62,-482 72.38,-482 72.38,-482 11.62,-482"/>
<polygon fill="#666666" stroke="#666666" points="11.62,-466 11.62,-466 72.38,-466 72.38,-466 11.62,-466"/>
<polygon fill="none" stroke="#666666" points="11.62,-384 11.62,-500 72.38,-500 72.38,-384 11.62,-384"/>
</a>
</g>
</g>
<!-- Node3&#45;&gt;Node2 -->
<g id="edge6_Node000002_Node000003" class="edge">
<title>Node3&#45;&gt;Node2</title>
<g id="a_edge6_Node000002_Node000003"><a xlink:title=" ">
<path fill="none" stroke="#63b8ff" d="M42,-373.04C42,-364.86 42,-356.4 42,-347.97"/>
<polygon fill="none" stroke="#63b8ff" points="38.5,-372.9 42,-382.9 45.5,-372.9 38.5,-372.9"/>
</a>
</g>
</g>
</g>
</svg>
