<?xml version="1.0" encoding="UTF-8" standalone="no"?>
<!DOCTYPE svg PUBLIC "-//W3C//DTD SVG 1.1//EN"
 "http://www.w3.org/Graphics/SVG/1.1/DTD/svg11.dtd">
<!-- Generated by graphviz version 13.1.2 (20250808.2320)
 -->
<!-- Title: SceneI Pages: 1 -->
<svg width="293pt" height="508pt"
 viewBox="0.00 0.00 293.00 508.00" xmlns="http://www.w3.org/2000/svg" xmlns:xlink="http://www.w3.org/1999/xlink">
<g id="graph0" class="graph" transform="scale(1 1) rotate(0) translate(4 504)">
<title>SceneI</title>
<!-- Node1 -->
<g id="Node000001" class="node">
<title>Node1</title>
<g id="a_Node000001"><a xlink:title=" ">
<polygon fill="#999999" stroke="none" points="181.62,-500 120.88,-500 120.88,-384 181.62,-384 181.62,-500"/>
<text xml:space="preserve" text-anchor="start" x="135.88" y="-486.5" font-family="Helvetica,sans-Serif" font-size="10.00">SceneI</text>
<text xml:space="preserve" text-anchor="start" x="149.75" y="-470.5" font-family="Helvetica,sans-Serif" font-size="10.00"> </text>
<text xml:space="preserve" text-anchor="start" x="124.88" y="-454.5" font-family="Helvetica,sans-Serif" font-size="10.00">+</text>
<text xml:space="preserve" text-anchor="start" x="134.88" y="-454.5" font-family="Helvetica,sans-Serif" font-size="10.00">~SceneI()</text>
<text xml:space="preserve" text-anchor="start" x="124.88" y="-438.5" font-family="Helvetica,sans-Serif" font-size="10.00">+</text>
<text xml:space="preserve" text-anchor="start" x="134.88" y="-438.5" font-family="Helvetica,sans-Serif" font-size="10.00">create()</text>
<text xml:space="preserve" text-anchor="start" x="124.88" y="-422.5" font-family="Helvetica,sans-Serif" font-size="10.00">+</text>
<text xml:space="preserve" text-anchor="start" x="134.88" y="-422.5" font-family="Helvetica,sans-Serif" font-size="10.00">render()</text>
<text xml:space="preserve" text-anchor="start" x="124.88" y="-406.5" font-family="Helvetica,sans-Serif" font-size="10.00">+</text>
<text xml:space="preserve" text-anchor="start" x="134.88" y="-406.5" font-family="Helvetica,sans-Serif" font-size="10.00">update()</text>
<text xml:space="preserve" text-anchor="start" x="124.88" y="-390.5" font-family="Helvetica,sans-Serif" font-size="10.00">+</text>
<text xml:space="preserve" text-anchor="start" x="134.88" y="-390.5" font-family="Helvetica,sans-Serif" font-size="10.00">destroy()</text>
<polygon fill="#666666" stroke="#666666" points="120.88,-482 120.88,-482 181.62,-482 181.62,-482 120.88,-482"/>
<polygon fill="#666666" stroke="#666666" points="120.88,-466 120.88,-466 181.62,-466 181.62,-466 120.88,-466"/>
<polygon fill="none" stroke="#666666" points="120.88,-384 120.88,-500 181.62,-500 181.62,-384 120.88,-384"/>
</a>
</g>
</g>
<!-- Node2 -->
<g id="Node000002" class="node">
<title>Node2</title>
<g id="a_Node000002"><a xlink:href="$class_game_scene.html" xlink:title=" ">
<polygon fill="white" stroke="none" points="129.25,-348 45.25,-348 45.25,-168 129.25,-168 129.25,-348"/>
<text xml:space="preserve" text-anchor="start" x="60.25" y="-334.5" font-family="Helvetica,sans-Serif" font-size="10.00">GameScene</text>
<text xml:space="preserve" text-anchor="start" x="49.62" y="-318.5" font-family="Helvetica,sans-Serif" font-size="10.00">#</text>
<text xml:space="preserve" text-anchor="start" x="59.25" y="-318.5" font-family="Helvetica,sans-Serif" font-size="10.00">m_framebuffer</text>
<text xml:space="preserve" text-anchor="start" x="49.62" y="-302.5" font-family="Helvetica,sans-Serif" font-size="10.00">#</text>
<text xml:space="preserve" text-anchor="start" x="59.25" y="-302.5" font-family="Helvetica,sans-Serif" font-size="10.00">m_renderer</text>
<text xml:space="preserve" text-anchor="start" x="49.62" y="-286.5" font-family="Helvetica,sans-Serif" font-size="10.00">#</text>
<text xml:space="preserve" text-anchor="start" x="59.25" y="-286.5" font-family="Helvetica,sans-Serif" font-size="10.00">m_engine</text>
<text xml:space="preserve" text-anchor="start" x="49.62" y="-270.5" font-family="Helvetica,sans-Serif" font-size="10.00">#</text>
<text xml:space="preserve" text-anchor="start" x="59.25" y="-270.5" font-family="Helvetica,sans-Serif" font-size="10.00">sprites</text>
<text xml:space="preserve" text-anchor="start" x="49.25" y="-254.5" font-family="Helvetica,sans-Serif" font-size="10.00">+</text>
<text xml:space="preserve" text-anchor="start" x="59.25" y="-254.5" font-family="Helvetica,sans-Serif" font-size="10.00">GameScene()</text>
<text xml:space="preserve" text-anchor="start" x="49.25" y="-238.5" font-family="Helvetica,sans-Serif" font-size="10.00">+</text>
<text xml:space="preserve" text-anchor="start" x="59.25" y="-238.5" font-family="Helvetica,sans-Serif" font-size="10.00">~GameScene()</text>
<text xml:space="preserve" text-anchor="start" x="49.25" y="-222.5" font-family="Helvetica,sans-Serif" font-size="10.00">+</text>
<text xml:space="preserve" text-anchor="start" x="59.25" y="-222.5" font-family="Helvetica,sans-Serif" font-size="10.00">create()</text>
<text xml:space="preserve" text-anchor="start" x="49.25" y="-206.5" font-family="Helvetica,sans-Serif" font-size="10.00">+</text>
<text xml:space="preserve" text-anchor="start" x="59.25" y="-206.5" font-family="Helvetica,sans-Serif" font-size="10.00">render()</text>
<text xml:space="preserve" text-anchor="start" x="49.25" y="-190.5" font-family="Helvetica,sans-Serif" font-size="10.00">+</text>
<text xml:space="preserve" text-anchor="start" x="59.25" y="-190.5" font-family="Helvetica,sans-Serif" font-size="10.00">update()</text>
<text xml:space="preserve" text-anchor="start" x="49.25" y="-174.5" font-family="Helvetica,sans-Serif" font-size="10.00">+</text>
<text xml:space="preserve" text-anchor="start" x="59.25" y="-174.5" font-family="Helvetica,sans-Serif" font-size="10.00">destroy()</text>
<polygon fill="#666666" stroke="#666666" points="45.25,-330 45.25,-330 129.25,-330 129.25,-330 45.25,-330"/>
<polygon fill="#666666" stroke="#666666" points="45.25,-266 45.25,-266 57.25,-266 57.25,-266 45.25,-266"/>
<polygon fill="#666666" stroke="#666666" points="57.25,-266 57.25,-266 129.25,-266 129.25,-266 57.25,-266"/>
<polygon fill="none" stroke="#666666" points="45.25,-168 45.25,-348 129.25,-348 129.25,-168 45.25,-168"/>
</a>
</g>
</g>
<!-- Node1&#45;&gt;Node2 -->
<g id="edge9_Node000001_Node000002" class="edge">
<title>Node1&#45;&gt;Node2</title>
<g id="a_edge9_Node000001_Node000002"><a xlink:title=" ">
<path fill="none" stroke="#63b8ff" d="M127.55,-373.61C124.61,-365.24 121.57,-356.59 118.54,-347.97"/>
<polygon fill="none" stroke="#63b8ff" points="124.23,-374.71 130.85,-382.98 130.83,-372.39 124.23,-374.71"/>
</a>
</g>
</g>
<!-- Node5 -->
<g id="Node000005" class="node">
<title>Node5</title>
<g id="a_Node000005"><a xlink:href="$class_tiny_engine_scene_default.html" xlink:title=" ">
<polygon fill="white" stroke="none" points="285.25,-324 147.25,-324 147.25,-192 285.25,-192 285.25,-324"/>
<text xml:space="preserve" text-anchor="start" x="162.25" y="-310.5" font-family="Helvetica,sans-Serif" font-size="10.00">TinyEngineSceneDefault</text>
<text xml:space="preserve" text-anchor="start" x="214.75" y="-294.5" font-family="Helvetica,sans-Serif" font-size="10.00"> </text>
<text xml:space="preserve" text-anchor="start" x="151.25" y="-278.5" font-family="Helvetica,sans-Serif" font-size="10.00">+</text>
<text xml:space="preserve" text-anchor="start" x="161.25" y="-278.5" font-family="Helvetica,sans-Serif" font-size="10.00">TinyEngineSceneDefault()</text>
<text xml:space="preserve" text-anchor="start" x="151.25" y="-262.5" font-family="Helvetica,sans-Serif" font-size="10.00">+</text>
<text xml:space="preserve" text-anchor="start" x="161.25" y="-262.5" font-family="Helvetica,sans-Serif" font-size="10.00">~TinyEngineSceneDefault()</text>
<text xml:space="preserve" text-anchor="start" x="151.25" y="-246.5" font-family="Helvetica,sans-Serif" font-size="10.00">+</text>
<text xml:space="preserve" text-anchor="start" x="161.25" y="-246.5" font-family="Helvetica,sans-Serif" font-size="10.00">render()</text>
<text xml:space="preserve" text-anchor="start" x="151.25" y="-230.5" font-family="Helvetica,sans-Serif" font-size="10.00">+</text>
<text xml:space="preserve" text-anchor="start" x="161.25" y="-230.5" font-family="Helvetica,sans-Serif" font-size="10.00">update()</text>
<text xml:space="preserve" text-anchor="start" x="151.25" y="-214.5" font-family="Helvetica,sans-Serif" font-size="10.00">+</text>
<text xml:space="preserve" text-anchor="start" x="161.25" y="-214.5" font-family="Helvetica,sans-Serif" font-size="10.00">create()</text>
<text xml:space="preserve" text-anchor="start" x="151.25" y="-198.5" font-family="Helvetica,sans-Serif" font-size="10.00">+</text>
<text xml:space="preserve" text-anchor="start" x="161.25" y="-198.5" font-family="Helvetica,sans-Serif" font-size="10.00">destroy()</text>
<polygon fill="#666666" stroke="#666666" points="147.25,-306 147.25,-306 285.25,-306 285.25,-306 147.25,-306"/>
<polygon fill="#666666" stroke="#666666" points="147.25,-290 147.25,-290 285.25,-290 285.25,-290 147.25,-290"/>
<polygon fill="none" stroke="#666666" points="147.25,-192 147.25,-324 285.25,-324 285.25,-192 147.25,-192"/>
</a>
</g>
</g>
<!-- Node1&#45;&gt;Node5 -->
<g id="edge12_Node000001_Node000005" class="edge">
<title>Node1&#45;&gt;Node5</title>
<g id="a_edge12_Node000001_Node000005"><a xlink:title=" ">
<path fill="none" stroke="#63b8ff" d="M175.23,-373.85C181.07,-357.51 187.3,-340.06 193.1,-323.82"/>
<polygon fill="none" stroke="#63b8ff" points="172.04,-372.39 171.97,-382.99 178.63,-374.75 172.04,-372.39"/>
</a>
</g>
</g>
<!-- Node3 -->
<g id="Node000003" class="node">
<title>Node3</title>
<g id="a_Node000003"><a xlink:href="$class_dino_game.html" xlink:title=" ">
<polygon fill="white" stroke="none" points="76.5,-132 0,-132 0,0 76.5,0 76.5,-132"/>
<text xml:space="preserve" text-anchor="start" x="15" y="-118.5" font-family="Helvetica,sans-Serif" font-size="10.00">DinoGame</text>
<text xml:space="preserve" text-anchor="start" x="36.75" y="-102.5" font-family="Helvetica,sans-Serif" font-size="10.00"> </text>
<text xml:space="preserve" text-anchor="start" x="4" y="-86.5" font-family="Helvetica,sans-Serif" font-size="10.00">+</text>
<text xml:space="preserve" text-anchor="start" x="14" y="-86.5" font-family="Helvetica,sans-Serif" font-size="10.00">DinoGame()</text>
<text xml:space="preserve" text-anchor="start" x="4" y="-70.5" font-family="Helvetica,sans-Serif" font-size="10.00">+</text>
<text xml:space="preserve" text-anchor="start" x="14" y="-70.5" font-family="Helvetica,sans-Serif" font-size="10.00">~DinoGame()</text>
<text xml:space="preserve" text-anchor="start" x="4" y="-54.5" font-family="Helvetica,sans-Serif" font-size="10.00">+</text>
<text xml:space="preserve" text-anchor="start" x="14" y="-54.5" font-family="Helvetica,sans-Serif" font-size="10.00">create()</text>
<text xml:space="preserve" text-anchor="start" x="4" y="-38.5" font-family="Helvetica,sans-Serif" font-size="10.00">+</text>
<text xml:space="preserve" text-anchor="start" x="14" y="-38.5" font-family="Helvetica,sans-Serif" font-size="10.00">render()</text>
<text xml:space="preserve" text-anchor="start" x="4" y="-22.5" font-family="Helvetica,sans-Serif" font-size="10.00">+</text>
<text xml:space="preserve" text-anchor="start" x="14" y="-22.5" font-family="Helvetica,sans-Serif" font-size="10.00">update()</text>
<text xml:space="preserve" text-anchor="start" x="4" y="-6.5" font-family="Helvetica,sans-Serif" font-size="10.00">+</text>
<text xml:space="preserve" text-anchor="start" x="14" y="-6.5" font-family="Helvetica,sans-Serif" font-size="10.00">destroy()</text>
<polygon fill="#666666" stroke="#666666" points="0,-114 0,-114 76.5,-114 76.5,-114 0,-114"/>
<polygon fill="#666666" stroke="#666666" points="0,-98 0,-98 76.5,-98 76.5,-98 0,-98"/>
<polygon fill="none" stroke="#666666" points="0,0 0,-132 76.5,-132 76.5,0 0,0"/>
</a>
</g>
</g>
<!-- Node2&#45;&gt;Node3 -->
<g id="edge10_Node000002_Node000003" class="edge">
<title>Node2&#45;&gt;Node3</title>
<g id="a_edge10_Node000002_Node000003"><a xlink:title=" ">
<path fill="none" stroke="#63b8ff" d="M61.51,-157.18C59.28,-148.55 57.07,-139.97 54.94,-131.73"/>
<polygon fill="none" stroke="#63b8ff" points="58.06,-157.84 63.95,-166.65 64.84,-156.1 58.06,-157.84"/>
</a>
</g>
</g>
<!-- Node4 -->
<g id="Node000004" class="node">
<title>Node4</title>
<g id="a_Node000004"><a xlink:href="$class_snake_game.html" xlink:title=" ">
<polygon fill="white" stroke="none" points="178.25,-132 94.25,-132 94.25,0 178.25,0 178.25,-132"/>
<text xml:space="preserve" text-anchor="start" x="109.25" y="-118.5" font-family="Helvetica,sans-Serif" font-size="10.00">SnakeGame</text>
<text xml:space="preserve" text-anchor="start" x="134.75" y="-102.5" font-family="Helvetica,sans-Serif" font-size="10.00"> </text>
<text xml:space="preserve" text-anchor="start" x="98.25" y="-86.5" font-family="Helvetica,sans-Serif" font-size="10.00">+</text>
<text xml:space="preserve" text-anchor="start" x="108.25" y="-86.5" font-family="Helvetica,sans-Serif" font-size="10.00">SnakeGame()</text>
<text xml:space="preserve" text-anchor="start" x="98.25" y="-70.5" font-family="Helvetica,sans-Serif" font-size="10.00">+</text>
<text xml:space="preserve" text-anchor="start" x="108.25" y="-70.5" font-family="Helvetica,sans-Serif" font-size="10.00">~SnakeGame()</text>
<text xml:space="preserve" text-anchor="start" x="98.25" y="-54.5" font-family="Helvetica,sans-Serif" font-size="10.00">+</text>
<text xml:space="preserve" text-anchor="start" x="108.25" y="-54.5" font-family="Helvetica,sans-Serif" font-size="10.00">create()</text>
<text xml:space="preserve" text-anchor="start" x="98.25" y="-38.5" font-family="Helvetica,sans-Serif" font-size="10.00">+</text>
<text xml:space="preserve" text-anchor="start" x="108.25" y="-38.5" font-family="Helvetica,sans-Serif" font-size="10.00">render()</text>
<text xml:space="preserve" text-anchor="start" x="98.25" y="-22.5" font-family="Helvetica,sans-Serif" font-size="10.00">+</text>
<text xml:space="preserve" text-anchor="start" x="108.25" y="-22.5" font-family="Helvetica,sans-Serif" font-size="10.00">update()</text>
<text xml:space="preserve" text-anchor="start" x="98.25" y="-6.5" font-family="Helvetica,sans-Serif" font-size="10.00">+</text>
<text xml:space="preserve" text-anchor="start" x="108.25" y="-6.5" font-family="Helvetica,sans-Serif" font-size="10.00">destroy()</text>
<polygon fill="#666666" stroke="#666666" points="94.25,-114 94.25,-114 178.25,-114 178.25,-114 94.25,-114"/>
<polygon fill="#666666" stroke="#666666" points="94.25,-98 94.25,-98 178.25,-98 178.25,-98 94.25,-98"/>
<polygon fill="none" stroke="#666666" points="94.25,0 94.25,-132 178.25,-132 178.25,0 94.25,0"/>
</a>
</g>
</g>
<!-- Node2&#45;&gt;Node4 -->
<g id="edge11_Node000002_Node000004" class="edge">
<title>Node2&#45;&gt;Node4</title>
<g id="a_edge11_Node000002_Node000004"><a xlink:title=" ">
<path fill="none" stroke="#63b8ff" d="M112.99,-157.18C115.22,-148.55 117.43,-139.97 119.56,-131.73"/>
<polygon fill="none" stroke="#63b8ff" points="109.66,-156.1 110.55,-166.65 116.44,-157.84 109.66,-156.1"/>
</a>
</g>
</g>
</g>
</svg>
