<?xml version="1.0" encoding="UTF-8" standalone="no"?>
<!DOCTYPE svg PUBLIC "-//W3C//DTD SVG 1.1//EN"
 "http://www.w3.org/Graphics/SVG/1.1/DTD/svg11.dtd">
<!-- Generated by graphviz version 13.1.2 (20250808.2320)
 -->
<!-- Title: inc/dino_running.h Pages: 1 -->
<svg width="298pt" height="84pt"
 viewBox="0.00 0.00 298.00 84.00" xmlns="http://www.w3.org/2000/svg" xmlns:xlink="http://www.w3.org/1999/xlink">
<g id="graph0" class="graph" transform="scale(1 1) rotate(0) translate(4 80)">
<title>inc/dino_running.h</title>
<!-- Node1 -->
<g id="Node000001" class="node">
<title>Node1</title>
<g id="a_Node000001"><a xlink:title=" ">
<polygon fill="#999999" stroke="#666666" points="190.5,-76 95.75,-76 95.75,-56 190.5,-56 190.5,-76"/>
<text xml:space="preserve" text-anchor="middle" x="143.12" y="-62.5" font-family="Helvetica,sans-Serif" font-size="10.00">inc/dino_running.h</text>
</a>
</g>
</g>
<!-- Node2 -->
<g id="Node000002" class="node">
<title>Node2</title>
<g id="a_Node000002"><a xlink:href="$_dino_game_8cpp.html" xlink:title=" ">
<polygon fill="white" stroke="#666666" points="132.25,-20 0,-20 0,0 132.25,0 132.25,-20"/>
<text xml:space="preserve" text-anchor="middle" x="66.12" y="-6.5" font-family="Helvetica,sans-Serif" font-size="10.00">src/scenes/DinoGame.cpp</text>
</a>
</g>
</g>
<!-- Node1&#45;&gt;Node2 -->
<g id="edge5_Node000001_Node000002" class="edge">
<title>Node1&#45;&gt;Node2</title>
<g id="a_edge5_Node000001_Node000002"><a xlink:title=" ">
<path fill="none" stroke="#63b8ff" d="M120.31,-49C107.08,-39.72 90.87,-28.35 79.64,-20.48"/>
<polygon fill="#63b8ff" stroke="#63b8ff" points="118.28,-51.85 128.47,-54.72 122.3,-46.12 118.28,-51.85"/>
</a>
</g>
</g>
<!-- Node3 -->
<g id="Node000003" class="node">
<title>Node3</title>
<g id="a_Node000003"><a xlink:href="$_snake_game_8cpp.html" xlink:title=" ">
<polygon fill="white" stroke="#666666" points="290,-20 150.25,-20 150.25,0 290,0 290,-20"/>
<text xml:space="preserve" text-anchor="middle" x="220.12" y="-6.5" font-family="Helvetica,sans-Serif" font-size="10.00">src/scenes/SnakeGame.cpp</text>
</a>
</g>
</g>
<!-- Node1&#45;&gt;Node3 -->
<g id="edge6_Node000001_Node000003" class="edge">
<title>Node1&#45;&gt;Node3</title>
<g id="a_edge6_Node000001_Node000003"><a xlink:title=" ">
<path fill="none" stroke="#63b8ff" d="M165.94,-49C179.17,-39.72 195.38,-28.35 206.61,-20.48"/>
<polygon fill="#63b8ff" stroke="#63b8ff" points="163.95,-46.12 157.78,-54.72 167.97,-51.85 163.95,-46.12"/>
</a>
</g>
</g>
</g>
</svg>
