<?xml version="1.0" encoding="UTF-8" standalone="no"?>
<!DOCTYPE svg PUBLIC "-//W3C//DTD SVG 1.1//EN"
 "http://www.w3.org/Graphics/SVG/1.1/DTD/svg11.dtd">
<!-- Generated by graphviz version 13.1.2 (20250808.2320)
 -->
<!-- Title: c2Capsule Pages: 1 -->
<svg width="63pt" height="198pt"
 viewBox="0.00 0.00 63.00 198.00" xmlns="http://www.w3.org/2000/svg" xmlns:xlink="http://www.w3.org/1999/xlink">
<g id="graph0" class="graph" transform="scale(1 1) rotate(0) translate(4 194)">
<title>c2Capsule</title>
<!-- Node1 -->
<g id="Node000001" class="node">
<title>Node1</title>
<g id="a_Node000001"><a xlink:title=" ">
<polygon fill="#999999" stroke="none" points="54.5,-52 0,-52 0,0 54.5,0 54.5,-52"/>
<text xml:space="preserve" text-anchor="start" x="4" y="-38.5" font-family="Helvetica,sans-Serif" font-size="10.00">c2Capsule</text>
<text xml:space="preserve" text-anchor="start" x="12.38" y="-22.5" font-family="Helvetica,sans-Serif" font-size="10.00">+</text>
<text xml:space="preserve" text-anchor="start" x="30.75" y="-22.5" font-family="Helvetica,sans-Serif" font-size="10.00">r</text>
<text xml:space="preserve" text-anchor="start" x="25.75" y="-6.5" font-family="Helvetica,sans-Serif" font-size="10.00"> </text>
<polygon fill="#666666" stroke="#666666" points="0,-34 0,-34 54.5,-34 54.5,-34 0,-34"/>
<polygon fill="#666666" stroke="#666666" points="0,-18 0,-18 28.75,-18 28.75,-18 0,-18"/>
<polygon fill="#666666" stroke="#666666" points="28.75,-18 28.75,-18 54.5,-18 54.5,-18 28.75,-18"/>
<polygon fill="none" stroke="#666666" points="0,0 0,-52 54.5,-52 54.5,0 0,0"/>
</a>
</g>
</g>
<!-- Node2 -->
<g id="Node000002" class="node">
<title>Node2</title>
<g id="a_Node000002"><a xlink:href="$structc2v.html" xlink:title=" ">
<polygon fill="white" stroke="none" points="39.12,-190 15.38,-190 15.38,-122 39.12,-122 39.12,-190"/>
<text xml:space="preserve" text-anchor="start" x="19.38" y="-176.5" font-family="Helvetica,sans-Serif" font-size="10.00">c2v</text>
<text xml:space="preserve" text-anchor="start" x="19.5" y="-160.5" font-family="Helvetica,sans-Serif" font-size="10.00">+</text>
<text xml:space="preserve" text-anchor="start" x="29.62" y="-160.5" font-family="Helvetica,sans-Serif" font-size="10.00">x</text>
<text xml:space="preserve" text-anchor="start" x="19.5" y="-144.5" font-family="Helvetica,sans-Serif" font-size="10.00">+</text>
<text xml:space="preserve" text-anchor="start" x="29.62" y="-144.5" font-family="Helvetica,sans-Serif" font-size="10.00">y</text>
<text xml:space="preserve" text-anchor="start" x="25.75" y="-128.5" font-family="Helvetica,sans-Serif" font-size="10.00"> </text>
<polygon fill="#666666" stroke="#666666" points="15.38,-172 15.38,-172 39.12,-172 39.12,-172 15.38,-172"/>
<polygon fill="#666666" stroke="#666666" points="15.38,-140 15.38,-140 27.62,-140 27.62,-140 15.38,-140"/>
<polygon fill="#666666" stroke="#666666" points="27.62,-140 27.62,-140 39.12,-140 39.12,-140 27.62,-140"/>
<polygon fill="none" stroke="#666666" points="15.38,-122 15.38,-190 39.12,-190 39.12,-122 15.38,-122"/>
</a>
</g>
</g>
<!-- Node2&#45;&gt;Node1 -->
<g id="edge3_Node000001_Node000002" class="edge">
<title>Node2&#45;&gt;Node1</title>
<g id="a_edge3_Node000001_Node000002"><a xlink:title=" ">
<path fill="none" stroke="#63b8ff" d="M27.25,-122.04C27.25,-104.48 27.25,-82.81 27.25,-64.6"/>
<polygon fill="none" stroke="#63b8ff" points="27.25,-64.67 23.25,-58.67 27.25,-52.67 31.25,-58.67 27.25,-64.67"/>
</a>
</g>
<text xml:space="preserve" text-anchor="start" x="30.25" y="-91.5" font-family="Helvetica,sans-Serif" font-size="10.00" fill="grey">+a</text>
<text xml:space="preserve" text-anchor="start" x="30.25" y="-75.5" font-family="Helvetica,sans-Serif" font-size="10.00" fill="grey">+b</text>
</g>
</g>
</svg>
