<?xml version="1.0" encoding="UTF-8" standalone="no"?>
<!DOCTYPE svg PUBLIC "-//W3C//DTD SVG 1.1//EN"
 "http://www.w3.org/Graphics/SVG/1.1/DTD/svg11.dtd">
<!-- Generated by graphviz version 13.1.2 (20250808.2320)
 -->
<!-- Title: c2GJKCache Pages: 1 -->
<svg width="75pt" height="124pt"
 viewBox="0.00 0.00 75.00 124.00" xmlns="http://www.w3.org/2000/svg" xmlns:xlink="http://www.w3.org/1999/xlink">
<g id="graph0" class="graph" transform="scale(1 1) rotate(0) translate(4 120)">
<title>c2GJKCache</title>
<!-- Node1 -->
<g id="Node000001" class="node">
<title>Node1</title>
<g id="a_Node000001"><a xlink:title=" ">
<polygon fill="#999999" stroke="none" points="66.5,-116 0,-116 0,0 66.5,0 66.5,-116"/>
<text xml:space="preserve" text-anchor="start" x="4" y="-102.5" font-family="Helvetica,sans-Serif" font-size="10.00">c2GJKCache</text>
<text xml:space="preserve" text-anchor="start" x="9.38" y="-86.5" font-family="Helvetica,sans-Serif" font-size="10.00">+</text>
<text xml:space="preserve" text-anchor="start" x="24.75" y="-86.5" font-family="Helvetica,sans-Serif" font-size="10.00">metric</text>
<text xml:space="preserve" text-anchor="start" x="9.38" y="-70.5" font-family="Helvetica,sans-Serif" font-size="10.00">+</text>
<text xml:space="preserve" text-anchor="start" x="24.75" y="-70.5" font-family="Helvetica,sans-Serif" font-size="10.00">count</text>
<text xml:space="preserve" text-anchor="start" x="9.38" y="-54.5" font-family="Helvetica,sans-Serif" font-size="10.00">+</text>
<text xml:space="preserve" text-anchor="start" x="24.75" y="-54.5" font-family="Helvetica,sans-Serif" font-size="10.00">iA</text>
<text xml:space="preserve" text-anchor="start" x="9.38" y="-38.5" font-family="Helvetica,sans-Serif" font-size="10.00">+</text>
<text xml:space="preserve" text-anchor="start" x="24.75" y="-38.5" font-family="Helvetica,sans-Serif" font-size="10.00">iB</text>
<text xml:space="preserve" text-anchor="start" x="9.38" y="-22.5" font-family="Helvetica,sans-Serif" font-size="10.00">+</text>
<text xml:space="preserve" text-anchor="start" x="24.75" y="-22.5" font-family="Helvetica,sans-Serif" font-size="10.00">div</text>
<text xml:space="preserve" text-anchor="start" x="31.75" y="-6.5" font-family="Helvetica,sans-Serif" font-size="10.00"> </text>
<polygon fill="#666666" stroke="#666666" points="0,-98 0,-98 66.5,-98 66.5,-98 0,-98"/>
<polygon fill="#666666" stroke="#666666" points="0,-18 0,-18 22.75,-18 22.75,-18 0,-18"/>
<polygon fill="#666666" stroke="#666666" points="22.75,-18 22.75,-18 66.5,-18 66.5,-18 22.75,-18"/>
<polygon fill="none" stroke="#666666" points="0,0 0,-116 66.5,-116 66.5,0 0,0"/>
</a>
</g>
</g>
</g>
</svg>
