<?xml version="1.0" encoding="UTF-8" standalone="no"?>
<!DOCTYPE svg PUBLIC "-//W3C//DTD SVG 1.1//EN"
 "http://www.w3.org/Graphics/SVG/1.1/DTD/svg11.dtd">
<!-- Generated by graphviz version 13.1.2 (20250808.2320)
 -->
<!-- Title: c2TOIResult Pages: 1 -->
<svg width="72pt" height="230pt"
 viewBox="0.00 0.00 72.00 230.00" xmlns="http://www.w3.org/2000/svg" xmlns:xlink="http://www.w3.org/1999/xlink">
<g id="graph0" class="graph" transform="scale(1 1) rotate(0) translate(4 226)">
<title>c2TOIResult</title>
<!-- Node1 -->
<g id="Node000001" class="node">
<title>Node1</title>
<g id="a_Node000001"><a xlink:title=" ">
<polygon fill="#999999" stroke="none" points="63.5,-84 0,-84 0,0 63.5,0 63.5,-84"/>
<text xml:space="preserve" text-anchor="start" x="4" y="-70.5" font-family="Helvetica,sans-Serif" font-size="10.00">c2TOIResult</text>
<text xml:space="preserve" text-anchor="start" x="5.44" y="-54.5" font-family="Helvetica,sans-Serif" font-size="10.00">+</text>
<text xml:space="preserve" text-anchor="start" x="16.88" y="-54.5" font-family="Helvetica,sans-Serif" font-size="10.00">hit</text>
<text xml:space="preserve" text-anchor="start" x="5.44" y="-38.5" font-family="Helvetica,sans-Serif" font-size="10.00">+</text>
<text xml:space="preserve" text-anchor="start" x="16.88" y="-38.5" font-family="Helvetica,sans-Serif" font-size="10.00">toi</text>
<text xml:space="preserve" text-anchor="start" x="5.44" y="-22.5" font-family="Helvetica,sans-Serif" font-size="10.00">+</text>
<text xml:space="preserve" text-anchor="start" x="16.88" y="-22.5" font-family="Helvetica,sans-Serif" font-size="10.00">iterations</text>
<text xml:space="preserve" text-anchor="start" x="30.25" y="-6.5" font-family="Helvetica,sans-Serif" font-size="10.00"> </text>
<polygon fill="#666666" stroke="#666666" points="0,-66 0,-66 63.5,-66 63.5,-66 0,-66"/>
<polygon fill="#666666" stroke="#666666" points="0,-18 0,-18 14.88,-18 14.88,-18 0,-18"/>
<polygon fill="#666666" stroke="#666666" points="14.88,-18 14.88,-18 63.5,-18 63.5,-18 14.88,-18"/>
<polygon fill="none" stroke="#666666" points="0,0 0,-84 63.5,-84 63.5,0 0,0"/>
</a>
</g>
</g>
<!-- Node2 -->
<g id="Node000002" class="node">
<title>Node2</title>
<g id="a_Node000002"><a xlink:href="$structc2v.html" xlink:title=" ">
<polygon fill="white" stroke="none" points="43.62,-222 19.88,-222 19.88,-154 43.62,-154 43.62,-222"/>
<text xml:space="preserve" text-anchor="start" x="23.88" y="-208.5" font-family="Helvetica,sans-Serif" font-size="10.00">c2v</text>
<text xml:space="preserve" text-anchor="start" x="24" y="-192.5" font-family="Helvetica,sans-Serif" font-size="10.00">+</text>
<text xml:space="preserve" text-anchor="start" x="34.12" y="-192.5" font-family="Helvetica,sans-Serif" font-size="10.00">x</text>
<text xml:space="preserve" text-anchor="start" x="24" y="-176.5" font-family="Helvetica,sans-Serif" font-size="10.00">+</text>
<text xml:space="preserve" text-anchor="start" x="34.12" y="-176.5" font-family="Helvetica,sans-Serif" font-size="10.00">y</text>
<text xml:space="preserve" text-anchor="start" x="30.25" y="-160.5" font-family="Helvetica,sans-Serif" font-size="10.00"> </text>
<polygon fill="#666666" stroke="#666666" points="19.88,-204 19.88,-204 43.62,-204 43.62,-204 19.88,-204"/>
<polygon fill="#666666" stroke="#666666" points="19.88,-172 19.88,-172 32.12,-172 32.12,-172 19.88,-172"/>
<polygon fill="#666666" stroke="#666666" points="32.12,-172 32.12,-172 43.62,-172 43.62,-172 32.12,-172"/>
<polygon fill="none" stroke="#666666" points="19.88,-154 19.88,-222 43.62,-222 43.62,-154 19.88,-154"/>
</a>
</g>
</g>
<!-- Node2&#45;&gt;Node1 -->
<g id="edge3_Node000001_Node000002" class="edge">
<title>Node2&#45;&gt;Node1</title>
<g id="a_edge3_Node000001_Node000002"><a xlink:title=" ">
<path fill="none" stroke="#63b8ff" d="M31.75,-154.32C31.75,-137.33 31.75,-116.13 31.75,-96.8"/>
<polygon fill="none" stroke="#63b8ff" points="31.75,-96.69 27.75,-90.69 31.75,-84.69 35.75,-90.69 31.75,-96.69"/>
</a>
</g>
<text xml:space="preserve" text-anchor="start" x="34.75" y="-123.5" font-family="Helvetica,sans-Serif" font-size="10.00" fill="grey">+n</text>
<text xml:space="preserve" text-anchor="start" x="34.75" y="-107.5" font-family="Helvetica,sans-Serif" font-size="10.00" fill="grey">+p</text>
</g>
</g>
</svg>
