<?xml version="1.0" encoding="UTF-8" standalone="no"?>
<!DOCTYPE svg PUBLIC "-//W3C//DTD SVG 1.1//EN"
 "http://www.w3.org/Graphics/SVG/1.1/DTD/svg11.dtd">
<!-- Generated by graphviz version 13.1.2 (20250808.2320)
 -->
<!-- Title: src/tinyengine.cpp Pages: 1 -->
<svg width="2329pt" height="152pt"
 viewBox="0.00 0.00 2329.00 152.00" xmlns="http://www.w3.org/2000/svg" xmlns:xlink="http://www.w3.org/1999/xlink">
<g id="graph0" class="graph" transform="scale(1 1) rotate(0) translate(4 148)">
<title>src/tinyengine.cpp</title>
<!-- Node1 -->
<g id="Node000001" class="node">
<title>Node1</title>
<g id="a_Node000001"><a xlink:title=" ">
<polygon fill="#999999" stroke="#666666" points="1272,-144 1176.5,-144 1176.5,-124 1272,-124 1272,-144"/>
<text xml:space="preserve" text-anchor="middle" x="1224.25" y="-130.5" font-family="Helvetica,sans-Serif" font-size="10.00">src/tinyengine.cpp</text>
</a>
</g>
</g>
<!-- Node2 -->
<g id="Node000002" class="node">
<title>Node2</title>
<g id="a_Node000002"><a xlink:href="$tinyengine_8h.html" xlink:title=" ">
<polygon fill="white" stroke="#666666" points="1196.5,-88 1128,-88 1128,-68 1196.5,-68 1196.5,-88"/>
<text xml:space="preserve" text-anchor="middle" x="1162.25" y="-74.5" font-family="Helvetica,sans-Serif" font-size="10.00">tinyengine.h</text>
</a>
</g>
</g>
<!-- Node1&#45;&gt;Node2 -->
<g id="edge57_Node000001_Node000002" class="edge">
<title>Node1&#45;&gt;Node2</title>
<g id="a_edge57_Node000001_Node000002"><a xlink:title=" ">
<path fill="none" stroke="#63b8ff" d="M1213.45,-123.59C1204.65,-115.93 1192,-104.91 1181.48,-95.75"/>
<polygon fill="#63b8ff" stroke="#63b8ff" points="1183.91,-93.22 1174.07,-89.29 1179.31,-98.5 1183.91,-93.22"/>
</a>
</g>
</g>
<!-- Node3 -->
<g id="Node000003" class="node">
<title>Node3</title>
<g id="a_Node000003"><a xlink:title=" ">
<polygon fill="#e0e0e0" stroke="#999999" points="68.5,-26 0,-26 0,-6 68.5,-6 68.5,-26"/>
<text xml:space="preserve" text-anchor="middle" x="34.25" y="-12.5" font-family="Helvetica,sans-Serif" font-size="10.00">pico/stdlib.h</text>
</a>
</g>
</g>
<!-- Node1&#45;&gt;Node3 -->
<g id="edge81_Node000001_Node000003" class="edge">
<title>Node1&#45;&gt;Node3</title>
<g id="a_edge81_Node000001_Node000003"><a xlink:title=" ">
<path fill="none" stroke="#63b8ff" d="M1176.09,-133C1017.21,-132.1 495.98,-122.01 77.25,-32 74.48,-31.4 71.64,-30.68 68.8,-29.88"/>
<polygon fill="#63b8ff" stroke="#63b8ff" points="70.09,-26.61 59.5,-26.94 67.98,-33.29 70.09,-26.61"/>
</a>
</g>
</g>
<!-- Node15 -->
<g id="Node000015" class="node">
<title>Node15</title>
<g id="a_Node000015"><a xlink:title=" ">
<polygon fill="#e0e0e0" stroke="#999999" points="2320.75,-26 2235.75,-26 2235.75,-6 2320.75,-6 2320.75,-26"/>
<text xml:space="preserve" text-anchor="middle" x="2278.25" y="-12.5" font-family="Helvetica,sans-Serif" font-size="10.00">hardware/gpio.h</text>
</a>
</g>
</g>
<!-- Node1&#45;&gt;Node15 -->
<g id="edge83_Node000001_Node000015" class="edge">
<title>Node1&#45;&gt;Node15</title>
<g id="a_edge83_Node000001_Node000015"><a xlink:title=" ">
<path fill="none" stroke="#63b8ff" d="M1223.86,-123.62C1223.83,-109.05 1226.18,-81.29 1243.25,-68 1286.37,-34.43 2172.29,-40.64 2226.25,-32 2230.56,-31.31 2235.02,-30.38 2239.44,-29.31"/>
<polygon fill="#63b8ff" stroke="#63b8ff" points="2239.97,-32.79 2248.73,-26.84 2238.17,-26.02 2239.97,-32.79"/>
</a>
</g>
</g>
<!-- Node25 -->
<g id="Node000025" class="node">
<title>Node25</title>
<g id="a_Node000025"><a xlink:title=" ">
<polygon fill="#e0e0e0" stroke="#999999" points="1316.25,-88 1252.25,-88 1252.25,-68 1316.25,-68 1316.25,-88"/>
<text xml:space="preserve" text-anchor="middle" x="1284.25" y="-74.5" font-family="Helvetica,sans-Serif" font-size="10.00">pico/time.h</text>
</a>
</g>
</g>
<!-- Node1&#45;&gt;Node25 -->
<g id="edge82_Node000001_Node000025" class="edge">
<title>Node1&#45;&gt;Node25</title>
<g id="a_edge82_Node000001_Node000025"><a xlink:title=" ">
<path fill="none" stroke="#63b8ff" d="M1234.7,-123.59C1243.22,-115.93 1255.46,-104.91 1265.64,-95.75"/>
<polygon fill="#63b8ff" stroke="#63b8ff" points="1267.7,-98.6 1272.79,-89.31 1263.02,-93.4 1267.7,-98.6"/>
</a>
</g>
</g>
<!-- Node26 -->
<g id="Node000026" class="node">
<title>Node26</title>
<g id="a_Node000026"><a xlink:title=" ">
<polygon fill="#e0e0e0" stroke="#999999" points="1443.75,-88 1334.75,-88 1334.75,-68 1443.75,-68 1443.75,-88"/>
<text xml:space="preserve" text-anchor="middle" x="1389.25" y="-74.5" font-family="Helvetica,sans-Serif" font-size="10.00">hardware/exception.h</text>
</a>
</g>
</g>
<!-- Node1&#45;&gt;Node26 -->
<g id="edge84_Node000001_Node000026" class="edge">
<title>Node1&#45;&gt;Node26</title>
<g id="a_edge84_Node000001_Node000026"><a xlink:title=" ">
<path fill="none" stroke="#63b8ff" d="M1252.99,-123.59C1279.68,-114.86 1319.67,-101.77 1349.43,-92.03"/>
<polygon fill="#63b8ff" stroke="#63b8ff" points="1350.43,-95.39 1358.85,-88.95 1348.25,-88.73 1350.43,-95.39"/>
</a>
</g>
</g>
<!-- Node2&#45;&gt;Node3 -->
<g id="edge58_Node000002_Node000003" class="edge">
<title>Node2&#45;&gt;Node3</title>
<g id="a_edge58_Node000002_Node000003"><a xlink:title=" ">
<path fill="none" stroke="#63b8ff" d="M1127.68,-76.17C954.16,-71.93 182.34,-52.05 77.25,-32 74.22,-31.42 71.12,-30.67 68.04,-29.82"/>
<polygon fill="#63b8ff" stroke="#63b8ff" points="69.15,-26.5 58.56,-26.83 67.04,-33.17 69.15,-26.5"/>
</a>
</g>
</g>
<!-- Node4 -->
<g id="Node000004" class="node">
<title>Node4</title>
<g id="a_Node000004"><a xlink:title=" ">
<polygon fill="#e0e0e0" stroke="#999999" points="131.88,-26 86.62,-26 86.62,-6 131.88,-6 131.88,-26"/>
<text xml:space="preserve" text-anchor="middle" x="109.25" y="-12.5" font-family="Helvetica,sans-Serif" font-size="10.00">stdio.h</text>
</a>
</g>
</g>
<!-- Node2&#45;&gt;Node4 -->
<g id="edge59_Node000002_Node000004" class="edge">
<title>Node2&#45;&gt;Node4</title>
<g id="a_edge59_Node000002_Node000004"><a xlink:title=" ">
<path fill="none" stroke="#63b8ff" d="M1127.76,-76.28C960.59,-72.7 238.65,-55.96 141.25,-32 139.65,-31.61 138.03,-31.13 136.42,-30.59"/>
<polygon fill="#63b8ff" stroke="#63b8ff" points="138.05,-27.48 127.47,-26.96 135.42,-33.96 138.05,-27.48"/>
</a>
</g>
</g>
<!-- Node5 -->
<g id="Node000005" class="node">
<title>Node5</title>
<g id="a_Node000005"><a xlink:title=" ">
<polygon fill="#e0e0e0" stroke="#999999" points="230.12,-26 150.38,-26 150.38,-6 230.12,-6 230.12,-26"/>
<text xml:space="preserve" text-anchor="middle" x="190.25" y="-12.5" font-family="Helvetica,sans-Serif" font-size="10.00">hardware/spi.h</text>
</a>
</g>
</g>
<!-- Node2&#45;&gt;Node5 -->
<g id="edge60_Node000002_Node000005" class="edge">
<title>Node2&#45;&gt;Node5</title>
<g id="a_edge60_Node000002_Node000005"><a xlink:title=" ">
<path fill="none" stroke="#63b8ff" d="M1127.51,-76.46C981.23,-74 414.87,-62.67 239.25,-32 235.45,-31.34 231.54,-30.47 227.66,-29.48"/>
<polygon fill="#63b8ff" stroke="#63b8ff" points="228.95,-26.21 218.37,-26.88 227.06,-32.95 228.95,-26.21"/>
</a>
</g>
</g>
<!-- Node6 -->
<g id="Node000006" class="node">
<title>Node6</title>
<g id="a_Node000006"><a xlink:title=" ">
<polygon fill="#e0e0e0" stroke="#999999" points="296.38,-26 248.12,-26 248.12,-6 296.38,-6 296.38,-26"/>
<text xml:space="preserve" text-anchor="middle" x="272.25" y="-12.5" font-family="Helvetica,sans-Serif" font-size="10.00">stdint.h</text>
</a>
</g>
</g>
<!-- Node2&#45;&gt;Node6 -->
<g id="edge61_Node000002_Node000006" class="edge">
<title>Node2&#45;&gt;Node6</title>
<g id="a_edge61_Node000002_Node000006"><a xlink:title=" ">
<path fill="none" stroke="#63b8ff" d="M1127.54,-76.9C987.66,-76.22 465.18,-71.06 305.25,-32 303.61,-31.6 301.95,-31.12 300.29,-30.57"/>
<polygon fill="#63b8ff" stroke="#63b8ff" points="301.62,-27.34 291.03,-26.92 299.05,-33.85 301.62,-27.34"/>
</a>
</g>
</g>
<!-- Node7 -->
<g id="Node000007" class="node">
<title>Node7</title>
<g id="a_Node000007"><a xlink:href="$tinyengine__scene_8h.html" xlink:title=" ">
<polygon fill="white" stroke="#666666" points="414.25,-26 314.25,-26 314.25,-6 414.25,-6 414.25,-26"/>
<text xml:space="preserve" text-anchor="middle" x="364.25" y="-12.5" font-family="Helvetica,sans-Serif" font-size="10.00">tinyengine_scene.h</text>
</a>
</g>
</g>
<!-- Node2&#45;&gt;Node7 -->
<g id="edge62_Node000002_Node000007" class="edge">
<title>Node2&#45;&gt;Node7</title>
<g id="a_edge62_Node000002_Node000007"><a xlink:title=" ">
<path fill="none" stroke="#63b8ff" d="M1127.75,-77.19C1021.82,-77.3 692.17,-73.99 423.25,-32 418.24,-31.22 413.03,-30.2 407.88,-29.07"/>
<polygon fill="#63b8ff" stroke="#63b8ff" points="408.8,-25.69 398.26,-26.79 407.19,-32.5 408.8,-25.69"/>
</a>
</g>
</g>
<!-- Node8 -->
<g id="Node000008" class="node">
<title>Node8</title>
<g id="a_Node000008"><a xlink:title=" ">
<polygon fill="#e0e0e0" stroke="#999999" points="514.62,-26 431.88,-26 431.88,-6 514.62,-6 514.62,-26"/>
<text xml:space="preserve" text-anchor="middle" x="473.25" y="-12.5" font-family="Helvetica,sans-Serif" font-size="10.00">unordered_map</text>
</a>
</g>
</g>
<!-- Node2&#45;&gt;Node8 -->
<g id="edge63_Node000002_Node000008" class="edge">
<title>Node2&#45;&gt;Node8</title>
<g id="a_edge63_Node000002_Node000008"><a xlink:title=" ">
<path fill="none" stroke="#63b8ff" d="M1127.69,-77.17C1031.34,-77.07 751.83,-73 524.25,-32 520.36,-31.3 516.35,-30.41 512.36,-29.43"/>
<polygon fill="#63b8ff" stroke="#63b8ff" points="513.34,-26.07 502.78,-26.83 511.51,-32.82 513.34,-26.07"/>
</a>
</g>
</g>
<!-- Node9 -->
<g id="Node000009" class="node">
<title>Node9</title>
<g id="a_Node000009"><a xlink:title=" ">
<polygon fill="#e0e0e0" stroke="#999999" points="609.62,-26 532.88,-26 532.88,-6 609.62,-6 609.62,-26"/>
<text xml:space="preserve" text-anchor="middle" x="571.25" y="-12.5" font-family="Helvetica,sans-Serif" font-size="10.00">hardware/pll.h</text>
</a>
</g>
</g>
<!-- Node2&#45;&gt;Node9 -->
<g id="edge64_Node000002_Node000009" class="edge">
<title>Node2&#45;&gt;Node9</title>
<g id="a_edge64_Node000002_Node000009"><a xlink:title=" ">
<path fill="none" stroke="#63b8ff" d="M1127.51,-76.84C1040.73,-75.85 807.88,-69.6 618.25,-32 614.91,-31.34 611.48,-30.52 608.06,-29.61"/>
<polygon fill="#63b8ff" stroke="#63b8ff" points="609.36,-26.34 598.78,-26.9 607.39,-33.06 609.36,-26.34"/>
</a>
</g>
</g>
<!-- Node10 -->
<g id="Node000010" class="node">
<title>Node10</title>
<g id="a_Node000010"><a xlink:title=" ">
<polygon fill="#e0e0e0" stroke="#999999" points="713.12,-26 627.38,-26 627.38,-6 713.12,-6 713.12,-26"/>
<text xml:space="preserve" text-anchor="middle" x="670.25" y="-12.5" font-family="Helvetica,sans-Serif" font-size="10.00">hardware/vreg.h</text>
</a>
</g>
</g>
<!-- Node2&#45;&gt;Node10 -->
<g id="edge65_Node000002_Node000010" class="edge">
<title>Node2&#45;&gt;Node10</title>
<g id="a_edge65_Node000002_Node000010"><a xlink:title=" ">
<path fill="none" stroke="#63b8ff" d="M1127.71,-75.57C1053.1,-72.02 871.51,-60.92 722.25,-32 718.44,-31.26 714.52,-30.37 710.6,-29.4"/>
<polygon fill="#63b8ff" stroke="#63b8ff" points="711.75,-26.09 701.19,-26.88 709.94,-32.85 711.75,-26.09"/>
</a>
</g>
</g>
<!-- Node11 -->
<g id="Node000011" class="node">
<title>Node11</title>
<g id="a_Node000011"><a xlink:title=" ">
<polygon fill="#e0e0e0" stroke="#999999" points="827,-26 731.5,-26 731.5,-6 827,-6 827,-26"/>
<text xml:space="preserve" text-anchor="middle" x="779.25" y="-12.5" font-family="Helvetica,sans-Serif" font-size="10.00">hardware/clocks.h</text>
</a>
</g>
</g>
<!-- Node2&#45;&gt;Node11 -->
<g id="edge66_Node000002_Node000011" class="edge">
<title>Node2&#45;&gt;Node11</title>
<g id="a_edge66_Node000002_Node000011"><a xlink:title=" ">
<path fill="none" stroke="#63b8ff" d="M1127.76,-73.62C1068.02,-67.45 941.58,-53.05 836.25,-32 832.15,-31.18 827.9,-30.24 823.66,-29.24"/>
<polygon fill="#63b8ff" stroke="#63b8ff" points="824.57,-25.86 814.02,-26.84 822.88,-32.65 824.57,-25.86"/>
</a>
</g>
</g>
<!-- Node12 -->
<g id="Node000012" class="node">
<title>Node12</title>
<g id="a_Node000012"><a xlink:title=" ">
<polygon fill="#e0e0e0" stroke="#999999" points="955.12,-26 845.38,-26 845.38,-6 955.12,-6 955.12,-26"/>
<text xml:space="preserve" text-anchor="middle" x="900.25" y="-12.5" font-family="Helvetica,sans-Serif" font-size="10.00">hardware/structs/pll.h</text>
</a>
</g>
</g>
<!-- Node2&#45;&gt;Node12 -->
<g id="edge67_Node000002_Node000012" class="edge">
<title>Node2&#45;&gt;Node12</title>
<g id="a_edge67_Node000002_Node000012"><a xlink:title=" ">
<path fill="none" stroke="#63b8ff" d="M1127.54,-69.19C1087.99,-60.27 1021.44,-45.2 964.25,-32 960.17,-31.06 955.95,-30.08 951.71,-29.09"/>
<polygon fill="#63b8ff" stroke="#63b8ff" points="952.53,-25.69 942,-26.83 950.94,-32.51 952.53,-25.69"/>
</a>
</g>
</g>
<!-- Node13 -->
<g id="Node000013" class="node">
<title>Node13</title>
<g id="a_Node000013"><a xlink:title=" ">
<polygon fill="#e0e0e0" stroke="#999999" points="1101.5,-26 973,-26 973,-6 1101.5,-6 1101.5,-26"/>
<text xml:space="preserve" text-anchor="middle" x="1037.25" y="-12.5" font-family="Helvetica,sans-Serif" font-size="10.00">hardware/structs/clocks.h</text>
</a>
</g>
</g>
<!-- Node2&#45;&gt;Node13 -->
<g id="edge68_Node000002_Node000013" class="edge">
<title>Node2&#45;&gt;Node13</title>
<g id="a_edge68_Node000002_Node000013"><a xlink:title=" ">
<path fill="none" stroke="#63b8ff" d="M1142.72,-67.62C1122.35,-57.85 1090.19,-42.41 1066.74,-31.15"/>
<polygon fill="#63b8ff" stroke="#63b8ff" points="1068.54,-28.14 1058.01,-26.96 1065.51,-34.45 1068.54,-28.14"/>
</a>
</g>
</g>
<!-- Node14 -->
<g id="Node000014" class="node">
<title>Node14</title>
<g id="a_Node000014"><a xlink:title=" ">
<polygon fill="#e0e0e0" stroke="#999999" points="1205.12,-26 1119.38,-26 1119.38,-6 1205.12,-6 1205.12,-26"/>
<text xml:space="preserve" text-anchor="middle" x="1162.25" y="-12.5" font-family="Helvetica,sans-Serif" font-size="10.00">hardware/dma.h</text>
</a>
</g>
</g>
<!-- Node2&#45;&gt;Node14 -->
<g id="edge69_Node000002_Node000014" class="edge">
<title>Node2&#45;&gt;Node14</title>
<g id="a_edge69_Node000002_Node000014"><a xlink:title=" ">
<path fill="none" stroke="#63b8ff" d="M1162.25,-67.62C1162.25,-59.56 1162.25,-47.65 1162.25,-37.41"/>
<polygon fill="#63b8ff" stroke="#63b8ff" points="1165.75,-37.63 1162.25,-27.63 1158.75,-37.63 1165.75,-37.63"/>
</a>
</g>
</g>
<!-- Node2&#45;&gt;Node15 -->
<g id="edge70_Node000002_Node000015" class="edge">
<title>Node2&#45;&gt;Node15</title>
<g id="a_edge70_Node000002_Node000015"><a xlink:title=" ">
<path fill="none" stroke="#63b8ff" d="M1196.77,-69.89C1201.29,-69.15 1205.87,-68.49 1210.25,-68 1659.34,-18.23 1780.05,-103.15 2226.25,-32 2230.56,-31.31 2235.02,-30.38 2239.44,-29.31"/>
<polygon fill="#63b8ff" stroke="#63b8ff" points="2239.97,-32.79 2248.74,-26.84 2238.17,-26.03 2239.97,-32.79"/>
</a>
</g>
</g>
<!-- Node16 -->
<g id="Node000016" class="node">
<title>Node16</title>
<g id="a_Node000016"><a xlink:title=" ">
<polygon fill="#e0e0e0" stroke="#999999" points="1301,-26 1223.5,-26 1223.5,-6 1301,-6 1301,-26"/>
<text xml:space="preserve" text-anchor="middle" x="1262.25" y="-12.5" font-family="Helvetica,sans-Serif" font-size="10.00">hardware/irq.h</text>
</a>
</g>
</g>
<!-- Node2&#45;&gt;Node16 -->
<g id="edge71_Node000002_Node000016" class="edge">
<title>Node2&#45;&gt;Node16</title>
<g id="a_edge71_Node000002_Node000016"><a xlink:title=" ">
<path fill="none" stroke="#63b8ff" d="M1177.88,-67.62C1193.65,-58.16 1218.28,-43.38 1236.87,-32.23"/>
<polygon fill="#63b8ff" stroke="#63b8ff" points="1238.66,-35.23 1245.44,-27.09 1235.06,-29.23 1238.66,-35.23"/>
</a>
</g>
</g>
<!-- Node17 -->
<g id="Node000017" class="node">
<title>Node17</title>
<g id="a_Node000017"><a xlink:title=" ">
<polygon fill="#e0e0e0" stroke="#999999" points="1427,-32 1319.5,-32 1319.5,0 1427,0 1427,-32"/>
<text xml:space="preserve" text-anchor="start" x="1327.5" y="-18.5" font-family="Helvetica,sans-Serif" font-size="10.00">hardware/structs/bus</text>
<text xml:space="preserve" text-anchor="middle" x="1373.25" y="-6.5" font-family="Helvetica,sans-Serif" font-size="10.00">_ctrl.h</text>
</a>
</g>
</g>
<!-- Node2&#45;&gt;Node17 -->
<g id="edge72_Node000002_Node000017" class="edge">
<title>Node2&#45;&gt;Node17</title>
<g id="a_edge72_Node000002_Node000017"><a xlink:title=" ">
<path fill="none" stroke="#63b8ff" d="M1195.22,-67.62C1225.39,-59.05 1270.9,-46.1 1308.35,-35.45"/>
<polygon fill="#63b8ff" stroke="#63b8ff" points="1309.07,-38.89 1317.73,-32.79 1307.15,-32.16 1309.07,-38.89"/>
</a>
</g>
</g>
<!-- Node18 -->
<g id="Node000018" class="node">
<title>Node18</title>
<g id="a_Node000018"><a xlink:title=" ">
<polygon fill="#e0e0e0" stroke="#999999" points="1555.5,-32 1445,-32 1445,0 1555.5,0 1555.5,-32"/>
<text xml:space="preserve" text-anchor="start" x="1453" y="-18.5" font-family="Helvetica,sans-Serif" font-size="10.00">hardware/structs/hstx</text>
<text xml:space="preserve" text-anchor="middle" x="1500.25" y="-6.5" font-family="Helvetica,sans-Serif" font-size="10.00">_ctrl.h</text>
</a>
</g>
</g>
<!-- Node2&#45;&gt;Node18 -->
<g id="edge73_Node000002_Node000018" class="edge">
<title>Node2&#45;&gt;Node18</title>
<g id="a_edge73_Node000002_Node000018"><a xlink:title=" ">
<path fill="none" stroke="#63b8ff" d="M1196.84,-70.4C1201.35,-69.57 1205.91,-68.75 1210.25,-68 1306.94,-51.24 1334.53,-51.57 1433.67,-32.43"/>
<polygon fill="#63b8ff" stroke="#63b8ff" points="1434.17,-35.9 1443.31,-30.54 1432.83,-29.02 1434.17,-35.9"/>
</a>
</g>
</g>
<!-- Node19 -->
<g id="Node000019" class="node">
<title>Node19</title>
<g id="a_Node000019"><a xlink:title=" ">
<polygon fill="#e0e0e0" stroke="#999999" points="1684.5,-32 1574,-32 1574,0 1684.5,0 1684.5,-32"/>
<text xml:space="preserve" text-anchor="start" x="1582" y="-18.5" font-family="Helvetica,sans-Serif" font-size="10.00">hardware/structs/hstx</text>
<text xml:space="preserve" text-anchor="middle" x="1629.25" y="-6.5" font-family="Helvetica,sans-Serif" font-size="10.00">_fifo.h</text>
</a>
</g>
</g>
<!-- Node2&#45;&gt;Node19 -->
<g id="edge74_Node000002_Node000019" class="edge">
<title>Node2&#45;&gt;Node19</title>
<g id="a_edge74_Node000002_Node000019"><a xlink:title=" ">
<path fill="none" stroke="#63b8ff" d="M1196.8,-70.16C1201.32,-69.38 1205.89,-68.63 1210.25,-68 1363.26,-45.92 1406.31,-57.29 1562.71,-32.1"/>
<polygon fill="#63b8ff" stroke="#63b8ff" points="1562.88,-35.62 1572.18,-30.55 1561.74,-28.71 1562.88,-35.62"/>
</a>
</g>
</g>
<!-- Node20 -->
<g id="Node000020" class="node">
<title>Node20</title>
<g id="a_Node000020"><a xlink:title=" ">
<polygon fill="#e0e0e0" stroke="#999999" points="1815.62,-26 1702.88,-26 1702.88,-6 1815.62,-6 1815.62,-26"/>
<text xml:space="preserve" text-anchor="middle" x="1759.25" y="-12.5" font-family="Helvetica,sans-Serif" font-size="10.00">hardware/structs/sio.h</text>
</a>
</g>
</g>
<!-- Node2&#45;&gt;Node20 -->
<g id="edge75_Node000002_Node000020" class="edge">
<title>Node2&#45;&gt;Node20</title>
<g id="a_edge75_Node000002_Node000020"><a xlink:title=" ">
<path fill="none" stroke="#63b8ff" d="M1196.78,-70.05C1201.3,-69.28 1205.88,-68.57 1210.25,-68 1423.7,-40.12 1480.37,-63.94 1693.25,-32 1698.99,-31.14 1704.96,-30.05 1710.88,-28.86"/>
<polygon fill="#63b8ff" stroke="#63b8ff" points="1711.56,-32.29 1720.61,-26.78 1710.1,-25.45 1711.56,-32.29"/>
</a>
</g>
</g>
<!-- Node21 -->
<g id="Node000021" class="node">
<title>Node21</title>
<g id="a_Node000021"><a xlink:title=" ">
<polygon fill="#e0e0e0" stroke="#999999" points="1918.75,-26 1833.75,-26 1833.75,-6 1918.75,-6 1918.75,-26"/>
<text xml:space="preserve" text-anchor="middle" x="1876.25" y="-12.5" font-family="Helvetica,sans-Serif" font-size="10.00">pico/multicore.h</text>
</a>
</g>
</g>
<!-- Node2&#45;&gt;Node21 -->
<g id="edge76_Node000002_Node000021" class="edge">
<title>Node2&#45;&gt;Node21</title>
<g id="a_edge76_Node000002_Node000021"><a xlink:title=" ">
<path fill="none" stroke="#63b8ff" d="M1196.78,-69.98C1201.3,-69.23 1205.87,-68.54 1210.25,-68 1481.58,-34.74 1554.82,-78.17 1824.25,-32 1828.33,-31.3 1832.55,-30.4 1836.74,-29.38"/>
<polygon fill="#63b8ff" stroke="#63b8ff" points="1837.4,-32.82 1846.17,-26.88 1835.61,-26.06 1837.4,-32.82"/>
</a>
</g>
</g>
<!-- Node22 -->
<g id="Node000022" class="node">
<title>Node22</title>
<g id="a_Node000022"><a xlink:title=" ">
<polygon fill="#e0e0e0" stroke="#999999" points="2001.25,-26 1937.25,-26 1937.25,-6 2001.25,-6 2001.25,-26"/>
<text xml:space="preserve" text-anchor="middle" x="1969.25" y="-12.5" font-family="Helvetica,sans-Serif" font-size="10.00">pico/sem.h</text>
</a>
</g>
</g>
<!-- Node2&#45;&gt;Node22 -->
<g id="edge77_Node000002_Node000022" class="edge">
<title>Node2&#45;&gt;Node22</title>
<g id="a_edge77_Node000002_Node000022"><a xlink:title=" ">
<path fill="none" stroke="#63b8ff" d="M1196.77,-69.95C1201.29,-69.2 1205.87,-68.52 1210.25,-68 1527.55,-30.47 1615.13,-95.61 1928.25,-32 1930.88,-31.47 1933.57,-30.79 1936.25,-30.03"/>
<polygon fill="#63b8ff" stroke="#63b8ff" points="1937.19,-33.4 1945.61,-26.97 1935.01,-26.75 1937.19,-33.4"/>
</a>
</g>
</g>
<!-- Node23 -->
<g id="Node000023" class="node">
<title>Node23</title>
<g id="a_Node000023"><a xlink:title=" ">
<polygon fill="#e0e0e0" stroke="#999999" points="2077.25,-26 2019.25,-26 2019.25,-6 2077.25,-6 2077.25,-26"/>
<text xml:space="preserve" text-anchor="middle" x="2048.25" y="-12.5" font-family="Helvetica,sans-Serif" font-size="10.00">functional</text>
</a>
</g>
</g>
<!-- Node2&#45;&gt;Node23 -->
<g id="edge78_Node000002_Node000023" class="edge">
<title>Node2&#45;&gt;Node23</title>
<g id="a_edge78_Node000002_Node000023"><a xlink:title=" ">
<path fill="none" stroke="#63b8ff" d="M1196.77,-69.93C1201.29,-69.18 1205.87,-68.51 1210.25,-68 1563.81,-27.1 1662.19,-106.36 2010.25,-32 2012.58,-31.5 2014.95,-30.88 2017.32,-30.17"/>
<polygon fill="#63b8ff" stroke="#63b8ff" points="2018.42,-33.49 2026.7,-26.87 2016.1,-26.88 2018.42,-33.49"/>
</a>
</g>
</g>
<!-- Node24 -->
<g id="Node000024" class="node">
<title>Node24</title>
<g id="a_Node000024"><a xlink:href="$tinyengine__framebuffer_8h.html" xlink:title=" ">
<polygon fill="white" stroke="#666666" points="2217.5,-26 2095,-26 2095,-6 2217.5,-6 2217.5,-26"/>
<text xml:space="preserve" text-anchor="middle" x="2156.25" y="-12.5" font-family="Helvetica,sans-Serif" font-size="10.00">tinyengine_framebuffer.h</text>
</a>
</g>
</g>
<!-- Node2&#45;&gt;Node24 -->
<g id="edge79_Node000002_Node000024" class="edge">
<title>Node2&#45;&gt;Node24</title>
<g id="a_edge79_Node000002_Node000024"><a xlink:title=" ">
<path fill="none" stroke="#63b8ff" d="M1196.9,-68.54C1198.36,-68.34 1199.82,-68.16 1201.25,-68 1588.42,-23.98 1690.68,-81 2077.25,-32 2083.97,-31.15 2090.99,-29.98 2097.98,-28.67"/>
<polygon fill="#63b8ff" stroke="#63b8ff" points="2098.64,-32.11 2107.77,-26.73 2097.28,-25.24 2098.64,-32.11"/>
</a>
</g>
</g>
<!-- Node24&#45;&gt;Node2 -->
<g id="edge80_Node000024_Node000002" class="edge">
<title>Node24&#45;&gt;Node2</title>
<g id="a_edge80_Node000024_Node000002"><a xlink:title=" ">
<path fill="none" stroke="#63b8ff" d="M2126.62,-26.44C2116.7,-28.62 2105.61,-30.69 2095.25,-32 1708.68,-81 1606.42,-23.98 1219.25,-68 1215.67,-68.41 1211.96,-68.93 1208.21,-69.51"/>
<polygon fill="#63b8ff" stroke="#63b8ff" points="1207.74,-66.04 1198.47,-71.16 1208.91,-72.94 1207.74,-66.04"/>
</a>
</g>
</g>
</g>
</svg>
