<?xml version="1.0" encoding="UTF-8" standalone="no"?>
<!DOCTYPE svg PUBLIC "-//W3C//DTD SVG 1.1//EN"
 "http://www.w3.org/Graphics/SVG/1.1/DTD/svg11.dtd">
<!-- Generated by graphviz version 13.1.2 (20250808.2320)
 -->
<!-- Title: inc/tinyengine_scene.h Pages: 1 -->
<svg width="1513pt" height="412pt"
 viewBox="0.00 0.00 1513.00 412.00" xmlns="http://www.w3.org/2000/svg" xmlns:xlink="http://www.w3.org/1999/xlink">
<g id="graph0" class="graph" transform="scale(1 1) rotate(0) translate(4 408)">
<title>inc/tinyengine_scene.h</title>
<!-- Node1 -->
<g id="Node000001" class="node">
<title>Node1</title>
<g id="a_Node000001"><a xlink:title=" ">
<polygon fill="#999999" stroke="#666666" points="979.03,-404 863.28,-404 863.28,-384 979.03,-384 979.03,-404"/>
<text xml:space="preserve" text-anchor="middle" x="921.16" y="-390.5" font-family="Helvetica,sans-Serif" font-size="10.00">inc/tinyengine_scene.h</text>
</a>
</g>
</g>
<!-- Node2 -->
<g id="Node000002" class="node">
<title>Node2</title>
<g id="a_Node000002"><a xlink:href="$_game_scene_8h.html" xlink:title="Abstract class for the actual game scene and its assets.">
<polygon fill="white" stroke="#666666" points="534.16,-138 440.16,-138 440.16,-118 534.16,-118 534.16,-138"/>
<text xml:space="preserve" text-anchor="middle" x="487.16" y="-124.5" font-family="Helvetica,sans-Serif" font-size="10.00">inc/GameScene.h</text>
</a>
</g>
</g>
<!-- Node1&#45;&gt;Node2 -->
<g id="edge99_Node000001_Node000002" class="edge">
<title>Node1&#45;&gt;Node2</title>
<g id="a_edge99_Node000001_Node000002"><a xlink:title=" ">
<path fill="none" stroke="#63b8ff" d="M851.34,-390.59C742.78,-382.52 537.37,-348.94 454.16,-212 439.1,-187.22 463.65,-154.35 477.98,-138.44"/>
<polygon fill="#63b8ff" stroke="#63b8ff" points="851.08,-394.08 861.3,-391.27 851.56,-387.09 851.08,-394.08"/>
</a>
</g>
</g>
<!-- Node8 -->
<g id="Node000008" class="node">
<title>Node8</title>
<g id="a_Node000008"><a xlink:href="$tinyengine_8h.html" xlink:title=" ">
<polygon fill="white" stroke="#666666" points="963.28,-342 879.03,-342 879.03,-322 963.28,-322 963.28,-342"/>
<text xml:space="preserve" text-anchor="middle" x="921.16" y="-328.5" font-family="Helvetica,sans-Serif" font-size="10.00">inc/tinyengine.h</text>
</a>
</g>
</g>
<!-- Node1&#45;&gt;Node8 -->
<g id="edge106_Node000001_Node000008" class="edge">
<title>Node1&#45;&gt;Node8</title>
<g id="a_edge106_Node000001_Node000008"><a xlink:title=" ">
<path fill="none" stroke="#63b8ff" d="M921.16,-372.25C921.16,-361.97 921.16,-350.09 921.16,-342.11"/>
<polygon fill="#63b8ff" stroke="#63b8ff" points="917.66,-372.11 921.16,-382.11 924.66,-372.11 917.66,-372.11"/>
</a>
</g>
</g>
<!-- Node26 -->
<g id="Node000026" class="node">
<title>Node26</title>
<g id="a_Node000026"><a xlink:href="$tinyengine__scene__default_8h.html" xlink:title=" ">
<polygon fill="white" stroke="#666666" points="1296.91,-348 1189.41,-348 1189.41,-316 1296.91,-316 1296.91,-348"/>
<text xml:space="preserve" text-anchor="start" x="1197.41" y="-334.5" font-family="Helvetica,sans-Serif" font-size="10.00">inc/tinyengine_scene</text>
<text xml:space="preserve" text-anchor="middle" x="1243.16" y="-322.5" font-family="Helvetica,sans-Serif" font-size="10.00">_default.h</text>
</a>
</g>
</g>
<!-- Node1&#45;&gt;Node26 -->
<g id="edge146_Node000001_Node000026" class="edge">
<title>Node1&#45;&gt;Node26</title>
<g id="a_edge146_Node000001_Node000026"><a xlink:title=" ">
<path fill="none" stroke="#63b8ff" d="M982.97,-381.48C1042.64,-370.36 1132.09,-353.7 1189.03,-343.09"/>
<polygon fill="#63b8ff" stroke="#63b8ff" points="982.5,-378.01 973.31,-383.28 983.79,-384.89 982.5,-378.01"/>
</a>
</g>
</g>
<!-- Node3 -->
<g id="Node000003" class="node">
<title>Node3</title>
<g id="a_Node000003"><a xlink:href="$_game_scene_8cpp.html" xlink:title=" ">
<polygon fill="white" stroke="#666666" points="743.78,-76 638.53,-76 638.53,-56 743.78,-56 743.78,-76"/>
<text xml:space="preserve" text-anchor="middle" x="691.16" y="-62.5" font-family="Helvetica,sans-Serif" font-size="10.00">src/GameScene.cpp</text>
</a>
</g>
</g>
<!-- Node2&#45;&gt;Node3 -->
<g id="edge100_Node000002_Node000003" class="edge">
<title>Node2&#45;&gt;Node3</title>
<g id="a_edge100_Node000002_Node000003"><a xlink:title=" ">
<path fill="none" stroke="#63b8ff" d="M529.91,-114.43C568.48,-103.08 624.35,-86.65 659.17,-76.41"/>
<polygon fill="#63b8ff" stroke="#63b8ff" points="529.09,-111.02 520.49,-117.2 531.07,-117.73 529.09,-111.02"/>
</a>
</g>
</g>
<!-- Node4 -->
<g id="Node000004" class="node">
<title>Node4</title>
<g id="a_Node000004"><a xlink:href="$_dino_game_8h.html" xlink:title=" ">
<polygon fill="white" stroke="#666666" points="620.03,-76 498.28,-76 498.28,-56 620.03,-56 620.03,-76"/>
<text xml:space="preserve" text-anchor="middle" x="559.16" y="-62.5" font-family="Helvetica,sans-Serif" font-size="10.00">src/scenes/DinoGame.h</text>
</a>
</g>
</g>
<!-- Node2&#45;&gt;Node4 -->
<g id="edge101_Node000002_Node000004" class="edge">
<title>Node2&#45;&gt;Node4</title>
<g id="a_edge101_Node000002_Node000004"><a xlink:title=" ">
<path fill="none" stroke="#63b8ff" d="M506.9,-110.55C520.22,-99.45 537.28,-85.23 548.22,-76.11"/>
<polygon fill="#63b8ff" stroke="#63b8ff" points="505.01,-107.57 499.57,-116.66 509.49,-112.94 505.01,-107.57"/>
</a>
</g>
</g>
<!-- Node6 -->
<g id="Node000006" class="node">
<title>Node6</title>
<g id="a_Node000006"><a xlink:href="$_snake_game_8h.html" xlink:title=" ">
<polygon fill="white" stroke="#666666" points="479.78,-76 350.53,-76 350.53,-56 479.78,-56 479.78,-76"/>
<text xml:space="preserve" text-anchor="middle" x="415.16" y="-62.5" font-family="Helvetica,sans-Serif" font-size="10.00">src/scenes/SnakeGame.h</text>
</a>
</g>
</g>
<!-- Node2&#45;&gt;Node6 -->
<g id="edge103_Node000002_Node000006" class="edge">
<title>Node2&#45;&gt;Node6</title>
<g id="a_edge103_Node000002_Node000006"><a xlink:title=" ">
<path fill="none" stroke="#63b8ff" d="M467.41,-110.55C454.1,-99.45 437.03,-85.23 426.09,-76.11"/>
<polygon fill="#63b8ff" stroke="#63b8ff" points="464.82,-112.94 474.75,-116.66 469.3,-107.57 464.82,-112.94"/>
</a>
</g>
</g>
<!-- Node5 -->
<g id="Node000005" class="node">
<title>Node5</title>
<g id="a_Node000005"><a xlink:href="$_dino_game_8cpp.html" xlink:title=" ">
<polygon fill="white" stroke="#666666" points="795.28,-20 663.03,-20 663.03,0 795.28,0 795.28,-20"/>
<text xml:space="preserve" text-anchor="middle" x="729.16" y="-6.5" font-family="Helvetica,sans-Serif" font-size="10.00">src/scenes/DinoGame.cpp</text>
</a>
</g>
</g>
<!-- Node4&#45;&gt;Node5 -->
<g id="edge102_Node000004_Node000005" class="edge">
<title>Node4&#45;&gt;Node5</title>
<g id="a_edge102_Node000004_Node000005"><a xlink:title=" ">
<path fill="none" stroke="#63b8ff" d="M599.53,-52.18C630.17,-42.44 671.62,-29.28 699.32,-20.48"/>
<polygon fill="#63b8ff" stroke="#63b8ff" points="598.68,-48.77 590.21,-55.14 600.8,-55.44 598.68,-48.77"/>
</a>
</g>
</g>
<!-- Node6&#45;&gt;Node5 -->
<g id="edge104_Node000006_Node000005" class="edge">
<title>Node6&#45;&gt;Node5</title>
<g id="a_edge104_Node000006_Node000005"><a xlink:title=" ">
<path fill="none" stroke="#63b8ff" d="M481.32,-53.62C538.59,-43.77 620.43,-29.7 674.17,-20.46"/>
<polygon fill="#63b8ff" stroke="#63b8ff" points="480.97,-50.13 471.7,-55.28 482.15,-57.03 480.97,-50.13"/>
</a>
</g>
</g>
<!-- Node7 -->
<g id="Node000007" class="node">
<title>Node7</title>
<g id="a_Node000007"><a xlink:href="$_snake_game_8cpp.html" xlink:title=" ">
<polygon fill="white" stroke="#666666" points="296.03,-20 156.28,-20 156.28,0 296.03,0 296.03,-20"/>
<text xml:space="preserve" text-anchor="middle" x="226.16" y="-6.5" font-family="Helvetica,sans-Serif" font-size="10.00">src/scenes/SnakeGame.cpp</text>
</a>
</g>
</g>
<!-- Node6&#45;&gt;Node7 -->
<g id="edge105_Node000006_Node000007" class="edge">
<title>Node6&#45;&gt;Node7</title>
<g id="a_edge105_Node000006_Node000007"><a xlink:title=" ">
<path fill="none" stroke="#63b8ff" d="M371.17,-52.43C337.02,-42.67 290.4,-29.35 259.34,-20.48"/>
<polygon fill="#63b8ff" stroke="#63b8ff" points="370.21,-55.8 380.78,-55.18 372.13,-49.07 370.21,-55.8"/>
</a>
</g>
</g>
<!-- Node8&#45;&gt;Node5 -->
<g id="edge141_Node000008_Node000005" class="edge">
<title>Node8&#45;&gt;Node5</title>
<g id="a_edge141_Node000008_Node000005"><a xlink:title=" ">
<path fill="none" stroke="#63b8ff" d="M975.16,-327.42C1081.03,-319.97 1308.08,-301.67 1336.16,-280 1367.58,-255.74 1369.16,-236.7 1369.16,-197 1369.16,-197 1369.16,-197 1369.16,-127 1369.16,-69.16 959.26,-29.6 795.54,-16.11"/>
<polygon fill="#63b8ff" stroke="#63b8ff" points="975.02,-323.93 965.29,-328.11 975.5,-330.91 975.02,-323.93"/>
</a>
</g>
</g>
<!-- Node8&#45;&gt;Node7 -->
<g id="edge142_Node000008_Node000007" class="edge">
<title>Node8&#45;&gt;Node7</title>
<g id="a_edge142_Node000008_Node000007"><a xlink:title=" ">
<path fill="none" stroke="#63b8ff" d="M867.39,-329.18C731.68,-324.21 377.99,-308.8 264.16,-280 138.88,-248.3 68.64,-257.66 7.16,-144 -31.04,-73.38 93.5,-36.23 170.28,-20.45"/>
<polygon fill="#63b8ff" stroke="#63b8ff" points="867.06,-332.67 877.18,-329.53 867.31,-325.67 867.06,-332.67"/>
</a>
</g>
</g>
<!-- Node9 -->
<g id="Node000009" class="node">
<title>Node9</title>
<g id="a_Node000009"><a xlink:href="$tinyengine__renderer__dvi__c__adapter_8h.html" xlink:title=" ">
<polygon fill="white" stroke="#666666" points="845.78,-212 710.53,-212 710.53,-180 845.78,-180 845.78,-212"/>
<text xml:space="preserve" text-anchor="start" x="718.53" y="-198.5" font-family="Helvetica,sans-Serif" font-size="10.00">backup/tinyengine_renderer</text>
<text xml:space="preserve" text-anchor="middle" x="778.16" y="-186.5" font-family="Helvetica,sans-Serif" font-size="10.00">_dvi_c_adapter.h</text>
</a>
</g>
</g>
<!-- Node8&#45;&gt;Node9 -->
<g id="edge107_Node000008_Node000009" class="edge">
<title>Node8&#45;&gt;Node9</title>
<g id="a_edge107_Node000008_Node000009"><a xlink:title=" ">
<path fill="none" stroke="#63b8ff" d="M903.19,-314.17C875.15,-287.89 821.39,-237.51 794.42,-212.24"/>
<polygon fill="#63b8ff" stroke="#63b8ff" points="900.54,-316.47 910.23,-320.75 905.32,-311.36 900.54,-316.47"/>
</a>
</g>
</g>
<!-- Node11 -->
<g id="Node000011" class="node">
<title>Node11</title>
<g id="a_Node000011"><a xlink:href="$tinyengine__audio_8h.html" xlink:title=" ">
<polygon fill="white" stroke="#666666" points="1061.53,-274 948.78,-274 948.78,-254 1061.53,-254 1061.53,-274"/>
<text xml:space="preserve" text-anchor="middle" x="1005.16" y="-260.5" font-family="Helvetica,sans-Serif" font-size="10.00">inc/tinyengine_audio.h</text>
</a>
</g>
</g>
<!-- Node8&#45;&gt;Node11 -->
<g id="edge109_Node000008_Node000011" class="edge">
<title>Node8&#45;&gt;Node11</title>
<g id="a_edge109_Node000008_Node000011"><a xlink:title=" ">
<path fill="none" stroke="#63b8ff" d="M941.92,-314.69C958.03,-302.03 979.81,-284.92 993.15,-274.44"/>
<polygon fill="#63b8ff" stroke="#63b8ff" points="940.08,-311.68 934.38,-320.61 944.41,-317.18 940.08,-311.68"/>
</a>
</g>
</g>
<!-- Node12 -->
<g id="Node000012" class="node">
<title>Node12</title>
<g id="a_Node000012"><a xlink:href="$_game_8cpp.html" xlink:title=" ">
<polygon fill="white" stroke="#666666" points="976.91,-138 899.41,-138 899.41,-118 976.91,-118 976.91,-138"/>
<text xml:space="preserve" text-anchor="middle" x="938.16" y="-124.5" font-family="Helvetica,sans-Serif" font-size="10.00">src/Game.cpp</text>
</a>
</g>
</g>
<!-- Node8&#45;&gt;Node12 -->
<g id="edge139_Node000008_Node000012" class="edge">
<title>Node8&#45;&gt;Node12</title>
<g id="a_edge139_Node000008_Node000012"><a xlink:title=" ">
<path fill="none" stroke="#63b8ff" d="M974.96,-327.87C1076.95,-321.38 1290.25,-304.95 1312.16,-280 1341.48,-246.6 1341.75,-213.16 1312.16,-180 1265.25,-127.43 1066.46,-156.71 997.16,-144 988.95,-142.49 980.18,-140.49 971.99,-138.44"/>
<polygon fill="#63b8ff" stroke="#63b8ff" points="974.96,-324.36 965.19,-328.48 975.39,-331.35 974.96,-324.36"/>
</a>
</g>
</g>
<!-- Node13 -->
<g id="Node000013" class="node">
<title>Node13</title>
<g id="a_Node000013"><a xlink:href="$tinyengine__audio_8cpp.html" xlink:title=" ">
<polygon fill="white" stroke="#666666" points="1303.16,-206 1179.16,-206 1179.16,-186 1303.16,-186 1303.16,-206"/>
<text xml:space="preserve" text-anchor="middle" x="1241.16" y="-192.5" font-family="Helvetica,sans-Serif" font-size="10.00">src/tinyengine_audio.cpp</text>
</a>
</g>
</g>
<!-- Node8&#45;&gt;Node13 -->
<g id="edge144_Node000008_Node000013" class="edge">
<title>Node8&#45;&gt;Node13</title>
<g id="a_edge144_Node000008_Node000013"><a xlink:title=" ">
<path fill="none" stroke="#63b8ff" d="M972.41,-318.54C1002.11,-310.1 1039.56,-297.31 1070.16,-280 1089.38,-269.13 1089.14,-259.22 1108.16,-248 1139.89,-229.28 1179.74,-215.07 1207.51,-206.47"/>
<polygon fill="#63b8ff" stroke="#63b8ff" points="971.61,-315.13 962.9,-321.16 973.47,-321.88 971.61,-315.13"/>
</a>
</g>
</g>
<!-- Node14 -->
<g id="Node000014" class="node">
<title>Node14</title>
<g id="a_Node000014"><a xlink:href="$tinyengine__framebuffer_8h.html" xlink:title=" ">
<polygon fill="white" stroke="#666666" points="732.28,-274 594.03,-274 594.03,-254 732.28,-254 732.28,-274"/>
<text xml:space="preserve" text-anchor="middle" x="663.16" y="-260.5" font-family="Helvetica,sans-Serif" font-size="10.00">inc/tinyengine_framebuffer.h</text>
</a>
</g>
</g>
<!-- Node8&#45;&gt;Node14 -->
<g id="edge112_Node000008_Node000014" class="edge">
<title>Node8&#45;&gt;Node14</title>
<g id="a_edge112_Node000008_Node000014"><a xlink:title=" ">
<path fill="none" stroke="#63b8ff" d="M868.27,-318.84C816.2,-306.03 738.52,-286.12 695.16,-274.44"/>
<polygon fill="#63b8ff" stroke="#63b8ff" points="867.28,-322.2 877.82,-321.18 868.94,-315.41 867.28,-322.2"/>
</a>
</g>
</g>
<!-- Node18 -->
<g id="Node000018" class="node">
<title>Node18</title>
<g id="a_Node000018"><a xlink:href="$tinyengine__renderer_8h.html" xlink:title=" ">
<polygon fill="white" stroke="#666666" points="988.53,-206 863.78,-206 863.78,-186 988.53,-186 988.53,-206"/>
<text xml:space="preserve" text-anchor="middle" x="926.16" y="-192.5" font-family="Helvetica,sans-Serif" font-size="10.00">inc/tinyengine_renderer.h</text>
</a>
</g>
</g>
<!-- Node8&#45;&gt;Node18 -->
<g id="edge137_Node000008_Node000018" class="edge">
<title>Node8&#45;&gt;Node18</title>
<g id="a_edge137_Node000008_Node000018"><a xlink:title=" ">
<path fill="none" stroke="#63b8ff" d="M913.91,-311.08C908.72,-294.25 903.28,-269.53 907.16,-248 909.87,-232.94 916.76,-216.51 921.45,-206.49"/>
<polygon fill="#63b8ff" stroke="#63b8ff" points="910.52,-311.98 917.03,-320.34 917.16,-309.75 910.52,-311.98"/>
</a>
</g>
</g>
<!-- Node19 -->
<g id="Node000019" class="node">
<title>Node19</title>
<g id="a_Node000019"><a xlink:href="$tinyengine__renderer__dvi_8h.html" xlink:title=" ">
<polygon fill="white" stroke="#666666" points="1123.41,-212 1006.91,-212 1006.91,-180 1123.41,-180 1123.41,-212"/>
<text xml:space="preserve" text-anchor="start" x="1014.91" y="-198.5" font-family="Helvetica,sans-Serif" font-size="10.00">inc/tinyengine_renderer</text>
<text xml:space="preserve" text-anchor="middle" x="1065.16" y="-186.5" font-family="Helvetica,sans-Serif" font-size="10.00">_dvi.h</text>
</a>
</g>
</g>
<!-- Node8&#45;&gt;Node19 -->
<g id="edge138_Node000008_Node000019" class="edge">
<title>Node8&#45;&gt;Node19</title>
<g id="a_edge138_Node000008_Node000019"><a xlink:title=" ">
<path fill="none" stroke="#63b8ff" d="M920.79,-310.1C921.56,-291.73 925.45,-265.31 940.16,-248 950.36,-235.99 984.35,-222.52 1014.31,-212.44"/>
<polygon fill="#63b8ff" stroke="#63b8ff" points="917.29,-310.01 920.69,-320.05 924.29,-310.09 917.29,-310.01"/>
</a>
</g>
</g>
<!-- Node23 -->
<g id="Node000023" class="node">
<title>Node23</title>
<g id="a_Node000023"><a xlink:href="$tinyengine__sprite_8cpp.html" xlink:title=" ">
<polygon fill="white" stroke="#666666" points="140.53,-138 15.78,-138 15.78,-118 140.53,-118 140.53,-138"/>
<text xml:space="preserve" text-anchor="middle" x="78.16" y="-124.5" font-family="Helvetica,sans-Serif" font-size="10.00">src/tinyengine_sprite.cpp</text>
</a>
</g>
</g>
<!-- Node8&#45;&gt;Node23 -->
<g id="edge145_Node000008_Node000023" class="edge">
<title>Node8&#45;&gt;Node23</title>
<g id="a_edge145_Node000008_Node000023"><a xlink:title=" ">
<path fill="none" stroke="#63b8ff" d="M867.37,-327.31C714.18,-316.06 278.68,-278.89 154.16,-212 120.94,-194.16 94.61,-156.04 83.67,-138.36"/>
<polygon fill="#63b8ff" stroke="#63b8ff" points="867.02,-330.79 877.24,-328.02 867.52,-323.81 867.02,-330.79"/>
</a>
</g>
</g>
<!-- Node24 -->
<g id="Node000024" class="node">
<title>Node24</title>
<g id="a_Node000024"><a xlink:href="$main_8cpp.html" xlink:title=" ">
<polygon fill="white" stroke="#666666" points="1189.28,-274 1117.03,-274 1117.03,-254 1189.28,-254 1189.28,-274"/>
<text xml:space="preserve" text-anchor="middle" x="1153.16" y="-260.5" font-family="Helvetica,sans-Serif" font-size="10.00">src/main.cpp</text>
</a>
</g>
</g>
<!-- Node8&#45;&gt;Node24 -->
<g id="edge140_Node000008_Node000024" class="edge">
<title>Node8&#45;&gt;Node24</title>
<g id="a_edge140_Node000008_Node000024"><a xlink:title=" ">
<path fill="none" stroke="#63b8ff" d="M966.65,-318.5C1003.51,-308.31 1056.75,-293.46 1103.16,-280 1109.25,-278.23 1115.75,-276.31 1121.98,-274.45"/>
<polygon fill="#63b8ff" stroke="#63b8ff" points="965.93,-315.07 957.22,-321.1 967.79,-321.82 965.93,-315.07"/>
</a>
</g>
</g>
<!-- Node25 -->
<g id="Node000025" class="node">
<title>Node25</title>
<g id="a_Node000025"><a xlink:href="$tinyengine_8cpp.html" xlink:title=" ">
<polygon fill="white" stroke="#666666" points="1302.91,-274 1207.41,-274 1207.41,-254 1302.91,-254 1302.91,-274"/>
<text xml:space="preserve" text-anchor="middle" x="1255.16" y="-260.5" font-family="Helvetica,sans-Serif" font-size="10.00">src/tinyengine.cpp</text>
</a>
</g>
</g>
<!-- Node8&#45;&gt;Node25 -->
<g id="edge143_Node000008_Node000025" class="edge">
<title>Node8&#45;&gt;Node25</title>
<g id="a_edge143_Node000008_Node000025"><a xlink:title=" ">
<path fill="none" stroke="#63b8ff" d="M974.66,-322.38C1030.63,-313.07 1120.92,-297.25 1198.16,-280 1205.55,-278.35 1213.43,-276.4 1220.9,-274.46"/>
<polygon fill="#63b8ff" stroke="#63b8ff" points="974.38,-318.88 965.09,-323.96 975.52,-325.78 974.38,-318.88"/>
</a>
</g>
</g>
<!-- Node10 -->
<g id="Node000010" class="node">
<title>Node10</title>
<g id="a_Node000010"><a xlink:href="$tinyengine__renderer__dvi_8__c__adapter_8cpp.html" xlink:title=" ">
<polygon fill="white" stroke="#666666" points="857.78,-144 722.53,-144 722.53,-112 857.78,-112 857.78,-144"/>
<text xml:space="preserve" text-anchor="start" x="730.53" y="-130.5" font-family="Helvetica,sans-Serif" font-size="10.00">backup/tinyengine_renderer</text>
<text xml:space="preserve" text-anchor="middle" x="790.16" y="-118.5" font-family="Helvetica,sans-Serif" font-size="10.00">_dvi._c_adapter.cpp</text>
</a>
</g>
</g>
<!-- Node9&#45;&gt;Node10 -->
<g id="edge108_Node000009_Node000010" class="edge">
<title>Node9&#45;&gt;Node10</title>
<g id="a_edge108_Node000009_Node000010"><a xlink:title=" ">
<path fill="none" stroke="#63b8ff" d="M782.96,-168.6C784.46,-160.32 786.08,-151.46 787.39,-144.22"/>
<polygon fill="#63b8ff" stroke="#63b8ff" points="779.56,-167.74 781.21,-178.2 786.45,-168.99 779.56,-167.74"/>
</a>
</g>
</g>
<!-- Node11&#45;&gt;Node12 -->
<g id="edge110_Node000011_Node000012" class="edge">
<title>Node11&#45;&gt;Node12</title>
<g id="a_edge110_Node000011_Node000012"><a xlink:title=" ">
<path fill="none" stroke="#63b8ff" d="M1057.54,-250.42C1102.94,-236.98 1157.64,-213.05 1132.16,-180 1130.94,-178.41 1031.25,-152.76 975.27,-138.46"/>
<polygon fill="#63b8ff" stroke="#63b8ff" points="1056.68,-247.03 1048.01,-253.12 1058.58,-253.77 1056.68,-247.03"/>
</a>
</g>
</g>
<!-- Node11&#45;&gt;Node13 -->
<g id="edge111_Node000011_Node000013" class="edge">
<title>Node11&#45;&gt;Node13</title>
<g id="a_edge111_Node000011_Node000013"><a xlink:title=" ">
<path fill="none" stroke="#63b8ff" d="M1049.78,-250.52C1095.63,-237.7 1165.99,-218.02 1207.41,-206.44"/>
<polygon fill="#63b8ff" stroke="#63b8ff" points="1049.12,-247.07 1040.43,-253.14 1051,-253.81 1049.12,-247.07"/>
</a>
</g>
</g>
<!-- Node14&#45;&gt;Node2 -->
<g id="edge114_Node000014_Node000002" class="edge">
<title>Node14&#45;&gt;Node2</title>
<g id="a_edge114_Node000014_Node000002"><a xlink:title=" ">
<path fill="none" stroke="#63b8ff" d="M582.59,-252.36C534.46,-244.17 479.89,-231 465.16,-212 447.81,-189.61 468.33,-154.74 480.07,-138.24"/>
<polygon fill="#63b8ff" stroke="#63b8ff" points="581.77,-255.78 592.2,-253.94 582.9,-248.87 581.77,-255.78"/>
</a>
</g>
</g>
<!-- Node14&#45;&gt;Node5 -->
<g id="edge134_Node000014_Node000005" class="edge">
<title>Node14&#45;&gt;Node5</title>
<g id="a_edge134_Node000014_Node000005"><a xlink:title=" ">
<path fill="none" stroke="#63b8ff" d="M662.94,-242.6C663.83,-208.83 671.13,-142.05 713.16,-112 781.66,-63.03 845.57,-140.95 899.16,-76 931.48,-36.82 856.18,-21.22 795.67,-15.03"/>
<polygon fill="#63b8ff" stroke="#63b8ff" points="659.44,-242.24 662.87,-252.27 666.44,-242.3 659.44,-242.24"/>
</a>
</g>
</g>
<!-- Node14&#45;&gt;Node7 -->
<g id="edge135_Node000014_Node000007" class="edge">
<title>Node14&#45;&gt;Node7</title>
<g id="a_edge135_Node000014_Node000007"><a xlink:title=" ">
<path fill="none" stroke="#63b8ff" d="M582.22,-260.06C477.48,-255.09 301.72,-242.39 245.16,-212 210.17,-193.2 200.89,-181.27 187.16,-144 170.43,-98.62 204.01,-42.51 219.22,-20.49"/>
<polygon fill="#63b8ff" stroke="#63b8ff" points="582.02,-263.56 592.17,-260.52 582.34,-256.57 582.02,-263.56"/>
</a>
</g>
</g>
<!-- Node14&#45;&gt;Node8 -->
<g id="edge119_Node000014_Node000008" class="edge">
<title>Node14&#45;&gt;Node8</title>
<g id="a_edge119_Node000014_Node000008"><a xlink:title=" ">
<path fill="none" stroke="#63b8ff" d="M715.97,-277.14C768.02,-289.94 845.7,-309.85 889.09,-321.54"/>
<polygon fill="#63b8ff" stroke="#63b8ff" points="716.97,-273.78 706.42,-274.8 715.3,-280.58 716.97,-273.78"/>
</a>
</g>
</g>
<!-- Node14&#45;&gt;Node9 -->
<g id="edge113_Node000014_Node000009" class="edge">
<title>Node14&#45;&gt;Node9</title>
<g id="a_edge113_Node000014_Node000009"><a xlink:title=" ">
<path fill="none" stroke="#63b8ff" d="M689.5,-247.88C708.07,-237.23 732.85,-223 751.5,-212.3"/>
<polygon fill="#63b8ff" stroke="#63b8ff" points="687.88,-244.78 680.95,-252.79 691.36,-250.85 687.88,-244.78"/>
</a>
</g>
</g>
<!-- Node14&#45;&gt;Node12 -->
<g id="edge133_Node000014_Node000012" class="edge">
<title>Node14&#45;&gt;Node12</title>
<g id="a_edge133_Node000014_Node000012"><a xlink:title=" ">
<path fill="none" stroke="#63b8ff" d="M667.06,-242.53C671.8,-223.45 681.7,-195.63 701.16,-180 702.13,-179.22 831.87,-151.58 898.95,-137.32"/>
<polygon fill="#63b8ff" stroke="#63b8ff" points="663.68,-241.61 664.97,-252.13 670.52,-243.1 663.68,-241.61"/>
</a>
</g>
</g>
<!-- Node15 -->
<g id="Node000015" class="node">
<title>Node15</title>
<g id="a_Node000015"><a xlink:href="$_tiny_engine_renderable_i_8h.html" xlink:title=" ">
<polygon fill="white" stroke="#666666" points="615.78,-206 474.53,-206 474.53,-186 615.78,-186 615.78,-206"/>
<text xml:space="preserve" text-anchor="middle" x="545.16" y="-192.5" font-family="Helvetica,sans-Serif" font-size="10.00">inc/TinyEngineRenderableI.h</text>
</a>
</g>
</g>
<!-- Node14&#45;&gt;Node15 -->
<g id="edge115_Node000014_Node000015" class="edge">
<title>Node14&#45;&gt;Node15</title>
<g id="a_edge115_Node000014_Node000015"><a xlink:title=" ">
<path fill="none" stroke="#63b8ff" d="M636.5,-248.09C613.66,-235.32 581.47,-217.31 562.03,-206.44"/>
<polygon fill="#63b8ff" stroke="#63b8ff" points="634.5,-250.98 644.93,-252.8 637.91,-244.87 634.5,-250.98"/>
</a>
</g>
</g>
<!-- Node14&#45;&gt;Node18 -->
<g id="edge120_Node000014_Node000018" class="edge">
<title>Node14&#45;&gt;Node18</title>
<g id="a_edge120_Node000014_Node000018"><a xlink:title=" ">
<path fill="none" stroke="#63b8ff" d="M711.92,-250.76C762.99,-237.95 842.1,-218.09 888.55,-206.44"/>
<polygon fill="#63b8ff" stroke="#63b8ff" points="711.16,-247.35 702.31,-253.18 712.86,-254.14 711.16,-247.35"/>
</a>
</g>
</g>
<!-- Node14&#45;&gt;Node19 -->
<g id="edge122_Node000014_Node000019" class="edge">
<title>Node14&#45;&gt;Node19</title>
<g id="a_edge122_Node000014_Node000019"><a xlink:title=" ">
<path fill="none" stroke="#63b8ff" d="M743.49,-252.24C811.3,-242.8 910.85,-228.09 997.16,-212 1000.25,-211.42 1003.41,-210.81 1006.6,-210.17"/>
<polygon fill="#63b8ff" stroke="#63b8ff" points="743.39,-248.72 733.97,-253.56 744.35,-255.65 743.39,-248.72"/>
</a>
</g>
</g>
<!-- Node21 -->
<g id="Node000021" class="node">
<title>Node21</title>
<g id="a_Node000021"><a xlink:href="$tinyengine__sprite_8h.html" xlink:title=" ">
<polygon fill="white" stroke="#666666" points="379.91,-206 266.41,-206 266.41,-186 379.91,-186 379.91,-206"/>
<text xml:space="preserve" text-anchor="middle" x="323.16" y="-192.5" font-family="Helvetica,sans-Serif" font-size="10.00">inc/tinyengine_sprite.h</text>
</a>
</g>
</g>
<!-- Node14&#45;&gt;Node21 -->
<g id="edge126_Node000014_Node000021" class="edge">
<title>Node14&#45;&gt;Node21</title>
<g id="a_edge126_Node000014_Node000021"><a xlink:title=" ">
<path fill="none" stroke="#63b8ff" d="M603.44,-251.41C537.67,-238.64 433.16,-218.35 372.06,-206.49"/>
<polygon fill="#63b8ff" stroke="#63b8ff" points="602.48,-254.79 612.96,-253.26 603.81,-247.91 602.48,-254.79"/>
</a>
</g>
</g>
<!-- Node22 -->
<g id="Node000022" class="node">
<title>Node22</title>
<g id="a_Node000022"><a xlink:href="$tinyengine__framebuffer_8cpp.html" xlink:title=" ">
<polygon fill="white" stroke="#666666" points="345.91,-138 196.41,-138 196.41,-118 345.91,-118 345.91,-138"/>
<text xml:space="preserve" text-anchor="middle" x="271.16" y="-124.5" font-family="Helvetica,sans-Serif" font-size="10.00">src/tinyengine_framebuffer.cpp</text>
</a>
</g>
</g>
<!-- Node14&#45;&gt;Node22 -->
<g id="edge136_Node000014_Node000022" class="edge">
<title>Node14&#45;&gt;Node22</title>
<g id="a_edge136_Node000014_Node000022"><a xlink:title=" ">
<path fill="none" stroke="#63b8ff" d="M582.32,-258.5C470.06,-251.42 278.29,-235.95 257.16,-212 238.69,-191.07 255.57,-155.17 265.34,-138.29"/>
<polygon fill="#63b8ff" stroke="#63b8ff" points="581.89,-261.98 592.08,-259.11 582.32,-254.99 581.89,-261.98"/>
</a>
</g>
</g>
<!-- Node16 -->
<g id="Node000016" class="node">
<title>Node16</title>
<g id="a_Node000016"><a xlink:href="$_tiny_engine_u_i_8h.html" xlink:title=" ">
<polygon fill="white" stroke="#666666" points="665.78,-138 566.53,-138 566.53,-118 665.78,-118 665.78,-138"/>
<text xml:space="preserve" text-anchor="middle" x="616.16" y="-124.5" font-family="Helvetica,sans-Serif" font-size="10.00">inc/TinyEngineUI.h</text>
</a>
</g>
</g>
<!-- Node15&#45;&gt;Node16 -->
<g id="edge116_Node000015_Node000016" class="edge">
<title>Node15&#45;&gt;Node16</title>
<g id="a_edge116_Node000015_Node000016"><a xlink:title=" ">
<path fill="none" stroke="#63b8ff" d="M563.48,-177.97C577.01,-165.39 594.94,-148.72 606,-138.44"/>
<polygon fill="#63b8ff" stroke="#63b8ff" points="561.38,-175.14 556.44,-184.51 566.15,-180.27 561.38,-175.14"/>
</a>
</g>
</g>
<!-- Node16&#45;&gt;Node5 -->
<g id="edge118_Node000016_Node000005" class="edge">
<title>Node16&#45;&gt;Node5</title>
<g id="a_edge118_Node000016_Node000005"><a xlink:title=" ">
<path fill="none" stroke="#63b8ff" d="M666.04,-115.04C670.81,-113.98 675.57,-112.95 680.16,-112 724.6,-102.82 852.04,-110.8 881.16,-76 909.57,-42.05 848.56,-25.41 795.57,-17.55"/>
<polygon fill="#63b8ff" stroke="#63b8ff" points="665.46,-111.58 656.48,-117.21 667.01,-118.41 665.46,-111.58"/>
</a>
</g>
</g>
<!-- Node17 -->
<g id="Node000017" class="node">
<title>Node17</title>
<g id="a_Node000017"><a xlink:href="$_tiny_engine_u_i_8cpp.html" xlink:title=" ">
<polygon fill="white" stroke="#666666" points="872.41,-76 761.91,-76 761.91,-56 872.41,-56 872.41,-76"/>
<text xml:space="preserve" text-anchor="middle" x="817.16" y="-62.5" font-family="Helvetica,sans-Serif" font-size="10.00">src/TinyEngineUI.cpp</text>
</a>
</g>
</g>
<!-- Node16&#45;&gt;Node17 -->
<g id="edge117_Node000016_Node000017" class="edge">
<title>Node16&#45;&gt;Node17</title>
<g id="a_edge117_Node000016_Node000017"><a xlink:title=" ">
<path fill="none" stroke="#63b8ff" d="M658.28,-114.43C696.28,-103.08 751.33,-86.65 785.64,-76.41"/>
<polygon fill="#63b8ff" stroke="#63b8ff" points="657.6,-110.98 649.02,-117.19 659.6,-117.69 657.6,-110.98"/>
</a>
</g>
</g>
<!-- Node18&#45;&gt;Node12 -->
<g id="edge121_Node000018_Node000012" class="edge">
<title>Node18&#45;&gt;Node12</title>
<g id="a_edge121_Node000018_Node000012"><a xlink:title=" ">
<path fill="none" stroke="#63b8ff" d="M929.93,-174.28C932.11,-162.27 934.75,-147.74 936.44,-138.44"/>
<polygon fill="#63b8ff" stroke="#63b8ff" points="926.49,-173.59 928.15,-184.05 933.38,-174.84 926.49,-173.59"/>
</a>
</g>
</g>
<!-- Node19&#45;&gt;Node2 -->
<g id="edge123_Node000019_Node000002" class="edge">
<title>Node19&#45;&gt;Node2</title>
<g id="a_edge123_Node000019_Node000002"><a xlink:title=" ">
<path fill="none" stroke="#63b8ff" d="M995.47,-179.91C801.16,-151.59 747.67,-172.08 557.16,-144 547.32,-142.55 536.8,-140.54 526.98,-138.46"/>
<polygon fill="#63b8ff" stroke="#63b8ff" points="994.74,-183.34 1005.15,-181.34 995.77,-176.41 994.74,-183.34"/>
</a>
</g>
</g>
<!-- Node19&#45;&gt;Node12 -->
<g id="edge124_Node000019_Node000012" class="edge">
<title>Node19&#45;&gt;Node12</title>
<g id="a_edge124_Node000019_Node000012"><a xlink:title=" ">
<path fill="none" stroke="#63b8ff" d="M1025.18,-174.22C1002.12,-162.24 974.24,-147.75 956.36,-138.46"/>
<polygon fill="#63b8ff" stroke="#63b8ff" points="1023.55,-177.32 1034.04,-178.83 1026.78,-171.11 1023.55,-177.32"/>
</a>
</g>
</g>
<!-- Node20 -->
<g id="Node000020" class="node">
<title>Node20</title>
<g id="a_Node000020"><a xlink:href="$tinyengine__renderer__dvi_8cpp.html" xlink:title=" ">
<polygon fill="white" stroke="#666666" points="1123.78,-144 1006.53,-144 1006.53,-112 1123.78,-112 1123.78,-144"/>
<text xml:space="preserve" text-anchor="start" x="1014.53" y="-130.5" font-family="Helvetica,sans-Serif" font-size="10.00">src/tinyengine_renderer</text>
<text xml:space="preserve" text-anchor="middle" x="1065.16" y="-118.5" font-family="Helvetica,sans-Serif" font-size="10.00">_dvi.cpp</text>
</a>
</g>
</g>
<!-- Node19&#45;&gt;Node20 -->
<g id="edge125_Node000019_Node000020" class="edge">
<title>Node19&#45;&gt;Node20</title>
<g id="a_edge125_Node000019_Node000020"><a xlink:title=" ">
<path fill="none" stroke="#63b8ff" d="M1065.16,-168.31C1065.16,-160.12 1065.16,-151.38 1065.16,-144.22"/>
<polygon fill="#63b8ff" stroke="#63b8ff" points="1061.66,-168.18 1065.16,-178.18 1068.66,-168.18 1061.66,-168.18"/>
</a>
</g>
</g>
<!-- Node21&#45;&gt;Node2 -->
<g id="edge127_Node000021_Node000002" class="edge">
<title>Node21&#45;&gt;Node2</title>
<g id="a_edge127_Node000021_Node000002"><a xlink:title=" ">
<path fill="none" stroke="#63b8ff" d="M357.25,-181.28C389.11,-168.46 435.84,-149.65 463.71,-138.44"/>
<polygon fill="#63b8ff" stroke="#63b8ff" points="356.03,-178 348.06,-184.98 358.64,-184.49 356.03,-178"/>
</a>
</g>
</g>
<!-- Node21&#45;&gt;Node5 -->
<g id="edge129_Node000021_Node000005" class="edge">
<title>Node21&#45;&gt;Node5</title>
<g id="a_edge129_Node000021_Node000005"><a xlink:title=" ">
<path fill="none" stroke="#63b8ff" d="M344.99,-178.47C355,-169.5 365.81,-157.5 371.16,-144 376.4,-130.78 376,-125.37 371.16,-112 361.55,-85.45 322.38,-77.08 341.16,-56 362.13,-32.45 557.45,-19.37 662.7,-13.97"/>
<polygon fill="#63b8ff" stroke="#63b8ff" points="342.8,-175.74 337.37,-184.83 347.29,-181.11 342.8,-175.74"/>
</a>
</g>
</g>
<!-- Node21&#45;&gt;Node7 -->
<g id="edge130_Node000021_Node000007" class="edge">
<title>Node21&#45;&gt;Node7</title>
<g id="a_edge130_Node000021_Node000007"><a xlink:title=" ">
<path fill="none" stroke="#63b8ff" d="M339,-176.62C351.7,-159.53 365.79,-133.53 355.16,-112 343.51,-88.41 328.91,-92.17 308.16,-76 282.94,-56.35 253.64,-32.99 237.79,-20.32"/>
<polygon fill="#63b8ff" stroke="#63b8ff" points="336.32,-174.37 332.82,-184.37 341.79,-178.73 336.32,-174.37"/>
</a>
</g>
</g>
<!-- Node21&#45;&gt;Node12 -->
<g id="edge128_Node000021_Node000012" class="edge">
<title>Node21&#45;&gt;Node12</title>
<g id="a_edge128_Node000021_Node000012"><a xlink:title=" ">
<path fill="none" stroke="#63b8ff" d="M391.36,-187.57C414.75,-185.08 441.09,-182.35 465.16,-180 643.69,-162.58 689.76,-170.59 867.16,-144 877.62,-142.43 888.87,-140.28 899.25,-138.09"/>
<polygon fill="#63b8ff" stroke="#63b8ff" points="391.22,-184.07 381.65,-188.61 391.96,-191.03 391.22,-184.07"/>
</a>
</g>
</g>
<!-- Node21&#45;&gt;Node22 -->
<g id="edge131_Node000021_Node000022" class="edge">
<title>Node21&#45;&gt;Node22</title>
<g id="a_edge131_Node000021_Node000022"><a xlink:title=" ">
<path fill="none" stroke="#63b8ff" d="M308.6,-176.52C298.84,-164.13 286.39,-148.33 278.6,-138.44"/>
<polygon fill="#63b8ff" stroke="#63b8ff" points="305.83,-178.67 314.77,-184.35 311.33,-174.33 305.83,-178.67"/>
</a>
</g>
</g>
<!-- Node21&#45;&gt;Node23 -->
<g id="edge132_Node000021_Node000023" class="edge">
<title>Node21&#45;&gt;Node23</title>
<g id="a_edge132_Node000021_Node000023"><a xlink:title=" ">
<path fill="none" stroke="#63b8ff" d="M277.13,-182.6C229.54,-169.78 156.28,-150.05 113.2,-138.44"/>
<polygon fill="#63b8ff" stroke="#63b8ff" points="276.03,-185.93 286.59,-185.15 277.85,-179.17 276.03,-185.93"/>
</a>
</g>
</g>
<!-- Node27 -->
<g id="Node000027" class="node">
<title>Node27</title>
<g id="a_Node000027"><a xlink:href="$tinyengine__scene__default_8cpp.html" xlink:title=" ">
<polygon fill="white" stroke="#666666" points="1505.28,-280 1397.03,-280 1397.03,-248 1505.28,-248 1505.28,-280"/>
<text xml:space="preserve" text-anchor="start" x="1405.03" y="-266.5" font-family="Helvetica,sans-Serif" font-size="10.00">src/tinyengine_scene</text>
<text xml:space="preserve" text-anchor="middle" x="1451.16" y="-254.5" font-family="Helvetica,sans-Serif" font-size="10.00">_default.cpp</text>
</a>
</g>
</g>
<!-- Node26&#45;&gt;Node27 -->
<g id="edge147_Node000026_Node000027" class="edge">
<title>Node26&#45;&gt;Node27</title>
<g id="a_edge147_Node000026_Node000027"><a xlink:title=" ">
<path fill="none" stroke="#63b8ff" d="M1302.78,-312.08C1334.32,-302.07 1372.57,-289.94 1402.34,-280.49"/>
<polygon fill="#63b8ff" stroke="#63b8ff" points="1301.84,-308.71 1293.37,-315.07 1303.96,-315.38 1301.84,-308.71"/>
</a>
</g>
</g>
</g>
</svg>
