<?xml version="1.0" encoding="UTF-8" standalone="no"?>
<!DOCTYPE svg PUBLIC "-//W3C//DTD SVG 1.1//EN"
 "http://www.w3.org/Graphics/SVG/1.1/DTD/svg11.dtd">
<!-- Generated by graphviz version 13.1.2 (20250808.2320)
 -->
<!-- Title: inc/tinyengine_audio.h Pages: 1 -->
<svg width="2328pt" height="152pt"
 viewBox="0.00 0.00 2328.00 152.00" xmlns="http://www.w3.org/2000/svg" xmlns:xlink="http://www.w3.org/1999/xlink">
<g id="graph0" class="graph" transform="scale(1 1) rotate(0) translate(4 148)">
<title>inc/tinyengine_audio.h</title>
<!-- Node1 -->
<g id="Node000001" class="node">
<title>Node1</title>
<g id="a_Node000001"><a xlink:title=" ">
<polygon fill="#999999" stroke="#666666" points="1218.62,-144 1105.88,-144 1105.88,-124 1218.62,-124 1218.62,-144"/>
<text xml:space="preserve" text-anchor="middle" x="1162.25" y="-130.5" font-family="Helvetica,sans-Serif" font-size="10.00">inc/tinyengine_audio.h</text>
</a>
</g>
</g>
<!-- Node2 -->
<g id="Node000002" class="node">
<title>Node2</title>
<g id="a_Node000002"><a xlink:href="$tinyengine_8h.html" xlink:title=" ">
<polygon fill="white" stroke="#666666" points="1196.5,-88 1128,-88 1128,-68 1196.5,-68 1196.5,-88"/>
<text xml:space="preserve" text-anchor="middle" x="1162.25" y="-74.5" font-family="Helvetica,sans-Serif" font-size="10.00">tinyengine.h</text>
</a>
</g>
</g>
<!-- Node1&#45;&gt;Node2 -->
<g id="edge49_Node000001_Node000002" class="edge">
<title>Node1&#45;&gt;Node2</title>
<g id="a_edge49_Node000001_Node000002"><a xlink:title=" ">
<path fill="none" stroke="#63b8ff" d="M1162.25,-123.59C1162.25,-117.01 1162.25,-107.96 1162.25,-99.73"/>
<polygon fill="#63b8ff" stroke="#63b8ff" points="1165.75,-99.81 1162.25,-89.81 1158.75,-99.81 1165.75,-99.81"/>
</a>
</g>
</g>
<!-- Node3 -->
<g id="Node000003" class="node">
<title>Node3</title>
<g id="a_Node000003"><a xlink:title=" ">
<polygon fill="#e0e0e0" stroke="#999999" points="68.5,-26 0,-26 0,-6 68.5,-6 68.5,-26"/>
<text xml:space="preserve" text-anchor="middle" x="34.25" y="-12.5" font-family="Helvetica,sans-Serif" font-size="10.00">pico/stdlib.h</text>
</a>
</g>
</g>
<!-- Node2&#45;&gt;Node3 -->
<g id="edge50_Node000002_Node000003" class="edge">
<title>Node2&#45;&gt;Node3</title>
<g id="a_edge50_Node000002_Node000003"><a xlink:title=" ">
<path fill="none" stroke="#63b8ff" d="M1127.54,-76.93C965.84,-76.39 285.59,-71.75 77.25,-32 74.22,-31.42 71.12,-30.67 68.04,-29.82"/>
<polygon fill="#63b8ff" stroke="#63b8ff" points="69.15,-26.5 58.56,-26.83 67.04,-33.17 69.15,-26.5"/>
</a>
</g>
</g>
<!-- Node4 -->
<g id="Node000004" class="node">
<title>Node4</title>
<g id="a_Node000004"><a xlink:title=" ">
<polygon fill="#e0e0e0" stroke="#999999" points="131.88,-26 86.62,-26 86.62,-6 131.88,-6 131.88,-26"/>
<text xml:space="preserve" text-anchor="middle" x="109.25" y="-12.5" font-family="Helvetica,sans-Serif" font-size="10.00">stdio.h</text>
</a>
</g>
</g>
<!-- Node2&#45;&gt;Node4 -->
<g id="edge51_Node000002_Node000004" class="edge">
<title>Node2&#45;&gt;Node4</title>
<g id="a_edge51_Node000002_Node000004"><a xlink:title=" ">
<path fill="none" stroke="#63b8ff" d="M1127.69,-77.29C971.91,-78.32 334.33,-79.49 141.25,-32 139.65,-31.61 138.03,-31.13 136.42,-30.59"/>
<polygon fill="#63b8ff" stroke="#63b8ff" points="138.05,-27.48 127.47,-26.96 135.42,-33.96 138.05,-27.48"/>
</a>
</g>
</g>
<!-- Node5 -->
<g id="Node000005" class="node">
<title>Node5</title>
<g id="a_Node000005"><a xlink:title=" ">
<polygon fill="#e0e0e0" stroke="#999999" points="230.12,-26 150.38,-26 150.38,-6 230.12,-6 230.12,-26"/>
<text xml:space="preserve" text-anchor="middle" x="190.25" y="-12.5" font-family="Helvetica,sans-Serif" font-size="10.00">hardware/spi.h</text>
</a>
</g>
</g>
<!-- Node2&#45;&gt;Node5 -->
<g id="edge52_Node000002_Node000005" class="edge">
<title>Node2&#45;&gt;Node5</title>
<g id="a_edge52_Node000002_Node000005"><a xlink:title=" ">
<path fill="none" stroke="#63b8ff" d="M1127.51,-76.46C981.23,-74 414.87,-62.67 239.25,-32 235.45,-31.34 231.54,-30.47 227.66,-29.48"/>
<polygon fill="#63b8ff" stroke="#63b8ff" points="228.95,-26.21 218.37,-26.88 227.06,-32.95 228.95,-26.21"/>
</a>
</g>
</g>
<!-- Node6 -->
<g id="Node000006" class="node">
<title>Node6</title>
<g id="a_Node000006"><a xlink:title=" ">
<polygon fill="#e0e0e0" stroke="#999999" points="296.38,-26 248.12,-26 248.12,-6 296.38,-6 296.38,-26"/>
<text xml:space="preserve" text-anchor="middle" x="272.25" y="-12.5" font-family="Helvetica,sans-Serif" font-size="10.00">stdint.h</text>
</a>
</g>
</g>
<!-- Node2&#45;&gt;Node6 -->
<g id="edge53_Node000002_Node000006" class="edge">
<title>Node2&#45;&gt;Node6</title>
<g id="a_edge53_Node000002_Node000006"><a xlink:title=" ">
<path fill="none" stroke="#63b8ff" d="M1127.54,-76.9C987.66,-76.22 465.18,-71.06 305.25,-32 303.61,-31.6 301.95,-31.12 300.29,-30.57"/>
<polygon fill="#63b8ff" stroke="#63b8ff" points="301.62,-27.34 291.03,-26.92 299.05,-33.85 301.62,-27.34"/>
</a>
</g>
</g>
<!-- Node7 -->
<g id="Node000007" class="node">
<title>Node7</title>
<g id="a_Node000007"><a xlink:href="$tinyengine__scene_8h.html" xlink:title=" ">
<polygon fill="white" stroke="#666666" points="414.25,-26 314.25,-26 314.25,-6 414.25,-6 414.25,-26"/>
<text xml:space="preserve" text-anchor="middle" x="364.25" y="-12.5" font-family="Helvetica,sans-Serif" font-size="10.00">tinyengine_scene.h</text>
</a>
</g>
</g>
<!-- Node2&#45;&gt;Node7 -->
<g id="edge54_Node000002_Node000007" class="edge">
<title>Node2&#45;&gt;Node7</title>
<g id="a_edge54_Node000002_Node000007"><a xlink:title=" ">
<path fill="none" stroke="#63b8ff" d="M1127.75,-77.19C1021.82,-77.3 692.17,-73.99 423.25,-32 418.24,-31.22 413.03,-30.2 407.88,-29.07"/>
<polygon fill="#63b8ff" stroke="#63b8ff" points="408.8,-25.69 398.26,-26.79 407.19,-32.5 408.8,-25.69"/>
</a>
</g>
</g>
<!-- Node8 -->
<g id="Node000008" class="node">
<title>Node8</title>
<g id="a_Node000008"><a xlink:title=" ">
<polygon fill="#e0e0e0" stroke="#999999" points="514.62,-26 431.88,-26 431.88,-6 514.62,-6 514.62,-26"/>
<text xml:space="preserve" text-anchor="middle" x="473.25" y="-12.5" font-family="Helvetica,sans-Serif" font-size="10.00">unordered_map</text>
</a>
</g>
</g>
<!-- Node2&#45;&gt;Node8 -->
<g id="edge55_Node000002_Node000008" class="edge">
<title>Node2&#45;&gt;Node8</title>
<g id="a_edge55_Node000002_Node000008"><a xlink:title=" ">
<path fill="none" stroke="#63b8ff" d="M1127.69,-77.17C1031.34,-77.07 751.83,-73 524.25,-32 520.36,-31.3 516.35,-30.41 512.36,-29.43"/>
<polygon fill="#63b8ff" stroke="#63b8ff" points="513.34,-26.07 502.78,-26.83 511.51,-32.82 513.34,-26.07"/>
</a>
</g>
</g>
<!-- Node9 -->
<g id="Node000009" class="node">
<title>Node9</title>
<g id="a_Node000009"><a xlink:title=" ">
<polygon fill="#e0e0e0" stroke="#999999" points="609.62,-26 532.88,-26 532.88,-6 609.62,-6 609.62,-26"/>
<text xml:space="preserve" text-anchor="middle" x="571.25" y="-12.5" font-family="Helvetica,sans-Serif" font-size="10.00">hardware/pll.h</text>
</a>
</g>
</g>
<!-- Node2&#45;&gt;Node9 -->
<g id="edge56_Node000002_Node000009" class="edge">
<title>Node2&#45;&gt;Node9</title>
<g id="a_edge56_Node000002_Node000009"><a xlink:title=" ">
<path fill="none" stroke="#63b8ff" d="M1127.51,-76.84C1040.73,-75.85 807.88,-69.6 618.25,-32 614.91,-31.34 611.48,-30.52 608.06,-29.61"/>
<polygon fill="#63b8ff" stroke="#63b8ff" points="609.36,-26.34 598.78,-26.9 607.39,-33.06 609.36,-26.34"/>
</a>
</g>
</g>
<!-- Node10 -->
<g id="Node000010" class="node">
<title>Node10</title>
<g id="a_Node000010"><a xlink:title=" ">
<polygon fill="#e0e0e0" stroke="#999999" points="713.12,-26 627.38,-26 627.38,-6 713.12,-6 713.12,-26"/>
<text xml:space="preserve" text-anchor="middle" x="670.25" y="-12.5" font-family="Helvetica,sans-Serif" font-size="10.00">hardware/vreg.h</text>
</a>
</g>
</g>
<!-- Node2&#45;&gt;Node10 -->
<g id="edge57_Node000002_Node000010" class="edge">
<title>Node2&#45;&gt;Node10</title>
<g id="a_edge57_Node000002_Node000010"><a xlink:title=" ">
<path fill="none" stroke="#63b8ff" d="M1127.71,-75.57C1053.1,-72.02 871.51,-60.92 722.25,-32 718.44,-31.26 714.52,-30.37 710.6,-29.4"/>
<polygon fill="#63b8ff" stroke="#63b8ff" points="711.75,-26.09 701.19,-26.88 709.94,-32.85 711.75,-26.09"/>
</a>
</g>
</g>
<!-- Node11 -->
<g id="Node000011" class="node">
<title>Node11</title>
<g id="a_Node000011"><a xlink:title=" ">
<polygon fill="#e0e0e0" stroke="#999999" points="827,-26 731.5,-26 731.5,-6 827,-6 827,-26"/>
<text xml:space="preserve" text-anchor="middle" x="779.25" y="-12.5" font-family="Helvetica,sans-Serif" font-size="10.00">hardware/clocks.h</text>
</a>
</g>
</g>
<!-- Node2&#45;&gt;Node11 -->
<g id="edge58_Node000002_Node000011" class="edge">
<title>Node2&#45;&gt;Node11</title>
<g id="a_edge58_Node000002_Node000011"><a xlink:title=" ">
<path fill="none" stroke="#63b8ff" d="M1127.76,-73.62C1068.02,-67.45 941.58,-53.05 836.25,-32 832.15,-31.18 827.9,-30.24 823.66,-29.24"/>
<polygon fill="#63b8ff" stroke="#63b8ff" points="824.57,-25.86 814.02,-26.84 822.88,-32.65 824.57,-25.86"/>
</a>
</g>
</g>
<!-- Node12 -->
<g id="Node000012" class="node">
<title>Node12</title>
<g id="a_Node000012"><a xlink:title=" ">
<polygon fill="#e0e0e0" stroke="#999999" points="955.12,-26 845.38,-26 845.38,-6 955.12,-6 955.12,-26"/>
<text xml:space="preserve" text-anchor="middle" x="900.25" y="-12.5" font-family="Helvetica,sans-Serif" font-size="10.00">hardware/structs/pll.h</text>
</a>
</g>
</g>
<!-- Node2&#45;&gt;Node12 -->
<g id="edge59_Node000002_Node000012" class="edge">
<title>Node2&#45;&gt;Node12</title>
<g id="a_edge59_Node000002_Node000012"><a xlink:title=" ">
<path fill="none" stroke="#63b8ff" d="M1127.54,-69.19C1087.99,-60.27 1021.44,-45.2 964.25,-32 960.17,-31.06 955.95,-30.08 951.71,-29.09"/>
<polygon fill="#63b8ff" stroke="#63b8ff" points="952.53,-25.69 942,-26.83 950.94,-32.51 952.53,-25.69"/>
</a>
</g>
</g>
<!-- Node13 -->
<g id="Node000013" class="node">
<title>Node13</title>
<g id="a_Node000013"><a xlink:title=" ">
<polygon fill="#e0e0e0" stroke="#999999" points="1101.5,-26 973,-26 973,-6 1101.5,-6 1101.5,-26"/>
<text xml:space="preserve" text-anchor="middle" x="1037.25" y="-12.5" font-family="Helvetica,sans-Serif" font-size="10.00">hardware/structs/clocks.h</text>
</a>
</g>
</g>
<!-- Node2&#45;&gt;Node13 -->
<g id="edge60_Node000002_Node000013" class="edge">
<title>Node2&#45;&gt;Node13</title>
<g id="a_edge60_Node000002_Node000013"><a xlink:title=" ">
<path fill="none" stroke="#63b8ff" d="M1142.72,-67.62C1122.35,-57.85 1090.19,-42.41 1066.74,-31.15"/>
<polygon fill="#63b8ff" stroke="#63b8ff" points="1068.54,-28.14 1058.01,-26.96 1065.51,-34.45 1068.54,-28.14"/>
</a>
</g>
</g>
<!-- Node14 -->
<g id="Node000014" class="node">
<title>Node14</title>
<g id="a_Node000014"><a xlink:title=" ">
<polygon fill="#e0e0e0" stroke="#999999" points="1205.12,-26 1119.38,-26 1119.38,-6 1205.12,-6 1205.12,-26"/>
<text xml:space="preserve" text-anchor="middle" x="1162.25" y="-12.5" font-family="Helvetica,sans-Serif" font-size="10.00">hardware/dma.h</text>
</a>
</g>
</g>
<!-- Node2&#45;&gt;Node14 -->
<g id="edge61_Node000002_Node000014" class="edge">
<title>Node2&#45;&gt;Node14</title>
<g id="a_edge61_Node000002_Node000014"><a xlink:title=" ">
<path fill="none" stroke="#63b8ff" d="M1162.25,-67.62C1162.25,-59.56 1162.25,-47.65 1162.25,-37.41"/>
<polygon fill="#63b8ff" stroke="#63b8ff" points="1165.75,-37.63 1162.25,-27.63 1158.75,-37.63 1165.75,-37.63"/>
</a>
</g>
</g>
<!-- Node15 -->
<g id="Node000015" class="node">
<title>Node15</title>
<g id="a_Node000015"><a xlink:title=" ">
<polygon fill="#e0e0e0" stroke="#999999" points="1307.75,-26 1222.75,-26 1222.75,-6 1307.75,-6 1307.75,-26"/>
<text xml:space="preserve" text-anchor="middle" x="1265.25" y="-12.5" font-family="Helvetica,sans-Serif" font-size="10.00">hardware/gpio.h</text>
</a>
</g>
</g>
<!-- Node2&#45;&gt;Node15 -->
<g id="edge62_Node000002_Node000015" class="edge">
<title>Node2&#45;&gt;Node15</title>
<g id="a_edge62_Node000002_Node000015"><a xlink:title=" ">
<path fill="none" stroke="#63b8ff" d="M1178.34,-67.62C1194.67,-58.11 1220.2,-43.24 1239.37,-32.08"/>
<polygon fill="#63b8ff" stroke="#63b8ff" points="1241.08,-35.13 1247.96,-27.07 1237.56,-29.08 1241.08,-35.13"/>
</a>
</g>
</g>
<!-- Node16 -->
<g id="Node000016" class="node">
<title>Node16</title>
<g id="a_Node000016"><a xlink:title=" ">
<polygon fill="#e0e0e0" stroke="#999999" points="1403,-26 1325.5,-26 1325.5,-6 1403,-6 1403,-26"/>
<text xml:space="preserve" text-anchor="middle" x="1364.25" y="-12.5" font-family="Helvetica,sans-Serif" font-size="10.00">hardware/irq.h</text>
</a>
</g>
</g>
<!-- Node2&#45;&gt;Node16 -->
<g id="edge63_Node000002_Node000016" class="edge">
<title>Node2&#45;&gt;Node16</title>
<g id="a_edge63_Node000002_Node000016"><a xlink:title=" ">
<path fill="none" stroke="#63b8ff" d="M1195.89,-67.51C1227.34,-58.57 1275.57,-44.7 1317.25,-32 1319.49,-31.32 1321.79,-30.61 1324.11,-29.89"/>
<polygon fill="#63b8ff" stroke="#63b8ff" points="1325.02,-33.27 1333.51,-26.94 1322.92,-26.59 1325.02,-33.27"/>
</a>
</g>
</g>
<!-- Node17 -->
<g id="Node000017" class="node">
<title>Node17</title>
<g id="a_Node000017"><a xlink:title=" ">
<polygon fill="#e0e0e0" stroke="#999999" points="1529,-32 1421.5,-32 1421.5,0 1529,0 1529,-32"/>
<text xml:space="preserve" text-anchor="start" x="1429.5" y="-18.5" font-family="Helvetica,sans-Serif" font-size="10.00">hardware/structs/bus</text>
<text xml:space="preserve" text-anchor="middle" x="1475.25" y="-6.5" font-family="Helvetica,sans-Serif" font-size="10.00">_ctrl.h</text>
</a>
</g>
</g>
<!-- Node2&#45;&gt;Node17 -->
<g id="edge64_Node000002_Node000017" class="edge">
<title>Node2&#45;&gt;Node17</title>
<g id="a_edge64_Node000002_Node000017"><a xlink:title=" ">
<path fill="none" stroke="#63b8ff" d="M1196.74,-71.42C1242.99,-63.79 1327.92,-49.32 1410.27,-32.35"/>
<polygon fill="#63b8ff" stroke="#63b8ff" points="1410.78,-35.81 1419.86,-30.35 1409.35,-28.96 1410.78,-35.81"/>
</a>
</g>
</g>
<!-- Node18 -->
<g id="Node000018" class="node">
<title>Node18</title>
<g id="a_Node000018"><a xlink:title=" ">
<polygon fill="#e0e0e0" stroke="#999999" points="1657.5,-32 1547,-32 1547,0 1657.5,0 1657.5,-32"/>
<text xml:space="preserve" text-anchor="start" x="1555" y="-18.5" font-family="Helvetica,sans-Serif" font-size="10.00">hardware/structs/hstx</text>
<text xml:space="preserve" text-anchor="middle" x="1602.25" y="-6.5" font-family="Helvetica,sans-Serif" font-size="10.00">_ctrl.h</text>
</a>
</g>
</g>
<!-- Node2&#45;&gt;Node18 -->
<g id="edge65_Node000002_Node000018" class="edge">
<title>Node2&#45;&gt;Node18</title>
<g id="a_edge65_Node000002_Node000018"><a xlink:title=" ">
<path fill="none" stroke="#63b8ff" d="M1196.91,-74.15C1261.61,-68.55 1405.32,-54.8 1535.85,-32.31"/>
<polygon fill="#63b8ff" stroke="#63b8ff" points="1536.09,-35.82 1545.33,-30.65 1534.88,-28.92 1536.09,-35.82"/>
</a>
</g>
</g>
<!-- Node19 -->
<g id="Node000019" class="node">
<title>Node19</title>
<g id="a_Node000019"><a xlink:title=" ">
<polygon fill="#e0e0e0" stroke="#999999" points="1786.5,-32 1676,-32 1676,0 1786.5,0 1786.5,-32"/>
<text xml:space="preserve" text-anchor="start" x="1684" y="-18.5" font-family="Helvetica,sans-Serif" font-size="10.00">hardware/structs/hstx</text>
<text xml:space="preserve" text-anchor="middle" x="1731.25" y="-6.5" font-family="Helvetica,sans-Serif" font-size="10.00">_fifo.h</text>
</a>
</g>
</g>
<!-- Node2&#45;&gt;Node19 -->
<g id="edge66_Node000002_Node000019" class="edge">
<title>Node2&#45;&gt;Node19</title>
<g id="a_edge66_Node000002_Node000019"><a xlink:title=" ">
<path fill="none" stroke="#63b8ff" d="M1196.98,-75.55C1277.4,-71.84 1482.78,-60.35 1664.57,-32.11"/>
<polygon fill="#63b8ff" stroke="#63b8ff" points="1664.85,-35.6 1674.18,-30.59 1663.76,-28.69 1664.85,-35.6"/>
</a>
</g>
</g>
<!-- Node20 -->
<g id="Node000020" class="node">
<title>Node20</title>
<g id="a_Node000020"><a xlink:title=" ">
<polygon fill="#e0e0e0" stroke="#999999" points="1917.62,-26 1804.88,-26 1804.88,-6 1917.62,-6 1917.62,-26"/>
<text xml:space="preserve" text-anchor="middle" x="1861.25" y="-12.5" font-family="Helvetica,sans-Serif" font-size="10.00">hardware/structs/sio.h</text>
</a>
</g>
</g>
<!-- Node2&#45;&gt;Node20 -->
<g id="edge67_Node000002_Node000020" class="edge">
<title>Node2&#45;&gt;Node20</title>
<g id="a_edge67_Node000002_Node000020"><a xlink:title=" ">
<path fill="none" stroke="#63b8ff" d="M1196.76,-76.39C1292.37,-74.31 1568.57,-65.62 1795.25,-32 1800.99,-31.15 1806.97,-30.07 1812.88,-28.88"/>
<polygon fill="#63b8ff" stroke="#63b8ff" points="1813.56,-32.31 1822.61,-26.8 1812.1,-25.47 1813.56,-32.31"/>
</a>
</g>
</g>
<!-- Node21 -->
<g id="Node000021" class="node">
<title>Node21</title>
<g id="a_Node000021"><a xlink:title=" ">
<polygon fill="#e0e0e0" stroke="#999999" points="2020.75,-26 1935.75,-26 1935.75,-6 2020.75,-6 2020.75,-26"/>
<text xml:space="preserve" text-anchor="middle" x="1978.25" y="-12.5" font-family="Helvetica,sans-Serif" font-size="10.00">pico/multicore.h</text>
</a>
</g>
</g>
<!-- Node2&#45;&gt;Node21 -->
<g id="edge68_Node000002_Node000021" class="edge">
<title>Node2&#45;&gt;Node21</title>
<g id="a_edge68_Node000002_Node000021"><a xlink:title=" ">
<path fill="none" stroke="#63b8ff" d="M1196.97,-75.98C1326.73,-72.01 1783.02,-56.56 1926.25,-32 1930.33,-31.3 1934.55,-30.4 1938.74,-29.38"/>
<polygon fill="#63b8ff" stroke="#63b8ff" points="1939.4,-32.82 1948.17,-26.87 1937.61,-26.06 1939.4,-32.82"/>
</a>
</g>
</g>
<!-- Node22 -->
<g id="Node000022" class="node">
<title>Node22</title>
<g id="a_Node000022"><a xlink:title=" ">
<polygon fill="#e0e0e0" stroke="#999999" points="2103.25,-26 2039.25,-26 2039.25,-6 2103.25,-6 2103.25,-26"/>
<text xml:space="preserve" text-anchor="middle" x="2071.25" y="-12.5" font-family="Helvetica,sans-Serif" font-size="10.00">pico/sem.h</text>
</a>
</g>
</g>
<!-- Node2&#45;&gt;Node22 -->
<g id="edge69_Node000002_Node000022" class="edge">
<title>Node2&#45;&gt;Node22</title>
<g id="a_edge69_Node000002_Node000022"><a xlink:title=" ">
<path fill="none" stroke="#63b8ff" d="M1196.85,-76.58C1337.5,-74.67 1866.69,-65.37 2030.25,-32 2032.88,-31.46 2035.57,-30.79 2038.25,-30.02"/>
<polygon fill="#63b8ff" stroke="#63b8ff" points="2039.19,-33.4 2047.61,-26.96 2037.01,-26.74 2039.19,-33.4"/>
</a>
</g>
</g>
<!-- Node23 -->
<g id="Node000023" class="node">
<title>Node23</title>
<g id="a_Node000023"><a xlink:title=" ">
<polygon fill="#e0e0e0" stroke="#999999" points="2179.25,-26 2121.25,-26 2121.25,-6 2179.25,-6 2179.25,-26"/>
<text xml:space="preserve" text-anchor="middle" x="2150.25" y="-12.5" font-family="Helvetica,sans-Serif" font-size="10.00">functional</text>
</a>
</g>
</g>
<!-- Node2&#45;&gt;Node23 -->
<g id="edge70_Node000002_Node000023" class="edge">
<title>Node2&#45;&gt;Node23</title>
<g id="a_edge70_Node000002_Node000023"><a xlink:title=" ">
<path fill="none" stroke="#63b8ff" d="M1196.82,-76.88C1345.64,-76.11 1932.36,-70.65 2112.25,-32 2114.58,-31.5 2116.95,-30.87 2119.32,-30.16"/>
<polygon fill="#63b8ff" stroke="#63b8ff" points="2120.42,-33.48 2128.7,-26.87 2118.1,-26.88 2120.42,-33.48"/>
</a>
</g>
</g>
<!-- Node24 -->
<g id="Node000024" class="node">
<title>Node24</title>
<g id="a_Node000024"><a xlink:href="$tinyengine__framebuffer_8h.html" xlink:title=" ">
<polygon fill="white" stroke="#666666" points="2319.5,-26 2197,-26 2197,-6 2319.5,-6 2319.5,-26"/>
<text xml:space="preserve" text-anchor="middle" x="2258.25" y="-12.5" font-family="Helvetica,sans-Serif" font-size="10.00">tinyengine_framebuffer.h</text>
</a>
</g>
</g>
<!-- Node2&#45;&gt;Node24 -->
<g id="edge71_Node000002_Node000024" class="edge">
<title>Node2&#45;&gt;Node24</title>
<g id="a_edge71_Node000002_Node000024"><a xlink:title=" ">
<path fill="none" stroke="#63b8ff" d="M1196.9,-76.19C1352,-72.61 1982.39,-57.23 2179.25,-32 2185.96,-31.14 2192.99,-29.97 2199.98,-28.65"/>
<polygon fill="#63b8ff" stroke="#63b8ff" points="2200.26,-32.16 2209.39,-26.79 2198.9,-25.3 2200.26,-32.16"/>
</a>
</g>
</g>
<!-- Node24&#45;&gt;Node2 -->
<g id="edge72_Node000024_Node000002" class="edge">
<title>Node24&#45;&gt;Node2</title>
<g id="a_edge72_Node000024_Node000002"><a xlink:title=" ">
<path fill="none" stroke="#63b8ff" d="M2228.27,-26.5C2218.44,-28.65 2207.48,-30.69 2197.25,-32 2002.33,-56.98 1382.36,-72.31 1208.12,-76.08"/>
<polygon fill="#63b8ff" stroke="#63b8ff" points="1208.26,-72.58 1198.34,-76.29 1208.41,-79.58 1208.26,-72.58"/>
</a>
</g>
</g>
</g>
</svg>
