<?xml version="1.0" encoding="UTF-8" standalone="no"?>
<!DOCTYPE svg PUBLIC "-//W3C//DTD SVG 1.1//EN"
 "http://www.w3.org/Graphics/SVG/1.1/DTD/svg11.dtd">
<!-- Generated by graphviz version 13.1.2 (20250808.2320)
 -->
<!-- Title: inc/tinyengine_renderer_dvi.h Pages: 1 -->
<svg width="2328pt" height="164pt"
 viewBox="0.00 0.00 2328.00 164.00" xmlns="http://www.w3.org/2000/svg" xmlns:xlink="http://www.w3.org/1999/xlink">
<g id="graph0" class="graph" transform="scale(1 1) rotate(0) translate(4 160)">
<title>inc/tinyengine_renderer_dvi.h</title>
<!-- Node1 -->
<g id="Node000001" class="node">
<title>Node1</title>
<g id="a_Node000001"><a xlink:title=" ">
<polygon fill="#999999" stroke="#666666" points="1302.5,-156 1186,-156 1186,-124 1302.5,-124 1302.5,-156"/>
<text xml:space="preserve" text-anchor="start" x="1194" y="-142.5" font-family="Helvetica,sans-Serif" font-size="10.00">inc/tinyengine_renderer</text>
<text xml:space="preserve" text-anchor="middle" x="1244.25" y="-130.5" font-family="Helvetica,sans-Serif" font-size="10.00">_dvi.h</text>
</a>
</g>
</g>
<!-- Node2 -->
<g id="Node000002" class="node">
<title>Node2</title>
<g id="a_Node000002"><a xlink:href="$tinyengine_8h.html" xlink:title=" ">
<polygon fill="white" stroke="#666666" points="1247.5,-88 1179,-88 1179,-68 1247.5,-68 1247.5,-88"/>
<text xml:space="preserve" text-anchor="middle" x="1213.25" y="-74.5" font-family="Helvetica,sans-Serif" font-size="10.00">tinyengine.h</text>
</a>
</g>
</g>
<!-- Node1&#45;&gt;Node2 -->
<g id="edge51_Node000001_Node000002" class="edge">
<title>Node1&#45;&gt;Node2</title>
<g id="a_edge51_Node000001_Node000002"><a xlink:title=" ">
<path fill="none" stroke="#63b8ff" d="M1236.27,-123.55C1232.32,-115.91 1227.52,-106.61 1223.32,-98.49"/>
<polygon fill="#63b8ff" stroke="#63b8ff" points="1226.51,-97.03 1218.81,-89.75 1220.29,-100.24 1226.51,-97.03"/>
</a>
</g>
</g>
<!-- Node24 -->
<g id="Node000024" class="node">
<title>Node24</title>
<g id="a_Node000024"><a xlink:href="$tinyengine__framebuffer_8h.html" xlink:title=" ">
<polygon fill="white" stroke="#666666" points="2319.5,-26 2197,-26 2197,-6 2319.5,-6 2319.5,-26"/>
<text xml:space="preserve" text-anchor="middle" x="2258.25" y="-12.5" font-family="Helvetica,sans-Serif" font-size="10.00">tinyengine_framebuffer.h</text>
</a>
</g>
</g>
<!-- Node1&#45;&gt;Node24 -->
<g id="edge75_Node000001_Node000024" class="edge">
<title>Node1&#45;&gt;Node24</title>
<g id="a_edge75_Node000001_Node000024"><a xlink:title=" ">
<path fill="none" stroke="#63b8ff" d="M1302.8,-134.38C1451.43,-122.21 1855.16,-86.43 2188.25,-32 2194.15,-31.04 2200.31,-29.9 2206.42,-28.7"/>
<polygon fill="#63b8ff" stroke="#63b8ff" points="2206.71,-32.21 2215.81,-26.78 2205.31,-25.35 2206.71,-32.21"/>
</a>
</g>
</g>
<!-- Node3 -->
<g id="Node000003" class="node">
<title>Node3</title>
<g id="a_Node000003"><a xlink:title=" ">
<polygon fill="#e0e0e0" stroke="#999999" points="68.5,-26 0,-26 0,-6 68.5,-6 68.5,-26"/>
<text xml:space="preserve" text-anchor="middle" x="34.25" y="-12.5" font-family="Helvetica,sans-Serif" font-size="10.00">pico/stdlib.h</text>
</a>
</g>
</g>
<!-- Node2&#45;&gt;Node3 -->
<g id="edge52_Node000002_Node000003" class="edge">
<title>Node2&#45;&gt;Node3</title>
<g id="a_edge52_Node000002_Node000003"><a xlink:title=" ">
<path fill="none" stroke="#63b8ff" d="M1178.58,-77C1012.37,-76.81 296.13,-73.55 77.25,-32 74.22,-31.43 71.12,-30.68 68.04,-29.82"/>
<polygon fill="#63b8ff" stroke="#63b8ff" points="69.15,-26.5 58.56,-26.84 67.04,-33.18 69.15,-26.5"/>
</a>
</g>
</g>
<!-- Node4 -->
<g id="Node000004" class="node">
<title>Node4</title>
<g id="a_Node000004"><a xlink:title=" ">
<polygon fill="#e0e0e0" stroke="#999999" points="131.88,-26 86.62,-26 86.62,-6 131.88,-6 131.88,-26"/>
<text xml:space="preserve" text-anchor="middle" x="109.25" y="-12.5" font-family="Helvetica,sans-Serif" font-size="10.00">stdio.h</text>
</a>
</g>
</g>
<!-- Node2&#45;&gt;Node4 -->
<g id="edge53_Node000002_Node000004" class="edge">
<title>Node2&#45;&gt;Node4</title>
<g id="a_edge53_Node000002_Node000004"><a xlink:title=" ">
<path fill="none" stroke="#63b8ff" d="M1178.77,-76.36C1006.55,-73.06 243.87,-57.13 141.25,-32 139.65,-31.61 138.03,-31.13 136.42,-30.6"/>
<polygon fill="#63b8ff" stroke="#63b8ff" points="138.05,-27.48 127.46,-26.97 135.42,-33.97 138.05,-27.48"/>
</a>
</g>
</g>
<!-- Node5 -->
<g id="Node000005" class="node">
<title>Node5</title>
<g id="a_Node000005"><a xlink:title=" ">
<polygon fill="#e0e0e0" stroke="#999999" points="230.12,-26 150.38,-26 150.38,-6 230.12,-6 230.12,-26"/>
<text xml:space="preserve" text-anchor="middle" x="190.25" y="-12.5" font-family="Helvetica,sans-Serif" font-size="10.00">hardware/spi.h</text>
</a>
</g>
</g>
<!-- Node2&#45;&gt;Node5 -->
<g id="edge54_Node000002_Node000005" class="edge">
<title>Node2&#45;&gt;Node5</title>
<g id="a_edge54_Node000002_Node000005"><a xlink:title=" ">
<path fill="none" stroke="#63b8ff" d="M1178.65,-76.56C1027.62,-74.48 425.43,-64.27 239.25,-32 235.45,-31.34 231.54,-30.48 227.65,-29.49"/>
<polygon fill="#63b8ff" stroke="#63b8ff" points="228.94,-26.22 218.37,-26.89 227.06,-32.96 228.94,-26.22"/>
</a>
</g>
</g>
<!-- Node6 -->
<g id="Node000006" class="node">
<title>Node6</title>
<g id="a_Node000006"><a xlink:title=" ">
<polygon fill="#e0e0e0" stroke="#999999" points="296.38,-26 248.12,-26 248.12,-6 296.38,-6 296.38,-26"/>
<text xml:space="preserve" text-anchor="middle" x="272.25" y="-12.5" font-family="Helvetica,sans-Serif" font-size="10.00">stdint.h</text>
</a>
</g>
</g>
<!-- Node2&#45;&gt;Node6 -->
<g id="edge55_Node000002_Node000006" class="edge">
<title>Node2&#45;&gt;Node6</title>
<g id="a_edge55_Node000002_Node000006"><a xlink:title=" ">
<path fill="none" stroke="#63b8ff" d="M1178.95,-77.02C1034.56,-76.82 475.69,-73.36 305.25,-32 303.61,-31.6 301.94,-31.12 300.29,-30.58"/>
<polygon fill="#63b8ff" stroke="#63b8ff" points="301.62,-27.34 291.03,-26.93 299.05,-33.85 301.62,-27.34"/>
</a>
</g>
</g>
<!-- Node7 -->
<g id="Node000007" class="node">
<title>Node7</title>
<g id="a_Node000007"><a xlink:href="$tinyengine__scene_8h.html" xlink:title=" ">
<polygon fill="white" stroke="#666666" points="414.25,-26 314.25,-26 314.25,-6 414.25,-6 414.25,-26"/>
<text xml:space="preserve" text-anchor="middle" x="364.25" y="-12.5" font-family="Helvetica,sans-Serif" font-size="10.00">tinyengine_scene.h</text>
</a>
</g>
</g>
<!-- Node2&#45;&gt;Node7 -->
<g id="edge56_Node000002_Node000007" class="edge">
<title>Node2&#45;&gt;Node7</title>
<g id="a_edge56_Node000002_Node000007"><a xlink:title=" ">
<path fill="none" stroke="#63b8ff" d="M1178.74,-77.39C1068.13,-78.13 712.78,-76.63 423.25,-32 418.24,-31.23 413.03,-30.22 407.88,-29.09"/>
<polygon fill="#63b8ff" stroke="#63b8ff" points="408.8,-25.71 398.26,-26.81 407.19,-32.52 408.8,-25.71"/>
</a>
</g>
</g>
<!-- Node8 -->
<g id="Node000008" class="node">
<title>Node8</title>
<g id="a_Node000008"><a xlink:title=" ">
<polygon fill="#e0e0e0" stroke="#999999" points="514.62,-26 431.88,-26 431.88,-6 514.62,-6 514.62,-26"/>
<text xml:space="preserve" text-anchor="middle" x="473.25" y="-12.5" font-family="Helvetica,sans-Serif" font-size="10.00">unordered_map</text>
</a>
</g>
</g>
<!-- Node2&#45;&gt;Node8 -->
<g id="edge57_Node000002_Node000008" class="edge">
<title>Node2&#45;&gt;Node8</title>
<g id="a_edge57_Node000002_Node000008"><a xlink:title=" ">
<path fill="none" stroke="#63b8ff" d="M1178.51,-77.42C1076.96,-78.09 772.11,-75.99 524.25,-32 520.36,-31.31 516.35,-30.43 512.36,-29.45"/>
<polygon fill="#63b8ff" stroke="#63b8ff" points="513.34,-26.09 502.77,-26.85 511.51,-32.84 513.34,-26.09"/>
</a>
</g>
</g>
<!-- Node9 -->
<g id="Node000009" class="node">
<title>Node9</title>
<g id="a_Node000009"><a xlink:title=" ">
<polygon fill="#e0e0e0" stroke="#999999" points="609.62,-26 532.88,-26 532.88,-6 609.62,-6 609.62,-26"/>
<text xml:space="preserve" text-anchor="middle" x="571.25" y="-12.5" font-family="Helvetica,sans-Serif" font-size="10.00">hardware/pll.h</text>
</a>
</g>
</g>
<!-- Node2&#45;&gt;Node9 -->
<g id="edge58_Node000002_Node000009" class="edge">
<title>Node2&#45;&gt;Node9</title>
<g id="a_edge58_Node000002_Node000009"><a xlink:title=" ">
<path fill="none" stroke="#63b8ff" d="M1178.67,-77.19C1086.6,-77.08 828.23,-72.86 618.25,-32 614.83,-31.33 611.31,-30.5 607.81,-29.57"/>
<polygon fill="#63b8ff" stroke="#63b8ff" points="608.86,-26.23 598.28,-26.78 606.89,-32.95 608.86,-26.23"/>
</a>
</g>
</g>
<!-- Node10 -->
<g id="Node000010" class="node">
<title>Node10</title>
<g id="a_Node000010"><a xlink:title=" ">
<polygon fill="#e0e0e0" stroke="#999999" points="713.12,-26 627.38,-26 627.38,-6 713.12,-6 713.12,-26"/>
<text xml:space="preserve" text-anchor="middle" x="670.25" y="-12.5" font-family="Helvetica,sans-Serif" font-size="10.00">hardware/vreg.h</text>
</a>
</g>
</g>
<!-- Node2&#45;&gt;Node10 -->
<g id="edge59_Node000002_Node000010" class="edge">
<title>Node2&#45;&gt;Node10</title>
<g id="a_edge59_Node000002_Node000010"><a xlink:title=" ">
<path fill="none" stroke="#63b8ff" d="M1178.71,-76.08C1098.1,-73.45 891.55,-63.88 722.25,-32 718.39,-31.27 714.41,-30.39 710.45,-29.41"/>
<polygon fill="#63b8ff" stroke="#63b8ff" points="711.47,-26.06 700.9,-26.86 709.66,-32.82 711.47,-26.06"/>
</a>
</g>
</g>
<!-- Node11 -->
<g id="Node000011" class="node">
<title>Node11</title>
<g id="a_Node000011"><a xlink:title=" ">
<polygon fill="#e0e0e0" stroke="#999999" points="827,-26 731.5,-26 731.5,-6 827,-6 827,-26"/>
<text xml:space="preserve" text-anchor="middle" x="779.25" y="-12.5" font-family="Helvetica,sans-Serif" font-size="10.00">hardware/clocks.h</text>
</a>
</g>
</g>
<!-- Node2&#45;&gt;Node11 -->
<g id="edge60_Node000002_Node000011" class="edge">
<title>Node2&#45;&gt;Node11</title>
<g id="a_edge60_Node000002_Node000011"><a xlink:title=" ">
<path fill="none" stroke="#63b8ff" d="M1178.7,-74.49C1112.04,-69.28 961.22,-55.78 836.25,-32 831.91,-31.17 827.41,-30.2 822.93,-29.15"/>
<polygon fill="#63b8ff" stroke="#63b8ff" points="823.94,-25.8 813.4,-26.79 822.26,-32.59 823.94,-25.8"/>
</a>
</g>
</g>
<!-- Node12 -->
<g id="Node000012" class="node">
<title>Node12</title>
<g id="a_Node000012"><a xlink:title=" ">
<polygon fill="#e0e0e0" stroke="#999999" points="955.12,-26 845.38,-26 845.38,-6 955.12,-6 955.12,-26"/>
<text xml:space="preserve" text-anchor="middle" x="900.25" y="-12.5" font-family="Helvetica,sans-Serif" font-size="10.00">hardware/structs/pll.h</text>
</a>
</g>
</g>
<!-- Node2&#45;&gt;Node12 -->
<g id="edge61_Node000002_Node000012" class="edge">
<title>Node2&#45;&gt;Node12</title>
<g id="a_edge61_Node000002_Node000012"><a xlink:title=" ">
<path fill="none" stroke="#63b8ff" d="M1178.91,-71.37C1130.78,-63.35 1040.6,-47.84 964.25,-32 959.66,-31.05 954.9,-30.02 950.13,-28.95"/>
<polygon fill="#63b8ff" stroke="#63b8ff" points="951.1,-25.58 940.58,-26.78 949.55,-32.41 951.1,-25.58"/>
</a>
</g>
</g>
<!-- Node13 -->
<g id="Node000013" class="node">
<title>Node13</title>
<g id="a_Node000013"><a xlink:title=" ">
<polygon fill="#e0e0e0" stroke="#999999" points="1101.5,-26 973,-26 973,-6 1101.5,-6 1101.5,-26"/>
<text xml:space="preserve" text-anchor="middle" x="1037.25" y="-12.5" font-family="Helvetica,sans-Serif" font-size="10.00">hardware/structs/clocks.h</text>
</a>
</g>
</g>
<!-- Node2&#45;&gt;Node13 -->
<g id="edge62_Node000002_Node000013" class="edge">
<title>Node2&#45;&gt;Node13</title>
<g id="a_edge62_Node000002_Node000013"><a xlink:title=" ">
<path fill="none" stroke="#63b8ff" d="M1185.75,-67.62C1156.13,-57.53 1108.79,-41.39 1075.54,-30.05"/>
<polygon fill="#63b8ff" stroke="#63b8ff" points="1076.87,-26.81 1066.28,-26.9 1074.62,-33.44 1076.87,-26.81"/>
</a>
</g>
</g>
<!-- Node14 -->
<g id="Node000014" class="node">
<title>Node14</title>
<g id="a_Node000014"><a xlink:title=" ">
<polygon fill="#e0e0e0" stroke="#999999" points="1205.12,-26 1119.38,-26 1119.38,-6 1205.12,-6 1205.12,-26"/>
<text xml:space="preserve" text-anchor="middle" x="1162.25" y="-12.5" font-family="Helvetica,sans-Serif" font-size="10.00">hardware/dma.h</text>
</a>
</g>
</g>
<!-- Node2&#45;&gt;Node14 -->
<g id="edge63_Node000002_Node000014" class="edge">
<title>Node2&#45;&gt;Node14</title>
<g id="a_edge63_Node000002_Node000014"><a xlink:title=" ">
<path fill="none" stroke="#63b8ff" d="M1205.28,-67.62C1197.83,-58.86 1186.5,-45.53 1177.34,-34.75"/>
<polygon fill="#63b8ff" stroke="#63b8ff" points="1180.12,-32.62 1170.98,-27.27 1174.79,-37.15 1180.12,-32.62"/>
</a>
</g>
</g>
<!-- Node15 -->
<g id="Node000015" class="node">
<title>Node15</title>
<g id="a_Node000015"><a xlink:title=" ">
<polygon fill="#e0e0e0" stroke="#999999" points="1307.75,-26 1222.75,-26 1222.75,-6 1307.75,-6 1307.75,-26"/>
<text xml:space="preserve" text-anchor="middle" x="1265.25" y="-12.5" font-family="Helvetica,sans-Serif" font-size="10.00">hardware/gpio.h</text>
</a>
</g>
</g>
<!-- Node2&#45;&gt;Node15 -->
<g id="edge64_Node000002_Node000015" class="edge">
<title>Node2&#45;&gt;Node15</title>
<g id="a_edge64_Node000002_Node000015"><a xlink:title=" ">
<path fill="none" stroke="#63b8ff" d="M1221.38,-67.62C1228.97,-58.86 1240.52,-45.53 1249.87,-34.75"/>
<polygon fill="#63b8ff" stroke="#63b8ff" points="1252.46,-37.11 1256.36,-27.26 1247.17,-32.52 1252.46,-37.11"/>
</a>
</g>
</g>
<!-- Node16 -->
<g id="Node000016" class="node">
<title>Node16</title>
<g id="a_Node000016"><a xlink:title=" ">
<polygon fill="#e0e0e0" stroke="#999999" points="1403,-26 1325.5,-26 1325.5,-6 1403,-6 1403,-26"/>
<text xml:space="preserve" text-anchor="middle" x="1364.25" y="-12.5" font-family="Helvetica,sans-Serif" font-size="10.00">hardware/irq.h</text>
</a>
</g>
</g>
<!-- Node2&#45;&gt;Node16 -->
<g id="edge65_Node000002_Node000016" class="edge">
<title>Node2&#45;&gt;Node16</title>
<g id="a_edge65_Node000002_Node000016"><a xlink:title=" ">
<path fill="none" stroke="#63b8ff" d="M1236.84,-67.62C1261.89,-57.67 1301.7,-41.85 1330.15,-30.55"/>
<polygon fill="#63b8ff" stroke="#63b8ff" points="1331.41,-33.81 1339.42,-26.87 1328.83,-27.31 1331.41,-33.81"/>
</a>
</g>
</g>
<!-- Node17 -->
<g id="Node000017" class="node">
<title>Node17</title>
<g id="a_Node000017"><a xlink:title=" ">
<polygon fill="#e0e0e0" stroke="#999999" points="1529,-32 1421.5,-32 1421.5,0 1529,0 1529,-32"/>
<text xml:space="preserve" text-anchor="start" x="1429.5" y="-18.5" font-family="Helvetica,sans-Serif" font-size="10.00">hardware/structs/bus</text>
<text xml:space="preserve" text-anchor="middle" x="1475.25" y="-6.5" font-family="Helvetica,sans-Serif" font-size="10.00">_ctrl.h</text>
</a>
</g>
</g>
<!-- Node2&#45;&gt;Node17 -->
<g id="edge66_Node000002_Node000017" class="edge">
<title>Node2&#45;&gt;Node17</title>
<g id="a_edge66_Node000002_Node000017"><a xlink:title=" ">
<path fill="none" stroke="#63b8ff" d="M1247.79,-69.31C1285.33,-60.93 1347.37,-47 1410.36,-32.42"/>
<polygon fill="#63b8ff" stroke="#63b8ff" points="1410.88,-35.9 1419.83,-30.23 1409.3,-29.08 1410.88,-35.9"/>
</a>
</g>
</g>
<!-- Node18 -->
<g id="Node000018" class="node">
<title>Node18</title>
<g id="a_Node000018"><a xlink:title=" ">
<polygon fill="#e0e0e0" stroke="#999999" points="1657.5,-32 1547,-32 1547,0 1657.5,0 1657.5,-32"/>
<text xml:space="preserve" text-anchor="start" x="1555" y="-18.5" font-family="Helvetica,sans-Serif" font-size="10.00">hardware/structs/hstx</text>
<text xml:space="preserve" text-anchor="middle" x="1602.25" y="-6.5" font-family="Helvetica,sans-Serif" font-size="10.00">_ctrl.h</text>
</a>
</g>
</g>
<!-- Node2&#45;&gt;Node18 -->
<g id="edge67_Node000002_Node000018" class="edge">
<title>Node2&#45;&gt;Node18</title>
<g id="a_edge67_Node000002_Node000018"><a xlink:title=" ">
<path fill="none" stroke="#63b8ff" d="M1247.58,-73.31C1305.13,-66.89 1424.92,-52.55 1535.77,-32.36"/>
<polygon fill="#63b8ff" stroke="#63b8ff" points="1536.13,-35.85 1545.32,-30.6 1534.86,-28.97 1536.13,-35.85"/>
</a>
</g>
</g>
<!-- Node19 -->
<g id="Node000019" class="node">
<title>Node19</title>
<g id="a_Node000019"><a xlink:title=" ">
<polygon fill="#e0e0e0" stroke="#999999" points="1786.5,-32 1676,-32 1676,0 1786.5,0 1786.5,-32"/>
<text xml:space="preserve" text-anchor="start" x="1684" y="-18.5" font-family="Helvetica,sans-Serif" font-size="10.00">hardware/structs/hstx</text>
<text xml:space="preserve" text-anchor="middle" x="1731.25" y="-6.5" font-family="Helvetica,sans-Serif" font-size="10.00">_fifo.h</text>
</a>
</g>
</g>
<!-- Node2&#45;&gt;Node19 -->
<g id="edge68_Node000002_Node000019" class="edge">
<title>Node2&#45;&gt;Node19</title>
<g id="a_edge68_Node000002_Node000019"><a xlink:title=" ">
<path fill="none" stroke="#63b8ff" d="M1247.83,-75.08C1322.17,-70.62 1502.89,-58.06 1664.56,-32.13"/>
<polygon fill="#63b8ff" stroke="#63b8ff" points="1664.87,-35.62 1674.18,-30.56 1663.75,-28.71 1664.87,-35.62"/>
</a>
</g>
</g>
<!-- Node20 -->
<g id="Node000020" class="node">
<title>Node20</title>
<g id="a_Node000020"><a xlink:title=" ">
<polygon fill="#e0e0e0" stroke="#999999" points="1917.62,-26 1804.88,-26 1804.88,-6 1917.62,-6 1917.62,-26"/>
<text xml:space="preserve" text-anchor="middle" x="1861.25" y="-12.5" font-family="Helvetica,sans-Serif" font-size="10.00">hardware/structs/sio.h</text>
</a>
</g>
</g>
<!-- Node2&#45;&gt;Node20 -->
<g id="edge69_Node000002_Node000020" class="edge">
<title>Node2&#45;&gt;Node20</title>
<g id="a_edge69_Node000002_Node000020"><a xlink:title=" ">
<path fill="none" stroke="#63b8ff" d="M1247.89,-76.09C1338.37,-73.33 1589.09,-63.23 1795.25,-32 1800.98,-31.13 1806.96,-30.04 1812.87,-28.84"/>
<polygon fill="#63b8ff" stroke="#63b8ff" points="1813.56,-32.28 1822.6,-26.76 1812.09,-25.43 1813.56,-32.28"/>
</a>
</g>
</g>
<!-- Node21 -->
<g id="Node000021" class="node">
<title>Node21</title>
<g id="a_Node000021"><a xlink:title=" ">
<polygon fill="#e0e0e0" stroke="#999999" points="2020.75,-26 1935.75,-26 1935.75,-6 2020.75,-6 2020.75,-26"/>
<text xml:space="preserve" text-anchor="middle" x="1978.25" y="-12.5" font-family="Helvetica,sans-Serif" font-size="10.00">pico/multicore.h</text>
</a>
</g>
</g>
<!-- Node2&#45;&gt;Node21 -->
<g id="edge70_Node000002_Node000021" class="edge">
<title>Node2&#45;&gt;Node21</title>
<g id="a_edge70_Node000002_Node000021"><a xlink:title=" ">
<path fill="none" stroke="#63b8ff" d="M1247.7,-77.47C1351.23,-78.31 1668.4,-76.77 1926.25,-32 1930.33,-31.29 1934.55,-30.38 1938.74,-29.36"/>
<polygon fill="#63b8ff" stroke="#63b8ff" points="1939.4,-32.81 1948.17,-26.85 1937.6,-26.04 1939.4,-32.81"/>
</a>
</g>
</g>
<!-- Node22 -->
<g id="Node000022" class="node">
<title>Node22</title>
<g id="a_Node000022"><a xlink:title=" ">
<polygon fill="#e0e0e0" stroke="#999999" points="2103.25,-26 2039.25,-26 2039.25,-6 2103.25,-6 2103.25,-26"/>
<text xml:space="preserve" text-anchor="middle" x="2071.25" y="-12.5" font-family="Helvetica,sans-Serif" font-size="10.00">pico/sem.h</text>
</a>
</g>
</g>
<!-- Node2&#45;&gt;Node22 -->
<g id="edge71_Node000002_Node000022" class="edge">
<title>Node2&#45;&gt;Node22</title>
<g id="a_edge71_Node000002_Node000022"><a xlink:title=" ">
<path fill="none" stroke="#63b8ff" d="M1247.63,-76.46C1382.71,-74.11 1877.02,-63.52 2030.25,-32 2032.88,-31.46 2035.57,-30.78 2038.25,-30.01"/>
<polygon fill="#63b8ff" stroke="#63b8ff" points="2039.19,-33.39 2047.6,-26.95 2037.01,-26.73 2039.19,-33.39"/>
</a>
</g>
</g>
<!-- Node23 -->
<g id="Node000023" class="node">
<title>Node23</title>
<g id="a_Node000023"><a xlink:title=" ">
<polygon fill="#e0e0e0" stroke="#999999" points="2179.25,-26 2121.25,-26 2121.25,-6 2179.25,-6 2179.25,-26"/>
<text xml:space="preserve" text-anchor="middle" x="2150.25" y="-12.5" font-family="Helvetica,sans-Serif" font-size="10.00">functional</text>
</a>
</g>
</g>
<!-- Node2&#45;&gt;Node23 -->
<g id="edge72_Node000002_Node000023" class="edge">
<title>Node2&#45;&gt;Node23</title>
<g id="a_edge72_Node000002_Node000023"><a xlink:title=" ">
<path fill="none" stroke="#63b8ff" d="M1247.64,-76.77C1391.15,-75.58 1942.71,-68.67 2112.25,-32 2114.58,-31.5 2116.95,-30.87 2119.31,-30.15"/>
<polygon fill="#63b8ff" stroke="#63b8ff" points="2120.42,-33.47 2128.69,-26.86 2118.1,-26.87 2120.42,-33.47"/>
</a>
</g>
</g>
<!-- Node2&#45;&gt;Node24 -->
<g id="edge73_Node000002_Node000024" class="edge">
<title>Node2&#45;&gt;Node24</title>
<g id="a_edge73_Node000002_Node000024"><a xlink:title=" ">
<path fill="none" stroke="#63b8ff" d="M1247.78,-76.09C1397.83,-72.21 1992.92,-56.1 2179.25,-32 2185.96,-31.13 2192.99,-29.95 2199.98,-28.64"/>
<polygon fill="#63b8ff" stroke="#63b8ff" points="2200.26,-32.15 2209.39,-26.77 2198.9,-25.28 2200.26,-32.15"/>
</a>
</g>
</g>
<!-- Node24&#45;&gt;Node2 -->
<g id="edge74_Node000024_Node000002" class="edge">
<title>Node24&#45;&gt;Node2</title>
<g id="a_edge74_Node000024_Node000002"><a xlink:title=" ">
<path fill="none" stroke="#63b8ff" d="M2228.26,-26.48C2218.44,-28.64 2207.48,-30.68 2197.25,-32 2012.83,-55.85 1427.96,-71.88 1259.18,-75.97"/>
<polygon fill="#63b8ff" stroke="#63b8ff" points="1259.18,-72.47 1249.27,-76.21 1259.35,-79.47 1259.18,-72.47"/>
</a>
</g>
</g>
</g>
</svg>
