<?xml version="1.0" encoding="UTF-8" standalone="no"?>
<!DOCTYPE svg PUBLIC "-//W3C//DTD SVG 1.1//EN"
 "http://www.w3.org/Graphics/SVG/1.1/DTD/svg11.dtd">
<!-- Generated by graphviz version 13.1.2 (20250808.2320)
 -->
<!-- Title: src/tinyengine_framebuffer.cpp Pages: 1 -->
<svg width="2187pt" height="264pt"
 viewBox="0.00 0.00 2187.00 264.00" xmlns="http://www.w3.org/2000/svg" xmlns:xlink="http://www.w3.org/1999/xlink">
<g id="graph0" class="graph" transform="scale(1 1) rotate(0) translate(4 260)">
<title>src/tinyengine_framebuffer.cpp</title>
<!-- Node1 -->
<g id="Node000001" class="node">
<title>Node1</title>
<g id="a_Node000001"><a xlink:title=" ">
<polygon fill="#999999" stroke="#666666" points="863.62,-256 714.12,-256 714.12,-236 863.62,-236 863.62,-256"/>
<text xml:space="preserve" text-anchor="middle" x="788.88" y="-242.5" font-family="Helvetica,sans-Serif" font-size="10.00">src/tinyengine_framebuffer.cpp</text>
</a>
</g>
</g>
<!-- Node2 -->
<g id="Node000002" class="node">
<title>Node2</title>
<g id="a_Node000002"><a xlink:href="$tinyengine__framebuffer_8h.html" xlink:title=" ">
<polygon fill="white" stroke="#666666" points="1074.12,-144 951.62,-144 951.62,-124 1074.12,-124 1074.12,-144"/>
<text xml:space="preserve" text-anchor="middle" x="1012.88" y="-130.5" font-family="Helvetica,sans-Serif" font-size="10.00">tinyengine_framebuffer.h</text>
</a>
</g>
</g>
<!-- Node1&#45;&gt;Node2 -->
<g id="edge71_Node000001_Node000002" class="edge">
<title>Node1&#45;&gt;Node2</title>
<g id="a_edge71_Node000001_Node000002"><a xlink:title=" ">
<path fill="none" stroke="#63b8ff" d="M758.74,-235.55C727.12,-224.1 684.62,-203.44 704.88,-180 734.66,-145.54 858.77,-136.95 940.06,-135.1"/>
<polygon fill="#63b8ff" stroke="#63b8ff" points="939.79,-138.61 949.72,-134.92 939.66,-131.61 939.79,-138.61"/>
</a>
</g>
</g>
<!-- Node25 -->
<g id="Node000025" class="node">
<title>Node25</title>
<g id="a_Node000025"><a xlink:title=" ">
<polygon fill="#e0e0e0" stroke="#999999" points="587.62,-200 540.12,-200 540.12,-180 587.62,-180 587.62,-200"/>
<text xml:space="preserve" text-anchor="middle" x="563.88" y="-186.5" font-family="Helvetica,sans-Serif" font-size="10.00">stdlib.h</text>
</a>
</g>
</g>
<!-- Node1&#45;&gt;Node25 -->
<g id="edge95_Node000001_Node000025" class="edge">
<title>Node1&#45;&gt;Node25</title>
<g id="a_edge95_Node000001_Node000025"><a xlink:title=" ">
<path fill="none" stroke="#63b8ff" d="M746.44,-235.52C709.83,-227.23 655.26,-214.64 598.91,-200.45"/>
<polygon fill="#63b8ff" stroke="#63b8ff" points="600.02,-197.12 589.47,-198.06 598.3,-203.91 600.02,-197.12"/>
</a>
</g>
</g>
<!-- Node26 -->
<g id="Node000026" class="node">
<title>Node26</title>
<g id="a_Node000026"><a xlink:title=" ">
<polygon fill="#e0e0e0" stroke="#999999" points="658.25,-200 605.5,-200 605.5,-180 658.25,-180 658.25,-200"/>
<text xml:space="preserve" text-anchor="middle" x="631.88" y="-186.5" font-family="Helvetica,sans-Serif" font-size="10.00">malloc.h</text>
</a>
</g>
</g>
<!-- Node1&#45;&gt;Node26 -->
<g id="edge96_Node000001_Node000026" class="edge">
<title>Node1&#45;&gt;Node26</title>
<g id="a_edge96_Node000001_Node000026"><a xlink:title=" ">
<path fill="none" stroke="#63b8ff" d="M761.53,-235.59C736.01,-226.82 697.72,-213.65 669.36,-203.89"/>
<polygon fill="#63b8ff" stroke="#63b8ff" points="670.67,-200.64 660.08,-200.7 668.4,-207.26 670.67,-200.64"/>
</a>
</g>
</g>
<!-- Node27 -->
<g id="Node000027" class="node">
<title>Node27</title>
<g id="a_Node000027"><a xlink:href="$main_8h.html" xlink:title=" ">
<polygon fill="white" stroke="#666666" points="215.5,-144 170.25,-144 170.25,-124 215.5,-124 215.5,-144"/>
<text xml:space="preserve" text-anchor="middle" x="192.88" y="-130.5" font-family="Helvetica,sans-Serif" font-size="10.00">main.h</text>
</a>
</g>
</g>
<!-- Node1&#45;&gt;Node27 -->
<g id="edge97_Node000001_Node000027" class="edge">
<title>Node1&#45;&gt;Node27</title>
<g id="a_edge97_Node000001_Node000027"><a xlink:title=" ">
<path fill="none" stroke="#63b8ff" d="M732.96,-235.53C680.67,-226.61 600.42,-212.75 530.88,-200 419.57,-179.59 287.98,-153.81 227.02,-141.77"/>
<polygon fill="#63b8ff" stroke="#63b8ff" points="227.77,-138.35 217.28,-139.84 226.42,-145.22 227.77,-138.35"/>
</a>
</g>
</g>
<!-- Node28 -->
<g id="Node000028" class="node">
<title>Node28</title>
<g id="a_Node000028"><a xlink:title=" ">
<polygon fill="#e0e0e0" stroke="#999999" points="772.25,-200 713.5,-200 713.5,-180 772.25,-180 772.25,-200"/>
<text xml:space="preserve" text-anchor="middle" x="742.88" y="-186.5" font-family="Helvetica,sans-Serif" font-size="10.00">memory.h</text>
</a>
</g>
</g>
<!-- Node1&#45;&gt;Node28 -->
<g id="edge99_Node000001_Node000028" class="edge">
<title>Node1&#45;&gt;Node28</title>
<g id="a_edge99_Node000001_Node000028"><a xlink:title=" ">
<path fill="none" stroke="#63b8ff" d="M780.86,-235.59C774.6,-228.24 765.7,-217.8 758.09,-208.87"/>
<polygon fill="#63b8ff" stroke="#63b8ff" points="760.93,-206.79 751.78,-201.45 755.6,-211.33 760.93,-206.79"/>
</a>
</g>
</g>
<!-- Node29 -->
<g id="Node000029" class="node">
<title>Node29</title>
<g id="a_Node000029"><a xlink:title=" ">
<polygon fill="#e0e0e0" stroke="#999999" points="881.38,-200 790.38,-200 790.38,-180 881.38,-180 881.38,-200"/>
<text xml:space="preserve" text-anchor="middle" x="835.88" y="-186.5" font-family="Helvetica,sans-Serif" font-size="10.00">hardware/interp.h</text>
</a>
</g>
</g>
<!-- Node1&#45;&gt;Node29 -->
<g id="edge100_Node000001_Node000029" class="edge">
<title>Node1&#45;&gt;Node29</title>
<g id="a_edge100_Node000001_Node000029"><a xlink:title=" ">
<path fill="none" stroke="#63b8ff" d="M797.06,-235.59C803.46,-228.24 812.55,-217.8 820.33,-208.87"/>
<polygon fill="#63b8ff" stroke="#63b8ff" points="822.86,-211.28 826.79,-201.44 817.58,-206.69 822.86,-211.28"/>
</a>
</g>
</g>
<!-- Node30 -->
<g id="Node000030" class="node">
<title>Node30</title>
<g id="a_Node000030"><a xlink:title=" ">
<polygon fill="#e0e0e0" stroke="#999999" points="945.88,-200 899.88,-200 899.88,-180 945.88,-180 945.88,-200"/>
<text xml:space="preserve" text-anchor="middle" x="922.88" y="-186.5" font-family="Helvetica,sans-Serif" font-size="10.00">math.h</text>
</a>
</g>
</g>
<!-- Node1&#45;&gt;Node30 -->
<g id="edge101_Node000001_Node000030" class="edge">
<title>Node1&#45;&gt;Node30</title>
<g id="a_edge101_Node000001_Node000030"><a xlink:title=" ">
<path fill="none" stroke="#63b8ff" d="M812.22,-235.59C833.54,-227 865.33,-214.19 889.37,-204.5"/>
<polygon fill="#63b8ff" stroke="#63b8ff" points="890.43,-207.85 898.4,-200.86 887.81,-201.36 890.43,-207.85"/>
</a>
</g>
</g>
<!-- Node31 -->
<g id="Node000031" class="node">
<title>Node31</title>
<g id="a_Node000031"><a xlink:href="$tinyengine__sprite_8h.html" xlink:title=" ">
<polygon fill="white" stroke="#666666" points="1061.75,-200 964,-200 964,-180 1061.75,-180 1061.75,-200"/>
<text xml:space="preserve" text-anchor="middle" x="1012.88" y="-186.5" font-family="Helvetica,sans-Serif" font-size="10.00">tinyengine_sprite.h</text>
</a>
</g>
</g>
<!-- Node1&#45;&gt;Node31 -->
<g id="edge102_Node000001_Node000031" class="edge">
<title>Node1&#45;&gt;Node31</title>
<g id="a_edge102_Node000001_Node000031"><a xlink:title=" ">
<path fill="none" stroke="#63b8ff" d="M828.15,-235.53C865.54,-226.52 921.98,-212.91 962.63,-203.11"/>
<polygon fill="#63b8ff" stroke="#63b8ff" points="963.27,-206.56 972.17,-200.81 961.63,-199.75 963.27,-206.56"/>
</a>
</g>
</g>
<!-- Node32 -->
<g id="Node000032" class="node">
<title>Node32</title>
<g id="a_Node000032"><a xlink:href="$font_8h.html" xlink:title=" ">
<polygon fill="white" stroke="#666666" points="1120.25,-200 1079.5,-200 1079.5,-180 1120.25,-180 1120.25,-200"/>
<text xml:space="preserve" text-anchor="middle" x="1099.88" y="-186.5" font-family="Helvetica,sans-Serif" font-size="10.00">font.h</text>
</a>
</g>
</g>
<!-- Node1&#45;&gt;Node32 -->
<g id="edge104_Node000001_Node000032" class="edge">
<title>Node1&#45;&gt;Node32</title>
<g id="a_edge104_Node000001_Node000032"><a xlink:title=" ">
<path fill="none" stroke="#63b8ff" d="M863.95,-235.99C918.42,-228.77 993.99,-217.35 1068.14,-200.39"/>
<polygon fill="#63b8ff" stroke="#63b8ff" points="1068.64,-203.87 1077.59,-198.19 1067.06,-197.05 1068.64,-203.87"/>
</a>
</g>
</g>
<!-- Node33 -->
<g id="Node000033" class="node">
<title>Node33</title>
<g id="a_Node000033"><a xlink:href="$renew__font_8h.html" xlink:title=" ">
<polygon fill="white" stroke="#666666" points="1211,-200 1138.75,-200 1138.75,-180 1211,-180 1211,-200"/>
<text xml:space="preserve" text-anchor="middle" x="1174.88" y="-186.5" font-family="Helvetica,sans-Serif" font-size="10.00">renew_font.h</text>
</a>
</g>
</g>
<!-- Node1&#45;&gt;Node33 -->
<g id="edge105_Node000001_Node000033" class="edge">
<title>Node1&#45;&gt;Node33</title>
<g id="a_edge105_Node000001_Node000033"><a xlink:title=" ">
<path fill="none" stroke="#63b8ff" d="M864.02,-236.4C930.49,-228.49 1030.35,-215.86 1127.08,-200.2"/>
<polygon fill="#63b8ff" stroke="#63b8ff" points="1127.45,-203.69 1136.76,-198.62 1126.33,-196.78 1127.45,-203.69"/>
</a>
</g>
</g>
<!-- Node3 -->
<g id="Node000003" class="node">
<title>Node3</title>
<g id="a_Node000003"><a xlink:href="$tinyengine_8h.html" xlink:title=" ">
<polygon fill="white" stroke="#666666" points="1047.12,-88 978.62,-88 978.62,-68 1047.12,-68 1047.12,-88"/>
<text xml:space="preserve" text-anchor="middle" x="1012.88" y="-74.5" font-family="Helvetica,sans-Serif" font-size="10.00">tinyengine.h</text>
</a>
</g>
</g>
<!-- Node2&#45;&gt;Node3 -->
<g id="edge72_Node000002_Node000003" class="edge">
<title>Node2&#45;&gt;Node3</title>
<g id="a_edge72_Node000002_Node000003"><a xlink:title=" ">
<path fill="none" stroke="#63b8ff" d="M1007.61,-123.59C1006.29,-117.01 1005.85,-107.96 1006.29,-99.73"/>
<polygon fill="#63b8ff" stroke="#63b8ff" points="1009.77,-100.14 1007.45,-89.8 1002.81,-99.33 1009.77,-100.14"/>
</a>
</g>
</g>
<!-- Node3&#45;&gt;Node2 -->
<g id="edge94_Node000003_Node000002" class="edge">
<title>Node3&#45;&gt;Node2</title>
<g id="a_edge94_Node000003_Node000002"><a xlink:title=" ">
<path fill="none" stroke="#63b8ff" d="M1018.12,-88.3C1019.46,-94.93 1019.91,-104.11 1019.45,-112.43"/>
<polygon fill="#63b8ff" stroke="#63b8ff" points="1016.01,-111.75 1018.32,-122.09 1022.96,-112.57 1016.01,-111.75"/>
</a>
</g>
</g>
<!-- Node4 -->
<g id="Node000004" class="node">
<title>Node4</title>
<g id="a_Node000004"><a xlink:title=" ">
<polygon fill="#e0e0e0" stroke="#999999" points="2179.12,-26 2110.62,-26 2110.62,-6 2179.12,-6 2179.12,-26"/>
<text xml:space="preserve" text-anchor="middle" x="2144.88" y="-12.5" font-family="Helvetica,sans-Serif" font-size="10.00">pico/stdlib.h</text>
</a>
</g>
</g>
<!-- Node3&#45;&gt;Node4 -->
<g id="edge73_Node000003_Node000004" class="edge">
<title>Node3&#45;&gt;Node4</title>
<g id="a_edge73_Node000003_Node000004"><a xlink:title=" ">
<path fill="none" stroke="#63b8ff" d="M1047.45,-76.94C1209.25,-76.43 1892.65,-71.91 2101.88,-32 2104.9,-31.42 2108,-30.67 2111.09,-29.82"/>
<polygon fill="#63b8ff" stroke="#63b8ff" points="2112.08,-33.17 2120.57,-26.83 2109.98,-26.5 2112.08,-33.17"/>
</a>
</g>
</g>
<!-- Node5 -->
<g id="Node000005" class="node">
<title>Node5</title>
<g id="a_Node000005"><a xlink:title=" ">
<polygon fill="#e0e0e0" stroke="#999999" points="143.5,-26 98.25,-26 98.25,-6 143.5,-6 143.5,-26"/>
<text xml:space="preserve" text-anchor="middle" x="120.88" y="-12.5" font-family="Helvetica,sans-Serif" font-size="10.00">stdio.h</text>
</a>
</g>
</g>
<!-- Node3&#45;&gt;Node5 -->
<g id="edge74_Node000003_Node000005" class="edge">
<title>Node3&#45;&gt;Node5</title>
<g id="a_edge74_Node000003_Node000005"><a xlink:title=" ">
<path fill="none" stroke="#63b8ff" d="M978.51,-76.96C838.8,-76.52 313.32,-72.17 152.88,-32 151.28,-31.6 149.66,-31.12 148.05,-30.58"/>
<polygon fill="#63b8ff" stroke="#63b8ff" points="149.68,-27.46 139.1,-26.93 147.04,-33.95 149.68,-27.46"/>
</a>
</g>
</g>
<!-- Node6 -->
<g id="Node000006" class="node">
<title>Node6</title>
<g id="a_Node000006"><a xlink:title=" ">
<polygon fill="#e0e0e0" stroke="#999999" points="79.75,-26 0,-26 0,-6 79.75,-6 79.75,-26"/>
<text xml:space="preserve" text-anchor="middle" x="39.88" y="-12.5" font-family="Helvetica,sans-Serif" font-size="10.00">hardware/spi.h</text>
</a>
</g>
</g>
<!-- Node3&#45;&gt;Node6 -->
<g id="edge75_Node000003_Node000006" class="edge">
<title>Node3&#45;&gt;Node6</title>
<g id="a_edge75_Node000003_Node000006"><a xlink:title=" ">
<path fill="none" stroke="#63b8ff" d="M978.59,-76.47C832.94,-74.04 264.89,-62.73 88.88,-32 85.08,-31.34 81.16,-30.47 77.28,-29.48"/>
<polygon fill="#63b8ff" stroke="#63b8ff" points="78.57,-26.21 68,-26.88 76.68,-32.95 78.57,-26.21"/>
</a>
</g>
</g>
<!-- Node7 -->
<g id="Node000007" class="node">
<title>Node7</title>
<g id="a_Node000007"><a xlink:title=" ">
<polygon fill="#e0e0e0" stroke="#999999" points="210,-26 161.75,-26 161.75,-6 210,-6 210,-26"/>
<text xml:space="preserve" text-anchor="middle" x="185.88" y="-12.5" font-family="Helvetica,sans-Serif" font-size="10.00">stdint.h</text>
</a>
</g>
</g>
<!-- Node3&#45;&gt;Node7 -->
<g id="edge76_Node000003_Node000007" class="edge">
<title>Node3&#45;&gt;Node7</title>
<g id="a_edge76_Node000003_Node000007"><a xlink:title=" ">
<path fill="none" stroke="#63b8ff" d="M978.48,-76.73C845.65,-75.44 366.17,-68.3 218.88,-32 217.23,-31.6 215.57,-31.11 213.91,-30.57"/>
<polygon fill="#63b8ff" stroke="#63b8ff" points="215.25,-27.33 204.66,-26.9 212.67,-33.84 215.25,-27.33"/>
</a>
</g>
</g>
<!-- Node8 -->
<g id="Node000008" class="node">
<title>Node8</title>
<g id="a_Node000008"><a xlink:href="$tinyengine__scene_8h.html" xlink:title=" ">
<polygon fill="white" stroke="#666666" points="327.88,-26 227.88,-26 227.88,-6 327.88,-6 327.88,-26"/>
<text xml:space="preserve" text-anchor="middle" x="277.88" y="-12.5" font-family="Helvetica,sans-Serif" font-size="10.00">tinyengine_scene.h</text>
</a>
</g>
</g>
<!-- Node3&#45;&gt;Node8 -->
<g id="edge77_Node000003_Node000008" class="edge">
<title>Node3&#45;&gt;Node8</title>
<g id="a_edge77_Node000003_Node000008"><a xlink:title=" ">
<path fill="none" stroke="#63b8ff" d="M978.15,-76.92C878.01,-76.2 580.23,-70.7 336.88,-32 331.93,-31.21 326.79,-30.2 321.7,-29.08"/>
<polygon fill="#63b8ff" stroke="#63b8ff" points="322.74,-25.73 312.2,-26.83 321.13,-32.54 322.74,-25.73"/>
</a>
</g>
</g>
<!-- Node9 -->
<g id="Node000009" class="node">
<title>Node9</title>
<g id="a_Node000009"><a xlink:title=" ">
<polygon fill="#e0e0e0" stroke="#999999" points="428.25,-26 345.5,-26 345.5,-6 428.25,-6 428.25,-26"/>
<text xml:space="preserve" text-anchor="middle" x="386.88" y="-12.5" font-family="Helvetica,sans-Serif" font-size="10.00">unordered_map</text>
</a>
</g>
</g>
<!-- Node3&#45;&gt;Node9 -->
<g id="edge78_Node000003_Node000009" class="edge">
<title>Node3&#45;&gt;Node9</title>
<g id="a_edge78_Node000003_Node000009"><a xlink:title=" ">
<path fill="none" stroke="#63b8ff" d="M978.2,-76.79C888.24,-75.7 640.24,-69.26 437.88,-32 434.04,-31.29 430.08,-30.41 426.14,-29.43"/>
<polygon fill="#63b8ff" stroke="#63b8ff" points="427.24,-26.1 416.67,-26.87 425.41,-32.86 427.24,-26.1"/>
</a>
</g>
</g>
<!-- Node10 -->
<g id="Node000010" class="node">
<title>Node10</title>
<g id="a_Node000010"><a xlink:title=" ">
<polygon fill="#e0e0e0" stroke="#999999" points="523.25,-26 446.5,-26 446.5,-6 523.25,-6 523.25,-26"/>
<text xml:space="preserve" text-anchor="middle" x="484.88" y="-12.5" font-family="Helvetica,sans-Serif" font-size="10.00">hardware/pll.h</text>
</a>
</g>
</g>
<!-- Node3&#45;&gt;Node10 -->
<g id="edge79_Node000003_Node000010" class="edge">
<title>Node3&#45;&gt;Node10</title>
<g id="a_edge79_Node000003_Node000010"><a xlink:title=" ">
<path fill="none" stroke="#63b8ff" d="M978.39,-76.32C898.87,-74.19 696.85,-65.63 531.88,-32 528.54,-31.32 525.11,-30.49 521.69,-29.57"/>
<polygon fill="#63b8ff" stroke="#63b8ff" points="522.99,-26.31 512.41,-26.85 521.02,-33.02 522.99,-26.31"/>
</a>
</g>
</g>
<!-- Node11 -->
<g id="Node000011" class="node">
<title>Node11</title>
<g id="a_Node000011"><a xlink:title=" ">
<polygon fill="#e0e0e0" stroke="#999999" points="626.75,-26 541,-26 541,-6 626.75,-6 626.75,-26"/>
<text xml:space="preserve" text-anchor="middle" x="583.88" y="-12.5" font-family="Helvetica,sans-Serif" font-size="10.00">hardware/vreg.h</text>
</a>
</g>
</g>
<!-- Node3&#45;&gt;Node11 -->
<g id="edge80_Node000003_Node000011" class="edge">
<title>Node3&#45;&gt;Node11</title>
<g id="a_edge80_Node000003_Node000011"><a xlink:title=" ">
<path fill="none" stroke="#63b8ff" d="M978.27,-74.75C911.52,-70.01 760.56,-57.25 635.88,-32 632.24,-31.26 628.48,-30.4 624.74,-29.46"/>
<polygon fill="#63b8ff" stroke="#63b8ff" points="625.67,-26.08 615.1,-26.88 623.86,-32.85 625.67,-26.08"/>
</a>
</g>
</g>
<!-- Node12 -->
<g id="Node000012" class="node">
<title>Node12</title>
<g id="a_Node000012"><a xlink:title=" ">
<polygon fill="#e0e0e0" stroke="#999999" points="740.62,-26 645.12,-26 645.12,-6 740.62,-6 740.62,-26"/>
<text xml:space="preserve" text-anchor="middle" x="692.88" y="-12.5" font-family="Helvetica,sans-Serif" font-size="10.00">hardware/clocks.h</text>
</a>
</g>
</g>
<!-- Node3&#45;&gt;Node12 -->
<g id="edge81_Node000003_Node000012" class="edge">
<title>Node3&#45;&gt;Node12</title>
<g id="a_edge81_Node000003_Node000012"><a xlink:title=" ">
<path fill="none" stroke="#63b8ff" d="M978.23,-72.06C927.74,-64.65 831.14,-49.61 749.88,-32 745.89,-31.14 741.77,-30.18 737.64,-29.18"/>
<polygon fill="#63b8ff" stroke="#63b8ff" points="738.84,-25.87 728.28,-26.82 737.13,-32.66 738.84,-25.87"/>
</a>
</g>
</g>
<!-- Node13 -->
<g id="Node000013" class="node">
<title>Node13</title>
<g id="a_Node000013"><a xlink:title=" ">
<polygon fill="#e0e0e0" stroke="#999999" points="868.75,-26 759,-26 759,-6 868.75,-6 868.75,-26"/>
<text xml:space="preserve" text-anchor="middle" x="813.88" y="-12.5" font-family="Helvetica,sans-Serif" font-size="10.00">hardware/structs/pll.h</text>
</a>
</g>
</g>
<!-- Node3&#45;&gt;Node13 -->
<g id="edge82_Node000003_Node000013" class="edge">
<title>Node3&#45;&gt;Node13</title>
<g id="a_edge82_Node000003_Node000013"><a xlink:title=" ">
<path fill="none" stroke="#63b8ff" d="M981.78,-67.62C947.85,-57.4 893.36,-40.97 855.7,-29.61"/>
<polygon fill="#63b8ff" stroke="#63b8ff" points="857.11,-26.38 846.53,-26.84 855.09,-33.08 857.11,-26.38"/>
</a>
</g>
</g>
<!-- Node14 -->
<g id="Node000014" class="node">
<title>Node14</title>
<g id="a_Node000014"><a xlink:title=" ">
<polygon fill="#e0e0e0" stroke="#999999" points="1015.12,-26 886.62,-26 886.62,-6 1015.12,-6 1015.12,-26"/>
<text xml:space="preserve" text-anchor="middle" x="950.88" y="-12.5" font-family="Helvetica,sans-Serif" font-size="10.00">hardware/structs/clocks.h</text>
</a>
</g>
</g>
<!-- Node3&#45;&gt;Node14 -->
<g id="edge83_Node000003_Node000014" class="edge">
<title>Node3&#45;&gt;Node14</title>
<g id="a_edge83_Node000003_Node000014"><a xlink:title=" ">
<path fill="none" stroke="#63b8ff" d="M1003.19,-67.62C993.94,-58.68 979.8,-44.99 968.55,-34.1"/>
<polygon fill="#63b8ff" stroke="#63b8ff" points="971,-31.6 961.38,-27.17 966.13,-36.63 971,-31.6"/>
</a>
</g>
</g>
<!-- Node15 -->
<g id="Node000015" class="node">
<title>Node15</title>
<g id="a_Node000015"><a xlink:title=" ">
<polygon fill="#e0e0e0" stroke="#999999" points="1118.75,-26 1033,-26 1033,-6 1118.75,-6 1118.75,-26"/>
<text xml:space="preserve" text-anchor="middle" x="1075.88" y="-12.5" font-family="Helvetica,sans-Serif" font-size="10.00">hardware/dma.h</text>
</a>
</g>
</g>
<!-- Node3&#45;&gt;Node15 -->
<g id="edge84_Node000003_Node000015" class="edge">
<title>Node3&#45;&gt;Node15</title>
<g id="a_edge84_Node000003_Node000015"><a xlink:title=" ">
<path fill="none" stroke="#63b8ff" d="M1022.72,-67.62C1032.21,-58.59 1046.77,-44.72 1058.26,-33.78"/>
<polygon fill="#63b8ff" stroke="#63b8ff" points="1060.38,-36.59 1065.21,-27.16 1055.56,-31.52 1060.38,-36.59"/>
</a>
</g>
</g>
<!-- Node16 -->
<g id="Node000016" class="node">
<title>Node16</title>
<g id="a_Node000016"><a xlink:title=" ">
<polygon fill="#e0e0e0" stroke="#999999" points="1221.38,-26 1136.38,-26 1136.38,-6 1221.38,-6 1221.38,-26"/>
<text xml:space="preserve" text-anchor="middle" x="1178.88" y="-12.5" font-family="Helvetica,sans-Serif" font-size="10.00">hardware/gpio.h</text>
</a>
</g>
</g>
<!-- Node3&#45;&gt;Node16 -->
<g id="edge85_Node000003_Node000016" class="edge">
<title>Node3&#45;&gt;Node16</title>
<g id="a_edge85_Node000003_Node000016"><a xlink:title=" ">
<path fill="none" stroke="#63b8ff" d="M1038.81,-67.62C1066.63,-57.57 1111.01,-41.53 1142.35,-30.2"/>
<polygon fill="#63b8ff" stroke="#63b8ff" points="1143.21,-33.61 1151.42,-26.92 1140.83,-27.03 1143.21,-33.61"/>
</a>
</g>
</g>
<!-- Node17 -->
<g id="Node000017" class="node">
<title>Node17</title>
<g id="a_Node000017"><a xlink:title=" ">
<polygon fill="#e0e0e0" stroke="#999999" points="1316.62,-26 1239.12,-26 1239.12,-6 1316.62,-6 1316.62,-26"/>
<text xml:space="preserve" text-anchor="middle" x="1277.88" y="-12.5" font-family="Helvetica,sans-Serif" font-size="10.00">hardware/irq.h</text>
</a>
</g>
</g>
<!-- Node3&#45;&gt;Node17 -->
<g id="edge86_Node000003_Node000017" class="edge">
<title>Node3&#45;&gt;Node17</title>
<g id="a_edge86_Node000003_Node000017"><a xlink:title=" ">
<path fill="none" stroke="#63b8ff" d="M1047.49,-71.02C1090.71,-63.29 1166.76,-48.8 1230.88,-32 1233.63,-31.28 1236.46,-30.49 1239.3,-29.67"/>
<polygon fill="#63b8ff" stroke="#63b8ff" points="1240.18,-33.06 1248.73,-26.81 1238.15,-26.36 1240.18,-33.06"/>
</a>
</g>
</g>
<!-- Node18 -->
<g id="Node000018" class="node">
<title>Node18</title>
<g id="a_Node000018"><a xlink:title=" ">
<polygon fill="#e0e0e0" stroke="#999999" points="1442.62,-32 1335.12,-32 1335.12,0 1442.62,0 1442.62,-32"/>
<text xml:space="preserve" text-anchor="start" x="1343.12" y="-18.5" font-family="Helvetica,sans-Serif" font-size="10.00">hardware/structs/bus</text>
<text xml:space="preserve" text-anchor="middle" x="1388.88" y="-6.5" font-family="Helvetica,sans-Serif" font-size="10.00">_ctrl.h</text>
</a>
</g>
</g>
<!-- Node3&#45;&gt;Node18 -->
<g id="edge87_Node000003_Node000018" class="edge">
<title>Node3&#45;&gt;Node18</title>
<g id="a_edge87_Node000003_Node000018"><a xlink:title=" ">
<path fill="none" stroke="#63b8ff" d="M1047.32,-73.09C1103.17,-66.52 1217.16,-52.19 1323.4,-32.37"/>
<polygon fill="#63b8ff" stroke="#63b8ff" points="1323.98,-35.82 1333.16,-30.52 1322.68,-28.94 1323.98,-35.82"/>
</a>
</g>
</g>
<!-- Node19 -->
<g id="Node000019" class="node">
<title>Node19</title>
<g id="a_Node000019"><a xlink:title=" ">
<polygon fill="#e0e0e0" stroke="#999999" points="1571.12,-32 1460.62,-32 1460.62,0 1571.12,0 1571.12,-32"/>
<text xml:space="preserve" text-anchor="start" x="1468.62" y="-18.5" font-family="Helvetica,sans-Serif" font-size="10.00">hardware/structs/hstx</text>
<text xml:space="preserve" text-anchor="middle" x="1515.88" y="-6.5" font-family="Helvetica,sans-Serif" font-size="10.00">_ctrl.h</text>
</a>
</g>
</g>
<!-- Node3&#45;&gt;Node19 -->
<g id="edge88_Node000003_Node000019" class="edge">
<title>Node3&#45;&gt;Node19</title>
<g id="a_edge88_Node000003_Node000019"><a xlink:title=" ">
<path fill="none" stroke="#63b8ff" d="M1047.51,-74.96C1120.18,-70.37 1294.05,-57.68 1449.31,-32.3"/>
<polygon fill="#63b8ff" stroke="#63b8ff" points="1449.67,-35.78 1458.97,-30.69 1448.53,-28.88 1449.67,-35.78"/>
</a>
</g>
</g>
<!-- Node20 -->
<g id="Node000020" class="node">
<title>Node20</title>
<g id="a_Node000020"><a xlink:title=" ">
<polygon fill="#e0e0e0" stroke="#999999" points="1700.12,-32 1589.62,-32 1589.62,0 1700.12,0 1700.12,-32"/>
<text xml:space="preserve" text-anchor="start" x="1597.62" y="-18.5" font-family="Helvetica,sans-Serif" font-size="10.00">hardware/structs/hstx</text>
<text xml:space="preserve" text-anchor="middle" x="1644.88" y="-6.5" font-family="Helvetica,sans-Serif" font-size="10.00">_fifo.h</text>
</a>
</g>
</g>
<!-- Node3&#45;&gt;Node20 -->
<g id="edge89_Node000003_Node000020" class="edge">
<title>Node3&#45;&gt;Node20</title>
<g id="a_edge89_Node000003_Node000020"><a xlink:title=" ">
<path fill="none" stroke="#63b8ff" d="M1047.6,-76.03C1135.01,-73.2 1371.3,-63.21 1578.23,-32.08"/>
<polygon fill="#63b8ff" stroke="#63b8ff" points="1578.46,-35.59 1587.81,-30.62 1577.4,-28.67 1578.46,-35.59"/>
</a>
</g>
</g>
<!-- Node21 -->
<g id="Node000021" class="node">
<title>Node21</title>
<g id="a_Node000021"><a xlink:title=" ">
<polygon fill="#e0e0e0" stroke="#999999" points="1831.25,-26 1718.5,-26 1718.5,-6 1831.25,-6 1831.25,-26"/>
<text xml:space="preserve" text-anchor="middle" x="1774.88" y="-12.5" font-family="Helvetica,sans-Serif" font-size="10.00">hardware/structs/sio.h</text>
</a>
</g>
</g>
<!-- Node3&#45;&gt;Node21 -->
<g id="edge90_Node000003_Node000021" class="edge">
<title>Node3&#45;&gt;Node21</title>
<g id="a_edge90_Node000003_Node000021"><a xlink:title=" ">
<path fill="none" stroke="#63b8ff" d="M1047.48,-76.7C1149.36,-75.41 1456.93,-68.54 1708.88,-32 1714.83,-31.14 1721.05,-30.02 1727.19,-28.78"/>
<polygon fill="#63b8ff" stroke="#63b8ff" points="1727.54,-32.28 1736.59,-26.77 1726.08,-25.44 1727.54,-32.28"/>
</a>
</g>
</g>
<!-- Node22 -->
<g id="Node000022" class="node">
<title>Node22</title>
<g id="a_Node000022"><a xlink:title=" ">
<polygon fill="#e0e0e0" stroke="#999999" points="1934.38,-26 1849.38,-26 1849.38,-6 1934.38,-6 1934.38,-26"/>
<text xml:space="preserve" text-anchor="middle" x="1891.88" y="-12.5" font-family="Helvetica,sans-Serif" font-size="10.00">pico/multicore.h</text>
</a>
</g>
</g>
<!-- Node3&#45;&gt;Node22 -->
<g id="edge91_Node000003_Node000022" class="edge">
<title>Node3&#45;&gt;Node22</title>
<g id="a_edge91_Node000003_Node000022"><a xlink:title=" ">
<path fill="none" stroke="#63b8ff" d="M1047.62,-76.16C1184.12,-72.69 1683.75,-58.41 1839.88,-32 1844.01,-31.3 1848.28,-30.39 1852.52,-29.36"/>
<polygon fill="#63b8ff" stroke="#63b8ff" points="1853.31,-32.77 1862.07,-26.82 1851.51,-26.01 1853.31,-32.77"/>
</a>
</g>
</g>
<!-- Node23 -->
<g id="Node000023" class="node">
<title>Node23</title>
<g id="a_Node000023"><a xlink:title=" ">
<polygon fill="#e0e0e0" stroke="#999999" points="2016.88,-26 1952.88,-26 1952.88,-6 2016.88,-6 2016.88,-26"/>
<text xml:space="preserve" text-anchor="middle" x="1984.88" y="-12.5" font-family="Helvetica,sans-Serif" font-size="10.00">pico/sem.h</text>
</a>
</g>
</g>
<!-- Node3&#45;&gt;Node23 -->
<g id="edge92_Node000003_Node000023" class="edge">
<title>Node3&#45;&gt;Node23</title>
<g id="a_edge92_Node000003_Node000023"><a xlink:title=" ">
<path fill="none" stroke="#63b8ff" d="M1047.47,-76.72C1194.41,-75.33 1767.42,-67.68 1943.88,-32 1946.67,-31.43 1949.53,-30.71 1952.37,-29.89"/>
<polygon fill="#63b8ff" stroke="#63b8ff" points="1953.26,-33.28 1961.66,-26.82 1951.07,-26.63 1953.26,-33.28"/>
</a>
</g>
</g>
<!-- Node24 -->
<g id="Node000024" class="node">
<title>Node24</title>
<g id="a_Node000024"><a xlink:title=" ">
<polygon fill="#e0e0e0" stroke="#999999" points="2092.88,-26 2034.88,-26 2034.88,-6 2092.88,-6 2092.88,-26"/>
<text xml:space="preserve" text-anchor="middle" x="2063.88" y="-12.5" font-family="Helvetica,sans-Serif" font-size="10.00">functional</text>
</a>
</g>
</g>
<!-- Node3&#45;&gt;Node24 -->
<g id="edge93_Node000003_Node000024" class="edge">
<title>Node3&#45;&gt;Node24</title>
<g id="a_edge93_Node000003_Node000024"><a xlink:title=" ">
<path fill="none" stroke="#63b8ff" d="M1047.62,-76.99C1202.79,-76.73 1833.15,-73.11 2025.88,-32 2028.21,-31.5 2030.58,-30.88 2032.94,-30.17"/>
<polygon fill="#63b8ff" stroke="#63b8ff" points="2034.05,-33.49 2042.32,-26.88 2031.73,-26.88 2034.05,-33.49"/>
</a>
</g>
</g>
<!-- Node27&#45;&gt;Node6 -->
<g id="edge98_Node000027_Node000006" class="edge">
<title>Node27&#45;&gt;Node6</title>
<g id="a_edge98_Node000027_Node000006"><a xlink:title=" ">
<path fill="none" stroke="#63b8ff" d="M180.35,-123.51C154.22,-103.7 93.63,-57.76 61.22,-33.19"/>
<polygon fill="#63b8ff" stroke="#63b8ff" points="63.43,-30.47 53.35,-27.21 59.2,-36.04 63.43,-30.47"/>
</a>
</g>
</g>
<!-- Node31&#45;&gt;Node2 -->
<g id="edge103_Node000031_Node000002" class="edge">
<title>Node31&#45;&gt;Node2</title>
<g id="a_edge103_Node000031_Node000002"><a xlink:title=" ">
<path fill="none" stroke="#63b8ff" d="M1012.88,-179.59C1012.88,-173.01 1012.88,-163.96 1012.88,-155.73"/>
<polygon fill="#63b8ff" stroke="#63b8ff" points="1016.38,-155.81 1012.88,-145.81 1009.38,-155.81 1016.38,-155.81"/>
</a>
</g>
</g>
</g>
</svg>
