<?xml version="1.0" encoding="UTF-8" standalone="no"?>
<!DOCTYPE svg PUBLIC "-//W3C//DTD SVG 1.1//EN"
 "http://www.w3.org/Graphics/SVG/1.1/DTD/svg11.dtd">
<!-- Generated by graphviz version 13.1.2 (20250808.2320)
 -->
<!-- Title: src/tinyengine_scene_default.cpp Pages: 1 -->
<svg width="143pt" height="152pt"
 viewBox="0.00 0.00 143.00 152.00" xmlns="http://www.w3.org/2000/svg" xmlns:xlink="http://www.w3.org/1999/xlink">
<g id="graph0" class="graph" transform="scale(1 1) rotate(0) translate(4 148)">
<title>src/tinyengine_scene_default.cpp</title>
<!-- Node1 -->
<g id="Node000001" class="node">
<title>Node1</title>
<g id="a_Node000001"><a xlink:title=" ">
<polygon fill="#999999" stroke="#666666" points="121.38,-144 13.12,-144 13.12,-112 121.38,-112 121.38,-144"/>
<text xml:space="preserve" text-anchor="start" x="21.12" y="-130.5" font-family="Helvetica,sans-Serif" font-size="10.00">src/tinyengine_scene</text>
<text xml:space="preserve" text-anchor="middle" x="67.25" y="-118.5" font-family="Helvetica,sans-Serif" font-size="10.00">_default.cpp</text>
</a>
</g>
</g>
<!-- Node2 -->
<g id="Node000002" class="node">
<title>Node2</title>
<g id="a_Node000002"><a xlink:href="$tinyengine__scene__default_8h.html" xlink:title=" ">
<polygon fill="white" stroke="#666666" points="134.5,-76 0,-76 0,-56 134.5,-56 134.5,-76"/>
<text xml:space="preserve" text-anchor="middle" x="67.25" y="-62.5" font-family="Helvetica,sans-Serif" font-size="10.00">tinyengine_scene_default.h</text>
</a>
</g>
</g>
<!-- Node1&#45;&gt;Node2 -->
<g id="edge5_Node000001_Node000002" class="edge">
<title>Node1&#45;&gt;Node2</title>
<g id="a_edge5_Node000001_Node000002"><a xlink:title=" ">
<path fill="none" stroke="#63b8ff" d="M67.25,-111.55C67.25,-104.34 67.25,-95.66 67.25,-87.88"/>
<polygon fill="#63b8ff" stroke="#63b8ff" points="70.75,-87.92 67.25,-77.92 63.75,-87.92 70.75,-87.92"/>
</a>
</g>
</g>
<!-- Node3 -->
<g id="Node000003" class="node">
<title>Node3</title>
<g id="a_Node000003"><a xlink:href="$tinyengine__scene_8h.html" xlink:title=" ">
<polygon fill="white" stroke="#666666" points="117.25,-20 17.25,-20 17.25,0 117.25,0 117.25,-20"/>
<text xml:space="preserve" text-anchor="middle" x="67.25" y="-6.5" font-family="Helvetica,sans-Serif" font-size="10.00">tinyengine_scene.h</text>
</a>
</g>
</g>
<!-- Node2&#45;&gt;Node3 -->
<g id="edge6_Node000002_Node000003" class="edge">
<title>Node2&#45;&gt;Node3</title>
<g id="a_edge6_Node000002_Node000003"><a xlink:title=" ">
<path fill="none" stroke="#63b8ff" d="M67.25,-55.59C67.25,-49.01 67.25,-39.96 67.25,-31.73"/>
<polygon fill="#63b8ff" stroke="#63b8ff" points="70.75,-31.81 67.25,-21.81 63.75,-31.81 70.75,-31.81"/>
</a>
</g>
</g>
</g>
</svg>
