<?xml version="1.0" encoding="UTF-8" standalone="no"?>
<!DOCTYPE svg PUBLIC "-//W3C//DTD SVG 1.1//EN"
 "http://www.w3.org/Graphics/SVG/1.1/DTD/svg11.dtd">
<!-- Generated by graphviz version 13.1.2 (20250808.2320)
 -->
<!-- Title: inc/tinyengine_sprite.h Pages: 1 -->
<svg width="864pt" height="196pt"
 viewBox="0.00 0.00 864.00 196.00" xmlns="http://www.w3.org/2000/svg" xmlns:xlink="http://www.w3.org/1999/xlink">
<g id="graph0" class="graph" transform="scale(1 1) rotate(0) translate(4 192)">
<title>inc/tinyengine_sprite.h</title>
<!-- Node1 -->
<g id="Node000001" class="node">
<title>Node1</title>
<g id="a_Node000001"><a xlink:title=" ">
<polygon fill="#999999" stroke="#666666" points="529.29,-188 415.79,-188 415.79,-168 529.29,-168 529.29,-188"/>
<text xml:space="preserve" text-anchor="middle" x="472.54" y="-174.5" font-family="Helvetica,sans-Serif" font-size="10.00">inc/tinyengine_sprite.h</text>
</a>
</g>
</g>
<!-- Node2 -->
<g id="Node000002" class="node">
<title>Node2</title>
<g id="a_Node000002"><a xlink:href="$_game_scene_8h.html" xlink:title=" ">
<polygon fill="white" stroke="#666666" points="321.54,-132 227.54,-132 227.54,-112 321.54,-112 321.54,-132"/>
<text xml:space="preserve" text-anchor="middle" x="274.54" y="-118.5" font-family="Helvetica,sans-Serif" font-size="10.00">inc/GameScene.h</text>
</a>
</g>
</g>
<!-- Node1&#45;&gt;Node2 -->
<g id="edge25_Node000001_Node000002" class="edge">
<title>Node1&#45;&gt;Node2</title>
<g id="a_edge25_Node000001_Node000002"><a xlink:title=" ">
<path fill="none" stroke="#63b8ff" d="M427.39,-164.69C391.53,-154.91 342.12,-141.43 309.29,-132.48"/>
<polygon fill="#63b8ff" stroke="#63b8ff" points="426.02,-167.94 436.59,-167.2 427.86,-161.19 426.02,-167.94"/>
</a>
</g>
</g>
<!-- Node5 -->
<g id="Node000005" class="node">
<title>Node5</title>
<g id="a_Node000005"><a xlink:href="$_dino_game_8cpp.html" xlink:title=" ">
<polygon fill="white" stroke="#666666" points="268.66,-20 136.41,-20 136.41,0 268.66,0 268.66,-20"/>
<text xml:space="preserve" text-anchor="middle" x="202.54" y="-6.5" font-family="Helvetica,sans-Serif" font-size="10.00">src/scenes/DinoGame.cpp</text>
</a>
</g>
</g>
<!-- Node1&#45;&gt;Node5 -->
<g id="edge33_Node000001_Node000005" class="edge">
<title>Node1&#45;&gt;Node5</title>
<g id="a_edge33_Node000001_Node000005"><a xlink:title=" ">
<path fill="none" stroke="#63b8ff" d="M404.4,-172.63C287.37,-163.51 56.11,-137.92 8.54,-76 -27.71,-28.82 66.53,-15.55 136.02,-12.02"/>
<polygon fill="#63b8ff" stroke="#63b8ff" points="403.95,-176.1 414.19,-173.37 404.48,-169.12 403.95,-176.1"/>
</a>
</g>
</g>
<!-- Node7 -->
<g id="Node000007" class="node">
<title>Node7</title>
<g id="a_Node000007"><a xlink:href="$_snake_game_8cpp.html" xlink:title=" ">
<polygon fill="white" stroke="#666666" points="467.41,-20 327.66,-20 327.66,0 467.41,0 467.41,-20"/>
<text xml:space="preserve" text-anchor="middle" x="397.54" y="-6.5" font-family="Helvetica,sans-Serif" font-size="10.00">src/scenes/SnakeGame.cpp</text>
</a>
</g>
</g>
<!-- Node1&#45;&gt;Node7 -->
<g id="edge34_Node000001_Node000007" class="edge">
<title>Node1&#45;&gt;Node7</title>
<g id="a_edge34_Node000001_Node000007"><a xlink:title=" ">
<path fill="none" stroke="#63b8ff" d="M464.51,-157.22C454.62,-133.11 437.09,-91.23 420.54,-56 414.64,-43.45 407.26,-29.25 402.48,-20.22"/>
<polygon fill="#63b8ff" stroke="#63b8ff" points="461.24,-158.46 468.26,-166.4 467.72,-155.82 461.24,-158.46"/>
</a>
</g>
</g>
<!-- Node8 -->
<g id="Node000008" class="node">
<title>Node8</title>
<g id="a_Node000008"><a xlink:href="$_game_8cpp.html" xlink:title=" ">
<polygon fill="white" stroke="#666666" points="545.29,-132 467.79,-132 467.79,-112 545.29,-112 545.29,-132"/>
<text xml:space="preserve" text-anchor="middle" x="506.54" y="-118.5" font-family="Helvetica,sans-Serif" font-size="10.00">src/Game.cpp</text>
</a>
</g>
</g>
<!-- Node1&#45;&gt;Node8 -->
<g id="edge32_Node000001_Node000008" class="edge">
<title>Node1&#45;&gt;Node8</title>
<g id="a_edge32_Node000001_Node000008"><a xlink:title=" ">
<path fill="none" stroke="#63b8ff" d="M484.58,-157.87C490.05,-149.19 496.26,-139.32 500.68,-132.3"/>
<polygon fill="#63b8ff" stroke="#63b8ff" points="481.63,-155.99 479.26,-166.31 487.55,-159.72 481.63,-155.99"/>
</a>
</g>
</g>
<!-- Node9 -->
<g id="Node000009" class="node">
<title>Node9</title>
<g id="a_Node000009"><a xlink:href="$tinyengine__framebuffer_8cpp.html" xlink:title=" ">
<polygon fill="white" stroke="#666666" points="713.29,-132 563.79,-132 563.79,-112 713.29,-112 713.29,-132"/>
<text xml:space="preserve" text-anchor="middle" x="638.54" y="-118.5" font-family="Helvetica,sans-Serif" font-size="10.00">src/tinyengine_framebuffer.cpp</text>
</a>
</g>
</g>
<!-- Node1&#45;&gt;Node9 -->
<g id="edge35_Node000001_Node000009" class="edge">
<title>Node1&#45;&gt;Node9</title>
<g id="a_edge35_Node000001_Node000009"><a xlink:title=" ">
<path fill="none" stroke="#63b8ff" d="M512.35,-164.05C542.23,-154.33 582.47,-141.24 609.4,-132.48"/>
<polygon fill="#63b8ff" stroke="#63b8ff" points="511.32,-160.7 502.89,-167.13 513.48,-167.36 511.32,-160.7"/>
</a>
</g>
</g>
<!-- Node10 -->
<g id="Node000010" class="node">
<title>Node10</title>
<g id="a_Node000010"><a xlink:href="$tinyengine__sprite_8cpp.html" xlink:title=" ">
<polygon fill="white" stroke="#666666" points="855.91,-132 731.16,-132 731.16,-112 855.91,-112 855.91,-132"/>
<text xml:space="preserve" text-anchor="middle" x="793.54" y="-118.5" font-family="Helvetica,sans-Serif" font-size="10.00">src/tinyengine_sprite.cpp</text>
</a>
</g>
</g>
<!-- Node1&#45;&gt;Node10 -->
<g id="edge36_Node000001_Node000010" class="edge">
<title>Node1&#45;&gt;Node10</title>
<g id="a_edge36_Node000001_Node000010"><a xlink:title=" ">
<path fill="none" stroke="#63b8ff" d="M539.81,-165.68C598.37,-155.83 682.27,-141.72 737.32,-132.46"/>
<polygon fill="#63b8ff" stroke="#63b8ff" points="539.59,-162.17 530.31,-167.28 540.75,-169.07 539.59,-162.17"/>
</a>
</g>
</g>
<!-- Node3 -->
<g id="Node000003" class="node">
<title>Node3</title>
<g id="a_Node000003"><a xlink:href="$_game_scene_8cpp.html" xlink:title=" ">
<polygon fill="white" stroke="#666666" points="123.16,-76 17.91,-76 17.91,-56 123.16,-56 123.16,-76"/>
<text xml:space="preserve" text-anchor="middle" x="70.54" y="-62.5" font-family="Helvetica,sans-Serif" font-size="10.00">src/GameScene.cpp</text>
</a>
</g>
</g>
<!-- Node2&#45;&gt;Node3 -->
<g id="edge26_Node000002_Node000003" class="edge">
<title>Node2&#45;&gt;Node3</title>
<g id="a_edge26_Node000002_Node000003"><a xlink:title=" ">
<path fill="none" stroke="#63b8ff" d="M228.02,-108.69C191.07,-98.91 140.17,-85.43 106.35,-76.48"/>
<polygon fill="#63b8ff" stroke="#63b8ff" points="226.98,-112.03 237.54,-111.21 228.77,-105.26 226.98,-112.03"/>
</a>
</g>
</g>
<!-- Node4 -->
<g id="Node000004" class="node">
<title>Node4</title>
<g id="a_Node000004"><a xlink:href="$_dino_game_8h.html" xlink:title=" ">
<polygon fill="white" stroke="#666666" points="263.41,-76 141.66,-76 141.66,-56 263.41,-56 263.41,-76"/>
<text xml:space="preserve" text-anchor="middle" x="202.54" y="-62.5" font-family="Helvetica,sans-Serif" font-size="10.00">src/scenes/DinoGame.h</text>
</a>
</g>
</g>
<!-- Node2&#45;&gt;Node4 -->
<g id="edge27_Node000002_Node000004" class="edge">
<title>Node2&#45;&gt;Node4</title>
<g id="a_edge27_Node000002_Node000004"><a xlink:title=" ">
<path fill="none" stroke="#63b8ff" d="M253.14,-104.95C240.69,-95.61 225.42,-84.16 214.93,-76.3"/>
<polygon fill="#63b8ff" stroke="#63b8ff" points="250.68,-107.49 260.78,-110.69 254.88,-101.89 250.68,-107.49"/>
</a>
</g>
</g>
<!-- Node6 -->
<g id="Node000006" class="node">
<title>Node6</title>
<g id="a_Node000006"><a xlink:href="$_snake_game_8h.html" xlink:title=" ">
<polygon fill="white" stroke="#666666" points="411.16,-76 281.91,-76 281.91,-56 411.16,-56 411.16,-76"/>
<text xml:space="preserve" text-anchor="middle" x="346.54" y="-62.5" font-family="Helvetica,sans-Serif" font-size="10.00">src/scenes/SnakeGame.h</text>
</a>
</g>
</g>
<!-- Node2&#45;&gt;Node6 -->
<g id="edge29_Node000002_Node000006" class="edge">
<title>Node2&#45;&gt;Node6</title>
<g id="a_edge29_Node000002_Node000006"><a xlink:title=" ">
<path fill="none" stroke="#63b8ff" d="M295.93,-104.95C308.39,-95.61 323.65,-84.16 334.14,-76.3"/>
<polygon fill="#63b8ff" stroke="#63b8ff" points="294.19,-101.89 288.29,-110.69 298.39,-107.49 294.19,-101.89"/>
</a>
</g>
</g>
<!-- Node4&#45;&gt;Node5 -->
<g id="edge28_Node000004_Node000005" class="edge">
<title>Node4&#45;&gt;Node5</title>
<g id="a_edge28_Node000004_Node000005"><a xlink:title=" ">
<path fill="none" stroke="#63b8ff" d="M202.54,-44.13C202.54,-35.9 202.54,-26.85 202.54,-20.3"/>
<polygon fill="#63b8ff" stroke="#63b8ff" points="199.04,-44.08 202.54,-54.08 206.04,-44.08 199.04,-44.08"/>
</a>
</g>
</g>
<!-- Node6&#45;&gt;Node5 -->
<g id="edge30_Node000006_Node000005" class="edge">
<title>Node6&#45;&gt;Node5</title>
<g id="a_edge30_Node000006_Node000005"><a xlink:title=" ">
<path fill="none" stroke="#63b8ff" d="M310.97,-51.66C285.16,-41.98 250.86,-29.12 227.81,-20.48"/>
<polygon fill="#63b8ff" stroke="#63b8ff" points="309.44,-54.83 320.04,-55.06 311.9,-48.27 309.44,-54.83"/>
</a>
</g>
</g>
<!-- Node6&#45;&gt;Node7 -->
<g id="edge31_Node000006_Node000007" class="edge">
<title>Node6&#45;&gt;Node7</title>
<g id="a_edge31_Node000006_Node000007"><a xlink:title=" ">
<path fill="none" stroke="#63b8ff" d="M363.27,-47.29C371.77,-38.28 381.76,-27.7 388.75,-20.3"/>
<polygon fill="#63b8ff" stroke="#63b8ff" points="360.78,-44.82 356.46,-54.49 365.87,-49.63 360.78,-44.82"/>
</a>
</g>
</g>
</g>
</svg>
