<?xml version="1.0" encoding="UTF-8" standalone="no"?>
<!DOCTYPE svg PUBLIC "-//W3C//DTD SVG 1.1//EN"
 "http://www.w3.org/Graphics/SVG/1.1/DTD/svg11.dtd">
<!-- Generated by graphviz version 13.1.2 (20250808.2320)
 -->
<!-- Title: src/ws2812.cpp Pages: 1 -->
<svg width="276pt" height="140pt"
 viewBox="0.00 0.00 276.00 140.00" xmlns="http://www.w3.org/2000/svg" xmlns:xlink="http://www.w3.org/1999/xlink">
<g id="graph0" class="graph" transform="scale(1 1) rotate(0) translate(4 136)">
<title>src/ws2812.cpp</title>
<!-- Node1 -->
<g id="Node000001" class="node">
<title>Node1</title>
<g id="a_Node000001"><a xlink:title=" ">
<polygon fill="#999999" stroke="#666666" points="170.75,-132 85.75,-132 85.75,-112 170.75,-112 170.75,-132"/>
<text xml:space="preserve" text-anchor="middle" x="128.25" y="-118.5" font-family="Helvetica,sans-Serif" font-size="10.00">src/ws2812.cpp</text>
</a>
</g>
</g>
<!-- Node2 -->
<g id="Node000002" class="node">
<title>Node2</title>
<g id="a_Node000002"><a xlink:title=" ">
<polygon fill="#e0e0e0" stroke="#999999" points="68.5,-76 0,-76 0,-56 68.5,-56 68.5,-76"/>
<text xml:space="preserve" text-anchor="middle" x="34.25" y="-62.5" font-family="Helvetica,sans-Serif" font-size="10.00">pico/stdlib.h</text>
</a>
</g>
</g>
<!-- Node1&#45;&gt;Node2 -->
<g id="edge13_Node000001_Node000002" class="edge">
<title>Node1&#45;&gt;Node2</title>
<g id="a_edge13_Node000001_Node000002"><a xlink:title=" ">
<path fill="none" stroke="#63b8ff" d="M111.88,-111.59C97.68,-103.44 76.87,-91.48 60.37,-82"/>
<polygon fill="#63b8ff" stroke="#63b8ff" points="62.48,-79.18 52.06,-77.23 58.99,-85.25 62.48,-79.18"/>
</a>
</g>
</g>
<!-- Node3 -->
<g id="Node000003" class="node">
<title>Node3</title>
<g id="a_Node000003"><a xlink:title=" ">
<polygon fill="#e0e0e0" stroke="#999999" points="148.12,-20 68.38,-20 68.38,0 148.12,0 148.12,-20"/>
<text xml:space="preserve" text-anchor="middle" x="108.25" y="-6.5" font-family="Helvetica,sans-Serif" font-size="10.00">hardware/pio.h</text>
</a>
</g>
</g>
<!-- Node1&#45;&gt;Node3 -->
<g id="edge14_Node000001_Node000003" class="edge">
<title>Node1&#45;&gt;Node3</title>
<g id="a_edge14_Node000001_Node000003"><a xlink:title=" ">
<path fill="none" stroke="#63b8ff" d="M125.08,-111.81C122.1,-102.79 117.73,-88.61 115.25,-76 112.36,-61.3 110.59,-44.48 109.55,-31.63"/>
<polygon fill="#63b8ff" stroke="#63b8ff" points="113.05,-31.57 108.85,-21.84 106.07,-32.07 113.05,-31.57"/>
</a>
</g>
</g>
<!-- Node4 -->
<g id="Node000004" class="node">
<title>Node4</title>
<g id="a_Node000004"><a xlink:title=" ">
<polygon fill="#e0e0e0" stroke="#999999" points="268,-20 172.5,-20 172.5,0 268,0 268,-20"/>
<text xml:space="preserve" text-anchor="middle" x="220.25" y="-6.5" font-family="Helvetica,sans-Serif" font-size="10.00">hardware/clocks.h</text>
</a>
</g>
</g>
<!-- Node1&#45;&gt;Node4 -->
<g id="edge15_Node000001_Node000004" class="edge">
<title>Node1&#45;&gt;Node4</title>
<g id="a_edge15_Node000001_Node000004"><a xlink:title=" ">
<path fill="none" stroke="#63b8ff" d="M156.93,-111.61C174.12,-104.5 194.96,-93.02 207.25,-76 216.53,-63.14 219.59,-45.29 220.43,-31.55"/>
<polygon fill="#63b8ff" stroke="#63b8ff" points="223.92,-31.94 220.66,-21.86 216.92,-31.77 223.92,-31.94"/>
</a>
</g>
</g>
<!-- Node5 -->
<g id="Node000005" class="node">
<title>Node5</title>
<g id="a_Node000005"><a xlink:href="$ws2812_8pio_8h.html" xlink:title=" ">
<polygon fill="white" stroke="#666666" points="198.12,-76 124.38,-76 124.38,-56 198.12,-56 198.12,-76"/>
<text xml:space="preserve" text-anchor="middle" x="161.25" y="-62.5" font-family="Helvetica,sans-Serif" font-size="10.00">ws2812.pio.h</text>
</a>
</g>
</g>
<!-- Node1&#45;&gt;Node5 -->
<g id="edge16_Node000001_Node000005" class="edge">
<title>Node1&#45;&gt;Node5</title>
<g id="a_edge16_Node000001_Node000005"><a xlink:title=" ">
<path fill="none" stroke="#63b8ff" d="M134,-111.59C138.3,-104.55 144.34,-94.67 149.64,-86"/>
<polygon fill="#63b8ff" stroke="#63b8ff" points="152.55,-87.95 154.78,-77.59 146.58,-84.3 152.55,-87.95"/>
</a>
</g>
</g>
<!-- Node5&#45;&gt;Node3 -->
<g id="edge17_Node000005_Node000003" class="edge">
<title>Node5&#45;&gt;Node3</title>
<g id="a_edge17_Node000005_Node000003"><a xlink:title=" ">
<path fill="none" stroke="#63b8ff" d="M152.02,-55.59C144.65,-48.08 134.12,-37.35 125.23,-28.3"/>
<polygon fill="#63b8ff" stroke="#63b8ff" points="127.94,-26.06 118.44,-21.38 122.94,-30.97 127.94,-26.06"/>
</a>
</g>
</g>
<!-- Node5&#45;&gt;Node4 -->
<g id="edge18_Node000005_Node000004" class="edge">
<title>Node5&#45;&gt;Node4</title>
<g id="a_edge18_Node000005_Node000004"><a xlink:title=" ">
<path fill="none" stroke="#63b8ff" d="M171.53,-55.59C179.82,-48.01 191.7,-37.13 201.65,-28.02"/>
<polygon fill="#63b8ff" stroke="#63b8ff" points="203.96,-30.65 208.97,-21.32 199.23,-25.49 203.96,-30.65"/>
</a>
</g>
</g>
</g>
</svg>
