<?xml version="1.0" encoding="UTF-8" standalone="no"?>
<!DOCTYPE svg PUBLIC "-//W3C//DTD SVG 1.1//EN"
 "http://www.w3.org/Graphics/SVG/1.1/DTD/svg11.dtd">
<!-- Generated by graphviz version 13.1.2 (20250808.2320)
 -->
<!-- Title: src/generated/ws2812.pio.h Pages: 1 -->
<svg width="244pt" height="84pt"
 viewBox="0.00 0.00 244.00 84.00" xmlns="http://www.w3.org/2000/svg" xmlns:xlink="http://www.w3.org/1999/xlink">
<g id="graph0" class="graph" transform="scale(1 1) rotate(0) translate(4 80)">
<title>src/generated/ws2812.pio.h</title>
<!-- Node1 -->
<g id="Node000001" class="node">
<title>Node1</title>
<g id="a_Node000001"><a xlink:title=" ">
<polygon fill="#999999" stroke="#666666" points="197.12,-76 61.12,-76 61.12,-56 197.12,-56 197.12,-76"/>
<text xml:space="preserve" text-anchor="middle" x="129.12" y="-62.5" font-family="Helvetica,sans-Serif" font-size="10.00">src/generated/ws2812.pio.h</text>
</a>
</g>
</g>
<!-- Node2 -->
<g id="Node000002" class="node">
<title>Node2</title>
<g id="a_Node000002"><a xlink:href="$_dino_game_8cpp.html" xlink:title=" ">
<polygon fill="white" stroke="#666666" points="132.25,-20 0,-20 0,0 132.25,0 132.25,-20"/>
<text xml:space="preserve" text-anchor="middle" x="66.12" y="-6.5" font-family="Helvetica,sans-Serif" font-size="10.00">src/scenes/DinoGame.cpp</text>
</a>
</g>
</g>
<!-- Node1&#45;&gt;Node2 -->
<g id="edge5_Node000001_Node000002" class="edge">
<title>Node1&#45;&gt;Node2</title>
<g id="a_edge5_Node000001_Node000002"><a xlink:title=" ">
<path fill="none" stroke="#63b8ff" d="M109.44,-48.13C98.72,-38.94 85.88,-27.93 76.97,-20.3"/>
<polygon fill="#63b8ff" stroke="#63b8ff" points="107.13,-50.76 117,-54.61 111.69,-45.44 107.13,-50.76"/>
</a>
</g>
</g>
<!-- Node3 -->
<g id="Node000003" class="node">
<title>Node3</title>
<g id="a_Node000003"><a xlink:href="$ws2812_8cpp.html" xlink:title=" ">
<polygon fill="white" stroke="#666666" points="235.62,-20 150.62,-20 150.62,0 235.62,0 235.62,-20"/>
<text xml:space="preserve" text-anchor="middle" x="193.12" y="-6.5" font-family="Helvetica,sans-Serif" font-size="10.00">src/ws2812.cpp</text>
</a>
</g>
</g>
<!-- Node1&#45;&gt;Node3 -->
<g id="edge6_Node000001_Node000003" class="edge">
<title>Node1&#45;&gt;Node3</title>
<g id="a_edge6_Node000001_Node000003"><a xlink:title=" ">
<path fill="none" stroke="#63b8ff" d="M148.8,-48.4C159.74,-39.17 172.97,-28.01 182.1,-20.3"/>
<polygon fill="#63b8ff" stroke="#63b8ff" points="146.82,-45.49 141.43,-54.62 151.33,-50.84 146.82,-45.49"/>
</a>
</g>
</g>
</g>
</svg>
