<?xml version="1.0" encoding="UTF-8" standalone="no"?>
<!DOCTYPE svg PUBLIC "-//W3C//DTD SVG 1.1//EN"
 "http://www.w3.org/Graphics/SVG/1.1/DTD/svg11.dtd">
<!-- Generated by graphviz version 13.1.2 (20250808.2320)
 -->
<!-- Title: C:/Users/GRHRehabTech/Desktop/Abinash Work Term/REGI/Firmware/REGI&#45;TinyEngine/inc/GameScene.h Pages: 1 -->
<!--zoomable 248 -->

<svg id="main" version="1.1" xmlns="http://www.w3.org/2000/svg" xmlns:xlink="http://www.w3.org/1999/xlink" xml:space="preserve" onload="init(evt)">

<style type="text/css"><![CDATA[
.node, .edge {opacity: 0.7;}
.node.selected, .edge.selected {opacity: 1;}
.edge:hover path { stroke: red; }
.edge:hover polygon { stroke: red; fill: red; }
]]></style>

<defs>
  <circle id="rim" cx="0" cy="0" r="7"/>
  <circle id="rim2" cx="0" cy="0" r="3.5"/>
  <g id="zoomPlus">
    <use xlink:href="#rim" fill="#404040"><set attributeName="fill" to="#808080" begin="zoomplus.mouseover" end="zoomplus.mouseout"/></use>
    <path d="M-4,0h8M0,-4v8" fill="none" stroke="white" stroke-width="1.5" pointer-events="none"/>
  </g>
  <g id="zoomMin">
    <use xlink:href="#rim" fill="#404040"><set attributeName="fill" to="#808080" begin="zoomminus.mouseover" end="zoomminus.mouseout"/></use>
    <path d="M-4,0h8" fill="none" stroke="white" stroke-width="1.5" pointer-events="none"/>
  </g>
  <g id="arrowUp" transform="translate(30 24)">
    <use xlink:href="#rim"/>
    <path pointer-events="none" fill="none" stroke="white" stroke-width="1.5" d="M0,-3.0v7 M-2.5,-0.5L0,-3.0L2.5,-0.5"/>
  </g>
  <g id="arrowRight" transform="rotate(90) translate(36 -43)">
    <use xlink:href="#rim"/>
    <path pointer-events="none" fill="none" stroke="white" stroke-width="1.5" d="M0,-3.0v7 M-2.5,-0.5L0,-3.0L2.5,-0.5"/>
  </g>
  <g id="arrowDown" transform="rotate(180) translate(-30 -48)">
    <use xlink:href="#rim"/>
    <path pointer-events="none" fill="none" stroke="white" stroke-width="1.5" d="M0,-3.0v7 M-2.5,-0.5L0,-3.0L2.5,-0.5"/>
  </g>
  <g id="arrowLeft" transform="rotate(270) translate(-36 17)">
    <use xlink:href="#rim"/>
    <path pointer-events="none" fill="none" stroke="white" stroke-width="1.5" d="M0,-3.0v7 M-2.5,-0.5L0,-3.0L2.5,-0.5"/>
  </g>
  <g id="resetDef">
    <use xlink:href="#rim2" fill="#404040"><set attributeName="fill" to="#808080" begin="reset.mouseover" end="reset.mouseout"/></use>
  </g>
</defs>
<script type="application/ecmascript">
var viewWidth = 580;
var viewHeight = 248;
var sectionId = 'dynsection-1';
</script>
<script type="application/ecmascript" xlink:href="svg.min.js"/>
<svg id="graph" class="graph">
<g id="viewport">
<title>C:/Users/GRHRehabTech/Desktop/Abinash Work Term/REGI/Firmware/REGI&#45;TinyEngine/inc/GameScene.h</title>
<!-- Node1 -->
<g id="Node000001" class="node">
<title>Node1</title>
<g id="a_Node000001"><a xlink:title="Abstract class for the actual game scene and its assets.">
<polygon fill="#999999" stroke="#666666" points="340.38,-240 191.62,-240 191.62,-184 340.38,-184 340.38,-240"/>
<text xml:space="preserve" text-anchor="start" x="199.62" y="-226.5" font-family="Helvetica,sans-Serif" font-size="10.00">C:/Users/GRHRehabTech</text>
<text xml:space="preserve" text-anchor="start" x="199.62" y="-214.5" font-family="Helvetica,sans-Serif" font-size="10.00">/Desktop/Abinash Work</text>
<text xml:space="preserve" text-anchor="start" x="199.62" y="-202.5" font-family="Helvetica,sans-Serif" font-size="10.00"> Term/REGI/Firmware/REGI</text>
<text xml:space="preserve" text-anchor="middle" x="266" y="-190.5" font-family="Helvetica,sans-Serif" font-size="10.00">&#45;TinyEngine/inc/GameScene.h</text>
</a>
</g>
</g>
<!-- Node2 -->
<g id="Node000002" class="node">
<title>Node2</title>
<g id="a_Node000002"><a xlink:href=".html" target="_top" xlink:title=" ">
<polygon fill="white" stroke="#666666" points="160,-148 0,-148 0,-92 160,-92 160,-148"/>
<text xml:space="preserve" text-anchor="start" x="8" y="-134.5" font-family="Helvetica,sans-Serif" font-size="10.00">C:/Users/GRHRehabTech</text>
<text xml:space="preserve" text-anchor="start" x="8" y="-122.5" font-family="Helvetica,sans-Serif" font-size="10.00">/Desktop/Abinash Work</text>
<text xml:space="preserve" text-anchor="start" x="8" y="-110.5" font-family="Helvetica,sans-Serif" font-size="10.00"> Term/REGI/Firmware/REGI</text>
<text xml:space="preserve" text-anchor="middle" x="80" y="-98.5" font-family="Helvetica,sans-Serif" font-size="10.00">&#45;TinyEngine/src/GameScene.cpp</text>
</a>
</g>
</g>
<!-- Node1&#45;&gt;Node2 -->
<g id="edge1_Node000001_Node000002" class="edge">
<title>Node1&#45;&gt;Node2</title>
<g id="a_edge1_Node000001_Node000002"><a xlink:title=" ">
<path fill="none" stroke="#63b8ff" d="M199.03,-178.59C178.64,-168.73 156.44,-157.99 136.79,-148.48"/>
<polygon fill="#63b8ff" stroke="#63b8ff" points="197.29,-181.64 207.82,-182.85 200.34,-175.34 197.29,-181.64"/>
</a>
</g>
</g>
<!-- Node3 -->
<g id="Node000003" class="node">
<title>Node3</title>
<g id="a_Node000003"><a xlink:href=".html" target="_top" xlink:title=" ">
<polygon fill="white" stroke="#666666" points="354.25,-148 177.75,-148 177.75,-92 354.25,-92 354.25,-148"/>
<text xml:space="preserve" text-anchor="start" x="185.75" y="-134.5" font-family="Helvetica,sans-Serif" font-size="10.00">C:/Users/GRHRehabTech</text>
<text xml:space="preserve" text-anchor="start" x="185.75" y="-122.5" font-family="Helvetica,sans-Serif" font-size="10.00">/Desktop/Abinash Work</text>
<text xml:space="preserve" text-anchor="start" x="185.75" y="-110.5" font-family="Helvetica,sans-Serif" font-size="10.00"> Term/REGI/Firmware/REGI</text>
<text xml:space="preserve" text-anchor="middle" x="266" y="-98.5" font-family="Helvetica,sans-Serif" font-size="10.00">&#45;TinyEngine/src/scenes/DinoGame.h</text>
</a>
</g>
</g>
<!-- Node1&#45;&gt;Node3 -->
<g id="edge2_Node000001_Node000003" class="edge">
<title>Node1&#45;&gt;Node3</title>
<g id="a_edge2_Node000001_Node000003"><a xlink:title=" ">
<path fill="none" stroke="#63b8ff" d="M266,-172.09C266,-164.08 266,-155.81 266,-148.32"/>
<polygon fill="#63b8ff" stroke="#63b8ff" points="262.5,-171.99 266,-181.99 269.5,-171.99 262.5,-171.99"/>
</a>
</g>
</g>
<!-- Node5 -->
<g id="Node000005" class="node">
<title>Node5</title>
<g id="a_Node000005"><a xlink:href=".html" target="_top" xlink:title=" ">
<polygon fill="white" stroke="#666666" points="556,-148 372,-148 372,-92 556,-92 556,-148"/>
<text xml:space="preserve" text-anchor="start" x="380" y="-134.5" font-family="Helvetica,sans-Serif" font-size="10.00">C:/Users/GRHRehabTech</text>
<text xml:space="preserve" text-anchor="start" x="380" y="-122.5" font-family="Helvetica,sans-Serif" font-size="10.00">/Desktop/Abinash Work</text>
<text xml:space="preserve" text-anchor="start" x="380" y="-110.5" font-family="Helvetica,sans-Serif" font-size="10.00"> Term/REGI/Firmware/REGI</text>
<text xml:space="preserve" text-anchor="middle" x="464" y="-98.5" font-family="Helvetica,sans-Serif" font-size="10.00">&#45;TinyEngine/src/scenes/SnakeGame.h</text>
</a>
</g>
</g>
<!-- Node1&#45;&gt;Node5 -->
<g id="edge4_Node000001_Node000005" class="edge">
<title>Node1&#45;&gt;Node5</title>
<g id="a_edge4_Node000001_Node000005"><a xlink:title=" ">
<path fill="none" stroke="#63b8ff" d="M336.7,-178.86C358.57,-168.92 382.44,-158.07 403.55,-148.48"/>
<polygon fill="#63b8ff" stroke="#63b8ff" points="335.52,-175.56 327.86,-182.88 338.41,-181.93 335.52,-175.56"/>
</a>
</g>
</g>
<!-- Node4 -->
<g id="Node000004" class="node">
<title>Node4</title>
<g id="a_Node000004"><a xlink:href=".html" target="_top" xlink:title=" ">
<polygon fill="white" stroke="#666666" points="359.5,-56 172.5,-56 172.5,0 359.5,0 359.5,-56"/>
<text xml:space="preserve" text-anchor="start" x="180.5" y="-42.5" font-family="Helvetica,sans-Serif" font-size="10.00">C:/Users/GRHRehabTech</text>
<text xml:space="preserve" text-anchor="start" x="180.5" y="-30.5" font-family="Helvetica,sans-Serif" font-size="10.00">/Desktop/Abinash Work</text>
<text xml:space="preserve" text-anchor="start" x="180.5" y="-18.5" font-family="Helvetica,sans-Serif" font-size="10.00"> Term/REGI/Firmware/REGI</text>
<text xml:space="preserve" text-anchor="middle" x="266" y="-6.5" font-family="Helvetica,sans-Serif" font-size="10.00">&#45;TinyEngine/src/scenes/DinoGame.cpp</text>
</a>
</g>
</g>
<!-- Node3&#45;&gt;Node4 -->
<g id="edge3_Node000003_Node000004" class="edge">
<title>Node3&#45;&gt;Node4</title>
<g id="a_edge3_Node000003_Node000004"><a xlink:title=" ">
<path fill="none" stroke="#63b8ff" d="M266,-80.09C266,-72.08 266,-63.81 266,-56.32"/>
<polygon fill="#63b8ff" stroke="#63b8ff" points="262.5,-79.99 266,-89.99 269.5,-79.99 262.5,-79.99"/>
</a>
</g>
</g>
<!-- Node5&#45;&gt;Node4 -->
<g id="edge5_Node000005_Node000004" class="edge">
<title>Node5&#45;&gt;Node4</title>
<g id="a_edge5_Node000005_Node000004"><a xlink:title=" ">
<path fill="none" stroke="#63b8ff" d="M393.3,-86.86C371.43,-76.92 347.56,-66.07 326.45,-56.48"/>
<polygon fill="#63b8ff" stroke="#63b8ff" points="391.59,-89.93 402.14,-90.88 394.48,-83.56 391.59,-89.93"/>
</a>
</g>
</g>
<!-- Node6 -->
<g id="Node000006" class="node">
<title>Node6</title>
<g id="a_Node000006"><a xlink:href=".html" target="_top" xlink:title=" ">
<polygon fill="white" stroke="#666666" points="572.25,-56 377.75,-56 377.75,0 572.25,0 572.25,-56"/>
<text xml:space="preserve" text-anchor="start" x="385.75" y="-42.5" font-family="Helvetica,sans-Serif" font-size="10.00">C:/Users/GRHRehabTech</text>
<text xml:space="preserve" text-anchor="start" x="385.75" y="-30.5" font-family="Helvetica,sans-Serif" font-size="10.00">/Desktop/Abinash Work</text>
<text xml:space="preserve" text-anchor="start" x="385.75" y="-18.5" font-family="Helvetica,sans-Serif" font-size="10.00"> Term/REGI/Firmware/REGI</text>
<text xml:space="preserve" text-anchor="middle" x="475" y="-6.5" font-family="Helvetica,sans-Serif" font-size="10.00">&#45;TinyEngine/src/scenes/SnakeGame.cpp</text>
</a>
</g>
</g>
<!-- Node5&#45;&gt;Node6 -->
<g id="edge6_Node000005_Node000006" class="edge">
<title>Node5&#45;&gt;Node6</title>
<g id="a_edge6_Node000005_Node000006"><a xlink:title=" ">
<path fill="none" stroke="#63b8ff" d="M468.76,-80.09C469.73,-72.08 470.74,-63.81 471.66,-56.32"/>
<polygon fill="#63b8ff" stroke="#63b8ff" points="465.28,-79.65 467.54,-90.01 472.23,-80.5 465.28,-79.65"/>
</a>
</g>
</g>
</g>
</svg>

<g id="navigator" transform="translate(0 0)" fill="#404254">
  <rect fill="#f2f5e9" fill-opacity="0.5" stroke="#606060" stroke-width=".5" x="0" y="0" width="60" height="60"/>
  <use id="zoomplus" xlink:href="#zoomPlus" x="17" y="9" onmousedown="handleZoom(evt,'in')"/>
  <use id="zoomminus" xlink:href="#zoomMin" x="42" y="9" onmousedown="handleZoom(evt,'out')"/>
  <use id="reset" xlink:href="#resetDef" x="30" y="36" onmousedown="handleReset()"/>
   <use id="arrowup" xlink:href="#arrowUp" x="0" y="0" onmousedown="handlePan(0,-1)"/>
  <use id="arrowright" xlink:href="#arrowRight" x="0" y="0" onmousedown="handlePan(1,0)"/>
  <use id="arrowdown" xlink:href="#arrowDown" x="0" y="0" onmousedown="handlePan(0,1)"/>
  <use id="arrowleft" xlink:href="#arrowLeft" x="0" y="0" onmousedown="handlePan(-1,0)"/>
</g>
<svg viewBox="0 0 15 15" width="100%" height="30px" preserveAspectRatio="xMaxYMin meet">
 <g id="arrow_out" transform="scale(0.3 0.3)">
  <a xlink:href="_game_scene_8h__dep__incl_org.svg" target="_base">
   <rect id="button" ry="5" rx="5" y="6" x="6" height="38" width="38"
        fill="#f2f5e9" fill-opacity="0.5" stroke="#606060" stroke-width="1.0"/>
   <path id="arrow"
     d="M 11.500037,31.436501 C 11.940474,20.09759 22.043105,11.32322 32.158766,21.979434 L 37.068811,17.246167 C 37.068811,17.246167 37.088388,32 37.088388,32 L 22.160133,31.978069 C 22.160133,31.978069 26.997745,27.140456 26.997745,27.140456 C 18.528582,18.264221 13.291696,25.230495 11.500037,31.436501 z"
     style="fill:#404040;"/>
  </a>
 </g>
</svg>

<style type='text/css'>
<![CDATA[
[data-mouse-over-selected='false'] { opacity: 0.7; }
[data-mouse-over-selected='true']  { opacity: 1.0; }
]]>
</style>
<script type="application/ecmascript"><![CDATA[
document.addEventListener('DOMContentLoaded', (event) => {
  highlightEdges();
  highlightAdjacentNodes();
});
]]></script>
</svg>
