<?xml version="1.0" encoding="UTF-8" standalone="no"?>
<!DOCTYPE svg PUBLIC "-//W3C//DTD SVG 1.1//EN"
 "http://www.w3.org/Graphics/SVG/1.1/DTD/svg11.dtd">
<!-- Generated by graphviz version 13.1.2 (20250808.2320)
 -->
<!-- Title: SceneI Pages: 1 -->
<svg width="258pt" height="140pt"
 viewBox="0.00 0.00 258.00 140.00" xmlns="http://www.w3.org/2000/svg" xmlns:xlink="http://www.w3.org/1999/xlink">
<g id="graph0" class="graph" transform="scale(1 1) rotate(0) translate(4 136)">
<title>SceneI</title>
<!-- Node1 -->
<g id="Node000001" class="node">
<title>Node1</title>
<g id="a_Node000001"><a xlink:title=" ">
<polygon fill="#999999" stroke="#666666" points="153.62,-132 106.88,-132 106.88,-112 153.62,-112 153.62,-132"/>
<text xml:space="preserve" text-anchor="middle" x="130.25" y="-118.5" font-family="Helvetica,sans-Serif" font-size="10.00">SceneI</text>
</a>
</g>
</g>
<!-- Node2 -->
<g id="Node000002" class="node">
<title>Node2</title>
<g id="a_Node000002"><a xlink:href="class_game_scene.html" target="_top" xlink:title="Contains all of the common fucctions and members needed to render a scene. A down stream Game scene w...">
<polygon fill="white" stroke="#666666" points="108.25,-76 38.25,-76 38.25,-56 108.25,-56 108.25,-76"/>
<text xml:space="preserve" text-anchor="middle" x="73.25" y="-62.5" font-family="Helvetica,sans-Serif" font-size="10.00">GameScene</text>
</a>
</g>
</g>
<!-- Node1&#45;&gt;Node2 -->
<g id="edge1_Node000001_Node000002" class="edge">
<title>Node1&#45;&gt;Node2</title>
<g id="a_edge1_Node000001_Node000002"><a xlink:title=" ">
<path fill="none" stroke="#63b8ff" d="M112.14,-103.85C102.51,-94.72 91.04,-83.86 83.06,-76.3"/>
<polygon fill="#63b8ff" stroke="#63b8ff" points="109.56,-106.22 119.22,-110.55 114.37,-101.13 109.56,-106.22"/>
</a>
</g>
</g>
<!-- Node5 -->
<g id="Node000005" class="node">
<title>Node5</title>
<g id="a_Node000005"><a xlink:href="class_tiny_engine_scene_default.html" target="_top" xlink:title=" ">
<polygon fill="white" stroke="#bfbfbf" points="250.25,-76 126.25,-76 126.25,-56 250.25,-56 250.25,-76"/>
<text xml:space="preserve" text-anchor="middle" x="188.25" y="-62.5" font-family="Helvetica,sans-Serif" font-size="10.00">TinyEngineSceneDefault</text>
</a>
</g>
</g>
<!-- Node1&#45;&gt;Node5 -->
<g id="edge4_Node000001_Node000005" class="edge">
<title>Node1&#45;&gt;Node5</title>
<g id="a_edge4_Node000001_Node000005"><a xlink:title=" ">
<path fill="none" stroke="#63b8ff" d="M148.67,-103.85C158.48,-94.72 170.15,-83.86 178.26,-76.3"/>
<polygon fill="#63b8ff" stroke="#63b8ff" points="146.39,-101.19 141.46,-110.56 151.16,-106.31 146.39,-101.19"/>
</a>
</g>
</g>
<!-- Node3 -->
<g id="Node000003" class="node">
<title>Node3</title>
<g id="a_Node000003"><a xlink:href="class_dino_game.html" target="_top" xlink:title=" ">
<polygon fill="white" stroke="#bfbfbf" points="62.5,-20 0,-20 0,0 62.5,0 62.5,-20"/>
<text xml:space="preserve" text-anchor="middle" x="31.25" y="-6.5" font-family="Helvetica,sans-Serif" font-size="10.00">DinoGame</text>
</a>
</g>
</g>
<!-- Node2&#45;&gt;Node3 -->
<g id="edge2_Node000002_Node000003" class="edge">
<title>Node2&#45;&gt;Node3</title>
<g id="a_edge2_Node000002_Node000003"><a xlink:title=" ">
<path fill="none" stroke="#63b8ff" d="M59.03,-46.72C52.12,-37.84 44.12,-27.55 38.48,-20.3"/>
<polygon fill="#63b8ff" stroke="#63b8ff" points="56.1,-48.65 65,-54.4 61.63,-44.36 56.1,-48.65"/>
</a>
</g>
</g>
<!-- Node4 -->
<g id="Node000004" class="node">
<title>Node4</title>
<g id="a_Node000004"><a xlink:href="class_snake_game.html" target="_top" xlink:title=" ">
<polygon fill="white" stroke="#bfbfbf" points="150.25,-20 80.25,-20 80.25,0 150.25,0 150.25,-20"/>
<text xml:space="preserve" text-anchor="middle" x="115.25" y="-6.5" font-family="Helvetica,sans-Serif" font-size="10.00">SnakeGame</text>
</a>
</g>
</g>
<!-- Node2&#45;&gt;Node4 -->
<g id="edge3_Node000002_Node000004" class="edge">
<title>Node2&#45;&gt;Node4</title>
<g id="a_edge3_Node000002_Node000004"><a xlink:title=" ">
<path fill="none" stroke="#63b8ff" d="M87.47,-46.72C94.38,-37.84 102.38,-27.55 108.02,-20.3"/>
<polygon fill="#63b8ff" stroke="#63b8ff" points="84.87,-44.36 81.5,-54.4 90.4,-48.65 84.87,-44.36"/>
</a>
</g>
</g>
</g>
</svg>
