<?xml version="1.0" encoding="UTF-8" standalone="no"?>
<!DOCTYPE svg PUBLIC "-//W3C//DTD SVG 1.1//EN"
 "http://www.w3.org/Graphics/SVG/1.1/DTD/svg11.dtd">
<!-- Generated by graphviz version 13.1.2 (20250808.2320)
 -->
<!-- Title: DinoGame Pages: 1 -->
<svg width="364pt" height="233pt"
 viewBox="0.00 0.00 364.00 233.00" xmlns="http://www.w3.org/2000/svg" xmlns:xlink="http://www.w3.org/1999/xlink">

<svg id="main" version="1.1" xmlns="http://www.w3.org/2000/svg" xmlns:xlink="http://www.w3.org/1999/xlink" xml:space="preserve">

<style type="text/css"><![CDATA[
.node, .edge {opacity: 0.7;}
.node.selected, .edge.selected {opacity: 1;}
.edge:hover path { stroke: red; }
.edge:hover polygon { stroke: red; fill: red; }
]]></style>
<script type="application/ecmascript" xlink:href="svg.min.js"/>
<svg id="graph" class="graph">
<g id="graph0" class="graph" transform="scale(1 1) rotate(0) translate(4 229)">
<title>DinoGame</title>
<!-- Node1 -->
<g id="Node000001" class="node">
<title>Node1</title>
<g id="a_Node000001"><a xlink:title=" ">
<polygon fill="#999999" stroke="#666666" points="201.62,-20 139.12,-20 139.12,0 201.62,0 201.62,-20"/>
<text xml:space="preserve" text-anchor="middle" x="170.38" y="-6.5" font-family="Helvetica,sans-Serif" font-size="10.00">DinoGame</text>
</a>
</g>
</g>
<!-- Node2 -->
<g id="Node000002" class="node">
<title>Node2</title>
<g id="a_Node000002"><a xlink:href="class_game_scene.html" target="_top" xlink:title="Contains all of the common fucctions and members needed to render a scene. A down stream Game scene w...">
<polygon fill="white" stroke="#666666" points="205.38,-77 135.38,-77 135.38,-57 205.38,-57 205.38,-77"/>
<text xml:space="preserve" text-anchor="middle" x="170.38" y="-63.5" font-family="Helvetica,sans-Serif" font-size="10.00">GameScene</text>
</a>
</g>
</g>
<!-- Node2&#45;&gt;Node1 -->
<g id="edge1_Node000001_Node000002" class="edge">
<title>Node2&#45;&gt;Node1</title>
<g id="a_edge1_Node000001_Node000002"><a xlink:title=" ">
<path fill="none" stroke="#63b8ff" d="M170.38,-45.69C170.38,-36.97 170.38,-27.22 170.38,-20.28"/>
<polygon fill="#63b8ff" stroke="#63b8ff" points="166.88,-45.4 170.38,-55.4 173.88,-45.4 166.88,-45.4"/>
</a>
</g>
</g>
<!-- Node3 -->
<g id="Node000003" class="node">
<title>Node3</title>
<g id="a_Node000003"><a xlink:href="class_scene_i.html" target="_top" xlink:title=" ">
<polygon fill="white" stroke="#bfbfbf" points="46.75,-151 0,-151 0,-131 46.75,-131 46.75,-151"/>
<text xml:space="preserve" text-anchor="middle" x="23.38" y="-137.5" font-family="Helvetica,sans-Serif" font-size="10.00">SceneI</text>
</a>
</g>
</g>
<!-- Node3&#45;&gt;Node2 -->
<g id="edge2_Node000002_Node000003" class="edge">
<title>Node3&#45;&gt;Node2</title>
<g id="a_edge2_Node000002_Node000003"><a xlink:title=" ">
<path fill="none" stroke="#63b8ff" d="M52.64,-125.67C81.9,-111.34 126.06,-89.71 151.15,-77.42"/>
<polygon fill="#63b8ff" stroke="#63b8ff" points="51.39,-122.38 43.95,-129.92 54.47,-128.67 51.39,-122.38"/>
</a>
</g>
</g>
<!-- Node4 -->
<g id="Node000004" class="node">
<title>Node4</title>
<g id="a_Node000004"><a xlink:href="class_tiny_engine_frame_buffer.html" target="_top" xlink:title="Framebuffer class for rendering primitives and sprites. Contains no scaling yet.">
<polygon fill="white" stroke="#666666" points="182.38,-151 64.38,-151 64.38,-131 182.38,-131 182.38,-151"/>
<text xml:space="preserve" text-anchor="middle" x="123.38" y="-137.5" font-family="Helvetica,sans-Serif" font-size="10.00">TinyEngineFrameBuffer</text>
</a>
</g>
</g>
<!-- Node4&#45;&gt;Node2 -->
<g id="edge3_Node000002_Node000004" class="edge">
<title>Node4&#45;&gt;Node2</title>
<g id="a_edge3_Node000002_Node000004"><a xlink:title=" ">
<path fill="none" stroke="#9a32cd" stroke-dasharray="5,2" d="M126.36,-119.48C128.24,-111.37 131.27,-102.26 136.12,-95 140.84,-87.95 147.99,-81.9 154.53,-77.33"/>
<polygon fill="#9a32cd" stroke="#9a32cd" points="122.95,-118.72 124.58,-129.19 129.83,-119.98 122.95,-118.72"/>
</a>
</g>
<text xml:space="preserve" text-anchor="start" x="139.12" y="-100.5" font-family="Helvetica,sans-Serif" font-size="10.00" fill="grey">m_framebuffer</text>
</g>
<!-- Node5 -->
<g id="Node000005" class="node">
<title>Node5</title>
<g id="a_Node000005"><a xlink:href="class_tiny_engine_renderer_i.html" target="_top" xlink:title=" ">
<polygon fill="white" stroke="#bfbfbf" points="306.12,-225 198.62,-225 198.62,-205 306.12,-205 306.12,-225"/>
<text xml:space="preserve" text-anchor="middle" x="252.38" y="-211.5" font-family="Helvetica,sans-Serif" font-size="10.00">TinyEngineRendererI</text>
</a>
</g>
</g>
<!-- Node5&#45;&gt;Node2 -->
<g id="edge4_Node000002_Node000005" class="edge">
<title>Node5&#45;&gt;Node2</title>
<g id="a_edge4_Node000002_Node000005"><a xlink:title=" ">
<path fill="none" stroke="#9a32cd" stroke-dasharray="5,2" d="M244.69,-194.58C231.53,-161.4 205.96,-97.12 204.38,-95 199.23,-88.12 191.93,-82.01 185.41,-77.35"/>
<polygon fill="#9a32cd" stroke="#9a32cd" points="241.27,-195.46 248.21,-203.46 247.78,-192.88 241.27,-195.46"/>
</a>
</g>
<text xml:space="preserve" text-anchor="start" x="229.83" y="-137.5" font-family="Helvetica,sans-Serif" font-size="10.00" fill="grey">m_renderer</text>
</g>
<!-- Node6 -->
<g id="Node000006" class="node">
<title>Node6</title>
<g id="a_Node000006"><a xlink:href="class_tiny_engine.html" target="_top" xlink:title=" ">
<polygon fill="white" stroke="#bfbfbf" points="355.75,-151 291,-151 291,-131 355.75,-131 355.75,-151"/>
<text xml:space="preserve" text-anchor="middle" x="323.38" y="-137.5" font-family="Helvetica,sans-Serif" font-size="10.00">TinyEngine</text>
</a>
</g>
</g>
<!-- Node5&#45;&gt;Node6 -->
<g id="edge6_Node000006_Node000005" class="edge">
<title>Node5&#45;&gt;Node6</title>
<g id="a_edge6_Node000006_Node000005"><a xlink:title=" ">
<path fill="none" stroke="#9a32cd" stroke-dasharray="5,2" d="M269.63,-196.5C283.73,-182.21 303.09,-162.57 314.32,-151.19"/>
<polygon fill="#9a32cd" stroke="#9a32cd" points="267.25,-193.93 262.72,-203.51 272.23,-198.85 267.25,-193.93"/>
</a>
</g>
<text xml:space="preserve" text-anchor="start" x="299.32" y="-174.5" font-family="Helvetica,sans-Serif" font-size="10.00" fill="grey">renderer</text>
</g>
<!-- Node6&#45;&gt;Node2 -->
<g id="edge5_Node000002_Node000006" class="edge">
<title>Node6&#45;&gt;Node2</title>
<g id="a_edge5_Node000002_Node000006"><a xlink:title=" ">
<path fill="none" stroke="#9a32cd" stroke-dasharray="5,2" d="M294.98,-125.51C277.11,-116.51 253.52,-104.83 232.38,-95 219.39,-88.96 204.7,-82.55 192.88,-77.49"/>
<polygon fill="#9a32cd" stroke="#9a32cd" points="293.17,-128.52 303.68,-129.92 296.33,-122.28 293.17,-128.52"/>
</a>
</g>
<text xml:space="preserve" text-anchor="start" x="270.6" y="-100.5" font-family="Helvetica,sans-Serif" font-size="10.00" fill="grey">m_engine</text>
</g>
</g>
</svg>
</svg>

<style type='text/css'>
<![CDATA[
[data-mouse-over-selected='false'] { opacity: 0.7; }
[data-mouse-over-selected='true']  { opacity: 1.0; }
]]>
</style>
<script type="application/ecmascript"><![CDATA[
document.addEventListener('DOMContentLoaded', (event) => {
  highlightEdges();
  highlightAdjacentNodes();
});
]]></script>
</svg>
