<?xml version="1.0" encoding="UTF-8" standalone="no"?>
<!DOCTYPE svg PUBLIC "-//W3C//DTD SVG 1.1//EN"
 "http://www.w3.org/Graphics/SVG/1.1/DTD/svg11.dtd">
<!-- Generated by graphviz version 13.1.2 (20250808.2320)
 -->
<!-- Title: GameScene Pages: 1 -->
<svg width="364pt" height="176pt"
 viewBox="0.00 0.00 364.00 176.00" xmlns="http://www.w3.org/2000/svg" xmlns:xlink="http://www.w3.org/1999/xlink">
<g id="graph0" class="graph" transform="scale(1 1) rotate(0) translate(4 172)">
<title>GameScene</title>
<!-- Node1 -->
<g id="Node000001" class="node">
<title>Node1</title>
<g id="a_Node000001"><a xlink:title="Contains all of the common fucctions and members needed to render a scene. A down stream Game scene w...">
<polygon fill="#999999" stroke="#666666" points="205.38,-20 135.38,-20 135.38,0 205.38,0 205.38,-20"/>
<text xml:space="preserve" text-anchor="middle" x="170.38" y="-6.5" font-family="Helvetica,sans-Serif" font-size="10.00">GameScene</text>
</a>
</g>
</g>
<!-- Node2 -->
<g id="Node000002" class="node">
<title>Node2</title>
<g id="a_Node000002"><a xlink:href="class_scene_i.html" target="_top" xlink:title=" ">
<polygon fill="white" stroke="#bfbfbf" points="46.75,-94 0,-94 0,-74 46.75,-74 46.75,-94"/>
<text xml:space="preserve" text-anchor="middle" x="23.38" y="-80.5" font-family="Helvetica,sans-Serif" font-size="10.00">SceneI</text>
</a>
</g>
</g>
<!-- Node2&#45;&gt;Node1 -->
<g id="edge1_Node000001_Node000002" class="edge">
<title>Node2&#45;&gt;Node1</title>
<g id="a_edge1_Node000001_Node000002"><a xlink:title=" ">
<path fill="none" stroke="#63b8ff" d="M52.64,-68.67C81.9,-54.34 126.06,-32.71 151.15,-20.42"/>
<polygon fill="#63b8ff" stroke="#63b8ff" points="51.39,-65.38 43.95,-72.92 54.47,-71.67 51.39,-65.38"/>
</a>
</g>
</g>
<!-- Node3 -->
<g id="Node000003" class="node">
<title>Node3</title>
<g id="a_Node000003"><a xlink:href="class_tiny_engine_frame_buffer.html" target="_top" xlink:title="Framebuffer class for rendering primitives and sprites. Contains no scaling yet.">
<polygon fill="white" stroke="#666666" points="182.38,-94 64.38,-94 64.38,-74 182.38,-74 182.38,-94"/>
<text xml:space="preserve" text-anchor="middle" x="123.38" y="-80.5" font-family="Helvetica,sans-Serif" font-size="10.00">TinyEngineFrameBuffer</text>
</a>
</g>
</g>
<!-- Node3&#45;&gt;Node1 -->
<g id="edge2_Node000001_Node000003" class="edge">
<title>Node3&#45;&gt;Node1</title>
<g id="a_edge2_Node000001_Node000003"><a xlink:title=" ">
<path fill="none" stroke="#9a32cd" stroke-dasharray="5,2" d="M126.36,-62.48C128.24,-54.37 131.27,-45.26 136.12,-38 140.84,-30.95 147.99,-24.9 154.53,-20.33"/>
<polygon fill="#9a32cd" stroke="#9a32cd" points="122.95,-61.72 124.58,-72.19 129.83,-62.98 122.95,-61.72"/>
</a>
</g>
<text xml:space="preserve" text-anchor="start" x="139.12" y="-43.5" font-family="Helvetica,sans-Serif" font-size="10.00" fill="grey">m_framebuffer</text>
</g>
<!-- Node4 -->
<g id="Node000004" class="node">
<title>Node4</title>
<g id="a_Node000004"><a xlink:href="class_tiny_engine_renderer_i.html" target="_top" xlink:title=" ">
<polygon fill="white" stroke="#bfbfbf" points="306.12,-168 198.62,-168 198.62,-148 306.12,-148 306.12,-168"/>
<text xml:space="preserve" text-anchor="middle" x="252.38" y="-154.5" font-family="Helvetica,sans-Serif" font-size="10.00">TinyEngineRendererI</text>
</a>
</g>
</g>
<!-- Node4&#45;&gt;Node1 -->
<g id="edge3_Node000001_Node000004" class="edge">
<title>Node4&#45;&gt;Node1</title>
<g id="a_edge3_Node000001_Node000004"><a xlink:title=" ">
<path fill="none" stroke="#9a32cd" stroke-dasharray="5,2" d="M244.69,-137.58C231.53,-104.4 205.96,-40.12 204.38,-38 199.23,-31.12 191.93,-25.01 185.41,-20.35"/>
<polygon fill="#9a32cd" stroke="#9a32cd" points="241.27,-138.46 248.21,-146.46 247.78,-135.88 241.27,-138.46"/>
</a>
</g>
<text xml:space="preserve" text-anchor="start" x="229.83" y="-80.5" font-family="Helvetica,sans-Serif" font-size="10.00" fill="grey">m_renderer</text>
</g>
<!-- Node5 -->
<g id="Node000005" class="node">
<title>Node5</title>
<g id="a_Node000005"><a xlink:href="class_tiny_engine.html" target="_top" xlink:title=" ">
<polygon fill="white" stroke="#bfbfbf" points="355.75,-94 291,-94 291,-74 355.75,-74 355.75,-94"/>
<text xml:space="preserve" text-anchor="middle" x="323.38" y="-80.5" font-family="Helvetica,sans-Serif" font-size="10.00">TinyEngine</text>
</a>
</g>
</g>
<!-- Node4&#45;&gt;Node5 -->
<g id="edge5_Node000005_Node000004" class="edge">
<title>Node4&#45;&gt;Node5</title>
<g id="a_edge5_Node000005_Node000004"><a xlink:title=" ">
<path fill="none" stroke="#9a32cd" stroke-dasharray="5,2" d="M269.63,-139.5C283.73,-125.21 303.09,-105.57 314.32,-94.19"/>
<polygon fill="#9a32cd" stroke="#9a32cd" points="267.25,-136.93 262.72,-146.51 272.23,-141.85 267.25,-136.93"/>
</a>
</g>
<text xml:space="preserve" text-anchor="start" x="299.32" y="-117.5" font-family="Helvetica,sans-Serif" font-size="10.00" fill="grey">renderer</text>
</g>
<!-- Node5&#45;&gt;Node1 -->
<g id="edge4_Node000001_Node000005" class="edge">
<title>Node5&#45;&gt;Node1</title>
<g id="a_edge4_Node000001_Node000005"><a xlink:title=" ">
<path fill="none" stroke="#9a32cd" stroke-dasharray="5,2" d="M294.98,-68.51C277.11,-59.51 253.52,-47.83 232.38,-38 219.39,-31.96 204.7,-25.55 192.88,-20.49"/>
<polygon fill="#9a32cd" stroke="#9a32cd" points="293.17,-71.52 303.68,-72.92 296.33,-65.28 293.17,-71.52"/>
</a>
</g>
<text xml:space="preserve" text-anchor="start" x="270.6" y="-43.5" font-family="Helvetica,sans-Serif" font-size="10.00" fill="grey">m_engine</text>
</g>
</g>
</svg>
