<?xml version="1.0" encoding="UTF-8" standalone="no"?>
<!DOCTYPE svg PUBLIC "-//W3C//DTD SVG 1.1//EN"
 "http://www.w3.org/Graphics/SVG/1.1/DTD/svg11.dtd">
<!-- Generated by graphviz version 13.1.2 (20250808.2320)
 -->
<!-- Title: TinyEngineUI Pages: 1 -->
<svg width="396pt" height="140pt"
 viewBox="0.00 0.00 396.00 140.00" xmlns="http://www.w3.org/2000/svg" xmlns:xlink="http://www.w3.org/1999/xlink">

<svg id="main" version="1.1" xmlns="http://www.w3.org/2000/svg" xmlns:xlink="http://www.w3.org/1999/xlink" xml:space="preserve">

<style type="text/css"><![CDATA[
.node, .edge {opacity: 0.7;}
.node.selected, .edge.selected {opacity: 1;}
.edge:hover path { stroke: red; }
.edge:hover polygon { stroke: red; fill: red; }
]]></style>
<script type="application/ecmascript" xlink:href="svg.min.js"/>
<svg id="graph" class="graph">
<g id="graph0" class="graph" transform="scale(1 1) rotate(0) translate(4 136)">
<title>TinyEngineUI</title>
<!-- Node1 -->
<g id="Node000001" class="node">
<title>Node1</title>
<g id="a_Node000001"><a xlink:title=" ">
<polygon fill="#999999" stroke="#666666" points="248.5,-76 173.25,-76 173.25,-56 248.5,-56 248.5,-76"/>
<text xml:space="preserve" text-anchor="middle" x="210.88" y="-62.5" font-family="Helvetica,sans-Serif" font-size="10.00">TinyEngineUI</text>
</a>
</g>
</g>
<!-- Node3 -->
<g id="Node000003" class="node">
<title>Node3</title>
<g id="a_Node000003"><a xlink:href="class_tiny_engine_u_i_blinking_text_box.html" target="_top" xlink:title=" ">
<polygon fill="white" stroke="#bfbfbf" points="145.75,-20 0,-20 0,0 145.75,0 145.75,-20"/>
<text xml:space="preserve" text-anchor="middle" x="72.88" y="-6.5" font-family="Helvetica,sans-Serif" font-size="10.00">TinyEngineUIBlinkingTextBox</text>
</a>
</g>
</g>
<!-- Node1&#45;&gt;Node3 -->
<g id="edge2_Node000001_Node000003" class="edge">
<title>Node1&#45;&gt;Node3</title>
<g id="a_edge2_Node000001_Node000003"><a xlink:title=" ">
<path fill="none" stroke="#63b8ff" d="M176.12,-51.4C151.47,-41.75 118.99,-29.05 97.1,-20.48"/>
<polygon fill="#63b8ff" stroke="#63b8ff" points="174.84,-54.66 185.43,-55.04 177.39,-48.14 174.84,-54.66"/>
</a>
</g>
</g>
<!-- Node4 -->
<g id="Node000004" class="node">
<title>Node4</title>
<g id="a_Node000004"><a xlink:href="class_tiny_engine_u_i_text.html" target="_top" xlink:title=" ">
<polygon fill="white" stroke="#bfbfbf" points="257.88,-20 163.88,-20 163.88,0 257.88,0 257.88,-20"/>
<text xml:space="preserve" text-anchor="middle" x="210.88" y="-6.5" font-family="Helvetica,sans-Serif" font-size="10.00">TinyEngineUIText</text>
</a>
</g>
</g>
<!-- Node1&#45;&gt;Node4 -->
<g id="edge3_Node000001_Node000004" class="edge">
<title>Node1&#45;&gt;Node4</title>
<g id="a_edge3_Node000001_Node000004"><a xlink:title=" ">
<path fill="none" stroke="#63b8ff" d="M210.88,-44.13C210.88,-35.9 210.88,-26.85 210.88,-20.3"/>
<polygon fill="#63b8ff" stroke="#63b8ff" points="207.38,-44.08 210.88,-54.08 214.38,-44.08 207.38,-44.08"/>
</a>
</g>
</g>
<!-- Node5 -->
<g id="Node000005" class="node">
<title>Node5</title>
<g id="a_Node000005"><a xlink:href="class_tiny_engine_u_i_text_box.html" target="_top" xlink:title=" ">
<polygon fill="white" stroke="#bfbfbf" points="387.5,-20 276.25,-20 276.25,0 387.5,0 387.5,-20"/>
<text xml:space="preserve" text-anchor="middle" x="331.88" y="-6.5" font-family="Helvetica,sans-Serif" font-size="10.00">TinyEngineUITextBox</text>
</a>
</g>
</g>
<!-- Node1&#45;&gt;Node5 -->
<g id="edge4_Node000001_Node000005" class="edge">
<title>Node1&#45;&gt;Node5</title>
<g id="a_edge4_Node000001_Node000005"><a xlink:title=" ">
<path fill="none" stroke="#63b8ff" d="M242.22,-51.01C263.73,-41.41 291.7,-28.93 310.63,-20.48"/>
<polygon fill="#63b8ff" stroke="#63b8ff" points="241.04,-47.71 233.33,-54.98 243.89,-54.1 241.04,-47.71"/>
</a>
</g>
</g>
<!-- Node2 -->
<g id="Node000002" class="node">
<title>Node2</title>
<g id="a_Node000002"><a xlink:href="class_tiny_engine_renderable_i.html" target="_top" xlink:title=" ">
<polygon fill="white" stroke="#bfbfbf" points="269.5,-132 152.25,-132 152.25,-112 269.5,-112 269.5,-132"/>
<text xml:space="preserve" text-anchor="middle" x="210.88" y="-118.5" font-family="Helvetica,sans-Serif" font-size="10.00">TinyEngineRenderableI</text>
</a>
</g>
</g>
<!-- Node2&#45;&gt;Node1 -->
<g id="edge1_Node000001_Node000002" class="edge">
<title>Node2&#45;&gt;Node1</title>
<g id="a_edge1_Node000001_Node000002"><a xlink:title=" ">
<path fill="none" stroke="#63b8ff" d="M210.88,-100.13C210.88,-91.9 210.88,-82.85 210.88,-76.3"/>
<polygon fill="#63b8ff" stroke="#63b8ff" points="207.38,-100.08 210.88,-110.08 214.38,-100.08 207.38,-100.08"/>
</a>
</g>
</g>
</g>
</svg>
</svg>

<style type='text/css'>
<![CDATA[
[data-mouse-over-selected='false'] { opacity: 0.7; }
[data-mouse-over-selected='true']  { opacity: 1.0; }
]]>
</style>
<script type="application/ecmascript"><![CDATA[
document.addEventListener('DOMContentLoaded', (event) => {
  highlightEdges();
  highlightAdjacentNodes();
});
]]></script>
</svg>
