<?xml version="1.0" encoding="UTF-8" standalone="no"?>
<!DOCTYPE svg PUBLIC "-//W3C//DTD SVG 1.1//EN"
 "http://www.w3.org/Graphics/SVG/1.1/DTD/svg11.dtd">
<!-- Generated by graphviz version 13.1.2 (20250808.2320)
 -->
<!-- Title: C:/Users/GRHRehabTech/Desktop/Abinash Work Term/REGI/Firmware/REGI&#45;TinyEngine/inc/pwm&#45;tone.h Pages: 1 -->
<svg width="152pt" height="120pt"
 viewBox="0.00 0.00 152.00 120.00" xmlns="http://www.w3.org/2000/svg" xmlns:xlink="http://www.w3.org/1999/xlink">
<g id="graph0" class="graph" transform="scale(1 1) rotate(0) translate(4 116)">
<title>C:/Users/GRHRehabTech/Desktop/Abinash Work Term/REGI/Firmware/REGI&#45;TinyEngine/inc/pwm&#45;tone.h</title>
<!-- Node1 -->
<g id="Node000001" class="node">
<title>Node1</title>
<g id="a_Node000001"><a xlink:title="PWM Tone generation library for Raspberry Pi Pico. Plays melodies and chirping sounds via PWM through...">
<polygon fill="#999999" stroke="#666666" points="143.75,-112 4.75,-112 4.75,-56 143.75,-56 143.75,-112"/>
<text xml:space="preserve" text-anchor="start" x="12.75" y="-98.5" font-family="Helvetica,sans-Serif" font-size="10.00">C:/Users/GRHRehabTech</text>
<text xml:space="preserve" text-anchor="start" x="12.75" y="-86.5" font-family="Helvetica,sans-Serif" font-size="10.00">/Desktop/Abinash Work</text>
<text xml:space="preserve" text-anchor="start" x="12.75" y="-74.5" font-family="Helvetica,sans-Serif" font-size="10.00"> Term/REGI/Firmware/REGI</text>
<text xml:space="preserve" text-anchor="middle" x="74.25" y="-62.5" font-family="Helvetica,sans-Serif" font-size="10.00">&#45;TinyEngine/inc/pwm&#45;tone.h</text>
</a>
</g>
</g>
<!-- Node2 -->
<g id="Node000002" class="node">
<title>Node2</title>
<g id="a_Node000002"><a xlink:title=" ">
<polygon fill="#e0e0e0" stroke="#999999" points="68.5,-20 0,-20 0,0 68.5,0 68.5,-20"/>
<text xml:space="preserve" text-anchor="middle" x="34.25" y="-6.5" font-family="Helvetica,sans-Serif" font-size="10.00">pico/stdlib.h</text>
</a>
</g>
</g>
<!-- Node1&#45;&gt;Node2 -->
<g id="edge1_Node000001_Node000002" class="edge">
<title>Node1&#45;&gt;Node2</title>
<g id="a_edge1_Node000001_Node000002"><a xlink:title=" ">
<path fill="none" stroke="#63b8ff" d="M59.13,-55.78C54.44,-47.34 49.36,-38.2 45.03,-30.4"/>
<polygon fill="#63b8ff" stroke="#63b8ff" points="48.16,-28.84 40.25,-21.8 42.04,-32.24 48.16,-28.84"/>
</a>
</g>
</g>
<!-- Node3 -->
<g id="Node000003" class="node">
<title>Node3</title>
<g id="a_Node000003"><a xlink:href="pitches_8h.html" target="_top" xlink:title="Pitch values for chromatic notes between C&#45;1 and G9.">
<polygon fill="white" stroke="#666666" points="142.12,-20 86.38,-20 86.38,0 142.12,0 142.12,-20"/>
<text xml:space="preserve" text-anchor="middle" x="114.25" y="-6.5" font-family="Helvetica,sans-Serif" font-size="10.00">pitches.h</text>
</a>
</g>
</g>
<!-- Node1&#45;&gt;Node3 -->
<g id="edge2_Node000001_Node000003" class="edge">
<title>Node1&#45;&gt;Node3</title>
<g id="a_edge2_Node000001_Node000003"><a xlink:title=" ">
<path fill="none" stroke="#63b8ff" d="M89.37,-55.78C94.06,-47.34 99.14,-38.2 103.47,-30.4"/>
<polygon fill="#63b8ff" stroke="#63b8ff" points="106.46,-32.24 108.25,-21.8 100.34,-28.84 106.46,-32.24"/>
</a>
</g>
</g>
</g>
</svg>
