<?xml version="1.0" encoding="UTF-8" standalone="no"?>
<!DOCTYPE svg PUBLIC "-//W3C//DTD SVG 1.1//EN"
 "http://www.w3.org/Graphics/SVG/1.1/DTD/svg11.dtd">
<!-- Generated by graphviz version 13.1.2 (20250808.2320)
 -->
<!-- Title: tonegenerator_t Pages: 1 -->
<svg width="92pt" height="176pt"
 viewBox="0.00 0.00 92.00 176.00" xmlns="http://www.w3.org/2000/svg" xmlns:xlink="http://www.w3.org/1999/xlink">
<g id="graph0" class="graph" transform="scale(1 1) rotate(0) translate(4 172)">
<title>tonegenerator_t</title>
<!-- Node1 -->
<g id="Node000001" class="node">
<title>Node1</title>
<g id="a_Node000001"><a xlink:title="Represents a tone generator.">
<polygon fill="#999999" stroke="#666666" points="83.5,-20 0,-20 0,0 83.5,0 83.5,-20"/>
<text xml:space="preserve" text-anchor="middle" x="41.75" y="-6.5" font-family="Helvetica,sans-Serif" font-size="10.00">tonegenerator_t</text>
</a>
</g>
</g>
<!-- Node2 -->
<g id="Node000002" class="node">
<title>Node2</title>
<g id="a_Node000002"><a xlink:href="structmelody__t.html" target="_top" xlink:title="Represents a musical melody.">
<polygon fill="white" stroke="#666666" points="69.62,-94 13.88,-94 13.88,-74 69.62,-74 69.62,-94"/>
<text xml:space="preserve" text-anchor="middle" x="41.75" y="-80.5" font-family="Helvetica,sans-Serif" font-size="10.00">melody_t</text>
</a>
</g>
</g>
<!-- Node2&#45;&gt;Node1 -->
<g id="edge1_Node000001_Node000002" class="edge">
<title>Node2&#45;&gt;Node1</title>
<g id="a_edge1_Node000001_Node000002"><a xlink:title=" ">
<path fill="none" stroke="#9a32cd" stroke-dasharray="5,2" d="M41.75,-62.18C41.75,-48.29 41.75,-30.71 41.75,-20.19"/>
<polygon fill="#9a32cd" stroke="#9a32cd" points="38.25,-62.07 41.75,-72.07 45.25,-62.07 38.25,-62.07"/>
</a>
</g>
<text xml:space="preserve" text-anchor="start" x="44.75" y="-43.5" font-family="Helvetica,sans-Serif" font-size="10.00" fill="grey">mel</text>
</g>
<!-- Node3 -->
<g id="Node000003" class="node">
<title>Node3</title>
<g id="a_Node000003"><a xlink:href="structnote__t.html" target="_top" xlink:title="Represents a musical note.">
<polygon fill="white" stroke="#666666" points="63.25,-168 20.25,-168 20.25,-148 63.25,-148 63.25,-168"/>
<text xml:space="preserve" text-anchor="middle" x="41.75" y="-154.5" font-family="Helvetica,sans-Serif" font-size="10.00">note_t</text>
</a>
</g>
</g>
<!-- Node3&#45;&gt;Node2 -->
<g id="edge2_Node000002_Node000003" class="edge">
<title>Node3&#45;&gt;Node2</title>
<g id="a_edge2_Node000002_Node000003"><a xlink:title=" ">
<path fill="none" stroke="#9a32cd" stroke-dasharray="5,2" d="M41.75,-136.18C41.75,-122.29 41.75,-104.71 41.75,-94.19"/>
<polygon fill="#9a32cd" stroke="#9a32cd" points="38.25,-136.07 41.75,-146.07 45.25,-136.07 38.25,-136.07"/>
</a>
</g>
<text xml:space="preserve" text-anchor="start" x="44.75" y="-117.5" font-family="Helvetica,sans-Serif" font-size="10.00" fill="grey">notes</text>
</g>
</g>
</svg>
