<?xml version="1.0" encoding="UTF-8" standalone="no"?>
<!DOCTYPE svg PUBLIC "-//W3C//DTD SVG 1.1//EN"
 "http://www.w3.org/Graphics/SVG/1.1/DTD/svg11.dtd">
<!-- Generated by graphviz version 13.1.2 (20250808.2320)
 -->
<!-- Title: c2x Pages: 1 -->
<svg width="88pt" height="102pt"
 viewBox="0.00 0.00 88.00 102.00" xmlns="http://www.w3.org/2000/svg" xmlns:xlink="http://www.w3.org/1999/xlink">
<g id="graph0" class="graph" transform="scale(1 1) rotate(0) translate(4 98)">
<title>c2x</title>
<!-- Node1 -->
<g id="Node000001" class="node">
<title>Node1</title>
<g id="a_Node000001"><a xlink:title=" ">
<polygon fill="#999999" stroke="#666666" points="55.75,-20 24,-20 24,0 55.75,0 55.75,-20"/>
<text xml:space="preserve" text-anchor="middle" x="39.88" y="-6.5" font-family="Helvetica,sans-Serif" font-size="10.00">c2x</text>
</a>
</g>
</g>
<!-- Node2 -->
<g id="Node000002" class="node">
<title>Node2</title>
<g id="a_Node000002"><a xlink:href="structc2v.html" target="_top" xlink:title=" ">
<polygon fill="white" stroke="#bfbfbf" points="31.75,-94 0,-94 0,-74 31.75,-74 31.75,-94"/>
<text xml:space="preserve" text-anchor="middle" x="15.88" y="-80.5" font-family="Helvetica,sans-Serif" font-size="10.00">c2v</text>
</a>
</g>
</g>
<!-- Node2&#45;&gt;Node1 -->
<g id="edge1_Node000001_Node000002" class="edge">
<title>Node2&#45;&gt;Node1</title>
<g id="a_edge1_Node000001_Node000002"><a xlink:title=" ">
<path fill="none" stroke="#9a32cd" stroke-dasharray="5,2" d="M22.53,-63.02C27.21,-49.01 33.23,-30.93 36.81,-20.19"/>
<polygon fill="#9a32cd" stroke="#9a32cd" points="19.33,-61.56 19.49,-72.15 25.97,-63.77 19.33,-61.56"/>
</a>
</g>
<text xml:space="preserve" text-anchor="start" x="33.73" y="-43.5" font-family="Helvetica,sans-Serif" font-size="10.00" fill="grey">p</text>
</g>
<!-- Node3 -->
<g id="Node000003" class="node">
<title>Node3</title>
<g id="a_Node000003"><a xlink:href="structc2r.html" target="_top" xlink:title=" ">
<polygon fill="white" stroke="#bfbfbf" points="79.62,-94 50.12,-94 50.12,-74 79.62,-74 79.62,-94"/>
<text xml:space="preserve" text-anchor="middle" x="64.88" y="-80.5" font-family="Helvetica,sans-Serif" font-size="10.00">c2r</text>
</a>
</g>
</g>
<!-- Node3&#45;&gt;Node1 -->
<g id="edge2_Node000001_Node000003" class="edge">
<title>Node3&#45;&gt;Node1</title>
<g id="a_edge2_Node000001_Node000003"><a xlink:title=" ">
<path fill="none" stroke="#9a32cd" stroke-dasharray="5,2" d="M57.94,-63.02C53.07,-49.01 46.79,-30.93 43.07,-20.19"/>
<polygon fill="#9a32cd" stroke="#9a32cd" points="54.52,-63.86 61.11,-72.16 61.14,-61.56 54.52,-63.86"/>
</a>
</g>
<text xml:space="preserve" text-anchor="start" x="58.35" y="-43.5" font-family="Helvetica,sans-Serif" font-size="10.00" fill="grey">r</text>
</g>
</g>
</svg>
