<?xml version="1.0" encoding="UTF-8" standalone="no"?>
<!DOCTYPE svg PUBLIC "-//W3C//DTD SVG 1.1//EN"
 "http://www.w3.org/Graphics/SVG/1.1/DTD/svg11.dtd">
<!-- Generated by graphviz version 13.1.2 (20250808.2320)
 -->
<!-- Title: C:/Users/GRHRehabTech/Desktop/Abinash Work Term/REGI/Firmware/REGI&#45;TinyEngine/inc/tinyengine_framebuffer.h Pages: 1 -->
<svg width="1547pt" height="560pt"
 viewBox="0.00 0.00 1547.00 560.00" xmlns="http://www.w3.org/2000/svg" xmlns:xlink="http://www.w3.org/1999/xlink">
<g id="graph0" class="graph" transform="scale(1 1) rotate(0) translate(4 556)">
<title>C:/Users/GRHRehabTech/Desktop/Abinash Work Term/REGI/Firmware/REGI&#45;TinyEngine/inc/tinyengine_framebuffer.h</title>
<!-- Node1 -->
<g id="Node000001" class="node">
<title>Node1</title>
<g id="a_Node000001"><a xlink:title="Memory mapped framebuffer. This class contains 1D arrays for rendering 2D graphics....">
<polygon fill="#999999" stroke="#666666" points="918.5,-552 779.5,-552 779.5,-484 918.5,-484 918.5,-552"/>
<text xml:space="preserve" text-anchor="start" x="787.5" y="-538.5" font-family="Helvetica,sans-Serif" font-size="10.00">C:/Users/GRHRehabTech</text>
<text xml:space="preserve" text-anchor="start" x="787.5" y="-526.5" font-family="Helvetica,sans-Serif" font-size="10.00">/Desktop/Abinash Work</text>
<text xml:space="preserve" text-anchor="start" x="787.5" y="-514.5" font-family="Helvetica,sans-Serif" font-size="10.00"> Term/REGI/Firmware/REGI</text>
<text xml:space="preserve" text-anchor="start" x="787.5" y="-502.5" font-family="Helvetica,sans-Serif" font-size="10.00">&#45;TinyEngine/inc/tinyengine</text>
<text xml:space="preserve" text-anchor="middle" x="849" y="-490.5" font-family="Helvetica,sans-Serif" font-size="10.00">_framebuffer.h</text>
</a>
</g>
</g>
<!-- Node2 -->
<g id="Node000002" class="node">
<title>Node2</title>
<g id="a_Node000002"><a xlink:href="_game_scene_8h.html" target="_top" xlink:title="Abstract class for the actual game scene and its assets.">
<polygon fill="white" stroke="#666666" points="490.38,-246 341.62,-246 341.62,-190 490.38,-190 490.38,-246"/>
<text xml:space="preserve" text-anchor="start" x="349.62" y="-232.5" font-family="Helvetica,sans-Serif" font-size="10.00">C:/Users/GRHRehabTech</text>
<text xml:space="preserve" text-anchor="start" x="349.62" y="-220.5" font-family="Helvetica,sans-Serif" font-size="10.00">/Desktop/Abinash Work</text>
<text xml:space="preserve" text-anchor="start" x="349.62" y="-208.5" font-family="Helvetica,sans-Serif" font-size="10.00"> Term/REGI/Firmware/REGI</text>
<text xml:space="preserve" text-anchor="middle" x="416" y="-196.5" font-family="Helvetica,sans-Serif" font-size="10.00">&#45;TinyEngine/inc/GameScene.h</text>
</a>
</g>
</g>
<!-- Node1&#45;&gt;Node2 -->
<g id="edge1_Node000001_Node000002" class="edge">
<title>Node1&#45;&gt;Node2</title>
<g id="a_edge1_Node000001_Node000002"><a xlink:title=" ">
<path fill="none" stroke="#63b8ff" d="M767.95,-515.58C683.63,-511.32 549.56,-496.6 445,-448 387.51,-421.28 362.71,-413.49 336,-356 323.27,-328.59 323.41,-315.48 336,-288 343.56,-271.49 357.24,-257.43 371.17,-246.4"/>
<polygon fill="#63b8ff" stroke="#63b8ff" points="767.59,-519.07 777.74,-516.03 767.92,-512.07 767.59,-519.07"/>
</a>
</g>
</g>
<!-- Node5 -->
<g id="Node000005" class="node">
<title>Node5</title>
<g id="a_Node000005"><a xlink:href=".html" target="_top" xlink:title=" ">
<polygon fill="white" stroke="#666666" points="374.5,-56 187.5,-56 187.5,0 374.5,0 374.5,-56"/>
<text xml:space="preserve" text-anchor="start" x="195.5" y="-42.5" font-family="Helvetica,sans-Serif" font-size="10.00">C:/Users/GRHRehabTech</text>
<text xml:space="preserve" text-anchor="start" x="195.5" y="-30.5" font-family="Helvetica,sans-Serif" font-size="10.00">/Desktop/Abinash Work</text>
<text xml:space="preserve" text-anchor="start" x="195.5" y="-18.5" font-family="Helvetica,sans-Serif" font-size="10.00"> Term/REGI/Firmware/REGI</text>
<text xml:space="preserve" text-anchor="middle" x="281" y="-6.5" font-family="Helvetica,sans-Serif" font-size="10.00">&#45;TinyEngine/src/scenes/DinoGame.cpp</text>
</a>
</g>
</g>
<!-- Node1&#45;&gt;Node5 -->
<g id="edge40_Node000001_Node000005" class="edge">
<title>Node1&#45;&gt;Node5</title>
<g id="a_edge40_Node000001_Node000005"><a xlink:title=" ">
<path fill="none" stroke="#63b8ff" d="M767.85,-511.77C646.73,-502.95 425.26,-482.61 354,-448 281.9,-412.98 224,-403.15 224,-323 224,-323 224,-323 224,-217 224,-157.66 250.33,-92.13 267.2,-56.24"/>
<polygon fill="#63b8ff" stroke="#63b8ff" points="767.51,-515.26 777.74,-512.48 768.02,-508.28 767.51,-515.26"/>
</a>
</g>
</g>
<!-- Node7 -->
<g id="Node000007" class="node">
<title>Node7</title>
<g id="a_Node000007"><a xlink:href=".html" target="_top" xlink:title=" ">
<polygon fill="white" stroke="#666666" points="1029.25,-56 834.75,-56 834.75,0 1029.25,0 1029.25,-56"/>
<text xml:space="preserve" text-anchor="start" x="842.75" y="-42.5" font-family="Helvetica,sans-Serif" font-size="10.00">C:/Users/GRHRehabTech</text>
<text xml:space="preserve" text-anchor="start" x="842.75" y="-30.5" font-family="Helvetica,sans-Serif" font-size="10.00">/Desktop/Abinash Work</text>
<text xml:space="preserve" text-anchor="start" x="842.75" y="-18.5" font-family="Helvetica,sans-Serif" font-size="10.00"> Term/REGI/Firmware/REGI</text>
<text xml:space="preserve" text-anchor="middle" x="932" y="-6.5" font-family="Helvetica,sans-Serif" font-size="10.00">&#45;TinyEngine/src/scenes/SnakeGame.cpp</text>
</a>
</g>
</g>
<!-- Node1&#45;&gt;Node7 -->
<g id="edge41_Node000001_Node000007" class="edge">
<title>Node1&#45;&gt;Node7</title>
<g id="a_edge41_Node000001_Node000007"><a xlink:title=" ">
<path fill="none" stroke="#63b8ff" d="M929.99,-511.46C1057.65,-501.9 1299.35,-480.17 1379,-448 1462.67,-414.2 1539,-413.24 1539,-323 1539,-323 1539,-323 1539,-217 1539,-111.64 1201.11,-58.85 1029.53,-38.83"/>
<polygon fill="#63b8ff" stroke="#63b8ff" points="929.97,-507.96 920.26,-512.19 930.49,-514.94 929.97,-507.96"/>
</a>
</g>
</g>
<!-- Node8 -->
<g id="Node000008" class="node">
<title>Node8</title>
<g id="a_Node000008"><a xlink:href=".html" target="_top" xlink:title=" ">
<polygon fill="white" stroke="#666666" points="196,-448 0,-448 0,-392 196,-392 196,-448"/>
<text xml:space="preserve" text-anchor="start" x="8" y="-434.5" font-family="Helvetica,sans-Serif" font-size="10.00">C:/Users/GRHRehabTech</text>
<text xml:space="preserve" text-anchor="start" x="8" y="-422.5" font-family="Helvetica,sans-Serif" font-size="10.00">/Desktop/Abinash Work</text>
<text xml:space="preserve" text-anchor="start" x="8" y="-410.5" font-family="Helvetica,sans-Serif" font-size="10.00"> Term/REGI/Firmware/REGI</text>
<text xml:space="preserve" text-anchor="middle" x="98" y="-398.5" font-family="Helvetica,sans-Serif" font-size="10.00">&#45;TinyEngine/inc/TinyEngineRenderableI.h</text>
</a>
</g>
</g>
<!-- Node1&#45;&gt;Node8 -->
<g id="edge8_Node000001_Node000008" class="edge">
<title>Node1&#45;&gt;Node8</title>
<g id="a_edge8_Node000001_Node000008"><a xlink:title=" ">
<path fill="none" stroke="#63b8ff" d="M767.66,-511.59C645.8,-502.73 408.89,-482.56 210,-448 205.57,-447.23 201.05,-446.39 196.49,-445.49"/>
<polygon fill="#63b8ff" stroke="#63b8ff" points="767.36,-515.08 777.58,-512.31 767.86,-508.1 767.36,-515.08"/>
</a>
</g>
</g>
<!-- Node11 -->
<g id="Node000011" class="node">
<title>Node11</title>
<g id="a_Node000011"><a xlink:href=".html" target="_top" xlink:title=" ">
<polygon fill="white" stroke="#666666" points="918.5,-448 779.5,-448 779.5,-392 918.5,-392 918.5,-448"/>
<text xml:space="preserve" text-anchor="start" x="787.5" y="-434.5" font-family="Helvetica,sans-Serif" font-size="10.00">C:/Users/GRHRehabTech</text>
<text xml:space="preserve" text-anchor="start" x="787.5" y="-422.5" font-family="Helvetica,sans-Serif" font-size="10.00">/Desktop/Abinash Work</text>
<text xml:space="preserve" text-anchor="start" x="787.5" y="-410.5" font-family="Helvetica,sans-Serif" font-size="10.00"> Term/REGI/Firmware/REGI</text>
<text xml:space="preserve" text-anchor="middle" x="849" y="-398.5" font-family="Helvetica,sans-Serif" font-size="10.00">&#45;TinyEngine/inc/tinyengine.h</text>
</a>
</g>
</g>
<!-- Node1&#45;&gt;Node11 -->
<g id="edge12_Node000001_Node000011" class="edge">
<title>Node1&#45;&gt;Node11</title>
<g id="a_edge12_Node000001_Node000011"><a xlink:title=" ">
<path fill="none" stroke="#63b8ff" d="M842.26,-472.27C842.19,-464.06 842.39,-455.72 842.85,-448.21"/>
<polygon fill="#63b8ff" stroke="#63b8ff" points="838.76,-472.27 842.5,-482.18 845.76,-472.1 838.76,-472.27"/>
</a>
</g>
</g>
<!-- Node13 -->
<g id="Node000013" class="node">
<title>Node13</title>
<g id="a_Node000013"><a xlink:href=".html" target="_top" xlink:title=" ">
<polygon fill="white" stroke="#666666" points="1296.5,-246 1157.5,-246 1157.5,-190 1296.5,-190 1296.5,-246"/>
<text xml:space="preserve" text-anchor="start" x="1165.5" y="-232.5" font-family="Helvetica,sans-Serif" font-size="10.00">C:/Users/GRHRehabTech</text>
<text xml:space="preserve" text-anchor="start" x="1165.5" y="-220.5" font-family="Helvetica,sans-Serif" font-size="10.00">/Desktop/Abinash Work</text>
<text xml:space="preserve" text-anchor="start" x="1165.5" y="-208.5" font-family="Helvetica,sans-Serif" font-size="10.00"> Term/REGI/Firmware/REGI</text>
<text xml:space="preserve" text-anchor="middle" x="1227" y="-196.5" font-family="Helvetica,sans-Serif" font-size="10.00">&#45;TinyEngine/src/Game.cpp</text>
</a>
</g>
</g>
<!-- Node1&#45;&gt;Node13 -->
<g id="edge39_Node000001_Node000013" class="edge">
<title>Node1&#45;&gt;Node13</title>
<g id="a_edge39_Node000001_Node000013"><a xlink:title=" ">
<path fill="none" stroke="#63b8ff" d="M930.11,-508.76C1085.48,-491.11 1415.64,-443.9 1482,-356 1500.21,-331.88 1500.83,-311.64 1482,-288 1437.39,-232.01 1393.9,-271.45 1325,-252 1315.84,-249.42 1306.28,-246.49 1296.86,-243.47"/>
<polygon fill="#63b8ff" stroke="#63b8ff" points="929.83,-505.27 920.28,-509.86 930.61,-512.23 929.83,-505.27"/>
</a>
</g>
</g>
<!-- Node15 -->
<g id="Node000015" class="node">
<title>Node15</title>
<g id="a_Node000015"><a xlink:href=".html" target="_top" xlink:title=" ">
<polygon fill="white" stroke="#666666" points="1315.5,-356 1176.5,-356 1176.5,-288 1315.5,-288 1315.5,-356"/>
<text xml:space="preserve" text-anchor="start" x="1184.5" y="-342.5" font-family="Helvetica,sans-Serif" font-size="10.00">C:/Users/GRHRehabTech</text>
<text xml:space="preserve" text-anchor="start" x="1184.5" y="-330.5" font-family="Helvetica,sans-Serif" font-size="10.00">/Desktop/Abinash Work</text>
<text xml:space="preserve" text-anchor="start" x="1184.5" y="-318.5" font-family="Helvetica,sans-Serif" font-size="10.00"> Term/REGI/Firmware/REGI</text>
<text xml:space="preserve" text-anchor="start" x="1184.5" y="-306.5" font-family="Helvetica,sans-Serif" font-size="10.00">&#45;TinyEngine/inc/tinyengine</text>
<text xml:space="preserve" text-anchor="middle" x="1246" y="-294.5" font-family="Helvetica,sans-Serif" font-size="10.00">_renderer.h</text>
</a>
</g>
</g>
<!-- Node1&#45;&gt;Node15 -->
<g id="edge30_Node000001_Node000015" class="edge">
<title>Node1&#45;&gt;Node15</title>
<g id="a_edge30_Node000001_Node000015"><a xlink:title=" ">
<path fill="none" stroke="#63b8ff" d="M927.31,-478.73C1000.3,-443.07 1108.05,-390.41 1177.65,-356.4"/>
<polygon fill="#63b8ff" stroke="#63b8ff" points="926.05,-475.45 918.61,-482.99 929.13,-481.74 926.05,-475.45"/>
</a>
</g>
</g>
<!-- Node16 -->
<g id="Node000016" class="node">
<title>Node16</title>
<g id="a_Node000016"><a xlink:href=".html" target="_top" xlink:title=" ">
<polygon fill="white" stroke="#666666" points="1472.5,-356 1333.5,-356 1333.5,-288 1472.5,-288 1472.5,-356"/>
<text xml:space="preserve" text-anchor="start" x="1341.5" y="-342.5" font-family="Helvetica,sans-Serif" font-size="10.00">C:/Users/GRHRehabTech</text>
<text xml:space="preserve" text-anchor="start" x="1341.5" y="-330.5" font-family="Helvetica,sans-Serif" font-size="10.00">/Desktop/Abinash Work</text>
<text xml:space="preserve" text-anchor="start" x="1341.5" y="-318.5" font-family="Helvetica,sans-Serif" font-size="10.00"> Term/REGI/Firmware/REGI</text>
<text xml:space="preserve" text-anchor="start" x="1341.5" y="-306.5" font-family="Helvetica,sans-Serif" font-size="10.00">&#45;TinyEngine/inc/tinyengine</text>
<text xml:space="preserve" text-anchor="middle" x="1403" y="-294.5" font-family="Helvetica,sans-Serif" font-size="10.00">_renderer_dvi.h</text>
</a>
</g>
</g>
<!-- Node1&#45;&gt;Node16 -->
<g id="edge31_Node000001_Node000016" class="edge">
<title>Node1&#45;&gt;Node16</title>
<g id="a_edge31_Node000001_Node000016"><a xlink:title=" ">
<path fill="none" stroke="#63b8ff" d="M929.33,-492.11C1024.56,-462.09 1187.66,-409.01 1325,-356 1327.74,-354.94 1330.53,-353.85 1333.35,-352.73"/>
<polygon fill="#63b8ff" stroke="#63b8ff" points="928.56,-488.69 920.07,-495.03 930.66,-495.36 928.56,-488.69"/>
</a>
</g>
</g>
<!-- Node21 -->
<g id="Node000021" class="node">
<title>Node21</title>
<g id="a_Node000021"><a xlink:href=".html" target="_top" xlink:title=" ">
<polygon fill="white" stroke="#666666" points="483.5,-356 344.5,-356 344.5,-288 483.5,-288 483.5,-356"/>
<text xml:space="preserve" text-anchor="start" x="352.5" y="-342.5" font-family="Helvetica,sans-Serif" font-size="10.00">C:/Users/GRHRehabTech</text>
<text xml:space="preserve" text-anchor="start" x="352.5" y="-330.5" font-family="Helvetica,sans-Serif" font-size="10.00">/Desktop/Abinash Work</text>
<text xml:space="preserve" text-anchor="start" x="352.5" y="-318.5" font-family="Helvetica,sans-Serif" font-size="10.00"> Term/REGI/Firmware/REGI</text>
<text xml:space="preserve" text-anchor="start" x="352.5" y="-306.5" font-family="Helvetica,sans-Serif" font-size="10.00">&#45;TinyEngine/inc/tinyengine</text>
<text xml:space="preserve" text-anchor="middle" x="414" y="-294.5" font-family="Helvetica,sans-Serif" font-size="10.00">_sprite.h</text>
</a>
</g>
</g>
<!-- Node1&#45;&gt;Node21 -->
<g id="edge32_Node000001_Node000021" class="edge">
<title>Node1&#45;&gt;Node21</title>
<g id="a_edge32_Node000001_Node000021"><a xlink:title=" ">
<path fill="none" stroke="#63b8ff" d="M767.82,-508.3C678.35,-497.47 541.34,-476.8 498,-448 464.58,-425.78 441.03,-385.27 427.54,-356.39"/>
<polygon fill="#63b8ff" stroke="#63b8ff" points="767.18,-511.75 777.53,-509.46 768.01,-504.8 767.18,-511.75"/>
</a>
</g>
</g>
<!-- Node22 -->
<g id="Node000022" class="node">
<title>Node22</title>
<g id="a_Node000022"><a xlink:href=".html" target="_top" xlink:title=" ">
<polygon fill="white" stroke="#666666" points="685.5,-252 546.5,-252 546.5,-184 685.5,-184 685.5,-252"/>
<text xml:space="preserve" text-anchor="start" x="554.5" y="-238.5" font-family="Helvetica,sans-Serif" font-size="10.00">C:/Users/GRHRehabTech</text>
<text xml:space="preserve" text-anchor="start" x="554.5" y="-226.5" font-family="Helvetica,sans-Serif" font-size="10.00">/Desktop/Abinash Work</text>
<text xml:space="preserve" text-anchor="start" x="554.5" y="-214.5" font-family="Helvetica,sans-Serif" font-size="10.00"> Term/REGI/Firmware/REGI</text>
<text xml:space="preserve" text-anchor="start" x="554.5" y="-202.5" font-family="Helvetica,sans-Serif" font-size="10.00">&#45;TinyEngine/src/tinyengine</text>
<text xml:space="preserve" text-anchor="middle" x="616" y="-190.5" font-family="Helvetica,sans-Serif" font-size="10.00">_framebuffer.cpp</text>
</a>
</g>
</g>
<!-- Node1&#45;&gt;Node22 -->
<g id="edge42_Node000001_Node000022" class="edge">
<title>Node1&#45;&gt;Node22</title>
<g id="a_edge42_Node000001_Node000022"><a xlink:title=" ">
<path fill="none" stroke="#63b8ff" d="M768.21,-497.33C698.31,-475.57 601.51,-432.94 556,-356 540.61,-329.99 545.41,-316.31 556,-288 560.89,-274.92 569.51,-262.67 578.72,-252.24"/>
<polygon fill="#63b8ff" stroke="#63b8ff" points="767.15,-500.67 777.74,-500.21 769.18,-493.97 767.15,-500.67"/>
</a>
</g>
</g>
<!-- Node3 -->
<g id="Node000003" class="node">
<title>Node3</title>
<g id="a_Node000003"><a xlink:href=".html" target="_top" xlink:title=" ">
<polygon fill="white" stroke="#666666" points="682,-148 522,-148 522,-92 682,-92 682,-148"/>
<text xml:space="preserve" text-anchor="start" x="530" y="-134.5" font-family="Helvetica,sans-Serif" font-size="10.00">C:/Users/GRHRehabTech</text>
<text xml:space="preserve" text-anchor="start" x="530" y="-122.5" font-family="Helvetica,sans-Serif" font-size="10.00">/Desktop/Abinash Work</text>
<text xml:space="preserve" text-anchor="start" x="530" y="-110.5" font-family="Helvetica,sans-Serif" font-size="10.00"> Term/REGI/Firmware/REGI</text>
<text xml:space="preserve" text-anchor="middle" x="602" y="-98.5" font-family="Helvetica,sans-Serif" font-size="10.00">&#45;TinyEngine/src/GameScene.cpp</text>
</a>
</g>
</g>
<!-- Node2&#45;&gt;Node3 -->
<g id="edge2_Node000002_Node000003" class="edge">
<title>Node2&#45;&gt;Node3</title>
<g id="a_edge2_Node000002_Node000003"><a xlink:title=" ">
<path fill="none" stroke="#63b8ff" d="M479.01,-184.48C501.67,-172.78 526.99,-159.71 548.74,-148.49"/>
<polygon fill="#63b8ff" stroke="#63b8ff" points="477.43,-181.36 470.15,-189.05 480.64,-187.58 477.43,-181.36"/>
</a>
</g>
</g>
<!-- Node4 -->
<g id="Node000004" class="node">
<title>Node4</title>
<g id="a_Node000004"><a xlink:href=".html" target="_top" xlink:title=" ">
<polygon fill="white" stroke="#666666" points="504.25,-148 327.75,-148 327.75,-92 504.25,-92 504.25,-148"/>
<text xml:space="preserve" text-anchor="start" x="335.75" y="-134.5" font-family="Helvetica,sans-Serif" font-size="10.00">C:/Users/GRHRehabTech</text>
<text xml:space="preserve" text-anchor="start" x="335.75" y="-122.5" font-family="Helvetica,sans-Serif" font-size="10.00">/Desktop/Abinash Work</text>
<text xml:space="preserve" text-anchor="start" x="335.75" y="-110.5" font-family="Helvetica,sans-Serif" font-size="10.00"> Term/REGI/Firmware/REGI</text>
<text xml:space="preserve" text-anchor="middle" x="416" y="-98.5" font-family="Helvetica,sans-Serif" font-size="10.00">&#45;TinyEngine/src/scenes/DinoGame.h</text>
</a>
</g>
</g>
<!-- Node2&#45;&gt;Node4 -->
<g id="edge3_Node000002_Node000004" class="edge">
<title>Node2&#45;&gt;Node4</title>
<g id="a_edge3_Node000002_Node000004"><a xlink:title=" ">
<path fill="none" stroke="#63b8ff" d="M416,-178.32C416,-168.27 416,-157.65 416,-148.32"/>
<polygon fill="#63b8ff" stroke="#63b8ff" points="412.5,-178.23 416,-188.23 419.5,-178.23 412.5,-178.23"/>
</a>
</g>
</g>
<!-- Node6 -->
<g id="Node000006" class="node">
<title>Node6</title>
<g id="a_Node000006"><a xlink:href=".html" target="_top" xlink:title=" ">
<polygon fill="white" stroke="#666666" points="884,-148 700,-148 700,-92 884,-92 884,-148"/>
<text xml:space="preserve" text-anchor="start" x="708" y="-134.5" font-family="Helvetica,sans-Serif" font-size="10.00">C:/Users/GRHRehabTech</text>
<text xml:space="preserve" text-anchor="start" x="708" y="-122.5" font-family="Helvetica,sans-Serif" font-size="10.00">/Desktop/Abinash Work</text>
<text xml:space="preserve" text-anchor="start" x="708" y="-110.5" font-family="Helvetica,sans-Serif" font-size="10.00"> Term/REGI/Firmware/REGI</text>
<text xml:space="preserve" text-anchor="middle" x="792" y="-98.5" font-family="Helvetica,sans-Serif" font-size="10.00">&#45;TinyEngine/src/scenes/SnakeGame.h</text>
</a>
</g>
</g>
<!-- Node2&#45;&gt;Node6 -->
<g id="edge5_Node000002_Node000006" class="edge">
<title>Node2&#45;&gt;Node6</title>
<g id="a_edge5_Node000002_Node000006"><a xlink:title=" ">
<path fill="none" stroke="#63b8ff" d="M496.66,-186.15C499.12,-185.4 501.58,-184.68 504,-184 585.47,-161.06 608.51,-166.94 691,-148 693.83,-147.35 696.7,-146.68 699.6,-145.98"/>
<polygon fill="#63b8ff" stroke="#63b8ff" points="495.68,-182.79 487.22,-189.16 497.81,-189.46 495.68,-182.79"/>
</a>
</g>
</g>
<!-- Node4&#45;&gt;Node5 -->
<g id="edge4_Node000004_Node000005" class="edge">
<title>Node4&#45;&gt;Node5</title>
<g id="a_edge4_Node000004_Node000005"><a xlink:title=" ">
<path fill="none" stroke="#63b8ff" d="M365.52,-85.34C351.16,-75.77 335.7,-65.47 321.99,-56.32"/>
<polygon fill="#63b8ff" stroke="#63b8ff" points="363.24,-88.03 373.5,-90.67 367.12,-82.21 363.24,-88.03"/>
</a>
</g>
</g>
<!-- Node6&#45;&gt;Node5 -->
<g id="edge6_Node000006_Node000005" class="edge">
<title>Node6&#45;&gt;Node5</title>
<g id="a_edge6_Node000006_Node000005"><a xlink:title=" ">
<path fill="none" stroke="#63b8ff" d="M688.36,-91.53C575.32,-68.25 455.5,-51 374.74,-40.45"/>
<polygon fill="#63b8ff" stroke="#63b8ff" points="687.64,-94.96 698.15,-93.57 689.07,-88.1 687.64,-94.96"/>
</a>
</g>
</g>
<!-- Node6&#45;&gt;Node7 -->
<g id="edge7_Node000006_Node000007" class="edge">
<title>Node6&#45;&gt;Node7</title>
<g id="a_edge7_Node000006_Node000007"><a xlink:title=" ">
<path fill="none" stroke="#63b8ff" d="M844.35,-85.34C859.24,-75.77 875.27,-65.47 889.5,-56.32"/>
<polygon fill="#63b8ff" stroke="#63b8ff" points="842.56,-82.34 836.04,-90.69 846.34,-88.23 842.56,-82.34"/>
</a>
</g>
</g>
<!-- Node9 -->
<g id="Node000009" class="node">
<title>Node9</title>
<g id="a_Node000009"><a xlink:href=".html" target="_top" xlink:title=" ">
<polygon fill="white" stroke="#666666" points="175,-350 21,-350 21,-294 175,-294 175,-350"/>
<text xml:space="preserve" text-anchor="start" x="29" y="-336.5" font-family="Helvetica,sans-Serif" font-size="10.00">C:/Users/GRHRehabTech</text>
<text xml:space="preserve" text-anchor="start" x="29" y="-324.5" font-family="Helvetica,sans-Serif" font-size="10.00">/Desktop/Abinash Work</text>
<text xml:space="preserve" text-anchor="start" x="29" y="-312.5" font-family="Helvetica,sans-Serif" font-size="10.00"> Term/REGI/Firmware/REGI</text>
<text xml:space="preserve" text-anchor="middle" x="98" y="-300.5" font-family="Helvetica,sans-Serif" font-size="10.00">&#45;TinyEngine/inc/TinyEngineUI.h</text>
</a>
</g>
</g>
<!-- Node8&#45;&gt;Node9 -->
<g id="edge9_Node000008_Node000009" class="edge">
<title>Node8&#45;&gt;Node9</title>
<g id="a_edge9_Node000008_Node000009"><a xlink:title=" ">
<path fill="none" stroke="#63b8ff" d="M98,-380.32C98,-370.27 98,-359.65 98,-350.32"/>
<polygon fill="#63b8ff" stroke="#63b8ff" points="94.5,-380.23 98,-390.23 101.5,-380.23 94.5,-380.23"/>
</a>
</g>
</g>
<!-- Node9&#45;&gt;Node5 -->
<g id="edge11_Node000009_Node000005" class="edge">
<title>Node9&#45;&gt;Node5</title>
<g id="a_edge11_Node000009_Node000005"><a xlink:title=" ">
<path fill="none" stroke="#63b8ff" d="M46.73,-286.19C36.31,-276.45 26.78,-264.93 21,-252 8.67,-224.41 6.07,-210.28 21,-184 57.21,-120.26 131.16,-79.96 190.97,-56.48"/>
<polygon fill="#63b8ff" stroke="#63b8ff" points="44.25,-288.67 54.08,-292.62 48.86,-283.4 44.25,-288.67"/>
</a>
</g>
</g>
<!-- Node10 -->
<g id="Node000010" class="node">
<title>Node10</title>
<g id="a_Node000010"><a xlink:href=".html" target="_top" xlink:title=" ">
<polygon fill="white" stroke="#666666" points="195.62,-246 30.38,-246 30.38,-190 195.62,-190 195.62,-246"/>
<text xml:space="preserve" text-anchor="start" x="38.38" y="-232.5" font-family="Helvetica,sans-Serif" font-size="10.00">C:/Users/GRHRehabTech</text>
<text xml:space="preserve" text-anchor="start" x="38.38" y="-220.5" font-family="Helvetica,sans-Serif" font-size="10.00">/Desktop/Abinash Work</text>
<text xml:space="preserve" text-anchor="start" x="38.38" y="-208.5" font-family="Helvetica,sans-Serif" font-size="10.00"> Term/REGI/Firmware/REGI</text>
<text xml:space="preserve" text-anchor="middle" x="113" y="-196.5" font-family="Helvetica,sans-Serif" font-size="10.00">&#45;TinyEngine/src/TinyEngineUI.cpp</text>
</a>
</g>
</g>
<!-- Node9&#45;&gt;Node10 -->
<g id="edge10_Node000009_Node000010" class="edge">
<title>Node9&#45;&gt;Node10</title>
<g id="a_edge10_Node000009_Node000010"><a xlink:title=" ">
<path fill="none" stroke="#63b8ff" d="M103.66,-282.54C105.42,-270.52 107.34,-257.51 108.97,-246.41"/>
<polygon fill="#63b8ff" stroke="#63b8ff" points="100.23,-281.77 102.24,-292.17 107.16,-282.78 100.23,-281.77"/>
</a>
</g>
</g>
<!-- Node11&#45;&gt;Node1 -->
<g id="edge16_Node000011_Node000001" class="edge">
<title>Node11&#45;&gt;Node1</title>
<g id="a_edge16_Node000011_Node000001"><a xlink:title=" ">
<path fill="none" stroke="#63b8ff" d="M855.63,-459.56C855.83,-467.55 855.78,-475.91 855.46,-483.69"/>
<polygon fill="#63b8ff" stroke="#63b8ff" points="859.14,-459.57 855.22,-449.73 852.14,-459.87 859.14,-459.57"/>
</a>
</g>
</g>
<!-- Node11&#45;&gt;Node5 -->
<g id="edge25_Node000011_Node000005" class="edge">
<title>Node11&#45;&gt;Node5</title>
<g id="a_edge25_Node000011_Node000005"><a xlink:title=" ">
<path fill="none" stroke="#63b8ff" d="M768.24,-419.2C640.75,-417.89 400.69,-408.3 336,-356 245.34,-282.71 263.7,-120.76 275.32,-56.27"/>
<polygon fill="#63b8ff" stroke="#63b8ff" points="767.92,-422.7 777.95,-419.28 767.98,-415.7 767.92,-422.7"/>
</a>
</g>
</g>
<!-- Node11&#45;&gt;Node7 -->
<g id="edge26_Node000011_Node000007" class="edge">
<title>Node11&#45;&gt;Node7</title>
<g id="a_edge26_Node000011_Node000007"><a xlink:title=" ">
<path fill="none" stroke="#63b8ff" d="M909.66,-384.69C919.09,-376.55 927.51,-366.99 933,-356 983.27,-255.46 955.18,-114.83 939.87,-56.27"/>
<polygon fill="#63b8ff" stroke="#63b8ff" points="907.61,-381.85 901.96,-390.81 911.97,-387.32 907.61,-381.85"/>
</a>
</g>
</g>
<!-- Node12 -->
<g id="Node000012" class="node">
<title>Node12</title>
<g id="a_Node000012"><a xlink:href=".html" target="_top" xlink:title=" ">
<polygon fill="white" stroke="#666666" points="1119.5,-356 980.5,-356 980.5,-288 1119.5,-288 1119.5,-356"/>
<text xml:space="preserve" text-anchor="start" x="988.5" y="-342.5" font-family="Helvetica,sans-Serif" font-size="10.00">C:/Users/GRHRehabTech</text>
<text xml:space="preserve" text-anchor="start" x="988.5" y="-330.5" font-family="Helvetica,sans-Serif" font-size="10.00">/Desktop/Abinash Work</text>
<text xml:space="preserve" text-anchor="start" x="988.5" y="-318.5" font-family="Helvetica,sans-Serif" font-size="10.00"> Term/REGI/Firmware/REGI</text>
<text xml:space="preserve" text-anchor="start" x="988.5" y="-306.5" font-family="Helvetica,sans-Serif" font-size="10.00">&#45;TinyEngine/inc/tinyengine</text>
<text xml:space="preserve" text-anchor="middle" x="1050" y="-294.5" font-family="Helvetica,sans-Serif" font-size="10.00">_audio.h</text>
</a>
</g>
</g>
<!-- Node11&#45;&gt;Node12 -->
<g id="edge13_Node000011_Node000012" class="edge">
<title>Node11&#45;&gt;Node12</title>
<g id="a_edge13_Node000011_Node000012"><a xlink:title=" ">
<path fill="none" stroke="#63b8ff" d="M916.51,-386.76C936.97,-376.99 959.48,-366.23 980.09,-356.39"/>
<polygon fill="#63b8ff" stroke="#63b8ff" points="915.21,-383.5 907.7,-390.97 918.23,-389.81 915.21,-383.5"/>
</a>
</g>
</g>
<!-- Node11&#45;&gt;Node13 -->
<g id="edge23_Node000011_Node000013" class="edge">
<title>Node11&#45;&gt;Node13</title>
<g id="a_edge23_Node000011_Node000013"><a xlink:title=" ">
<path fill="none" stroke="#63b8ff" d="M930.07,-417.81C990.19,-413.16 1071.37,-398.52 1129,-356 1157.03,-335.31 1147.92,-316.47 1168,-288 1178.17,-273.57 1190.74,-258.56 1201.65,-246.24"/>
<polygon fill="#63b8ff" stroke="#63b8ff" points="929.96,-414.31 920.23,-418.49 930.44,-421.29 929.96,-414.31"/>
</a>
</g>
</g>
<!-- Node14 -->
<g id="Node000014" class="node">
<title>Node14</title>
<g id="a_Node000014"><a xlink:href=".html" target="_top" xlink:title=" ">
<polygon fill="white" stroke="#666666" points="1119.5,-252 980.5,-252 980.5,-184 1119.5,-184 1119.5,-252"/>
<text xml:space="preserve" text-anchor="start" x="988.5" y="-238.5" font-family="Helvetica,sans-Serif" font-size="10.00">C:/Users/GRHRehabTech</text>
<text xml:space="preserve" text-anchor="start" x="988.5" y="-226.5" font-family="Helvetica,sans-Serif" font-size="10.00">/Desktop/Abinash Work</text>
<text xml:space="preserve" text-anchor="start" x="988.5" y="-214.5" font-family="Helvetica,sans-Serif" font-size="10.00"> Term/REGI/Firmware/REGI</text>
<text xml:space="preserve" text-anchor="start" x="988.5" y="-202.5" font-family="Helvetica,sans-Serif" font-size="10.00">&#45;TinyEngine/src/tinyengine</text>
<text xml:space="preserve" text-anchor="middle" x="1050" y="-190.5" font-family="Helvetica,sans-Serif" font-size="10.00">_audio.cpp</text>
</a>
</g>
</g>
<!-- Node11&#45;&gt;Node14 -->
<g id="edge28_Node000011_Node000014" class="edge">
<title>Node11&#45;&gt;Node14</title>
<g id="a_edge28_Node000011_Node000014"><a xlink:title=" ">
<path fill="none" stroke="#63b8ff" d="M768.27,-408.56C706.16,-398.67 627.7,-381.51 608,-356 589.53,-332.08 588.25,-310.88 608,-288 643.82,-246.51 797.85,-260.51 852,-252 894.69,-245.29 942.48,-237.34 980.41,-230.92"/>
<polygon fill="#63b8ff" stroke="#63b8ff" points="767.35,-411.96 777.77,-410.03 768.43,-405.04 767.35,-411.96"/>
</a>
</g>
</g>
<!-- Node11&#45;&gt;Node15 -->
<g id="edge17_Node000011_Node000015" class="edge">
<title>Node11&#45;&gt;Node15</title>
<g id="a_edge17_Node000011_Node000015"><a xlink:title=" ">
<path fill="none" stroke="#63b8ff" d="M930.04,-406.71C993.79,-396.08 1084.5,-378.83 1162,-356 1166.66,-354.63 1171.42,-353.1 1176.19,-351.48"/>
<polygon fill="#63b8ff" stroke="#63b8ff" points="929.64,-403.23 920.35,-408.31 930.78,-410.14 929.64,-403.23"/>
</a>
</g>
</g>
<!-- Node11&#45;&gt;Node16 -->
<g id="edge19_Node000011_Node000016" class="edge">
<title>Node11&#45;&gt;Node16</title>
<g id="a_edge19_Node000011_Node000016"><a xlink:title=" ">
<path fill="none" stroke="#63b8ff" d="M930.07,-414.9C1025.86,-408.55 1189.36,-392.94 1325,-356 1327.7,-355.27 1330.42,-354.46 1333.16,-353.59"/>
<polygon fill="#63b8ff" stroke="#63b8ff" points="929.99,-411.4 920.24,-415.54 930.44,-418.39 929.99,-411.4"/>
</a>
</g>
</g>
<!-- Node18 -->
<g id="Node000018" class="node">
<title>Node18</title>
<g id="a_Node000018"><a xlink:href=".html" target="_top" xlink:title=" ">
<polygon fill="white" stroke="#666666" points="755.5,-350 616.5,-350 616.5,-294 755.5,-294 755.5,-350"/>
<text xml:space="preserve" text-anchor="start" x="624.5" y="-336.5" font-family="Helvetica,sans-Serif" font-size="10.00">C:/Users/GRHRehabTech</text>
<text xml:space="preserve" text-anchor="start" x="624.5" y="-324.5" font-family="Helvetica,sans-Serif" font-size="10.00">/Desktop/Abinash Work</text>
<text xml:space="preserve" text-anchor="start" x="624.5" y="-312.5" font-family="Helvetica,sans-Serif" font-size="10.00"> Term/REGI/Firmware/REGI</text>
<text xml:space="preserve" text-anchor="middle" x="686" y="-300.5" font-family="Helvetica,sans-Serif" font-size="10.00">&#45;TinyEngine/src/main.cpp</text>
</a>
</g>
</g>
<!-- Node11&#45;&gt;Node18 -->
<g id="edge24_Node000011_Node000018" class="edge">
<title>Node11&#45;&gt;Node18</title>
<g id="a_edge24_Node000011_Node000018"><a xlink:title=" ">
<path fill="none" stroke="#63b8ff" d="M792.98,-386.01C773.33,-374.43 751.48,-361.56 732.67,-350.49"/>
<polygon fill="#63b8ff" stroke="#63b8ff" points="791.03,-388.92 801.42,-390.98 794.58,-382.89 791.03,-388.92"/>
</a>
</g>
</g>
<!-- Node19 -->
<g id="Node000019" class="node">
<title>Node19</title>
<g id="a_Node000019"><a xlink:href=".html" target="_top" xlink:title=" ">
<polygon fill="white" stroke="#666666" points="924.12,-350 773.88,-350 773.88,-294 924.12,-294 924.12,-350"/>
<text xml:space="preserve" text-anchor="start" x="781.88" y="-336.5" font-family="Helvetica,sans-Serif" font-size="10.00">C:/Users/GRHRehabTech</text>
<text xml:space="preserve" text-anchor="start" x="781.88" y="-324.5" font-family="Helvetica,sans-Serif" font-size="10.00">/Desktop/Abinash Work</text>
<text xml:space="preserve" text-anchor="start" x="781.88" y="-312.5" font-family="Helvetica,sans-Serif" font-size="10.00"> Term/REGI/Firmware/REGI</text>
<text xml:space="preserve" text-anchor="middle" x="849" y="-300.5" font-family="Helvetica,sans-Serif" font-size="10.00">&#45;TinyEngine/src/tinyengine.cpp</text>
</a>
</g>
</g>
<!-- Node11&#45;&gt;Node19 -->
<g id="edge27_Node000011_Node000019" class="edge">
<title>Node11&#45;&gt;Node19</title>
<g id="a_edge27_Node000011_Node000019"><a xlink:title=" ">
<path fill="none" stroke="#63b8ff" d="M849,-380.32C849,-370.27 849,-359.65 849,-350.32"/>
<polygon fill="#63b8ff" stroke="#63b8ff" points="845.5,-380.23 849,-390.23 852.5,-380.23 845.5,-380.23"/>
</a>
</g>
</g>
<!-- Node20 -->
<g id="Node000020" class="node">
<title>Node20</title>
<g id="a_Node000020"><a xlink:href=".html" target="_top" xlink:title=" ">
<polygon fill="white" stroke="#666666" points="842.5,-252 703.5,-252 703.5,-184 842.5,-184 842.5,-252"/>
<text xml:space="preserve" text-anchor="start" x="711.5" y="-238.5" font-family="Helvetica,sans-Serif" font-size="10.00">C:/Users/GRHRehabTech</text>
<text xml:space="preserve" text-anchor="start" x="711.5" y="-226.5" font-family="Helvetica,sans-Serif" font-size="10.00">/Desktop/Abinash Work</text>
<text xml:space="preserve" text-anchor="start" x="711.5" y="-214.5" font-family="Helvetica,sans-Serif" font-size="10.00"> Term/REGI/Firmware/REGI</text>
<text xml:space="preserve" text-anchor="start" x="711.5" y="-202.5" font-family="Helvetica,sans-Serif" font-size="10.00">&#45;TinyEngine/src/tinyengine</text>
<text xml:space="preserve" text-anchor="middle" x="773" y="-190.5" font-family="Helvetica,sans-Serif" font-size="10.00">_sprite.cpp</text>
</a>
</g>
</g>
<!-- Node11&#45;&gt;Node20 -->
<g id="edge29_Node000011_Node000020" class="edge">
<title>Node11&#45;&gt;Node20</title>
<g id="a_edge29_Node000011_Node000020"><a xlink:title=" ">
<path fill="none" stroke="#63b8ff" d="M767.66,-411.45C695.49,-402.87 597.9,-386 574,-356 555.17,-332.36 555.93,-312.23 574,-288 607.54,-243.02 642.19,-270.96 695,-252 697.77,-251.01 700.58,-249.97 703.41,-248.89"/>
<polygon fill="#63b8ff" stroke="#63b8ff" points="767.17,-414.92 777.5,-412.58 767.97,-407.96 767.17,-414.92"/>
</a>
</g>
</g>
<!-- Node12&#45;&gt;Node13 -->
<g id="edge14_Node000012_Node000013" class="edge">
<title>Node12&#45;&gt;Node13</title>
<g id="a_edge14_Node000012_Node000013"><a xlink:title=" ">
<path fill="none" stroke="#63b8ff" d="M1117.91,-281.87C1138.48,-270.01 1160.62,-257.25 1179.55,-246.35"/>
<polygon fill="#63b8ff" stroke="#63b8ff" points="1116.18,-278.82 1109.27,-286.85 1119.68,-284.89 1116.18,-278.82"/>
</a>
</g>
</g>
<!-- Node12&#45;&gt;Node14 -->
<g id="edge15_Node000012_Node000014" class="edge">
<title>Node12&#45;&gt;Node14</title>
<g id="a_edge15_Node000012_Node000014"><a xlink:title=" ">
<path fill="none" stroke="#63b8ff" d="M1050,-276.18C1050,-268.22 1050,-260.05 1050,-252.47"/>
<polygon fill="#63b8ff" stroke="#63b8ff" points="1046.5,-276.09 1050,-286.09 1053.5,-276.09 1046.5,-276.09"/>
</a>
</g>
</g>
<!-- Node15&#45;&gt;Node13 -->
<g id="edge18_Node000015_Node000013" class="edge">
<title>Node15&#45;&gt;Node13</title>
<g id="a_edge18_Node000015_Node000013"><a xlink:title=" ">
<path fill="none" stroke="#63b8ff" d="M1237.68,-276.32C1235.78,-266.11 1233.81,-255.57 1232.09,-246.35"/>
<polygon fill="#63b8ff" stroke="#63b8ff" points="1234.23,-276.92 1239.5,-286.11 1241.11,-275.64 1234.23,-276.92"/>
</a>
</g>
</g>
<!-- Node16&#45;&gt;Node2 -->
<g id="edge20_Node000016_Node000002" class="edge">
<title>Node16&#45;&gt;Node2</title>
<g id="a_edge20_Node000016_Node000002"><a xlink:title=" ">
<path fill="none" stroke="#63b8ff" d="M1322.05,-287.6C981.36,-212.61 880.23,-305.45 538,-252 522.5,-249.58 506.14,-245.94 490.61,-241.94"/>
<polygon fill="#63b8ff" stroke="#63b8ff" points="1321.23,-291.01 1331.75,-289.78 1322.76,-284.18 1321.23,-291.01"/>
</a>
</g>
</g>
<!-- Node16&#45;&gt;Node13 -->
<g id="edge21_Node000016_Node000013" class="edge">
<title>Node16&#45;&gt;Node13</title>
<g id="a_edge21_Node000016_Node000013"><a xlink:title=" ">
<path fill="none" stroke="#63b8ff" d="M1335.48,-281.87C1315.02,-270.01 1293,-257.25 1274.19,-246.35"/>
<polygon fill="#63b8ff" stroke="#63b8ff" points="1333.65,-284.86 1344.06,-286.84 1337.16,-278.8 1333.65,-284.86"/>
</a>
</g>
</g>
<!-- Node17 -->
<g id="Node000017" class="node">
<title>Node17</title>
<g id="a_Node000017"><a xlink:href=".html" target="_top" xlink:title=" ">
<polygon fill="white" stroke="#666666" points="1472.5,-252 1333.5,-252 1333.5,-184 1472.5,-184 1472.5,-252"/>
<text xml:space="preserve" text-anchor="start" x="1341.5" y="-238.5" font-family="Helvetica,sans-Serif" font-size="10.00">C:/Users/GRHRehabTech</text>
<text xml:space="preserve" text-anchor="start" x="1341.5" y="-226.5" font-family="Helvetica,sans-Serif" font-size="10.00">/Desktop/Abinash Work</text>
<text xml:space="preserve" text-anchor="start" x="1341.5" y="-214.5" font-family="Helvetica,sans-Serif" font-size="10.00"> Term/REGI/Firmware/REGI</text>
<text xml:space="preserve" text-anchor="start" x="1341.5" y="-202.5" font-family="Helvetica,sans-Serif" font-size="10.00">&#45;TinyEngine/src/tinyengine</text>
<text xml:space="preserve" text-anchor="middle" x="1403" y="-190.5" font-family="Helvetica,sans-Serif" font-size="10.00">_renderer_dvi.cpp</text>
</a>
</g>
</g>
<!-- Node16&#45;&gt;Node17 -->
<g id="edge22_Node000016_Node000017" class="edge">
<title>Node16&#45;&gt;Node17</title>
<g id="a_edge22_Node000016_Node000017"><a xlink:title=" ">
<path fill="none" stroke="#63b8ff" d="M1403,-276.18C1403,-268.22 1403,-260.05 1403,-252.47"/>
<polygon fill="#63b8ff" stroke="#63b8ff" points="1399.5,-276.09 1403,-286.09 1406.5,-276.09 1399.5,-276.09"/>
</a>
</g>
</g>
<!-- Node21&#45;&gt;Node2 -->
<g id="edge33_Node000021_Node000002" class="edge">
<title>Node21&#45;&gt;Node2</title>
<g id="a_edge33_Node000021_Node000002"><a xlink:title=" ">
<path fill="none" stroke="#63b8ff" d="M414.88,-276.32C415.08,-266.11 415.28,-255.57 415.46,-246.35"/>
<polygon fill="#63b8ff" stroke="#63b8ff" points="411.38,-276.02 414.68,-286.09 418.38,-276.16 411.38,-276.02"/>
</a>
</g>
</g>
<!-- Node21&#45;&gt;Node5 -->
<g id="edge35_Node000021_Node000005" class="edge">
<title>Node21&#45;&gt;Node5</title>
<g id="a_edge35_Node000021_Node000005"><a xlink:title=" ">
<path fill="none" stroke="#63b8ff" d="M356.48,-280.24C347.56,-271.77 339.25,-262.27 333,-252 294.74,-189.19 284.62,-100.7 281.95,-56.45"/>
<polygon fill="#63b8ff" stroke="#63b8ff" points="353.89,-282.62 363.67,-286.71 358.57,-277.42 353.89,-282.62"/>
</a>
</g>
</g>
<!-- Node21&#45;&gt;Node7 -->
<g id="edge36_Node000021_Node000007" class="edge">
<title>Node21&#45;&gt;Node7</title>
<g id="a_edge36_Node000021_Node000007"><a xlink:title=" ">
<path fill="none" stroke="#63b8ff" d="M469.97,-280.53C480.26,-271.76 490.44,-262.07 499,-252 521.57,-225.46 508.77,-202.96 538,-184 671.04,-97.68 769.45,-247.42 893,-148 920.44,-125.92 928.77,-84.13 931.19,-56.42"/>
<polygon fill="#63b8ff" stroke="#63b8ff" points="467.97,-277.64 462.5,-286.71 472.43,-283.03 467.97,-277.64"/>
</a>
</g>
</g>
<!-- Node21&#45;&gt;Node13 -->
<g id="edge34_Node000021_Node000013" class="edge">
<title>Node21&#45;&gt;Node13</title>
<g id="a_edge34_Node000021_Node000013"><a xlink:title=" ">
<path fill="none" stroke="#63b8ff" d="M494.83,-305.4C529.55,-299.18 570.65,-292.46 608,-288 838.47,-260.5 901.38,-297.41 1129,-252 1138.24,-250.16 1147.82,-247.68 1157.2,-244.91"/>
<polygon fill="#63b8ff" stroke="#63b8ff" points="494.5,-301.9 485.29,-307.13 495.75,-308.79 494.5,-301.9"/>
</a>
</g>
</g>
<!-- Node21&#45;&gt;Node20 -->
<g id="edge38_Node000021_Node000020" class="edge">
<title>Node21&#45;&gt;Node20</title>
<g id="a_edge38_Node000021_Node000020"><a xlink:title=" ">
<path fill="none" stroke="#63b8ff" d="M494.77,-298.65C508.5,-294.99 522.64,-291.32 536,-288 606.32,-270.54 626.03,-274.2 695,-252 697.66,-251.14 700.35,-250.23 703.06,-249.28"/>
<polygon fill="#63b8ff" stroke="#63b8ff" points="494.08,-295.21 485.33,-301.17 495.9,-301.97 494.08,-295.21"/>
</a>
</g>
</g>
<!-- Node21&#45;&gt;Node22 -->
<g id="edge37_Node000021_Node000022" class="edge">
<title>Node21&#45;&gt;Node22</title>
<g id="a_edge37_Node000021_Node000022"><a xlink:title=" ">
<path fill="none" stroke="#63b8ff" d="M490.24,-282.5C509.8,-272.62 530.69,-262.08 549.71,-252.47"/>
<polygon fill="#63b8ff" stroke="#63b8ff" points="488.84,-279.29 481.49,-286.92 492,-285.54 488.84,-279.29"/>
</a>
</g>
</g>
</g>
</svg>
