<?xml version="1.0" encoding="UTF-8" standalone="no"?>
<!DOCTYPE svg PUBLIC "-//W3C//DTD SVG 1.1//EN"
 "http://www.w3.org/Graphics/SVG/1.1/DTD/svg11.dtd">
<!-- Generated by graphviz version 13.1.2 (20250808.2320)
 -->
<!-- Title: src/scenes/DinoGame.cpp Pages: 1 -->
<svg width="3190pt" height="376pt"
 viewBox="0.00 0.00 3190.00 376.00" xmlns="http://www.w3.org/2000/svg" xmlns:xlink="http://www.w3.org/1999/xlink">
<g id="graph0" class="graph" transform="scale(1 1) rotate(0) translate(4 372)">
<title>src/scenes/DinoGame.cpp</title>
<!-- Node1 -->
<g id="Node000001" class="node">
<title>Node1</title>
<g id="a_Node000001"><a xlink:title=" ">
<polygon fill="#999999" stroke="#666666" points="2223.5,-368 2091.25,-368 2091.25,-348 2223.5,-348 2223.5,-368"/>
<text xml:space="preserve" text-anchor="middle" x="2157.38" y="-354.5" font-family="Helvetica,sans-Serif" font-size="10.00">src/scenes/DinoGame.cpp</text>
</a>
</g>
</g>
<!-- Node2 -->
<g id="Node000002" class="node">
<title>Node2</title>
<g id="a_Node000002"><a xlink:href="_dino_game_8h.html" target="_top" xlink:title=" ">
<polygon fill="white" stroke="#666666" points="1603.75,-312 1533,-312 1533,-292 1603.75,-292 1603.75,-312"/>
<text xml:space="preserve" text-anchor="middle" x="1568.38" y="-298.5" font-family="Helvetica,sans-Serif" font-size="10.00">DinoGame.h</text>
</a>
</g>
</g>
<!-- Node1&#45;&gt;Node2 -->
<g id="edge1_Node000001_Node000002" class="edge">
<title>Node1&#45;&gt;Node2</title>
<g id="a_edge1_Node000001_Node000002"><a xlink:title=" ">
<path fill="none" stroke="#63b8ff" d="M2090.95,-353.97C1990.34,-348.83 1793.14,-336.65 1615.57,-312.14"/>
<polygon fill="#63b8ff" stroke="#63b8ff" points="1616.06,-308.67 1605.67,-310.75 1615.09,-315.61 1616.06,-308.67"/>
</a>
</g>
</g>
<!-- Node5 -->
<g id="Node000005" class="node">
<title>Node5</title>
<g id="a_Node000005"><a xlink:href="tinyengine__sprite_8h.html" target="_top" xlink:title=" ">
<polygon fill="white" stroke="#666666" points="1554.25,-200 1456.5,-200 1456.5,-180 1554.25,-180 1554.25,-200"/>
<text xml:space="preserve" text-anchor="middle" x="1505.38" y="-186.5" font-family="Helvetica,sans-Serif" font-size="10.00">tinyengine_sprite.h</text>
</a>
</g>
</g>
<!-- Node1&#45;&gt;Node5 -->
<g id="edge35_Node000001_Node000005" class="edge">
<title>Node1&#45;&gt;Node5</title>
<g id="a_edge35_Node000001_Node000005"><a xlink:title=" ">
<path fill="none" stroke="#63b8ff" d="M2090.8,-356.87C1936.7,-355.91 1565.4,-349.69 1524.38,-312 1496.8,-286.67 1498.17,-238.93 1501.71,-211.6"/>
<polygon fill="#63b8ff" stroke="#63b8ff" points="1505.16,-212.23 1503.22,-201.81 1498.24,-211.16 1505.16,-212.23"/>
</a>
</g>
</g>
<!-- Node6 -->
<g id="Node000006" class="node">
<title>Node6</title>
<g id="a_Node000006"><a xlink:href="tinyengine__framebuffer_8h.html" target="_top" xlink:title=" ">
<polygon fill="white" stroke="#666666" points="1489.62,-144 1367.12,-144 1367.12,-124 1489.62,-124 1489.62,-144"/>
<text xml:space="preserve" text-anchor="middle" x="1428.38" y="-130.5" font-family="Helvetica,sans-Serif" font-size="10.00">tinyengine_framebuffer.h</text>
</a>
</g>
</g>
<!-- Node1&#45;&gt;Node6 -->
<g id="edge34_Node000001_Node000006" class="edge">
<title>Node1&#45;&gt;Node6</title>
<g id="a_edge34_Node000001_Node000006"><a xlink:title=" ">
<path fill="none" stroke="#63b8ff" d="M2090.84,-356.04C1934.73,-353.27 1554.49,-343.35 1506.38,-312 1452.03,-276.59 1435.29,-193.84 1430.34,-155.36"/>
<polygon fill="#63b8ff" stroke="#63b8ff" points="1433.85,-155.18 1429.25,-145.64 1426.89,-155.97 1433.85,-155.18"/>
</a>
</g>
</g>
<!-- Node7 -->
<g id="Node000007" class="node">
<title>Node7</title>
<g id="a_Node000007"><a xlink:href="tinyengine_8h.html" target="_top" xlink:title=" ">
<polygon fill="white" stroke="#666666" points="1206.62,-88 1138.12,-88 1138.12,-68 1206.62,-68 1206.62,-88"/>
<text xml:space="preserve" text-anchor="middle" x="1172.38" y="-74.5" font-family="Helvetica,sans-Serif" font-size="10.00">tinyengine.h</text>
</a>
</g>
</g>
<!-- Node1&#45;&gt;Node7 -->
<g id="edge33_Node000001_Node000007" class="edge">
<title>Node1&#45;&gt;Node7</title>
<g id="a_edge33_Node000001_Node000007"><a xlink:title=" ">
<path fill="none" stroke="#63b8ff" d="M2090.86,-355.71C1885.04,-350.85 1272.38,-329.45 1272.38,-247 1272.38,-247 1272.38,-247 1272.38,-189 1272.38,-146.06 1230.13,-112.47 1200.56,-94.22"/>
<polygon fill="#63b8ff" stroke="#63b8ff" points="1202.41,-91.24 1192.02,-89.18 1198.85,-97.27 1202.41,-91.24"/>
</a>
</g>
</g>
<!-- Node8 -->
<g id="Node000008" class="node">
<title>Node8</title>
<g id="a_Node000008"><a xlink:title=" ">
<polygon fill="#e0e0e0" stroke="#999999" points="1859.62,-26 1791.12,-26 1791.12,-6 1859.62,-6 1859.62,-26"/>
<text xml:space="preserve" text-anchor="middle" x="1825.38" y="-12.5" font-family="Helvetica,sans-Serif" font-size="10.00">pico/stdlib.h</text>
</a>
</g>
</g>
<!-- Node1&#45;&gt;Node8 -->
<g id="edge56_Node000001_Node000008" class="edge">
<title>Node1&#45;&gt;Node8</title>
<g id="a_edge56_Node000001_Node000008"><a xlink:title=" ">
<path fill="none" stroke="#63b8ff" d="M2091.07,-355.44C1996.44,-352.18 1828.36,-342.19 1776.38,-312 1745.32,-293.96 1728.38,-282.91 1728.38,-247 1728.38,-247 1728.38,-247 1728.38,-133 1728.38,-88.62 1770.68,-52.26 1799.41,-32.69"/>
<polygon fill="#63b8ff" stroke="#63b8ff" points="1801.19,-35.71 1807.65,-27.31 1797.37,-29.85 1801.19,-35.71"/>
</a>
</g>
</g>
<!-- Node15 -->
<g id="Node000015" class="node">
<title>Node15</title>
<g id="a_Node000015"><a xlink:title=" ">
<polygon fill="#e0e0e0" stroke="#999999" points="2698.12,-26 2602.62,-26 2602.62,-6 2698.12,-6 2698.12,-26"/>
<text xml:space="preserve" text-anchor="middle" x="2650.38" y="-12.5" font-family="Helvetica,sans-Serif" font-size="10.00">hardware/clocks.h</text>
</a>
</g>
</g>
<!-- Node1&#45;&gt;Node15 -->
<g id="edge58_Node000001_Node000015" class="edge">
<title>Node1&#45;&gt;Node15</title>
<g id="a_edge58_Node000001_Node000015"><a xlink:title=" ">
<path fill="none" stroke="#63b8ff" d="M2223.74,-355.93C2381.97,-352.91 2772.01,-342.42 2822.38,-312 2851.41,-294.46 2862.38,-280.92 2862.38,-247 2862.38,-247 2862.38,-247 2862.38,-133 2862.38,-62.95 2772.19,-34.93 2709.46,-23.91"/>
<polygon fill="#63b8ff" stroke="#63b8ff" points="2710.41,-20.52 2699.97,-22.35 2709.27,-27.43 2710.41,-20.52"/>
</a>
</g>
</g>
<!-- Node18 -->
<g id="Node000018" class="node">
<title>Node18</title>
<g id="a_Node000018"><a xlink:title=" ">
<polygon fill="#e0e0e0" stroke="#999999" points="1963.25,-26 1877.5,-26 1877.5,-6 1963.25,-6 1963.25,-26"/>
<text xml:space="preserve" text-anchor="middle" x="1920.38" y="-12.5" font-family="Helvetica,sans-Serif" font-size="10.00">hardware/dma.h</text>
</a>
</g>
</g>
<!-- Node1&#45;&gt;Node18 -->
<g id="edge54_Node000001_Node000018" class="edge">
<title>Node1&#45;&gt;Node18</title>
<g id="a_edge54_Node000001_Node000018"><a xlink:title=" ">
<path fill="none" stroke="#63b8ff" d="M2091.06,-355.43C2002.13,-352.18 1850.11,-342.24 1804.38,-312 1776.46,-293.54 1766.38,-280.46 1766.38,-247 1766.38,-247 1766.38,-247 1766.38,-133 1766.38,-78.27 1829.21,-46.13 1874.6,-30.05"/>
<polygon fill="#63b8ff" stroke="#63b8ff" points="1875.64,-33.39 1884,-26.88 1873.4,-26.76 1875.64,-33.39"/>
</a>
</g>
</g>
<!-- Node19 -->
<g id="Node000019" class="node">
<title>Node19</title>
<g id="a_Node000019"><a xlink:title=" ">
<polygon fill="#e0e0e0" stroke="#999999" points="2065.88,-26 1980.88,-26 1980.88,-6 2065.88,-6 2065.88,-26"/>
<text xml:space="preserve" text-anchor="middle" x="2023.38" y="-12.5" font-family="Helvetica,sans-Serif" font-size="10.00">hardware/gpio.h</text>
</a>
</g>
</g>
<!-- Node1&#45;&gt;Node19 -->
<g id="edge36_Node000001_Node000019" class="edge">
<title>Node1&#45;&gt;Node19</title>
<g id="a_edge36_Node000001_Node000019"><a xlink:title=" ">
<path fill="none" stroke="#63b8ff" d="M2090.98,-356.39C2005.24,-354.23 1862.36,-345.52 1823.38,-312 1800.55,-292.38 1804.38,-277.1 1804.38,-247 1804.38,-247 1804.38,-247 1804.38,-133 1804.38,-93.43 1917.46,-50.83 1981.1,-29.99"/>
<polygon fill="#63b8ff" stroke="#63b8ff" points="1982.11,-33.34 1990.56,-26.94 1979.97,-26.68 1982.11,-33.34"/>
</a>
</g>
</g>
<!-- Node29 -->
<g id="Node000029" class="node">
<title>Node29</title>
<g id="a_Node000029"><a xlink:title=" ">
<polygon fill="#e0e0e0" stroke="#999999" points="2036.88,-200 1993.88,-200 1993.88,-180 2036.88,-180 2036.88,-200"/>
<text xml:space="preserve" text-anchor="middle" x="2015.38" y="-186.5" font-family="Helvetica,sans-Serif" font-size="10.00">vector</text>
</a>
</g>
</g>
<!-- Node1&#45;&gt;Node29 -->
<g id="edge37_Node000001_Node000029" class="edge">
<title>Node1&#45;&gt;Node29</title>
<g id="a_edge37_Node000001_Node000029"><a xlink:title=" ">
<path fill="none" stroke="#63b8ff" d="M2174.1,-347.6C2186.12,-339.8 2201.38,-327.5 2208.38,-312 2222.27,-281.21 2229.37,-262.46 2208.38,-236 2188.81,-211.35 2098.67,-198.95 2048.8,-193.88"/>
<polygon fill="#63b8ff" stroke="#63b8ff" points="2049.14,-190.4 2038.85,-192.92 2048.47,-197.37 2049.14,-190.4"/>
</a>
</g>
</g>
<!-- Node30 -->
<g id="Node000030" class="node">
<title>Node30</title>
<g id="a_Node000030"><a xlink:title=" ">
<polygon fill="#e0e0e0" stroke="#999999" points="1953.62,-312 1909.12,-312 1909.12,-292 1953.62,-292 1953.62,-312"/>
<text xml:space="preserve" text-anchor="middle" x="1931.38" y="-298.5" font-family="Helvetica,sans-Serif" font-size="10.00">cstdlib</text>
</a>
</g>
</g>
<!-- Node1&#45;&gt;Node30 -->
<g id="edge31_Node000001_Node000030" class="edge">
<title>Node1&#45;&gt;Node30</title>
<g id="a_edge31_Node000001_Node000030"><a xlink:title=" ">
<path fill="none" stroke="#63b8ff" d="M2113.06,-347.51C2075.82,-339.37 2020.96,-327 1964.88,-312.55"/>
<polygon fill="#63b8ff" stroke="#63b8ff" points="1966.05,-309.24 1955.49,-310.11 1964.29,-316.02 1966.05,-309.24"/>
</a>
</g>
</g>
<!-- Node31 -->
<g id="Node000031" class="node">
<title>Node31</title>
<g id="a_Node000031"><a xlink:title=" ">
<polygon fill="#e0e0e0" stroke="#999999" points="2015.25,-312 1971.5,-312 1971.5,-292 2015.25,-292 2015.25,-312"/>
<text xml:space="preserve" text-anchor="middle" x="1993.38" y="-298.5" font-family="Helvetica,sans-Serif" font-size="10.00">format</text>
</a>
</g>
</g>
<!-- Node1&#45;&gt;Node31 -->
<g id="edge32_Node000001_Node000031" class="edge">
<title>Node1&#45;&gt;Node31</title>
<g id="a_edge32_Node000001_Node000031"><a xlink:title=" ">
<path fill="none" stroke="#63b8ff" d="M2128.81,-347.59C2100.25,-338.19 2056.36,-323.74 2026.34,-313.85"/>
<polygon fill="#63b8ff" stroke="#63b8ff" points="2027.6,-310.59 2017.01,-310.78 2025.41,-317.23 2027.6,-310.59"/>
</a>
</g>
</g>
<!-- Node32 -->
<g id="Node000032" class="node">
<title>Node32</title>
<g id="a_Node000032"><a xlink:title=" ">
<polygon fill="#e0e0e0" stroke="#999999" points="2097.38,-312 2033.38,-312 2033.38,-292 2097.38,-292 2097.38,-312"/>
<text xml:space="preserve" text-anchor="middle" x="2065.38" y="-298.5" font-family="Helvetica,sans-Serif" font-size="10.00">pico/rand.h</text>
</a>
</g>
</g>
<!-- Node1&#45;&gt;Node32 -->
<g id="edge38_Node000001_Node000032" class="edge">
<title>Node1&#45;&gt;Node32</title>
<g id="a_edge38_Node000001_Node000032"><a xlink:title=" ">
<path fill="none" stroke="#63b8ff" d="M2141.35,-347.59C2127.58,-339.51 2107.47,-327.71 2091.4,-318.27"/>
<polygon fill="#63b8ff" stroke="#63b8ff" points="2093.23,-315.29 2082.83,-313.25 2089.68,-321.33 2093.23,-315.29"/>
</a>
</g>
</g>
<!-- Node33 -->
<g id="Node000033" class="node">
<title>Node33</title>
<g id="a_Node000033"><a xlink:href="_snake_game_8h.html" target="_top" xlink:title=" ">
<polygon fill="white" stroke="#666666" points="1700.5,-312 1622.25,-312 1622.25,-292 1700.5,-292 1700.5,-312"/>
<text xml:space="preserve" text-anchor="middle" x="1661.38" y="-298.5" font-family="Helvetica,sans-Serif" font-size="10.00">SnakeGame.h</text>
</a>
</g>
</g>
<!-- Node1&#45;&gt;Node33 -->
<g id="edge39_Node000001_Node000033" class="edge">
<title>Node1&#45;&gt;Node33</title>
<g id="a_edge39_Node000001_Node000033"><a xlink:title=" ">
<path fill="none" stroke="#63b8ff" d="M2090.79,-351.64C2003.97,-344.32 1847.48,-330.04 1714.38,-312 1713.7,-311.91 1713.01,-311.81 1712.32,-311.72"/>
<polygon fill="#63b8ff" stroke="#63b8ff" points="1712.88,-308.26 1702.48,-310.25 1711.85,-315.19 1712.88,-308.26"/>
</a>
</g>
</g>
<!-- Node36 -->
<g id="Node000036" class="node">
<title>Node36</title>
<g id="a_Node000036"><a xlink:href="cute__c2_8h.html" target="_top" xlink:title=" ">
<polygon fill="white" stroke="#666666" points="1890.75,-312 1832,-312 1832,-292 1890.75,-292 1890.75,-312"/>
<text xml:space="preserve" text-anchor="middle" x="1861.38" y="-298.5" font-family="Helvetica,sans-Serif" font-size="10.00">cute_c2.h</text>
</a>
</g>
</g>
<!-- Node1&#45;&gt;Node36 -->
<g id="edge42_Node000001_Node000036" class="edge">
<title>Node1&#45;&gt;Node36</title>
<g id="a_edge42_Node000001_Node000036"><a xlink:title=" ">
<path fill="none" stroke="#63b8ff" d="M2098,-347.53C2048.35,-339.4 1975.4,-326.97 1902.39,-312.32"/>
<polygon fill="#63b8ff" stroke="#63b8ff" points="1903.13,-308.9 1892.63,-310.34 1901.74,-315.76 1903.13,-308.9"/>
</a>
</g>
</g>
<!-- Node39 -->
<g id="Node000039" class="node">
<title>Node39</title>
<g id="a_Node000039"><a xlink:title=" ">
<polygon fill="#e0e0e0" stroke="#999999" points="2307.75,-312 2255,-312 2255,-292 2307.75,-292 2307.75,-312"/>
<text xml:space="preserve" text-anchor="middle" x="2281.38" y="-298.5" font-family="Helvetica,sans-Serif" font-size="10.00">malloc.h</text>
</a>
</g>
</g>
<!-- Node1&#45;&gt;Node39 -->
<g id="edge45_Node000001_Node000039" class="edge">
<title>Node1&#45;&gt;Node39</title>
<g id="a_edge45_Node000001_Node000039"><a xlink:title=" ">
<path fill="none" stroke="#63b8ff" d="M2178.97,-347.59C2198.33,-339.17 2226.98,-326.69 2249.06,-317.07"/>
<polygon fill="#63b8ff" stroke="#63b8ff" points="2250.45,-320.29 2258.22,-313.08 2247.65,-313.87 2250.45,-320.29"/>
</a>
</g>
</g>
<!-- Node40 -->
<g id="Node000040" class="node">
<title>Node40</title>
<g id="a_Node000040"><a xlink:href="cactus__sprite_8h.html" target="_top" xlink:title=" ">
<polygon fill="white" stroke="#666666" points="2408.75,-312 2326,-312 2326,-292 2408.75,-292 2408.75,-312"/>
<text xml:space="preserve" text-anchor="middle" x="2367.38" y="-298.5" font-family="Helvetica,sans-Serif" font-size="10.00">cactus_sprite.h</text>
</a>
</g>
</g>
<!-- Node1&#45;&gt;Node40 -->
<g id="edge46_Node000001_Node000040" class="edge">
<title>Node1&#45;&gt;Node40</title>
<g id="a_edge46_Node000001_Node000040"><a xlink:title=" ">
<path fill="none" stroke="#63b8ff" d="M2193.95,-347.59C2228.82,-338.63 2281.52,-325.08 2319.67,-315.27"/>
<polygon fill="#63b8ff" stroke="#63b8ff" points="2320.23,-318.74 2329.04,-312.86 2318.49,-311.96 2320.23,-318.74"/>
</a>
</g>
</g>
<!-- Node41 -->
<g id="Node000041" class="node">
<title>Node41</title>
<g id="a_Node000041"><a xlink:href="dino__running_8h.html" target="_top" xlink:title=" ">
<polygon fill="white" stroke="#666666" points="2505.88,-312 2426.88,-312 2426.88,-292 2505.88,-292 2505.88,-312"/>
<text xml:space="preserve" text-anchor="middle" x="2466.38" y="-298.5" font-family="Helvetica,sans-Serif" font-size="10.00">dino_running.h</text>
</a>
</g>
</g>
<!-- Node1&#45;&gt;Node41 -->
<g id="edge47_Node000001_Node000041" class="edge">
<title>Node1&#45;&gt;Node41</title>
<g id="a_edge47_Node000001_Node000041"><a xlink:title=" ">
<path fill="none" stroke="#63b8ff" d="M2213.19,-347.51C2263.39,-338.94 2339.48,-325.85 2415.35,-312.35"/>
<polygon fill="#63b8ff" stroke="#63b8ff" points="2415.81,-315.82 2425.05,-310.62 2414.59,-308.93 2415.81,-315.82"/>
</a>
</g>
</g>
<!-- Node42 -->
<g id="Node000042" class="node">
<title>Node42</title>
<g id="a_Node000042"><a xlink:href="dino__sprite_8h.html" target="_top" xlink:title=" ">
<polygon fill="white" stroke="#666666" points="2595.12,-312 2523.62,-312 2523.62,-292 2595.12,-292 2595.12,-312"/>
<text xml:space="preserve" text-anchor="middle" x="2559.38" y="-298.5" font-family="Helvetica,sans-Serif" font-size="10.00">dino_sprite.h</text>
</a>
</g>
</g>
<!-- Node1&#45;&gt;Node42 -->
<g id="edge48_Node000001_Node000042" class="edge">
<title>Node1&#45;&gt;Node42</title>
<g id="a_edge48_Node000001_Node000042"><a xlink:title=" ">
<path fill="none" stroke="#63b8ff" d="M2223.91,-350.18C2293.49,-342.7 2406.14,-329.62 2512.17,-312.43"/>
<polygon fill="#63b8ff" stroke="#63b8ff" points="2512.6,-315.91 2521.9,-310.84 2511.47,-309 2512.6,-315.91"/>
</a>
</g>
</g>
<!-- Node43 -->
<g id="Node000043" class="node">
<title>Node43</title>
<g id="a_Node000043"><a xlink:href="_tiny_engine_u_i_8h.html" target="_top" xlink:title=" ">
<polygon fill="#fff0f0" stroke="red" points="2199.12,-312 2115.62,-312 2115.62,-292 2199.12,-292 2199.12,-312"/>
<text xml:space="preserve" text-anchor="middle" x="2157.38" y="-298.5" font-family="Helvetica,sans-Serif" font-size="10.00">TinyEngineUI.h</text>
</a>
</g>
</g>
<!-- Node1&#45;&gt;Node43 -->
<g id="edge49_Node000001_Node000043" class="edge">
<title>Node1&#45;&gt;Node43</title>
<g id="a_edge49_Node000001_Node000043"><a xlink:title=" ">
<path fill="none" stroke="#63b8ff" d="M2157.38,-347.59C2157.38,-341.01 2157.38,-331.96 2157.38,-323.73"/>
<polygon fill="#63b8ff" stroke="#63b8ff" points="2160.88,-323.81 2157.38,-313.81 2153.88,-323.81 2160.88,-323.81"/>
</a>
</g>
</g>
<!-- Node48 -->
<g id="Node000048" class="node">
<title>Node48</title>
<g id="a_Node000048"><a xlink:title=" ">
<polygon fill="#e0e0e0" stroke="#999999" points="2795.88,-312 2704.88,-312 2704.88,-292 2795.88,-292 2795.88,-312"/>
<text xml:space="preserve" text-anchor="middle" x="2750.38" y="-298.5" font-family="Helvetica,sans-Serif" font-size="10.00">hardware/interp.h</text>
</a>
</g>
</g>
<!-- Node1&#45;&gt;Node48 -->
<g id="edge55_Node000001_Node000048" class="edge">
<title>Node1&#45;&gt;Node48</title>
<g id="a_edge55_Node000001_Node000048"><a xlink:title=" ">
<path fill="none" stroke="#63b8ff" d="M2223.94,-353.2C2323.77,-347.12 2518.4,-333.75 2693.24,-312.31"/>
<polygon fill="#63b8ff" stroke="#63b8ff" points="2693.46,-315.81 2702.95,-311.1 2692.6,-308.86 2693.46,-315.81"/>
</a>
</g>
</g>
<!-- Node49 -->
<g id="Node000049" class="node">
<title>Node49</title>
<g id="a_Node000049"><a xlink:title=" ">
<polygon fill="#e0e0e0" stroke="#999999" points="2796.25,-256 2716.5,-256 2716.5,-236 2796.25,-236 2796.25,-256"/>
<text xml:space="preserve" text-anchor="middle" x="2756.38" y="-242.5" font-family="Helvetica,sans-Serif" font-size="10.00">hardware/pio.h</text>
</a>
</g>
</g>
<!-- Node1&#45;&gt;Node49 -->
<g id="edge57_Node000001_Node000049" class="edge">
<title>Node1&#45;&gt;Node49</title>
<g id="a_edge57_Node000001_Node000049"><a xlink:title=" ">
<path fill="none" stroke="#63b8ff" d="M2223.89,-357.39C2381.27,-357.63 2766.31,-353.87 2805.38,-312 2819.99,-296.34 2800.12,-276.43 2781.48,-262.8"/>
<polygon fill="#63b8ff" stroke="#63b8ff" points="2783.5,-259.95 2773.28,-257.16 2779.53,-265.71 2783.5,-259.95"/>
</a>
</g>
</g>
<!-- Node50 -->
<g id="Node000050" class="node">
<title>Node50</title>
<g id="a_Node000050"><a xlink:href="ws2812_8pio_8h.html" target="_top" xlink:title=" ">
<polygon fill="white" stroke="#666666" points="2687.25,-312 2613.5,-312 2613.5,-292 2687.25,-292 2687.25,-312"/>
<text xml:space="preserve" text-anchor="middle" x="2650.38" y="-298.5" font-family="Helvetica,sans-Serif" font-size="10.00">ws2812.pio.h</text>
</a>
</g>
</g>
<!-- Node1&#45;&gt;Node50 -->
<g id="edge59_Node000001_Node000050" class="edge">
<title>Node1&#45;&gt;Node50</title>
<g id="a_edge59_Node000001_Node000050"><a xlink:title=" ">
<path fill="none" stroke="#63b8ff" d="M2223.88,-352.24C2309.1,-345.72 2461.62,-332.59 2601.67,-312.28"/>
<polygon fill="#63b8ff" stroke="#63b8ff" points="2602.14,-315.75 2611.52,-310.83 2601.12,-308.82 2602.14,-315.75"/>
</a>
</g>
</g>
<!-- Node51 -->
<g id="Node000051" class="node">
<title>Node51</title>
<g id="a_Node000051"><a xlink:title=" ">
<polygon fill="#e0e0e0" stroke="#999999" points="2972.75,-312 2890,-312 2890,-292 2972.75,-292 2972.75,-312"/>
<text xml:space="preserve" text-anchor="middle" x="2931.38" y="-298.5" font-family="Helvetica,sans-Serif" font-size="10.00">hardware/adc.h</text>
</a>
</g>
</g>
<!-- Node1&#45;&gt;Node51 -->
<g id="edge62_Node000001_Node000051" class="edge">
<title>Node1&#45;&gt;Node51</title>
<g id="a_edge62_Node000001_Node000051"><a xlink:title=" ">
<path fill="none" stroke="#63b8ff" d="M2223.98,-355.05C2351.14,-350.84 2637.13,-338.99 2876.38,-312 2877.05,-311.92 2877.73,-311.84 2878.42,-311.76"/>
<polygon fill="#63b8ff" stroke="#63b8ff" points="2878.74,-315.25 2888.19,-310.47 2877.82,-308.31 2878.74,-315.25"/>
</a>
</g>
</g>
<!-- Node52 -->
<g id="Node000052" class="node">
<title>Node52</title>
<g id="a_Node000052"><a xlink:title=" ">
<polygon fill="#e0e0e0" stroke="#999999" points="3054.38,-312 2990.38,-312 2990.38,-292 3054.38,-292 3054.38,-312"/>
<text xml:space="preserve" text-anchor="middle" x="3022.38" y="-298.5" font-family="Helvetica,sans-Serif" font-size="10.00">pico/time.h</text>
</a>
</g>
</g>
<!-- Node1&#45;&gt;Node52 -->
<g id="edge63_Node000001_Node000052" class="edge">
<title>Node1&#45;&gt;Node52</title>
<g id="a_edge63_Node000001_Node000052"><a xlink:title=" ">
<path fill="none" stroke="#63b8ff" d="M2223.94,-357C2362.73,-356.21 2693.19,-350.23 2979.22,-312.06"/>
<polygon fill="#63b8ff" stroke="#63b8ff" points="2979.29,-315.58 2988.73,-310.77 2978.36,-308.64 2979.29,-315.58"/>
</a>
</g>
</g>
<!-- Node53 -->
<g id="Node000053" class="node">
<title>Node53</title>
<g id="a_Node000053"><a xlink:title=" ">
<polygon fill="#e0e0e0" stroke="#999999" points="3181.88,-312 3072.88,-312 3072.88,-292 3181.88,-292 3181.88,-312"/>
<text xml:space="preserve" text-anchor="middle" x="3127.38" y="-298.5" font-family="Helvetica,sans-Serif" font-size="10.00">hardware/watchdog.h</text>
</a>
</g>
</g>
<!-- Node1&#45;&gt;Node53 -->
<g id="edge64_Node000001_Node000053" class="edge">
<title>Node1&#45;&gt;Node53</title>
<g id="a_edge64_Node000001_Node000053"><a xlink:title=" ">
<path fill="none" stroke="#63b8ff" d="M2223.74,-355.75C2371.93,-352.52 2741.22,-342.01 3061.24,-312.11"/>
<polygon fill="#63b8ff" stroke="#63b8ff" points="3061.47,-315.6 3071.09,-311.18 3060.81,-308.63 3061.47,-315.6"/>
</a>
</g>
</g>
<!-- Node3 -->
<g id="Node000003" class="node">
<title>Node3</title>
<g id="a_Node000003"><a xlink:href="_game_scene_8h.html" target="_top" xlink:title="Abstract class for the actual game scene and its assets.">
<polygon fill="#fff0f0" stroke="red" points="1621.5,-256 1543.25,-256 1543.25,-236 1621.5,-236 1621.5,-256"/>
<text xml:space="preserve" text-anchor="middle" x="1582.38" y="-242.5" font-family="Helvetica,sans-Serif" font-size="10.00">GameScene.h</text>
</a>
</g>
</g>
<!-- Node2&#45;&gt;Node3 -->
<g id="edge2_Node000002_Node000003" class="edge">
<title>Node2&#45;&gt;Node3</title>
<g id="a_edge2_Node000002_Node000003"><a xlink:title=" ">
<path fill="none" stroke="#63b8ff" d="M1570.81,-291.59C1572.54,-284.93 1574.92,-275.75 1577.08,-267.44"/>
<polygon fill="#63b8ff" stroke="#63b8ff" points="1580.46,-268.32 1579.58,-257.76 1573.69,-266.56 1580.46,-268.32"/>
</a>
</g>
</g>
<!-- Node4 -->
<g id="Node000004" class="node">
<title>Node4</title>
<g id="a_Node000004"><a xlink:href="tinyengine__scene_8h.html" target="_top" xlink:title=" ">
<polygon fill="white" stroke="#666666" points="1773.38,-26 1673.38,-26 1673.38,-6 1773.38,-6 1773.38,-26"/>
<text xml:space="preserve" text-anchor="middle" x="1723.38" y="-12.5" font-family="Helvetica,sans-Serif" font-size="10.00">tinyengine_scene.h</text>
</a>
</g>
</g>
<!-- Node3&#45;&gt;Node4 -->
<g id="edge3_Node000003_Node000004" class="edge">
<title>Node3&#45;&gt;Node4</title>
<g id="a_edge3_Node000003_Node000004"><a xlink:title=" ">
<path fill="none" stroke="#63b8ff" d="M1588.08,-235.78C1609.16,-201.69 1682.96,-82.35 1711.75,-35.8"/>
<polygon fill="#63b8ff" stroke="#63b8ff" points="1714.68,-37.72 1716.96,-27.37 1708.72,-34.04 1714.68,-37.72"/>
</a>
</g>
</g>
<!-- Node3&#45;&gt;Node5 -->
<g id="edge4_Node000003_Node000005" class="edge">
<title>Node3&#45;&gt;Node5</title>
<g id="a_edge4_Node000003_Node000005"><a xlink:title=" ">
<path fill="none" stroke="#63b8ff" d="M1568.96,-235.59C1557.77,-227.74 1541.56,-216.38 1528.32,-207.09"/>
<polygon fill="#63b8ff" stroke="#63b8ff" points="1530.33,-204.22 1520.13,-201.35 1526.31,-209.96 1530.33,-204.22"/>
</a>
</g>
</g>
<!-- Node3&#45;&gt;Node6 -->
<g id="edge29_Node000003_Node000006" class="edge">
<title>Node3&#45;&gt;Node6</title>
<g id="a_edge29_Node000003_Node000006"><a xlink:title=" ">
<path fill="none" stroke="#63b8ff" d="M1582.25,-235.71C1581.56,-221.76 1578.22,-195.41 1563.38,-180 1546.8,-162.8 1523.5,-152.17 1500.9,-145.61"/>
<polygon fill="#63b8ff" stroke="#63b8ff" points="1501.93,-142.26 1491.36,-143.09 1500.14,-149.02 1501.93,-142.26"/>
</a>
</g>
</g>
<!-- Node3&#45;&gt;Node29 -->
<g id="edge30_Node000003_Node000029" class="edge">
<title>Node3&#45;&gt;Node29</title>
<g id="a_edge30_Node000003_Node000029"><a xlink:title=" ">
<path fill="none" stroke="#63b8ff" d="M1621.89,-237.37C1624.76,-236.88 1627.61,-236.42 1630.38,-236 1760.02,-216.29 1915.38,-200.51 1982.18,-194.1"/>
<polygon fill="#63b8ff" stroke="#63b8ff" points="1982.47,-197.59 1992.09,-193.16 1981.8,-190.62 1982.47,-197.59"/>
</a>
</g>
</g>
<!-- Node5&#45;&gt;Node6 -->
<g id="edge5_Node000005_Node000006" class="edge">
<title>Node5&#45;&gt;Node6</title>
<g id="a_edge5_Node000005_Node000006"><a xlink:title=" ">
<path fill="none" stroke="#63b8ff" d="M1491.96,-179.59C1480.77,-171.74 1464.56,-160.38 1451.32,-151.09"/>
<polygon fill="#63b8ff" stroke="#63b8ff" points="1453.33,-148.22 1443.13,-145.35 1449.31,-153.96 1453.33,-148.22"/>
</a>
</g>
</g>
<!-- Node6&#45;&gt;Node7 -->
<g id="edge6_Node000006_Node000007" class="edge">
<title>Node6&#45;&gt;Node7</title>
<g id="a_edge6_Node000006_Node000007"><a xlink:title=" ">
<path fill="none" stroke="#63b8ff" d="M1378.21,-123.53C1331.75,-114.13 1263.37,-99.72 1218.31,-89.86"/>
<polygon fill="#63b8ff" stroke="#63b8ff" points="1219.1,-86.45 1208.58,-87.72 1217.6,-93.28 1219.1,-86.45"/>
</a>
</g>
</g>
<!-- Node7&#45;&gt;Node4 -->
<g id="edge11_Node000007_Node000004" class="edge">
<title>Node7&#45;&gt;Node4</title>
<g id="a_edge11_Node000007_Node000004"><a xlink:title=" ">
<path fill="none" stroke="#63b8ff" d="M1206.92,-75.71C1287.55,-72.31 1494.25,-61.22 1664.38,-32 1669.06,-31.19 1673.92,-30.21 1678.76,-29.13"/>
<polygon fill="#63b8ff" stroke="#63b8ff" points="1679.48,-32.56 1688.4,-26.84 1677.86,-25.75 1679.48,-32.56"/>
</a>
</g>
</g>
<!-- Node7&#45;&gt;Node6 -->
<g id="edge28_Node000007_Node000006" class="edge">
<title>Node7&#45;&gt;Node6</title>
<g id="a_edge28_Node000007_Node000006"><a xlink:title=" ">
<path fill="none" stroke="#63b8ff" d="M1206.91,-85.33C1250.96,-94.09 1327.19,-110.09 1377.76,-121.12"/>
<polygon fill="#63b8ff" stroke="#63b8ff" points="1376.77,-124.49 1387.29,-123.21 1378.27,-117.65 1376.77,-124.49"/>
</a>
</g>
</g>
<!-- Node7&#45;&gt;Node8 -->
<g id="edge7_Node000007_Node000008" class="edge">
<title>Node7&#45;&gt;Node8</title>
<g id="a_edge7_Node000007_Node000008"><a xlink:title=" ">
<path fill="none" stroke="#63b8ff" d="M1206.87,-77.59C1300.51,-78.53 1566.89,-76.72 1782.38,-32 1785.32,-31.39 1788.34,-30.63 1791.35,-29.77"/>
<polygon fill="#63b8ff" stroke="#63b8ff" points="1792.12,-33.2 1800.59,-26.84 1790,-26.53 1792.12,-33.2"/>
</a>
</g>
</g>
<!-- Node9 -->
<g id="Node000009" class="node">
<title>Node9</title>
<g id="a_Node000009"><a xlink:title=" ">
<polygon fill="#e0e0e0" stroke="#999999" points="902,-26 856.75,-26 856.75,-6 902,-6 902,-26"/>
<text xml:space="preserve" text-anchor="middle" x="879.38" y="-12.5" font-family="Helvetica,sans-Serif" font-size="10.00">stdio.h</text>
</a>
</g>
</g>
<!-- Node7&#45;&gt;Node9 -->
<g id="edge8_Node000007_Node000009" class="edge">
<title>Node7&#45;&gt;Node9</title>
<g id="a_edge8_Node000007_Node000009"><a xlink:title=" ">
<path fill="none" stroke="#63b8ff" d="M1137.9,-74.02C1087.29,-68.98 990.33,-56.82 911.38,-32 910.2,-31.63 909.02,-31.23 907.83,-30.8"/>
<polygon fill="#63b8ff" stroke="#63b8ff" points="909.29,-27.62 898.71,-27.01 906.61,-34.08 909.29,-27.62"/>
</a>
</g>
</g>
<!-- Node10 -->
<g id="Node000010" class="node">
<title>Node10</title>
<g id="a_Node000010"><a xlink:title=" ">
<polygon fill="#e0e0e0" stroke="#999999" points="472.25,-26 392.5,-26 392.5,-6 472.25,-6 472.25,-26"/>
<text xml:space="preserve" text-anchor="middle" x="432.38" y="-12.5" font-family="Helvetica,sans-Serif" font-size="10.00">hardware/spi.h</text>
</a>
</g>
</g>
<!-- Node7&#45;&gt;Node10 -->
<g id="edge9_Node000007_Node000010" class="edge">
<title>Node7&#45;&gt;Node10</title>
<g id="a_edge9_Node000007_Node000010"><a xlink:title=" ">
<path fill="none" stroke="#63b8ff" d="M1137.88,-77.56C1036.33,-78.62 730.01,-77.51 481.38,-32 477.74,-31.34 474,-30.49 470.28,-29.55"/>
<polygon fill="#63b8ff" stroke="#63b8ff" points="471.34,-26.21 460.77,-26.88 469.45,-32.95 471.34,-26.21"/>
</a>
</g>
</g>
<!-- Node11 -->
<g id="Node000011" class="node">
<title>Node11</title>
<g id="a_Node000011"><a xlink:title=" ">
<polygon fill="#e0e0e0" stroke="#999999" points="538.5,-26 490.25,-26 490.25,-6 538.5,-6 538.5,-26"/>
<text xml:space="preserve" text-anchor="middle" x="514.38" y="-12.5" font-family="Helvetica,sans-Serif" font-size="10.00">stdint.h</text>
</a>
</g>
</g>
<!-- Node7&#45;&gt;Node11 -->
<g id="edge10_Node000007_Node000011" class="edge">
<title>Node7&#45;&gt;Node11</title>
<g id="a_edge10_Node000007_Node000011"><a xlink:title=" ">
<path fill="none" stroke="#63b8ff" d="M1137.81,-76.06C1023.96,-72.74 661.55,-60.15 548.38,-32 546.73,-31.59 545.07,-31.11 543.4,-30.57"/>
<polygon fill="#63b8ff" stroke="#63b8ff" points="544.68,-27.31 534.09,-26.99 542.16,-33.84 544.68,-27.31"/>
</a>
</g>
</g>
<!-- Node12 -->
<g id="Node000012" class="node">
<title>Node12</title>
<g id="a_Node000012"><a xlink:title=" ">
<polygon fill="#e0e0e0" stroke="#999999" points="639.75,-26 557,-26 557,-6 639.75,-6 639.75,-26"/>
<text xml:space="preserve" text-anchor="middle" x="598.38" y="-12.5" font-family="Helvetica,sans-Serif" font-size="10.00">unordered_map</text>
</a>
</g>
</g>
<!-- Node7&#45;&gt;Node12 -->
<g id="edge12_Node000007_Node000012" class="edge">
<title>Node7&#45;&gt;Node12</title>
<g id="a_edge12_Node000007_Node000012"><a xlink:title=" ">
<path fill="none" stroke="#63b8ff" d="M1137.79,-76.41C1053.52,-74.46 831.19,-66.2 649.38,-32 645.54,-31.28 641.58,-30.39 637.64,-29.4"/>
<polygon fill="#63b8ff" stroke="#63b8ff" points="638.75,-26.07 628.18,-26.83 636.91,-32.83 638.75,-26.07"/>
</a>
</g>
</g>
<!-- Node13 -->
<g id="Node000013" class="node">
<title>Node13</title>
<g id="a_Node000013"><a xlink:title=" ">
<polygon fill="#e0e0e0" stroke="#999999" points="734.75,-26 658,-26 658,-6 734.75,-6 734.75,-26"/>
<text xml:space="preserve" text-anchor="middle" x="696.38" y="-12.5" font-family="Helvetica,sans-Serif" font-size="10.00">hardware/pll.h</text>
</a>
</g>
</g>
<!-- Node7&#45;&gt;Node13 -->
<g id="edge13_Node000007_Node000013" class="edge">
<title>Node7&#45;&gt;Node13</title>
<g id="a_edge13_Node000007_Node000013"><a xlink:title=" ">
<path fill="none" stroke="#63b8ff" d="M1137.81,-75.77C1064.42,-72.63 887.95,-62.32 743.38,-32 740.05,-31.3 736.62,-30.46 733.2,-29.53"/>
<polygon fill="#63b8ff" stroke="#63b8ff" points="734.5,-26.27 723.92,-26.8 732.53,-32.98 734.5,-26.27"/>
</a>
</g>
</g>
<!-- Node14 -->
<g id="Node000014" class="node">
<title>Node14</title>
<g id="a_Node000014"><a xlink:title=" ">
<polygon fill="#e0e0e0" stroke="#999999" points="838.25,-26 752.5,-26 752.5,-6 838.25,-6 838.25,-26"/>
<text xml:space="preserve" text-anchor="middle" x="795.38" y="-12.5" font-family="Helvetica,sans-Serif" font-size="10.00">hardware/vreg.h</text>
</a>
</g>
</g>
<!-- Node7&#45;&gt;Node14 -->
<g id="edge14_Node000007_Node000014" class="edge">
<title>Node7&#45;&gt;Node14</title>
<g id="a_edge14_Node000007_Node000014"><a xlink:title=" ">
<path fill="none" stroke="#63b8ff" d="M1137.94,-73.87C1078.3,-68.08 952.13,-54.24 847.38,-32 843.79,-31.24 840.09,-30.36 836.4,-29.42"/>
<polygon fill="#63b8ff" stroke="#63b8ff" points="837.46,-26.08 826.9,-26.86 835.64,-32.84 837.46,-26.08"/>
</a>
</g>
</g>
<!-- Node7&#45;&gt;Node15 -->
<g id="edge15_Node000007_Node000015" class="edge">
<title>Node7&#45;&gt;Node15</title>
<g id="a_edge15_Node000007_Node000015"><a xlink:title=" ">
<path fill="none" stroke="#63b8ff" d="M1207.09,-75.59C1400.34,-67.75 2343.6,-29.45 2590.91,-19.41"/>
<polygon fill="#63b8ff" stroke="#63b8ff" points="2590.79,-22.92 2600.64,-19.02 2590.51,-15.93 2590.79,-22.92"/>
</a>
</g>
</g>
<!-- Node16 -->
<g id="Node000016" class="node">
<title>Node16</title>
<g id="a_Node000016"><a xlink:title=" ">
<polygon fill="#e0e0e0" stroke="#999999" points="1030.25,-26 920.5,-26 920.5,-6 1030.25,-6 1030.25,-26"/>
<text xml:space="preserve" text-anchor="middle" x="975.38" y="-12.5" font-family="Helvetica,sans-Serif" font-size="10.00">hardware/structs/pll.h</text>
</a>
</g>
</g>
<!-- Node7&#45;&gt;Node16 -->
<g id="edge16_Node000007_Node000016" class="edge">
<title>Node7&#45;&gt;Node16</title>
<g id="a_edge16_Node000007_Node000016"><a xlink:title=" ">
<path fill="none" stroke="#63b8ff" d="M1141.59,-67.62C1108.15,-57.44 1054.53,-41.11 1017.26,-29.76"/>
<polygon fill="#63b8ff" stroke="#63b8ff" points="1018.3,-26.41 1007.71,-26.85 1016.26,-33.11 1018.3,-26.41"/>
</a>
</g>
</g>
<!-- Node17 -->
<g id="Node000017" class="node">
<title>Node17</title>
<g id="a_Node000017"><a xlink:title=" ">
<polygon fill="#e0e0e0" stroke="#999999" points="1176.62,-26 1048.12,-26 1048.12,-6 1176.62,-6 1176.62,-26"/>
<text xml:space="preserve" text-anchor="middle" x="1112.38" y="-12.5" font-family="Helvetica,sans-Serif" font-size="10.00">hardware/structs/clocks.h</text>
</a>
</g>
</g>
<!-- Node7&#45;&gt;Node17 -->
<g id="edge17_Node000007_Node000017" class="edge">
<title>Node7&#45;&gt;Node17</title>
<g id="a_edge17_Node000007_Node000017"><a xlink:title=" ">
<path fill="none" stroke="#63b8ff" d="M1163,-67.62C1154.05,-58.68 1140.36,-44.99 1129.48,-34.1"/>
<polygon fill="#63b8ff" stroke="#63b8ff" points="1132.1,-31.78 1122.56,-27.18 1127.15,-36.73 1132.1,-31.78"/>
</a>
</g>
</g>
<!-- Node7&#45;&gt;Node18 -->
<g id="edge18_Node000007_Node000018" class="edge">
<title>Node7&#45;&gt;Node18</title>
<g id="a_edge18_Node000007_Node000018"><a xlink:title=" ">
<path fill="none" stroke="#63b8ff" d="M1207.09,-77.39C1309.27,-77.99 1617.58,-75.75 1868.38,-32 1872.46,-31.29 1876.67,-30.38 1880.86,-29.35"/>
<polygon fill="#63b8ff" stroke="#63b8ff" points="1881.53,-32.8 1890.29,-26.85 1879.73,-26.03 1881.53,-32.8"/>
</a>
</g>
</g>
<!-- Node7&#45;&gt;Node19 -->
<g id="edge19_Node000007_Node000019" class="edge">
<title>Node7&#45;&gt;Node19</title>
<g id="a_edge19_Node000007_Node000019"><a xlink:title=" ">
<path fill="none" stroke="#63b8ff" d="M1206.89,-76.11C1340.24,-72.53 1821.76,-58.03 1972.38,-32 1976.43,-31.3 1980.63,-30.39 1984.78,-29.36"/>
<polygon fill="#63b8ff" stroke="#63b8ff" points="1985.39,-32.82 1994.13,-26.82 1983.56,-26.06 1985.39,-32.82"/>
</a>
</g>
</g>
<!-- Node20 -->
<g id="Node000020" class="node">
<title>Node20</title>
<g id="a_Node000020"><a xlink:title=" ">
<polygon fill="#e0e0e0" stroke="#999999" points="1272.12,-26 1194.62,-26 1194.62,-6 1272.12,-6 1272.12,-26"/>
<text xml:space="preserve" text-anchor="middle" x="1233.38" y="-12.5" font-family="Helvetica,sans-Serif" font-size="10.00">hardware/irq.h</text>
</a>
</g>
</g>
<!-- Node7&#45;&gt;Node20 -->
<g id="edge20_Node000007_Node000020" class="edge">
<title>Node7&#45;&gt;Node20</title>
<g id="a_edge20_Node000007_Node000020"><a xlink:title=" ">
<path fill="none" stroke="#63b8ff" d="M1181.91,-67.62C1191,-58.68 1204.92,-44.99 1215.99,-34.1"/>
<polygon fill="#63b8ff" stroke="#63b8ff" points="1218.36,-36.68 1223.03,-27.17 1213.45,-31.69 1218.36,-36.68"/>
</a>
</g>
</g>
<!-- Node21 -->
<g id="Node000021" class="node">
<title>Node21</title>
<g id="a_Node000021"><a xlink:title=" ">
<polygon fill="#e0e0e0" stroke="#999999" points="1398.12,-32 1290.62,-32 1290.62,0 1398.12,0 1398.12,-32"/>
<text xml:space="preserve" text-anchor="start" x="1298.62" y="-18.5" font-family="Helvetica,sans-Serif" font-size="10.00">hardware/structs/bus</text>
<text xml:space="preserve" text-anchor="middle" x="1344.38" y="-6.5" font-family="Helvetica,sans-Serif" font-size="10.00">_ctrl.h</text>
</a>
</g>
</g>
<!-- Node7&#45;&gt;Node21 -->
<g id="edge21_Node000007_Node000021" class="edge">
<title>Node7&#45;&gt;Node21</title>
<g id="a_edge21_Node000007_Node000021"><a xlink:title=" ">
<path fill="none" stroke="#63b8ff" d="M1199.25,-67.62C1223.23,-59.26 1259.1,-46.75 1289.18,-36.25"/>
<polygon fill="#63b8ff" stroke="#63b8ff" points="1290.25,-39.59 1298.54,-32.99 1287.95,-32.98 1290.25,-39.59"/>
</a>
</g>
</g>
<!-- Node22 -->
<g id="Node000022" class="node">
<title>Node22</title>
<g id="a_Node000022"><a xlink:title=" ">
<polygon fill="#e0e0e0" stroke="#999999" points="1526.62,-32 1416.12,-32 1416.12,0 1526.62,0 1526.62,-32"/>
<text xml:space="preserve" text-anchor="start" x="1424.12" y="-18.5" font-family="Helvetica,sans-Serif" font-size="10.00">hardware/structs/hstx</text>
<text xml:space="preserve" text-anchor="middle" x="1471.38" y="-6.5" font-family="Helvetica,sans-Serif" font-size="10.00">_ctrl.h</text>
</a>
</g>
</g>
<!-- Node7&#45;&gt;Node22 -->
<g id="edge22_Node000007_Node000022" class="edge">
<title>Node7&#45;&gt;Node22</title>
<g id="a_edge22_Node000007_Node000022"><a xlink:title=" ">
<path fill="none" stroke="#63b8ff" d="M1207.11,-70.81C1250.89,-62.91 1328.74,-48.52 1404.71,-32.52"/>
<polygon fill="#63b8ff" stroke="#63b8ff" points="1405.37,-35.96 1414.42,-30.46 1403.91,-29.11 1405.37,-35.96"/>
</a>
</g>
</g>
<!-- Node23 -->
<g id="Node000023" class="node">
<title>Node23</title>
<g id="a_Node000023"><a xlink:title=" ">
<polygon fill="#e0e0e0" stroke="#999999" points="1655.62,-32 1545.12,-32 1545.12,0 1655.62,0 1655.62,-32"/>
<text xml:space="preserve" text-anchor="start" x="1553.12" y="-18.5" font-family="Helvetica,sans-Serif" font-size="10.00">hardware/structs/hstx</text>
<text xml:space="preserve" text-anchor="middle" x="1600.38" y="-6.5" font-family="Helvetica,sans-Serif" font-size="10.00">_fifo.h</text>
</a>
</g>
</g>
<!-- Node7&#45;&gt;Node23 -->
<g id="edge23_Node000007_Node000023" class="edge">
<title>Node7&#45;&gt;Node23</title>
<g id="a_edge23_Node000007_Node000023"><a xlink:title=" ">
<path fill="none" stroke="#63b8ff" d="M1207.09,-73.9C1270.07,-68.03 1407.55,-54.01 1533.78,-32.16"/>
<polygon fill="#63b8ff" stroke="#63b8ff" points="1534.05,-35.66 1543.29,-30.49 1532.84,-28.77 1534.05,-35.66"/>
</a>
</g>
</g>
<!-- Node24 -->
<g id="Node000024" class="node">
<title>Node24</title>
<g id="a_Node000024"><a xlink:title=" ">
<polygon fill="#e0e0e0" stroke="#999999" points="112.75,-26 0,-26 0,-6 112.75,-6 112.75,-26"/>
<text xml:space="preserve" text-anchor="middle" x="56.38" y="-12.5" font-family="Helvetica,sans-Serif" font-size="10.00">hardware/structs/sio.h</text>
</a>
</g>
</g>
<!-- Node7&#45;&gt;Node24 -->
<g id="edge24_Node000007_Node000024" class="edge">
<title>Node7&#45;&gt;Node24</title>
<g id="a_edge24_Node000007_Node000024"><a xlink:title=" ">
<path fill="none" stroke="#63b8ff" d="M1137.78,-76.38C979.64,-73.39 324.52,-59.55 121.38,-32 115.35,-31.18 109.06,-30.07 102.87,-28.82"/>
<polygon fill="#63b8ff" stroke="#63b8ff" points="103.91,-25.46 93.4,-26.76 102.43,-32.3 103.91,-25.46"/>
</a>
</g>
</g>
<!-- Node25 -->
<g id="Node000025" class="node">
<title>Node25</title>
<g id="a_Node000025"><a xlink:title=" ">
<polygon fill="#e0e0e0" stroke="#999999" points="215.88,-26 130.88,-26 130.88,-6 215.88,-6 215.88,-26"/>
<text xml:space="preserve" text-anchor="middle" x="173.38" y="-12.5" font-family="Helvetica,sans-Serif" font-size="10.00">pico/multicore.h</text>
</a>
</g>
</g>
<!-- Node7&#45;&gt;Node25 -->
<g id="edge25_Node000007_Node000025" class="edge">
<title>Node7&#45;&gt;Node25</title>
<g id="a_edge25_Node000007_Node000025"><a xlink:title=" ">
<path fill="none" stroke="#63b8ff" d="M1137.75,-76.44C989.33,-73.85 406.23,-61.96 225.38,-32 221.24,-31.31 216.96,-30.41 212.73,-29.39"/>
<polygon fill="#63b8ff" stroke="#63b8ff" points="213.73,-26.04 203.17,-26.86 211.94,-32.8 213.73,-26.04"/>
</a>
</g>
</g>
<!-- Node26 -->
<g id="Node000026" class="node">
<title>Node26</title>
<g id="a_Node000026"><a xlink:title=" ">
<polygon fill="#e0e0e0" stroke="#999999" points="298.38,-26 234.38,-26 234.38,-6 298.38,-6 298.38,-26"/>
<text xml:space="preserve" text-anchor="middle" x="266.38" y="-12.5" font-family="Helvetica,sans-Serif" font-size="10.00">pico/sem.h</text>
</a>
</g>
</g>
<!-- Node7&#45;&gt;Node26 -->
<g id="edge26_Node000007_Node000026" class="edge">
<title>Node7&#45;&gt;Node26</title>
<g id="a_edge26_Node000007_Node000026"><a xlink:title=" ">
<path fill="none" stroke="#63b8ff" d="M1137.9,-76.58C997.73,-74.64 470.37,-65.27 307.38,-32 304.74,-31.46 302.05,-30.79 299.37,-30.02"/>
<polygon fill="#63b8ff" stroke="#63b8ff" points="300.61,-26.74 290.02,-26.96 298.44,-33.4 300.61,-26.74"/>
</a>
</g>
</g>
<!-- Node27 -->
<g id="Node000027" class="node">
<title>Node27</title>
<g id="a_Node000027"><a xlink:title=" ">
<polygon fill="#e0e0e0" stroke="#999999" points="374.38,-26 316.38,-26 316.38,-6 374.38,-6 374.38,-26"/>
<text xml:space="preserve" text-anchor="middle" x="345.38" y="-12.5" font-family="Helvetica,sans-Serif" font-size="10.00">functional</text>
</a>
</g>
</g>
<!-- Node7&#45;&gt;Node27 -->
<g id="edge27_Node000007_Node000027" class="edge">
<title>Node7&#45;&gt;Node27</title>
<g id="a_edge27_Node000007_Node000027"><a xlink:title=" ">
<path fill="none" stroke="#63b8ff" d="M1137.8,-76.49C1005.36,-74.31 530.44,-64.34 383.38,-32 381.19,-31.52 378.97,-30.93 376.76,-30.27"/>
<polygon fill="#63b8ff" stroke="#63b8ff" points="377.93,-26.97 367.34,-26.98 375.62,-33.58 377.93,-26.97"/>
</a>
</g>
</g>
<!-- Node33&#45;&gt;Node3 -->
<g id="edge41_Node000033_Node000003" class="edge">
<title>Node33&#45;&gt;Node3</title>
<g id="a_edge41_Node000033_Node000003"><a xlink:title=" ">
<path fill="none" stroke="#63b8ff" d="M1647.61,-291.59C1636.02,-283.67 1619.18,-272.16 1605.51,-262.82"/>
<polygon fill="#63b8ff" stroke="#63b8ff" points="1607.72,-260.09 1597.49,-257.33 1603.77,-265.87 1607.72,-260.09"/>
</a>
</g>
</g>
<!-- Node34 -->
<g id="Node000034" class="node">
<title>Node34</title>
<g id="a_Node000034"><a xlink:href="_game_8h.html" target="_top" xlink:title="Abstract definition file for Games.">
<polygon fill="#fff0f0" stroke="red" points="1687.5,-256 1639.25,-256 1639.25,-236 1687.5,-236 1687.5,-256"/>
<text xml:space="preserve" text-anchor="middle" x="1663.38" y="-242.5" font-family="Helvetica,sans-Serif" font-size="10.00">game.h</text>
</a>
</g>
</g>
<!-- Node33&#45;&gt;Node34 -->
<g id="edge40_Node000033_Node000034" class="edge">
<title>Node33&#45;&gt;Node34</title>
<g id="a_edge40_Node000033_Node000034"><a xlink:title=" ">
<path fill="none" stroke="#63b8ff" d="M1661.72,-291.59C1661.97,-285.01 1662.3,-275.96 1662.61,-267.73"/>
<polygon fill="#63b8ff" stroke="#63b8ff" points="1666.1,-267.93 1662.97,-257.81 1659.11,-267.67 1666.1,-267.93"/>
</a>
</g>
</g>
<!-- Node37 -->
<g id="Node000037" class="node">
<title>Node37</title>
<g id="a_Node000037"><a xlink:title=" ">
<polygon fill="#e0e0e0" stroke="#999999" points="1883.5,-256 1835.25,-256 1835.25,-236 1883.5,-236 1883.5,-256"/>
<text xml:space="preserve" text-anchor="middle" x="1859.38" y="-242.5" font-family="Helvetica,sans-Serif" font-size="10.00">string.h</text>
</a>
</g>
</g>
<!-- Node36&#45;&gt;Node37 -->
<g id="edge43_Node000036_Node000037" class="edge">
<title>Node36&#45;&gt;Node37</title>
<g id="a_edge43_Node000036_Node000037"><a xlink:title=" ">
<path fill="none" stroke="#63b8ff" d="M1861.03,-291.59C1860.78,-285.01 1860.45,-275.96 1860.14,-267.73"/>
<polygon fill="#63b8ff" stroke="#63b8ff" points="1863.64,-267.67 1859.78,-257.81 1856.65,-267.93 1863.64,-267.67"/>
</a>
</g>
</g>
<!-- Node38 -->
<g id="Node000038" class="node">
<title>Node38</title>
<g id="a_Node000038"><a xlink:title=" ">
<polygon fill="#e0e0e0" stroke="#999999" points="1947.38,-256 1901.38,-256 1901.38,-236 1947.38,-236 1947.38,-256"/>
<text xml:space="preserve" text-anchor="middle" x="1924.38" y="-242.5" font-family="Helvetica,sans-Serif" font-size="10.00">math.h</text>
</a>
</g>
</g>
<!-- Node36&#45;&gt;Node38 -->
<g id="edge44_Node000036_Node000038" class="edge">
<title>Node36&#45;&gt;Node38</title>
<g id="a_edge44_Node000036_Node000038"><a xlink:title=" ">
<path fill="none" stroke="#63b8ff" d="M1872.35,-291.59C1881.29,-283.93 1894.15,-272.91 1904.84,-263.75"/>
<polygon fill="#63b8ff" stroke="#63b8ff" points="1907.06,-266.45 1912.38,-257.28 1902.51,-261.13 1907.06,-266.45"/>
</a>
</g>
</g>
<!-- Node43&#45;&gt;Node29 -->
<g id="edge52_Node000043_Node000029" class="edge">
<title>Node43&#45;&gt;Node29</title>
<g id="a_edge52_Node000043_Node000029"><a xlink:title=" ">
<path fill="none" stroke="#63b8ff" d="M2120.67,-291.52C2088.97,-282.65 2046.42,-268.87 2034.38,-256 2023.07,-243.92 2018.45,-225.47 2016.58,-211.31"/>
<polygon fill="#63b8ff" stroke="#63b8ff" points="2020.11,-211.38 2015.7,-201.74 2013.14,-212.03 2020.11,-211.38"/>
</a>
</g>
</g>
<!-- Node44 -->
<g id="Node000044" class="node">
<title>Node44</title>
<g id="a_Node000044"><a xlink:title=" ">
<polygon fill="#e0e0e0" stroke="#999999" points="2199,-256 2153.75,-256 2153.75,-236 2199,-236 2199,-256"/>
<text xml:space="preserve" text-anchor="middle" x="2176.38" y="-242.5" font-family="Helvetica,sans-Serif" font-size="10.00">cstdint</text>
</a>
</g>
</g>
<!-- Node43&#45;&gt;Node44 -->
<g id="edge50_Node000043_Node000044" class="edge">
<title>Node43&#45;&gt;Node44</title>
<g id="a_edge50_Node000043_Node000044"><a xlink:title=" ">
<path fill="none" stroke="#63b8ff" d="M2160.68,-291.59C2163.05,-284.86 2166.34,-275.53 2169.28,-267.15"/>
<polygon fill="#63b8ff" stroke="#63b8ff" points="2172.58,-268.32 2172.6,-257.73 2165.98,-266 2172.58,-268.32"/>
</a>
</g>
</g>
<!-- Node45 -->
<g id="Node000045" class="node">
<title>Node45</title>
<g id="a_Node000045"><a xlink:title=" ">
<polygon fill="#e0e0e0" stroke="#999999" points="2083.38,-256 2043.38,-256 2043.38,-236 2083.38,-236 2083.38,-256"/>
<text xml:space="preserve" text-anchor="middle" x="2063.38" y="-242.5" font-family="Helvetica,sans-Serif" font-size="10.00">string</text>
</a>
</g>
</g>
<!-- Node43&#45;&gt;Node45 -->
<g id="edge51_Node000043_Node000045" class="edge">
<title>Node43&#45;&gt;Node45</title>
<g id="a_edge51_Node000043_Node000045"><a xlink:title=" ">
<path fill="none" stroke="#63b8ff" d="M2141,-291.59C2126.8,-283.44 2105.99,-271.48 2089.49,-262"/>
<polygon fill="#63b8ff" stroke="#63b8ff" points="2091.6,-259.18 2081.19,-257.23 2088.12,-265.25 2091.6,-259.18"/>
</a>
</g>
</g>
<!-- Node46 -->
<g id="Node000046" class="node">
<title>Node46</title>
<g id="a_Node000046"><a xlink:title=" ">
<polygon fill="#e0e0e0" stroke="#999999" points="2135.75,-256 2101,-256 2101,-236 2135.75,-236 2135.75,-256"/>
<text xml:space="preserve" text-anchor="middle" x="2118.38" y="-242.5" font-family="Helvetica,sans-Serif" font-size="10.00">map</text>
</a>
</g>
</g>
<!-- Node43&#45;&gt;Node46 -->
<g id="edge53_Node000043_Node000046" class="edge">
<title>Node43&#45;&gt;Node46</title>
<g id="a_edge53_Node000043_Node000046"><a xlink:title=" ">
<path fill="none" stroke="#63b8ff" d="M2150.58,-291.59C2145.38,-284.39 2138.04,-274.23 2131.69,-265.43"/>
<polygon fill="#63b8ff" stroke="#63b8ff" points="2134.67,-263.58 2125.98,-257.53 2128.99,-267.68 2134.67,-263.58"/>
</a>
</g>
</g>
<!-- Node50&#45;&gt;Node15 -->
<g id="edge61_Node000050_Node000015" class="edge">
<title>Node50&#45;&gt;Node15</title>
<g id="a_edge61_Node000050_Node000015"><a xlink:title=" ">
<path fill="none" stroke="#63b8ff" d="M2650.38,-291.58C2650.38,-272.57 2650.38,-228.24 2650.38,-191 2650.38,-191 2650.38,-191 2650.38,-133 2650.38,-99.68 2650.38,-60.98 2650.38,-37.77"/>
<polygon fill="#63b8ff" stroke="#63b8ff" points="2653.88,-37.84 2650.38,-27.84 2646.88,-37.84 2653.88,-37.84"/>
</a>
</g>
</g>
<!-- Node50&#45;&gt;Node49 -->
<g id="edge60_Node000050_Node000049" class="edge">
<title>Node50&#45;&gt;Node49</title>
<g id="a_edge60_Node000050_Node000049"><a xlink:title=" ">
<path fill="none" stroke="#63b8ff" d="M2668.84,-291.59C2685.08,-283.32 2708.98,-271.14 2727.71,-261.6"/>
<polygon fill="#63b8ff" stroke="#63b8ff" points="2729.1,-264.82 2736.42,-257.17 2725.92,-258.59 2729.1,-264.82"/>
</a>
</g>
</g>
</g>
</svg>
