<?xml version="1.0" encoding="UTF-8" standalone="no"?>
<!DOCTYPE svg PUBLIC "-//W3C//DTD SVG 1.1//EN"
 "http://www.w3.org/Graphics/SVG/1.1/DTD/svg11.dtd">
<!-- Generated by graphviz version 13.1.2 (20250808.2320)
 -->
<!-- Title: src/Game.cpp Pages: 1 -->
<svg width="2327pt" height="220pt"
 viewBox="0.00 0.00 2327.00 220.00" xmlns="http://www.w3.org/2000/svg" xmlns:xlink="http://www.w3.org/1999/xlink">
<g id="graph0" class="graph" transform="scale(1 1) rotate(0) translate(4 216)">
<title>src/Game.cpp</title>
<!-- Node1 -->
<g id="Node000001" class="node">
<title>Node1</title>
<g id="a_Node000001"><a xlink:title=" ">
<polygon fill="#999999" stroke="#666666" points="1493.38,-212 1415.88,-212 1415.88,-192 1493.38,-192 1493.38,-212"/>
<text xml:space="preserve" text-anchor="middle" x="1454.62" y="-198.5" font-family="Helvetica,sans-Serif" font-size="10.00">src/Game.cpp</text>
</a>
</g>
</g>
<!-- Node2 -->
<g id="Node000002" class="node">
<title>Node2</title>
<g id="a_Node000002"><a xlink:title=" ">
<polygon fill="#e0e0e0" stroke="#999999" points="45.25,-26 0,-26 0,-6 45.25,-6 45.25,-26"/>
<text xml:space="preserve" text-anchor="middle" x="22.62" y="-12.5" font-family="Helvetica,sans-Serif" font-size="10.00">stdio.h</text>
</a>
</g>
</g>
<!-- Node1&#45;&gt;Node2 -->
<g id="edge1_Node000001_Node000002" class="edge">
<title>Node1&#45;&gt;Node2</title>
<g id="a_edge1_Node000001_Node000002"><a xlink:title=" ">
<path fill="none" stroke="#63b8ff" d="M1415.39,-201.56C1290.52,-202.8 891.48,-202.59 565.62,-156 436.29,-137.51 406.58,-118.89 279.62,-88 179.5,-63.64 151.74,-66.48 54.62,-32 53.5,-31.6 52.36,-31.17 51.21,-30.73"/>
<polygon fill="#63b8ff" stroke="#63b8ff" points="52.94,-27.66 42.37,-26.94 50.19,-34.1 52.94,-27.66"/>
</a>
</g>
</g>
<!-- Node3 -->
<g id="Node000003" class="node">
<title>Node3</title>
<g id="a_Node000003"><a xlink:title=" ">
<polygon fill="#e0e0e0" stroke="#999999" points="1605.62,-150 1559.62,-150 1559.62,-130 1605.62,-130 1605.62,-150"/>
<text xml:space="preserve" text-anchor="middle" x="1582.62" y="-136.5" font-family="Helvetica,sans-Serif" font-size="10.00">math.h</text>
</a>
</g>
</g>
<!-- Node1&#45;&gt;Node3 -->
<g id="edge2_Node000001_Node000003" class="edge">
<title>Node1&#45;&gt;Node3</title>
<g id="a_edge2_Node000001_Node000003"><a xlink:title=" ">
<path fill="none" stroke="#63b8ff" d="M1474.62,-191.62C1495.48,-181.85 1528.41,-166.41 1552.43,-155.15"/>
<polygon fill="#63b8ff" stroke="#63b8ff" points="1553.83,-158.37 1561.39,-150.95 1550.85,-152.03 1553.83,-158.37"/>
</a>
</g>
</g>
<!-- Node4 -->
<g id="Node000004" class="node">
<title>Node4</title>
<g id="a_Node000004"><a xlink:href="tinyengine_8h.html" target="_top" xlink:title=" ">
<polygon fill="white" stroke="#666666" points="1205.88,-88 1137.38,-88 1137.38,-68 1205.88,-68 1205.88,-88"/>
<text xml:space="preserve" text-anchor="middle" x="1171.62" y="-74.5" font-family="Helvetica,sans-Serif" font-size="10.00">tinyengine.h</text>
</a>
</g>
</g>
<!-- Node1&#45;&gt;Node4 -->
<g id="edge3_Node000001_Node000004" class="edge">
<title>Node1&#45;&gt;Node4</title>
<g id="a_edge3_Node000001_Node000004"><a xlink:title=" ">
<path fill="none" stroke="#63b8ff" d="M1415.43,-198.68C1330.24,-193.22 1134.22,-178.36 1114.62,-156 1105.25,-145.3 1108.42,-136.8 1114.62,-124 1120.56,-111.75 1131.63,-101.83 1142.44,-94.45"/>
<polygon fill="#63b8ff" stroke="#63b8ff" points="1144.23,-97.46 1150.86,-89.2 1140.52,-91.52 1144.23,-97.46"/>
</a>
</g>
</g>
<!-- Node5 -->
<g id="Node000005" class="node">
<title>Node5</title>
<g id="a_Node000005"><a xlink:title=" ">
<polygon fill="#e0e0e0" stroke="#999999" points="131.88,-26 63.38,-26 63.38,-6 131.88,-6 131.88,-26"/>
<text xml:space="preserve" text-anchor="middle" x="97.62" y="-12.5" font-family="Helvetica,sans-Serif" font-size="10.00">pico/stdlib.h</text>
</a>
</g>
</g>
<!-- Node1&#45;&gt;Node5 -->
<g id="edge38_Node000001_Node000005" class="edge">
<title>Node1&#45;&gt;Node5</title>
<g id="a_edge38_Node000001_Node000005"><a xlink:title=" ">
<path fill="none" stroke="#63b8ff" d="M1415.45,-199.84C1314.42,-196.5 1036.88,-185.19 807.62,-156 508.52,-117.92 432.04,-109.44 140.62,-32 138.2,-31.36 135.72,-30.64 133.23,-29.89"/>
<polygon fill="#63b8ff" stroke="#63b8ff" points="134.47,-26.61 123.88,-26.84 132.3,-33.26 134.47,-26.61"/>
</a>
</g>
</g>
<!-- Node25 -->
<g id="Node000025" class="node">
<title>Node25</title>
<g id="a_Node000025"><a xlink:href="tinyengine__framebuffer_8h.html" target="_top" xlink:title=" ">
<polygon fill="white" stroke="#666666" points="2318.88,-26 2196.38,-26 2196.38,-6 2318.88,-6 2318.88,-26"/>
<text xml:space="preserve" text-anchor="middle" x="2257.62" y="-12.5" font-family="Helvetica,sans-Serif" font-size="10.00">tinyengine_framebuffer.h</text>
</a>
</g>
</g>
<!-- Node1&#45;&gt;Node25 -->
<g id="edge30_Node000001_Node000025" class="edge">
<title>Node1&#45;&gt;Node25</title>
<g id="a_edge30_Node000001_Node000025"><a xlink:title=" ">
<path fill="none" stroke="#63b8ff" d="M1458.16,-191.54C1464.95,-174.84 1481.48,-140.34 1507.62,-124 1766.26,37.61 1886.74,-81.77 2187.62,-32 2193.53,-31.02 2199.68,-29.88 2205.79,-28.68"/>
<polygon fill="#63b8ff" stroke="#63b8ff" points="2206.08,-32.19 2215.18,-26.76 2204.68,-25.33 2206.08,-32.19"/>
</a>
</g>
</g>
<!-- Node26 -->
<g id="Node000026" class="node">
<title>Node26</title>
<g id="a_Node000026"><a xlink:href="tinyengine__renderer_8h.html" target="_top" xlink:title=" ">
<polygon fill="white" stroke="#666666" points="1347.12,-150 1238.12,-150 1238.12,-130 1347.12,-130 1347.12,-150"/>
<text xml:space="preserve" text-anchor="middle" x="1292.62" y="-136.5" font-family="Helvetica,sans-Serif" font-size="10.00">tinyengine_renderer.h</text>
</a>
</g>
</g>
<!-- Node1&#45;&gt;Node26 -->
<g id="edge27_Node000001_Node000026" class="edge">
<title>Node1&#45;&gt;Node26</title>
<g id="a_edge27_Node000001_Node000026"><a xlink:title=" ">
<path fill="none" stroke="#63b8ff" d="M1429.31,-191.62C1402.29,-181.62 1359.23,-165.67 1328.67,-154.35"/>
<polygon fill="#63b8ff" stroke="#63b8ff" points="1330.04,-151.12 1319.45,-150.93 1327.61,-157.69 1330.04,-151.12"/>
</a>
</g>
</g>
<!-- Node27 -->
<g id="Node000027" class="node">
<title>Node27</title>
<g id="a_Node000027"><a xlink:href="tinyengine__sprite_8h.html" target="_top" xlink:title=" ">
<polygon fill="white" stroke="#666666" points="1987.5,-88 1889.75,-88 1889.75,-68 1987.5,-68 1987.5,-88"/>
<text xml:space="preserve" text-anchor="middle" x="1938.62" y="-74.5" font-family="Helvetica,sans-Serif" font-size="10.00">tinyengine_sprite.h</text>
</a>
</g>
</g>
<!-- Node1&#45;&gt;Node27 -->
<g id="edge31_Node000001_Node000027" class="edge">
<title>Node1&#45;&gt;Node27</title>
<g id="a_edge31_Node000001_Node000027"><a xlink:title=" ">
<path fill="none" stroke="#63b8ff" d="M1465.67,-191.56C1488.78,-171.91 1540.87,-128.08 1550.62,-124 1608.29,-99.91 1784.04,-87.18 1877.95,-81.94"/>
<polygon fill="#63b8ff" stroke="#63b8ff" points="1877.96,-85.45 1887.75,-81.41 1877.58,-78.46 1877.96,-85.45"/>
</a>
</g>
</g>
<!-- Node28 -->
<g id="Node000028" class="node">
<title>Node28</title>
<g id="a_Node000028"><a xlink:href="tinyengine__audio_8h.html" target="_top" xlink:title=" ">
<polygon fill="white" stroke="#666666" points="1220.12,-150 1123.12,-150 1123.12,-130 1220.12,-130 1220.12,-150"/>
<text xml:space="preserve" text-anchor="middle" x="1171.62" y="-136.5" font-family="Helvetica,sans-Serif" font-size="10.00">tinyengine_audio.h</text>
</a>
</g>
</g>
<!-- Node1&#45;&gt;Node28 -->
<g id="edge33_Node000001_Node000028" class="edge">
<title>Node1&#45;&gt;Node28</title>
<g id="a_edge33_Node000001_Node000028"><a xlink:title=" ">
<path fill="none" stroke="#63b8ff" d="M1415.46,-193.85C1370.46,-185.48 1294.47,-170.86 1229.62,-156 1225.81,-155.13 1221.86,-154.18 1217.9,-153.21"/>
<polygon fill="#63b8ff" stroke="#63b8ff" points="1218.84,-149.84 1208.29,-150.8 1217.14,-156.63 1218.84,-149.84"/>
</a>
</g>
</g>
<!-- Node29 -->
<g id="Node000029" class="node">
<title>Node29</title>
<g id="a_Node000029"><a xlink:href="tinyengine__renderer__dvi_8h.html" target="_top" xlink:title=" ">
<polygon fill="white" stroke="#666666" points="1466,-156 1365.25,-156 1365.25,-124 1466,-124 1466,-156"/>
<text xml:space="preserve" text-anchor="start" x="1373.25" y="-142.5" font-family="Helvetica,sans-Serif" font-size="10.00">tinyengine_renderer</text>
<text xml:space="preserve" text-anchor="middle" x="1415.62" y="-130.5" font-family="Helvetica,sans-Serif" font-size="10.00">_dvi.h</text>
</a>
</g>
</g>
<!-- Node1&#45;&gt;Node29 -->
<g id="edge35_Node000001_Node000029" class="edge">
<title>Node1&#45;&gt;Node29</title>
<g id="a_edge35_Node000001_Node000029"><a xlink:title=" ">
<path fill="none" stroke="#63b8ff" d="M1448.53,-191.62C1444,-184.65 1437.6,-174.8 1431.64,-165.64"/>
<polygon fill="#63b8ff" stroke="#63b8ff" points="1434.68,-163.89 1426.29,-157.41 1428.81,-167.7 1434.68,-163.89"/>
</a>
</g>
</g>
<!-- Node30 -->
<g id="Node000030" class="node">
<title>Node30</title>
<g id="a_Node000030"><a xlink:title=" ">
<polygon fill="#e0e0e0" stroke="#999999" points="1687.62,-150 1623.62,-150 1623.62,-130 1687.62,-130 1687.62,-150"/>
<text xml:space="preserve" text-anchor="middle" x="1655.62" y="-136.5" font-family="Helvetica,sans-Serif" font-size="10.00">pico/rand.h</text>
</a>
</g>
</g>
<!-- Node1&#45;&gt;Node30 -->
<g id="edge39_Node000001_Node000030" class="edge">
<title>Node1&#45;&gt;Node30</title>
<g id="a_edge39_Node000001_Node000030"><a xlink:title=" ">
<path fill="none" stroke="#63b8ff" d="M1491.4,-191.51C1523.99,-182.91 1572.75,-169.53 1614.62,-156 1616.46,-155.41 1618.33,-154.78 1620.22,-154.14"/>
<polygon fill="#63b8ff" stroke="#63b8ff" points="1621.31,-157.47 1629.59,-150.85 1618.99,-150.87 1621.31,-157.47"/>
</a>
</g>
</g>
<!-- Node31 -->
<g id="Node000031" class="node">
<title>Node31</title>
<g id="a_Node000031"><a xlink:title=" ">
<polygon fill="#e0e0e0" stroke="#999999" points="1793.62,-150 1705.62,-150 1705.62,-130 1793.62,-130 1793.62,-150"/>
<text xml:space="preserve" text-anchor="middle" x="1749.62" y="-136.5" font-family="Helvetica,sans-Serif" font-size="10.00">hardware/pwm.h</text>
</a>
</g>
</g>
<!-- Node1&#45;&gt;Node31 -->
<g id="edge40_Node000001_Node000031" class="edge">
<title>Node1&#45;&gt;Node31</title>
<g id="a_edge40_Node000001_Node000031"><a xlink:title=" ">
<path fill="none" stroke="#63b8ff" d="M1493.83,-194.85C1541.89,-187.05 1625.68,-172.6 1696.62,-156 1700.01,-155.21 1703.5,-154.34 1707,-153.43"/>
<polygon fill="#63b8ff" stroke="#63b8ff" points="1707.87,-156.82 1716.62,-150.84 1706.05,-150.06 1707.87,-156.82"/>
</a>
</g>
</g>
<!-- Node32 -->
<g id="Node000032" class="node">
<title>Node32</title>
<g id="a_Node000032"><a xlink:title=" ">
<polygon fill="#e0e0e0" stroke="#999999" points="1870,-150 1811.25,-150 1811.25,-130 1870,-130 1870,-150"/>
<text xml:space="preserve" text-anchor="middle" x="1840.62" y="-136.5" font-family="Helvetica,sans-Serif" font-size="10.00">memory.h</text>
</a>
</g>
</g>
<!-- Node1&#45;&gt;Node32 -->
<g id="edge41_Node000001_Node000032" class="edge">
<title>Node1&#45;&gt;Node32</title>
<g id="a_edge41_Node000001_Node000032"><a xlink:title=" ">
<path fill="none" stroke="#63b8ff" d="M1493.84,-199.09C1558.91,-195.22 1692.9,-184.28 1802.62,-156 1804.74,-155.46 1806.89,-154.83 1809.04,-154.14"/>
<polygon fill="#63b8ff" stroke="#63b8ff" points="1809.96,-157.53 1818.2,-150.87 1807.61,-150.93 1809.96,-157.53"/>
</a>
</g>
</g>
<!-- Node33 -->
<g id="Node000033" class="node">
<title>Node33</title>
<g id="a_Node000033"><a xlink:title=" ">
<polygon fill="#e0e0e0" stroke="#999999" points="1941,-150 1888.25,-150 1888.25,-130 1941,-130 1941,-150"/>
<text xml:space="preserve" text-anchor="middle" x="1914.62" y="-136.5" font-family="Helvetica,sans-Serif" font-size="10.00">malloc.h</text>
</a>
</g>
</g>
<!-- Node1&#45;&gt;Node33 -->
<g id="edge42_Node000001_Node000033" class="edge">
<title>Node1&#45;&gt;Node33</title>
<g id="a_edge42_Node000001_Node000033"><a xlink:title=" ">
<path fill="none" stroke="#63b8ff" d="M1493.87,-200.59C1569.51,-198.99 1740.21,-191.38 1878.62,-156 1880.47,-155.53 1882.35,-154.98 1884.23,-154.37"/>
<polygon fill="#63b8ff" stroke="#63b8ff" points="1885.21,-157.74 1893.38,-150.99 1882.78,-151.18 1885.21,-157.74"/>
</a>
</g>
</g>
<!-- Node34 -->
<g id="Node000034" class="node">
<title>Node34</title>
<g id="a_Node000034"><a xlink:href="_game_8h.html" target="_top" xlink:title="Abstract definition file for Games.">
<polygon fill="white" stroke="#666666" points="866.88,-150 816.38,-150 816.38,-130 866.88,-130 866.88,-150"/>
<text xml:space="preserve" text-anchor="middle" x="841.62" y="-136.5" font-family="Helvetica,sans-Serif" font-size="10.00">Game.h</text>
</a>
</g>
</g>
<!-- Node1&#45;&gt;Node34 -->
<g id="edge43_Node000001_Node000034" class="edge">
<title>Node1&#45;&gt;Node34</title>
<g id="a_edge43_Node000001_Node000034"><a xlink:title=" ">
<path fill="none" stroke="#63b8ff" d="M1415.81,-197.2C1304.83,-186.34 987.17,-155.25 878.56,-144.61"/>
<polygon fill="#63b8ff" stroke="#63b8ff" points="879.04,-141.15 868.75,-143.66 878.36,-148.11 879.04,-141.15"/>
</a>
</g>
</g>
<!-- Node4&#45;&gt;Node2 -->
<g id="edge5_Node000004_Node000002" class="edge">
<title>Node4&#45;&gt;Node2</title>
<g id="a_edge5_Node000004_Node000002"><a xlink:title=" ">
<path fill="none" stroke="#63b8ff" d="M1137.16,-76.42C960.64,-73.36 161.86,-58.16 54.62,-32 53.02,-31.61 51.4,-31.14 49.79,-30.6"/>
<polygon fill="#63b8ff" stroke="#63b8ff" points="51.42,-27.48 40.84,-26.97 48.79,-33.97 51.42,-27.48"/>
</a>
</g>
</g>
<!-- Node4&#45;&gt;Node5 -->
<g id="edge4_Node000004_Node000005" class="edge">
<title>Node4&#45;&gt;Node5</title>
<g id="a_edge4_Node000004_Node000005"><a xlink:title=" ">
<path fill="none" stroke="#63b8ff" d="M1137.12,-76.09C969.05,-71.59 240.15,-51.1 140.62,-32 137.6,-31.42 134.5,-30.67 131.42,-29.81"/>
<polygon fill="#63b8ff" stroke="#63b8ff" points="132.53,-26.49 121.94,-26.82 130.42,-33.17 132.53,-26.49"/>
</a>
</g>
</g>
<!-- Node6 -->
<g id="Node000006" class="node">
<title>Node6</title>
<g id="a_Node000006"><a xlink:title=" ">
<polygon fill="#e0e0e0" stroke="#999999" points="229.5,-26 149.75,-26 149.75,-6 229.5,-6 229.5,-26"/>
<text xml:space="preserve" text-anchor="middle" x="189.62" y="-12.5" font-family="Helvetica,sans-Serif" font-size="10.00">hardware/spi.h</text>
</a>
</g>
</g>
<!-- Node4&#45;&gt;Node6 -->
<g id="edge6_Node000004_Node000006" class="edge">
<title>Node4&#45;&gt;Node6</title>
<g id="a_edge6_Node000004_Node000006"><a xlink:title=" ">
<path fill="none" stroke="#63b8ff" d="M1137.01,-76.48C989.93,-74.1 416.35,-62.99 238.62,-32 234.83,-31.34 230.91,-30.47 227.03,-29.49"/>
<polygon fill="#63b8ff" stroke="#63b8ff" points="228.32,-26.21 217.75,-26.88 226.43,-32.95 228.32,-26.21"/>
</a>
</g>
</g>
<!-- Node7 -->
<g id="Node000007" class="node">
<title>Node7</title>
<g id="a_Node000007"><a xlink:title=" ">
<polygon fill="#e0e0e0" stroke="#999999" points="945.75,-26 897.5,-26 897.5,-6 945.75,-6 945.75,-26"/>
<text xml:space="preserve" text-anchor="middle" x="921.62" y="-12.5" font-family="Helvetica,sans-Serif" font-size="10.00">stdint.h</text>
</a>
</g>
</g>
<!-- Node4&#45;&gt;Node7 -->
<g id="edge7_Node000004_Node000007" class="edge">
<title>Node4&#45;&gt;Node7</title>
<g id="a_edge7_Node000004_Node000007"><a xlink:title=" ">
<path fill="none" stroke="#63b8ff" d="M1137.19,-72.28C1093.87,-65.79 1017.53,-52.54 954.62,-32 953.46,-31.62 952.28,-31.21 951.09,-30.78"/>
<polygon fill="#63b8ff" stroke="#63b8ff" points="952.52,-27.58 941.93,-27.03 949.87,-34.06 952.52,-27.58"/>
</a>
</g>
</g>
<!-- Node8 -->
<g id="Node000008" class="node">
<title>Node8</title>
<g id="a_Node000008"><a xlink:href="tinyengine__scene_8h.html" target="_top" xlink:title=" ">
<polygon fill="white" stroke="#666666" points="1063.62,-26 963.62,-26 963.62,-6 1063.62,-6 1063.62,-26"/>
<text xml:space="preserve" text-anchor="middle" x="1013.62" y="-12.5" font-family="Helvetica,sans-Serif" font-size="10.00">tinyengine_scene.h</text>
</a>
</g>
</g>
<!-- Node4&#45;&gt;Node8 -->
<g id="edge8_Node000004_Node000008" class="edge">
<title>Node4&#45;&gt;Node8</title>
<g id="a_edge8_Node000004_Node000008"><a xlink:title=" ">
<path fill="none" stroke="#63b8ff" d="M1146.94,-67.62C1120.58,-57.62 1078.58,-41.67 1048.78,-30.35"/>
<polygon fill="#63b8ff" stroke="#63b8ff" points="1050.41,-27.22 1039.81,-26.95 1047.92,-33.77 1050.41,-27.22"/>
</a>
</g>
</g>
<!-- Node9 -->
<g id="Node000009" class="node">
<title>Node9</title>
<g id="a_Node000009"><a xlink:title=" ">
<polygon fill="#e0e0e0" stroke="#999999" points="1164,-26 1081.25,-26 1081.25,-6 1164,-6 1164,-26"/>
<text xml:space="preserve" text-anchor="middle" x="1122.62" y="-12.5" font-family="Helvetica,sans-Serif" font-size="10.00">unordered_map</text>
</a>
</g>
</g>
<!-- Node4&#45;&gt;Node9 -->
<g id="edge9_Node000004_Node000009" class="edge">
<title>Node4&#45;&gt;Node9</title>
<g id="a_edge9_Node000004_Node000009"><a xlink:title=" ">
<path fill="none" stroke="#63b8ff" d="M1163.97,-67.62C1156.81,-58.86 1145.92,-45.53 1137.12,-34.75"/>
<polygon fill="#63b8ff" stroke="#63b8ff" points="1140.06,-32.82 1131.02,-27.28 1134.64,-37.24 1140.06,-32.82"/>
</a>
</g>
</g>
<!-- Node10 -->
<g id="Node000010" class="node">
<title>Node10</title>
<g id="a_Node000010"><a xlink:title=" ">
<polygon fill="#e0e0e0" stroke="#999999" points="1259,-26 1182.25,-26 1182.25,-6 1259,-6 1259,-26"/>
<text xml:space="preserve" text-anchor="middle" x="1220.62" y="-12.5" font-family="Helvetica,sans-Serif" font-size="10.00">hardware/pll.h</text>
</a>
</g>
</g>
<!-- Node4&#45;&gt;Node10 -->
<g id="edge10_Node000004_Node000010" class="edge">
<title>Node4&#45;&gt;Node10</title>
<g id="a_edge10_Node000004_Node000010"><a xlink:title=" ">
<path fill="none" stroke="#63b8ff" d="M1179.28,-67.62C1186.44,-58.86 1197.33,-45.53 1206.13,-34.75"/>
<polygon fill="#63b8ff" stroke="#63b8ff" points="1208.61,-37.24 1212.23,-27.28 1203.19,-32.82 1208.61,-37.24"/>
</a>
</g>
</g>
<!-- Node11 -->
<g id="Node000011" class="node">
<title>Node11</title>
<g id="a_Node000011"><a xlink:title=" ">
<polygon fill="#e0e0e0" stroke="#999999" points="1362.5,-26 1276.75,-26 1276.75,-6 1362.5,-6 1362.5,-26"/>
<text xml:space="preserve" text-anchor="middle" x="1319.62" y="-12.5" font-family="Helvetica,sans-Serif" font-size="10.00">hardware/vreg.h</text>
</a>
</g>
</g>
<!-- Node4&#45;&gt;Node11 -->
<g id="edge11_Node000004_Node000011" class="edge">
<title>Node4&#45;&gt;Node11</title>
<g id="a_edge11_Node000004_Node000011"><a xlink:title=" ">
<path fill="none" stroke="#63b8ff" d="M1194.75,-67.62C1219.3,-57.67 1258.32,-41.85 1286.2,-30.55"/>
<polygon fill="#63b8ff" stroke="#63b8ff" points="1287.31,-33.88 1295.26,-26.88 1284.68,-27.39 1287.31,-33.88"/>
</a>
</g>
</g>
<!-- Node12 -->
<g id="Node000012" class="node">
<title>Node12</title>
<g id="a_Node000012"><a xlink:title=" ">
<polygon fill="#e0e0e0" stroke="#999999" points="1476.38,-26 1380.88,-26 1380.88,-6 1476.38,-6 1476.38,-26"/>
<text xml:space="preserve" text-anchor="middle" x="1428.62" y="-12.5" font-family="Helvetica,sans-Serif" font-size="10.00">hardware/clocks.h</text>
</a>
</g>
</g>
<!-- Node4&#45;&gt;Node12 -->
<g id="edge12_Node000004_Node000012" class="edge">
<title>Node4&#45;&gt;Node12</title>
<g id="a_edge12_Node000004_Node000012"><a xlink:title=" ">
<path fill="none" stroke="#63b8ff" d="M1206.04,-69.65C1245.96,-61.03 1313.71,-46.13 1371.62,-32 1375.15,-31.14 1378.8,-30.23 1382.46,-29.3"/>
<polygon fill="#63b8ff" stroke="#63b8ff" points="1383.13,-32.74 1391.94,-26.86 1381.38,-25.96 1383.13,-32.74"/>
</a>
</g>
</g>
<!-- Node13 -->
<g id="Node000013" class="node">
<title>Node13</title>
<g id="a_Node000013"><a xlink:title=" ">
<polygon fill="#e0e0e0" stroke="#999999" points="1604.5,-26 1494.75,-26 1494.75,-6 1604.5,-6 1604.5,-26"/>
<text xml:space="preserve" text-anchor="middle" x="1549.62" y="-12.5" font-family="Helvetica,sans-Serif" font-size="10.00">hardware/structs/pll.h</text>
</a>
</g>
</g>
<!-- Node4&#45;&gt;Node13 -->
<g id="edge13_Node000004_Node000013" class="edge">
<title>Node4&#45;&gt;Node13</title>
<g id="a_edge13_Node000004_Node000013"><a xlink:title=" ">
<path fill="none" stroke="#63b8ff" d="M1206.17,-73.06C1264.17,-66.21 1384.69,-51.02 1485.62,-32 1490.55,-31.07 1495.67,-30.02 1500.78,-28.91"/>
<polygon fill="#63b8ff" stroke="#63b8ff" points="1501.37,-32.37 1510.36,-26.77 1499.84,-25.54 1501.37,-32.37"/>
</a>
</g>
</g>
<!-- Node14 -->
<g id="Node000014" class="node">
<title>Node14</title>
<g id="a_Node000014"><a xlink:title=" ">
<polygon fill="#e0e0e0" stroke="#999999" points="1750.88,-26 1622.38,-26 1622.38,-6 1750.88,-6 1750.88,-26"/>
<text xml:space="preserve" text-anchor="middle" x="1686.62" y="-12.5" font-family="Helvetica,sans-Serif" font-size="10.00">hardware/structs/clocks.h</text>
</a>
</g>
</g>
<!-- Node4&#45;&gt;Node14 -->
<g id="edge14_Node000004_Node000014" class="edge">
<title>Node4&#45;&gt;Node14</title>
<g id="a_edge14_Node000004_Node000014"><a xlink:title=" ">
<path fill="none" stroke="#63b8ff" d="M1206.16,-74.68C1280.81,-69.4 1462.66,-55.13 1613.62,-32 1620.02,-31.02 1626.69,-29.85 1633.3,-28.61"/>
<polygon fill="#63b8ff" stroke="#63b8ff" points="1633.67,-32.1 1642.81,-26.74 1632.32,-25.23 1633.67,-32.1"/>
</a>
</g>
</g>
<!-- Node15 -->
<g id="Node000015" class="node">
<title>Node15</title>
<g id="a_Node000015"><a xlink:title=" ">
<polygon fill="#e0e0e0" stroke="#999999" points="1854.5,-26 1768.75,-26 1768.75,-6 1854.5,-6 1854.5,-26"/>
<text xml:space="preserve" text-anchor="middle" x="1811.62" y="-12.5" font-family="Helvetica,sans-Serif" font-size="10.00">hardware/dma.h</text>
</a>
</g>
</g>
<!-- Node4&#45;&gt;Node15 -->
<g id="edge15_Node000004_Node000015" class="edge">
<title>Node4&#45;&gt;Node15</title>
<g id="a_edge15_Node000004_Node000015"><a xlink:title=" ">
<path fill="none" stroke="#63b8ff" d="M1206.22,-74.77C1324.02,-67.11 1705.22,-41.82 1759.62,-32 1763.65,-31.27 1767.82,-30.36 1771.95,-29.34"/>
<polygon fill="#63b8ff" stroke="#63b8ff" points="1772.5,-32.82 1781.26,-26.86 1770.69,-26.06 1772.5,-32.82"/>
</a>
</g>
</g>
<!-- Node16 -->
<g id="Node000016" class="node">
<title>Node16</title>
<g id="a_Node000016"><a xlink:title=" ">
<polygon fill="#e0e0e0" stroke="#999999" points="1957.12,-26 1872.12,-26 1872.12,-6 1957.12,-6 1957.12,-26"/>
<text xml:space="preserve" text-anchor="middle" x="1914.62" y="-12.5" font-family="Helvetica,sans-Serif" font-size="10.00">hardware/gpio.h</text>
</a>
</g>
</g>
<!-- Node4&#45;&gt;Node16 -->
<g id="edge16_Node000004_Node000016" class="edge">
<title>Node4&#45;&gt;Node16</title>
<g id="a_edge16_Node000004_Node000016"><a xlink:title=" ">
<path fill="none" stroke="#63b8ff" d="M1205.97,-74.87C1343.43,-66.33 1847.25,-34.9 1863.62,-32 1867.51,-31.31 1871.53,-30.43 1875.52,-29.45"/>
<polygon fill="#63b8ff" stroke="#63b8ff" points="1876.36,-32.84 1885.1,-26.85 1874.54,-26.09 1876.36,-32.84"/>
</a>
</g>
</g>
<!-- Node17 -->
<g id="Node000017" class="node">
<title>Node17</title>
<g id="a_Node000017"><a xlink:title=" ">
<polygon fill="#e0e0e0" stroke="#999999" points="2052.38,-26 1974.88,-26 1974.88,-6 2052.38,-6 2052.38,-26"/>
<text xml:space="preserve" text-anchor="middle" x="2013.62" y="-12.5" font-family="Helvetica,sans-Serif" font-size="10.00">hardware/irq.h</text>
</a>
</g>
</g>
<!-- Node4&#45;&gt;Node17 -->
<g id="edge17_Node000004_Node000017" class="edge">
<title>Node4&#45;&gt;Node17</title>
<g id="a_edge17_Node000004_Node000017"><a xlink:title=" ">
<path fill="none" stroke="#63b8ff" d="M1206.18,-74.89C1236.58,-73.04 1282.04,-70.29 1321.62,-68 1608.26,-51.4 1684.27,-84.06 1966.62,-32 1970.05,-31.37 1973.58,-30.56 1977.08,-29.64"/>
<polygon fill="#63b8ff" stroke="#63b8ff" points="1977.99,-33.02 1986.61,-26.87 1976.03,-26.3 1977.99,-33.02"/>
</a>
</g>
</g>
<!-- Node18 -->
<g id="Node000018" class="node">
<title>Node18</title>
<g id="a_Node000018"><a xlink:title=" ">
<polygon fill="#e0e0e0" stroke="#999999" points="2178.38,-32 2070.88,-32 2070.88,0 2178.38,0 2178.38,-32"/>
<text xml:space="preserve" text-anchor="start" x="2078.88" y="-18.5" font-family="Helvetica,sans-Serif" font-size="10.00">hardware/structs/bus</text>
<text xml:space="preserve" text-anchor="middle" x="2124.62" y="-6.5" font-family="Helvetica,sans-Serif" font-size="10.00">_ctrl.h</text>
</a>
</g>
</g>
<!-- Node4&#45;&gt;Node18 -->
<g id="edge18_Node000004_Node000018" class="edge">
<title>Node4&#45;&gt;Node18</title>
<g id="a_edge18_Node000004_Node000018"><a xlink:title=" ">
<path fill="none" stroke="#63b8ff" d="M1206.17,-74.82C1236.57,-72.92 1282.03,-70.15 1321.62,-68 1646.73,-50.34 1733.68,-77.7 2059.26,-32.15"/>
<polygon fill="#63b8ff" stroke="#63b8ff" points="2059.54,-35.65 2068.95,-30.78 2058.56,-28.72 2059.54,-35.65"/>
</a>
</g>
</g>
<!-- Node19 -->
<g id="Node000019" class="node">
<title>Node19</title>
<g id="a_Node000019"><a xlink:title=" ">
<polygon fill="#e0e0e0" stroke="#999999" points="357.88,-32 247.38,-32 247.38,0 357.88,0 357.88,-32"/>
<text xml:space="preserve" text-anchor="start" x="255.38" y="-18.5" font-family="Helvetica,sans-Serif" font-size="10.00">hardware/structs/hstx</text>
<text xml:space="preserve" text-anchor="middle" x="302.62" y="-6.5" font-family="Helvetica,sans-Serif" font-size="10.00">_ctrl.h</text>
</a>
</g>
</g>
<!-- Node4&#45;&gt;Node19 -->
<g id="edge19_Node000004_Node000019" class="edge">
<title>Node4&#45;&gt;Node19</title>
<g id="a_edge19_Node000004_Node000019"><a xlink:title=" ">
<path fill="none" stroke="#63b8ff" d="M1136.94,-77.17C1026.31,-77.26 671.92,-74.13 369.37,-32.05"/>
<polygon fill="#63b8ff" stroke="#63b8ff" points="370.07,-28.62 359.68,-30.69 369.09,-35.55 370.07,-28.62"/>
</a>
</g>
</g>
<!-- Node20 -->
<g id="Node000020" class="node">
<title>Node20</title>
<g id="a_Node000020"><a xlink:title=" ">
<polygon fill="#e0e0e0" stroke="#999999" points="486.88,-32 376.38,-32 376.38,0 486.88,0 486.88,-32"/>
<text xml:space="preserve" text-anchor="start" x="384.38" y="-18.5" font-family="Helvetica,sans-Serif" font-size="10.00">hardware/structs/hstx</text>
<text xml:space="preserve" text-anchor="middle" x="431.62" y="-6.5" font-family="Helvetica,sans-Serif" font-size="10.00">_fifo.h</text>
</a>
</g>
</g>
<!-- Node4&#45;&gt;Node20 -->
<g id="edge20_Node000004_Node000020" class="edge">
<title>Node4&#45;&gt;Node20</title>
<g id="a_edge20_Node000004_Node000020"><a xlink:title=" ">
<path fill="none" stroke="#63b8ff" d="M1137,-76.64C1038.57,-75.22 748.7,-68.17 498.32,-32.07"/>
<polygon fill="#63b8ff" stroke="#63b8ff" points="499.08,-28.64 488.68,-30.66 498.07,-35.57 499.08,-28.64"/>
</a>
</g>
</g>
<!-- Node21 -->
<g id="Node000021" class="node">
<title>Node21</title>
<g id="a_Node000021"><a xlink:title=" ">
<polygon fill="#e0e0e0" stroke="#999999" points="618,-26 505.25,-26 505.25,-6 618,-6 618,-26"/>
<text xml:space="preserve" text-anchor="middle" x="561.62" y="-12.5" font-family="Helvetica,sans-Serif" font-size="10.00">hardware/structs/sio.h</text>
</a>
</g>
</g>
<!-- Node4&#45;&gt;Node21 -->
<g id="edge21_Node000004_Node000021" class="edge">
<title>Node4&#45;&gt;Node21</title>
<g id="a_edge21_Node000004_Node000021"><a xlink:title=" ">
<path fill="none" stroke="#63b8ff" d="M1136.99,-75.88C1050.45,-72.69 817.99,-61.82 626.62,-32 621.05,-31.13 615.24,-30.05 609.48,-28.87"/>
<polygon fill="#63b8ff" stroke="#63b8ff" points="610.56,-25.52 600.05,-26.82 609.08,-32.36 610.56,-25.52"/>
</a>
</g>
</g>
<!-- Node22 -->
<g id="Node000022" class="node">
<title>Node22</title>
<g id="a_Node000022"><a xlink:title=" ">
<polygon fill="#e0e0e0" stroke="#999999" points="721.12,-26 636.12,-26 636.12,-6 721.12,-6 721.12,-26"/>
<text xml:space="preserve" text-anchor="middle" x="678.62" y="-12.5" font-family="Helvetica,sans-Serif" font-size="10.00">pico/multicore.h</text>
</a>
</g>
</g>
<!-- Node4&#45;&gt;Node22 -->
<g id="edge22_Node000004_Node000022" class="edge">
<title>Node4&#45;&gt;Node22</title>
<g id="a_edge22_Node000004_Node000022"><a xlink:title=" ">
<path fill="none" stroke="#63b8ff" d="M1137.01,-75.58C1062.22,-72.05 880.23,-60.97 730.62,-32 726.82,-31.26 722.89,-30.37 718.98,-29.4"/>
<polygon fill="#63b8ff" stroke="#63b8ff" points="720.13,-26.09 709.56,-26.89 718.32,-32.85 720.13,-26.09"/>
</a>
</g>
</g>
<!-- Node23 -->
<g id="Node000023" class="node">
<title>Node23</title>
<g id="a_Node000023"><a xlink:title=" ">
<polygon fill="#e0e0e0" stroke="#999999" points="803.62,-26 739.62,-26 739.62,-6 803.62,-6 803.62,-26"/>
<text xml:space="preserve" text-anchor="middle" x="771.62" y="-12.5" font-family="Helvetica,sans-Serif" font-size="10.00">pico/sem.h</text>
</a>
</g>
</g>
<!-- Node4&#45;&gt;Node23 -->
<g id="edge23_Node000004_Node000023" class="edge">
<title>Node4&#45;&gt;Node23</title>
<g id="a_edge23_Node000004_Node000023"><a xlink:title=" ">
<path fill="none" stroke="#63b8ff" d="M1137,-75.26C1072.42,-71.45 929.53,-60.33 812.62,-32 810.32,-31.44 807.97,-30.8 805.62,-30.09"/>
<polygon fill="#63b8ff" stroke="#63b8ff" points="806.79,-26.8 796.2,-26.97 804.59,-33.44 806.79,-26.8"/>
</a>
</g>
</g>
<!-- Node24 -->
<g id="Node000024" class="node">
<title>Node24</title>
<g id="a_Node000024"><a xlink:title=" ">
<polygon fill="#e0e0e0" stroke="#999999" points="879.62,-26 821.62,-26 821.62,-6 879.62,-6 879.62,-26"/>
<text xml:space="preserve" text-anchor="middle" x="850.62" y="-12.5" font-family="Helvetica,sans-Serif" font-size="10.00">functional</text>
</a>
</g>
</g>
<!-- Node4&#45;&gt;Node24 -->
<g id="edge24_Node000004_Node000024" class="edge">
<title>Node4&#45;&gt;Node24</title>
<g id="a_edge24_Node000004_Node000024"><a xlink:title=" ">
<path fill="none" stroke="#63b8ff" d="M1137.14,-73.97C1083.32,-68.69 976.44,-56 888.62,-32 886.66,-31.46 884.65,-30.86 882.64,-30.2"/>
<polygon fill="#63b8ff" stroke="#63b8ff" points="884.07,-27 873.48,-26.91 881.7,-33.58 884.07,-27"/>
</a>
</g>
</g>
<!-- Node4&#45;&gt;Node25 -->
<g id="edge25_Node000004_Node000025" class="edge">
<title>Node4&#45;&gt;Node25</title>
<g id="a_edge25_Node000004_Node000025"><a xlink:title=" ">
<path fill="none" stroke="#63b8ff" d="M1206.11,-74.27C1234.71,-72.37 1276.15,-69.85 1312.62,-68 1697.35,-48.46 1796.47,-80.53 2178.62,-32 2185.34,-31.15 2192.37,-29.98 2199.36,-28.67"/>
<polygon fill="#63b8ff" stroke="#63b8ff" points="2200.02,-32.1 2209.15,-26.73 2198.66,-25.24 2200.02,-32.1"/>
</a>
</g>
</g>
<!-- Node25&#45;&gt;Node4 -->
<g id="edge26_Node000025_Node000004" class="edge">
<title>Node25&#45;&gt;Node4</title>
<g id="a_edge26_Node000025_Node000004"><a xlink:title=" ">
<path fill="none" stroke="#63b8ff" d="M2228,-26.43C2218.08,-28.62 2206.98,-30.68 2196.62,-32 1814.47,-80.53 1715.35,-48.46 1330.62,-68 1292.68,-69.93 1249.37,-72.57 1217.42,-74.5"/>
<polygon fill="#63b8ff" stroke="#63b8ff" points="1217.48,-70.99 1207.7,-75.08 1217.9,-77.98 1217.48,-70.99"/>
</a>
</g>
</g>
<!-- Node26&#45;&gt;Node4 -->
<g id="edge28_Node000026_Node000004" class="edge">
<title>Node26&#45;&gt;Node4</title>
<g id="a_edge28_Node000026_Node000004"><a xlink:title=" ">
<path fill="none" stroke="#63b8ff" d="M1273.72,-129.62C1254.09,-119.89 1223.15,-104.55 1200.47,-93.31"/>
<polygon fill="#63b8ff" stroke="#63b8ff" points="1202.27,-90.29 1191.75,-88.98 1199.16,-96.56 1202.27,-90.29"/>
</a>
</g>
</g>
<!-- Node26&#45;&gt;Node25 -->
<g id="edge29_Node000026_Node000025" class="edge">
<title>Node26&#45;&gt;Node25</title>
<g id="a_edge29_Node000026_Node000025"><a xlink:title=" ">
<path fill="none" stroke="#63b8ff" d="M1307.86,-129.68C1334.99,-113.64 1393.97,-81.25 1448.62,-68 1768.2,9.49 1861.56,-74.59 2187.62,-32 2194.18,-31.14 2201.03,-30 2207.77,-28.72"/>
<polygon fill="#63b8ff" stroke="#63b8ff" points="2208.35,-32.17 2217.46,-26.76 2206.96,-25.31 2208.35,-32.17"/>
</a>
</g>
</g>
<!-- Node27&#45;&gt;Node25 -->
<g id="edge32_Node000027_Node000025" class="edge">
<title>Node27&#45;&gt;Node25</title>
<g id="a_edge32_Node000027_Node000025"><a xlink:title=" ">
<path fill="none" stroke="#63b8ff" d="M1987.85,-68.59C2038.14,-59.88 2118.45,-45.66 2187.62,-32 2192.84,-30.97 2198.26,-29.87 2203.68,-28.74"/>
<polygon fill="#63b8ff" stroke="#63b8ff" points="2204.18,-32.21 2213.25,-26.73 2202.74,-25.36 2204.18,-32.21"/>
</a>
</g>
</g>
<!-- Node28&#45;&gt;Node4 -->
<g id="edge34_Node000028_Node000004" class="edge">
<title>Node28&#45;&gt;Node4</title>
<g id="a_edge34_Node000028_Node000004"><a xlink:title=" ">
<path fill="none" stroke="#63b8ff" d="M1171.62,-129.62C1171.62,-121.56 1171.62,-109.65 1171.62,-99.41"/>
<polygon fill="#63b8ff" stroke="#63b8ff" points="1175.13,-99.63 1171.63,-89.63 1168.13,-99.63 1175.13,-99.63"/>
</a>
</g>
</g>
<!-- Node29&#45;&gt;Node4 -->
<g id="edge36_Node000029_Node000004" class="edge">
<title>Node29&#45;&gt;Node4</title>
<g id="a_edge36_Node000029_Node000004"><a xlink:title=" ">
<path fill="none" stroke="#63b8ff" d="M1364.78,-126.04C1362.03,-125.35 1359.29,-124.66 1356.62,-124 1309.1,-112.18 1254.61,-98.97 1217.14,-89.93"/>
<polygon fill="#63b8ff" stroke="#63b8ff" points="1218.1,-86.56 1207.56,-87.62 1216.46,-93.37 1218.1,-86.56"/>
</a>
</g>
</g>
<!-- Node29&#45;&gt;Node25 -->
<g id="edge37_Node000029_Node000025" class="edge">
<title>Node29&#45;&gt;Node25</title>
<g id="a_edge37_Node000029_Node000025"><a xlink:title=" ">
<path fill="none" stroke="#63b8ff" d="M1424.38,-123.54C1434.99,-106.49 1454.6,-79.9 1479.62,-68 1550.76,-34.16 2109.53,-42.29 2187.62,-32 2194.18,-31.14 2201.03,-29.99 2207.77,-28.7"/>
<polygon fill="#63b8ff" stroke="#63b8ff" points="2208.35,-32.16 2217.46,-26.75 2206.96,-25.29 2208.35,-32.16"/>
</a>
</g>
</g>
<!-- Node35 -->
<g id="Node000035" class="node">
<title>Node35</title>
<g id="a_Node000035"><a xlink:href="main_8h.html" target="_top" xlink:title=" ">
<polygon fill="white" stroke="#666666" points="663.25,-88 618,-88 618,-68 663.25,-68 663.25,-88"/>
<text xml:space="preserve" text-anchor="middle" x="640.62" y="-74.5" font-family="Helvetica,sans-Serif" font-size="10.00">main.h</text>
</a>
</g>
</g>
<!-- Node34&#45;&gt;Node35 -->
<g id="edge44_Node000034_Node000035" class="edge">
<title>Node34&#45;&gt;Node35</title>
<g id="a_edge44_Node000034_Node000035"><a xlink:title=" ">
<path fill="none" stroke="#63b8ff" d="M816.17,-131.4C780.23,-120.67 714.54,-101.06 674.51,-89.12"/>
<polygon fill="#63b8ff" stroke="#63b8ff" points="675.74,-85.83 665.15,-86.32 673.73,-92.54 675.74,-85.83"/>
</a>
</g>
</g>
<!-- Node35&#45;&gt;Node6 -->
<g id="edge45_Node000035_Node000006" class="edge">
<title>Node35&#45;&gt;Node6</title>
<g id="a_edge45_Node000035_Node000006"><a xlink:title=" ">
<path fill="none" stroke="#63b8ff" d="M617.72,-75.93C555.96,-72.71 380.97,-61.49 238.62,-32 235.25,-31.3 231.77,-30.47 228.3,-29.56"/>
<polygon fill="#63b8ff" stroke="#63b8ff" points="229.41,-26.24 218.83,-26.89 227.51,-32.97 229.41,-26.24"/>
</a>
</g>
</g>
</g>
</svg>
