<?xml version="1.0" encoding="UTF-8" standalone="no"?>
<!DOCTYPE svg PUBLIC "-//W3C//DTD SVG 1.1//EN"
 "http://www.w3.org/Graphics/SVG/1.1/DTD/svg11.dtd">
<!-- Generated by graphviz version 13.1.2 (20250808.2320)
 -->
<!-- Title: src/GameScene.cpp Pages: 1 -->
<svg width="2188pt" height="332pt"
 viewBox="0.00 0.00 2188.00 332.00" xmlns="http://www.w3.org/2000/svg" xmlns:xlink="http://www.w3.org/1999/xlink">
<g id="graph0" class="graph" transform="scale(1 1) rotate(0) translate(4 328)">
<title>src/GameScene.cpp</title>
<!-- Node1 -->
<g id="Node000001" class="node">
<title>Node1</title>
<g id="a_Node000001"><a xlink:title=" ">
<polygon fill="#999999" stroke="#666666" points="1019.62,-324 914.38,-324 914.38,-304 1019.62,-304 1019.62,-324"/>
<text xml:space="preserve" text-anchor="middle" x="967" y="-310.5" font-family="Helvetica,sans-Serif" font-size="10.00">src/GameScene.cpp</text>
</a>
</g>
</g>
<!-- Node2 -->
<g id="Node000002" class="node">
<title>Node2</title>
<g id="a_Node000002"><a xlink:href="_game_scene_8h.html" target="_top" xlink:title=" ">
<polygon fill="white" stroke="#666666" points="964.12,-268 885.88,-268 885.88,-248 964.12,-248 964.12,-268"/>
<text xml:space="preserve" text-anchor="middle" x="925" y="-254.5" font-family="Helvetica,sans-Serif" font-size="10.00">GameScene.h</text>
</a>
</g>
</g>
<!-- Node1&#45;&gt;Node2 -->
<g id="edge1_Node000001_Node000002" class="edge">
<title>Node1&#45;&gt;Node2</title>
<g id="a_edge1_Node000001_Node000002"><a xlink:title=" ">
<path fill="none" stroke="#63b8ff" d="M959.68,-303.59C954.02,-296.32 946.01,-286.02 939.11,-277.15"/>
<polygon fill="#63b8ff" stroke="#63b8ff" points="942.06,-275.24 933.16,-269.49 936.54,-279.54 942.06,-275.24"/>
</a>
</g>
</g>
<!-- Node29 -->
<g id="Node000029" class="node">
<title>Node29</title>
<g id="a_Node000029"><a xlink:title=" ">
<polygon fill="#e0e0e0" stroke="#999999" points="1035.38,-268 982.62,-268 982.62,-248 1035.38,-248 1035.38,-268"/>
<text xml:space="preserve" text-anchor="middle" x="1009" y="-254.5" font-family="Helvetica,sans-Serif" font-size="10.00">malloc.h</text>
</a>
</g>
</g>
<!-- Node1&#45;&gt;Node29 -->
<g id="edge33_Node000001_Node000029" class="edge">
<title>Node1&#45;&gt;Node29</title>
<g id="a_edge33_Node000001_Node000029"><a xlink:title=" ">
<path fill="none" stroke="#63b8ff" d="M974.32,-303.59C979.98,-296.32 987.99,-286.02 994.89,-277.15"/>
<polygon fill="#63b8ff" stroke="#63b8ff" points="997.46,-279.54 1000.84,-269.49 991.94,-275.24 997.46,-279.54"/>
</a>
</g>
</g>
<!-- Node3 -->
<g id="Node000003" class="node">
<title>Node3</title>
<g id="a_Node000003"><a xlink:href="tinyengine__scene_8h.html" target="_top" xlink:title=" ">
<polygon fill="white" stroke="#666666" points="100,-26 0,-26 0,-6 100,-6 100,-26"/>
<text xml:space="preserve" text-anchor="middle" x="50" y="-12.5" font-family="Helvetica,sans-Serif" font-size="10.00">tinyengine_scene.h</text>
</a>
</g>
</g>
<!-- Node2&#45;&gt;Node3 -->
<g id="edge2_Node000002_Node000003" class="edge">
<title>Node2&#45;&gt;Node3</title>
<g id="a_edge2_Node000002_Node000003"><a xlink:title=" ">
<path fill="none" stroke="#63b8ff" d="M890.43,-247.52C753.62,-209.99 250.04,-71.87 95.44,-29.46"/>
<polygon fill="#63b8ff" stroke="#63b8ff" points="96.53,-26.13 85.96,-26.86 94.68,-32.88 96.53,-26.13"/>
</a>
</g>
</g>
<!-- Node4 -->
<g id="Node000004" class="node">
<title>Node4</title>
<g id="a_Node000004"><a xlink:href="tinyengine__sprite_8h.html" target="_top" xlink:title=" ">
<polygon fill="white" stroke="#666666" points="896.88,-206 799.12,-206 799.12,-186 896.88,-186 896.88,-206"/>
<text xml:space="preserve" text-anchor="middle" x="848" y="-192.5" font-family="Helvetica,sans-Serif" font-size="10.00">tinyengine_sprite.h</text>
</a>
</g>
</g>
<!-- Node2&#45;&gt;Node4 -->
<g id="edge3_Node000002_Node000004" class="edge">
<title>Node2&#45;&gt;Node4</title>
<g id="a_edge3_Node000002_Node000004"><a xlink:title=" ">
<path fill="none" stroke="#63b8ff" d="M912.97,-247.62C901.22,-238.47 883.08,-224.34 868.96,-213.33"/>
<polygon fill="#63b8ff" stroke="#63b8ff" points="871.18,-210.63 861.14,-207.24 866.88,-216.15 871.18,-210.63"/>
</a>
</g>
</g>
<!-- Node5 -->
<g id="Node000005" class="node">
<title>Node5</title>
<g id="a_Node000005"><a xlink:href="tinyengine__framebuffer_8h.html" target="_top" xlink:title=" ">
<polygon fill="white" stroke="#666666" points="986.25,-144 863.75,-144 863.75,-124 986.25,-124 986.25,-144"/>
<text xml:space="preserve" text-anchor="middle" x="925" y="-130.5" font-family="Helvetica,sans-Serif" font-size="10.00">tinyengine_framebuffer.h</text>
</a>
</g>
</g>
<!-- Node2&#45;&gt;Node5 -->
<g id="edge28_Node000002_Node000005" class="edge">
<title>Node2&#45;&gt;Node5</title>
<g id="a_edge28_Node000002_Node000005"><a xlink:title=" ">
<path fill="none" stroke="#63b8ff" d="M925,-247.83C925,-228.4 925,-182.67 925,-155.77"/>
<polygon fill="#63b8ff" stroke="#63b8ff" points="928.5,-155.79 925,-145.79 921.5,-155.79 928.5,-155.79"/>
</a>
</g>
</g>
<!-- Node27 -->
<g id="Node000027" class="node">
<title>Node27</title>
<g id="a_Node000027"><a xlink:href="tinyengine__renderer__dvi_8h.html" target="_top" xlink:title=" ">
<polygon fill="white" stroke="#666666" points="1053.38,-212 952.62,-212 952.62,-180 1053.38,-180 1053.38,-212"/>
<text xml:space="preserve" text-anchor="start" x="960.62" y="-198.5" font-family="Helvetica,sans-Serif" font-size="10.00">tinyengine_renderer</text>
<text xml:space="preserve" text-anchor="middle" x="1003" y="-186.5" font-family="Helvetica,sans-Serif" font-size="10.00">_dvi.h</text>
</a>
</g>
</g>
<!-- Node2&#45;&gt;Node27 -->
<g id="edge29_Node000002_Node000027" class="edge">
<title>Node2&#45;&gt;Node27</title>
<g id="a_edge29_Node000002_Node000027"><a xlink:title=" ">
<path fill="none" stroke="#63b8ff" d="M937.19,-247.62C947.05,-240.04 961.34,-229.05 974.09,-219.24"/>
<polygon fill="#63b8ff" stroke="#63b8ff" points="976.02,-222.17 981.81,-213.3 971.75,-216.62 976.02,-222.17"/>
</a>
</g>
</g>
<!-- Node28 -->
<g id="Node000028" class="node">
<title>Node28</title>
<g id="a_Node000028"><a xlink:title=" ">
<polygon fill="#e0e0e0" stroke="#999999" points="1114.5,-206 1071.5,-206 1071.5,-186 1114.5,-186 1114.5,-206"/>
<text xml:space="preserve" text-anchor="middle" x="1093" y="-192.5" font-family="Helvetica,sans-Serif" font-size="10.00">vector</text>
</a>
</g>
</g>
<!-- Node2&#45;&gt;Node28 -->
<g id="edge32_Node000002_Node000028" class="edge">
<title>Node2&#45;&gt;Node28</title>
<g id="a_edge32_Node000002_Node000028"><a xlink:title=" ">
<path fill="none" stroke="#63b8ff" d="M957.83,-247.56C985.86,-239.19 1027.07,-226.12 1062,-212 1062.77,-211.69 1063.55,-211.37 1064.33,-211.04"/>
<polygon fill="#63b8ff" stroke="#63b8ff" points="1065.44,-214.38 1073.11,-207.07 1062.56,-208 1065.44,-214.38"/>
</a>
</g>
</g>
<!-- Node4&#45;&gt;Node5 -->
<g id="edge4_Node000004_Node000005" class="edge">
<title>Node4&#45;&gt;Node5</title>
<g id="a_edge4_Node000004_Node000005"><a xlink:title=" ">
<path fill="none" stroke="#63b8ff" d="M860.03,-185.62C871.78,-176.47 889.92,-162.34 904.04,-151.33"/>
<polygon fill="#63b8ff" stroke="#63b8ff" points="906.12,-154.15 911.86,-145.24 901.82,-148.63 906.12,-154.15"/>
</a>
</g>
</g>
<!-- Node6 -->
<g id="Node000006" class="node">
<title>Node6</title>
<g id="a_Node000006"><a xlink:href="tinyengine_8h.html" target="_top" xlink:title=" ">
<polygon fill="white" stroke="#666666" points="1003.25,-88 934.75,-88 934.75,-68 1003.25,-68 1003.25,-88"/>
<text xml:space="preserve" text-anchor="middle" x="969" y="-74.5" font-family="Helvetica,sans-Serif" font-size="10.00">tinyengine.h</text>
</a>
</g>
</g>
<!-- Node5&#45;&gt;Node6 -->
<g id="edge5_Node000005_Node000006" class="edge">
<title>Node5&#45;&gt;Node6</title>
<g id="a_edge5_Node000005_Node000006"><a xlink:title=" ">
<path fill="none" stroke="#63b8ff" d="M927.4,-123.59C931.97,-116.16 940.22,-105.58 948.3,-96.58"/>
<polygon fill="#63b8ff" stroke="#63b8ff" points="950.78,-99.05 955.14,-89.4 945.71,-94.23 950.78,-99.05"/>
</a>
</g>
</g>
<!-- Node6&#45;&gt;Node3 -->
<g id="edge10_Node000006_Node000003" class="edge">
<title>Node6&#45;&gt;Node3</title>
<g id="a_edge10_Node000006_Node000003"><a xlink:title=" ">
<path fill="none" stroke="#63b8ff" d="M934.33,-76.1C794.58,-72.31 272.34,-56.79 109,-32 103.99,-31.24 98.78,-30.24 93.63,-29.11"/>
<polygon fill="#63b8ff" stroke="#63b8ff" points="94.54,-25.73 84.01,-26.84 92.93,-32.54 94.54,-25.73"/>
</a>
</g>
</g>
<!-- Node6&#45;&gt;Node5 -->
<g id="edge27_Node000006_Node000005" class="edge">
<title>Node6&#45;&gt;Node5</title>
<g id="a_edge27_Node000006_Node000005"><a xlink:title=" ">
<path fill="none" stroke="#63b8ff" d="M966.67,-88.3C962.14,-95.7 953.9,-106.28 945.82,-115.29"/>
<polygon fill="#63b8ff" stroke="#63b8ff" points="943.32,-112.83 938.97,-122.5 948.4,-117.65 943.32,-112.83"/>
</a>
</g>
</g>
<!-- Node7 -->
<g id="Node000007" class="node">
<title>Node7</title>
<g id="a_Node000007"><a xlink:title=" ">
<polygon fill="#e0e0e0" stroke="#999999" points="186.25,-26 117.75,-26 117.75,-6 186.25,-6 186.25,-26"/>
<text xml:space="preserve" text-anchor="middle" x="152" y="-12.5" font-family="Helvetica,sans-Serif" font-size="10.00">pico/stdlib.h</text>
</a>
</g>
</g>
<!-- Node6&#45;&gt;Node7 -->
<g id="edge6_Node000006_Node000007" class="edge">
<title>Node6&#45;&gt;Node7</title>
<g id="a_edge6_Node000006_Node000007"><a xlink:title=" ">
<path fill="none" stroke="#63b8ff" d="M934.67,-76.27C804.27,-73.29 339.71,-60.86 195,-32 192.05,-31.41 189.02,-30.67 186.01,-29.82"/>
<polygon fill="#63b8ff" stroke="#63b8ff" points="187.36,-26.58 176.77,-26.91 185.26,-33.26 187.36,-26.58"/>
</a>
</g>
</g>
<!-- Node8 -->
<g id="Node000008" class="node">
<title>Node8</title>
<g id="a_Node000008"><a xlink:title=" ">
<polygon fill="#e0e0e0" stroke="#999999" points="249.62,-26 204.38,-26 204.38,-6 249.62,-6 249.62,-26"/>
<text xml:space="preserve" text-anchor="middle" x="227" y="-12.5" font-family="Helvetica,sans-Serif" font-size="10.00">stdio.h</text>
</a>
</g>
</g>
<!-- Node6&#45;&gt;Node8 -->
<g id="edge7_Node000006_Node000008" class="edge">
<title>Node6&#45;&gt;Node8</title>
<g id="a_edge7_Node000006_Node000008"><a xlink:title=" ">
<path fill="none" stroke="#63b8ff" d="M934.48,-76.51C810.64,-74.51 389.12,-65.34 259,-32 257.6,-31.64 256.18,-31.22 254.76,-30.75"/>
<polygon fill="#63b8ff" stroke="#63b8ff" points="256.15,-27.54 245.57,-27.05 253.54,-34.03 256.15,-27.54"/>
</a>
</g>
</g>
<!-- Node9 -->
<g id="Node000009" class="node">
<title>Node9</title>
<g id="a_Node000009"><a xlink:title=" ">
<polygon fill="#e0e0e0" stroke="#999999" points="347.88,-26 268.12,-26 268.12,-6 347.88,-6 347.88,-26"/>
<text xml:space="preserve" text-anchor="middle" x="308" y="-12.5" font-family="Helvetica,sans-Serif" font-size="10.00">hardware/spi.h</text>
</a>
</g>
</g>
<!-- Node6&#45;&gt;Node9 -->
<g id="edge8_Node000006_Node000009" class="edge">
<title>Node6&#45;&gt;Node9</title>
<g id="a_edge8_Node000006_Node000009"><a xlink:title=" ">
<path fill="none" stroke="#63b8ff" d="M934.48,-77.15C840.76,-76.98 574.02,-72.67 357,-32 353.37,-31.32 349.63,-30.47 345.91,-29.51"/>
<polygon fill="#63b8ff" stroke="#63b8ff" points="346.98,-26.18 336.4,-26.84 345.08,-32.92 346.98,-26.18"/>
</a>
</g>
</g>
<!-- Node10 -->
<g id="Node000010" class="node">
<title>Node10</title>
<g id="a_Node000010"><a xlink:title=" ">
<polygon fill="#e0e0e0" stroke="#999999" points="414.12,-26 365.88,-26 365.88,-6 414.12,-6 414.12,-26"/>
<text xml:space="preserve" text-anchor="middle" x="390" y="-12.5" font-family="Helvetica,sans-Serif" font-size="10.00">stdint.h</text>
</a>
</g>
</g>
<!-- Node6&#45;&gt;Node10 -->
<g id="edge9_Node000006_Node000010" class="edge">
<title>Node6&#45;&gt;Node10</title>
<g id="a_edge9_Node000006_Node000010"><a xlink:title=" ">
<path fill="none" stroke="#63b8ff" d="M934.51,-75.65C830.55,-71.35 521.42,-56.76 424,-32 422.36,-31.58 420.7,-31.09 419.03,-30.55"/>
<polygon fill="#63b8ff" stroke="#63b8ff" points="420.31,-27.29 409.72,-26.95 417.79,-33.82 420.31,-27.29"/>
</a>
</g>
</g>
<!-- Node11 -->
<g id="Node000011" class="node">
<title>Node11</title>
<g id="a_Node000011"><a xlink:title=" ">
<polygon fill="#e0e0e0" stroke="#999999" points="515.38,-26 432.62,-26 432.62,-6 515.38,-6 515.38,-26"/>
<text xml:space="preserve" text-anchor="middle" x="474" y="-12.5" font-family="Helvetica,sans-Serif" font-size="10.00">unordered_map</text>
</a>
</g>
</g>
<!-- Node6&#45;&gt;Node11 -->
<g id="edge11_Node000006_Node000011" class="edge">
<title>Node6&#45;&gt;Node11</title>
<g id="a_edge11_Node000006_Node000011"><a xlink:title=" ">
<path fill="none" stroke="#63b8ff" d="M934.42,-75.67C859.28,-72.32 675.73,-61.54 525,-32 521.22,-31.26 517.31,-30.36 513.42,-29.37"/>
<polygon fill="#63b8ff" stroke="#63b8ff" points="514.66,-26.08 504.09,-26.83 512.82,-32.84 514.66,-26.08"/>
</a>
</g>
</g>
<!-- Node12 -->
<g id="Node000012" class="node">
<title>Node12</title>
<g id="a_Node000012"><a xlink:title=" ">
<polygon fill="#e0e0e0" stroke="#999999" points="610.38,-26 533.62,-26 533.62,-6 610.38,-6 610.38,-26"/>
<text xml:space="preserve" text-anchor="middle" x="572" y="-12.5" font-family="Helvetica,sans-Serif" font-size="10.00">hardware/pll.h</text>
</a>
</g>
</g>
<!-- Node6&#45;&gt;Node12 -->
<g id="edge12_Node000006_Node000012" class="edge">
<title>Node6&#45;&gt;Node12</title>
<g id="a_edge12_Node000006_Node000012"><a xlink:title=" ">
<path fill="none" stroke="#63b8ff" d="M934.36,-74.64C871.11,-69.86 732.94,-57.29 619,-32 615.86,-31.3 612.64,-30.49 609.42,-29.61"/>
<polygon fill="#63b8ff" stroke="#63b8ff" points="610.65,-26.32 600.07,-26.84 608.66,-33.03 610.65,-26.32"/>
</a>
</g>
</g>
<!-- Node13 -->
<g id="Node000013" class="node">
<title>Node13</title>
<g id="a_Node000013"><a xlink:title=" ">
<polygon fill="#e0e0e0" stroke="#999999" points="713.88,-26 628.12,-26 628.12,-6 713.88,-6 713.88,-26"/>
<text xml:space="preserve" text-anchor="middle" x="671" y="-12.5" font-family="Helvetica,sans-Serif" font-size="10.00">hardware/vreg.h</text>
</a>
</g>
</g>
<!-- Node6&#45;&gt;Node13 -->
<g id="edge13_Node000006_Node000013" class="edge">
<title>Node6&#45;&gt;Node13</title>
<g id="a_edge13_Node000006_Node000013"><a xlink:title=" ">
<path fill="none" stroke="#63b8ff" d="M934.55,-71.81C886.77,-64.37 797.81,-49.59 723,-32 719.68,-31.22 716.25,-30.36 712.82,-29.45"/>
<polygon fill="#63b8ff" stroke="#63b8ff" points="713.97,-26.14 703.4,-26.87 712.12,-32.89 713.97,-26.14"/>
</a>
</g>
</g>
<!-- Node14 -->
<g id="Node000014" class="node">
<title>Node14</title>
<g id="a_Node000014"><a xlink:title=" ">
<polygon fill="#e0e0e0" stroke="#999999" points="827.75,-26 732.25,-26 732.25,-6 827.75,-6 827.75,-26"/>
<text xml:space="preserve" text-anchor="middle" x="780" y="-12.5" font-family="Helvetica,sans-Serif" font-size="10.00">hardware/clocks.h</text>
</a>
</g>
</g>
<!-- Node6&#45;&gt;Node14 -->
<g id="edge14_Node000006_Node000014" class="edge">
<title>Node6&#45;&gt;Node14</title>
<g id="a_edge14_Node000006_Node000014"><a xlink:title=" ">
<path fill="none" stroke="#63b8ff" d="M939.47,-67.62C907.38,-57.44 855.94,-41.11 820.19,-29.76"/>
<polygon fill="#63b8ff" stroke="#63b8ff" points="821.67,-26.56 811.08,-26.87 819.55,-33.23 821.67,-26.56"/>
</a>
</g>
</g>
<!-- Node15 -->
<g id="Node000015" class="node">
<title>Node15</title>
<g id="a_Node000015"><a xlink:title=" ">
<polygon fill="#e0e0e0" stroke="#999999" points="955.88,-26 846.12,-26 846.12,-6 955.88,-6 955.88,-26"/>
<text xml:space="preserve" text-anchor="middle" x="901" y="-12.5" font-family="Helvetica,sans-Serif" font-size="10.00">hardware/structs/pll.h</text>
</a>
</g>
</g>
<!-- Node6&#45;&gt;Node15 -->
<g id="edge15_Node000006_Node000015" class="edge">
<title>Node6&#45;&gt;Node15</title>
<g id="a_edge15_Node000006_Node000015"><a xlink:title=" ">
<path fill="none" stroke="#63b8ff" d="M958.38,-67.62C948.04,-58.5 932.1,-44.45 919.65,-33.46"/>
<polygon fill="#63b8ff" stroke="#63b8ff" points="922.28,-31.11 912.46,-27.11 917.65,-36.35 922.28,-31.11"/>
</a>
</g>
</g>
<!-- Node16 -->
<g id="Node000016" class="node">
<title>Node16</title>
<g id="a_Node000016"><a xlink:title=" ">
<polygon fill="#e0e0e0" stroke="#999999" points="1102.25,-26 973.75,-26 973.75,-6 1102.25,-6 1102.25,-26"/>
<text xml:space="preserve" text-anchor="middle" x="1038" y="-12.5" font-family="Helvetica,sans-Serif" font-size="10.00">hardware/structs/clocks.h</text>
</a>
</g>
</g>
<!-- Node6&#45;&gt;Node16 -->
<g id="edge16_Node000006_Node000016" class="edge">
<title>Node6&#45;&gt;Node16</title>
<g id="a_edge16_Node000006_Node000016"><a xlink:title=" ">
<path fill="none" stroke="#63b8ff" d="M979.78,-67.62C990.27,-58.5 1006.44,-44.45 1019.07,-33.46"/>
<polygon fill="#63b8ff" stroke="#63b8ff" points="1021.13,-36.31 1026.38,-27.11 1016.54,-31.03 1021.13,-36.31"/>
</a>
</g>
</g>
<!-- Node17 -->
<g id="Node000017" class="node">
<title>Node17</title>
<g id="a_Node000017"><a xlink:title=" ">
<polygon fill="#e0e0e0" stroke="#999999" points="1205.88,-26 1120.12,-26 1120.12,-6 1205.88,-6 1205.88,-26"/>
<text xml:space="preserve" text-anchor="middle" x="1163" y="-12.5" font-family="Helvetica,sans-Serif" font-size="10.00">hardware/dma.h</text>
</a>
</g>
</g>
<!-- Node6&#45;&gt;Node17 -->
<g id="edge17_Node000006_Node000017" class="edge">
<title>Node6&#45;&gt;Node17</title>
<g id="a_edge17_Node000006_Node000017"><a xlink:title=" ">
<path fill="none" stroke="#63b8ff" d="M999.31,-67.62C1032.25,-57.44 1085.06,-41.11 1121.75,-29.76"/>
<polygon fill="#63b8ff" stroke="#63b8ff" points="1122.62,-33.15 1131.13,-26.86 1120.55,-26.47 1122.62,-33.15"/>
</a>
</g>
</g>
<!-- Node18 -->
<g id="Node000018" class="node">
<title>Node18</title>
<g id="a_Node000018"><a xlink:title=" ">
<polygon fill="#e0e0e0" stroke="#999999" points="1308.5,-26 1223.5,-26 1223.5,-6 1308.5,-6 1308.5,-26"/>
<text xml:space="preserve" text-anchor="middle" x="1266" y="-12.5" font-family="Helvetica,sans-Serif" font-size="10.00">hardware/gpio.h</text>
</a>
</g>
</g>
<!-- Node6&#45;&gt;Node18 -->
<g id="edge18_Node000006_Node000018" class="edge">
<title>Node6&#45;&gt;Node18</title>
<g id="a_edge18_Node000006_Node000018"><a xlink:title=" ">
<path fill="none" stroke="#63b8ff" d="M1003.46,-71.87C1051.26,-64.49 1140.24,-49.78 1215,-32 1218.16,-31.25 1221.41,-30.42 1224.67,-29.55"/>
<polygon fill="#63b8ff" stroke="#63b8ff" points="1225.51,-32.95 1234.21,-26.9 1223.64,-26.21 1225.51,-32.95"/>
</a>
</g>
</g>
<!-- Node19 -->
<g id="Node000019" class="node">
<title>Node19</title>
<g id="a_Node000019"><a xlink:title=" ">
<polygon fill="#e0e0e0" stroke="#999999" points="1403.75,-26 1326.25,-26 1326.25,-6 1403.75,-6 1403.75,-26"/>
<text xml:space="preserve" text-anchor="middle" x="1365" y="-12.5" font-family="Helvetica,sans-Serif" font-size="10.00">hardware/irq.h</text>
</a>
</g>
</g>
<!-- Node6&#45;&gt;Node19 -->
<g id="edge19_Node000006_Node000019" class="edge">
<title>Node6&#45;&gt;Node19</title>
<g id="a_edge19_Node000006_Node000019"><a xlink:title=" ">
<path fill="none" stroke="#63b8ff" d="M1003.54,-74.63C1066.61,-69.83 1204.39,-57.24 1318,-32 1321.14,-31.3 1324.36,-30.49 1327.58,-29.61"/>
<polygon fill="#63b8ff" stroke="#63b8ff" points="1328.34,-33.03 1336.93,-26.84 1326.35,-26.32 1328.34,-33.03"/>
</a>
</g>
</g>
<!-- Node20 -->
<g id="Node000020" class="node">
<title>Node20</title>
<g id="a_Node000020"><a xlink:title=" ">
<polygon fill="#e0e0e0" stroke="#999999" points="1529.75,-32 1422.25,-32 1422.25,0 1529.75,0 1529.75,-32"/>
<text xml:space="preserve" text-anchor="start" x="1430.25" y="-18.5" font-family="Helvetica,sans-Serif" font-size="10.00">hardware/structs/bus</text>
<text xml:space="preserve" text-anchor="middle" x="1476" y="-6.5" font-family="Helvetica,sans-Serif" font-size="10.00">_ctrl.h</text>
</a>
</g>
</g>
<!-- Node6&#45;&gt;Node20 -->
<g id="edge20_Node000006_Node000020" class="edge">
<title>Node6&#45;&gt;Node20</title>
<g id="a_edge20_Node000006_Node000020"><a xlink:title=" ">
<path fill="none" stroke="#63b8ff" d="M1003.47,-75.07C1076.64,-70.64 1253.02,-58.19 1410.49,-32.28"/>
<polygon fill="#63b8ff" stroke="#63b8ff" points="1411.02,-35.74 1420.3,-30.64 1409.86,-28.83 1411.02,-35.74"/>
</a>
</g>
</g>
<!-- Node21 -->
<g id="Node000021" class="node">
<title>Node21</title>
<g id="a_Node000021"><a xlink:title=" ">
<polygon fill="#e0e0e0" stroke="#999999" points="1658.25,-32 1547.75,-32 1547.75,0 1658.25,0 1658.25,-32"/>
<text xml:space="preserve" text-anchor="start" x="1555.75" y="-18.5" font-family="Helvetica,sans-Serif" font-size="10.00">hardware/structs/hstx</text>
<text xml:space="preserve" text-anchor="middle" x="1603" y="-6.5" font-family="Helvetica,sans-Serif" font-size="10.00">_ctrl.h</text>
</a>
</g>
</g>
<!-- Node6&#45;&gt;Node21 -->
<g id="edge21_Node000006_Node000021" class="edge">
<title>Node6&#45;&gt;Node21</title>
<g id="a_edge21_Node000006_Node000021"><a xlink:title=" ">
<path fill="none" stroke="#63b8ff" d="M1003.59,-76.09C1091.21,-73.41 1329.12,-63.7 1536.17,-32.3"/>
<polygon fill="#63b8ff" stroke="#63b8ff" points="1536.4,-35.8 1545.75,-30.82 1535.34,-28.88 1536.4,-35.8"/>
</a>
</g>
</g>
<!-- Node22 -->
<g id="Node000022" class="node">
<title>Node22</title>
<g id="a_Node000022"><a xlink:title=" ">
<polygon fill="#e0e0e0" stroke="#999999" points="1787.25,-32 1676.75,-32 1676.75,0 1787.25,0 1787.25,-32"/>
<text xml:space="preserve" text-anchor="start" x="1684.75" y="-18.5" font-family="Helvetica,sans-Serif" font-size="10.00">hardware/structs/hstx</text>
<text xml:space="preserve" text-anchor="middle" x="1732" y="-6.5" font-family="Helvetica,sans-Serif" font-size="10.00">_fifo.h</text>
</a>
</g>
</g>
<!-- Node6&#45;&gt;Node22 -->
<g id="edge22_Node000006_Node000022" class="edge">
<title>Node6&#45;&gt;Node22</title>
<g id="a_edge22_Node000006_Node000022"><a xlink:title=" ">
<path fill="none" stroke="#63b8ff" d="M1003.71,-76.75C1104.45,-75.61 1405.69,-69.22 1665.28,-32.07"/>
<polygon fill="#63b8ff" stroke="#63b8ff" points="1665.55,-35.56 1674.95,-30.66 1664.55,-28.64 1665.55,-35.56"/>
</a>
</g>
</g>
<!-- Node23 -->
<g id="Node000023" class="node">
<title>Node23</title>
<g id="a_Node000023"><a xlink:title=" ">
<polygon fill="#e0e0e0" stroke="#999999" points="1918.38,-26 1805.62,-26 1805.62,-6 1918.38,-6 1918.38,-26"/>
<text xml:space="preserve" text-anchor="middle" x="1862" y="-12.5" font-family="Helvetica,sans-Serif" font-size="10.00">hardware/structs/sio.h</text>
</a>
</g>
</g>
<!-- Node6&#45;&gt;Node23 -->
<g id="edge23_Node000006_Node000023" class="edge">
<title>Node6&#45;&gt;Node23</title>
<g id="a_edge23_Node000006_Node000023"><a xlink:title=" ">
<path fill="none" stroke="#63b8ff" d="M1003.47,-77.2C1117.23,-77.43 1490.9,-74.66 1796,-32 1802.04,-31.16 1808.34,-30.04 1814.55,-28.79"/>
<polygon fill="#63b8ff" stroke="#63b8ff" points="1815.02,-32.27 1824.07,-26.76 1813.56,-25.42 1815.02,-32.27"/>
</a>
</g>
</g>
<!-- Node24 -->
<g id="Node000024" class="node">
<title>Node24</title>
<g id="a_Node000024"><a xlink:title=" ">
<polygon fill="#e0e0e0" stroke="#999999" points="2021.5,-26 1936.5,-26 1936.5,-6 2021.5,-6 2021.5,-26"/>
<text xml:space="preserve" text-anchor="middle" x="1979" y="-12.5" font-family="Helvetica,sans-Serif" font-size="10.00">pico/multicore.h</text>
</a>
</g>
</g>
<!-- Node6&#45;&gt;Node24 -->
<g id="edge24_Node000006_Node000024" class="edge">
<title>Node6&#45;&gt;Node24</title>
<g id="a_edge24_Node000006_Node000024"><a xlink:title=" ">
<path fill="none" stroke="#63b8ff" d="M1003.52,-76.46C1152.84,-73.96 1743.84,-62.29 1927,-32 1931.14,-31.32 1935.41,-30.41 1939.65,-29.39"/>
<polygon fill="#63b8ff" stroke="#63b8ff" points="1940.44,-32.81 1949.2,-26.86 1938.64,-26.04 1940.44,-32.81"/>
</a>
</g>
</g>
<!-- Node25 -->
<g id="Node000025" class="node">
<title>Node25</title>
<g id="a_Node000025"><a xlink:title=" ">
<polygon fill="#e0e0e0" stroke="#999999" points="2104,-26 2040,-26 2040,-6 2104,-6 2104,-26"/>
<text xml:space="preserve" text-anchor="middle" x="2072" y="-12.5" font-family="Helvetica,sans-Serif" font-size="10.00">pico/sem.h</text>
</a>
</g>
</g>
<!-- Node6&#45;&gt;Node25 -->
<g id="edge25_Node000006_Node000025" class="edge">
<title>Node6&#45;&gt;Node25</title>
<g id="a_edge25_Node000006_Node000025"><a xlink:title=" ">
<path fill="none" stroke="#63b8ff" d="M1003.52,-76.96C1162.8,-76.57 1827.61,-72.5 2031,-32 2033.8,-31.44 2036.66,-30.73 2039.5,-29.91"/>
<polygon fill="#63b8ff" stroke="#63b8ff" points="2040.39,-33.3 2048.79,-26.85 2038.2,-26.65 2040.39,-33.3"/>
</a>
</g>
</g>
<!-- Node26 -->
<g id="Node000026" class="node">
<title>Node26</title>
<g id="a_Node000026"><a xlink:title=" ">
<polygon fill="#e0e0e0" stroke="#999999" points="2180,-26 2122,-26 2122,-6 2180,-6 2180,-26"/>
<text xml:space="preserve" text-anchor="middle" x="2151" y="-12.5" font-family="Helvetica,sans-Serif" font-size="10.00">functional</text>
</a>
</g>
</g>
<!-- Node6&#45;&gt;Node26 -->
<g id="edge26_Node000006_Node000026" class="edge">
<title>Node6&#45;&gt;Node26</title>
<g id="a_edge26_Node000006_Node000026"><a xlink:title=" ">
<path fill="none" stroke="#63b8ff" d="M1003.67,-77.2C1170.7,-77.92 1893.34,-78.28 2113,-32 2115.33,-31.51 2117.71,-30.89 2120.07,-30.18"/>
<polygon fill="#63b8ff" stroke="#63b8ff" points="2121.17,-33.5 2129.45,-26.9 2118.86,-26.9 2121.17,-33.5"/>
</a>
</g>
</g>
<!-- Node27&#45;&gt;Node5 -->
<g id="edge31_Node000027_Node000005" class="edge">
<title>Node27&#45;&gt;Node5</title>
<g id="a_edge31_Node000027_Node000005"><a xlink:title=" ">
<path fill="none" stroke="#63b8ff" d="M982.91,-179.55C971.63,-170.87 957.56,-160.04 946.11,-151.24"/>
<polygon fill="#63b8ff" stroke="#63b8ff" points="948.49,-148.65 938.43,-145.33 944.22,-154.2 948.49,-148.65"/>
</a>
</g>
</g>
<!-- Node27&#45;&gt;Node6 -->
<g id="edge30_Node000027_Node000006" class="edge">
<title>Node27&#45;&gt;Node6</title>
<g id="a_edge30_Node000027_Node000006"><a xlink:title=" ">
<path fill="none" stroke="#63b8ff" d="M1003.07,-179.66C1002.72,-165.01 1001.09,-142.5 995,-124 992.01,-114.93 987.05,-105.66 982.25,-97.91"/>
<polygon fill="#63b8ff" stroke="#63b8ff" points="985.28,-96.14 976.86,-89.72 979.43,-99.99 985.28,-96.14"/>
</a>
</g>
</g>
</g>
</svg>
