<?xml version="1.0" encoding="UTF-8" standalone="no"?>
<!DOCTYPE svg PUBLIC "-//W3C//DTD SVG 1.1//EN"
 "http://www.w3.org/Graphics/SVG/1.1/DTD/svg11.dtd">
<!-- Generated by graphviz version 13.1.2 (20250808.2320)
 -->
<!-- Title: TinyEngineUI Pages: 1 -->
<svg width="416pt" height="724pt"
 viewBox="0.00 0.00 416.00 724.00" xmlns="http://www.w3.org/2000/svg" xmlns:xlink="http://www.w3.org/1999/xlink">
<g id="graph0" class="graph" transform="scale(1 1) rotate(0) translate(4 720)">
<title>TinyEngineUI</title>
<!-- Node1 -->
<g id="Node000001" class="node">
<title>Node1</title>
<g id="a_Node000001"><a xlink:title=" ">
<polygon fill="#999999" stroke="none" points="254.5,-580 165.25,-580 165.25,-288 254.5,-288 254.5,-580"/>
<text xml:space="preserve" text-anchor="start" x="180.25" y="-566.5" font-family="Helvetica,sans-Serif" font-size="10.00">TinyEngineUI</text>
<text xml:space="preserve" text-anchor="start" x="169.62" y="-550.5" font-family="Helvetica,sans-Serif" font-size="10.00">#</text>
<text xml:space="preserve" text-anchor="start" x="179.25" y="-550.5" font-family="Helvetica,sans-Serif" font-size="10.00">m_x</text>
<text xml:space="preserve" text-anchor="start" x="169.62" y="-534.5" font-family="Helvetica,sans-Serif" font-size="10.00">#</text>
<text xml:space="preserve" text-anchor="start" x="179.25" y="-534.5" font-family="Helvetica,sans-Serif" font-size="10.00">m_y</text>
<text xml:space="preserve" text-anchor="start" x="169.62" y="-518.5" font-family="Helvetica,sans-Serif" font-size="10.00">#</text>
<text xml:space="preserve" text-anchor="start" x="179.25" y="-518.5" font-family="Helvetica,sans-Serif" font-size="10.00">m_x_half</text>
<text xml:space="preserve" text-anchor="start" x="169.62" y="-502.5" font-family="Helvetica,sans-Serif" font-size="10.00">#</text>
<text xml:space="preserve" text-anchor="start" x="179.25" y="-502.5" font-family="Helvetica,sans-Serif" font-size="10.00">m_y_half</text>
<text xml:space="preserve" text-anchor="start" x="169.62" y="-486.5" font-family="Helvetica,sans-Serif" font-size="10.00">#</text>
<text xml:space="preserve" text-anchor="start" x="179.25" y="-486.5" font-family="Helvetica,sans-Serif" font-size="10.00">m_width</text>
<text xml:space="preserve" text-anchor="start" x="169.62" y="-470.5" font-family="Helvetica,sans-Serif" font-size="10.00">#</text>
<text xml:space="preserve" text-anchor="start" x="179.25" y="-470.5" font-family="Helvetica,sans-Serif" font-size="10.00">m_height</text>
<text xml:space="preserve" text-anchor="start" x="169.25" y="-454.5" font-family="Helvetica,sans-Serif" font-size="10.00">+</text>
<text xml:space="preserve" text-anchor="start" x="179.25" y="-454.5" font-family="Helvetica,sans-Serif" font-size="10.00">TinyEngineUI()</text>
<text xml:space="preserve" text-anchor="start" x="169.25" y="-438.5" font-family="Helvetica,sans-Serif" font-size="10.00">+</text>
<text xml:space="preserve" text-anchor="start" x="179.25" y="-438.5" font-family="Helvetica,sans-Serif" font-size="10.00">render()</text>
<text xml:space="preserve" text-anchor="start" x="169.25" y="-422.5" font-family="Helvetica,sans-Serif" font-size="10.00">+</text>
<text xml:space="preserve" text-anchor="start" x="179.25" y="-422.5" font-family="Helvetica,sans-Serif" font-size="10.00">update()</text>
<text xml:space="preserve" text-anchor="start" x="169.25" y="-406.5" font-family="Helvetica,sans-Serif" font-size="10.00">+</text>
<text xml:space="preserve" text-anchor="start" x="179.25" y="-406.5" font-family="Helvetica,sans-Serif" font-size="10.00">~TinyEngineUI()</text>
<text xml:space="preserve" text-anchor="start" x="169.25" y="-390.5" font-family="Helvetica,sans-Serif" font-size="10.00">+</text>
<text xml:space="preserve" text-anchor="start" x="179.25" y="-390.5" font-family="Helvetica,sans-Serif" font-size="10.00">get_m_x()</text>
<text xml:space="preserve" text-anchor="start" x="169.25" y="-374.5" font-family="Helvetica,sans-Serif" font-size="10.00">+</text>
<text xml:space="preserve" text-anchor="start" x="179.25" y="-374.5" font-family="Helvetica,sans-Serif" font-size="10.00">get_m_y()</text>
<text xml:space="preserve" text-anchor="start" x="169.25" y="-358.5" font-family="Helvetica,sans-Serif" font-size="10.00">+</text>
<text xml:space="preserve" text-anchor="start" x="179.25" y="-358.5" font-family="Helvetica,sans-Serif" font-size="10.00">get_m_x_half()</text>
<text xml:space="preserve" text-anchor="start" x="169.25" y="-342.5" font-family="Helvetica,sans-Serif" font-size="10.00">+</text>
<text xml:space="preserve" text-anchor="start" x="179.25" y="-342.5" font-family="Helvetica,sans-Serif" font-size="10.00">get_m_y_half()</text>
<text xml:space="preserve" text-anchor="start" x="169.25" y="-326.5" font-family="Helvetica,sans-Serif" font-size="10.00">+</text>
<text xml:space="preserve" text-anchor="start" x="179.25" y="-326.5" font-family="Helvetica,sans-Serif" font-size="10.00">set_m_x()</text>
<text xml:space="preserve" text-anchor="start" x="169.25" y="-310.5" font-family="Helvetica,sans-Serif" font-size="10.00">+</text>
<text xml:space="preserve" text-anchor="start" x="179.25" y="-310.5" font-family="Helvetica,sans-Serif" font-size="10.00">set_m_y()</text>
<text xml:space="preserve" text-anchor="start" x="179.25" y="-294.5" font-family="Helvetica,sans-Serif" font-size="10.00">and 6 more...</text>
<polygon fill="#666666" stroke="#666666" points="165.25,-562 165.25,-562 254.5,-562 254.5,-562 165.25,-562"/>
<polygon fill="#666666" stroke="#666666" points="165.25,-466 165.25,-466 177.25,-466 177.25,-466 165.25,-466"/>
<polygon fill="#666666" stroke="#666666" points="177.25,-466 177.25,-466 254.5,-466 254.5,-466 177.25,-466"/>
<polygon fill="none" stroke="#666666" points="165.25,-288 165.25,-580 254.5,-580 254.5,-288 165.25,-288"/>
</a>
</g>
</g>
<!-- Node3 -->
<g id="Node000003" class="node">
<title>Node3</title>
<g id="a_Node000003"><a xlink:href="class_tiny_engine_u_i_blinking_text_box.html" target="_top" xlink:title=" ">
<polygon fill="white" stroke="none" points="137.75,-252 0,-252 0,0 137.75,0 137.75,-252"/>
<text xml:space="preserve" text-anchor="start" x="4" y="-238.5" font-family="Helvetica,sans-Serif" font-size="10.00">TinyEngineUIBlinkingTextBox</text>
<text xml:space="preserve" text-anchor="start" x="4.69" y="-222.5" font-family="Helvetica,sans-Serif" font-size="10.00">#</text>
<text xml:space="preserve" text-anchor="start" x="14.62" y="-222.5" font-family="Helvetica,sans-Serif" font-size="10.00">m_bg_color</text>
<text xml:space="preserve" text-anchor="start" x="4.69" y="-206.5" font-family="Helvetica,sans-Serif" font-size="10.00">#</text>
<text xml:space="preserve" text-anchor="start" x="14.62" y="-206.5" font-family="Helvetica,sans-Serif" font-size="10.00">m_fg_color</text>
<text xml:space="preserve" text-anchor="start" x="4.69" y="-190.5" font-family="Helvetica,sans-Serif" font-size="10.00">#</text>
<text xml:space="preserve" text-anchor="start" x="14.62" y="-190.5" font-family="Helvetica,sans-Serif" font-size="10.00">m_text</text>
<text xml:space="preserve" text-anchor="start" x="4.69" y="-174.5" font-family="Helvetica,sans-Serif" font-size="10.00">#</text>
<text xml:space="preserve" text-anchor="start" x="14.62" y="-174.5" font-family="Helvetica,sans-Serif" font-size="10.00">m_blink_delay</text>
<text xml:space="preserve" text-anchor="start" x="4.69" y="-158.5" font-family="Helvetica,sans-Serif" font-size="10.00">#</text>
<text xml:space="preserve" text-anchor="start" x="14.62" y="-158.5" font-family="Helvetica,sans-Serif" font-size="10.00">m_local_time</text>
<text xml:space="preserve" text-anchor="start" x="4.31" y="-142.5" font-family="Helvetica,sans-Serif" font-size="10.00">+</text>
<text xml:space="preserve" text-anchor="start" x="14.62" y="-142.5" font-family="Helvetica,sans-Serif" font-size="10.00">render()</text>
<text xml:space="preserve" text-anchor="start" x="4.31" y="-126.5" font-family="Helvetica,sans-Serif" font-size="10.00">+</text>
<text xml:space="preserve" text-anchor="start" x="14.62" y="-126.5" font-family="Helvetica,sans-Serif" font-size="10.00">update()</text>
<text xml:space="preserve" text-anchor="start" x="4.31" y="-110.5" font-family="Helvetica,sans-Serif" font-size="10.00">+</text>
<text xml:space="preserve" text-anchor="start" x="14.62" y="-110.5" font-family="Helvetica,sans-Serif" font-size="10.00">~TinyEngineUIBlinkingText</text>
<text xml:space="preserve" text-anchor="start" x="14.62" y="-98.5" font-family="Helvetica,sans-Serif" font-size="10.00">Box()</text>
<text xml:space="preserve" text-anchor="start" x="4.31" y="-82.5" font-family="Helvetica,sans-Serif" font-size="10.00">+</text>
<text xml:space="preserve" text-anchor="start" x="14.62" y="-82.5" font-family="Helvetica,sans-Serif" font-size="10.00">TinyEngineUIBlinkingText</text>
<text xml:space="preserve" text-anchor="start" x="14.62" y="-70.5" font-family="Helvetica,sans-Serif" font-size="10.00">Box()</text>
<text xml:space="preserve" text-anchor="start" x="4.31" y="-54.5" font-family="Helvetica,sans-Serif" font-size="10.00">+</text>
<text xml:space="preserve" text-anchor="start" x="14.62" y="-54.5" font-family="Helvetica,sans-Serif" font-size="10.00">get_m_bg_color()</text>
<text xml:space="preserve" text-anchor="start" x="4.31" y="-38.5" font-family="Helvetica,sans-Serif" font-size="10.00">+</text>
<text xml:space="preserve" text-anchor="start" x="14.62" y="-38.5" font-family="Helvetica,sans-Serif" font-size="10.00">get_m_fg_color()</text>
<text xml:space="preserve" text-anchor="start" x="4.31" y="-22.5" font-family="Helvetica,sans-Serif" font-size="10.00">+</text>
<text xml:space="preserve" text-anchor="start" x="14.62" y="-22.5" font-family="Helvetica,sans-Serif" font-size="10.00">get_m_text()</text>
<text xml:space="preserve" text-anchor="start" x="4.31" y="-6.5" font-family="Helvetica,sans-Serif" font-size="10.00">+</text>
<text xml:space="preserve" text-anchor="start" x="14.62" y="-6.5" font-family="Helvetica,sans-Serif" font-size="10.00">get_m_blink_delay()</text>
<polygon fill="#666666" stroke="#666666" points="0,-234 0,-234 137.75,-234 137.75,-234 0,-234"/>
<polygon fill="#666666" stroke="#666666" points="0,-154 0,-154 12.62,-154 12.62,-154 0,-154"/>
<polygon fill="#666666" stroke="#666666" points="12.62,-154 12.62,-154 137.75,-154 137.75,-154 12.62,-154"/>
<polygon fill="none" stroke="#666666" points="0,0 0,-252 137.75,-252 137.75,0 0,0"/>
</a>
</g>
</g>
<!-- Node1&#45;&gt;Node3 -->
<g id="edge2_Node000001_Node000003" class="edge">
<title>Node1&#45;&gt;Node3</title>
<g id="a_edge2_Node000001_Node000003"><a xlink:title=" ">
<path fill="none" stroke="#63b8ff" d="M160.58,-326.02C149.53,-302.05 137.72,-276.41 126.38,-251.79"/>
<polygon fill="none" stroke="#63b8ff" points="157.26,-327.19 164.63,-334.81 163.62,-324.26 157.26,-327.19"/>
</a>
</g>
</g>
<!-- Node4 -->
<g id="Node000004" class="node">
<title>Node4</title>
<g id="a_Node000004"><a xlink:href="class_tiny_engine_u_i_text.html" target="_top" xlink:title=" ">
<polygon fill="white" stroke="none" points="263.88,-216 155.88,-216 155.88,-36 263.88,-36 263.88,-216"/>
<text xml:space="preserve" text-anchor="start" x="170.88" y="-202.5" font-family="Helvetica,sans-Serif" font-size="10.00">TinyEngineUIText</text>
<text xml:space="preserve" text-anchor="start" x="160.25" y="-186.5" font-family="Helvetica,sans-Serif" font-size="10.00">#</text>
<text xml:space="preserve" text-anchor="start" x="169.88" y="-186.5" font-family="Helvetica,sans-Serif" font-size="10.00">m_text</text>
<text xml:space="preserve" text-anchor="start" x="160.25" y="-170.5" font-family="Helvetica,sans-Serif" font-size="10.00">#</text>
<text xml:space="preserve" text-anchor="start" x="169.88" y="-170.5" font-family="Helvetica,sans-Serif" font-size="10.00">m_color</text>
<text xml:space="preserve" text-anchor="start" x="159.88" y="-154.5" font-family="Helvetica,sans-Serif" font-size="10.00">+</text>
<text xml:space="preserve" text-anchor="start" x="169.88" y="-154.5" font-family="Helvetica,sans-Serif" font-size="10.00">render()</text>
<text xml:space="preserve" text-anchor="start" x="159.88" y="-138.5" font-family="Helvetica,sans-Serif" font-size="10.00">+</text>
<text xml:space="preserve" text-anchor="start" x="169.88" y="-138.5" font-family="Helvetica,sans-Serif" font-size="10.00">update()</text>
<text xml:space="preserve" text-anchor="start" x="159.88" y="-122.5" font-family="Helvetica,sans-Serif" font-size="10.00">+</text>
<text xml:space="preserve" text-anchor="start" x="169.88" y="-122.5" font-family="Helvetica,sans-Serif" font-size="10.00">~TinyEngineUIText()</text>
<text xml:space="preserve" text-anchor="start" x="159.88" y="-106.5" font-family="Helvetica,sans-Serif" font-size="10.00">+</text>
<text xml:space="preserve" text-anchor="start" x="169.88" y="-106.5" font-family="Helvetica,sans-Serif" font-size="10.00">TinyEngineUIText()</text>
<text xml:space="preserve" text-anchor="start" x="159.88" y="-90.5" font-family="Helvetica,sans-Serif" font-size="10.00">+</text>
<text xml:space="preserve" text-anchor="start" x="169.88" y="-90.5" font-family="Helvetica,sans-Serif" font-size="10.00">get_text()</text>
<text xml:space="preserve" text-anchor="start" x="159.88" y="-74.5" font-family="Helvetica,sans-Serif" font-size="10.00">+</text>
<text xml:space="preserve" text-anchor="start" x="169.88" y="-74.5" font-family="Helvetica,sans-Serif" font-size="10.00">set_text()</text>
<text xml:space="preserve" text-anchor="start" x="159.88" y="-58.5" font-family="Helvetica,sans-Serif" font-size="10.00">+</text>
<text xml:space="preserve" text-anchor="start" x="169.88" y="-58.5" font-family="Helvetica,sans-Serif" font-size="10.00">get_m_color()</text>
<text xml:space="preserve" text-anchor="start" x="159.88" y="-42.5" font-family="Helvetica,sans-Serif" font-size="10.00">+</text>
<text xml:space="preserve" text-anchor="start" x="169.88" y="-42.5" font-family="Helvetica,sans-Serif" font-size="10.00">set_m_color()</text>
<polygon fill="#666666" stroke="#666666" points="155.88,-198 155.88,-198 263.88,-198 263.88,-198 155.88,-198"/>
<polygon fill="#666666" stroke="#666666" points="155.88,-166 155.88,-166 167.88,-166 167.88,-166 155.88,-166"/>
<polygon fill="#666666" stroke="#666666" points="167.88,-166 167.88,-166 263.88,-166 263.88,-166 167.88,-166"/>
<polygon fill="none" stroke="#666666" points="155.88,-36 155.88,-216 263.88,-216 263.88,-36 155.88,-36"/>
</a>
</g>
</g>
<!-- Node1&#45;&gt;Node4 -->
<g id="edge3_Node000001_Node000004" class="edge">
<title>Node1&#45;&gt;Node4</title>
<g id="a_edge3_Node000001_Node000004"><a xlink:title=" ">
<path fill="none" stroke="#63b8ff" d="M209.88,-276.76C209.88,-255.79 209.88,-234.89 209.88,-215.66"/>
<polygon fill="none" stroke="#63b8ff" points="206.38,-276.55 209.88,-286.55 213.38,-276.55 206.38,-276.55"/>
</a>
</g>
</g>
<!-- Node5 -->
<g id="Node000005" class="node">
<title>Node5</title>
<g id="a_Node000005"><a xlink:href="class_tiny_engine_u_i_text_box.html" target="_top" xlink:title=" ">
<polygon fill="white" stroke="none" points="407.5,-216 282.25,-216 282.25,-36 407.5,-36 407.5,-216"/>
<text xml:space="preserve" text-anchor="start" x="297.25" y="-202.5" font-family="Helvetica,sans-Serif" font-size="10.00">TinyEngineUITextBox</text>
<text xml:space="preserve" text-anchor="start" x="286.62" y="-186.5" font-family="Helvetica,sans-Serif" font-size="10.00">#</text>
<text xml:space="preserve" text-anchor="start" x="296.25" y="-186.5" font-family="Helvetica,sans-Serif" font-size="10.00">m_texts</text>
<text xml:space="preserve" text-anchor="start" x="286.62" y="-170.5" font-family="Helvetica,sans-Serif" font-size="10.00">#</text>
<text xml:space="preserve" text-anchor="start" x="296.25" y="-170.5" font-family="Helvetica,sans-Serif" font-size="10.00">m_outline_color</text>
<text xml:space="preserve" text-anchor="start" x="286.25" y="-154.5" font-family="Helvetica,sans-Serif" font-size="10.00">+</text>
<text xml:space="preserve" text-anchor="start" x="296.25" y="-154.5" font-family="Helvetica,sans-Serif" font-size="10.00">render()</text>
<text xml:space="preserve" text-anchor="start" x="286.25" y="-138.5" font-family="Helvetica,sans-Serif" font-size="10.00">+</text>
<text xml:space="preserve" text-anchor="start" x="296.25" y="-138.5" font-family="Helvetica,sans-Serif" font-size="10.00">update()</text>
<text xml:space="preserve" text-anchor="start" x="286.25" y="-122.5" font-family="Helvetica,sans-Serif" font-size="10.00">+</text>
<text xml:space="preserve" text-anchor="start" x="296.25" y="-122.5" font-family="Helvetica,sans-Serif" font-size="10.00">~TinyEngineUITextBox()</text>
<text xml:space="preserve" text-anchor="start" x="286.25" y="-106.5" font-family="Helvetica,sans-Serif" font-size="10.00">+</text>
<text xml:space="preserve" text-anchor="start" x="296.25" y="-106.5" font-family="Helvetica,sans-Serif" font-size="10.00">TinyEngineUITextBox()</text>
<text xml:space="preserve" text-anchor="start" x="286.25" y="-90.5" font-family="Helvetica,sans-Serif" font-size="10.00">+</text>
<text xml:space="preserve" text-anchor="start" x="296.25" y="-90.5" font-family="Helvetica,sans-Serif" font-size="10.00">TinyEngineUITextBox()</text>
<text xml:space="preserve" text-anchor="start" x="286.25" y="-74.5" font-family="Helvetica,sans-Serif" font-size="10.00">+</text>
<text xml:space="preserve" text-anchor="start" x="296.25" y="-74.5" font-family="Helvetica,sans-Serif" font-size="10.00">add_text()</text>
<text xml:space="preserve" text-anchor="start" x="286.25" y="-58.5" font-family="Helvetica,sans-Serif" font-size="10.00">+</text>
<text xml:space="preserve" text-anchor="start" x="296.25" y="-58.5" font-family="Helvetica,sans-Serif" font-size="10.00">get_m_outline_color()</text>
<text xml:space="preserve" text-anchor="start" x="286.25" y="-42.5" font-family="Helvetica,sans-Serif" font-size="10.00">+</text>
<text xml:space="preserve" text-anchor="start" x="296.25" y="-42.5" font-family="Helvetica,sans-Serif" font-size="10.00">set_m_outline_color()</text>
<polygon fill="#666666" stroke="#666666" points="282.25,-198 282.25,-198 407.5,-198 407.5,-198 282.25,-198"/>
<polygon fill="#666666" stroke="#666666" points="282.25,-166 282.25,-166 294.25,-166 294.25,-166 282.25,-166"/>
<polygon fill="#666666" stroke="#666666" points="294.25,-166 294.25,-166 407.5,-166 407.5,-166 294.25,-166"/>
<polygon fill="none" stroke="#666666" points="282.25,-36 282.25,-216 407.5,-216 407.5,-36 282.25,-36"/>
</a>
</g>
</g>
<!-- Node1&#45;&gt;Node5 -->
<g id="edge4_Node000001_Node000005" class="edge">
<title>Node1&#45;&gt;Node5</title>
<g id="a_edge4_Node000001_Node000005"><a xlink:title=" ">
<path fill="none" stroke="#63b8ff" d="M258.96,-321.74C274.33,-286.9 291.08,-248.93 305.68,-215.85"/>
<polygon fill="none" stroke="#63b8ff" points="255.9,-320.01 255.06,-330.57 262.3,-322.83 255.9,-320.01"/>
</a>
</g>
</g>
<!-- Node2 -->
<g id="Node000002" class="node">
<title>Node2</title>
<g id="a_Node000002"><a xlink:href="class_tiny_engine_renderable_i.html" target="_top" xlink:title=" ">
<polygon fill="white" stroke="none" points="275.5,-716 144.25,-716 144.25,-616 275.5,-616 275.5,-716"/>
<text xml:space="preserve" text-anchor="start" x="159.25" y="-702.5" font-family="Helvetica,sans-Serif" font-size="10.00">TinyEngineRenderableI</text>
<text xml:space="preserve" text-anchor="start" x="208.38" y="-686.5" font-family="Helvetica,sans-Serif" font-size="10.00"> </text>
<text xml:space="preserve" text-anchor="start" x="148.25" y="-670.5" font-family="Helvetica,sans-Serif" font-size="10.00">+</text>
<text xml:space="preserve" text-anchor="start" x="158.25" y="-670.5" font-family="Helvetica,sans-Serif" font-size="10.00">TinyEngineRenderableI()</text>
<text xml:space="preserve" text-anchor="start" x="148.25" y="-654.5" font-family="Helvetica,sans-Serif" font-size="10.00">+</text>
<text xml:space="preserve" text-anchor="start" x="158.25" y="-654.5" font-family="Helvetica,sans-Serif" font-size="10.00">~TinyEngineRenderableI()</text>
<text xml:space="preserve" text-anchor="start" x="148.25" y="-638.5" font-family="Helvetica,sans-Serif" font-size="10.00">+</text>
<text xml:space="preserve" text-anchor="start" x="158.25" y="-638.5" font-family="Helvetica,sans-Serif" font-size="10.00">render()</text>
<text xml:space="preserve" text-anchor="start" x="148.25" y="-622.5" font-family="Helvetica,sans-Serif" font-size="10.00">+</text>
<text xml:space="preserve" text-anchor="start" x="158.25" y="-622.5" font-family="Helvetica,sans-Serif" font-size="10.00">update()</text>
<polygon fill="#666666" stroke="#666666" points="144.25,-698 144.25,-698 275.5,-698 275.5,-698 144.25,-698"/>
<polygon fill="#666666" stroke="#666666" points="144.25,-682 144.25,-682 275.5,-682 275.5,-682 144.25,-682"/>
<polygon fill="none" stroke="#666666" points="144.25,-616 144.25,-716 275.5,-716 275.5,-616 144.25,-616"/>
</a>
</g>
</g>
<!-- Node2&#45;&gt;Node1 -->
<g id="edge1_Node000001_Node000002" class="edge">
<title>Node2&#45;&gt;Node1</title>
<g id="a_edge1_Node000001_Node000002"><a xlink:title=" ">
<path fill="none" stroke="#63b8ff" d="M209.88,-604.94C209.88,-597 209.88,-588.61 209.88,-579.97"/>
<polygon fill="none" stroke="#63b8ff" points="206.38,-604.71 209.88,-614.71 213.38,-604.71 206.38,-604.71"/>
</a>
</g>
</g>
</g>
</svg>
