<?xml version="1.0" encoding="UTF-8" standalone="no"?>
<!DOCTYPE svg PUBLIC "-//W3C//DTD SVG 1.1//EN"
 "http://www.w3.org/Graphics/SVG/1.1/DTD/svg11.dtd">
<!-- Generated by graphviz version 13.1.2 (20250808.2320)
 -->
<!-- Title: TinyEngineUITextBox Pages: 1 -->
<!--zoomable 652 -->

<svg id="main" version="1.1" xmlns="http://www.w3.org/2000/svg" xmlns:xlink="http://www.w3.org/1999/xlink" xml:space="preserve" onload="init(evt)">

<style type="text/css"><![CDATA[
.node, .edge {opacity: 0.7;}
.node.selected, .edge.selected {opacity: 1;}
.edge:hover path { stroke: red; }
.edge:hover polygon { stroke: red; fill: red; }
]]></style>

<defs>
  <circle id="rim" cx="0" cy="0" r="7"/>
  <circle id="rim2" cx="0" cy="0" r="3.5"/>
  <g id="zoomPlus">
    <use xlink:href="#rim" fill="#404040"><set attributeName="fill" to="#808080" begin="zoomplus.mouseover" end="zoomplus.mouseout"/></use>
    <path d="M-4,0h8M0,-4v8" fill="none" stroke="white" stroke-width="1.5" pointer-events="none"/>
  </g>
  <g id="zoomMin">
    <use xlink:href="#rim" fill="#404040"><set attributeName="fill" to="#808080" begin="zoomminus.mouseover" end="zoomminus.mouseout"/></use>
    <path d="M-4,0h8" fill="none" stroke="white" stroke-width="1.5" pointer-events="none"/>
  </g>
  <g id="arrowUp" transform="translate(30 24)">
    <use xlink:href="#rim"/>
    <path pointer-events="none" fill="none" stroke="white" stroke-width="1.5" d="M0,-3.0v7 M-2.5,-0.5L0,-3.0L2.5,-0.5"/>
  </g>
  <g id="arrowRight" transform="rotate(90) translate(36 -43)">
    <use xlink:href="#rim"/>
    <path pointer-events="none" fill="none" stroke="white" stroke-width="1.5" d="M0,-3.0v7 M-2.5,-0.5L0,-3.0L2.5,-0.5"/>
  </g>
  <g id="arrowDown" transform="rotate(180) translate(-30 -48)">
    <use xlink:href="#rim"/>
    <path pointer-events="none" fill="none" stroke="white" stroke-width="1.5" d="M0,-3.0v7 M-2.5,-0.5L0,-3.0L2.5,-0.5"/>
  </g>
  <g id="arrowLeft" transform="rotate(270) translate(-36 17)">
    <use xlink:href="#rim"/>
    <path pointer-events="none" fill="none" stroke="white" stroke-width="1.5" d="M0,-3.0v7 M-2.5,-0.5L0,-3.0L2.5,-0.5"/>
  </g>
  <g id="resetDef">
    <use xlink:href="#rim2" fill="#404040"><set attributeName="fill" to="#808080" begin="reset.mouseover" end="reset.mouseout"/></use>
  </g>
</defs>
<script type="application/ecmascript">
var viewWidth = 139;
var viewHeight = 652;
var sectionId = 'dynsection-0';
</script>
<script type="application/ecmascript" xlink:href="svg.min.js"/>
<svg id="graph" class="graph">
<g id="viewport">
<title>TinyEngineUITextBox</title>
<!-- Node1 -->
<g id="Node000001" class="node">
<title>Node1</title>
<g id="a_Node000001"><a xlink:title=" ">
<polygon fill="#999999" stroke="none" points="128.25,-180 3,-180 3,0 128.25,0 128.25,-180"/>
<text xml:space="preserve" text-anchor="start" x="18" y="-166.5" font-family="Helvetica,sans-Serif" font-size="10.00">TinyEngineUITextBox</text>
<text xml:space="preserve" text-anchor="start" x="7.38" y="-150.5" font-family="Helvetica,sans-Serif" font-size="10.00">#</text>
<text xml:space="preserve" text-anchor="start" x="17" y="-150.5" font-family="Helvetica,sans-Serif" font-size="10.00">m_texts</text>
<text xml:space="preserve" text-anchor="start" x="7.38" y="-134.5" font-family="Helvetica,sans-Serif" font-size="10.00">#</text>
<text xml:space="preserve" text-anchor="start" x="17" y="-134.5" font-family="Helvetica,sans-Serif" font-size="10.00">m_outline_color</text>
<text xml:space="preserve" text-anchor="start" x="7" y="-118.5" font-family="Helvetica,sans-Serif" font-size="10.00">+</text>
<text xml:space="preserve" text-anchor="start" x="17" y="-118.5" font-family="Helvetica,sans-Serif" font-size="10.00">render()</text>
<text xml:space="preserve" text-anchor="start" x="7" y="-102.5" font-family="Helvetica,sans-Serif" font-size="10.00">+</text>
<text xml:space="preserve" text-anchor="start" x="17" y="-102.5" font-family="Helvetica,sans-Serif" font-size="10.00">update()</text>
<text xml:space="preserve" text-anchor="start" x="7" y="-86.5" font-family="Helvetica,sans-Serif" font-size="10.00">+</text>
<text xml:space="preserve" text-anchor="start" x="17" y="-86.5" font-family="Helvetica,sans-Serif" font-size="10.00">~TinyEngineUITextBox()</text>
<text xml:space="preserve" text-anchor="start" x="7" y="-70.5" font-family="Helvetica,sans-Serif" font-size="10.00">+</text>
<text xml:space="preserve" text-anchor="start" x="17" y="-70.5" font-family="Helvetica,sans-Serif" font-size="10.00">TinyEngineUITextBox()</text>
<text xml:space="preserve" text-anchor="start" x="7" y="-54.5" font-family="Helvetica,sans-Serif" font-size="10.00">+</text>
<text xml:space="preserve" text-anchor="start" x="17" y="-54.5" font-family="Helvetica,sans-Serif" font-size="10.00">TinyEngineUITextBox()</text>
<text xml:space="preserve" text-anchor="start" x="7" y="-38.5" font-family="Helvetica,sans-Serif" font-size="10.00">+</text>
<text xml:space="preserve" text-anchor="start" x="17" y="-38.5" font-family="Helvetica,sans-Serif" font-size="10.00">add_text()</text>
<text xml:space="preserve" text-anchor="start" x="7" y="-22.5" font-family="Helvetica,sans-Serif" font-size="10.00">+</text>
<text xml:space="preserve" text-anchor="start" x="17" y="-22.5" font-family="Helvetica,sans-Serif" font-size="10.00">get_m_outline_color()</text>
<text xml:space="preserve" text-anchor="start" x="7" y="-6.5" font-family="Helvetica,sans-Serif" font-size="10.00">+</text>
<text xml:space="preserve" text-anchor="start" x="17" y="-6.5" font-family="Helvetica,sans-Serif" font-size="10.00">set_m_outline_color()</text>
<polygon fill="#666666" stroke="#666666" points="3,-162 3,-162 128.25,-162 128.25,-162 3,-162"/>
<polygon fill="#666666" stroke="#666666" points="3,-130 3,-130 15,-130 15,-130 3,-130"/>
<polygon fill="#666666" stroke="#666666" points="15,-130 15,-130 128.25,-130 128.25,-130 15,-130"/>
<polygon fill="none" stroke="#666666" points="3,0 3,-180 128.25,-180 128.25,0 3,0"/>
</a>
</g>
</g>
<!-- Node2 -->
<g id="Node000002" class="node">
<title>Node2</title>
<g id="a_Node000002"><a xlink:href="class_tiny_engine_u_i.html" target="_top" xlink:title=" ">
<polygon fill="white" stroke="none" points="110.25,-508 21,-508 21,-216 110.25,-216 110.25,-508"/>
<text xml:space="preserve" text-anchor="start" x="36" y="-494.5" font-family="Helvetica,sans-Serif" font-size="10.00">TinyEngineUI</text>
<text xml:space="preserve" text-anchor="start" x="25.38" y="-478.5" font-family="Helvetica,sans-Serif" font-size="10.00">#</text>
<text xml:space="preserve" text-anchor="start" x="35" y="-478.5" font-family="Helvetica,sans-Serif" font-size="10.00">m_x</text>
<text xml:space="preserve" text-anchor="start" x="25.38" y="-462.5" font-family="Helvetica,sans-Serif" font-size="10.00">#</text>
<text xml:space="preserve" text-anchor="start" x="35" y="-462.5" font-family="Helvetica,sans-Serif" font-size="10.00">m_y</text>
<text xml:space="preserve" text-anchor="start" x="25.38" y="-446.5" font-family="Helvetica,sans-Serif" font-size="10.00">#</text>
<text xml:space="preserve" text-anchor="start" x="35" y="-446.5" font-family="Helvetica,sans-Serif" font-size="10.00">m_x_half</text>
<text xml:space="preserve" text-anchor="start" x="25.38" y="-430.5" font-family="Helvetica,sans-Serif" font-size="10.00">#</text>
<text xml:space="preserve" text-anchor="start" x="35" y="-430.5" font-family="Helvetica,sans-Serif" font-size="10.00">m_y_half</text>
<text xml:space="preserve" text-anchor="start" x="25.38" y="-414.5" font-family="Helvetica,sans-Serif" font-size="10.00">#</text>
<text xml:space="preserve" text-anchor="start" x="35" y="-414.5" font-family="Helvetica,sans-Serif" font-size="10.00">m_width</text>
<text xml:space="preserve" text-anchor="start" x="25.38" y="-398.5" font-family="Helvetica,sans-Serif" font-size="10.00">#</text>
<text xml:space="preserve" text-anchor="start" x="35" y="-398.5" font-family="Helvetica,sans-Serif" font-size="10.00">m_height</text>
<text xml:space="preserve" text-anchor="start" x="25" y="-382.5" font-family="Helvetica,sans-Serif" font-size="10.00">+</text>
<text xml:space="preserve" text-anchor="start" x="35" y="-382.5" font-family="Helvetica,sans-Serif" font-size="10.00">TinyEngineUI()</text>
<text xml:space="preserve" text-anchor="start" x="25" y="-366.5" font-family="Helvetica,sans-Serif" font-size="10.00">+</text>
<text xml:space="preserve" text-anchor="start" x="35" y="-366.5" font-family="Helvetica,sans-Serif" font-size="10.00">render()</text>
<text xml:space="preserve" text-anchor="start" x="25" y="-350.5" font-family="Helvetica,sans-Serif" font-size="10.00">+</text>
<text xml:space="preserve" text-anchor="start" x="35" y="-350.5" font-family="Helvetica,sans-Serif" font-size="10.00">update()</text>
<text xml:space="preserve" text-anchor="start" x="25" y="-334.5" font-family="Helvetica,sans-Serif" font-size="10.00">+</text>
<text xml:space="preserve" text-anchor="start" x="35" y="-334.5" font-family="Helvetica,sans-Serif" font-size="10.00">~TinyEngineUI()</text>
<text xml:space="preserve" text-anchor="start" x="25" y="-318.5" font-family="Helvetica,sans-Serif" font-size="10.00">+</text>
<text xml:space="preserve" text-anchor="start" x="35" y="-318.5" font-family="Helvetica,sans-Serif" font-size="10.00">get_m_x()</text>
<text xml:space="preserve" text-anchor="start" x="25" y="-302.5" font-family="Helvetica,sans-Serif" font-size="10.00">+</text>
<text xml:space="preserve" text-anchor="start" x="35" y="-302.5" font-family="Helvetica,sans-Serif" font-size="10.00">get_m_y()</text>
<text xml:space="preserve" text-anchor="start" x="25" y="-286.5" font-family="Helvetica,sans-Serif" font-size="10.00">+</text>
<text xml:space="preserve" text-anchor="start" x="35" y="-286.5" font-family="Helvetica,sans-Serif" font-size="10.00">get_m_x_half()</text>
<text xml:space="preserve" text-anchor="start" x="25" y="-270.5" font-family="Helvetica,sans-Serif" font-size="10.00">+</text>
<text xml:space="preserve" text-anchor="start" x="35" y="-270.5" font-family="Helvetica,sans-Serif" font-size="10.00">get_m_y_half()</text>
<text xml:space="preserve" text-anchor="start" x="25" y="-254.5" font-family="Helvetica,sans-Serif" font-size="10.00">+</text>
<text xml:space="preserve" text-anchor="start" x="35" y="-254.5" font-family="Helvetica,sans-Serif" font-size="10.00">set_m_x()</text>
<text xml:space="preserve" text-anchor="start" x="25" y="-238.5" font-family="Helvetica,sans-Serif" font-size="10.00">+</text>
<text xml:space="preserve" text-anchor="start" x="35" y="-238.5" font-family="Helvetica,sans-Serif" font-size="10.00">set_m_y()</text>
<text xml:space="preserve" text-anchor="start" x="35" y="-222.5" font-family="Helvetica,sans-Serif" font-size="10.00">and 6 more...</text>
<polygon fill="#666666" stroke="#666666" points="21,-490 21,-490 110.25,-490 110.25,-490 21,-490"/>
<polygon fill="#666666" stroke="#666666" points="21,-394 21,-394 33,-394 33,-394 21,-394"/>
<polygon fill="#666666" stroke="#666666" points="33,-394 33,-394 110.25,-394 110.25,-394 33,-394"/>
<polygon fill="none" stroke="#666666" points="21,-216 21,-508 110.25,-508 110.25,-216 21,-216"/>
</a>
</g>
</g>
<!-- Node2&#45;&gt;Node1 -->
<g id="edge1_Node000001_Node000002" class="edge">
<title>Node2&#45;&gt;Node1</title>
<g id="a_edge1_Node000001_Node000002"><a xlink:title=" ">
<path fill="none" stroke="#63b8ff" d="M65.62,-204.84C65.62,-196.31 65.62,-187.88 65.62,-179.72"/>
<polygon fill="none" stroke="#63b8ff" points="62.13,-204.61 65.63,-214.61 69.13,-204.61 62.13,-204.61"/>
</a>
</g>
</g>
<!-- Node3 -->
<g id="Node000003" class="node">
<title>Node3</title>
<g id="a_Node000003"><a xlink:href="class_tiny_engine_renderable_i.html" target="_top" xlink:title=" ">
<polygon fill="white" stroke="none" points="131.25,-644 0,-644 0,-544 131.25,-544 131.25,-644"/>
<text xml:space="preserve" text-anchor="start" x="15" y="-630.5" font-family="Helvetica,sans-Serif" font-size="10.00">TinyEngineRenderableI</text>
<text xml:space="preserve" text-anchor="start" x="64.12" y="-614.5" font-family="Helvetica,sans-Serif" font-size="10.00"> </text>
<text xml:space="preserve" text-anchor="start" x="4" y="-598.5" font-family="Helvetica,sans-Serif" font-size="10.00">+</text>
<text xml:space="preserve" text-anchor="start" x="14" y="-598.5" font-family="Helvetica,sans-Serif" font-size="10.00">TinyEngineRenderableI()</text>
<text xml:space="preserve" text-anchor="start" x="4" y="-582.5" font-family="Helvetica,sans-Serif" font-size="10.00">+</text>
<text xml:space="preserve" text-anchor="start" x="14" y="-582.5" font-family="Helvetica,sans-Serif" font-size="10.00">~TinyEngineRenderableI()</text>
<text xml:space="preserve" text-anchor="start" x="4" y="-566.5" font-family="Helvetica,sans-Serif" font-size="10.00">+</text>
<text xml:space="preserve" text-anchor="start" x="14" y="-566.5" font-family="Helvetica,sans-Serif" font-size="10.00">render()</text>
<text xml:space="preserve" text-anchor="start" x="4" y="-550.5" font-family="Helvetica,sans-Serif" font-size="10.00">+</text>
<text xml:space="preserve" text-anchor="start" x="14" y="-550.5" font-family="Helvetica,sans-Serif" font-size="10.00">update()</text>
<polygon fill="#666666" stroke="#666666" points="0,-626 0,-626 131.25,-626 131.25,-626 0,-626"/>
<polygon fill="#666666" stroke="#666666" points="0,-610 0,-610 131.25,-610 131.25,-610 0,-610"/>
<polygon fill="none" stroke="#666666" points="0,-544 0,-644 131.25,-644 131.25,-544 0,-544"/>
</a>
</g>
</g>
<!-- Node3&#45;&gt;Node2 -->
<g id="edge2_Node000002_Node000003" class="edge">
<title>Node3&#45;&gt;Node2</title>
<g id="a_edge2_Node000002_Node000003"><a xlink:title=" ">
<path fill="none" stroke="#63b8ff" d="M65.62,-532.94C65.62,-525 65.62,-516.61 65.62,-507.97"/>
<polygon fill="none" stroke="#63b8ff" points="62.13,-532.71 65.63,-542.71 69.13,-532.71 62.13,-532.71"/>
</a>
</g>
</g>
</g>
</svg>

<g id="navigator" transform="translate(0 0)" fill="#404254">
  <rect fill="#f2f5e9" fill-opacity="0.5" stroke="#606060" stroke-width=".5" x="0" y="0" width="60" height="60"/>
  <use id="zoomplus" xlink:href="#zoomPlus" x="17" y="9" onmousedown="handleZoom(evt,'in')"/>
  <use id="zoomminus" xlink:href="#zoomMin" x="42" y="9" onmousedown="handleZoom(evt,'out')"/>
  <use id="reset" xlink:href="#resetDef" x="30" y="36" onmousedown="handleReset()"/>
   <use id="arrowup" xlink:href="#arrowUp" x="0" y="0" onmousedown="handlePan(0,-1)"/>
  <use id="arrowright" xlink:href="#arrowRight" x="0" y="0" onmousedown="handlePan(1,0)"/>
  <use id="arrowdown" xlink:href="#arrowDown" x="0" y="0" onmousedown="handlePan(0,1)"/>
  <use id="arrowleft" xlink:href="#arrowLeft" x="0" y="0" onmousedown="handlePan(-1,0)"/>
</g>
<svg viewBox="0 0 15 15" width="100%" height="30px" preserveAspectRatio="xMaxYMin meet">
 <g id="arrow_out" transform="scale(0.3 0.3)">
  <a xlink:href="class_tiny_engine_u_i_text_box__inherit__graph_org.svg" target="_base">
   <rect id="button" ry="5" rx="5" y="6" x="6" height="38" width="38"
        fill="#f2f5e9" fill-opacity="0.5" stroke="#606060" stroke-width="1.0"/>
   <path id="arrow"
     d="M 11.500037,31.436501 C 11.940474,20.09759 22.043105,11.32322 32.158766,21.979434 L 37.068811,17.246167 C 37.068811,17.246167 37.088388,32 37.088388,32 L 22.160133,31.978069 C 22.160133,31.978069 26.997745,27.140456 26.997745,27.140456 C 18.528582,18.264221 13.291696,25.230495 11.500037,31.436501 z"
     style="fill:#404040;"/>
  </a>
 </g>
</svg>

<style type='text/css'>
<![CDATA[
[data-mouse-over-selected='false'] { opacity: 0.7; }
[data-mouse-over-selected='true']  { opacity: 1.0; }
]]>
</style>
<script type="application/ecmascript"><![CDATA[
document.addEventListener('DOMContentLoaded', (event) => {
  highlightEdges();
  highlightAdjacentNodes();
});
]]></script>
</svg>
