<?xml version="1.0" encoding="UTF-8" standalone="no"?>
<!DOCTYPE svg PUBLIC "-//W3C//DTD SVG 1.1//EN"
 "http://www.w3.org/Graphics/SVG/1.1/DTD/svg11.dtd">
<!-- Generated by graphviz version 13.1.2 (20250808.2320)
 -->
<!-- Title: TinyEngineRendererI Pages: 1 -->
<svg width="118pt" height="120pt"
 viewBox="0.00 0.00 118.00 120.00" xmlns="http://www.w3.org/2000/svg" xmlns:xlink="http://www.w3.org/1999/xlink">
<g id="graph0" class="graph" transform="scale(1 1) rotate(0) translate(4 116)">
<title>TinyEngineRendererI</title>
<!-- Node1 -->
<g id="Node000001" class="node">
<title>Node1</title>
<g id="a_Node000001"><a xlink:title=" ">
<polygon fill="#999999" stroke="none" points="109.5,-112 0,-112 0,0 109.5,0 109.5,-112"/>
<text xml:space="preserve" text-anchor="start" x="9" y="-98.5" font-family="Helvetica,sans-Serif" font-size="10.00">TinyEngineRendererI</text>
<text xml:space="preserve" text-anchor="start" x="53.25" y="-82.5" font-family="Helvetica,sans-Serif" font-size="10.00"> </text>
<text xml:space="preserve" text-anchor="start" x="4" y="-66.5" font-family="Helvetica,sans-Serif" font-size="10.00">+</text>
<text xml:space="preserve" text-anchor="start" x="14" y="-66.5" font-family="Helvetica,sans-Serif" font-size="10.00">swap_blocking()</text>
<text xml:space="preserve" text-anchor="start" x="4" y="-50.5" font-family="Helvetica,sans-Serif" font-size="10.00">+</text>
<text xml:space="preserve" text-anchor="start" x="14" y="-50.5" font-family="Helvetica,sans-Serif" font-size="10.00">swap_non_blocking()</text>
<text xml:space="preserve" text-anchor="start" x="4" y="-34.5" font-family="Helvetica,sans-Serif" font-size="10.00">+</text>
<text xml:space="preserve" text-anchor="start" x="14" y="-34.5" font-family="Helvetica,sans-Serif" font-size="10.00">wait_for_vsync()</text>
<text xml:space="preserve" text-anchor="start" x="4" y="-18.5" font-family="Helvetica,sans-Serif" font-size="10.00">+</text>
<text xml:space="preserve" text-anchor="start" x="14" y="-18.5" font-family="Helvetica,sans-Serif" font-size="10.00">tinyengine_renderer</text>
<text xml:space="preserve" text-anchor="start" x="14" y="-6.5" font-family="Helvetica,sans-Serif" font-size="10.00">_init()</text>
<polygon fill="#666666" stroke="#666666" points="0,-94 0,-94 109.5,-94 109.5,-94 0,-94"/>
<polygon fill="#666666" stroke="#666666" points="0,-78 0,-78 109.5,-78 109.5,-78 0,-78"/>
<polygon fill="none" stroke="#666666" points="0,0 0,-112 109.5,-112 109.5,0 0,0"/>
</a>
</g>
</g>
</g>
</svg>
