<?xml version="1.0" encoding="UTF-8" standalone="no"?>
<!DOCTYPE svg PUBLIC "-//W3C//DTD SVG 1.1//EN"
 "http://www.w3.org/Graphics/SVG/1.1/DTD/svg11.dtd">
<!-- Generated by graphviz version 13.1.2 (20250808.2320)
 -->
<!-- Title: GameScene Pages: 1 -->
<svg width="186pt" height="508pt"
 viewBox="0.00 0.00 186.00 508.00" xmlns="http://www.w3.org/2000/svg" xmlns:xlink="http://www.w3.org/1999/xlink">
<g id="graph0" class="graph" transform="scale(1 1) rotate(0) translate(4 504)">
<title>GameScene</title>
<!-- Node1 -->
<g id="Node000001" class="node">
<title>Node1</title>
<g id="a_Node000001"><a xlink:title="Contains all of the common fucctions and members needed to render a scene. A down stream Game scene w...">
<polygon fill="#999999" stroke="none" points="129.25,-348 45.25,-348 45.25,-168 129.25,-168 129.25,-348"/>
<text xml:space="preserve" text-anchor="start" x="60.25" y="-334.5" font-family="Helvetica,sans-Serif" font-size="10.00">GameScene</text>
<text xml:space="preserve" text-anchor="start" x="49.62" y="-318.5" font-family="Helvetica,sans-Serif" font-size="10.00">#</text>
<text xml:space="preserve" text-anchor="start" x="59.25" y="-318.5" font-family="Helvetica,sans-Serif" font-size="10.00">m_framebuffer</text>
<text xml:space="preserve" text-anchor="start" x="49.62" y="-302.5" font-family="Helvetica,sans-Serif" font-size="10.00">#</text>
<text xml:space="preserve" text-anchor="start" x="59.25" y="-302.5" font-family="Helvetica,sans-Serif" font-size="10.00">m_renderer</text>
<text xml:space="preserve" text-anchor="start" x="49.62" y="-286.5" font-family="Helvetica,sans-Serif" font-size="10.00">#</text>
<text xml:space="preserve" text-anchor="start" x="59.25" y="-286.5" font-family="Helvetica,sans-Serif" font-size="10.00">m_engine</text>
<text xml:space="preserve" text-anchor="start" x="49.62" y="-270.5" font-family="Helvetica,sans-Serif" font-size="10.00">#</text>
<text xml:space="preserve" text-anchor="start" x="59.25" y="-270.5" font-family="Helvetica,sans-Serif" font-size="10.00">sprites</text>
<text xml:space="preserve" text-anchor="start" x="49.25" y="-254.5" font-family="Helvetica,sans-Serif" font-size="10.00">+</text>
<text xml:space="preserve" text-anchor="start" x="59.25" y="-254.5" font-family="Helvetica,sans-Serif" font-size="10.00">GameScene()</text>
<text xml:space="preserve" text-anchor="start" x="49.25" y="-238.5" font-family="Helvetica,sans-Serif" font-size="10.00">+</text>
<text xml:space="preserve" text-anchor="start" x="59.25" y="-238.5" font-family="Helvetica,sans-Serif" font-size="10.00">~GameScene()</text>
<text xml:space="preserve" text-anchor="start" x="49.25" y="-222.5" font-family="Helvetica,sans-Serif" font-size="10.00">+</text>
<text xml:space="preserve" text-anchor="start" x="59.25" y="-222.5" font-family="Helvetica,sans-Serif" font-size="10.00">create()</text>
<text xml:space="preserve" text-anchor="start" x="49.25" y="-206.5" font-family="Helvetica,sans-Serif" font-size="10.00">+</text>
<text xml:space="preserve" text-anchor="start" x="59.25" y="-206.5" font-family="Helvetica,sans-Serif" font-size="10.00">render()</text>
<text xml:space="preserve" text-anchor="start" x="49.25" y="-190.5" font-family="Helvetica,sans-Serif" font-size="10.00">+</text>
<text xml:space="preserve" text-anchor="start" x="59.25" y="-190.5" font-family="Helvetica,sans-Serif" font-size="10.00">update()</text>
<text xml:space="preserve" text-anchor="start" x="49.25" y="-174.5" font-family="Helvetica,sans-Serif" font-size="10.00">+</text>
<text xml:space="preserve" text-anchor="start" x="59.25" y="-174.5" font-family="Helvetica,sans-Serif" font-size="10.00">destroy()</text>
<polygon fill="#666666" stroke="#666666" points="45.25,-330 45.25,-330 129.25,-330 129.25,-330 45.25,-330"/>
<polygon fill="#666666" stroke="#666666" points="45.25,-266 45.25,-266 57.25,-266 57.25,-266 45.25,-266"/>
<polygon fill="#666666" stroke="#666666" points="57.25,-266 57.25,-266 129.25,-266 129.25,-266 57.25,-266"/>
<polygon fill="none" stroke="#666666" points="45.25,-168 45.25,-348 129.25,-348 129.25,-168 45.25,-168"/>
</a>
</g>
</g>
<!-- Node3 -->
<g id="Node000003" class="node">
<title>Node3</title>
<g id="a_Node000003"><a xlink:href="class_dino_game.html" target="_top" xlink:title=" ">
<polygon fill="white" stroke="none" points="76.5,-132 0,-132 0,0 76.5,0 76.5,-132"/>
<text xml:space="preserve" text-anchor="start" x="15" y="-118.5" font-family="Helvetica,sans-Serif" font-size="10.00">DinoGame</text>
<text xml:space="preserve" text-anchor="start" x="36.75" y="-102.5" font-family="Helvetica,sans-Serif" font-size="10.00"> </text>
<text xml:space="preserve" text-anchor="start" x="4" y="-86.5" font-family="Helvetica,sans-Serif" font-size="10.00">+</text>
<text xml:space="preserve" text-anchor="start" x="14" y="-86.5" font-family="Helvetica,sans-Serif" font-size="10.00">DinoGame()</text>
<text xml:space="preserve" text-anchor="start" x="4" y="-70.5" font-family="Helvetica,sans-Serif" font-size="10.00">+</text>
<text xml:space="preserve" text-anchor="start" x="14" y="-70.5" font-family="Helvetica,sans-Serif" font-size="10.00">~DinoGame()</text>
<text xml:space="preserve" text-anchor="start" x="4" y="-54.5" font-family="Helvetica,sans-Serif" font-size="10.00">+</text>
<text xml:space="preserve" text-anchor="start" x="14" y="-54.5" font-family="Helvetica,sans-Serif" font-size="10.00">create()</text>
<text xml:space="preserve" text-anchor="start" x="4" y="-38.5" font-family="Helvetica,sans-Serif" font-size="10.00">+</text>
<text xml:space="preserve" text-anchor="start" x="14" y="-38.5" font-family="Helvetica,sans-Serif" font-size="10.00">render()</text>
<text xml:space="preserve" text-anchor="start" x="4" y="-22.5" font-family="Helvetica,sans-Serif" font-size="10.00">+</text>
<text xml:space="preserve" text-anchor="start" x="14" y="-22.5" font-family="Helvetica,sans-Serif" font-size="10.00">update()</text>
<text xml:space="preserve" text-anchor="start" x="4" y="-6.5" font-family="Helvetica,sans-Serif" font-size="10.00">+</text>
<text xml:space="preserve" text-anchor="start" x="14" y="-6.5" font-family="Helvetica,sans-Serif" font-size="10.00">destroy()</text>
<polygon fill="#666666" stroke="#666666" points="0,-114 0,-114 76.5,-114 76.5,-114 0,-114"/>
<polygon fill="#666666" stroke="#666666" points="0,-98 0,-98 76.5,-98 76.5,-98 0,-98"/>
<polygon fill="none" stroke="#666666" points="0,0 0,-132 76.5,-132 76.5,0 0,0"/>
</a>
</g>
</g>
<!-- Node1&#45;&gt;Node3 -->
<g id="edge2_Node000001_Node000003" class="edge">
<title>Node1&#45;&gt;Node3</title>
<g id="a_edge2_Node000001_Node000003"><a xlink:title=" ">
<path fill="none" stroke="#63b8ff" d="M61.51,-157.18C59.28,-148.55 57.07,-139.97 54.94,-131.73"/>
<polygon fill="none" stroke="#63b8ff" points="58.06,-157.84 63.95,-166.65 64.84,-156.1 58.06,-157.84"/>
</a>
</g>
</g>
<!-- Node4 -->
<g id="Node000004" class="node">
<title>Node4</title>
<g id="a_Node000004"><a xlink:href="class_snake_game.html" target="_top" xlink:title=" ">
<polygon fill="white" stroke="none" points="178.25,-132 94.25,-132 94.25,0 178.25,0 178.25,-132"/>
<text xml:space="preserve" text-anchor="start" x="109.25" y="-118.5" font-family="Helvetica,sans-Serif" font-size="10.00">SnakeGame</text>
<text xml:space="preserve" text-anchor="start" x="134.75" y="-102.5" font-family="Helvetica,sans-Serif" font-size="10.00"> </text>
<text xml:space="preserve" text-anchor="start" x="98.25" y="-86.5" font-family="Helvetica,sans-Serif" font-size="10.00">+</text>
<text xml:space="preserve" text-anchor="start" x="108.25" y="-86.5" font-family="Helvetica,sans-Serif" font-size="10.00">SnakeGame()</text>
<text xml:space="preserve" text-anchor="start" x="98.25" y="-70.5" font-family="Helvetica,sans-Serif" font-size="10.00">+</text>
<text xml:space="preserve" text-anchor="start" x="108.25" y="-70.5" font-family="Helvetica,sans-Serif" font-size="10.00">~SnakeGame()</text>
<text xml:space="preserve" text-anchor="start" x="98.25" y="-54.5" font-family="Helvetica,sans-Serif" font-size="10.00">+</text>
<text xml:space="preserve" text-anchor="start" x="108.25" y="-54.5" font-family="Helvetica,sans-Serif" font-size="10.00">create()</text>
<text xml:space="preserve" text-anchor="start" x="98.25" y="-38.5" font-family="Helvetica,sans-Serif" font-size="10.00">+</text>
<text xml:space="preserve" text-anchor="start" x="108.25" y="-38.5" font-family="Helvetica,sans-Serif" font-size="10.00">render()</text>
<text xml:space="preserve" text-anchor="start" x="98.25" y="-22.5" font-family="Helvetica,sans-Serif" font-size="10.00">+</text>
<text xml:space="preserve" text-anchor="start" x="108.25" y="-22.5" font-family="Helvetica,sans-Serif" font-size="10.00">update()</text>
<text xml:space="preserve" text-anchor="start" x="98.25" y="-6.5" font-family="Helvetica,sans-Serif" font-size="10.00">+</text>
<text xml:space="preserve" text-anchor="start" x="108.25" y="-6.5" font-family="Helvetica,sans-Serif" font-size="10.00">destroy()</text>
<polygon fill="#666666" stroke="#666666" points="94.25,-114 94.25,-114 178.25,-114 178.25,-114 94.25,-114"/>
<polygon fill="#666666" stroke="#666666" points="94.25,-98 94.25,-98 178.25,-98 178.25,-98 94.25,-98"/>
<polygon fill="none" stroke="#666666" points="94.25,0 94.25,-132 178.25,-132 178.25,0 94.25,0"/>
</a>
</g>
</g>
<!-- Node1&#45;&gt;Node4 -->
<g id="edge3_Node000001_Node000004" class="edge">
<title>Node1&#45;&gt;Node4</title>
<g id="a_edge3_Node000001_Node000004"><a xlink:title=" ">
<path fill="none" stroke="#63b8ff" d="M112.99,-157.18C115.22,-148.55 117.43,-139.97 119.56,-131.73"/>
<polygon fill="none" stroke="#63b8ff" points="109.66,-156.1 110.55,-166.65 116.44,-157.84 109.66,-156.1"/>
</a>
</g>
</g>
<!-- Node2 -->
<g id="Node000002" class="node">
<title>Node2</title>
<g id="a_Node000002"><a xlink:href="class_scene_i.html" target="_top" xlink:title=" ">
<polygon fill="white" stroke="none" points="117.62,-500 56.88,-500 56.88,-384 117.62,-384 117.62,-500"/>
<text xml:space="preserve" text-anchor="start" x="71.88" y="-486.5" font-family="Helvetica,sans-Serif" font-size="10.00">SceneI</text>
<text xml:space="preserve" text-anchor="start" x="85.75" y="-470.5" font-family="Helvetica,sans-Serif" font-size="10.00"> </text>
<text xml:space="preserve" text-anchor="start" x="60.88" y="-454.5" font-family="Helvetica,sans-Serif" font-size="10.00">+</text>
<text xml:space="preserve" text-anchor="start" x="70.88" y="-454.5" font-family="Helvetica,sans-Serif" font-size="10.00">~SceneI()</text>
<text xml:space="preserve" text-anchor="start" x="60.88" y="-438.5" font-family="Helvetica,sans-Serif" font-size="10.00">+</text>
<text xml:space="preserve" text-anchor="start" x="70.88" y="-438.5" font-family="Helvetica,sans-Serif" font-size="10.00">create()</text>
<text xml:space="preserve" text-anchor="start" x="60.88" y="-422.5" font-family="Helvetica,sans-Serif" font-size="10.00">+</text>
<text xml:space="preserve" text-anchor="start" x="70.88" y="-422.5" font-family="Helvetica,sans-Serif" font-size="10.00">render()</text>
<text xml:space="preserve" text-anchor="start" x="60.88" y="-406.5" font-family="Helvetica,sans-Serif" font-size="10.00">+</text>
<text xml:space="preserve" text-anchor="start" x="70.88" y="-406.5" font-family="Helvetica,sans-Serif" font-size="10.00">update()</text>
<text xml:space="preserve" text-anchor="start" x="60.88" y="-390.5" font-family="Helvetica,sans-Serif" font-size="10.00">+</text>
<text xml:space="preserve" text-anchor="start" x="70.88" y="-390.5" font-family="Helvetica,sans-Serif" font-size="10.00">destroy()</text>
<polygon fill="#666666" stroke="#666666" points="56.88,-482 56.88,-482 117.62,-482 117.62,-482 56.88,-482"/>
<polygon fill="#666666" stroke="#666666" points="56.88,-466 56.88,-466 117.62,-466 117.62,-466 56.88,-466"/>
<polygon fill="none" stroke="#666666" points="56.88,-384 56.88,-500 117.62,-500 117.62,-384 56.88,-384"/>
</a>
</g>
</g>
<!-- Node2&#45;&gt;Node1 -->
<g id="edge1_Node000001_Node000002" class="edge">
<title>Node2&#45;&gt;Node1</title>
<g id="a_edge1_Node000001_Node000002"><a xlink:title=" ">
<path fill="none" stroke="#63b8ff" d="M87.25,-373.04C87.25,-364.86 87.25,-356.4 87.25,-347.97"/>
<polygon fill="none" stroke="#63b8ff" points="83.75,-372.9 87.25,-382.9 90.75,-372.9 83.75,-372.9"/>
</a>
</g>
</g>
</g>
</svg>
