<?xml version="1.0" encoding="UTF-8" standalone="no"?>
<!DOCTYPE svg PUBLIC "-//W3C//DTD SVG 1.1//EN"
 "http://www.w3.org/Graphics/SVG/1.1/DTD/svg11.dtd">
<!-- Generated by graphviz version 13.1.2 (20250808.2320)
 -->
<!-- Title: TinyEngineUIBlinkingTextBox Pages: 1 -->
<!--zoomable 724 -->

<svg id="main" version="1.1" xmlns="http://www.w3.org/2000/svg" xmlns:xlink="http://www.w3.org/1999/xlink" xml:space="preserve" onload="init(evt)">

<style type="text/css"><![CDATA[
.node, .edge {opacity: 0.7;}
.node.selected, .edge.selected {opacity: 1;}
.edge:hover path { stroke: red; }
.edge:hover polygon { stroke: red; fill: red; }
]]></style>

<defs>
  <circle id="rim" cx="0" cy="0" r="7"/>
  <circle id="rim2" cx="0" cy="0" r="3.5"/>
  <g id="zoomPlus">
    <use xlink:href="#rim" fill="#404040"><set attributeName="fill" to="#808080" begin="zoomplus.mouseover" end="zoomplus.mouseout"/></use>
    <path d="M-4,0h8M0,-4v8" fill="none" stroke="white" stroke-width="1.5" pointer-events="none"/>
  </g>
  <g id="zoomMin">
    <use xlink:href="#rim" fill="#404040"><set attributeName="fill" to="#808080" begin="zoomminus.mouseover" end="zoomminus.mouseout"/></use>
    <path d="M-4,0h8" fill="none" stroke="white" stroke-width="1.5" pointer-events="none"/>
  </g>
  <g id="arrowUp" transform="translate(30 24)">
    <use xlink:href="#rim"/>
    <path pointer-events="none" fill="none" stroke="white" stroke-width="1.5" d="M0,-3.0v7 M-2.5,-0.5L0,-3.0L2.5,-0.5"/>
  </g>
  <g id="arrowRight" transform="rotate(90) translate(36 -43)">
    <use xlink:href="#rim"/>
    <path pointer-events="none" fill="none" stroke="white" stroke-width="1.5" d="M0,-3.0v7 M-2.5,-0.5L0,-3.0L2.5,-0.5"/>
  </g>
  <g id="arrowDown" transform="rotate(180) translate(-30 -48)">
    <use xlink:href="#rim"/>
    <path pointer-events="none" fill="none" stroke="white" stroke-width="1.5" d="M0,-3.0v7 M-2.5,-0.5L0,-3.0L2.5,-0.5"/>
  </g>
  <g id="arrowLeft" transform="rotate(270) translate(-36 17)">
    <use xlink:href="#rim"/>
    <path pointer-events="none" fill="none" stroke="white" stroke-width="1.5" d="M0,-3.0v7 M-2.5,-0.5L0,-3.0L2.5,-0.5"/>
  </g>
  <g id="resetDef">
    <use xlink:href="#rim2" fill="#404040"><set attributeName="fill" to="#808080" begin="reset.mouseover" end="reset.mouseout"/></use>
  </g>
</defs>
<script type="application/ecmascript">
var viewWidth = 146;
var viewHeight = 724;
var sectionId = 'dynsection-0';
</script>
<script type="application/ecmascript" xlink:href="svg.min.js"/>
<svg id="graph" class="graph">
<g id="viewport">
<title>TinyEngineUIBlinkingTextBox</title>
<!-- Node1 -->
<g id="Node000001" class="node">
<title>Node1</title>
<g id="a_Node000001"><a xlink:title=" ">
<polygon fill="#999999" stroke="none" points="137.75,-252 0,-252 0,0 137.75,0 137.75,-252"/>
<text xml:space="preserve" text-anchor="start" x="4" y="-238.5" font-family="Helvetica,sans-Serif" font-size="10.00">TinyEngineUIBlinkingTextBox</text>
<text xml:space="preserve" text-anchor="start" x="4.69" y="-222.5" font-family="Helvetica,sans-Serif" font-size="10.00">#</text>
<text xml:space="preserve" text-anchor="start" x="14.62" y="-222.5" font-family="Helvetica,sans-Serif" font-size="10.00">m_bg_color</text>
<text xml:space="preserve" text-anchor="start" x="4.69" y="-206.5" font-family="Helvetica,sans-Serif" font-size="10.00">#</text>
<text xml:space="preserve" text-anchor="start" x="14.62" y="-206.5" font-family="Helvetica,sans-Serif" font-size="10.00">m_fg_color</text>
<text xml:space="preserve" text-anchor="start" x="4.69" y="-190.5" font-family="Helvetica,sans-Serif" font-size="10.00">#</text>
<text xml:space="preserve" text-anchor="start" x="14.62" y="-190.5" font-family="Helvetica,sans-Serif" font-size="10.00">m_text</text>
<text xml:space="preserve" text-anchor="start" x="4.69" y="-174.5" font-family="Helvetica,sans-Serif" font-size="10.00">#</text>
<text xml:space="preserve" text-anchor="start" x="14.62" y="-174.5" font-family="Helvetica,sans-Serif" font-size="10.00">m_blink_delay</text>
<text xml:space="preserve" text-anchor="start" x="4.69" y="-158.5" font-family="Helvetica,sans-Serif" font-size="10.00">#</text>
<text xml:space="preserve" text-anchor="start" x="14.62" y="-158.5" font-family="Helvetica,sans-Serif" font-size="10.00">m_local_time</text>
<text xml:space="preserve" text-anchor="start" x="4.31" y="-142.5" font-family="Helvetica,sans-Serif" font-size="10.00">+</text>
<text xml:space="preserve" text-anchor="start" x="14.62" y="-142.5" font-family="Helvetica,sans-Serif" font-size="10.00">render()</text>
<text xml:space="preserve" text-anchor="start" x="4.31" y="-126.5" font-family="Helvetica,sans-Serif" font-size="10.00">+</text>
<text xml:space="preserve" text-anchor="start" x="14.62" y="-126.5" font-family="Helvetica,sans-Serif" font-size="10.00">update()</text>
<text xml:space="preserve" text-anchor="start" x="4.31" y="-110.5" font-family="Helvetica,sans-Serif" font-size="10.00">+</text>
<text xml:space="preserve" text-anchor="start" x="14.62" y="-110.5" font-family="Helvetica,sans-Serif" font-size="10.00">~TinyEngineUIBlinkingText</text>
<text xml:space="preserve" text-anchor="start" x="14.62" y="-98.5" font-family="Helvetica,sans-Serif" font-size="10.00">Box()</text>
<text xml:space="preserve" text-anchor="start" x="4.31" y="-82.5" font-family="Helvetica,sans-Serif" font-size="10.00">+</text>
<text xml:space="preserve" text-anchor="start" x="14.62" y="-82.5" font-family="Helvetica,sans-Serif" font-size="10.00">TinyEngineUIBlinkingText</text>
<text xml:space="preserve" text-anchor="start" x="14.62" y="-70.5" font-family="Helvetica,sans-Serif" font-size="10.00">Box()</text>
<text xml:space="preserve" text-anchor="start" x="4.31" y="-54.5" font-family="Helvetica,sans-Serif" font-size="10.00">+</text>
<text xml:space="preserve" text-anchor="start" x="14.62" y="-54.5" font-family="Helvetica,sans-Serif" font-size="10.00">get_m_bg_color()</text>
<text xml:space="preserve" text-anchor="start" x="4.31" y="-38.5" font-family="Helvetica,sans-Serif" font-size="10.00">+</text>
<text xml:space="preserve" text-anchor="start" x="14.62" y="-38.5" font-family="Helvetica,sans-Serif" font-size="10.00">get_m_fg_color()</text>
<text xml:space="preserve" text-anchor="start" x="4.31" y="-22.5" font-family="Helvetica,sans-Serif" font-size="10.00">+</text>
<text xml:space="preserve" text-anchor="start" x="14.62" y="-22.5" font-family="Helvetica,sans-Serif" font-size="10.00">get_m_text()</text>
<text xml:space="preserve" text-anchor="start" x="4.31" y="-6.5" font-family="Helvetica,sans-Serif" font-size="10.00">+</text>
<text xml:space="preserve" text-anchor="start" x="14.62" y="-6.5" font-family="Helvetica,sans-Serif" font-size="10.00">get_m_blink_delay()</text>
<polygon fill="#666666" stroke="#666666" points="0,-234 0,-234 137.75,-234 137.75,-234 0,-234"/>
<polygon fill="#666666" stroke="#666666" points="0,-154 0,-154 12.62,-154 12.62,-154 0,-154"/>
<polygon fill="#666666" stroke="#666666" points="12.62,-154 12.62,-154 137.75,-154 137.75,-154 12.62,-154"/>
<polygon fill="none" stroke="#666666" points="0,0 0,-252 137.75,-252 137.75,0 0,0"/>
</a>
</g>
</g>
<!-- Node2 -->
<g id="Node000002" class="node">
<title>Node2</title>
<g id="a_Node000002"><a xlink:href="class_tiny_engine_u_i.html" target="_top" xlink:title=" ">
<polygon fill="white" stroke="none" points="113.5,-580 24.25,-580 24.25,-288 113.5,-288 113.5,-580"/>
<text xml:space="preserve" text-anchor="start" x="39.25" y="-566.5" font-family="Helvetica,sans-Serif" font-size="10.00">TinyEngineUI</text>
<text xml:space="preserve" text-anchor="start" x="28.62" y="-550.5" font-family="Helvetica,sans-Serif" font-size="10.00">#</text>
<text xml:space="preserve" text-anchor="start" x="38.25" y="-550.5" font-family="Helvetica,sans-Serif" font-size="10.00">m_x</text>
<text xml:space="preserve" text-anchor="start" x="28.62" y="-534.5" font-family="Helvetica,sans-Serif" font-size="10.00">#</text>
<text xml:space="preserve" text-anchor="start" x="38.25" y="-534.5" font-family="Helvetica,sans-Serif" font-size="10.00">m_y</text>
<text xml:space="preserve" text-anchor="start" x="28.62" y="-518.5" font-family="Helvetica,sans-Serif" font-size="10.00">#</text>
<text xml:space="preserve" text-anchor="start" x="38.25" y="-518.5" font-family="Helvetica,sans-Serif" font-size="10.00">m_x_half</text>
<text xml:space="preserve" text-anchor="start" x="28.62" y="-502.5" font-family="Helvetica,sans-Serif" font-size="10.00">#</text>
<text xml:space="preserve" text-anchor="start" x="38.25" y="-502.5" font-family="Helvetica,sans-Serif" font-size="10.00">m_y_half</text>
<text xml:space="preserve" text-anchor="start" x="28.62" y="-486.5" font-family="Helvetica,sans-Serif" font-size="10.00">#</text>
<text xml:space="preserve" text-anchor="start" x="38.25" y="-486.5" font-family="Helvetica,sans-Serif" font-size="10.00">m_width</text>
<text xml:space="preserve" text-anchor="start" x="28.62" y="-470.5" font-family="Helvetica,sans-Serif" font-size="10.00">#</text>
<text xml:space="preserve" text-anchor="start" x="38.25" y="-470.5" font-family="Helvetica,sans-Serif" font-size="10.00">m_height</text>
<text xml:space="preserve" text-anchor="start" x="28.25" y="-454.5" font-family="Helvetica,sans-Serif" font-size="10.00">+</text>
<text xml:space="preserve" text-anchor="start" x="38.25" y="-454.5" font-family="Helvetica,sans-Serif" font-size="10.00">TinyEngineUI()</text>
<text xml:space="preserve" text-anchor="start" x="28.25" y="-438.5" font-family="Helvetica,sans-Serif" font-size="10.00">+</text>
<text xml:space="preserve" text-anchor="start" x="38.25" y="-438.5" font-family="Helvetica,sans-Serif" font-size="10.00">render()</text>
<text xml:space="preserve" text-anchor="start" x="28.25" y="-422.5" font-family="Helvetica,sans-Serif" font-size="10.00">+</text>
<text xml:space="preserve" text-anchor="start" x="38.25" y="-422.5" font-family="Helvetica,sans-Serif" font-size="10.00">update()</text>
<text xml:space="preserve" text-anchor="start" x="28.25" y="-406.5" font-family="Helvetica,sans-Serif" font-size="10.00">+</text>
<text xml:space="preserve" text-anchor="start" x="38.25" y="-406.5" font-family="Helvetica,sans-Serif" font-size="10.00">~TinyEngineUI()</text>
<text xml:space="preserve" text-anchor="start" x="28.25" y="-390.5" font-family="Helvetica,sans-Serif" font-size="10.00">+</text>
<text xml:space="preserve" text-anchor="start" x="38.25" y="-390.5" font-family="Helvetica,sans-Serif" font-size="10.00">get_m_x()</text>
<text xml:space="preserve" text-anchor="start" x="28.25" y="-374.5" font-family="Helvetica,sans-Serif" font-size="10.00">+</text>
<text xml:space="preserve" text-anchor="start" x="38.25" y="-374.5" font-family="Helvetica,sans-Serif" font-size="10.00">get_m_y()</text>
<text xml:space="preserve" text-anchor="start" x="28.25" y="-358.5" font-family="Helvetica,sans-Serif" font-size="10.00">+</text>
<text xml:space="preserve" text-anchor="start" x="38.25" y="-358.5" font-family="Helvetica,sans-Serif" font-size="10.00">get_m_x_half()</text>
<text xml:space="preserve" text-anchor="start" x="28.25" y="-342.5" font-family="Helvetica,sans-Serif" font-size="10.00">+</text>
<text xml:space="preserve" text-anchor="start" x="38.25" y="-342.5" font-family="Helvetica,sans-Serif" font-size="10.00">get_m_y_half()</text>
<text xml:space="preserve" text-anchor="start" x="28.25" y="-326.5" font-family="Helvetica,sans-Serif" font-size="10.00">+</text>
<text xml:space="preserve" text-anchor="start" x="38.25" y="-326.5" font-family="Helvetica,sans-Serif" font-size="10.00">set_m_x()</text>
<text xml:space="preserve" text-anchor="start" x="28.25" y="-310.5" font-family="Helvetica,sans-Serif" font-size="10.00">+</text>
<text xml:space="preserve" text-anchor="start" x="38.25" y="-310.5" font-family="Helvetica,sans-Serif" font-size="10.00">set_m_y()</text>
<text xml:space="preserve" text-anchor="start" x="38.25" y="-294.5" font-family="Helvetica,sans-Serif" font-size="10.00">and 6 more...</text>
<polygon fill="#666666" stroke="#666666" points="24.25,-562 24.25,-562 113.5,-562 113.5,-562 24.25,-562"/>
<polygon fill="#666666" stroke="#666666" points="24.25,-466 24.25,-466 36.25,-466 36.25,-466 24.25,-466"/>
<polygon fill="#666666" stroke="#666666" points="36.25,-466 36.25,-466 113.5,-466 113.5,-466 36.25,-466"/>
<polygon fill="none" stroke="#666666" points="24.25,-288 24.25,-580 113.5,-580 113.5,-288 24.25,-288"/>
</a>
</g>
</g>
<!-- Node2&#45;&gt;Node1 -->
<g id="edge1_Node000001_Node000002" class="edge">
<title>Node2&#45;&gt;Node1</title>
<g id="a_edge1_Node000001_Node000002"><a xlink:title=" ">
<path fill="none" stroke="#63b8ff" d="M68.88,-276.61C68.88,-268.22 68.88,-259.83 68.88,-251.56"/>
<polygon fill="none" stroke="#63b8ff" points="65.38,-276.55 68.88,-286.55 72.38,-276.55 65.38,-276.55"/>
</a>
</g>
</g>
<!-- Node3 -->
<g id="Node000003" class="node">
<title>Node3</title>
<g id="a_Node000003"><a xlink:href="class_tiny_engine_renderable_i.html" target="_top" xlink:title=" ">
<polygon fill="white" stroke="none" points="134.5,-716 3.25,-716 3.25,-616 134.5,-616 134.5,-716"/>
<text xml:space="preserve" text-anchor="start" x="18.25" y="-702.5" font-family="Helvetica,sans-Serif" font-size="10.00">TinyEngineRenderableI</text>
<text xml:space="preserve" text-anchor="start" x="67.38" y="-686.5" font-family="Helvetica,sans-Serif" font-size="10.00"> </text>
<text xml:space="preserve" text-anchor="start" x="7.25" y="-670.5" font-family="Helvetica,sans-Serif" font-size="10.00">+</text>
<text xml:space="preserve" text-anchor="start" x="17.25" y="-670.5" font-family="Helvetica,sans-Serif" font-size="10.00">TinyEngineRenderableI()</text>
<text xml:space="preserve" text-anchor="start" x="7.25" y="-654.5" font-family="Helvetica,sans-Serif" font-size="10.00">+</text>
<text xml:space="preserve" text-anchor="start" x="17.25" y="-654.5" font-family="Helvetica,sans-Serif" font-size="10.00">~TinyEngineRenderableI()</text>
<text xml:space="preserve" text-anchor="start" x="7.25" y="-638.5" font-family="Helvetica,sans-Serif" font-size="10.00">+</text>
<text xml:space="preserve" text-anchor="start" x="17.25" y="-638.5" font-family="Helvetica,sans-Serif" font-size="10.00">render()</text>
<text xml:space="preserve" text-anchor="start" x="7.25" y="-622.5" font-family="Helvetica,sans-Serif" font-size="10.00">+</text>
<text xml:space="preserve" text-anchor="start" x="17.25" y="-622.5" font-family="Helvetica,sans-Serif" font-size="10.00">update()</text>
<polygon fill="#666666" stroke="#666666" points="3.25,-698 3.25,-698 134.5,-698 134.5,-698 3.25,-698"/>
<polygon fill="#666666" stroke="#666666" points="3.25,-682 3.25,-682 134.5,-682 134.5,-682 3.25,-682"/>
<polygon fill="none" stroke="#666666" points="3.25,-616 3.25,-716 134.5,-716 134.5,-616 3.25,-616"/>
</a>
</g>
</g>
<!-- Node3&#45;&gt;Node2 -->
<g id="edge2_Node000002_Node000003" class="edge">
<title>Node3&#45;&gt;Node2</title>
<g id="a_edge2_Node000002_Node000003"><a xlink:title=" ">
<path fill="none" stroke="#63b8ff" d="M68.88,-604.94C68.88,-597 68.88,-588.61 68.88,-579.97"/>
<polygon fill="none" stroke="#63b8ff" points="65.38,-604.71 68.88,-614.71 72.38,-604.71 65.38,-604.71"/>
</a>
</g>
</g>
</g>
</svg>

<g id="navigator" transform="translate(0 0)" fill="#404254">
  <rect fill="#f2f5e9" fill-opacity="0.5" stroke="#606060" stroke-width=".5" x="0" y="0" width="60" height="60"/>
  <use id="zoomplus" xlink:href="#zoomPlus" x="17" y="9" onmousedown="handleZoom(evt,'in')"/>
  <use id="zoomminus" xlink:href="#zoomMin" x="42" y="9" onmousedown="handleZoom(evt,'out')"/>
  <use id="reset" xlink:href="#resetDef" x="30" y="36" onmousedown="handleReset()"/>
   <use id="arrowup" xlink:href="#arrowUp" x="0" y="0" onmousedown="handlePan(0,-1)"/>
  <use id="arrowright" xlink:href="#arrowRight" x="0" y="0" onmousedown="handlePan(1,0)"/>
  <use id="arrowdown" xlink:href="#arrowDown" x="0" y="0" onmousedown="handlePan(0,1)"/>
  <use id="arrowleft" xlink:href="#arrowLeft" x="0" y="0" onmousedown="handlePan(-1,0)"/>
</g>
<svg viewBox="0 0 15 15" width="100%" height="30px" preserveAspectRatio="xMaxYMin meet">
 <g id="arrow_out" transform="scale(0.3 0.3)">
  <a xlink:href="class_tiny_engine_u_i_blinking_text_box__inherit__graph_org.svg" target="_base">
   <rect id="button" ry="5" rx="5" y="6" x="6" height="38" width="38"
        fill="#f2f5e9" fill-opacity="0.5" stroke="#606060" stroke-width="1.0"/>
   <path id="arrow"
     d="M 11.500037,31.436501 C 11.940474,20.09759 22.043105,11.32322 32.158766,21.979434 L 37.068811,17.246167 C 37.068811,17.246167 37.088388,32 37.088388,32 L 22.160133,31.978069 C 22.160133,31.978069 26.997745,27.140456 26.997745,27.140456 C 18.528582,18.264221 13.291696,25.230495 11.500037,31.436501 z"
     style="fill:#404040;"/>
  </a>
 </g>
</svg>

<style type='text/css'>
<![CDATA[
[data-mouse-over-selected='false'] { opacity: 0.7; }
[data-mouse-over-selected='true']  { opacity: 1.0; }
]]>
</style>
<script type="application/ecmascript"><![CDATA[
document.addEventListener('DOMContentLoaded', (event) => {
  highlightEdges();
  highlightAdjacentNodes();
});
]]></script>
</svg>
