<?xml version="1.0" encoding="UTF-8" standalone="no"?>
<!DOCTYPE svg PUBLIC "-//W3C//DTD SVG 1.1//EN"
 "http://www.w3.org/Graphics/SVG/1.1/DTD/svg11.dtd">
<!-- Generated by graphviz version 13.1.2 (20250808.2320)
 -->
<!-- Title: GameScene Pages: 1 -->
<svg width="435pt" height="604pt"
 viewBox="0.00 0.00 435.00 604.00" xmlns="http://www.w3.org/2000/svg" xmlns:xlink="http://www.w3.org/1999/xlink">
<g id="graph0" class="graph" transform="scale(1 1) rotate(0) translate(4 600)">
<title>GameScene</title>
<!-- Node1 -->
<g id="Node000001" class="node">
<title>Node1</title>
<g id="a_Node000001"><a xlink:title=" ">
<polygon fill="#999999" stroke="none" points="237.38,-132 153.38,-132 153.38,0 237.38,0 237.38,-132"/>
<text xml:space="preserve" text-anchor="start" x="168.38" y="-118.5" font-family="Helvetica,sans-Serif" font-size="10.00">GameScene</text>
<text xml:space="preserve" text-anchor="start" x="157.75" y="-102.5" font-family="Helvetica,sans-Serif" font-size="10.00">#</text>
<text xml:space="preserve" text-anchor="start" x="167.38" y="-102.5" font-family="Helvetica,sans-Serif" font-size="10.00">sprites</text>
<text xml:space="preserve" text-anchor="start" x="157.38" y="-86.5" font-family="Helvetica,sans-Serif" font-size="10.00">+</text>
<text xml:space="preserve" text-anchor="start" x="167.38" y="-86.5" font-family="Helvetica,sans-Serif" font-size="10.00">GameScene()</text>
<text xml:space="preserve" text-anchor="start" x="157.38" y="-70.5" font-family="Helvetica,sans-Serif" font-size="10.00">+</text>
<text xml:space="preserve" text-anchor="start" x="167.38" y="-70.5" font-family="Helvetica,sans-Serif" font-size="10.00">~GameScene()</text>
<text xml:space="preserve" text-anchor="start" x="157.38" y="-54.5" font-family="Helvetica,sans-Serif" font-size="10.00">+</text>
<text xml:space="preserve" text-anchor="start" x="167.38" y="-54.5" font-family="Helvetica,sans-Serif" font-size="10.00">create()</text>
<text xml:space="preserve" text-anchor="start" x="157.38" y="-38.5" font-family="Helvetica,sans-Serif" font-size="10.00">+</text>
<text xml:space="preserve" text-anchor="start" x="167.38" y="-38.5" font-family="Helvetica,sans-Serif" font-size="10.00">render()</text>
<text xml:space="preserve" text-anchor="start" x="157.38" y="-22.5" font-family="Helvetica,sans-Serif" font-size="10.00">+</text>
<text xml:space="preserve" text-anchor="start" x="167.38" y="-22.5" font-family="Helvetica,sans-Serif" font-size="10.00">update()</text>
<text xml:space="preserve" text-anchor="start" x="157.38" y="-6.5" font-family="Helvetica,sans-Serif" font-size="10.00">+</text>
<text xml:space="preserve" text-anchor="start" x="167.38" y="-6.5" font-family="Helvetica,sans-Serif" font-size="10.00">destroy()</text>
<polygon fill="#666666" stroke="#666666" points="153.38,-114 153.38,-114 237.38,-114 237.38,-114 153.38,-114"/>
<polygon fill="#666666" stroke="#666666" points="153.38,-98 153.38,-98 165.38,-98 165.38,-98 153.38,-98"/>
<polygon fill="#666666" stroke="#666666" points="165.38,-98 165.38,-98 237.38,-98 237.38,-98 165.38,-98"/>
<polygon fill="none" stroke="#666666" points="153.38,0 153.38,-132 237.38,-132 237.38,0 153.38,0"/>
</a>
</g>
</g>
<!-- Node2 -->
<g id="Node000002" class="node">
<title>Node2</title>
<g id="a_Node000002"><a xlink:href="class_scene_i.html" target="_top" xlink:title=" ">
<polygon fill="white" stroke="none" points="60.75,-366 0,-366 0,-250 60.75,-250 60.75,-366"/>
<text xml:space="preserve" text-anchor="start" x="15" y="-352.5" font-family="Helvetica,sans-Serif" font-size="10.00">SceneI</text>
<text xml:space="preserve" text-anchor="start" x="28.88" y="-336.5" font-family="Helvetica,sans-Serif" font-size="10.00"> </text>
<text xml:space="preserve" text-anchor="start" x="4" y="-320.5" font-family="Helvetica,sans-Serif" font-size="10.00">+</text>
<text xml:space="preserve" text-anchor="start" x="14" y="-320.5" font-family="Helvetica,sans-Serif" font-size="10.00">~SceneI()</text>
<text xml:space="preserve" text-anchor="start" x="4" y="-304.5" font-family="Helvetica,sans-Serif" font-size="10.00">+</text>
<text xml:space="preserve" text-anchor="start" x="14" y="-304.5" font-family="Helvetica,sans-Serif" font-size="10.00">create()</text>
<text xml:space="preserve" text-anchor="start" x="4" y="-288.5" font-family="Helvetica,sans-Serif" font-size="10.00">+</text>
<text xml:space="preserve" text-anchor="start" x="14" y="-288.5" font-family="Helvetica,sans-Serif" font-size="10.00">render()</text>
<text xml:space="preserve" text-anchor="start" x="4" y="-272.5" font-family="Helvetica,sans-Serif" font-size="10.00">+</text>
<text xml:space="preserve" text-anchor="start" x="14" y="-272.5" font-family="Helvetica,sans-Serif" font-size="10.00">update()</text>
<text xml:space="preserve" text-anchor="start" x="4" y="-256.5" font-family="Helvetica,sans-Serif" font-size="10.00">+</text>
<text xml:space="preserve" text-anchor="start" x="14" y="-256.5" font-family="Helvetica,sans-Serif" font-size="10.00">destroy()</text>
<polygon fill="#666666" stroke="#666666" points="0,-348 0,-348 60.75,-348 60.75,-348 0,-348"/>
<polygon fill="#666666" stroke="#666666" points="0,-332 0,-332 60.75,-332 60.75,-332 0,-332"/>
<polygon fill="none" stroke="#666666" points="0,-250 0,-366 60.75,-366 60.75,-250 0,-250"/>
</a>
</g>
</g>
<!-- Node2&#45;&gt;Node1 -->
<g id="edge1_Node000001_Node000002" class="edge">
<title>Node2&#45;&gt;Node1</title>
<g id="a_edge1_Node000001_Node000002"><a xlink:title=" ">
<path fill="none" stroke="#63b8ff" d="M45.62,-239.36C51.43,-221.21 59.18,-202.15 69.38,-186 91.45,-151.01 126.16,-119.28 153.57,-97.4"/>
<polygon fill="none" stroke="#63b8ff" points="42.32,-238.18 42.78,-248.77 49.02,-240.21 42.32,-238.18"/>
</a>
</g>
</g>
<!-- Node3 -->
<g id="Node000003" class="node">
<title>Node3</title>
<g id="a_Node000003"><a xlink:href="class_tiny_engine_frame_buffer.html" target="_top" xlink:title=" ">
<polygon fill="white" stroke="none" points="210.38,-430 78.38,-430 78.38,-186 210.38,-186 210.38,-430"/>
<text xml:space="preserve" text-anchor="start" x="93.38" y="-416.5" font-family="Helvetica,sans-Serif" font-size="10.00">TinyEngineFrameBuffer</text>
<text xml:space="preserve" text-anchor="start" x="82.38" y="-400.5" font-family="Helvetica,sans-Serif" font-size="10.00">+</text>
<text xml:space="preserve" text-anchor="start" x="92.38" y="-400.5" font-family="Helvetica,sans-Serif" font-size="10.00">pixel_buffer_back</text>
<text xml:space="preserve" text-anchor="start" x="82.38" y="-384.5" font-family="Helvetica,sans-Serif" font-size="10.00">+</text>
<text xml:space="preserve" text-anchor="start" x="92.38" y="-384.5" font-family="Helvetica,sans-Serif" font-size="10.00">pixel_buffer_display</text>
<text xml:space="preserve" text-anchor="start" x="82.38" y="-368.5" font-family="Helvetica,sans-Serif" font-size="10.00">+</text>
<text xml:space="preserve" text-anchor="start" x="92.38" y="-368.5" font-family="Helvetica,sans-Serif" font-size="10.00">m_pixel_buffer_size</text>
<text xml:space="preserve" text-anchor="start" x="82.38" y="-352.5" font-family="Helvetica,sans-Serif" font-size="10.00">+</text>
<text xml:space="preserve" text-anchor="start" x="92.38" y="-352.5" font-family="Helvetica,sans-Serif" font-size="10.00">is_dual()</text>
<text xml:space="preserve" text-anchor="start" x="82.38" y="-336.5" font-family="Helvetica,sans-Serif" font-size="10.00">+</text>
<text xml:space="preserve" text-anchor="start" x="92.38" y="-336.5" font-family="Helvetica,sans-Serif" font-size="10.00">drawCircle1()</text>
<text xml:space="preserve" text-anchor="start" x="82.38" y="-320.5" font-family="Helvetica,sans-Serif" font-size="10.00">+</text>
<text xml:space="preserve" text-anchor="start" x="92.38" y="-320.5" font-family="Helvetica,sans-Serif" font-size="10.00">TinyEngineFrameBuffer()</text>
<text xml:space="preserve" text-anchor="start" x="82.38" y="-304.5" font-family="Helvetica,sans-Serif" font-size="10.00">+</text>
<text xml:space="preserve" text-anchor="start" x="92.38" y="-304.5" font-family="Helvetica,sans-Serif" font-size="10.00">~TinyEngineFrameBuffer()</text>
<text xml:space="preserve" text-anchor="start" x="82.38" y="-288.5" font-family="Helvetica,sans-Serif" font-size="10.00">+</text>
<text xml:space="preserve" text-anchor="start" x="92.38" y="-288.5" font-family="Helvetica,sans-Serif" font-size="10.00">destroy()</text>
<text xml:space="preserve" text-anchor="start" x="82.38" y="-272.5" font-family="Helvetica,sans-Serif" font-size="10.00">+</text>
<text xml:space="preserve" text-anchor="start" x="92.38" y="-272.5" font-family="Helvetica,sans-Serif" font-size="10.00">write()</text>
<text xml:space="preserve" text-anchor="start" x="82.38" y="-256.5" font-family="Helvetica,sans-Serif" font-size="10.00">+</text>
<text xml:space="preserve" text-anchor="start" x="92.38" y="-256.5" font-family="Helvetica,sans-Serif" font-size="10.00">clear()</text>
<text xml:space="preserve" text-anchor="start" x="82.38" y="-240.5" font-family="Helvetica,sans-Serif" font-size="10.00">+</text>
<text xml:space="preserve" text-anchor="start" x="92.38" y="-240.5" font-family="Helvetica,sans-Serif" font-size="10.00">clear_with()</text>
<text xml:space="preserve" text-anchor="start" x="82.38" y="-224.5" font-family="Helvetica,sans-Serif" font-size="10.00">+</text>
<text xml:space="preserve" text-anchor="start" x="92.38" y="-224.5" font-family="Helvetica,sans-Serif" font-size="10.00">draw_pixel()</text>
<text xml:space="preserve" text-anchor="start" x="82.38" y="-208.5" font-family="Helvetica,sans-Serif" font-size="10.00">+</text>
<text xml:space="preserve" text-anchor="start" x="92.38" y="-208.5" font-family="Helvetica,sans-Serif" font-size="10.00">draw_grid()</text>
<text xml:space="preserve" text-anchor="start" x="92.38" y="-192.5" font-family="Helvetica,sans-Serif" font-size="10.00">and 11 more...</text>
<polygon fill="#666666" stroke="#666666" points="78.38,-412 78.38,-412 210.38,-412 210.38,-412 78.38,-412"/>
<polygon fill="#666666" stroke="#666666" points="78.38,-364 78.38,-364 90.38,-364 90.38,-364 78.38,-364"/>
<polygon fill="#666666" stroke="#666666" points="90.38,-364 90.38,-364 210.38,-364 210.38,-364 90.38,-364"/>
<polygon fill="none" stroke="#666666" points="78.38,-186 78.38,-430 210.38,-430 210.38,-186 78.38,-186"/>
</a>
</g>
</g>
<!-- Node3&#45;&gt;Node1 -->
<g id="edge2_Node000001_Node000003" class="edge">
<title>Node3&#45;&gt;Node1</title>
<g id="a_edge2_Node000001_Node000003"><a xlink:title=" ">
<path fill="none" stroke="#63b8ff" d="M151.53,-186.31C153.45,-173.95 155.86,-161.66 158.88,-150 159.36,-148.14 159.87,-146.27 160.42,-144.4"/>
<polygon fill="none" stroke="#63b8ff" points="160.47,-144.26 158.53,-137.32 164.19,-132.85 166.13,-139.8 160.47,-144.26"/>
</a>
</g>
<text xml:space="preserve" text-anchor="start" x="161.88" y="-155.5" font-family="Helvetica,sans-Serif" font-size="10.00" fill="grey">#m_framebuffer</text>
</g>
<!-- Node4 -->
<g id="Node000004" class="node">
<title>Node4</title>
<g id="a_Node000004"><a xlink:href="class_tiny_engine_renderer_i.html" target="_top" xlink:title=" ">
<polygon fill="white" stroke="none" points="317.12,-596 207.62,-596 207.62,-484 317.12,-484 317.12,-596"/>
<text xml:space="preserve" text-anchor="start" x="216.62" y="-582.5" font-family="Helvetica,sans-Serif" font-size="10.00">TinyEngineRendererI</text>
<text xml:space="preserve" text-anchor="start" x="260.88" y="-566.5" font-family="Helvetica,sans-Serif" font-size="10.00"> </text>
<text xml:space="preserve" text-anchor="start" x="211.62" y="-550.5" font-family="Helvetica,sans-Serif" font-size="10.00">+</text>
<text xml:space="preserve" text-anchor="start" x="221.62" y="-550.5" font-family="Helvetica,sans-Serif" font-size="10.00">swap_blocking()</text>
<text xml:space="preserve" text-anchor="start" x="211.62" y="-534.5" font-family="Helvetica,sans-Serif" font-size="10.00">+</text>
<text xml:space="preserve" text-anchor="start" x="221.62" y="-534.5" font-family="Helvetica,sans-Serif" font-size="10.00">swap_non_blocking()</text>
<text xml:space="preserve" text-anchor="start" x="211.62" y="-518.5" font-family="Helvetica,sans-Serif" font-size="10.00">+</text>
<text xml:space="preserve" text-anchor="start" x="221.62" y="-518.5" font-family="Helvetica,sans-Serif" font-size="10.00">wait_for_vsync()</text>
<text xml:space="preserve" text-anchor="start" x="211.62" y="-502.5" font-family="Helvetica,sans-Serif" font-size="10.00">+</text>
<text xml:space="preserve" text-anchor="start" x="221.62" y="-502.5" font-family="Helvetica,sans-Serif" font-size="10.00">tinyengine_renderer</text>
<text xml:space="preserve" text-anchor="start" x="221.62" y="-490.5" font-family="Helvetica,sans-Serif" font-size="10.00">_init()</text>
<polygon fill="#666666" stroke="#666666" points="207.62,-578 207.62,-578 317.12,-578 317.12,-578 207.62,-578"/>
<polygon fill="#666666" stroke="#666666" points="207.62,-562 207.62,-562 317.12,-562 317.12,-562 207.62,-562"/>
<polygon fill="none" stroke="#666666" points="207.62,-484 207.62,-596 317.12,-596 317.12,-484 207.62,-484"/>
</a>
</g>
</g>
<!-- Node4&#45;&gt;Node1 -->
<g id="edge3_Node000001_Node000004" class="edge">
<title>Node4&#45;&gt;Node1</title>
<g id="a_edge3_Node000001_Node000004"><a xlink:title=" ">
<path fill="none" stroke="#63b8ff" d="M258.63,-484C251.52,-380.55 236.4,-165.9 232.38,-150 231.88,-148.04 231.34,-146.07 230.76,-144.1"/>
<polygon fill="none" stroke="#63b8ff" points="230.8,-144.22 225.14,-139.75 227.08,-132.81 232.75,-137.27 230.8,-144.22"/>
</a>
</g>
<text xml:space="preserve" text-anchor="start" x="257.59" y="-304.5" font-family="Helvetica,sans-Serif" font-size="10.00" fill="grey">#m_renderer</text>
</g>
<!-- Node5 -->
<g id="Node000005" class="node">
<title>Node5</title>
<g id="a_Node000005"><a xlink:href="class_tiny_engine.html" target="_top" xlink:title=" ">
<polygon fill="white" stroke="none" points="426.75,-414 324,-414 324,-202 426.75,-202 426.75,-414"/>
<text xml:space="preserve" text-anchor="start" x="351" y="-400.5" font-family="Helvetica,sans-Serif" font-size="10.00">TinyEngine</text>
<text xml:space="preserve" text-anchor="start" x="373.88" y="-384.5" font-family="Helvetica,sans-Serif" font-size="10.00"> </text>
<text xml:space="preserve" text-anchor="start" x="328" y="-368.5" font-family="Helvetica,sans-Serif" font-size="10.00">+</text>
<text xml:space="preserve" text-anchor="start" x="338" y="-368.5" font-family="Helvetica,sans-Serif" font-size="10.00">TinyEngine()</text>
<text xml:space="preserve" text-anchor="start" x="328" y="-352.5" font-family="Helvetica,sans-Serif" font-size="10.00">+</text>
<text xml:space="preserve" text-anchor="start" x="338" y="-352.5" font-family="Helvetica,sans-Serif" font-size="10.00">get_fps()</text>
<text xml:space="preserve" text-anchor="start" x="328" y="-336.5" font-family="Helvetica,sans-Serif" font-size="10.00">+</text>
<text xml:space="preserve" text-anchor="start" x="338" y="-336.5" font-family="Helvetica,sans-Serif" font-size="10.00">set_pre_inti_clbk()</text>
<text xml:space="preserve" text-anchor="start" x="328" y="-320.5" font-family="Helvetica,sans-Serif" font-size="10.00">+</text>
<text xml:space="preserve" text-anchor="start" x="338" y="-320.5" font-family="Helvetica,sans-Serif" font-size="10.00">set_post_init_clbk()</text>
<text xml:space="preserve" text-anchor="start" x="328" y="-304.5" font-family="Helvetica,sans-Serif" font-size="10.00">+</text>
<text xml:space="preserve" text-anchor="start" x="338" y="-304.5" font-family="Helvetica,sans-Serif" font-size="10.00">set_loop_clbk()</text>
<text xml:space="preserve" text-anchor="start" x="328" y="-288.5" font-family="Helvetica,sans-Serif" font-size="10.00">+</text>
<text xml:space="preserve" text-anchor="start" x="338" y="-288.5" font-family="Helvetica,sans-Serif" font-size="10.00">set_render_clbk()</text>
<text xml:space="preserve" text-anchor="start" x="328" y="-272.5" font-family="Helvetica,sans-Serif" font-size="10.00">+</text>
<text xml:space="preserve" text-anchor="start" x="338" y="-272.5" font-family="Helvetica,sans-Serif" font-size="10.00">set_update_clbk()</text>
<text xml:space="preserve" text-anchor="start" x="328" y="-256.5" font-family="Helvetica,sans-Serif" font-size="10.00">+</text>
<text xml:space="preserve" text-anchor="start" x="338" y="-256.5" font-family="Helvetica,sans-Serif" font-size="10.00">init()</text>
<text xml:space="preserve" text-anchor="start" x="328" y="-240.5" font-family="Helvetica,sans-Serif" font-size="10.00">+</text>
<text xml:space="preserve" text-anchor="start" x="338" y="-240.5" font-family="Helvetica,sans-Serif" font-size="10.00">start()</text>
<text xml:space="preserve" text-anchor="start" x="328" y="-224.5" font-family="Helvetica,sans-Serif" font-size="10.00">+</text>
<text xml:space="preserve" text-anchor="start" x="338" y="-224.5" font-family="Helvetica,sans-Serif" font-size="10.00">start_loop()</text>
<text xml:space="preserve" text-anchor="start" x="338" y="-208.5" font-family="Helvetica,sans-Serif" font-size="10.00">and 8 more...</text>
<polygon fill="#666666" stroke="#666666" points="324,-396 324,-396 426.75,-396 426.75,-396 324,-396"/>
<polygon fill="#666666" stroke="#666666" points="324,-380 324,-380 426.75,-380 426.75,-380 324,-380"/>
<polygon fill="none" stroke="#666666" points="324,-202 324,-414 426.75,-414 426.75,-202 324,-202"/>
</a>
</g>
</g>
<!-- Node4&#45;&gt;Node5 -->
<g id="edge5_Node000005_Node000004" class="edge">
<title>Node4&#45;&gt;Node5</title>
<g id="a_edge5_Node000005_Node000004"><a xlink:title=" ">
<path fill="none" stroke="#63b8ff" d="M289.3,-484.2C298.11,-466.26 308.26,-445.61 318.43,-424.91"/>
<polygon fill="none" stroke="#63b8ff" points="318.38,-425 317.44,-417.85 323.67,-414.23 324.62,-421.38 318.38,-425"/>
</a>
</g>
<text xml:space="preserve" text-anchor="start" x="308.43" y="-453.5" font-family="Helvetica,sans-Serif" font-size="10.00" fill="grey">+renderer</text>
</g>
<!-- Node5&#45;&gt;Node1 -->
<g id="edge4_Node000001_Node000005" class="edge">
<title>Node5&#45;&gt;Node1</title>
<g id="a_edge4_Node000001_Node000005"><a xlink:title=" ">
<path fill="none" stroke="#63b8ff" d="M324.1,-206.3C319.68,-199.29 315.09,-192.45 310.38,-186 291.63,-160.33 267.61,-134.62 246.38,-113.7"/>
<polygon fill="none" stroke="#63b8ff" points="246.41,-113.74 239.32,-112.43 237.81,-105.38 244.9,-106.69 246.41,-113.74"/>
</a>
</g>
<text xml:space="preserve" text-anchor="start" x="296.71" y="-155.5" font-family="Helvetica,sans-Serif" font-size="10.00" fill="grey">#m_engine</text>
</g>
</g>
</svg>
