<?xml version="1.0" encoding="UTF-8" standalone="no"?>
<!DOCTYPE svg PUBLIC "-//W3C//DTD SVG 1.1//EN"
 "http://www.w3.org/Graphics/SVG/1.1/DTD/svg11.dtd">
<!-- Generated by graphviz version 13.1.2 (20250808.2320)
 -->
<!-- Title: TinyEngineRenderableI Pages: 1 -->
<!--zoomable 724 -->

<svg id="main" version="1.1" xmlns="http://www.w3.org/2000/svg" xmlns:xlink="http://www.w3.org/1999/xlink" xml:space="preserve" onload="init(evt)">

<style type="text/css"><![CDATA[
.node, .edge {opacity: 0.7;}
.node.selected, .edge.selected {opacity: 1;}
.edge:hover path { stroke: red; }
.edge:hover polygon { stroke: red; fill: red; }
]]></style>

<defs>
  <circle id="rim" cx="0" cy="0" r="7"/>
  <circle id="rim2" cx="0" cy="0" r="3.5"/>
  <g id="zoomPlus">
    <use xlink:href="#rim" fill="#404040"><set attributeName="fill" to="#808080" begin="zoomplus.mouseover" end="zoomplus.mouseout"/></use>
    <path d="M-4,0h8M0,-4v8" fill="none" stroke="white" stroke-width="1.5" pointer-events="none"/>
  </g>
  <g id="zoomMin">
    <use xlink:href="#rim" fill="#404040"><set attributeName="fill" to="#808080" begin="zoomminus.mouseover" end="zoomminus.mouseout"/></use>
    <path d="M-4,0h8" fill="none" stroke="white" stroke-width="1.5" pointer-events="none"/>
  </g>
  <g id="arrowUp" transform="translate(30 24)">
    <use xlink:href="#rim"/>
    <path pointer-events="none" fill="none" stroke="white" stroke-width="1.5" d="M0,-3.0v7 M-2.5,-0.5L0,-3.0L2.5,-0.5"/>
  </g>
  <g id="arrowRight" transform="rotate(90) translate(36 -43)">
    <use xlink:href="#rim"/>
    <path pointer-events="none" fill="none" stroke="white" stroke-width="1.5" d="M0,-3.0v7 M-2.5,-0.5L0,-3.0L2.5,-0.5"/>
  </g>
  <g id="arrowDown" transform="rotate(180) translate(-30 -48)">
    <use xlink:href="#rim"/>
    <path pointer-events="none" fill="none" stroke="white" stroke-width="1.5" d="M0,-3.0v7 M-2.5,-0.5L0,-3.0L2.5,-0.5"/>
  </g>
  <g id="arrowLeft" transform="rotate(270) translate(-36 17)">
    <use xlink:href="#rim"/>
    <path pointer-events="none" fill="none" stroke="white" stroke-width="1.5" d="M0,-3.0v7 M-2.5,-0.5L0,-3.0L2.5,-0.5"/>
  </g>
  <g id="resetDef">
    <use xlink:href="#rim2" fill="#404040"><set attributeName="fill" to="#808080" begin="reset.mouseover" end="reset.mouseout"/></use>
  </g>
</defs>
<script type="application/ecmascript">
var viewWidth = 416;
var viewHeight = 724;
var sectionId = 'dynsection-0';
</script>
<script type="application/ecmascript" xlink:href="svg.min.js"/>
<svg id="graph" class="graph">
<g id="viewport">
<title>TinyEngineRenderableI</title>
<!-- Node1 -->
<g id="Node000001" class="node">
<title>Node1</title>
<g id="a_Node000001"><a xlink:title=" ">
<polygon fill="#999999" stroke="none" points="275.5,-716 144.25,-716 144.25,-616 275.5,-616 275.5,-716"/>
<text xml:space="preserve" text-anchor="start" x="159.25" y="-702.5" font-family="Helvetica,sans-Serif" font-size="10.00">TinyEngineRenderableI</text>
<text xml:space="preserve" text-anchor="start" x="208.38" y="-686.5" font-family="Helvetica,sans-Serif" font-size="10.00"> </text>
<text xml:space="preserve" text-anchor="start" x="148.25" y="-670.5" font-family="Helvetica,sans-Serif" font-size="10.00">+</text>
<text xml:space="preserve" text-anchor="start" x="158.25" y="-670.5" font-family="Helvetica,sans-Serif" font-size="10.00">TinyEngineRenderableI()</text>
<text xml:space="preserve" text-anchor="start" x="148.25" y="-654.5" font-family="Helvetica,sans-Serif" font-size="10.00">+</text>
<text xml:space="preserve" text-anchor="start" x="158.25" y="-654.5" font-family="Helvetica,sans-Serif" font-size="10.00">~TinyEngineRenderableI()</text>
<text xml:space="preserve" text-anchor="start" x="148.25" y="-638.5" font-family="Helvetica,sans-Serif" font-size="10.00">+</text>
<text xml:space="preserve" text-anchor="start" x="158.25" y="-638.5" font-family="Helvetica,sans-Serif" font-size="10.00">render()</text>
<text xml:space="preserve" text-anchor="start" x="148.25" y="-622.5" font-family="Helvetica,sans-Serif" font-size="10.00">+</text>
<text xml:space="preserve" text-anchor="start" x="158.25" y="-622.5" font-family="Helvetica,sans-Serif" font-size="10.00">update()</text>
<polygon fill="#666666" stroke="#666666" points="144.25,-698 144.25,-698 275.5,-698 275.5,-698 144.25,-698"/>
<polygon fill="#666666" stroke="#666666" points="144.25,-682 144.25,-682 275.5,-682 275.5,-682 144.25,-682"/>
<polygon fill="none" stroke="#666666" points="144.25,-616 144.25,-716 275.5,-716 275.5,-616 144.25,-616"/>
</a>
</g>
</g>
<!-- Node2 -->
<g id="Node000002" class="node">
<title>Node2</title>
<g id="a_Node000002"><a xlink:href="class_tiny_engine_u_i.html" target="_top" xlink:title=" ">
<polygon fill="white" stroke="none" points="254.5,-580 165.25,-580 165.25,-288 254.5,-288 254.5,-580"/>
<text xml:space="preserve" text-anchor="start" x="180.25" y="-566.5" font-family="Helvetica,sans-Serif" font-size="10.00">TinyEngineUI</text>
<text xml:space="preserve" text-anchor="start" x="169.62" y="-550.5" font-family="Helvetica,sans-Serif" font-size="10.00">#</text>
<text xml:space="preserve" text-anchor="start" x="179.25" y="-550.5" font-family="Helvetica,sans-Serif" font-size="10.00">m_x</text>
<text xml:space="preserve" text-anchor="start" x="169.62" y="-534.5" font-family="Helvetica,sans-Serif" font-size="10.00">#</text>
<text xml:space="preserve" text-anchor="start" x="179.25" y="-534.5" font-family="Helvetica,sans-Serif" font-size="10.00">m_y</text>
<text xml:space="preserve" text-anchor="start" x="169.62" y="-518.5" font-family="Helvetica,sans-Serif" font-size="10.00">#</text>
<text xml:space="preserve" text-anchor="start" x="179.25" y="-518.5" font-family="Helvetica,sans-Serif" font-size="10.00">m_x_half</text>
<text xml:space="preserve" text-anchor="start" x="169.62" y="-502.5" font-family="Helvetica,sans-Serif" font-size="10.00">#</text>
<text xml:space="preserve" text-anchor="start" x="179.25" y="-502.5" font-family="Helvetica,sans-Serif" font-size="10.00">m_y_half</text>
<text xml:space="preserve" text-anchor="start" x="169.62" y="-486.5" font-family="Helvetica,sans-Serif" font-size="10.00">#</text>
<text xml:space="preserve" text-anchor="start" x="179.25" y="-486.5" font-family="Helvetica,sans-Serif" font-size="10.00">m_width</text>
<text xml:space="preserve" text-anchor="start" x="169.62" y="-470.5" font-family="Helvetica,sans-Serif" font-size="10.00">#</text>
<text xml:space="preserve" text-anchor="start" x="179.25" y="-470.5" font-family="Helvetica,sans-Serif" font-size="10.00">m_height</text>
<text xml:space="preserve" text-anchor="start" x="169.25" y="-454.5" font-family="Helvetica,sans-Serif" font-size="10.00">+</text>
<text xml:space="preserve" text-anchor="start" x="179.25" y="-454.5" font-family="Helvetica,sans-Serif" font-size="10.00">TinyEngineUI()</text>
<text xml:space="preserve" text-anchor="start" x="169.25" y="-438.5" font-family="Helvetica,sans-Serif" font-size="10.00">+</text>
<text xml:space="preserve" text-anchor="start" x="179.25" y="-438.5" font-family="Helvetica,sans-Serif" font-size="10.00">render()</text>
<text xml:space="preserve" text-anchor="start" x="169.25" y="-422.5" font-family="Helvetica,sans-Serif" font-size="10.00">+</text>
<text xml:space="preserve" text-anchor="start" x="179.25" y="-422.5" font-family="Helvetica,sans-Serif" font-size="10.00">update()</text>
<text xml:space="preserve" text-anchor="start" x="169.25" y="-406.5" font-family="Helvetica,sans-Serif" font-size="10.00">+</text>
<text xml:space="preserve" text-anchor="start" x="179.25" y="-406.5" font-family="Helvetica,sans-Serif" font-size="10.00">~TinyEngineUI()</text>
<text xml:space="preserve" text-anchor="start" x="169.25" y="-390.5" font-family="Helvetica,sans-Serif" font-size="10.00">+</text>
<text xml:space="preserve" text-anchor="start" x="179.25" y="-390.5" font-family="Helvetica,sans-Serif" font-size="10.00">get_m_x()</text>
<text xml:space="preserve" text-anchor="start" x="169.25" y="-374.5" font-family="Helvetica,sans-Serif" font-size="10.00">+</text>
<text xml:space="preserve" text-anchor="start" x="179.25" y="-374.5" font-family="Helvetica,sans-Serif" font-size="10.00">get_m_y()</text>
<text xml:space="preserve" text-anchor="start" x="169.25" y="-358.5" font-family="Helvetica,sans-Serif" font-size="10.00">+</text>
<text xml:space="preserve" text-anchor="start" x="179.25" y="-358.5" font-family="Helvetica,sans-Serif" font-size="10.00">get_m_x_half()</text>
<text xml:space="preserve" text-anchor="start" x="169.25" y="-342.5" font-family="Helvetica,sans-Serif" font-size="10.00">+</text>
<text xml:space="preserve" text-anchor="start" x="179.25" y="-342.5" font-family="Helvetica,sans-Serif" font-size="10.00">get_m_y_half()</text>
<text xml:space="preserve" text-anchor="start" x="169.25" y="-326.5" font-family="Helvetica,sans-Serif" font-size="10.00">+</text>
<text xml:space="preserve" text-anchor="start" x="179.25" y="-326.5" font-family="Helvetica,sans-Serif" font-size="10.00">set_m_x()</text>
<text xml:space="preserve" text-anchor="start" x="169.25" y="-310.5" font-family="Helvetica,sans-Serif" font-size="10.00">+</text>
<text xml:space="preserve" text-anchor="start" x="179.25" y="-310.5" font-family="Helvetica,sans-Serif" font-size="10.00">set_m_y()</text>
<text xml:space="preserve" text-anchor="start" x="179.25" y="-294.5" font-family="Helvetica,sans-Serif" font-size="10.00">and 6 more...</text>
<polygon fill="#666666" stroke="#666666" points="165.25,-562 165.25,-562 254.5,-562 254.5,-562 165.25,-562"/>
<polygon fill="#666666" stroke="#666666" points="165.25,-466 165.25,-466 177.25,-466 177.25,-466 165.25,-466"/>
<polygon fill="#666666" stroke="#666666" points="177.25,-466 177.25,-466 254.5,-466 254.5,-466 177.25,-466"/>
<polygon fill="none" stroke="#666666" points="165.25,-288 165.25,-580 254.5,-580 254.5,-288 165.25,-288"/>
</a>
</g>
</g>
<!-- Node1&#45;&gt;Node2 -->
<g id="edge1_Node000001_Node000002" class="edge">
<title>Node1&#45;&gt;Node2</title>
<g id="a_edge1_Node000001_Node000002"><a xlink:title=" ">
<path fill="none" stroke="#63b8ff" d="M209.88,-604.94C209.88,-597 209.88,-588.61 209.88,-579.97"/>
<polygon fill="none" stroke="#63b8ff" points="206.38,-604.71 209.88,-614.71 213.38,-604.71 206.38,-604.71"/>
</a>
</g>
</g>
<!-- Node3 -->
<g id="Node000003" class="node">
<title>Node3</title>
<g id="a_Node000003"><a xlink:href="class_tiny_engine_u_i_blinking_text_box.html" target="_top" xlink:title=" ">
<polygon fill="white" stroke="none" points="137.75,-252 0,-252 0,0 137.75,0 137.75,-252"/>
<text xml:space="preserve" text-anchor="start" x="4" y="-238.5" font-family="Helvetica,sans-Serif" font-size="10.00">TinyEngineUIBlinkingTextBox</text>
<text xml:space="preserve" text-anchor="start" x="4.69" y="-222.5" font-family="Helvetica,sans-Serif" font-size="10.00">#</text>
<text xml:space="preserve" text-anchor="start" x="14.62" y="-222.5" font-family="Helvetica,sans-Serif" font-size="10.00">m_bg_color</text>
<text xml:space="preserve" text-anchor="start" x="4.69" y="-206.5" font-family="Helvetica,sans-Serif" font-size="10.00">#</text>
<text xml:space="preserve" text-anchor="start" x="14.62" y="-206.5" font-family="Helvetica,sans-Serif" font-size="10.00">m_fg_color</text>
<text xml:space="preserve" text-anchor="start" x="4.69" y="-190.5" font-family="Helvetica,sans-Serif" font-size="10.00">#</text>
<text xml:space="preserve" text-anchor="start" x="14.62" y="-190.5" font-family="Helvetica,sans-Serif" font-size="10.00">m_text</text>
<text xml:space="preserve" text-anchor="start" x="4.69" y="-174.5" font-family="Helvetica,sans-Serif" font-size="10.00">#</text>
<text xml:space="preserve" text-anchor="start" x="14.62" y="-174.5" font-family="Helvetica,sans-Serif" font-size="10.00">m_blink_delay</text>
<text xml:space="preserve" text-anchor="start" x="4.69" y="-158.5" font-family="Helvetica,sans-Serif" font-size="10.00">#</text>
<text xml:space="preserve" text-anchor="start" x="14.62" y="-158.5" font-family="Helvetica,sans-Serif" font-size="10.00">m_local_time</text>
<text xml:space="preserve" text-anchor="start" x="4.31" y="-142.5" font-family="Helvetica,sans-Serif" font-size="10.00">+</text>
<text xml:space="preserve" text-anchor="start" x="14.62" y="-142.5" font-family="Helvetica,sans-Serif" font-size="10.00">render()</text>
<text xml:space="preserve" text-anchor="start" x="4.31" y="-126.5" font-family="Helvetica,sans-Serif" font-size="10.00">+</text>
<text xml:space="preserve" text-anchor="start" x="14.62" y="-126.5" font-family="Helvetica,sans-Serif" font-size="10.00">update()</text>
<text xml:space="preserve" text-anchor="start" x="4.31" y="-110.5" font-family="Helvetica,sans-Serif" font-size="10.00">+</text>
<text xml:space="preserve" text-anchor="start" x="14.62" y="-110.5" font-family="Helvetica,sans-Serif" font-size="10.00">~TinyEngineUIBlinkingText</text>
<text xml:space="preserve" text-anchor="start" x="14.62" y="-98.5" font-family="Helvetica,sans-Serif" font-size="10.00">Box()</text>
<text xml:space="preserve" text-anchor="start" x="4.31" y="-82.5" font-family="Helvetica,sans-Serif" font-size="10.00">+</text>
<text xml:space="preserve" text-anchor="start" x="14.62" y="-82.5" font-family="Helvetica,sans-Serif" font-size="10.00">TinyEngineUIBlinkingText</text>
<text xml:space="preserve" text-anchor="start" x="14.62" y="-70.5" font-family="Helvetica,sans-Serif" font-size="10.00">Box()</text>
<text xml:space="preserve" text-anchor="start" x="4.31" y="-54.5" font-family="Helvetica,sans-Serif" font-size="10.00">+</text>
<text xml:space="preserve" text-anchor="start" x="14.62" y="-54.5" font-family="Helvetica,sans-Serif" font-size="10.00">get_m_bg_color()</text>
<text xml:space="preserve" text-anchor="start" x="4.31" y="-38.5" font-family="Helvetica,sans-Serif" font-size="10.00">+</text>
<text xml:space="preserve" text-anchor="start" x="14.62" y="-38.5" font-family="Helvetica,sans-Serif" font-size="10.00">get_m_fg_color()</text>
<text xml:space="preserve" text-anchor="start" x="4.31" y="-22.5" font-family="Helvetica,sans-Serif" font-size="10.00">+</text>
<text xml:space="preserve" text-anchor="start" x="14.62" y="-22.5" font-family="Helvetica,sans-Serif" font-size="10.00">get_m_text()</text>
<text xml:space="preserve" text-anchor="start" x="4.31" y="-6.5" font-family="Helvetica,sans-Serif" font-size="10.00">+</text>
<text xml:space="preserve" text-anchor="start" x="14.62" y="-6.5" font-family="Helvetica,sans-Serif" font-size="10.00">get_m_blink_delay()</text>
<polygon fill="#666666" stroke="#666666" points="0,-234 0,-234 137.75,-234 137.75,-234 0,-234"/>
<polygon fill="#666666" stroke="#666666" points="0,-154 0,-154 12.62,-154 12.62,-154 0,-154"/>
<polygon fill="#666666" stroke="#666666" points="12.62,-154 12.62,-154 137.75,-154 137.75,-154 12.62,-154"/>
<polygon fill="none" stroke="#666666" points="0,0 0,-252 137.75,-252 137.75,0 0,0"/>
</a>
</g>
</g>
<!-- Node2&#45;&gt;Node3 -->
<g id="edge2_Node000002_Node000003" class="edge">
<title>Node2&#45;&gt;Node3</title>
<g id="a_edge2_Node000002_Node000003"><a xlink:title=" ">
<path fill="none" stroke="#63b8ff" d="M160.58,-326.02C149.53,-302.05 137.72,-276.41 126.38,-251.79"/>
<polygon fill="none" stroke="#63b8ff" points="157.26,-327.19 164.63,-334.81 163.62,-324.26 157.26,-327.19"/>
</a>
</g>
</g>
<!-- Node4 -->
<g id="Node000004" class="node">
<title>Node4</title>
<g id="a_Node000004"><a xlink:href="class_tiny_engine_u_i_text.html" target="_top" xlink:title=" ">
<polygon fill="white" stroke="none" points="263.88,-216 155.88,-216 155.88,-36 263.88,-36 263.88,-216"/>
<text xml:space="preserve" text-anchor="start" x="170.88" y="-202.5" font-family="Helvetica,sans-Serif" font-size="10.00">TinyEngineUIText</text>
<text xml:space="preserve" text-anchor="start" x="160.25" y="-186.5" font-family="Helvetica,sans-Serif" font-size="10.00">#</text>
<text xml:space="preserve" text-anchor="start" x="169.88" y="-186.5" font-family="Helvetica,sans-Serif" font-size="10.00">m_text</text>
<text xml:space="preserve" text-anchor="start" x="160.25" y="-170.5" font-family="Helvetica,sans-Serif" font-size="10.00">#</text>
<text xml:space="preserve" text-anchor="start" x="169.88" y="-170.5" font-family="Helvetica,sans-Serif" font-size="10.00">m_color</text>
<text xml:space="preserve" text-anchor="start" x="159.88" y="-154.5" font-family="Helvetica,sans-Serif" font-size="10.00">+</text>
<text xml:space="preserve" text-anchor="start" x="169.88" y="-154.5" font-family="Helvetica,sans-Serif" font-size="10.00">render()</text>
<text xml:space="preserve" text-anchor="start" x="159.88" y="-138.5" font-family="Helvetica,sans-Serif" font-size="10.00">+</text>
<text xml:space="preserve" text-anchor="start" x="169.88" y="-138.5" font-family="Helvetica,sans-Serif" font-size="10.00">update()</text>
<text xml:space="preserve" text-anchor="start" x="159.88" y="-122.5" font-family="Helvetica,sans-Serif" font-size="10.00">+</text>
<text xml:space="preserve" text-anchor="start" x="169.88" y="-122.5" font-family="Helvetica,sans-Serif" font-size="10.00">~TinyEngineUIText()</text>
<text xml:space="preserve" text-anchor="start" x="159.88" y="-106.5" font-family="Helvetica,sans-Serif" font-size="10.00">+</text>
<text xml:space="preserve" text-anchor="start" x="169.88" y="-106.5" font-family="Helvetica,sans-Serif" font-size="10.00">TinyEngineUIText()</text>
<text xml:space="preserve" text-anchor="start" x="159.88" y="-90.5" font-family="Helvetica,sans-Serif" font-size="10.00">+</text>
<text xml:space="preserve" text-anchor="start" x="169.88" y="-90.5" font-family="Helvetica,sans-Serif" font-size="10.00">get_text()</text>
<text xml:space="preserve" text-anchor="start" x="159.88" y="-74.5" font-family="Helvetica,sans-Serif" font-size="10.00">+</text>
<text xml:space="preserve" text-anchor="start" x="169.88" y="-74.5" font-family="Helvetica,sans-Serif" font-size="10.00">set_text()</text>
<text xml:space="preserve" text-anchor="start" x="159.88" y="-58.5" font-family="Helvetica,sans-Serif" font-size="10.00">+</text>
<text xml:space="preserve" text-anchor="start" x="169.88" y="-58.5" font-family="Helvetica,sans-Serif" font-size="10.00">get_m_color()</text>
<text xml:space="preserve" text-anchor="start" x="159.88" y="-42.5" font-family="Helvetica,sans-Serif" font-size="10.00">+</text>
<text xml:space="preserve" text-anchor="start" x="169.88" y="-42.5" font-family="Helvetica,sans-Serif" font-size="10.00">set_m_color()</text>
<polygon fill="#666666" stroke="#666666" points="155.88,-198 155.88,-198 263.88,-198 263.88,-198 155.88,-198"/>
<polygon fill="#666666" stroke="#666666" points="155.88,-166 155.88,-166 167.88,-166 167.88,-166 155.88,-166"/>
<polygon fill="#666666" stroke="#666666" points="167.88,-166 167.88,-166 263.88,-166 263.88,-166 167.88,-166"/>
<polygon fill="none" stroke="#666666" points="155.88,-36 155.88,-216 263.88,-216 263.88,-36 155.88,-36"/>
</a>
</g>
</g>
<!-- Node2&#45;&gt;Node4 -->
<g id="edge3_Node000002_Node000004" class="edge">
<title>Node2&#45;&gt;Node4</title>
<g id="a_edge3_Node000002_Node000004"><a xlink:title=" ">
<path fill="none" stroke="#63b8ff" d="M209.88,-276.76C209.88,-255.79 209.88,-234.89 209.88,-215.66"/>
<polygon fill="none" stroke="#63b8ff" points="206.38,-276.55 209.88,-286.55 213.38,-276.55 206.38,-276.55"/>
</a>
</g>
</g>
<!-- Node5 -->
<g id="Node000005" class="node">
<title>Node5</title>
<g id="a_Node000005"><a xlink:href="class_tiny_engine_u_i_text_box.html" target="_top" xlink:title=" ">
<polygon fill="white" stroke="none" points="407.5,-216 282.25,-216 282.25,-36 407.5,-36 407.5,-216"/>
<text xml:space="preserve" text-anchor="start" x="297.25" y="-202.5" font-family="Helvetica,sans-Serif" font-size="10.00">TinyEngineUITextBox</text>
<text xml:space="preserve" text-anchor="start" x="286.62" y="-186.5" font-family="Helvetica,sans-Serif" font-size="10.00">#</text>
<text xml:space="preserve" text-anchor="start" x="296.25" y="-186.5" font-family="Helvetica,sans-Serif" font-size="10.00">m_texts</text>
<text xml:space="preserve" text-anchor="start" x="286.62" y="-170.5" font-family="Helvetica,sans-Serif" font-size="10.00">#</text>
<text xml:space="preserve" text-anchor="start" x="296.25" y="-170.5" font-family="Helvetica,sans-Serif" font-size="10.00">m_outline_color</text>
<text xml:space="preserve" text-anchor="start" x="286.25" y="-154.5" font-family="Helvetica,sans-Serif" font-size="10.00">+</text>
<text xml:space="preserve" text-anchor="start" x="296.25" y="-154.5" font-family="Helvetica,sans-Serif" font-size="10.00">render()</text>
<text xml:space="preserve" text-anchor="start" x="286.25" y="-138.5" font-family="Helvetica,sans-Serif" font-size="10.00">+</text>
<text xml:space="preserve" text-anchor="start" x="296.25" y="-138.5" font-family="Helvetica,sans-Serif" font-size="10.00">update()</text>
<text xml:space="preserve" text-anchor="start" x="286.25" y="-122.5" font-family="Helvetica,sans-Serif" font-size="10.00">+</text>
<text xml:space="preserve" text-anchor="start" x="296.25" y="-122.5" font-family="Helvetica,sans-Serif" font-size="10.00">~TinyEngineUITextBox()</text>
<text xml:space="preserve" text-anchor="start" x="286.25" y="-106.5" font-family="Helvetica,sans-Serif" font-size="10.00">+</text>
<text xml:space="preserve" text-anchor="start" x="296.25" y="-106.5" font-family="Helvetica,sans-Serif" font-size="10.00">TinyEngineUITextBox()</text>
<text xml:space="preserve" text-anchor="start" x="286.25" y="-90.5" font-family="Helvetica,sans-Serif" font-size="10.00">+</text>
<text xml:space="preserve" text-anchor="start" x="296.25" y="-90.5" font-family="Helvetica,sans-Serif" font-size="10.00">TinyEngineUITextBox()</text>
<text xml:space="preserve" text-anchor="start" x="286.25" y="-74.5" font-family="Helvetica,sans-Serif" font-size="10.00">+</text>
<text xml:space="preserve" text-anchor="start" x="296.25" y="-74.5" font-family="Helvetica,sans-Serif" font-size="10.00">add_text()</text>
<text xml:space="preserve" text-anchor="start" x="286.25" y="-58.5" font-family="Helvetica,sans-Serif" font-size="10.00">+</text>
<text xml:space="preserve" text-anchor="start" x="296.25" y="-58.5" font-family="Helvetica,sans-Serif" font-size="10.00">get_m_outline_color()</text>
<text xml:space="preserve" text-anchor="start" x="286.25" y="-42.5" font-family="Helvetica,sans-Serif" font-size="10.00">+</text>
<text xml:space="preserve" text-anchor="start" x="296.25" y="-42.5" font-family="Helvetica,sans-Serif" font-size="10.00">set_m_outline_color()</text>
<polygon fill="#666666" stroke="#666666" points="282.25,-198 282.25,-198 407.5,-198 407.5,-198 282.25,-198"/>
<polygon fill="#666666" stroke="#666666" points="282.25,-166 282.25,-166 294.25,-166 294.25,-166 282.25,-166"/>
<polygon fill="#666666" stroke="#666666" points="294.25,-166 294.25,-166 407.5,-166 407.5,-166 294.25,-166"/>
<polygon fill="none" stroke="#666666" points="282.25,-36 282.25,-216 407.5,-216 407.5,-36 282.25,-36"/>
</a>
</g>
</g>
<!-- Node2&#45;&gt;Node5 -->
<g id="edge4_Node000002_Node000005" class="edge">
<title>Node2&#45;&gt;Node5</title>
<g id="a_edge4_Node000002_Node000005"><a xlink:title=" ">
<path fill="none" stroke="#63b8ff" d="M258.96,-321.74C274.33,-286.9 291.08,-248.93 305.68,-215.85"/>
<polygon fill="none" stroke="#63b8ff" points="255.9,-320.01 255.06,-330.57 262.3,-322.83 255.9,-320.01"/>
</a>
</g>
</g>
</g>
</svg>

<g id="navigator" transform="translate(0 0)" fill="#404254">
  <rect fill="#f2f5e9" fill-opacity="0.5" stroke="#606060" stroke-width=".5" x="0" y="0" width="60" height="60"/>
  <use id="zoomplus" xlink:href="#zoomPlus" x="17" y="9" onmousedown="handleZoom(evt,'in')"/>
  <use id="zoomminus" xlink:href="#zoomMin" x="42" y="9" onmousedown="handleZoom(evt,'out')"/>
  <use id="reset" xlink:href="#resetDef" x="30" y="36" onmousedown="handleReset()"/>
   <use id="arrowup" xlink:href="#arrowUp" x="0" y="0" onmousedown="handlePan(0,-1)"/>
  <use id="arrowright" xlink:href="#arrowRight" x="0" y="0" onmousedown="handlePan(1,0)"/>
  <use id="arrowdown" xlink:href="#arrowDown" x="0" y="0" onmousedown="handlePan(0,1)"/>
  <use id="arrowleft" xlink:href="#arrowLeft" x="0" y="0" onmousedown="handlePan(-1,0)"/>
</g>
<svg viewBox="0 0 15 15" width="100%" height="30px" preserveAspectRatio="xMaxYMin meet">
 <g id="arrow_out" transform="scale(0.3 0.3)">
  <a xlink:href="class_tiny_engine_renderable_i__inherit__graph_org.svg" target="_base">
   <rect id="button" ry="5" rx="5" y="6" x="6" height="38" width="38"
        fill="#f2f5e9" fill-opacity="0.5" stroke="#606060" stroke-width="1.0"/>
   <path id="arrow"
     d="M 11.500037,31.436501 C 11.940474,20.09759 22.043105,11.32322 32.158766,21.979434 L 37.068811,17.246167 C 37.068811,17.246167 37.088388,32 37.088388,32 L 22.160133,31.978069 C 22.160133,31.978069 26.997745,27.140456 26.997745,27.140456 C 18.528582,18.264221 13.291696,25.230495 11.500037,31.436501 z"
     style="fill:#404040;"/>
  </a>
 </g>
</svg>

<style type='text/css'>
<![CDATA[
[data-mouse-over-selected='false'] { opacity: 0.7; }
[data-mouse-over-selected='true']  { opacity: 1.0; }
]]>
</style>
<script type="application/ecmascript"><![CDATA[
document.addEventListener('DOMContentLoaded', (event) => {
  highlightEdges();
  highlightAdjacentNodes();
});
]]></script>
</svg>
