<?xml version="1.0" encoding="UTF-8" standalone="no"?>
<!DOCTYPE svg PUBLIC "-//W3C//DTD SVG 1.1//EN"
 "http://www.w3.org/Graphics/SVG/1.1/DTD/svg11.dtd">
<!-- Generated by graphviz version 13.1.2 (20250808.2320)
 -->
<!-- Title: TinyEngineUI Pages: 1 -->
<svg width="139pt" height="436pt"
 viewBox="0.00 0.00 139.00 436.00" xmlns="http://www.w3.org/2000/svg" xmlns:xlink="http://www.w3.org/1999/xlink">
<g id="graph0" class="graph" transform="scale(1 1) rotate(0) translate(4 432)">
<title>TinyEngineUI</title>
<!-- Node1 -->
<g id="Node000001" class="node">
<title>Node1</title>
<g id="a_Node000001"><a xlink:title=" ">
<polygon fill="#999999" stroke="none" points="110.25,-292 21,-292 21,0 110.25,0 110.25,-292"/>
<text xml:space="preserve" text-anchor="start" x="36" y="-278.5" font-family="Helvetica,sans-Serif" font-size="10.00">TinyEngineUI</text>
<text xml:space="preserve" text-anchor="start" x="25.38" y="-262.5" font-family="Helvetica,sans-Serif" font-size="10.00">#</text>
<text xml:space="preserve" text-anchor="start" x="35" y="-262.5" font-family="Helvetica,sans-Serif" font-size="10.00">m_x</text>
<text xml:space="preserve" text-anchor="start" x="25.38" y="-246.5" font-family="Helvetica,sans-Serif" font-size="10.00">#</text>
<text xml:space="preserve" text-anchor="start" x="35" y="-246.5" font-family="Helvetica,sans-Serif" font-size="10.00">m_y</text>
<text xml:space="preserve" text-anchor="start" x="25.38" y="-230.5" font-family="Helvetica,sans-Serif" font-size="10.00">#</text>
<text xml:space="preserve" text-anchor="start" x="35" y="-230.5" font-family="Helvetica,sans-Serif" font-size="10.00">m_x_half</text>
<text xml:space="preserve" text-anchor="start" x="25.38" y="-214.5" font-family="Helvetica,sans-Serif" font-size="10.00">#</text>
<text xml:space="preserve" text-anchor="start" x="35" y="-214.5" font-family="Helvetica,sans-Serif" font-size="10.00">m_y_half</text>
<text xml:space="preserve" text-anchor="start" x="25.38" y="-198.5" font-family="Helvetica,sans-Serif" font-size="10.00">#</text>
<text xml:space="preserve" text-anchor="start" x="35" y="-198.5" font-family="Helvetica,sans-Serif" font-size="10.00">m_width</text>
<text xml:space="preserve" text-anchor="start" x="25.38" y="-182.5" font-family="Helvetica,sans-Serif" font-size="10.00">#</text>
<text xml:space="preserve" text-anchor="start" x="35" y="-182.5" font-family="Helvetica,sans-Serif" font-size="10.00">m_height</text>
<text xml:space="preserve" text-anchor="start" x="25" y="-166.5" font-family="Helvetica,sans-Serif" font-size="10.00">+</text>
<text xml:space="preserve" text-anchor="start" x="35" y="-166.5" font-family="Helvetica,sans-Serif" font-size="10.00">TinyEngineUI()</text>
<text xml:space="preserve" text-anchor="start" x="25" y="-150.5" font-family="Helvetica,sans-Serif" font-size="10.00">+</text>
<text xml:space="preserve" text-anchor="start" x="35" y="-150.5" font-family="Helvetica,sans-Serif" font-size="10.00">render()</text>
<text xml:space="preserve" text-anchor="start" x="25" y="-134.5" font-family="Helvetica,sans-Serif" font-size="10.00">+</text>
<text xml:space="preserve" text-anchor="start" x="35" y="-134.5" font-family="Helvetica,sans-Serif" font-size="10.00">update()</text>
<text xml:space="preserve" text-anchor="start" x="25" y="-118.5" font-family="Helvetica,sans-Serif" font-size="10.00">+</text>
<text xml:space="preserve" text-anchor="start" x="35" y="-118.5" font-family="Helvetica,sans-Serif" font-size="10.00">~TinyEngineUI()</text>
<text xml:space="preserve" text-anchor="start" x="25" y="-102.5" font-family="Helvetica,sans-Serif" font-size="10.00">+</text>
<text xml:space="preserve" text-anchor="start" x="35" y="-102.5" font-family="Helvetica,sans-Serif" font-size="10.00">get_m_x()</text>
<text xml:space="preserve" text-anchor="start" x="25" y="-86.5" font-family="Helvetica,sans-Serif" font-size="10.00">+</text>
<text xml:space="preserve" text-anchor="start" x="35" y="-86.5" font-family="Helvetica,sans-Serif" font-size="10.00">get_m_y()</text>
<text xml:space="preserve" text-anchor="start" x="25" y="-70.5" font-family="Helvetica,sans-Serif" font-size="10.00">+</text>
<text xml:space="preserve" text-anchor="start" x="35" y="-70.5" font-family="Helvetica,sans-Serif" font-size="10.00">get_m_x_half()</text>
<text xml:space="preserve" text-anchor="start" x="25" y="-54.5" font-family="Helvetica,sans-Serif" font-size="10.00">+</text>
<text xml:space="preserve" text-anchor="start" x="35" y="-54.5" font-family="Helvetica,sans-Serif" font-size="10.00">get_m_y_half()</text>
<text xml:space="preserve" text-anchor="start" x="25" y="-38.5" font-family="Helvetica,sans-Serif" font-size="10.00">+</text>
<text xml:space="preserve" text-anchor="start" x="35" y="-38.5" font-family="Helvetica,sans-Serif" font-size="10.00">set_m_x()</text>
<text xml:space="preserve" text-anchor="start" x="25" y="-22.5" font-family="Helvetica,sans-Serif" font-size="10.00">+</text>
<text xml:space="preserve" text-anchor="start" x="35" y="-22.5" font-family="Helvetica,sans-Serif" font-size="10.00">set_m_y()</text>
<text xml:space="preserve" text-anchor="start" x="35" y="-6.5" font-family="Helvetica,sans-Serif" font-size="10.00">and 6 more...</text>
<polygon fill="#666666" stroke="#666666" points="21,-274 21,-274 110.25,-274 110.25,-274 21,-274"/>
<polygon fill="#666666" stroke="#666666" points="21,-178 21,-178 33,-178 33,-178 21,-178"/>
<polygon fill="#666666" stroke="#666666" points="33,-178 33,-178 110.25,-178 110.25,-178 33,-178"/>
<polygon fill="none" stroke="#666666" points="21,0 21,-292 110.25,-292 110.25,0 21,0"/>
</a>
</g>
</g>
<!-- Node2 -->
<g id="Node000002" class="node">
<title>Node2</title>
<g id="a_Node000002"><a xlink:href="class_tiny_engine_renderable_i.html" target="_top" xlink:title=" ">
<polygon fill="white" stroke="none" points="131.25,-428 0,-428 0,-328 131.25,-328 131.25,-428"/>
<text xml:space="preserve" text-anchor="start" x="15" y="-414.5" font-family="Helvetica,sans-Serif" font-size="10.00">TinyEngineRenderableI</text>
<text xml:space="preserve" text-anchor="start" x="64.12" y="-398.5" font-family="Helvetica,sans-Serif" font-size="10.00"> </text>
<text xml:space="preserve" text-anchor="start" x="4" y="-382.5" font-family="Helvetica,sans-Serif" font-size="10.00">+</text>
<text xml:space="preserve" text-anchor="start" x="14" y="-382.5" font-family="Helvetica,sans-Serif" font-size="10.00">TinyEngineRenderableI()</text>
<text xml:space="preserve" text-anchor="start" x="4" y="-366.5" font-family="Helvetica,sans-Serif" font-size="10.00">+</text>
<text xml:space="preserve" text-anchor="start" x="14" y="-366.5" font-family="Helvetica,sans-Serif" font-size="10.00">~TinyEngineRenderableI()</text>
<text xml:space="preserve" text-anchor="start" x="4" y="-350.5" font-family="Helvetica,sans-Serif" font-size="10.00">+</text>
<text xml:space="preserve" text-anchor="start" x="14" y="-350.5" font-family="Helvetica,sans-Serif" font-size="10.00">render()</text>
<text xml:space="preserve" text-anchor="start" x="4" y="-334.5" font-family="Helvetica,sans-Serif" font-size="10.00">+</text>
<text xml:space="preserve" text-anchor="start" x="14" y="-334.5" font-family="Helvetica,sans-Serif" font-size="10.00">update()</text>
<polygon fill="#666666" stroke="#666666" points="0,-410 0,-410 131.25,-410 131.25,-410 0,-410"/>
<polygon fill="#666666" stroke="#666666" points="0,-394 0,-394 131.25,-394 131.25,-394 0,-394"/>
<polygon fill="none" stroke="#666666" points="0,-328 0,-428 131.25,-428 131.25,-328 0,-328"/>
</a>
</g>
</g>
<!-- Node2&#45;&gt;Node1 -->
<g id="edge1_Node000001_Node000002" class="edge">
<title>Node2&#45;&gt;Node1</title>
<g id="a_edge1_Node000001_Node000002"><a xlink:title=" ">
<path fill="none" stroke="#63b8ff" d="M65.62,-316.94C65.62,-309 65.62,-300.61 65.62,-291.97"/>
<polygon fill="none" stroke="#63b8ff" points="62.13,-316.71 65.63,-326.71 69.13,-316.71 62.13,-316.71"/>
</a>
</g>
</g>
</g>
</svg>
