<?xml version="1.0" encoding="UTF-8" standalone="no"?>
<!DOCTYPE svg PUBLIC "-//W3C//DTD SVG 1.1//EN"
 "http://www.w3.org/Graphics/SVG/1.1/DTD/svg11.dtd">
<!-- Generated by graphviz version 13.1.2 (20250808.2320)
 -->
<!-- Title: Graphical Class Hierarchy Pages: 1 -->
<svg width="418pt" height="104pt"
 viewBox="0.00 0.00 418.00 104.00" xmlns="http://www.w3.org/2000/svg" xmlns:xlink="http://www.w3.org/1999/xlink">
<g id="graph0" class="graph" transform="scale(1 1) rotate(0) translate(4 100)">
<title>Graphical Class Hierarchy</title>
<!-- Node0 -->
<g id="Node000000" class="node">
<title>Node0</title>
<g id="a_Node000000"><a xlink:href="class_tiny_engine_renderable_i.html" target="_top" xlink:title=" ">
<polygon fill="white" stroke="#666666" points="117.25,-58 0,-58 0,-38 117.25,-38 117.25,-58"/>
<text xml:space="preserve" text-anchor="middle" x="58.62" y="-44.5" font-family="Helvetica,sans-Serif" font-size="10.00">TinyEngineRenderableI</text>
</a>
</g>
</g>
<!-- Node1 -->
<g id="Node000001" class="node">
<title>Node1</title>
<g id="a_Node000001"><a xlink:href="class_tiny_engine_u_i.html" target="_top" xlink:title=" ">
<polygon fill="white" stroke="#666666" points="228.5,-58 153.25,-58 153.25,-38 228.5,-38 228.5,-58"/>
<text xml:space="preserve" text-anchor="middle" x="190.88" y="-44.5" font-family="Helvetica,sans-Serif" font-size="10.00">TinyEngineUI</text>
</a>
</g>
</g>
<!-- Node0&#45;&gt;Node1 -->
<g id="edge5_Node000000_Node000001" class="edge">
<title>Node0&#45;&gt;Node1</title>
<g id="a_edge5_Node000000_Node000001"><a xlink:title=" ">
<path fill="none" stroke="#63b8ff" d="M128.9,-48C137.24,-48 145.5,-48 153.11,-48"/>
<polygon fill="#63b8ff" stroke="#63b8ff" points="129.03,-44.5 119.03,-48 129.03,-51.5 129.03,-44.5"/>
</a>
</g>
</g>
<!-- Node2 -->
<g id="Node000002" class="node">
<title>Node2</title>
<g id="a_Node000002"><a xlink:href="class_tiny_engine_u_i_blinking_text_box.html" target="_top" xlink:title=" ">
<polygon fill="white" stroke="#666666" points="410.25,-96 264.5,-96 264.5,-76 410.25,-76 410.25,-96"/>
<text xml:space="preserve" text-anchor="middle" x="337.38" y="-82.5" font-family="Helvetica,sans-Serif" font-size="10.00">TinyEngineUIBlinkingTextBox</text>
</a>
</g>
</g>
<!-- Node1&#45;&gt;Node2 -->
<g id="edge6_Node000001_Node000002" class="edge">
<title>Node1&#45;&gt;Node2</title>
<g id="a_edge6_Node000001_Node000002"><a xlink:title=" ">
<path fill="none" stroke="#63b8ff" d="M239.81,-60.61C258.22,-65.45 279,-70.91 296.56,-75.53"/>
<polygon fill="#63b8ff" stroke="#63b8ff" points="240.74,-57.23 230.18,-58.07 238.96,-64 240.74,-57.23"/>
</a>
</g>
</g>
<!-- Node3 -->
<g id="Node000003" class="node">
<title>Node3</title>
<g id="a_Node000003"><a xlink:href="class_tiny_engine_u_i_text.html" target="_top" xlink:title=" ">
<polygon fill="white" stroke="#666666" points="384.38,-58 290.38,-58 290.38,-38 384.38,-38 384.38,-58"/>
<text xml:space="preserve" text-anchor="middle" x="337.38" y="-44.5" font-family="Helvetica,sans-Serif" font-size="10.00">TinyEngineUIText</text>
</a>
</g>
</g>
<!-- Node1&#45;&gt;Node3 -->
<g id="edge7_Node000001_Node000003" class="edge">
<title>Node1&#45;&gt;Node3</title>
<g id="a_edge7_Node000001_Node000003"><a xlink:title=" ">
<path fill="none" stroke="#63b8ff" d="M240.06,-48C256.16,-48 274.06,-48 290.02,-48"/>
<polygon fill="#63b8ff" stroke="#63b8ff" points="240.23,-44.5 230.23,-48 240.23,-51.5 240.23,-44.5"/>
</a>
</g>
</g>
<!-- Node4 -->
<g id="Node000004" class="node">
<title>Node4</title>
<g id="a_Node000004"><a xlink:href="class_tiny_engine_u_i_text_box.html" target="_top" xlink:title=" ">
<polygon fill="white" stroke="#666666" points="393,-20 281.75,-20 281.75,0 393,0 393,-20"/>
<text xml:space="preserve" text-anchor="middle" x="337.38" y="-6.5" font-family="Helvetica,sans-Serif" font-size="10.00">TinyEngineUITextBox</text>
</a>
</g>
</g>
<!-- Node1&#45;&gt;Node4 -->
<g id="edge8_Node000001_Node000004" class="edge">
<title>Node1&#45;&gt;Node4</title>
<g id="a_edge8_Node000001_Node000004"><a xlink:title=" ">
<path fill="none" stroke="#63b8ff" d="M239.81,-35.39C258.22,-30.55 279,-25.09 296.56,-20.47"/>
<polygon fill="#63b8ff" stroke="#63b8ff" points="238.96,-32 230.18,-37.93 240.74,-38.77 238.96,-32"/>
</a>
</g>
</g>
</g>
</svg>
