<?xml version="1.0" encoding="UTF-8" standalone="no"?>
<!DOCTYPE svg PUBLIC "-//W3C//DTD SVG 1.1//EN"
 "http://www.w3.org/Graphics/SVG/1.1/DTD/svg11.dtd">
<!-- Generated by graphviz version 13.1.2 (20250808.2320)
 -->
<!-- Title: Graphical Class Hierarchy Pages: 1 -->
<svg width="321pt" height="85pt"
 viewBox="0.00 0.00 321.00 85.00" xmlns="http://www.w3.org/2000/svg" xmlns:xlink="http://www.w3.org/1999/xlink">
<g id="graph0" class="graph" transform="scale(1 1) rotate(0) translate(4 81)">
<title>Graphical Class Hierarchy</title>
<!-- Node0 -->
<g id="Node000000" class="node">
<title>Node0</title>
<g id="a_Node000000"><a xlink:href="class_scene_i.html" target="_top" xlink:title=" ">
<polygon fill="white" stroke="#666666" points="46.75,-39 0,-39 0,-19 46.75,-19 46.75,-39"/>
<text xml:space="preserve" text-anchor="middle" x="23.38" y="-25.5" font-family="Helvetica,sans-Serif" font-size="10.00">SceneI</text>
</a>
</g>
</g>
<!-- Node1 -->
<g id="Node000001" class="node">
<title>Node1</title>
<g id="a_Node000001"><a xlink:href="class_game_scene.html" target="_top" xlink:title=" ">
<polygon fill="white" stroke="#666666" points="179.75,-58 109.75,-58 109.75,-38 179.75,-38 179.75,-58"/>
<text xml:space="preserve" text-anchor="middle" x="144.75" y="-44.5" font-family="Helvetica,sans-Serif" font-size="10.00">GameScene</text>
</a>
</g>
</g>
<!-- Node0&#45;&gt;Node1 -->
<g id="edge1_Node000000_Node000001" class="edge">
<title>Node0&#45;&gt;Node1</title>
<g id="a_edge1_Node000000_Node000001"><a xlink:title=" ">
<path fill="none" stroke="#63b8ff" d="M58.14,-34.37C74.15,-36.92 93.25,-39.96 109.34,-42.52"/>
<polygon fill="#63b8ff" stroke="#63b8ff" points="59.03,-30.97 48.6,-32.86 57.93,-37.88 59.03,-30.97"/>
</a>
</g>
</g>
<!-- Node4 -->
<g id="Node000004" class="node">
<title>Node4</title>
<g id="a_Node000004"><a xlink:href="class_tiny_engine_scene_default.html" target="_top" xlink:title=" ">
<polygon fill="white" stroke="#666666" points="206.75,-20 82.75,-20 82.75,0 206.75,0 206.75,-20"/>
<text xml:space="preserve" text-anchor="middle" x="144.75" y="-6.5" font-family="Helvetica,sans-Serif" font-size="10.00">TinyEngineSceneDefault</text>
</a>
</g>
</g>
<!-- Node0&#45;&gt;Node4 -->
<g id="edge4_Node000000_Node000004" class="edge">
<title>Node0&#45;&gt;Node4</title>
<g id="a_edge4_Node000000_Node000004"><a xlink:title=" ">
<path fill="none" stroke="#63b8ff" d="M58.32,-23.6C65.86,-22.4 74.08,-21.09 82.35,-19.77"/>
<polygon fill="#63b8ff" stroke="#63b8ff" points="57.93,-20.12 48.6,-25.14 59.03,-27.03 57.93,-20.12"/>
</a>
</g>
</g>
<!-- Node2 -->
<g id="Node000002" class="node">
<title>Node2</title>
<g id="a_Node000002"><a xlink:href="class_dino_game.html" target="_top" xlink:title=" ">
<polygon fill="white" stroke="#666666" points="309,-77 246.5,-77 246.5,-57 309,-57 309,-77"/>
<text xml:space="preserve" text-anchor="middle" x="277.75" y="-63.5" font-family="Helvetica,sans-Serif" font-size="10.00">DinoGame</text>
</a>
</g>
</g>
<!-- Node1&#45;&gt;Node2 -->
<g id="edge2_Node000001_Node000002" class="edge">
<title>Node1&#45;&gt;Node2</title>
<g id="a_edge2_Node000001_Node000002"><a xlink:title=" ">
<path fill="none" stroke="#63b8ff" d="M191.39,-54.62C209.5,-57.25 229.85,-60.2 246.13,-62.56"/>
<polygon fill="#63b8ff" stroke="#63b8ff" points="192.07,-51.18 181.67,-53.21 191.06,-58.11 192.07,-51.18"/>
</a>
</g>
</g>
<!-- Node3 -->
<g id="Node000003" class="node">
<title>Node3</title>
<g id="a_Node000003"><a xlink:href="class_snake_game.html" target="_top" xlink:title=" ">
<polygon fill="white" stroke="#666666" points="312.75,-39 242.75,-39 242.75,-19 312.75,-19 312.75,-39"/>
<text xml:space="preserve" text-anchor="middle" x="277.75" y="-25.5" font-family="Helvetica,sans-Serif" font-size="10.00">SnakeGame</text>
</a>
</g>
</g>
<!-- Node1&#45;&gt;Node3 -->
<g id="edge3_Node000001_Node000003" class="edge">
<title>Node1&#45;&gt;Node3</title>
<g id="a_edge3_Node000001_Node000003"><a xlink:title=" ">
<path fill="none" stroke="#63b8ff" d="M191.43,-41.37C208.23,-38.94 226.95,-36.22 242.56,-33.96"/>
<polygon fill="#63b8ff" stroke="#63b8ff" points="191.06,-37.89 181.67,-42.79 192.07,-44.82 191.06,-37.89"/>
</a>
</g>
</g>
</g>
</svg>
