<?xml version="1.0" encoding="UTF-8" standalone="no"?>
<!DOCTYPE svg PUBLIC "-//W3C//DTD SVG 1.1//EN"
 "http://www.w3.org/Graphics/SVG/1.1/DTD/svg11.dtd">
<!-- Generated by graphviz version 13.1.2 (20250808.2320)
 -->
<!-- Title: inc/main.h Pages: 1 -->
<!--zoomable 208 -->

<svg id="main" version="1.1" xmlns="http://www.w3.org/2000/svg" xmlns:xlink="http://www.w3.org/1999/xlink" xml:space="preserve" onload="init(evt)">

<style type="text/css"><![CDATA[
.node, .edge {opacity: 0.7;}
.node.selected, .edge.selected {opacity: 1;}
.edge:hover path { stroke: red; }
.edge:hover polygon { stroke: red; fill: red; }
]]></style>

<defs>
  <circle id="rim" cx="0" cy="0" r="7"/>
  <circle id="rim2" cx="0" cy="0" r="3.5"/>
  <g id="zoomPlus">
    <use xlink:href="#rim" fill="#404040"><set attributeName="fill" to="#808080" begin="zoomplus.mouseover" end="zoomplus.mouseout"/></use>
    <path d="M-4,0h8M0,-4v8" fill="none" stroke="white" stroke-width="1.5" pointer-events="none"/>
  </g>
  <g id="zoomMin">
    <use xlink:href="#rim" fill="#404040"><set attributeName="fill" to="#808080" begin="zoomminus.mouseover" end="zoomminus.mouseout"/></use>
    <path d="M-4,0h8" fill="none" stroke="white" stroke-width="1.5" pointer-events="none"/>
  </g>
  <g id="arrowUp" transform="translate(30 24)">
    <use xlink:href="#rim"/>
    <path pointer-events="none" fill="none" stroke="white" stroke-width="1.5" d="M0,-3.0v7 M-2.5,-0.5L0,-3.0L2.5,-0.5"/>
  </g>
  <g id="arrowRight" transform="rotate(90) translate(36 -43)">
    <use xlink:href="#rim"/>
    <path pointer-events="none" fill="none" stroke="white" stroke-width="1.5" d="M0,-3.0v7 M-2.5,-0.5L0,-3.0L2.5,-0.5"/>
  </g>
  <g id="arrowDown" transform="rotate(180) translate(-30 -48)">
    <use xlink:href="#rim"/>
    <path pointer-events="none" fill="none" stroke="white" stroke-width="1.5" d="M0,-3.0v7 M-2.5,-0.5L0,-3.0L2.5,-0.5"/>
  </g>
  <g id="arrowLeft" transform="rotate(270) translate(-36 17)">
    <use xlink:href="#rim"/>
    <path pointer-events="none" fill="none" stroke="white" stroke-width="1.5" d="M0,-3.0v7 M-2.5,-0.5L0,-3.0L2.5,-0.5"/>
  </g>
  <g id="resetDef">
    <use xlink:href="#rim2" fill="#404040"><set attributeName="fill" to="#808080" begin="reset.mouseover" end="reset.mouseout"/></use>
  </g>
</defs>
<script type="application/ecmascript">
var viewWidth = 584;
var viewHeight = 208;
var sectionId = 'dynsection-1';
</script>
<script type="application/ecmascript" xlink:href="svg.min.js"/>
<svg id="graph" class="graph">
<g id="viewport">
<title>inc/main.h</title>
<!-- Node1 -->
<g id="Node000001" class="node">
<title>Node1</title>
<g id="a_Node000001"><a xlink:title=" ">
<polygon fill="#999999" stroke="#666666" points="345.25,-200 284.25,-200 284.25,-180 345.25,-180 345.25,-200"/>
<text xml:space="preserve" text-anchor="middle" x="314.75" y="-186.5" font-family="Helvetica,sans-Serif" font-size="10.00">inc/main.h</text>
</a>
</g>
</g>
<!-- Node2 -->
<g id="Node000002" class="node">
<title>Node2</title>
<g id="a_Node000002"><a xlink:href="_game_8h.html" target="_top" xlink:title=" ">
<polygon fill="white" stroke="#666666" points="221.88,-138 155.62,-138 155.62,-118 221.88,-118 221.88,-138"/>
<text xml:space="preserve" text-anchor="middle" x="188.75" y="-124.5" font-family="Helvetica,sans-Serif" font-size="10.00">inc/Game.h</text>
</a>
</g>
</g>
<!-- Node1&#45;&gt;Node2 -->
<g id="edge1_Node000001_Node000002" class="edge">
<title>Node1&#45;&gt;Node2</title>
<g id="a_edge1_Node000001_Node000002"><a xlink:title=" ">
<path fill="none" stroke="#63b8ff" d="M284.87,-174.77C261.18,-163.49 228.77,-148.06 208.3,-138.31"/>
<polygon fill="#63b8ff" stroke="#63b8ff" points="283.16,-177.83 293.7,-178.97 286.17,-171.51 283.16,-177.83"/>
</a>
</g>
</g>
<!-- Node4 -->
<g id="Node000004" class="node">
<title>Node4</title>
<g id="a_Node000004"><a xlink:href="main_8cpp.html" target="_top" xlink:title=" ">
<polygon fill="white" stroke="#666666" points="314.88,-76 242.62,-76 242.62,-56 314.88,-56 314.88,-76"/>
<text xml:space="preserve" text-anchor="middle" x="278.75" y="-62.5" font-family="Helvetica,sans-Serif" font-size="10.00">src/main.cpp</text>
</a>
</g>
</g>
<!-- Node1&#45;&gt;Node4 -->
<g id="edge7_Node000001_Node000004" class="edge">
<title>Node1&#45;&gt;Node4</title>
<g id="a_edge7_Node000001_Node000004"><a xlink:title=" ">
<path fill="none" stroke="#63b8ff" d="M298.25,-170.83C292.25,-163.12 286.12,-153.68 282.75,-144 274.65,-120.74 276.13,-91.14 277.6,-76.33"/>
<polygon fill="#63b8ff" stroke="#63b8ff" points="295.49,-172.99 304.6,-178.41 300.86,-168.49 295.49,-172.99"/>
</a>
</g>
</g>
<!-- Node8 -->
<g id="Node000008" class="node">
<title>Node8</title>
<g id="a_Node000008"><a xlink:href="tinyengine__framebuffer_8cpp.html" target="_top" xlink:title=" ">
<polygon fill="white" stroke="#666666" points="441.5,-138 292,-138 292,-118 441.5,-118 441.5,-138"/>
<text xml:space="preserve" text-anchor="middle" x="366.75" y="-124.5" font-family="Helvetica,sans-Serif" font-size="10.00">src/tinyengine_framebuffer.cpp</text>
</a>
</g>
</g>
<!-- Node1&#45;&gt;Node8 -->
<g id="edge8_Node000001_Node000008" class="edge">
<title>Node1&#45;&gt;Node8</title>
<g id="a_edge8_Node000001_Node000008"><a xlink:title=" ">
<path fill="none" stroke="#63b8ff" d="M330.13,-171.25C339.57,-160.36 351.26,-146.88 358.85,-138.11"/>
<polygon fill="#63b8ff" stroke="#63b8ff" points="327.77,-168.63 323.87,-178.48 333.06,-173.22 327.77,-168.63"/>
</a>
</g>
</g>
<!-- Node9 -->
<g id="Node000009" class="node">
<title>Node9</title>
<g id="a_Node000009"><a xlink:href="tinyengine__renderer__dvi_8cpp.html" target="_top" xlink:title=" ">
<polygon fill="white" stroke="#666666" points="576.38,-144 459.12,-144 459.12,-112 576.38,-112 576.38,-144"/>
<text xml:space="preserve" text-anchor="start" x="467.12" y="-130.5" font-family="Helvetica,sans-Serif" font-size="10.00">src/tinyengine_renderer</text>
<text xml:space="preserve" text-anchor="middle" x="517.75" y="-118.5" font-family="Helvetica,sans-Serif" font-size="10.00">_dvi.cpp</text>
</a>
</g>
</g>
<!-- Node1&#45;&gt;Node9 -->
<g id="edge9_Node000001_Node000009" class="edge">
<title>Node1&#45;&gt;Node9</title>
<g id="a_edge9_Node000001_Node000009"><a xlink:title=" ">
<path fill="none" stroke="#63b8ff" d="M356.23,-176.74C387.88,-167.39 431.67,-154.44 465.67,-144.39"/>
<polygon fill="#63b8ff" stroke="#63b8ff" points="355.63,-173.27 347.03,-179.46 357.61,-179.98 355.63,-173.27"/>
</a>
</g>
</g>
<!-- Node3 -->
<g id="Node000003" class="node">
<title>Node3</title>
<g id="a_Node000003"><a xlink:href="_game_8cpp.html" target="_top" xlink:title=" ">
<polygon fill="white" stroke="#666666" points="77.5,-76 0,-76 0,-56 77.5,-56 77.5,-76"/>
<text xml:space="preserve" text-anchor="middle" x="38.75" y="-62.5" font-family="Helvetica,sans-Serif" font-size="10.00">src/Game.cpp</text>
</a>
</g>
</g>
<!-- Node2&#45;&gt;Node3 -->
<g id="edge2_Node000002_Node000003" class="edge">
<title>Node2&#45;&gt;Node3</title>
<g id="a_edge2_Node000002_Node000003"><a xlink:title=" ">
<path fill="none" stroke="#63b8ff" d="M154.69,-113.38C126.38,-102.05 86.84,-86.23 62.02,-76.31"/>
<polygon fill="#63b8ff" stroke="#63b8ff" points="153.32,-116.6 163.91,-117.06 155.92,-110.1 153.32,-116.6"/>
</a>
</g>
</g>
<!-- Node2&#45;&gt;Node4 -->
<g id="edge3_Node000002_Node000004" class="edge">
<title>Node2&#45;&gt;Node4</title>
<g id="a_edge3_Node000002_Node000004"><a xlink:title=" ">
<path fill="none" stroke="#63b8ff" d="M211.95,-111.54C228.67,-100.39 250.69,-85.71 264.79,-76.31"/>
<polygon fill="#63b8ff" stroke="#63b8ff" points="210.45,-108.33 204.07,-116.79 214.33,-114.15 210.45,-108.33"/>
</a>
</g>
</g>
<!-- Node5 -->
<g id="Node000005" class="node">
<title>Node5</title>
<g id="a_Node000005"><a xlink:href="_snake_game_8h.html" target="_top" xlink:title=" ">
<polygon fill="white" stroke="#666666" points="224.38,-76 95.12,-76 95.12,-56 224.38,-56 224.38,-76"/>
<text xml:space="preserve" text-anchor="middle" x="159.75" y="-62.5" font-family="Helvetica,sans-Serif" font-size="10.00">src/scenes/SnakeGame.h</text>
</a>
</g>
</g>
<!-- Node2&#45;&gt;Node5 -->
<g id="edge4_Node000002_Node000005" class="edge">
<title>Node2&#45;&gt;Node5</title>
<g id="a_edge4_Node000002_Node000005"><a xlink:title=" ">
<path fill="none" stroke="#63b8ff" d="M179.21,-107.27C174.14,-96.76 168.14,-84.35 164.15,-76.11"/>
<polygon fill="#63b8ff" stroke="#63b8ff" points="176.06,-108.78 183.56,-116.26 182.36,-105.74 176.06,-108.78"/>
</a>
</g>
</g>
<!-- Node6 -->
<g id="Node000006" class="node">
<title>Node6</title>
<g id="a_Node000006"><a xlink:href="_dino_game_8cpp.html" target="_top" xlink:title=" ">
<polygon fill="white" stroke="#666666" points="148.88,-20 16.62,-20 16.62,0 148.88,0 148.88,-20"/>
<text xml:space="preserve" text-anchor="middle" x="82.75" y="-6.5" font-family="Helvetica,sans-Serif" font-size="10.00">src/scenes/DinoGame.cpp</text>
</a>
</g>
</g>
<!-- Node5&#45;&gt;Node6 -->
<g id="edge5_Node000005_Node000006" class="edge">
<title>Node5&#45;&gt;Node6</title>
<g id="a_edge5_Node000005_Node000006"><a xlink:title=" ">
<path fill="none" stroke="#63b8ff" d="M136.93,-49C123.7,-39.72 107.49,-28.35 96.27,-20.48"/>
<polygon fill="#63b8ff" stroke="#63b8ff" points="134.9,-51.85 145.1,-54.72 138.92,-46.12 134.9,-51.85"/>
</a>
</g>
</g>
<!-- Node7 -->
<g id="Node000007" class="node">
<title>Node7</title>
<g id="a_Node000007"><a xlink:href="_snake_game_8cpp.html" target="_top" xlink:title=" ">
<polygon fill="white" stroke="#666666" points="306.62,-20 166.88,-20 166.88,0 306.62,0 306.62,-20"/>
<text xml:space="preserve" text-anchor="middle" x="236.75" y="-6.5" font-family="Helvetica,sans-Serif" font-size="10.00">src/scenes/SnakeGame.cpp</text>
</a>
</g>
</g>
<!-- Node5&#45;&gt;Node7 -->
<g id="edge6_Node000005_Node000007" class="edge">
<title>Node5&#45;&gt;Node7</title>
<g id="a_edge6_Node000005_Node000007"><a xlink:title=" ">
<path fill="none" stroke="#63b8ff" d="M182.57,-49C195.8,-39.72 212.01,-28.35 223.23,-20.48"/>
<polygon fill="#63b8ff" stroke="#63b8ff" points="180.58,-46.12 174.4,-54.72 184.6,-51.85 180.58,-46.12"/>
</a>
</g>
</g>
</g>
</svg>

<g id="navigator" transform="translate(0 0)" fill="#404254">
  <rect fill="#f2f5e9" fill-opacity="0.5" stroke="#606060" stroke-width=".5" x="0" y="0" width="60" height="60"/>
  <use id="zoomplus" xlink:href="#zoomPlus" x="17" y="9" onmousedown="handleZoom(evt,'in')"/>
  <use id="zoomminus" xlink:href="#zoomMin" x="42" y="9" onmousedown="handleZoom(evt,'out')"/>
  <use id="reset" xlink:href="#resetDef" x="30" y="36" onmousedown="handleReset()"/>
   <use id="arrowup" xlink:href="#arrowUp" x="0" y="0" onmousedown="handlePan(0,-1)"/>
  <use id="arrowright" xlink:href="#arrowRight" x="0" y="0" onmousedown="handlePan(1,0)"/>
  <use id="arrowdown" xlink:href="#arrowDown" x="0" y="0" onmousedown="handlePan(0,1)"/>
  <use id="arrowleft" xlink:href="#arrowLeft" x="0" y="0" onmousedown="handlePan(-1,0)"/>
</g>
<svg viewBox="0 0 15 15" width="100%" height="30px" preserveAspectRatio="xMaxYMin meet">
 <g id="arrow_out" transform="scale(0.3 0.3)">
  <a xlink:href="main_8h__dep__incl_org.svg" target="_base">
   <rect id="button" ry="5" rx="5" y="6" x="6" height="38" width="38"
        fill="#f2f5e9" fill-opacity="0.5" stroke="#606060" stroke-width="1.0"/>
   <path id="arrow"
     d="M 11.500037,31.436501 C 11.940474,20.09759 22.043105,11.32322 32.158766,21.979434 L 37.068811,17.246167 C 37.068811,17.246167 37.088388,32 37.088388,32 L 22.160133,31.978069 C 22.160133,31.978069 26.997745,27.140456 26.997745,27.140456 C 18.528582,18.264221 13.291696,25.230495 11.500037,31.436501 z"
     style="fill:#404040;"/>
  </a>
 </g>
</svg>

<style type='text/css'>
<![CDATA[
[data-mouse-over-selected='false'] { opacity: 0.7; }
[data-mouse-over-selected='true']  { opacity: 1.0; }
]]>
</style>
<script type="application/ecmascript"><![CDATA[
document.addEventListener('DOMContentLoaded', (event) => {
  highlightEdges();
  highlightAdjacentNodes();
});
]]></script>
</svg>
