<?xml version="1.0" encoding="UTF-8" standalone="no"?>
<!DOCTYPE svg PUBLIC "-//W3C//DTD SVG 1.1//EN"
 "http://www.w3.org/Graphics/SVG/1.1/DTD/svg11.dtd">
<!-- Generated by graphviz version 13.1.2 (20250808.2320)
 -->
<!-- Title: src/main.cpp Pages: 1 -->
<!--zoomable 208 -->

<svg id="main" version="1.1" xmlns="http://www.w3.org/2000/svg" xmlns:xlink="http://www.w3.org/1999/xlink" xml:space="preserve" onload="init(evt)">

<style type="text/css"><![CDATA[
.node, .edge {opacity: 0.7;}
.node.selected, .edge.selected {opacity: 1;}
.edge:hover path { stroke: red; }
.edge:hover polygon { stroke: red; fill: red; }
]]></style>

<defs>
  <circle id="rim" cx="0" cy="0" r="7"/>
  <circle id="rim2" cx="0" cy="0" r="3.5"/>
  <g id="zoomPlus">
    <use xlink:href="#rim" fill="#404040"><set attributeName="fill" to="#808080" begin="zoomplus.mouseover" end="zoomplus.mouseout"/></use>
    <path d="M-4,0h8M0,-4v8" fill="none" stroke="white" stroke-width="1.5" pointer-events="none"/>
  </g>
  <g id="zoomMin">
    <use xlink:href="#rim" fill="#404040"><set attributeName="fill" to="#808080" begin="zoomminus.mouseover" end="zoomminus.mouseout"/></use>
    <path d="M-4,0h8" fill="none" stroke="white" stroke-width="1.5" pointer-events="none"/>
  </g>
  <g id="arrowUp" transform="translate(30 24)">
    <use xlink:href="#rim"/>
    <path pointer-events="none" fill="none" stroke="white" stroke-width="1.5" d="M0,-3.0v7 M-2.5,-0.5L0,-3.0L2.5,-0.5"/>
  </g>
  <g id="arrowRight" transform="rotate(90) translate(36 -43)">
    <use xlink:href="#rim"/>
    <path pointer-events="none" fill="none" stroke="white" stroke-width="1.5" d="M0,-3.0v7 M-2.5,-0.5L0,-3.0L2.5,-0.5"/>
  </g>
  <g id="arrowDown" transform="rotate(180) translate(-30 -48)">
    <use xlink:href="#rim"/>
    <path pointer-events="none" fill="none" stroke="white" stroke-width="1.5" d="M0,-3.0v7 M-2.5,-0.5L0,-3.0L2.5,-0.5"/>
  </g>
  <g id="arrowLeft" transform="rotate(270) translate(-36 17)">
    <use xlink:href="#rim"/>
    <path pointer-events="none" fill="none" stroke="white" stroke-width="1.5" d="M0,-3.0v7 M-2.5,-0.5L0,-3.0L2.5,-0.5"/>
  </g>
  <g id="resetDef">
    <use xlink:href="#rim2" fill="#404040"><set attributeName="fill" to="#808080" begin="reset.mouseover" end="reset.mouseout"/></use>
  </g>
</defs>
<script type="application/ecmascript">
var viewWidth = 2347;
var viewHeight = 208;
var sectionId = 'dynsection-0';
</script>
<script type="application/ecmascript" xlink:href="svg.min.js"/>
<svg id="graph" class="graph">
<g id="viewport">
<title>src/main.cpp</title>
<!-- Node1 -->
<g id="Node000001" class="node">
<title>Node1</title>
<g id="a_Node000001"><a xlink:title=" ">
<polygon fill="#999999" stroke="#666666" points="1222,-200 1149.75,-200 1149.75,-180 1222,-180 1222,-200"/>
<text xml:space="preserve" text-anchor="middle" x="1185.88" y="-186.5" font-family="Helvetica,sans-Serif" font-size="10.00">src/main.cpp</text>
</a>
</g>
</g>
<!-- Node2 -->
<g id="Node000002" class="node">
<title>Node2</title>
<g id="a_Node000002"><a xlink:href="main_8h.html" target="_top" xlink:title=" ">
<polygon fill="white" stroke="#666666" points="62.5,-82 17.25,-82 17.25,-62 62.5,-62 62.5,-82"/>
<text xml:space="preserve" text-anchor="middle" x="39.88" y="-68.5" font-family="Helvetica,sans-Serif" font-size="10.00">main.h</text>
</a>
</g>
</g>
<!-- Node1&#45;&gt;Node2 -->
<g id="edge1_Node000001_Node000002" class="edge">
<title>Node1&#45;&gt;Node2</title>
<g id="a_edge1_Node000001_Node000002"><a xlink:title=" ">
<path fill="none" stroke="#63b8ff" d="M1149.53,-187.79C1043.21,-184.03 723.68,-171.12 459.88,-144 373,-135.07 154.39,-113.54 70.88,-88 69.7,-87.64 68.52,-87.24 67.33,-86.82"/>
<polygon fill="#63b8ff" stroke="#63b8ff" points="68.84,-83.65 58.27,-82.97 66.11,-90.1 68.84,-83.65"/>
</a>
</g>
</g>
<!-- Node3 -->
<g id="Node000003" class="node">
<title>Node3</title>
<g id="a_Node000003"><a xlink:title=" ">
<polygon fill="#e0e0e0" stroke="#999999" points="79.75,-20 0,-20 0,0 79.75,0 79.75,-20"/>
<text xml:space="preserve" text-anchor="middle" x="39.88" y="-6.5" font-family="Helvetica,sans-Serif" font-size="10.00">hardware/spi.h</text>
</a>
</g>
</g>
<!-- Node1&#45;&gt;Node3 -->
<g id="edge4_Node000001_Node000003" class="edge">
<title>Node1&#45;&gt;Node3</title>
<g id="a_edge4_Node000001_Node000003"><a xlink:title=" ">
<path fill="none" stroke="#63b8ff" d="M1149.33,-188.76C991.28,-187.49 365.78,-180.26 172.88,-144 96.77,-129.69 52.98,-150.95 7.88,-88 -5.24,-69.7 9.38,-45.23 22.89,-28.83"/>
<polygon fill="#63b8ff" stroke="#63b8ff" points="25.49,-31.16 29.49,-21.35 20.25,-26.53 25.49,-31.16"/>
</a>
</g>
</g>
<!-- Node4 -->
<g id="Node000004" class="node">
<title>Node4</title>
<g id="a_Node000004"><a xlink:title=" ">
<polygon fill="#e0e0e0" stroke="#999999" points="125.5,-82 80.25,-82 80.25,-62 125.5,-62 125.5,-82"/>
<text xml:space="preserve" text-anchor="middle" x="102.88" y="-68.5" font-family="Helvetica,sans-Serif" font-size="10.00">stdio.h</text>
</a>
</g>
</g>
<!-- Node1&#45;&gt;Node4 -->
<g id="edge3_Node000001_Node000004" class="edge">
<title>Node1&#45;&gt;Node4</title>
<g id="a_edge3_Node000001_Node000004"><a xlink:title=" ">
<path fill="none" stroke="#63b8ff" d="M1149.29,-187.18C1056.09,-182.35 802.28,-167.88 591.88,-144 532.92,-137.31 518.71,-131.71 459.88,-124 315.78,-105.11 274.77,-127.37 134.88,-88 133.51,-87.62 132.14,-87.18 130.76,-86.7"/>
<polygon fill="#63b8ff" stroke="#63b8ff" points="132.4,-83.59 121.82,-83.05 129.75,-90.07 132.4,-83.59"/>
</a>
</g>
</g>
<!-- Node5 -->
<g id="Node000005" class="node">
<title>Node5</title>
<g id="a_Node000005"><a xlink:title=" ">
<polygon fill="#e0e0e0" stroke="#999999" points="212.12,-82 143.62,-82 143.62,-62 212.12,-62 212.12,-82"/>
<text xml:space="preserve" text-anchor="middle" x="177.88" y="-68.5" font-family="Helvetica,sans-Serif" font-size="10.00">pico/stdlib.h</text>
</a>
</g>
</g>
<!-- Node1&#45;&gt;Node5 -->
<g id="edge5_Node000001_Node000005" class="edge">
<title>Node1&#45;&gt;Node5</title>
<g id="a_edge5_Node000001_Node000005"><a xlink:title=" ">
<path fill="none" stroke="#63b8ff" d="M1149.55,-187.57C1065.77,-183.89 852.7,-172.31 676.88,-144 638.56,-137.83 630.16,-130.34 591.88,-124 428.87,-97.02 383.37,-122.89 221.88,-88 219.04,-87.39 216.14,-86.65 213.25,-85.84"/>
<polygon fill="#63b8ff" stroke="#63b8ff" points="214.29,-82.5 203.7,-82.88 212.22,-89.19 214.29,-82.5"/>
</a>
</g>
</g>
<!-- Node6 -->
<g id="Node000006" class="node">
<title>Node6</title>
<g id="a_Node000006"><a xlink:title=" ">
<polygon fill="#e0e0e0" stroke="#999999" points="1581.88,-144 1517.88,-144 1517.88,-124 1581.88,-124 1581.88,-144"/>
<text xml:space="preserve" text-anchor="middle" x="1549.88" y="-130.5" font-family="Helvetica,sans-Serif" font-size="10.00">pico/rand.h</text>
</a>
</g>
</g>
<!-- Node1&#45;&gt;Node6 -->
<g id="edge6_Node000001_Node000006" class="edge">
<title>Node1&#45;&gt;Node6</title>
<g id="a_edge6_Node000001_Node000006"><a xlink:title=" ">
<path fill="none" stroke="#63b8ff" d="M1222.22,-184.49C1281.38,-177.01 1402.16,-161.14 1503.88,-144 1504.72,-143.86 1505.57,-143.71 1506.43,-143.56"/>
<polygon fill="#63b8ff" stroke="#63b8ff" points="1507.04,-147.01 1516.25,-141.78 1505.79,-140.12 1507.04,-147.01"/>
</a>
</g>
</g>
<!-- Node7 -->
<g id="Node000007" class="node">
<title>Node7</title>
<g id="a_Node000007"><a xlink:href="tinyengine_8h.html" target="_top" xlink:title=" ">
<polygon fill="white" stroke="#666666" points="1158.12,-144 1089.62,-144 1089.62,-124 1158.12,-124 1158.12,-144"/>
<text xml:space="preserve" text-anchor="middle" x="1123.88" y="-130.5" font-family="Helvetica,sans-Serif" font-size="10.00">tinyengine.h</text>
</a>
</g>
</g>
<!-- Node1&#45;&gt;Node7 -->
<g id="edge7_Node000001_Node000007" class="edge">
<title>Node1&#45;&gt;Node7</title>
<g id="a_edge7_Node000001_Node000007"><a xlink:title=" ">
<path fill="none" stroke="#63b8ff" d="M1175.08,-179.59C1166.27,-171.93 1153.62,-160.91 1143.1,-151.75"/>
<polygon fill="#63b8ff" stroke="#63b8ff" points="1145.53,-149.22 1135.69,-145.29 1140.93,-154.5 1145.53,-149.22"/>
</a>
</g>
</g>
<!-- Node11 -->
<g id="Node000011" class="node">
<title>Node11</title>
<g id="a_Node000011"><a xlink:title=" ">
<polygon fill="#e0e0e0" stroke="#999999" points="307.25,-82 230.5,-82 230.5,-62 307.25,-62 307.25,-82"/>
<text xml:space="preserve" text-anchor="middle" x="268.88" y="-68.5" font-family="Helvetica,sans-Serif" font-size="10.00">hardware/pll.h</text>
</a>
</g>
</g>
<!-- Node1&#45;&gt;Node11 -->
<g id="edge31_Node000001_Node000011" class="edge">
<title>Node1&#45;&gt;Node11</title>
<g id="a_edge31_Node000001_Node000011"><a xlink:title=" ">
<path fill="none" stroke="#63b8ff" d="M1149.46,-188.01C1072.62,-185.34 888.53,-175.87 737.88,-144 709.96,-138.1 704.79,-129.89 676.88,-124 519.11,-90.69 473.77,-120.69 315.88,-88 312.54,-87.31 309.11,-86.47 305.7,-85.55"/>
<polygon fill="#63b8ff" stroke="#63b8ff" points="307,-82.29 296.42,-82.82 305.02,-89 307,-82.29"/>
</a>
</g>
</g>
<!-- Node12 -->
<g id="Node000012" class="node">
<title>Node12</title>
<g id="a_Node000012"><a xlink:title=" ">
<polygon fill="#e0e0e0" stroke="#999999" points="410.75,-82 325,-82 325,-62 410.75,-62 410.75,-82"/>
<text xml:space="preserve" text-anchor="middle" x="367.88" y="-68.5" font-family="Helvetica,sans-Serif" font-size="10.00">hardware/vreg.h</text>
</a>
</g>
</g>
<!-- Node1&#45;&gt;Node12 -->
<g id="edge32_Node000001_Node000012" class="edge">
<title>Node1&#45;&gt;Node12</title>
<g id="a_edge32_Node000001_Node000012"><a xlink:title=" ">
<path fill="none" stroke="#63b8ff" d="M1149.35,-188.13C1078.56,-185.72 918.19,-176.8 787.88,-144 764.66,-138.16 761.08,-129.84 737.88,-124 599.94,-89.28 559.37,-115.81 419.88,-88 416.07,-87.24 412.15,-86.34 408.24,-85.36"/>
<polygon fill="#63b8ff" stroke="#63b8ff" points="409.39,-82.04 398.82,-82.83 407.57,-88.8 409.39,-82.04"/>
</a>
</g>
</g>
<!-- Node13 -->
<g id="Node000013" class="node">
<title>Node13</title>
<g id="a_Node000013"><a xlink:title=" ">
<polygon fill="#e0e0e0" stroke="#999999" points="524.62,-82 429.12,-82 429.12,-62 524.62,-62 524.62,-82"/>
<text xml:space="preserve" text-anchor="middle" x="476.88" y="-68.5" font-family="Helvetica,sans-Serif" font-size="10.00">hardware/clocks.h</text>
</a>
</g>
</g>
<!-- Node1&#45;&gt;Node13 -->
<g id="edge33_Node000001_Node000013" class="edge">
<title>Node1&#45;&gt;Node13</title>
<g id="a_edge33_Node000001_Node000013"><a xlink:title=" ">
<path fill="none" stroke="#63b8ff" d="M1149.49,-187.73C1084.86,-184.73 946.29,-174.95 833.88,-144 812.38,-138.08 809.33,-130.06 787.88,-124 678.16,-92.99 645.64,-110.55 533.88,-88 529.77,-87.17 525.52,-86.23 521.28,-85.22"/>
<polygon fill="#63b8ff" stroke="#63b8ff" points="522.2,-81.84 511.65,-82.83 520.51,-88.63 522.2,-81.84"/>
</a>
</g>
</g>
<!-- Node14 -->
<g id="Node000014" class="node">
<title>Node14</title>
<g id="a_Node000014"><a xlink:title=" ">
<polygon fill="#e0e0e0" stroke="#999999" points="652.75,-82 543,-82 543,-62 652.75,-62 652.75,-82"/>
<text xml:space="preserve" text-anchor="middle" x="597.88" y="-68.5" font-family="Helvetica,sans-Serif" font-size="10.00">hardware/structs/pll.h</text>
</a>
</g>
</g>
<!-- Node1&#45;&gt;Node14 -->
<g id="edge34_Node000001_Node000014" class="edge">
<title>Node1&#45;&gt;Node14</title>
<g id="a_edge34_Node000001_Node000014"><a xlink:title=" ">
<path fill="none" stroke="#63b8ff" d="M1149.63,-183.05C1099.8,-174.77 1007.38,-159.1 928.88,-144 899.11,-138.27 691.47,-94.57 661.88,-88 657.55,-87.04 653.06,-86.03 648.57,-85"/>
<polygon fill="#63b8ff" stroke="#63b8ff" points="649.45,-81.61 638.92,-82.77 647.87,-88.43 649.45,-81.61"/>
</a>
</g>
</g>
<!-- Node15 -->
<g id="Node000015" class="node">
<title>Node15</title>
<g id="a_Node000015"><a xlink:title=" ">
<polygon fill="#e0e0e0" stroke="#999999" points="799.12,-82 670.62,-82 670.62,-62 799.12,-62 799.12,-82"/>
<text xml:space="preserve" text-anchor="middle" x="734.88" y="-68.5" font-family="Helvetica,sans-Serif" font-size="10.00">hardware/structs/clocks.h</text>
</a>
</g>
</g>
<!-- Node1&#45;&gt;Node15 -->
<g id="edge35_Node000001_Node000015" class="edge">
<title>Node1&#45;&gt;Node15</title>
<g id="a_edge35_Node000001_Node000015"><a xlink:title=" ">
<path fill="none" stroke="#63b8ff" d="M1149.35,-179.61C1068.31,-158.76 873.46,-108.64 782.79,-85.32"/>
<polygon fill="#63b8ff" stroke="#63b8ff" points="783.76,-81.96 773.21,-82.86 782.02,-88.74 783.76,-81.96"/>
</a>
</g>
</g>
<!-- Node16 -->
<g id="Node000016" class="node">
<title>Node16</title>
<g id="a_Node000016"><a xlink:title=" ">
<polygon fill="#e0e0e0" stroke="#999999" points="1440.75,-82 1355,-82 1355,-62 1440.75,-62 1440.75,-82"/>
<text xml:space="preserve" text-anchor="middle" x="1397.88" y="-68.5" font-family="Helvetica,sans-Serif" font-size="10.00">hardware/dma.h</text>
</a>
</g>
</g>
<!-- Node1&#45;&gt;Node16 -->
<g id="edge38_Node000001_Node000016" class="edge">
<title>Node1&#45;&gt;Node16</title>
<g id="a_edge38_Node000001_Node000016"><a xlink:title=" ">
<path fill="none" stroke="#63b8ff" d="M1186.67,-179.54C1188.38,-165.37 1193.68,-138.73 1209.88,-124 1256.14,-81.93 1285.61,-104.67 1345.88,-88 1348.65,-87.23 1351.5,-86.43 1354.38,-85.62"/>
<polygon fill="#63b8ff" stroke="#63b8ff" points="1355.34,-88.99 1364,-82.89 1353.42,-82.26 1355.34,-88.99"/>
</a>
</g>
</g>
<!-- Node17 -->
<g id="Node000017" class="node">
<title>Node17</title>
<g id="a_Node000017"><a xlink:title=" ">
<polygon fill="#e0e0e0" stroke="#999999" points="1543.38,-82 1458.38,-82 1458.38,-62 1543.38,-62 1543.38,-82"/>
<text xml:space="preserve" text-anchor="middle" x="1500.88" y="-68.5" font-family="Helvetica,sans-Serif" font-size="10.00">hardware/gpio.h</text>
</a>
</g>
</g>
<!-- Node1&#45;&gt;Node17 -->
<g id="edge39_Node000001_Node000017" class="edge">
<title>Node1&#45;&gt;Node17</title>
<g id="a_edge39_Node000001_Node000017"><a xlink:title=" ">
<path fill="none" stroke="#63b8ff" d="M1191.83,-179.69C1201.62,-165.21 1222.59,-137.57 1247.88,-124 1328.22,-80.87 1361.11,-108.9 1449.88,-88 1453.18,-87.22 1456.59,-86.36 1460.01,-85.45"/>
<polygon fill="#63b8ff" stroke="#63b8ff" points="1460.67,-88.9 1469.36,-82.84 1458.79,-82.15 1460.67,-88.9"/>
</a>
</g>
</g>
<!-- Node18 -->
<g id="Node000018" class="node">
<title>Node18</title>
<g id="a_Node000018"><a xlink:title=" ">
<polygon fill="#e0e0e0" stroke="#999999" points="1638.62,-82 1561.12,-82 1561.12,-62 1638.62,-62 1638.62,-82"/>
<text xml:space="preserve" text-anchor="middle" x="1599.88" y="-68.5" font-family="Helvetica,sans-Serif" font-size="10.00">hardware/irq.h</text>
</a>
</g>
</g>
<!-- Node1&#45;&gt;Node18 -->
<g id="edge40_Node000001_Node000018" class="edge">
<title>Node1&#45;&gt;Node18</title>
<g id="a_edge40_Node000001_Node000018"><a xlink:title=" ">
<path fill="none" stroke="#63b8ff" d="M1198.71,-179.63C1221.28,-163.33 1267.43,-130.84 1285.88,-124 1398.14,-82.36 1436.06,-114.3 1552.88,-88 1556.01,-87.29 1559.23,-86.47 1562.45,-85.59"/>
<polygon fill="#63b8ff" stroke="#63b8ff" points="1563.21,-89.01 1571.8,-82.82 1561.22,-82.3 1563.21,-89.01"/>
</a>
</g>
</g>
<!-- Node19 -->
<g id="Node000019" class="node">
<title>Node19</title>
<g id="a_Node000019"><a xlink:title=" ">
<polygon fill="#e0e0e0" stroke="#999999" points="1764.62,-88 1657.12,-88 1657.12,-56 1764.62,-56 1764.62,-88"/>
<text xml:space="preserve" text-anchor="start" x="1665.12" y="-74.5" font-family="Helvetica,sans-Serif" font-size="10.00">hardware/structs/bus</text>
<text xml:space="preserve" text-anchor="middle" x="1710.88" y="-62.5" font-family="Helvetica,sans-Serif" font-size="10.00">_ctrl.h</text>
</a>
</g>
</g>
<!-- Node1&#45;&gt;Node19 -->
<g id="edge41_Node000001_Node000019" class="edge">
<title>Node1&#45;&gt;Node19</title>
<g id="a_edge41_Node000001_Node000019"><a xlink:title=" ">
<path fill="none" stroke="#63b8ff" d="M1206.12,-179.55C1225.56,-170.47 1255.75,-156.35 1281.88,-144 1300.57,-135.17 1303.99,-129.66 1323.88,-124 1459.68,-85.31 1502.94,-111.42 1645.33,-88.27"/>
<polygon fill="#63b8ff" stroke="#63b8ff" points="1645.9,-91.72 1655.17,-86.61 1644.73,-84.82 1645.9,-91.72"/>
</a>
</g>
</g>
<!-- Node20 -->
<g id="Node000020" class="node">
<title>Node20</title>
<g id="a_Node000020"><a xlink:title=" ">
<polygon fill="#e0e0e0" stroke="#999999" points="1893.12,-88 1782.62,-88 1782.62,-56 1893.12,-56 1893.12,-88"/>
<text xml:space="preserve" text-anchor="start" x="1790.62" y="-74.5" font-family="Helvetica,sans-Serif" font-size="10.00">hardware/structs/hstx</text>
<text xml:space="preserve" text-anchor="middle" x="1837.88" y="-62.5" font-family="Helvetica,sans-Serif" font-size="10.00">_ctrl.h</text>
</a>
</g>
</g>
<!-- Node1&#45;&gt;Node20 -->
<g id="edge42_Node000001_Node000020" class="edge">
<title>Node1&#45;&gt;Node20</title>
<g id="a_edge42_Node000001_Node000020"><a xlink:title=" ">
<path fill="none" stroke="#63b8ff" d="M1215.8,-179.55C1242.53,-170.91 1282.63,-157.46 1316.88,-144 1337.24,-135.99 1340.68,-129.47 1361.88,-124 1536.28,-78.97 1590.22,-115.52 1771.21,-88.25"/>
<polygon fill="#63b8ff" stroke="#63b8ff" points="1771.63,-91.73 1780.97,-86.73 1770.55,-84.81 1771.63,-91.73"/>
</a>
</g>
</g>
<!-- Node21 -->
<g id="Node000021" class="node">
<title>Node21</title>
<g id="a_Node000021"><a xlink:title=" ">
<polygon fill="#e0e0e0" stroke="#999999" points="2022.12,-88 1911.62,-88 1911.62,-56 2022.12,-56 2022.12,-88"/>
<text xml:space="preserve" text-anchor="start" x="1919.62" y="-74.5" font-family="Helvetica,sans-Serif" font-size="10.00">hardware/structs/hstx</text>
<text xml:space="preserve" text-anchor="middle" x="1966.88" y="-62.5" font-family="Helvetica,sans-Serif" font-size="10.00">_fifo.h</text>
</a>
</g>
</g>
<!-- Node1&#45;&gt;Node21 -->
<g id="edge43_Node000001_Node000021" class="edge">
<title>Node1&#45;&gt;Node21</title>
<g id="a_edge43_Node000001_Node000021"><a xlink:title=" ">
<path fill="none" stroke="#63b8ff" d="M1222.39,-180.87C1256.75,-172.84 1309.4,-159.53 1353.88,-144 1374.92,-136.65 1378.23,-129.32 1399.88,-124 1613.5,-71.53 1678.52,-119.6 1899.96,-88.08"/>
<polygon fill="#63b8ff" stroke="#63b8ff" points="1900.43,-91.55 1909.82,-86.64 1899.42,-84.63 1900.43,-91.55"/>
</a>
</g>
</g>
<!-- Node22 -->
<g id="Node000022" class="node">
<title>Node22</title>
<g id="a_Node000022"><a xlink:title=" ">
<polygon fill="#e0e0e0" stroke="#999999" points="2153.25,-82 2040.5,-82 2040.5,-62 2153.25,-62 2153.25,-82"/>
<text xml:space="preserve" text-anchor="middle" x="2096.88" y="-68.5" font-family="Helvetica,sans-Serif" font-size="10.00">hardware/structs/sio.h</text>
</a>
</g>
</g>
<!-- Node1&#45;&gt;Node22 -->
<g id="edge44_Node000001_Node000022" class="edge">
<title>Node1&#45;&gt;Node22</title>
<g id="a_edge44_Node000001_Node000022"><a xlink:title=" ">
<path fill="none" stroke="#63b8ff" d="M1222.33,-183.11C1263.75,-175.94 1333.08,-162.46 1390.88,-144 1412.5,-137.09 1415.78,-129.21 1437.88,-124 1694.87,-63.42 1769.49,-125.38 2030.88,-88 2036.84,-87.15 2043.06,-86.03 2049.19,-84.8"/>
<polygon fill="#63b8ff" stroke="#63b8ff" points="2049.54,-88.31 2058.59,-82.79 2048.08,-81.46 2049.54,-88.31"/>
</a>
</g>
</g>
<!-- Node23 -->
<g id="Node000023" class="node">
<title>Node23</title>
<g id="a_Node000023"><a xlink:title=" ">
<polygon fill="#e0e0e0" stroke="#999999" points="2256.38,-82 2171.38,-82 2171.38,-62 2256.38,-62 2256.38,-82"/>
<text xml:space="preserve" text-anchor="middle" x="2213.88" y="-68.5" font-family="Helvetica,sans-Serif" font-size="10.00">pico/multicore.h</text>
</a>
</g>
</g>
<!-- Node1&#45;&gt;Node23 -->
<g id="edge45_Node000001_Node000023" class="edge">
<title>Node1&#45;&gt;Node23</title>
<g id="a_edge45_Node000001_Node000023"><a xlink:title=" ">
<path fill="none" stroke="#63b8ff" d="M1222.28,-184.79C1270.33,-178.66 1357.19,-165.6 1428.88,-144 1450.61,-137.45 1453.76,-129.12 1475.88,-124 1773.33,-55.18 1860.8,-138.64 2161.88,-88 2166.01,-87.3 2170.28,-86.4 2174.52,-85.37"/>
<polygon fill="#63b8ff" stroke="#63b8ff" points="2175.31,-88.78 2184.07,-82.83 2173.51,-82.02 2175.31,-88.78"/>
</a>
</g>
</g>
<!-- Node24 -->
<g id="Node000024" class="node">
<title>Node24</title>
<g id="a_Node000024"><a xlink:title=" ">
<polygon fill="#e0e0e0" stroke="#999999" points="2338.88,-82 2274.88,-82 2274.88,-62 2338.88,-62 2338.88,-82"/>
<text xml:space="preserve" text-anchor="middle" x="2306.88" y="-68.5" font-family="Helvetica,sans-Serif" font-size="10.00">pico/sem.h</text>
</a>
</g>
</g>
<!-- Node1&#45;&gt;Node24 -->
<g id="edge46_Node000001_Node000024" class="edge">
<title>Node1&#45;&gt;Node24</title>
<g id="a_edge46_Node000001_Node000024"><a xlink:title=" ">
<path fill="none" stroke="#63b8ff" d="M1222.11,-186.52C1276.37,-182.06 1381.49,-170.56 1466.88,-144 1486.62,-137.86 1488.82,-129.03 1508.88,-124 1835.56,-41.98 1935.71,-154.63 2265.88,-88 2268.67,-87.44 2271.53,-86.71 2274.37,-85.89"/>
<polygon fill="#63b8ff" stroke="#63b8ff" points="2275.26,-89.28 2283.66,-82.83 2273.07,-82.64 2275.26,-89.28"/>
</a>
</g>
</g>
<!-- Node27 -->
<g id="Node000027" class="node">
<title>Node27</title>
<g id="a_Node000027"><a xlink:href="_game_8h.html" target="_top" xlink:title="Abstract definition file for Games.">
<polygon fill="white" stroke="#666666" points="230,-144 181.75,-144 181.75,-124 230,-124 230,-144"/>
<text xml:space="preserve" text-anchor="middle" x="205.88" y="-130.5" font-family="Helvetica,sans-Serif" font-size="10.00">game.h</text>
</a>
</g>
</g>
<!-- Node1&#45;&gt;Node27 -->
<g id="edge36_Node000001_Node000027" class="edge">
<title>Node1&#45;&gt;Node27</title>
<g id="a_edge36_Node000001_Node000027"><a xlink:title=" ">
<path fill="none" stroke="#63b8ff" d="M1149.54,-187C995.24,-178.5 395.17,-145.43 241.75,-136.98"/>
<polygon fill="#63b8ff" stroke="#63b8ff" points="241.98,-133.48 231.8,-136.43 241.59,-140.47 241.98,-133.48"/>
</a>
</g>
</g>
<!-- Node28 -->
<g id="Node000028" class="node">
<title>Node28</title>
<g id="a_Node000028"><a xlink:title=" ">
<polygon fill="#e0e0e0" stroke="#999999" points="1709.38,-144 1600.38,-144 1600.38,-124 1709.38,-124 1709.38,-144"/>
<text xml:space="preserve" text-anchor="middle" x="1654.88" y="-130.5" font-family="Helvetica,sans-Serif" font-size="10.00">hardware/exception.h</text>
</a>
</g>
</g>
<!-- Node1&#45;&gt;Node28 -->
<g id="edge47_Node000001_Node000028" class="edge">
<title>Node1&#45;&gt;Node28</title>
<g id="a_edge47_Node000001_Node000028"><a xlink:title=" ">
<path fill="none" stroke="#63b8ff" d="M1222.5,-185.29C1291.78,-178.2 1447.08,-161.92 1589.01,-144.2"/>
<polygon fill="#63b8ff" stroke="#63b8ff" points="1589.09,-147.72 1598.57,-143 1588.22,-140.77 1589.09,-147.72"/>
</a>
</g>
</g>
<!-- Node29 -->
<g id="Node000029" class="node">
<title>Node29</title>
<g id="a_Node000029"><a xlink:title=" ">
<polygon fill="#e0e0e0" stroke="#999999" points="1822.62,-144 1727.12,-144 1727.12,-124 1822.62,-124 1822.62,-144"/>
<text xml:space="preserve" text-anchor="middle" x="1774.88" y="-130.5" font-family="Helvetica,sans-Serif" font-size="10.00">distance_sensor.h</text>
</a>
</g>
</g>
<!-- Node1&#45;&gt;Node29 -->
<g id="edge48_Node000001_Node000029" class="edge">
<title>Node1&#45;&gt;Node29</title>
<g id="a_edge48_Node000001_Node000029"><a xlink:title=" ">
<path fill="none" stroke="#63b8ff" d="M1222.48,-186.86C1307.33,-181.7 1524.22,-167.34 1715.26,-144.37"/>
<polygon fill="#63b8ff" stroke="#63b8ff" points="1715.64,-147.85 1725.14,-143.17 1714.79,-140.9 1715.64,-147.85"/>
</a>
</g>
</g>
<!-- Node2&#45;&gt;Node3 -->
<g id="edge2_Node000002_Node000003" class="edge">
<title>Node2&#45;&gt;Node3</title>
<g id="a_edge2_Node000002_Node000003"><a xlink:title=" ">
<path fill="none" stroke="#63b8ff" d="M39.88,-61.62C39.88,-53.56 39.88,-41.65 39.88,-31.41"/>
<polygon fill="#63b8ff" stroke="#63b8ff" points="43.38,-31.63 39.88,-21.63 36.38,-31.63 43.38,-31.63"/>
</a>
</g>
</g>
<!-- Node7&#45;&gt;Node3 -->
<g id="edge10_Node000007_Node000003" class="edge">
<title>Node7&#45;&gt;Node3</title>
<g id="a_edge10_Node000007_Node000003"><a xlink:title=" ">
<path fill="none" stroke="#63b8ff" d="M1089.19,-129.72C1024.64,-123.22 888.7,-107.65 845.88,-88 825.81,-78.79 828.39,-64.17 807.88,-56 741.75,-29.65 253.25,-15.98 91.63,-12.14"/>
<polygon fill="#63b8ff" stroke="#63b8ff" points="91.72,-8.65 81.64,-11.91 91.55,-15.64 91.72,-8.65"/>
</a>
</g>
</g>
<!-- Node7&#45;&gt;Node4 -->
<g id="edge9_Node000007_Node000004" class="edge">
<title>Node7&#45;&gt;Node4</title>
<g id="a_edge9_Node000007_Node000004"><a xlink:title=" ">
<path fill="none" stroke="#63b8ff" d="M1089.38,-132.23C925.44,-128.47 229,-111.22 134.88,-88 133.27,-87.6 131.66,-87.13 130.04,-86.59"/>
<polygon fill="#63b8ff" stroke="#63b8ff" points="131.67,-83.47 121.09,-82.96 129.04,-89.96 131.67,-83.47"/>
</a>
</g>
</g>
<!-- Node7&#45;&gt;Node5 -->
<g id="edge8_Node000007_Node000005" class="edge">
<title>Node7&#45;&gt;Node5</title>
<g id="a_edge8_Node000007_Node000005"><a xlink:title=" ">
<path fill="none" stroke="#63b8ff" d="M1089.42,-132.56C945.6,-130.54 392.81,-120.73 221.88,-88 218.86,-87.42 215.77,-86.68 212.69,-85.85"/>
<polygon fill="#63b8ff" stroke="#63b8ff" points="213.79,-82.52 203.2,-82.93 211.73,-89.22 213.79,-82.52"/>
</a>
</g>
</g>
<!-- Node8 -->
<g id="Node000008" class="node">
<title>Node8</title>
<g id="a_Node000008"><a xlink:title=" ">
<polygon fill="#e0e0e0" stroke="#999999" points="903,-82 854.75,-82 854.75,-62 903,-62 903,-82"/>
<text xml:space="preserve" text-anchor="middle" x="878.88" y="-68.5" font-family="Helvetica,sans-Serif" font-size="10.00">stdint.h</text>
</a>
</g>
</g>
<!-- Node7&#45;&gt;Node8 -->
<g id="edge11_Node000007_Node000008" class="edge">
<title>Node7&#45;&gt;Node8</title>
<g id="a_edge11_Node000007_Node000008"><a xlink:title=" ">
<path fill="none" stroke="#63b8ff" d="M1089.49,-128.06C1047.05,-121.43 972.99,-108.11 911.88,-88 910.71,-87.62 909.53,-87.2 908.35,-86.77"/>
<polygon fill="#63b8ff" stroke="#63b8ff" points="909.77,-83.57 899.19,-83.02 907.12,-90.05 909.77,-83.57"/>
</a>
</g>
</g>
<!-- Node9 -->
<g id="Node000009" class="node">
<title>Node9</title>
<g id="a_Node000009"><a xlink:href="tinyengine__scene_8h.html" target="_top" xlink:title=" ">
<polygon fill="white" stroke="#666666" points="1020.88,-82 920.88,-82 920.88,-62 1020.88,-62 1020.88,-82"/>
<text xml:space="preserve" text-anchor="middle" x="970.88" y="-68.5" font-family="Helvetica,sans-Serif" font-size="10.00">tinyengine_scene.h</text>
</a>
</g>
</g>
<!-- Node7&#45;&gt;Node9 -->
<g id="edge12_Node000007_Node000009" class="edge">
<title>Node7&#45;&gt;Node9</title>
<g id="a_edge12_Node000007_Node000009"><a xlink:title=" ">
<path fill="none" stroke="#63b8ff" d="M1099.97,-123.62C1074.56,-113.66 1034.13,-97.81 1005.3,-86.5"/>
<polygon fill="#63b8ff" stroke="#63b8ff" points="1006.86,-83.35 996.27,-82.96 1004.31,-89.87 1006.86,-83.35"/>
</a>
</g>
</g>
<!-- Node10 -->
<g id="Node000010" class="node">
<title>Node10</title>
<g id="a_Node000010"><a xlink:title=" ">
<polygon fill="#e0e0e0" stroke="#999999" points="1121.25,-82 1038.5,-82 1038.5,-62 1121.25,-62 1121.25,-82"/>
<text xml:space="preserve" text-anchor="middle" x="1079.88" y="-68.5" font-family="Helvetica,sans-Serif" font-size="10.00">unordered_map</text>
</a>
</g>
</g>
<!-- Node7&#45;&gt;Node10 -->
<g id="edge13_Node000007_Node000010" class="edge">
<title>Node7&#45;&gt;Node10</title>
<g id="a_edge13_Node000007_Node000010"><a xlink:title=" ">
<path fill="none" stroke="#63b8ff" d="M1117,-123.62C1110.63,-114.94 1100.99,-101.8 1093.13,-91.08"/>
<polygon fill="#63b8ff" stroke="#63b8ff" points="1096.19,-89.33 1087.45,-83.33 1090.54,-93.47 1096.19,-89.33"/>
</a>
</g>
</g>
<!-- Node7&#45;&gt;Node11 -->
<g id="edge14_Node000007_Node000011" class="edge">
<title>Node7&#45;&gt;Node11</title>
<g id="a_edge14_Node000007_Node000011"><a xlink:title=" ">
<path fill="none" stroke="#63b8ff" d="M1089.45,-132.24C955.35,-129.11 467.86,-116.02 315.88,-88 312.45,-87.37 308.92,-86.56 305.42,-85.64"/>
<polygon fill="#63b8ff" stroke="#63b8ff" points="306.47,-82.3 295.89,-82.87 304.51,-89.02 306.47,-82.3"/>
</a>
</g>
</g>
<!-- Node7&#45;&gt;Node12 -->
<g id="edge15_Node000007_Node000012" class="edge">
<title>Node7&#45;&gt;Node12</title>
<g id="a_edge15_Node000007_Node000012"><a xlink:title=" ">
<path fill="none" stroke="#63b8ff" d="M1089.38,-131.79C966.56,-127.31 550.94,-110.81 419.88,-88 415.79,-87.29 411.58,-86.38 407.39,-85.36"/>
<polygon fill="#63b8ff" stroke="#63b8ff" points="408.52,-82.04 397.96,-82.85 406.72,-88.8 408.52,-82.04"/>
</a>
</g>
</g>
<!-- Node7&#45;&gt;Node13 -->
<g id="edge16_Node000007_Node000013" class="edge">
<title>Node7&#45;&gt;Node13</title>
<g id="a_edge16_Node000007_Node000013"><a xlink:title=" ">
<path fill="none" stroke="#63b8ff" d="M1089.36,-132.55C998.05,-130.88 742.81,-123.16 533.88,-88 529.22,-87.22 524.39,-86.23 519.61,-85.14"/>
<polygon fill="#63b8ff" stroke="#63b8ff" points="520.62,-81.78 510.08,-82.8 518.96,-88.58 520.62,-81.78"/>
</a>
</g>
</g>
<!-- Node7&#45;&gt;Node14 -->
<g id="edge17_Node000007_Node000014" class="edge">
<title>Node7&#45;&gt;Node14</title>
<g id="a_edge17_Node000007_Node000014"><a xlink:title=" ">
<path fill="none" stroke="#63b8ff" d="M1089.19,-131.2C1011.99,-126.86 820.3,-114.16 661.88,-88 656.59,-87.13 651.1,-86.07 645.65,-84.93"/>
<polygon fill="#63b8ff" stroke="#63b8ff" points="646.59,-81.55 636.07,-82.82 645.08,-88.39 646.59,-81.55"/>
</a>
</g>
</g>
<!-- Node7&#45;&gt;Node15 -->
<g id="edge18_Node000007_Node000015" class="edge">
<title>Node7&#45;&gt;Node15</title>
<g id="a_edge18_Node000007_Node000015"><a xlink:title=" ">
<path fill="none" stroke="#63b8ff" d="M1089.28,-128.53C1031.77,-120.97 912.94,-104.85 812.88,-88 806.52,-86.93 799.88,-85.75 793.27,-84.53"/>
<polygon fill="#63b8ff" stroke="#63b8ff" points="794.21,-81.15 783.73,-82.75 792.92,-88.03 794.21,-81.15"/>
</a>
</g>
</g>
<!-- Node7&#45;&gt;Node16 -->
<g id="edge19_Node000007_Node000016" class="edge">
<title>Node7&#45;&gt;Node16</title>
<g id="a_edge19_Node000007_Node000016"><a xlink:title=" ">
<path fill="none" stroke="#63b8ff" d="M1158.34,-126.37C1211.42,-116.09 1310.74,-96.61 1345.88,-88 1349.04,-87.22 1352.3,-86.38 1355.58,-85.51"/>
<polygon fill="#63b8ff" stroke="#63b8ff" points="1356.47,-88.89 1365.18,-82.86 1354.61,-82.15 1356.47,-88.89"/>
</a>
</g>
</g>
<!-- Node7&#45;&gt;Node17 -->
<g id="edge20_Node000007_Node000017" class="edge">
<title>Node7&#45;&gt;Node17</title>
<g id="a_edge20_Node000007_Node000017"><a xlink:title=" ">
<path fill="none" stroke="#63b8ff" d="M1158.52,-128.88C1230.63,-120.2 1394.71,-99.85 1449.88,-88 1453.28,-87.27 1456.8,-86.42 1460.31,-85.52"/>
<polygon fill="#63b8ff" stroke="#63b8ff" points="1461.22,-88.9 1469.94,-82.88 1459.37,-82.15 1461.22,-88.9"/>
</a>
</g>
</g>
<!-- Node7&#45;&gt;Node18 -->
<g id="edge21_Node000007_Node000018" class="edge">
<title>Node7&#45;&gt;Node18</title>
<g id="a_edge21_Node000007_Node000018"><a xlink:title=" ">
<path fill="none" stroke="#63b8ff" d="M1158.58,-130.28C1246.72,-123.23 1477.57,-103.79 1552.88,-88 1556.2,-87.3 1559.63,-86.46 1563.05,-85.53"/>
<polygon fill="#63b8ff" stroke="#63b8ff" points="1563.72,-88.98 1572.33,-82.8 1561.75,-82.27 1563.72,-88.98"/>
</a>
</g>
</g>
<!-- Node7&#45;&gt;Node19 -->
<g id="edge22_Node000007_Node000019" class="edge">
<title>Node7&#45;&gt;Node19</title>
<g id="a_edge22_Node000007_Node000019"><a xlink:title=" ">
<path fill="none" stroke="#63b8ff" d="M1158.3,-130.71C1255.72,-124.14 1533.03,-104.69 1645.39,-88.18"/>
<polygon fill="#63b8ff" stroke="#63b8ff" points="1645.84,-91.66 1655.19,-86.67 1644.77,-84.74 1645.84,-91.66"/>
</a>
</g>
</g>
<!-- Node7&#45;&gt;Node20 -->
<g id="edge23_Node000007_Node000020" class="edge">
<title>Node7&#45;&gt;Node20</title>
<g id="a_edge23_Node000007_Node000020"><a xlink:title=" ">
<path fill="none" stroke="#63b8ff" d="M1158.48,-131.34C1271.95,-125.79 1632.87,-107.23 1771.02,-88.23"/>
<polygon fill="#63b8ff" stroke="#63b8ff" points="1771.23,-91.73 1780.63,-86.84 1770.23,-84.8 1771.23,-91.73"/>
</a>
</g>
</g>
<!-- Node7&#45;&gt;Node21 -->
<g id="edge24_Node000007_Node000021" class="edge">
<title>Node7&#45;&gt;Node21</title>
<g id="a_edge24_Node000007_Node000021"><a xlink:title=" ">
<path fill="none" stroke="#63b8ff" d="M1158.29,-131.78C1286.12,-127.15 1734.29,-109.84 1900.33,-87.98"/>
<polygon fill="#63b8ff" stroke="#63b8ff" points="1900.39,-91.51 1909.82,-86.68 1899.44,-84.57 1900.39,-91.51"/>
</a>
</g>
</g>
<!-- Node7&#45;&gt;Node22 -->
<g id="edge25_Node000007_Node000022" class="edge">
<title>Node7&#45;&gt;Node22</title>
<g id="a_edge25_Node000007_Node000022"><a xlink:title=" ">
<path fill="none" stroke="#63b8ff" d="M1158.49,-131.64C1313.88,-125.49 1943.36,-100.02 2030.88,-88 2036.91,-87.17 2043.22,-86.06 2049.43,-84.82"/>
<polygon fill="#63b8ff" stroke="#63b8ff" points="2049.9,-88.3 2058.95,-82.79 2048.44,-81.45 2049.9,-88.3"/>
</a>
</g>
</g>
<!-- Node7&#45;&gt;Node23 -->
<g id="edge26_Node000007_Node000023" class="edge">
<title>Node7&#45;&gt;Node23</title>
<g id="a_edge26_Node000007_Node000023"><a xlink:title=" ">
<path fill="none" stroke="#63b8ff" d="M1158.59,-131.99C1327.71,-126.98 2061.19,-104.46 2161.88,-88 2166.01,-87.32 2170.29,-86.43 2174.53,-85.41"/>
<polygon fill="#63b8ff" stroke="#63b8ff" points="2175.31,-88.82 2184.08,-82.88 2173.52,-82.05 2175.31,-88.82"/>
</a>
</g>
</g>
<!-- Node7&#45;&gt;Node24 -->
<g id="edge27_Node000007_Node000024" class="edge">
<title>Node7&#45;&gt;Node24</title>
<g id="a_edge27_Node000007_Node000024"><a xlink:title=" ">
<path fill="none" stroke="#63b8ff" d="M1158.35,-131.94C1343.16,-126.24 2210.25,-98.99 2265.88,-88 2268.67,-87.45 2271.53,-86.73 2274.38,-85.92"/>
<polygon fill="#63b8ff" stroke="#63b8ff" points="2275.26,-89.31 2283.67,-82.86 2273.08,-82.66 2275.26,-89.31"/>
</a>
</g>
</g>
<!-- Node25 -->
<g id="Node000025" class="node">
<title>Node25</title>
<g id="a_Node000025"><a xlink:title=" ">
<polygon fill="#e0e0e0" stroke="#999999" points="1196.88,-82 1138.88,-82 1138.88,-62 1196.88,-62 1196.88,-82"/>
<text xml:space="preserve" text-anchor="middle" x="1167.88" y="-68.5" font-family="Helvetica,sans-Serif" font-size="10.00">functional</text>
</a>
</g>
</g>
<!-- Node7&#45;&gt;Node25 -->
<g id="edge28_Node000007_Node000025" class="edge">
<title>Node7&#45;&gt;Node25</title>
<g id="a_edge28_Node000007_Node000025"><a xlink:title=" ">
<path fill="none" stroke="#63b8ff" d="M1130.75,-123.62C1137.12,-114.94 1146.76,-101.8 1154.62,-91.08"/>
<polygon fill="#63b8ff" stroke="#63b8ff" points="1157.21,-93.47 1160.3,-83.33 1151.56,-89.33 1157.21,-93.47"/>
</a>
</g>
</g>
<!-- Node26 -->
<g id="Node000026" class="node">
<title>Node26</title>
<g id="a_Node000026"><a xlink:href="tinyengine__framebuffer_8h.html" target="_top" xlink:title=" ">
<polygon fill="white" stroke="#666666" points="1337.12,-82 1214.62,-82 1214.62,-62 1337.12,-62 1337.12,-82"/>
<text xml:space="preserve" text-anchor="middle" x="1275.88" y="-68.5" font-family="Helvetica,sans-Serif" font-size="10.00">tinyengine_framebuffer.h</text>
</a>
</g>
</g>
<!-- Node7&#45;&gt;Node26 -->
<g id="edge29_Node000007_Node000026" class="edge">
<title>Node7&#45;&gt;Node26</title>
<g id="a_edge29_Node000007_Node000026"><a xlink:title=" ">
<path fill="none" stroke="#63b8ff" d="M1142.56,-123.62C1165.92,-113.62 1206.1,-97.67 1236.33,-86.35"/>
<polygon fill="#63b8ff" stroke="#63b8ff" points="1237.39,-89.69 1245.55,-82.93 1234.96,-83.13 1237.39,-89.69"/>
</a>
</g>
</g>
<!-- Node26&#45;&gt;Node7 -->
<g id="edge30_Node000026_Node000007" class="edge">
<title>Node26&#45;&gt;Node7</title>
<g id="a_edge30_Node000026_Node000007"><a xlink:title=" ">
<path fill="none" stroke="#63b8ff" d="M1257.34,-82.31C1233.99,-92.32 1193.66,-108.33 1163.35,-119.68"/>
<polygon fill="#63b8ff" stroke="#63b8ff" points="1162.27,-116.34 1154.11,-123.1 1164.7,-122.91 1162.27,-116.34"/>
</a>
</g>
</g>
<!-- Node27&#45;&gt;Node2 -->
<g id="edge37_Node000027_Node000002" class="edge">
<title>Node27&#45;&gt;Node2</title>
<g id="a_edge37_Node000027_Node000002"><a xlink:title=" ">
<path fill="none" stroke="#63b8ff" d="M181.64,-125.95C154.35,-117.78 108.87,-103.45 70.88,-88 70.11,-87.69 69.33,-87.36 68.55,-87.03"/>
<polygon fill="#63b8ff" stroke="#63b8ff" points="70.32,-83.99 59.77,-83.06 67.44,-90.37 70.32,-83.99"/>
</a>
</g>
</g>
</g>
</svg>

<g id="navigator" transform="translate(0 0)" fill="#404254">
  <rect fill="#f2f5e9" fill-opacity="0.5" stroke="#606060" stroke-width=".5" x="0" y="0" width="60" height="60"/>
  <use id="zoomplus" xlink:href="#zoomPlus" x="17" y="9" onmousedown="handleZoom(evt,'in')"/>
  <use id="zoomminus" xlink:href="#zoomMin" x="42" y="9" onmousedown="handleZoom(evt,'out')"/>
  <use id="reset" xlink:href="#resetDef" x="30" y="36" onmousedown="handleReset()"/>
   <use id="arrowup" xlink:href="#arrowUp" x="0" y="0" onmousedown="handlePan(0,-1)"/>
  <use id="arrowright" xlink:href="#arrowRight" x="0" y="0" onmousedown="handlePan(1,0)"/>
  <use id="arrowdown" xlink:href="#arrowDown" x="0" y="0" onmousedown="handlePan(0,1)"/>
  <use id="arrowleft" xlink:href="#arrowLeft" x="0" y="0" onmousedown="handlePan(-1,0)"/>
</g>
<svg viewBox="0 0 15 15" width="100%" height="30px" preserveAspectRatio="xMaxYMin meet">
 <g id="arrow_out" transform="scale(0.3 0.3)">
  <a xlink:href="main_8cpp__incl_org.svg" target="_base">
   <rect id="button" ry="5" rx="5" y="6" x="6" height="38" width="38"
        fill="#f2f5e9" fill-opacity="0.5" stroke="#606060" stroke-width="1.0"/>
   <path id="arrow"
     d="M 11.500037,31.436501 C 11.940474,20.09759 22.043105,11.32322 32.158766,21.979434 L 37.068811,17.246167 C 37.068811,17.246167 37.088388,32 37.088388,32 L 22.160133,31.978069 C 22.160133,31.978069 26.997745,27.140456 26.997745,27.140456 C 18.528582,18.264221 13.291696,25.230495 11.500037,31.436501 z"
     style="fill:#404040;"/>
  </a>
 </g>
</svg>

<style type='text/css'>
<![CDATA[
[data-mouse-over-selected='false'] { opacity: 0.7; }
[data-mouse-over-selected='true']  { opacity: 1.0; }
]]>
</style>
<script type="application/ecmascript"><![CDATA[
document.addEventListener('DOMContentLoaded', (event) => {
  highlightEdges();
  highlightAdjacentNodes();
});
]]></script>
</svg>
