<?xml version="1.0" encoding="UTF-8" standalone="no"?>
<!DOCTYPE svg PUBLIC "-//W3C//DTD SVG 1.1//EN"
 "http://www.w3.org/Graphics/SVG/1.1/DTD/svg11.dtd">
<!-- Generated by graphviz version 13.1.2 (20250808.2320)
 -->
<!-- Title: inc/main.h Pages: 1 -->
<svg width="584pt" height="208pt"
 viewBox="0.00 0.00 584.00 208.00" xmlns="http://www.w3.org/2000/svg" xmlns:xlink="http://www.w3.org/1999/xlink">
<g id="graph0" class="graph" transform="scale(1 1) rotate(0) translate(4 204)">
<title>inc/main.h</title>
<!-- Node1 -->
<g id="Node000001" class="node">
<title>Node1</title>
<g id="a_Node000001"><a xlink:title=" ">
<polygon fill="#999999" stroke="#666666" points="345.25,-200 284.25,-200 284.25,-180 345.25,-180 345.25,-200"/>
<text xml:space="preserve" text-anchor="middle" x="314.75" y="-186.5" font-family="Helvetica,sans-Serif" font-size="10.00">inc/main.h</text>
</a>
</g>
</g>
<!-- Node2 -->
<g id="Node000002" class="node">
<title>Node2</title>
<g id="a_Node000002"><a xlink:href="_game_8h.html" target="_top" xlink:title="Abstract definition file for Games.">
<polygon fill="white" stroke="#666666" points="221.88,-138 155.62,-138 155.62,-118 221.88,-118 221.88,-138"/>
<text xml:space="preserve" text-anchor="middle" x="188.75" y="-124.5" font-family="Helvetica,sans-Serif" font-size="10.00">inc/Game.h</text>
</a>
</g>
</g>
<!-- Node1&#45;&gt;Node2 -->
<g id="edge1_Node000001_Node000002" class="edge">
<title>Node1&#45;&gt;Node2</title>
<g id="a_edge1_Node000001_Node000002"><a xlink:title=" ">
<path fill="none" stroke="#63b8ff" d="M284.87,-174.77C261.18,-163.49 228.77,-148.06 208.3,-138.31"/>
<polygon fill="#63b8ff" stroke="#63b8ff" points="283.16,-177.83 293.7,-178.97 286.17,-171.51 283.16,-177.83"/>
</a>
</g>
</g>
<!-- Node4 -->
<g id="Node000004" class="node">
<title>Node4</title>
<g id="a_Node000004"><a xlink:href="main_8cpp.html" target="_top" xlink:title=" ">
<polygon fill="white" stroke="#666666" points="314.88,-76 242.62,-76 242.62,-56 314.88,-56 314.88,-76"/>
<text xml:space="preserve" text-anchor="middle" x="278.75" y="-62.5" font-family="Helvetica,sans-Serif" font-size="10.00">src/main.cpp</text>
</a>
</g>
</g>
<!-- Node1&#45;&gt;Node4 -->
<g id="edge7_Node000001_Node000004" class="edge">
<title>Node1&#45;&gt;Node4</title>
<g id="a_edge7_Node000001_Node000004"><a xlink:title=" ">
<path fill="none" stroke="#63b8ff" d="M298.25,-170.83C292.25,-163.12 286.12,-153.68 282.75,-144 274.65,-120.74 276.13,-91.14 277.6,-76.33"/>
<polygon fill="#63b8ff" stroke="#63b8ff" points="295.49,-172.99 304.6,-178.41 300.86,-168.49 295.49,-172.99"/>
</a>
</g>
</g>
<!-- Node8 -->
<g id="Node000008" class="node">
<title>Node8</title>
<g id="a_Node000008"><a xlink:href="tinyengine__framebuffer_8cpp.html" target="_top" xlink:title=" ">
<polygon fill="white" stroke="#666666" points="441.5,-138 292,-138 292,-118 441.5,-118 441.5,-138"/>
<text xml:space="preserve" text-anchor="middle" x="366.75" y="-124.5" font-family="Helvetica,sans-Serif" font-size="10.00">src/tinyengine_framebuffer.cpp</text>
</a>
</g>
</g>
<!-- Node1&#45;&gt;Node8 -->
<g id="edge8_Node000001_Node000008" class="edge">
<title>Node1&#45;&gt;Node8</title>
<g id="a_edge8_Node000001_Node000008"><a xlink:title=" ">
<path fill="none" stroke="#63b8ff" d="M330.13,-171.25C339.57,-160.36 351.26,-146.88 358.85,-138.11"/>
<polygon fill="#63b8ff" stroke="#63b8ff" points="327.77,-168.63 323.87,-178.48 333.06,-173.22 327.77,-168.63"/>
</a>
</g>
</g>
<!-- Node9 -->
<g id="Node000009" class="node">
<title>Node9</title>
<g id="a_Node000009"><a xlink:href="tinyengine__renderer__dvi_8cpp.html" target="_top" xlink:title=" ">
<polygon fill="white" stroke="#666666" points="576.38,-144 459.12,-144 459.12,-112 576.38,-112 576.38,-144"/>
<text xml:space="preserve" text-anchor="start" x="467.12" y="-130.5" font-family="Helvetica,sans-Serif" font-size="10.00">src/tinyengine_renderer</text>
<text xml:space="preserve" text-anchor="middle" x="517.75" y="-118.5" font-family="Helvetica,sans-Serif" font-size="10.00">_dvi.cpp</text>
</a>
</g>
</g>
<!-- Node1&#45;&gt;Node9 -->
<g id="edge9_Node000001_Node000009" class="edge">
<title>Node1&#45;&gt;Node9</title>
<g id="a_edge9_Node000001_Node000009"><a xlink:title=" ">
<path fill="none" stroke="#63b8ff" d="M356.23,-176.74C387.88,-167.39 431.67,-154.44 465.67,-144.39"/>
<polygon fill="#63b8ff" stroke="#63b8ff" points="355.63,-173.27 347.03,-179.46 357.61,-179.98 355.63,-173.27"/>
</a>
</g>
</g>
<!-- Node3 -->
<g id="Node000003" class="node">
<title>Node3</title>
<g id="a_Node000003"><a xlink:href="_game_8cpp.html" target="_top" xlink:title=" ">
<polygon fill="white" stroke="#666666" points="77.5,-76 0,-76 0,-56 77.5,-56 77.5,-76"/>
<text xml:space="preserve" text-anchor="middle" x="38.75" y="-62.5" font-family="Helvetica,sans-Serif" font-size="10.00">src/Game.cpp</text>
</a>
</g>
</g>
<!-- Node2&#45;&gt;Node3 -->
<g id="edge2_Node000002_Node000003" class="edge">
<title>Node2&#45;&gt;Node3</title>
<g id="a_edge2_Node000002_Node000003"><a xlink:title=" ">
<path fill="none" stroke="#63b8ff" d="M154.69,-113.38C126.38,-102.05 86.84,-86.23 62.02,-76.31"/>
<polygon fill="#63b8ff" stroke="#63b8ff" points="153.32,-116.6 163.91,-117.06 155.92,-110.1 153.32,-116.6"/>
</a>
</g>
</g>
<!-- Node2&#45;&gt;Node4 -->
<g id="edge3_Node000002_Node000004" class="edge">
<title>Node2&#45;&gt;Node4</title>
<g id="a_edge3_Node000002_Node000004"><a xlink:title=" ">
<path fill="none" stroke="#63b8ff" d="M211.95,-111.54C228.67,-100.39 250.69,-85.71 264.79,-76.31"/>
<polygon fill="#63b8ff" stroke="#63b8ff" points="210.45,-108.33 204.07,-116.79 214.33,-114.15 210.45,-108.33"/>
</a>
</g>
</g>
<!-- Node5 -->
<g id="Node000005" class="node">
<title>Node5</title>
<g id="a_Node000005"><a xlink:href="_snake_game_8h.html" target="_top" xlink:title=" ">
<polygon fill="white" stroke="#666666" points="224.38,-76 95.12,-76 95.12,-56 224.38,-56 224.38,-76"/>
<text xml:space="preserve" text-anchor="middle" x="159.75" y="-62.5" font-family="Helvetica,sans-Serif" font-size="10.00">src/scenes/SnakeGame.h</text>
</a>
</g>
</g>
<!-- Node2&#45;&gt;Node5 -->
<g id="edge4_Node000002_Node000005" class="edge">
<title>Node2&#45;&gt;Node5</title>
<g id="a_edge4_Node000002_Node000005"><a xlink:title=" ">
<path fill="none" stroke="#63b8ff" d="M179.21,-107.27C174.14,-96.76 168.14,-84.35 164.15,-76.11"/>
<polygon fill="#63b8ff" stroke="#63b8ff" points="176.06,-108.78 183.56,-116.26 182.36,-105.74 176.06,-108.78"/>
</a>
</g>
</g>
<!-- Node6 -->
<g id="Node000006" class="node">
<title>Node6</title>
<g id="a_Node000006"><a xlink:href="_dino_game_8cpp.html" target="_top" xlink:title=" ">
<polygon fill="white" stroke="#666666" points="148.88,-20 16.62,-20 16.62,0 148.88,0 148.88,-20"/>
<text xml:space="preserve" text-anchor="middle" x="82.75" y="-6.5" font-family="Helvetica,sans-Serif" font-size="10.00">src/scenes/DinoGame.cpp</text>
</a>
</g>
</g>
<!-- Node5&#45;&gt;Node6 -->
<g id="edge5_Node000005_Node000006" class="edge">
<title>Node5&#45;&gt;Node6</title>
<g id="a_edge5_Node000005_Node000006"><a xlink:title=" ">
<path fill="none" stroke="#63b8ff" d="M136.93,-49C123.7,-39.72 107.49,-28.35 96.27,-20.48"/>
<polygon fill="#63b8ff" stroke="#63b8ff" points="134.9,-51.85 145.1,-54.72 138.92,-46.12 134.9,-51.85"/>
</a>
</g>
</g>
<!-- Node7 -->
<g id="Node000007" class="node">
<title>Node7</title>
<g id="a_Node000007"><a xlink:href="_snake_game_8cpp.html" target="_top" xlink:title=" ">
<polygon fill="white" stroke="#666666" points="306.62,-20 166.88,-20 166.88,0 306.62,0 306.62,-20"/>
<text xml:space="preserve" text-anchor="middle" x="236.75" y="-6.5" font-family="Helvetica,sans-Serif" font-size="10.00">src/scenes/SnakeGame.cpp</text>
</a>
</g>
</g>
<!-- Node5&#45;&gt;Node7 -->
<g id="edge6_Node000005_Node000007" class="edge">
<title>Node5&#45;&gt;Node7</title>
<g id="a_edge6_Node000005_Node000007"><a xlink:title=" ">
<path fill="none" stroke="#63b8ff" d="M182.57,-49C195.8,-39.72 212.01,-28.35 223.23,-20.48"/>
<polygon fill="#63b8ff" stroke="#63b8ff" points="180.58,-46.12 174.4,-54.72 184.6,-51.85 180.58,-46.12"/>
</a>
</g>
</g>
</g>
</svg>
