<?xml version="1.0" encoding="UTF-8" standalone="no"?>
<!DOCTYPE svg PUBLIC "-//W3C//DTD SVG 1.1//EN"
 "http://www.w3.org/Graphics/SVG/1.1/DTD/svg11.dtd">
<!-- Generated by graphviz version 13.1.2 (20250808.2320)
 -->
<!-- Title: build/lib/pico&#45;distance&#45;sensor&#45;main/pico&#45;distance&#45;sensor&#45;main/src/sensor.pio.h Pages: 1 -->
<svg width="202pt" height="108pt"
 viewBox="0.00 0.00 202.00 108.00" xmlns="http://www.w3.org/2000/svg" xmlns:xlink="http://www.w3.org/1999/xlink">
<g id="graph0" class="graph" transform="scale(1 1) rotate(0) translate(4 104)">
<title>build/lib/pico&#45;distance&#45;sensor&#45;main/pico&#45;distance&#45;sensor&#45;main/src/sensor.pio.h</title>
<!-- Node1 -->
<g id="Node000001" class="node">
<title>Node1</title>
<g id="a_Node000001"><a xlink:title=" ">
<polygon fill="#999999" stroke="#666666" points="165.38,-100 20.38,-100 20.38,-56 165.38,-56 165.38,-100"/>
<text xml:space="preserve" text-anchor="start" x="28.38" y="-86.5" font-family="Helvetica,sans-Serif" font-size="10.00">build/lib/pico&#45;distance</text>
<text xml:space="preserve" text-anchor="start" x="28.38" y="-74.5" font-family="Helvetica,sans-Serif" font-size="10.00">&#45;sensor&#45;main/pico&#45;distance</text>
<text xml:space="preserve" text-anchor="middle" x="92.88" y="-62.5" font-family="Helvetica,sans-Serif" font-size="10.00">&#45;sensor&#45;main/src/sensor.pio.h</text>
</a>
</g>
</g>
<!-- Node2 -->
<g id="Node000002" class="node">
<title>Node2</title>
<g id="a_Node000002"><a xlink:title=" ">
<polygon fill="#e0e0e0" stroke="#999999" points="79.75,-20 0,-20 0,0 79.75,0 79.75,-20"/>
<text xml:space="preserve" text-anchor="middle" x="39.88" y="-6.5" font-family="Helvetica,sans-Serif" font-size="10.00">hardware/pio.h</text>
</a>
</g>
</g>
<!-- Node1&#45;&gt;Node2 -->
<g id="edge1_Node000001_Node000002" class="edge">
<title>Node1&#45;&gt;Node2</title>
<g id="a_edge1_Node000001_Node000002"><a xlink:title=" ">
<path fill="none" stroke="#63b8ff" d="M75.81,-55.75C68.94,-47.2 61.09,-37.42 54.49,-29.2"/>
<polygon fill="#63b8ff" stroke="#63b8ff" points="57.38,-27.2 48.39,-21.6 51.92,-31.59 57.38,-27.2"/>
</a>
</g>
</g>
<!-- Node3 -->
<g id="Node000003" class="node">
<title>Node3</title>
<g id="a_Node000003"><a xlink:title=" ">
<polygon fill="#e0e0e0" stroke="#999999" points="193.62,-20 98.12,-20 98.12,0 193.62,0 193.62,-20"/>
<text xml:space="preserve" text-anchor="middle" x="145.88" y="-6.5" font-family="Helvetica,sans-Serif" font-size="10.00">hardware/clocks.h</text>
</a>
</g>
</g>
<!-- Node1&#45;&gt;Node3 -->
<g id="edge2_Node000001_Node000003" class="edge">
<title>Node1&#45;&gt;Node3</title>
<g id="a_edge2_Node000001_Node000003"><a xlink:title=" ">
<path fill="none" stroke="#63b8ff" d="M109.94,-55.75C116.81,-47.2 124.66,-37.42 131.26,-29.2"/>
<polygon fill="#63b8ff" stroke="#63b8ff" points="133.83,-31.59 137.36,-21.6 128.37,-27.2 133.83,-31.59"/>
</a>
</g>
</g>
</g>
</svg>
