<?xml version="1.0" encoding="UTF-8" standalone="no"?>
<!DOCTYPE svg PUBLIC "-//W3C//DTD SVG 1.1//EN"
 "http://www.w3.org/Graphics/SVG/1.1/DTD/svg11.dtd">
<!-- Generated by graphviz version 13.1.2 (20250808.2320)
 -->
<!-- Title: c2Circle Pages: 1 -->
<svg width="52pt" height="182pt"
 viewBox="0.00 0.00 52.00 182.00" xmlns="http://www.w3.org/2000/svg" xmlns:xlink="http://www.w3.org/1999/xlink">

<svg id="main" version="1.1" xmlns="http://www.w3.org/2000/svg" xmlns:xlink="http://www.w3.org/1999/xlink" xml:space="preserve">

<style type="text/css"><![CDATA[
.node, .edge {opacity: 0.7;}
.node.selected, .edge.selected {opacity: 1;}
.edge:hover path { stroke: red; }
.edge:hover polygon { stroke: red; fill: red; }
]]></style>
<script type="application/ecmascript" xlink:href="svg.min.js"/>
<svg id="graph" class="graph">
<g id="graph0" class="graph" transform="scale(1 1) rotate(0) translate(4 178)">
<title>c2Circle</title>
<!-- Node1 -->
<g id="Node000001" class="node">
<title>Node1</title>
<g id="a_Node000001"><a xlink:title=" ">
<polygon fill="#999999" stroke="none" points="44,-52 0,-52 0,0 44,0 44,-52"/>
<text xml:space="preserve" text-anchor="start" x="4" y="-38.5" font-family="Helvetica,sans-Serif" font-size="10.00">c2Circle</text>
<text xml:space="preserve" text-anchor="start" x="9.75" y="-22.5" font-family="Helvetica,sans-Serif" font-size="10.00">+</text>
<text xml:space="preserve" text-anchor="start" x="25.5" y="-22.5" font-family="Helvetica,sans-Serif" font-size="10.00">r</text>
<text xml:space="preserve" text-anchor="start" x="20.5" y="-6.5" font-family="Helvetica,sans-Serif" font-size="10.00"> </text>
<polygon fill="#666666" stroke="#666666" points="0,-34 0,-34 44,-34 44,-34 0,-34"/>
<polygon fill="#666666" stroke="#666666" points="0,-18 0,-18 23.5,-18 23.5,-18 0,-18"/>
<polygon fill="#666666" stroke="#666666" points="23.5,-18 23.5,-18 44,-18 44,-18 23.5,-18"/>
<polygon fill="none" stroke="#666666" points="0,0 0,-52 44,-52 44,0 0,0"/>
</a>
</g>
</g>
<!-- Node2 -->
<g id="Node000002" class="node">
<title>Node2</title>
<g id="a_Node000002"><a xlink:href="structc2v.html" target="_top" xlink:title=" ">
<polygon fill="white" stroke="none" points="33.88,-174 10.12,-174 10.12,-106 33.88,-106 33.88,-174"/>
<text xml:space="preserve" text-anchor="start" x="14.12" y="-160.5" font-family="Helvetica,sans-Serif" font-size="10.00">c2v</text>
<text xml:space="preserve" text-anchor="start" x="14.25" y="-144.5" font-family="Helvetica,sans-Serif" font-size="10.00">+</text>
<text xml:space="preserve" text-anchor="start" x="24.38" y="-144.5" font-family="Helvetica,sans-Serif" font-size="10.00">x</text>
<text xml:space="preserve" text-anchor="start" x="14.25" y="-128.5" font-family="Helvetica,sans-Serif" font-size="10.00">+</text>
<text xml:space="preserve" text-anchor="start" x="24.38" y="-128.5" font-family="Helvetica,sans-Serif" font-size="10.00">y</text>
<text xml:space="preserve" text-anchor="start" x="20.5" y="-112.5" font-family="Helvetica,sans-Serif" font-size="10.00"> </text>
<polygon fill="#666666" stroke="#666666" points="10.12,-156 10.12,-156 33.88,-156 33.88,-156 10.12,-156"/>
<polygon fill="#666666" stroke="#666666" points="10.12,-124 10.12,-124 22.38,-124 22.38,-124 10.12,-124"/>
<polygon fill="#666666" stroke="#666666" points="22.38,-124 22.38,-124 33.88,-124 33.88,-124 22.38,-124"/>
<polygon fill="none" stroke="#666666" points="10.12,-106 10.12,-174 33.88,-174 33.88,-106 10.12,-106"/>
</a>
</g>
</g>
<!-- Node2&#45;&gt;Node1 -->
<g id="edge1_Node000001_Node000002" class="edge">
<title>Node2&#45;&gt;Node1</title>
<g id="a_edge1_Node000001_Node000002"><a xlink:title=" ">
<path fill="none" stroke="#63b8ff" d="M22,-106C22,-93.03 22,-78.07 22,-64.68"/>
<polygon fill="none" stroke="#63b8ff" points="22,-64.84 18,-58.84 22,-52.84 26,-58.84 22,-64.84"/>
</a>
</g>
<text xml:space="preserve" text-anchor="start" x="25" y="-75.5" font-family="Helvetica,sans-Serif" font-size="10.00" fill="grey">+p</text>
</g>
</g>
</svg>
</svg>

<style type='text/css'>
<![CDATA[
[data-mouse-over-selected='false'] { opacity: 0.7; }
[data-mouse-over-selected='true']  { opacity: 1.0; }
]]>
</style>
<script type="application/ecmascript"><![CDATA[
document.addEventListener('DOMContentLoaded', (event) => {
  highlightEdges();
  highlightAdjacentNodes();
});
]]></script>
</svg>
