<?xml version="1.0" encoding="UTF-8" standalone="no"?>
<!DOCTYPE svg PUBLIC "-//W3C//DTD SVG 1.1//EN"
 "http://www.w3.org/Graphics/SVG/1.1/DTD/svg11.dtd">
<!-- Generated by graphviz version 13.1.2 (20250808.2320)
 -->
<!-- Title: c2Ray Pages: 1 -->
<svg width="45pt" height="198pt"
 viewBox="0.00 0.00 45.00 198.00" xmlns="http://www.w3.org/2000/svg" xmlns:xlink="http://www.w3.org/1999/xlink">
<g id="graph0" class="graph" transform="scale(1 1) rotate(0) translate(4 194)">
<title>c2Ray</title>
<!-- Node1 -->
<g id="Node000001" class="node">
<title>Node1</title>
<g id="a_Node000001"><a xlink:title=" ">
<polygon fill="#999999" stroke="none" points="36.5,-52 0,-52 0,0 36.5,0 36.5,-52"/>
<text xml:space="preserve" text-anchor="start" x="4" y="-38.5" font-family="Helvetica,sans-Serif" font-size="10.00">c2Ray</text>
<text xml:space="preserve" text-anchor="start" x="7.88" y="-22.5" font-family="Helvetica,sans-Serif" font-size="10.00">+</text>
<text xml:space="preserve" text-anchor="start" x="21.75" y="-22.5" font-family="Helvetica,sans-Serif" font-size="10.00">t</text>
<text xml:space="preserve" text-anchor="start" x="16.75" y="-6.5" font-family="Helvetica,sans-Serif" font-size="10.00"> </text>
<polygon fill="#666666" stroke="#666666" points="0,-34 0,-34 36.5,-34 36.5,-34 0,-34"/>
<polygon fill="#666666" stroke="#666666" points="0,-18 0,-18 19.75,-18 19.75,-18 0,-18"/>
<polygon fill="#666666" stroke="#666666" points="19.75,-18 19.75,-18 36.5,-18 36.5,-18 19.75,-18"/>
<polygon fill="none" stroke="#666666" points="0,0 0,-52 36.5,-52 36.5,0 0,0"/>
</a>
</g>
</g>
<!-- Node2 -->
<g id="Node000002" class="node">
<title>Node2</title>
<g id="a_Node000002"><a xlink:href="structc2v.html" target="_top" xlink:title=" ">
<polygon fill="white" stroke="none" points="30.12,-190 6.38,-190 6.38,-122 30.12,-122 30.12,-190"/>
<text xml:space="preserve" text-anchor="start" x="10.38" y="-176.5" font-family="Helvetica,sans-Serif" font-size="10.00">c2v</text>
<text xml:space="preserve" text-anchor="start" x="10.5" y="-160.5" font-family="Helvetica,sans-Serif" font-size="10.00">+</text>
<text xml:space="preserve" text-anchor="start" x="20.62" y="-160.5" font-family="Helvetica,sans-Serif" font-size="10.00">x</text>
<text xml:space="preserve" text-anchor="start" x="10.5" y="-144.5" font-family="Helvetica,sans-Serif" font-size="10.00">+</text>
<text xml:space="preserve" text-anchor="start" x="20.62" y="-144.5" font-family="Helvetica,sans-Serif" font-size="10.00">y</text>
<text xml:space="preserve" text-anchor="start" x="16.75" y="-128.5" font-family="Helvetica,sans-Serif" font-size="10.00"> </text>
<polygon fill="#666666" stroke="#666666" points="6.38,-172 6.38,-172 30.12,-172 30.12,-172 6.38,-172"/>
<polygon fill="#666666" stroke="#666666" points="6.38,-140 6.38,-140 18.62,-140 18.62,-140 6.38,-140"/>
<polygon fill="#666666" stroke="#666666" points="18.62,-140 18.62,-140 30.12,-140 30.12,-140 18.62,-140"/>
<polygon fill="none" stroke="#666666" points="6.38,-122 6.38,-190 30.12,-190 30.12,-122 6.38,-122"/>
</a>
</g>
</g>
<!-- Node2&#45;&gt;Node1 -->
<g id="edge1_Node000001_Node000002" class="edge">
<title>Node2&#45;&gt;Node1</title>
<g id="a_edge1_Node000001_Node000002"><a xlink:title=" ">
<path fill="none" stroke="#63b8ff" d="M18.25,-122.04C18.25,-104.48 18.25,-82.81 18.25,-64.6"/>
<polygon fill="none" stroke="#63b8ff" points="18.25,-64.67 14.25,-58.67 18.25,-52.67 22.25,-58.67 18.25,-64.67"/>
</a>
</g>
<text xml:space="preserve" text-anchor="start" x="21.25" y="-91.5" font-family="Helvetica,sans-Serif" font-size="10.00" fill="grey">+d</text>
<text xml:space="preserve" text-anchor="start" x="21.25" y="-75.5" font-family="Helvetica,sans-Serif" font-size="10.00" fill="grey">+p</text>
</g>
</g>
</svg>
