<?xml version="1.0" encoding="UTF-8" standalone="no"?>
<!DOCTYPE svg PUBLIC "-//W3C//DTD SVG 1.1//EN"
 "http://www.w3.org/Graphics/SVG/1.1/DTD/svg11.dtd">
<!-- Generated by graphviz version 13.1.2 (20250808.2320)
 -->
<!-- Title: c2v Pages: 1 -->
<svg width="32pt" height="76pt"
 viewBox="0.00 0.00 32.00 76.00" xmlns="http://www.w3.org/2000/svg" xmlns:xlink="http://www.w3.org/1999/xlink">
<g id="graph0" class="graph" transform="scale(1 1) rotate(0) translate(4 72)">
<title>c2v</title>
<!-- Node1 -->
<g id="Node000001" class="node">
<title>Node1</title>
<g id="a_Node000001"><a xlink:title=" ">
<polygon fill="#999999" stroke="none" points="23.75,-68 0,-68 0,0 23.75,0 23.75,-68"/>
<text xml:space="preserve" text-anchor="start" x="4" y="-54.5" font-family="Helvetica,sans-Serif" font-size="10.00">c2v</text>
<text xml:space="preserve" text-anchor="start" x="4.12" y="-38.5" font-family="Helvetica,sans-Serif" font-size="10.00">+</text>
<text xml:space="preserve" text-anchor="start" x="14.25" y="-38.5" font-family="Helvetica,sans-Serif" font-size="10.00">x</text>
<text xml:space="preserve" text-anchor="start" x="4.12" y="-22.5" font-family="Helvetica,sans-Serif" font-size="10.00">+</text>
<text xml:space="preserve" text-anchor="start" x="14.25" y="-22.5" font-family="Helvetica,sans-Serif" font-size="10.00">y</text>
<text xml:space="preserve" text-anchor="start" x="10.38" y="-6.5" font-family="Helvetica,sans-Serif" font-size="10.00"> </text>
<polygon fill="#666666" stroke="#666666" points="0,-50 0,-50 23.75,-50 23.75,-50 0,-50"/>
<polygon fill="#666666" stroke="#666666" points="0,-18 0,-18 12.25,-18 12.25,-18 0,-18"/>
<polygon fill="#666666" stroke="#666666" points="12.25,-18 12.25,-18 23.75,-18 23.75,-18 12.25,-18"/>
<polygon fill="none" stroke="#666666" points="0,0 0,-68 23.75,-68 23.75,0 0,0"/>
</a>
</g>
</g>
</g>
</svg>
