<?xml version="1.0" encoding="UTF-8" standalone="no"?>
<!DOCTYPE svg PUBLIC "-//W3C//DTD SVG 1.1//EN"
 "http://www.w3.org/Graphics/SVG/1.1/DTD/svg11.dtd">
<!-- Generated by graphviz version 13.1.2 (20250808.2320)
 -->
<!-- Title: c2AABB Pages: 1 -->
<svg width="62pt" height="198pt"
 viewBox="0.00 0.00 62.00 198.00" xmlns="http://www.w3.org/2000/svg" xmlns:xlink="http://www.w3.org/1999/xlink">

<svg id="main" version="1.1" xmlns="http://www.w3.org/2000/svg" xmlns:xlink="http://www.w3.org/1999/xlink" xml:space="preserve">

<style type="text/css"><![CDATA[
.node, .edge {opacity: 0.7;}
.node.selected, .edge.selected {opacity: 1;}
.edge:hover path { stroke: red; }
.edge:hover polygon { stroke: red; fill: red; }
]]></style>
<script type="application/ecmascript" xlink:href="svg.min.js"/>
<svg id="graph" class="graph">
<g id="graph0" class="graph" transform="scale(1 1) rotate(0) translate(4 194)">
<title>c2AABB</title>
<!-- Node1 -->
<g id="Node000001" class="node">
<title>Node1</title>
<g id="a_Node000001"><a xlink:title=" ">
<polygon fill="#999999" stroke="none" points="45.5,-52 0,-52 0,0 45.5,0 45.5,-52"/>
<text xml:space="preserve" text-anchor="start" x="4" y="-38.5" font-family="Helvetica,sans-Serif" font-size="10.00">c2AABB</text>
<text xml:space="preserve" text-anchor="start" x="21.25" y="-22.5" font-family="Helvetica,sans-Serif" font-size="10.00"> </text>
<text xml:space="preserve" text-anchor="start" x="21.25" y="-6.5" font-family="Helvetica,sans-Serif" font-size="10.00"> </text>
<polygon fill="#666666" stroke="#666666" points="0,-34 0,-34 45.5,-34 45.5,-34 0,-34"/>
<polygon fill="#666666" stroke="#666666" points="0,-18 0,-18 45.5,-18 45.5,-18 0,-18"/>
<polygon fill="none" stroke="#666666" points="0,0 0,-52 45.5,-52 45.5,0 0,0"/>
</a>
</g>
</g>
<!-- Node2 -->
<g id="Node000002" class="node">
<title>Node2</title>
<g id="a_Node000002"><a xlink:href="structc2v.html" target="_top" xlink:title=" ">
<polygon fill="white" stroke="none" points="34.62,-190 10.88,-190 10.88,-122 34.62,-122 34.62,-190"/>
<text xml:space="preserve" text-anchor="start" x="14.88" y="-176.5" font-family="Helvetica,sans-Serif" font-size="10.00">c2v</text>
<text xml:space="preserve" text-anchor="start" x="15" y="-160.5" font-family="Helvetica,sans-Serif" font-size="10.00">+</text>
<text xml:space="preserve" text-anchor="start" x="25.12" y="-160.5" font-family="Helvetica,sans-Serif" font-size="10.00">x</text>
<text xml:space="preserve" text-anchor="start" x="15" y="-144.5" font-family="Helvetica,sans-Serif" font-size="10.00">+</text>
<text xml:space="preserve" text-anchor="start" x="25.12" y="-144.5" font-family="Helvetica,sans-Serif" font-size="10.00">y</text>
<text xml:space="preserve" text-anchor="start" x="21.25" y="-128.5" font-family="Helvetica,sans-Serif" font-size="10.00"> </text>
<polygon fill="#666666" stroke="#666666" points="10.88,-172 10.88,-172 34.62,-172 34.62,-172 10.88,-172"/>
<polygon fill="#666666" stroke="#666666" points="10.88,-140 10.88,-140 23.12,-140 23.12,-140 10.88,-140"/>
<polygon fill="#666666" stroke="#666666" points="23.12,-140 23.12,-140 34.62,-140 34.62,-140 23.12,-140"/>
<polygon fill="none" stroke="#666666" points="10.88,-122 10.88,-190 34.62,-190 34.62,-122 10.88,-122"/>
</a>
</g>
</g>
<!-- Node2&#45;&gt;Node1 -->
<g id="edge1_Node000001_Node000002" class="edge">
<title>Node2&#45;&gt;Node1</title>
<g id="a_edge1_Node000001_Node000002"><a xlink:title=" ">
<path fill="none" stroke="#63b8ff" d="M22.75,-122.04C22.75,-104.48 22.75,-82.81 22.75,-64.6"/>
<polygon fill="none" stroke="#63b8ff" points="22.75,-64.67 18.75,-58.67 22.75,-52.67 26.75,-58.67 22.75,-64.67"/>
</a>
</g>
<text xml:space="preserve" text-anchor="start" x="25.75" y="-91.5" font-family="Helvetica,sans-Serif" font-size="10.00" fill="grey">+max</text>
<text xml:space="preserve" text-anchor="start" x="25.75" y="-75.5" font-family="Helvetica,sans-Serif" font-size="10.00" fill="grey">+min</text>
</g>
</g>
</svg>
</svg>

<style type='text/css'>
<![CDATA[
[data-mouse-over-selected='false'] { opacity: 0.7; }
[data-mouse-over-selected='true']  { opacity: 1.0; }
]]>
</style>
<script type="application/ecmascript"><![CDATA[
document.addEventListener('DOMContentLoaded', (event) => {
  highlightEdges();
  highlightAdjacentNodes();
});
]]></script>
</svg>
