<?xml version="1.0" encoding="UTF-8" standalone="no"?>
<!DOCTYPE svg PUBLIC "-//W3C//DTD SVG 1.1//EN"
 "http://www.w3.org/Graphics/SVG/1.1/DTD/svg11.dtd">
<!-- Generated by graphviz version 13.1.2 (20250808.2320)
 -->
<!-- Title: c2Manifold Pages: 1 -->
<svg width="111pt" height="214pt"
 viewBox="0.00 0.00 111.00 214.00" xmlns="http://www.w3.org/2000/svg" xmlns:xlink="http://www.w3.org/1999/xlink">
<g id="graph0" class="graph" transform="scale(1 1) rotate(0) translate(4 210)">
<title>c2Manifold</title>
<!-- Node1 -->
<g id="Node000001" class="node">
<title>Node1</title>
<g id="a_Node000001"><a xlink:title=" ">
<polygon fill="#999999" stroke="none" points="55.25,-68 0,-68 0,0 55.25,0 55.25,-68"/>
<text xml:space="preserve" text-anchor="start" x="4" y="-54.5" font-family="Helvetica,sans-Serif" font-size="10.00">c2Manifold</text>
<text xml:space="preserve" text-anchor="start" x="6" y="-38.5" font-family="Helvetica,sans-Serif" font-size="10.00">+</text>
<text xml:space="preserve" text-anchor="start" x="18" y="-38.5" font-family="Helvetica,sans-Serif" font-size="10.00">count</text>
<text xml:space="preserve" text-anchor="start" x="6" y="-22.5" font-family="Helvetica,sans-Serif" font-size="10.00">+</text>
<text xml:space="preserve" text-anchor="start" x="18" y="-22.5" font-family="Helvetica,sans-Serif" font-size="10.00">depths</text>
<text xml:space="preserve" text-anchor="start" x="26.12" y="-6.5" font-family="Helvetica,sans-Serif" font-size="10.00"> </text>
<polygon fill="#666666" stroke="#666666" points="0,-50 0,-50 55.25,-50 55.25,-50 0,-50"/>
<polygon fill="#666666" stroke="#666666" points="0,-18 0,-18 16,-18 16,-18 0,-18"/>
<polygon fill="#666666" stroke="#666666" points="16,-18 16,-18 55.25,-18 55.25,-18 16,-18"/>
<polygon fill="none" stroke="#666666" points="0,0 0,-68 55.25,-68 55.25,0 0,0"/>
</a>
</g>
</g>
<!-- Node2 -->
<g id="Node000002" class="node">
<title>Node2</title>
<g id="a_Node000002"><a xlink:href="structc2v.html" target="_top" xlink:title=" ">
<polygon fill="white" stroke="none" points="39.5,-206 15.75,-206 15.75,-138 39.5,-138 39.5,-206"/>
<text xml:space="preserve" text-anchor="start" x="19.75" y="-192.5" font-family="Helvetica,sans-Serif" font-size="10.00">c2v</text>
<text xml:space="preserve" text-anchor="start" x="19.88" y="-176.5" font-family="Helvetica,sans-Serif" font-size="10.00">+</text>
<text xml:space="preserve" text-anchor="start" x="30" y="-176.5" font-family="Helvetica,sans-Serif" font-size="10.00">x</text>
<text xml:space="preserve" text-anchor="start" x="19.88" y="-160.5" font-family="Helvetica,sans-Serif" font-size="10.00">+</text>
<text xml:space="preserve" text-anchor="start" x="30" y="-160.5" font-family="Helvetica,sans-Serif" font-size="10.00">y</text>
<text xml:space="preserve" text-anchor="start" x="26.12" y="-144.5" font-family="Helvetica,sans-Serif" font-size="10.00"> </text>
<polygon fill="#666666" stroke="#666666" points="15.75,-188 15.75,-188 39.5,-188 39.5,-188 15.75,-188"/>
<polygon fill="#666666" stroke="#666666" points="15.75,-156 15.75,-156 28,-156 28,-156 15.75,-156"/>
<polygon fill="#666666" stroke="#666666" points="28,-156 28,-156 39.5,-156 39.5,-156 28,-156"/>
<polygon fill="none" stroke="#666666" points="15.75,-138 15.75,-206 39.5,-206 39.5,-138 15.75,-138"/>
</a>
</g>
</g>
<!-- Node2&#45;&gt;Node1 -->
<g id="edge1_Node000001_Node000002" class="edge">
<title>Node2&#45;&gt;Node1</title>
<g id="a_edge1_Node000001_Node000002"><a xlink:title=" ">
<path fill="none" stroke="#63b8ff" d="M27.62,-138.08C27.62,-120.79 27.62,-99.33 27.62,-80.48"/>
<polygon fill="none" stroke="#63b8ff" points="27.63,-80.52 23.63,-74.52 27.63,-68.52 31.63,-74.52 27.63,-80.52"/>
</a>
</g>
<text xml:space="preserve" text-anchor="start" x="30.62" y="-107.5" font-family="Helvetica,sans-Serif" font-size="10.00" fill="grey">+contact_points</text>
<text xml:space="preserve" text-anchor="start" x="30.62" y="-91.5" font-family="Helvetica,sans-Serif" font-size="10.00" fill="grey">+n</text>
</g>
</g>
</svg>
