<?xml version="1.0" encoding="UTF-8" standalone="no"?>
<!DOCTYPE svg PUBLIC "-//W3C//DTD SVG 1.1//EN"
 "http://www.w3.org/Graphics/SVG/1.1/DTD/svg11.dtd">
<!-- Generated by graphviz version 13.1.2 (20250808.2320)
 -->
<!-- Title: c2x Pages: 1 -->
<svg width="74pt" height="182pt"
 viewBox="0.00 0.00 74.00 182.00" xmlns="http://www.w3.org/2000/svg" xmlns:xlink="http://www.w3.org/1999/xlink">

<svg id="main" version="1.1" xmlns="http://www.w3.org/2000/svg" xmlns:xlink="http://www.w3.org/1999/xlink" xml:space="preserve">

<style type="text/css"><![CDATA[
.node, .edge {opacity: 0.7;}
.node.selected, .edge.selected {opacity: 1;}
.edge:hover path { stroke: red; }
.edge:hover polygon { stroke: red; fill: red; }
]]></style>
<script type="application/ecmascript" xlink:href="svg.min.js"/>
<svg id="graph" class="graph">
<g id="graph0" class="graph" transform="scale(1 1) rotate(0) translate(4 178)">
<title>c2x</title>
<!-- Node1 -->
<g id="Node000001" class="node">
<title>Node1</title>
<g id="a_Node000001"><a xlink:title=" ">
<polygon fill="#999999" stroke="none" points="44.75,-52 21,-52 21,0 44.75,0 44.75,-52"/>
<text xml:space="preserve" text-anchor="start" x="25" y="-38.5" font-family="Helvetica,sans-Serif" font-size="10.00">c2x</text>
<text xml:space="preserve" text-anchor="start" x="31.38" y="-22.5" font-family="Helvetica,sans-Serif" font-size="10.00"> </text>
<text xml:space="preserve" text-anchor="start" x="31.38" y="-6.5" font-family="Helvetica,sans-Serif" font-size="10.00"> </text>
<polygon fill="#666666" stroke="#666666" points="21,-34 21,-34 44.75,-34 44.75,-34 21,-34"/>
<polygon fill="#666666" stroke="#666666" points="21,-18 21,-18 44.75,-18 44.75,-18 21,-18"/>
<polygon fill="none" stroke="#666666" points="21,0 21,-52 44.75,-52 44.75,0 21,0"/>
</a>
</g>
</g>
<!-- Node2 -->
<g id="Node000002" class="node">
<title>Node2</title>
<g id="a_Node000002"><a xlink:href="structc2v.html" target="_top" xlink:title=" ">
<polygon fill="white" stroke="none" points="23.75,-174 0,-174 0,-106 23.75,-106 23.75,-174"/>
<text xml:space="preserve" text-anchor="start" x="4" y="-160.5" font-family="Helvetica,sans-Serif" font-size="10.00">c2v</text>
<text xml:space="preserve" text-anchor="start" x="4.12" y="-144.5" font-family="Helvetica,sans-Serif" font-size="10.00">+</text>
<text xml:space="preserve" text-anchor="start" x="14.25" y="-144.5" font-family="Helvetica,sans-Serif" font-size="10.00">x</text>
<text xml:space="preserve" text-anchor="start" x="4.12" y="-128.5" font-family="Helvetica,sans-Serif" font-size="10.00">+</text>
<text xml:space="preserve" text-anchor="start" x="14.25" y="-128.5" font-family="Helvetica,sans-Serif" font-size="10.00">y</text>
<text xml:space="preserve" text-anchor="start" x="10.38" y="-112.5" font-family="Helvetica,sans-Serif" font-size="10.00"> </text>
<polygon fill="#666666" stroke="#666666" points="0,-156 0,-156 23.75,-156 23.75,-156 0,-156"/>
<polygon fill="#666666" stroke="#666666" points="0,-124 0,-124 12.25,-124 12.25,-124 0,-124"/>
<polygon fill="#666666" stroke="#666666" points="12.25,-124 12.25,-124 23.75,-124 23.75,-124 12.25,-124"/>
<polygon fill="none" stroke="#666666" points="0,-106 0,-174 23.75,-174 23.75,-106 0,-106"/>
</a>
</g>
</g>
<!-- Node2&#45;&gt;Node1 -->
<g id="edge1_Node000001_Node000002" class="edge">
<title>Node2&#45;&gt;Node1</title>
<g id="a_edge1_Node000001_Node000002"><a xlink:title=" ">
<path fill="none" stroke="#63b8ff" d="M10.78,-106.04C11.03,-94.52 12.03,-81.58 14.62,-70 15.17,-67.57 15.85,-65.1 16.62,-62.64"/>
<polygon fill="none" stroke="#63b8ff" points="16.59,-62.7 14.92,-55.69 20.75,-51.44 22.42,-58.46 16.59,-62.7"/>
</a>
</g>
<text xml:space="preserve" text-anchor="start" x="17.62" y="-75.5" font-family="Helvetica,sans-Serif" font-size="10.00" fill="grey">+p</text>
</g>
<!-- Node3 -->
<g id="Node000003" class="node">
<title>Node3</title>
<g id="a_Node000003"><a xlink:href="structc2r.html" target="_top" xlink:title=" ">
<polygon fill="white" stroke="none" points="65.5,-174 42.25,-174 42.25,-106 65.5,-106 65.5,-174"/>
<text xml:space="preserve" text-anchor="start" x="47.12" y="-160.5" font-family="Helvetica,sans-Serif" font-size="10.00">c2r</text>
<text xml:space="preserve" text-anchor="start" x="46.25" y="-144.5" font-family="Helvetica,sans-Serif" font-size="10.00">+</text>
<text xml:space="preserve" text-anchor="start" x="56.25" y="-144.5" font-family="Helvetica,sans-Serif" font-size="10.00">c</text>
<text xml:space="preserve" text-anchor="start" x="46.25" y="-128.5" font-family="Helvetica,sans-Serif" font-size="10.00">+</text>
<text xml:space="preserve" text-anchor="start" x="56.25" y="-128.5" font-family="Helvetica,sans-Serif" font-size="10.00">s</text>
<text xml:space="preserve" text-anchor="start" x="52.38" y="-112.5" font-family="Helvetica,sans-Serif" font-size="10.00"> </text>
<polygon fill="#666666" stroke="#666666" points="42.25,-156 42.25,-156 65.5,-156 65.5,-156 42.25,-156"/>
<polygon fill="#666666" stroke="#666666" points="42.25,-124 42.25,-124 54.25,-124 54.25,-124 42.25,-124"/>
<polygon fill="#666666" stroke="#666666" points="54.25,-124 54.25,-124 65.5,-124 65.5,-124 54.25,-124"/>
<polygon fill="none" stroke="#666666" points="42.25,-106 42.25,-174 65.5,-174 65.5,-106 42.25,-106"/>
</a>
</g>
</g>
<!-- Node3&#45;&gt;Node1 -->
<g id="edge2_Node000001_Node000003" class="edge">
<title>Node3&#45;&gt;Node1</title>
<g id="a_edge2_Node000001_Node000003"><a xlink:title=" ">
<path fill="none" stroke="#63b8ff" d="M47.69,-106C45.26,-93.03 42.45,-78.07 39.94,-64.68"/>
<polygon fill="none" stroke="#63b8ff" points="39.93,-64.62 34.89,-59.46 37.72,-52.83 42.76,-57.99 39.93,-64.62"/>
</a>
</g>
<text xml:space="preserve" text-anchor="start" x="47" y="-75.5" font-family="Helvetica,sans-Serif" font-size="10.00" fill="grey">+r</text>
</g>
</g>
</svg>
</svg>

<style type='text/css'>
<![CDATA[
[data-mouse-over-selected='false'] { opacity: 0.7; }
[data-mouse-over-selected='true']  { opacity: 1.0; }
]]>
</style>
<script type="application/ecmascript"><![CDATA[
document.addEventListener('DOMContentLoaded', (event) => {
  highlightEdges();
  highlightAdjacentNodes();
});
]]></script>
</svg>
