<?xml version="1.0" encoding="UTF-8" standalone="no"?>
<!DOCTYPE svg PUBLIC "-//W3C//DTD SVG 1.1//EN"
 "http://www.w3.org/Graphics/SVG/1.1/DTD/svg11.dtd">
<!-- Generated by graphviz version 13.1.2 (20250808.2320)
 -->
<!-- Title: c2Poly Pages: 1 -->
<svg width="68pt" height="198pt"
 viewBox="0.00 0.00 68.00 198.00" xmlns="http://www.w3.org/2000/svg" xmlns:xlink="http://www.w3.org/1999/xlink">
<g id="graph0" class="graph" transform="scale(1 1) rotate(0) translate(4 194)">
<title>c2Poly</title>
<!-- Node1 -->
<g id="Node000001" class="node">
<title>Node1</title>
<g id="a_Node000001"><a xlink:title=" ">
<polygon fill="#999999" stroke="none" points="42,-52 0,-52 0,0 42,0 42,-52"/>
<text xml:space="preserve" text-anchor="start" x="6" y="-38.5" font-family="Helvetica,sans-Serif" font-size="10.00">c2Poly</text>
<text xml:space="preserve" text-anchor="start" x="4" y="-22.5" font-family="Helvetica,sans-Serif" font-size="10.00">+</text>
<text xml:space="preserve" text-anchor="start" x="14" y="-22.5" font-family="Helvetica,sans-Serif" font-size="10.00">count</text>
<text xml:space="preserve" text-anchor="start" x="19.5" y="-6.5" font-family="Helvetica,sans-Serif" font-size="10.00"> </text>
<polygon fill="#666666" stroke="#666666" points="0,-34 0,-34 42,-34 42,-34 0,-34"/>
<polygon fill="#666666" stroke="#666666" points="0,-18 0,-18 12,-18 12,-18 0,-18"/>
<polygon fill="#666666" stroke="#666666" points="12,-18 12,-18 42,-18 42,-18 12,-18"/>
<polygon fill="none" stroke="#666666" points="0,0 0,-52 42,-52 42,0 0,0"/>
</a>
</g>
</g>
<!-- Node2 -->
<g id="Node000002" class="node">
<title>Node2</title>
<g id="a_Node000002"><a xlink:href="structc2v.html" target="_top" xlink:title=" ">
<polygon fill="white" stroke="none" points="32.88,-190 9.12,-190 9.12,-122 32.88,-122 32.88,-190"/>
<text xml:space="preserve" text-anchor="start" x="13.12" y="-176.5" font-family="Helvetica,sans-Serif" font-size="10.00">c2v</text>
<text xml:space="preserve" text-anchor="start" x="13.25" y="-160.5" font-family="Helvetica,sans-Serif" font-size="10.00">+</text>
<text xml:space="preserve" text-anchor="start" x="23.38" y="-160.5" font-family="Helvetica,sans-Serif" font-size="10.00">x</text>
<text xml:space="preserve" text-anchor="start" x="13.25" y="-144.5" font-family="Helvetica,sans-Serif" font-size="10.00">+</text>
<text xml:space="preserve" text-anchor="start" x="23.38" y="-144.5" font-family="Helvetica,sans-Serif" font-size="10.00">y</text>
<text xml:space="preserve" text-anchor="start" x="19.5" y="-128.5" font-family="Helvetica,sans-Serif" font-size="10.00"> </text>
<polygon fill="#666666" stroke="#666666" points="9.12,-172 9.12,-172 32.88,-172 32.88,-172 9.12,-172"/>
<polygon fill="#666666" stroke="#666666" points="9.12,-140 9.12,-140 21.38,-140 21.38,-140 9.12,-140"/>
<polygon fill="#666666" stroke="#666666" points="21.38,-140 21.38,-140 32.88,-140 32.88,-140 21.38,-140"/>
<polygon fill="none" stroke="#666666" points="9.12,-122 9.12,-190 32.88,-190 32.88,-122 9.12,-122"/>
</a>
</g>
</g>
<!-- Node2&#45;&gt;Node1 -->
<g id="edge1_Node000001_Node000002" class="edge">
<title>Node2&#45;&gt;Node1</title>
<g id="a_edge1_Node000001_Node000002"><a xlink:title=" ">
<path fill="none" stroke="#63b8ff" d="M21,-122.04C21,-104.48 21,-82.81 21,-64.6"/>
<polygon fill="none" stroke="#63b8ff" points="21,-64.67 17,-58.67 21,-52.67 25,-58.67 21,-64.67"/>
</a>
</g>
<text xml:space="preserve" text-anchor="start" x="24" y="-91.5" font-family="Helvetica,sans-Serif" font-size="10.00" fill="grey">+norms</text>
<text xml:space="preserve" text-anchor="start" x="24" y="-75.5" font-family="Helvetica,sans-Serif" font-size="10.00" fill="grey">+verts</text>
</g>
</g>
</svg>
