<?xml version="1.0" encoding="UTF-8" standalone="no"?>
<!DOCTYPE svg PUBLIC "-//W3C//DTD SVG 1.1//EN"
 "http://www.w3.org/Graphics/SVG/1.1/DTD/svg11.dtd">
<!-- Generated by graphviz version 13.1.2 (20250808.2320)
 -->
<!-- Title: vec2 Pages: 1 -->
<svg width="37pt" height="76pt"
 viewBox="0.00 0.00 37.00 76.00" xmlns="http://www.w3.org/2000/svg" xmlns:xlink="http://www.w3.org/1999/xlink">
<g id="graph0" class="graph" transform="scale(1 1) rotate(0) translate(4 72)">
<title>vec2</title>
<!-- Node1 -->
<g id="Node000001" class="node">
<title>Node1</title>
<g id="a_Node000001"><a xlink:title=" ">
<polygon fill="#999999" stroke="none" points="29,-68 0,-68 0,0 29,0 29,-68"/>
<text xml:space="preserve" text-anchor="start" x="4" y="-54.5" font-family="Helvetica,sans-Serif" font-size="10.00">vec2</text>
<text xml:space="preserve" text-anchor="start" x="5.44" y="-38.5" font-family="Helvetica,sans-Serif" font-size="10.00">+</text>
<text xml:space="preserve" text-anchor="start" x="16.88" y="-38.5" font-family="Helvetica,sans-Serif" font-size="10.00">x</text>
<text xml:space="preserve" text-anchor="start" x="5.44" y="-22.5" font-family="Helvetica,sans-Serif" font-size="10.00">+</text>
<text xml:space="preserve" text-anchor="start" x="16.88" y="-22.5" font-family="Helvetica,sans-Serif" font-size="10.00">y</text>
<text xml:space="preserve" text-anchor="start" x="13" y="-6.5" font-family="Helvetica,sans-Serif" font-size="10.00"> </text>
<polygon fill="#666666" stroke="#666666" points="0,-50 0,-50 29,-50 29,-50 0,-50"/>
<polygon fill="#666666" stroke="#666666" points="0,-18 0,-18 14.88,-18 14.88,-18 0,-18"/>
<polygon fill="#666666" stroke="#666666" points="14.88,-18 14.88,-18 29,-18 29,-18 14.88,-18"/>
<polygon fill="none" stroke="#666666" points="0,0 0,-68 29,-68 29,0 0,0"/>
</a>
</g>
</g>
</g>
</svg>
