<?xml version="1.0" encoding="UTF-8" standalone="no"?>
<!DOCTYPE svg PUBLIC "-//W3C//DTD SVG 1.1//EN"
 "http://www.w3.org/Graphics/SVG/1.1/DTD/svg11.dtd">
<!-- Generated by graphviz version 13.1.2 (20250808.2320)
 -->
<!-- Title: tonegenerator_t Pages: 1 -->
<svg width="84pt" height="336pt"
 viewBox="0.00 0.00 84.00 336.00" xmlns="http://www.w3.org/2000/svg" xmlns:xlink="http://www.w3.org/1999/xlink">

<svg id="main" version="1.1" xmlns="http://www.w3.org/2000/svg" xmlns:xlink="http://www.w3.org/1999/xlink" xml:space="preserve">

<style type="text/css"><![CDATA[
.node, .edge {opacity: 0.7;}
.node.selected, .edge.selected {opacity: 1;}
.edge:hover path { stroke: red; }
.edge:hover polygon { stroke: red; fill: red; }
]]></style>
<script type="application/ecmascript" xlink:href="svg.min.js"/>
<svg id="graph" class="graph">
<g id="graph0" class="graph" transform="scale(1 1) rotate(0) translate(4 332)">
<title>tonegenerator_t</title>
<!-- Node1 -->
<g id="Node000001" class="node">
<title>Node1</title>
<g id="a_Node000001"><a xlink:title="Represents a tone generator.">
<polygon fill="#999999" stroke="none" points="75.5,-100 0,-100 0,0 75.5,0 75.5,-100"/>
<text xml:space="preserve" text-anchor="start" x="4" y="-86.5" font-family="Helvetica,sans-Serif" font-size="10.00">tonegenerator_t</text>
<text xml:space="preserve" text-anchor="start" x="9.94" y="-70.5" font-family="Helvetica,sans-Serif" font-size="10.00">+</text>
<text xml:space="preserve" text-anchor="start" x="25.88" y="-70.5" font-family="Helvetica,sans-Serif" font-size="10.00">playing</text>
<text xml:space="preserve" text-anchor="start" x="9.94" y="-54.5" font-family="Helvetica,sans-Serif" font-size="10.00">+</text>
<text xml:space="preserve" text-anchor="start" x="25.88" y="-54.5" font-family="Helvetica,sans-Serif" font-size="10.00">gpio</text>
<text xml:space="preserve" text-anchor="start" x="9.94" y="-38.5" font-family="Helvetica,sans-Serif" font-size="10.00">+</text>
<text xml:space="preserve" text-anchor="start" x="25.88" y="-38.5" font-family="Helvetica,sans-Serif" font-size="10.00">slice</text>
<text xml:space="preserve" text-anchor="start" x="9.94" y="-22.5" font-family="Helvetica,sans-Serif" font-size="10.00">+</text>
<text xml:space="preserve" text-anchor="start" x="25.88" y="-22.5" font-family="Helvetica,sans-Serif" font-size="10.00">channel</text>
<text xml:space="preserve" text-anchor="start" x="36.25" y="-6.5" font-family="Helvetica,sans-Serif" font-size="10.00"> </text>
<polygon fill="#666666" stroke="#666666" points="0,-82 0,-82 75.5,-82 75.5,-82 0,-82"/>
<polygon fill="#666666" stroke="#666666" points="0,-18 0,-18 23.88,-18 23.88,-18 0,-18"/>
<polygon fill="#666666" stroke="#666666" points="23.88,-18 23.88,-18 75.5,-18 75.5,-18 23.88,-18"/>
<polygon fill="none" stroke="#666666" points="0,0 0,-100 75.5,-100 75.5,0 0,0"/>
</a>
</g>
</g>
<!-- Node2 -->
<g id="Node000002" class="node">
<title>Node2</title>
<g id="a_Node000002"><a xlink:href="structmelody__t.html" target="_top" xlink:title="Represents a musical melody.">
<polygon fill="white" stroke="none" points="62.12,-206 13.38,-206 13.38,-154 62.12,-154 62.12,-206"/>
<text xml:space="preserve" text-anchor="start" x="17.88" y="-192.5" font-family="Helvetica,sans-Serif" font-size="10.00">melody_t</text>
<text xml:space="preserve" text-anchor="start" x="17.38" y="-176.5" font-family="Helvetica,sans-Serif" font-size="10.00">+</text>
<text xml:space="preserve" text-anchor="start" x="27.38" y="-176.5" font-family="Helvetica,sans-Serif" font-size="10.00">playing</text>
<text xml:space="preserve" text-anchor="start" x="36.25" y="-160.5" font-family="Helvetica,sans-Serif" font-size="10.00"> </text>
<polygon fill="#666666" stroke="#666666" points="13.38,-188 13.38,-188 62.12,-188 62.12,-188 13.38,-188"/>
<polygon fill="#666666" stroke="#666666" points="13.38,-172 13.38,-172 25.38,-172 25.38,-172 13.38,-172"/>
<polygon fill="#666666" stroke="#666666" points="25.38,-172 25.38,-172 62.12,-172 62.12,-172 25.38,-172"/>
<polygon fill="none" stroke="#666666" points="13.38,-154 13.38,-206 62.12,-206 62.12,-154 13.38,-154"/>
</a>
</g>
</g>
<!-- Node2&#45;&gt;Node1 -->
<g id="edge1_Node000001_Node000002" class="edge">
<title>Node2&#45;&gt;Node1</title>
<g id="a_edge1_Node000001_Node000002"><a xlink:title=" ">
<path fill="none" stroke="#63b8ff" d="M37.75,-154.02C37.75,-142.09 37.75,-127.23 37.75,-112.55"/>
<polygon fill="none" stroke="#63b8ff" points="37.75,-112.67 33.75,-106.67 37.75,-100.67 41.75,-106.67 37.75,-112.67"/>
</a>
</g>
<text xml:space="preserve" text-anchor="start" x="40.75" y="-123.5" font-family="Helvetica,sans-Serif" font-size="10.00" fill="grey">+mel</text>
</g>
<!-- Node3 -->
<g id="Node000003" class="node">
<title>Node3</title>
<g id="a_Node000003"><a xlink:href="structnote__t.html" target="_top" xlink:title="Represents a musical note.">
<polygon fill="white" stroke="none" points="65.5,-328 10,-328 10,-260 65.5,-260 65.5,-328"/>
<text xml:space="preserve" text-anchor="start" x="24.25" y="-314.5" font-family="Helvetica,sans-Serif" font-size="10.00">note_t</text>
<text xml:space="preserve" text-anchor="start" x="14" y="-298.5" font-family="Helvetica,sans-Serif" font-size="10.00">+</text>
<text xml:space="preserve" text-anchor="start" x="24" y="-298.5" font-family="Helvetica,sans-Serif" font-size="10.00">freq</text>
<text xml:space="preserve" text-anchor="start" x="14" y="-282.5" font-family="Helvetica,sans-Serif" font-size="10.00">+</text>
<text xml:space="preserve" text-anchor="start" x="24" y="-282.5" font-family="Helvetica,sans-Serif" font-size="10.00">measure</text>
<text xml:space="preserve" text-anchor="start" x="36.25" y="-266.5" font-family="Helvetica,sans-Serif" font-size="10.00"> </text>
<polygon fill="#666666" stroke="#666666" points="10,-310 10,-310 65.5,-310 65.5,-310 10,-310"/>
<polygon fill="#666666" stroke="#666666" points="10,-278 10,-278 22,-278 22,-278 10,-278"/>
<polygon fill="#666666" stroke="#666666" points="22,-278 22,-278 65.5,-278 65.5,-278 22,-278"/>
<polygon fill="none" stroke="#666666" points="10,-260 10,-328 65.5,-328 65.5,-260 10,-260"/>
</a>
</g>
</g>
<!-- Node3&#45;&gt;Node2 -->
<g id="edge2_Node000002_Node000003" class="edge">
<title>Node3&#45;&gt;Node2</title>
<g id="a_edge2_Node000002_Node000003"><a xlink:title=" ">
<path fill="none" stroke="#63b8ff" d="M37.75,-260C37.75,-247.03 37.75,-232.07 37.75,-218.68"/>
<polygon fill="none" stroke="#63b8ff" points="37.75,-218.84 33.75,-212.84 37.75,-206.84 41.75,-212.84 37.75,-218.84"/>
</a>
</g>
<text xml:space="preserve" text-anchor="start" x="40.75" y="-229.5" font-family="Helvetica,sans-Serif" font-size="10.00" fill="grey">+notes</text>
</g>
</g>
</svg>
</svg>

<style type='text/css'>
<![CDATA[
[data-mouse-over-selected='false'] { opacity: 0.7; }
[data-mouse-over-selected='true']  { opacity: 1.0; }
]]>
</style>
<script type="application/ecmascript"><![CDATA[
document.addEventListener('DOMContentLoaded', (event) => {
  highlightEdges();
  highlightAdjacentNodes();
});
]]></script>
</svg>
