<?xml version="1.0" encoding="UTF-8" standalone="no"?>
<!DOCTYPE svg PUBLIC "-//W3C//DTD SVG 1.1//EN"
 "http://www.w3.org/Graphics/SVG/1.1/DTD/svg11.dtd">
<!-- Generated by graphviz version 13.1.2 (20250808.2320)
 -->
<!-- Title: c2m Pages: 1 -->
<svg width="39pt" height="198pt"
 viewBox="0.00 0.00 39.00 198.00" xmlns="http://www.w3.org/2000/svg" xmlns:xlink="http://www.w3.org/1999/xlink">
<g id="graph0" class="graph" transform="scale(1 1) rotate(0) translate(4 194)">
<title>c2m</title>
<!-- Node1 -->
<g id="Node000001" class="node">
<title>Node1</title>
<g id="a_Node000001"><a xlink:title=" ">
<polygon fill="#999999" stroke="none" points="26.75,-52 0,-52 0,0 26.75,0 26.75,-52"/>
<text xml:space="preserve" text-anchor="start" x="4" y="-38.5" font-family="Helvetica,sans-Serif" font-size="10.00">c2m</text>
<text xml:space="preserve" text-anchor="start" x="11.88" y="-22.5" font-family="Helvetica,sans-Serif" font-size="10.00"> </text>
<text xml:space="preserve" text-anchor="start" x="11.88" y="-6.5" font-family="Helvetica,sans-Serif" font-size="10.00"> </text>
<polygon fill="#666666" stroke="#666666" points="0,-34 0,-34 26.75,-34 26.75,-34 0,-34"/>
<polygon fill="#666666" stroke="#666666" points="0,-18 0,-18 26.75,-18 26.75,-18 0,-18"/>
<polygon fill="none" stroke="#666666" points="0,0 0,-52 26.75,-52 26.75,0 0,0"/>
</a>
</g>
</g>
<!-- Node2 -->
<g id="Node000002" class="node">
<title>Node2</title>
<g id="a_Node000002"><a xlink:href="structc2v.html" target="_top" xlink:title=" ">
<polygon fill="white" stroke="none" points="25.25,-190 1.5,-190 1.5,-122 25.25,-122 25.25,-190"/>
<text xml:space="preserve" text-anchor="start" x="5.5" y="-176.5" font-family="Helvetica,sans-Serif" font-size="10.00">c2v</text>
<text xml:space="preserve" text-anchor="start" x="5.62" y="-160.5" font-family="Helvetica,sans-Serif" font-size="10.00">+</text>
<text xml:space="preserve" text-anchor="start" x="15.75" y="-160.5" font-family="Helvetica,sans-Serif" font-size="10.00">x</text>
<text xml:space="preserve" text-anchor="start" x="5.62" y="-144.5" font-family="Helvetica,sans-Serif" font-size="10.00">+</text>
<text xml:space="preserve" text-anchor="start" x="15.75" y="-144.5" font-family="Helvetica,sans-Serif" font-size="10.00">y</text>
<text xml:space="preserve" text-anchor="start" x="11.88" y="-128.5" font-family="Helvetica,sans-Serif" font-size="10.00"> </text>
<polygon fill="#666666" stroke="#666666" points="1.5,-172 1.5,-172 25.25,-172 25.25,-172 1.5,-172"/>
<polygon fill="#666666" stroke="#666666" points="1.5,-140 1.5,-140 13.75,-140 13.75,-140 1.5,-140"/>
<polygon fill="#666666" stroke="#666666" points="13.75,-140 13.75,-140 25.25,-140 25.25,-140 13.75,-140"/>
<polygon fill="none" stroke="#666666" points="1.5,-122 1.5,-190 25.25,-190 25.25,-122 1.5,-122"/>
</a>
</g>
</g>
<!-- Node2&#45;&gt;Node1 -->
<g id="edge1_Node000001_Node000002" class="edge">
<title>Node2&#45;&gt;Node1</title>
<g id="a_edge1_Node000001_Node000002"><a xlink:title=" ">
<path fill="none" stroke="#63b8ff" d="M13.38,-122.04C13.38,-104.48 13.38,-82.81 13.38,-64.6"/>
<polygon fill="none" stroke="#63b8ff" points="13.38,-64.67 9.38,-58.67 13.38,-52.67 17.38,-58.67 13.38,-64.67"/>
</a>
</g>
<text xml:space="preserve" text-anchor="start" x="16.38" y="-91.5" font-family="Helvetica,sans-Serif" font-size="10.00" fill="grey">+x</text>
<text xml:space="preserve" text-anchor="start" x="16.38" y="-75.5" font-family="Helvetica,sans-Serif" font-size="10.00" fill="grey">+y</text>
</g>
</g>
</svg>
