<?xml version="1.0" encoding="UTF-8" standalone="no"?>
<!DOCTYPE svg PUBLIC "-//W3C//DTD SVG 1.1//EN"
 "http://www.w3.org/Graphics/SVG/1.1/DTD/svg11.dtd">
<!-- Generated by graphviz version 13.1.2 (20250808.2320)
 -->
<!-- Title: melody_t Pages: 1 -->
<svg width="72pt" height="182pt"
 viewBox="0.00 0.00 72.00 182.00" xmlns="http://www.w3.org/2000/svg" xmlns:xlink="http://www.w3.org/1999/xlink">
<g id="graph0" class="graph" transform="scale(1 1) rotate(0) translate(4 178)">
<title>melody_t</title>
<!-- Node1 -->
<g id="Node000001" class="node">
<title>Node1</title>
<g id="a_Node000001"><a xlink:title="Represents a musical melody.">
<polygon fill="#999999" stroke="none" points="52.12,-52 3.38,-52 3.38,0 52.12,0 52.12,-52"/>
<text xml:space="preserve" text-anchor="start" x="7.88" y="-38.5" font-family="Helvetica,sans-Serif" font-size="10.00">melody_t</text>
<text xml:space="preserve" text-anchor="start" x="7.38" y="-22.5" font-family="Helvetica,sans-Serif" font-size="10.00">+</text>
<text xml:space="preserve" text-anchor="start" x="17.38" y="-22.5" font-family="Helvetica,sans-Serif" font-size="10.00">playing</text>
<text xml:space="preserve" text-anchor="start" x="26.25" y="-6.5" font-family="Helvetica,sans-Serif" font-size="10.00"> </text>
<polygon fill="#666666" stroke="#666666" points="3.38,-34 3.38,-34 52.12,-34 52.12,-34 3.38,-34"/>
<polygon fill="#666666" stroke="#666666" points="3.38,-18 3.38,-18 15.38,-18 15.38,-18 3.38,-18"/>
<polygon fill="#666666" stroke="#666666" points="15.38,-18 15.38,-18 52.12,-18 52.12,-18 15.38,-18"/>
<polygon fill="none" stroke="#666666" points="3.38,0 3.38,-52 52.12,-52 52.12,0 3.38,0"/>
</a>
</g>
</g>
<!-- Node2 -->
<g id="Node000002" class="node">
<title>Node2</title>
<g id="a_Node000002"><a xlink:href="structnote__t.html" target="_top" xlink:title="Represents a musical note.">
<polygon fill="white" stroke="none" points="55.5,-174 0,-174 0,-106 55.5,-106 55.5,-174"/>
<text xml:space="preserve" text-anchor="start" x="14.25" y="-160.5" font-family="Helvetica,sans-Serif" font-size="10.00">note_t</text>
<text xml:space="preserve" text-anchor="start" x="4" y="-144.5" font-family="Helvetica,sans-Serif" font-size="10.00">+</text>
<text xml:space="preserve" text-anchor="start" x="14" y="-144.5" font-family="Helvetica,sans-Serif" font-size="10.00">freq</text>
<text xml:space="preserve" text-anchor="start" x="4" y="-128.5" font-family="Helvetica,sans-Serif" font-size="10.00">+</text>
<text xml:space="preserve" text-anchor="start" x="14" y="-128.5" font-family="Helvetica,sans-Serif" font-size="10.00">measure</text>
<text xml:space="preserve" text-anchor="start" x="26.25" y="-112.5" font-family="Helvetica,sans-Serif" font-size="10.00"> </text>
<polygon fill="#666666" stroke="#666666" points="0,-156 0,-156 55.5,-156 55.5,-156 0,-156"/>
<polygon fill="#666666" stroke="#666666" points="0,-124 0,-124 12,-124 12,-124 0,-124"/>
<polygon fill="#666666" stroke="#666666" points="12,-124 12,-124 55.5,-124 55.5,-124 12,-124"/>
<polygon fill="none" stroke="#666666" points="0,-106 0,-174 55.5,-174 55.5,-106 0,-106"/>
</a>
</g>
</g>
<!-- Node2&#45;&gt;Node1 -->
<g id="edge1_Node000001_Node000002" class="edge">
<title>Node2&#45;&gt;Node1</title>
<g id="a_edge1_Node000001_Node000002"><a xlink:title=" ">
<path fill="none" stroke="#63b8ff" d="M27.75,-106C27.75,-93.03 27.75,-78.07 27.75,-64.68"/>
<polygon fill="none" stroke="#63b8ff" points="27.75,-64.84 23.75,-58.84 27.75,-52.84 31.75,-58.84 27.75,-64.84"/>
</a>
</g>
<text xml:space="preserve" text-anchor="start" x="30.75" y="-75.5" font-family="Helvetica,sans-Serif" font-size="10.00" fill="grey">+notes</text>
</g>
</g>
</svg>
