<?xml version="1.0" encoding="UTF-8" standalone="no"?>
<!DOCTYPE svg PUBLIC "-//W3C//DTD SVG 1.1//EN"
 "http://www.w3.org/Graphics/SVG/1.1/DTD/svg11.dtd">
<!-- Generated by graphviz version 13.1.2 (20250808.2320)
 -->
<!-- Title: backup/tinyengine_renderer_dvi._c_adapter.cpp Pages: 1 -->
<!--zoomable 244 -->

<svg id="main" version="1.1" xmlns="http://www.w3.org/2000/svg" xmlns:xlink="http://www.w3.org/1999/xlink" xml:space="preserve" onload="init(evt)">

<style type="text/css"><![CDATA[
.node, .edge {opacity: 0.7;}
.node.selected, .edge.selected {opacity: 1;}
.edge:hover path { stroke: red; }
.edge:hover polygon { stroke: red; fill: red; }
]]></style>

<defs>
  <circle id="rim" cx="0" cy="0" r="7"/>
  <circle id="rim2" cx="0" cy="0" r="3.5"/>
  <g id="zoomPlus">
    <use xlink:href="#rim" fill="#404040"><set attributeName="fill" to="#808080" begin="zoomplus.mouseover" end="zoomplus.mouseout"/></use>
    <path d="M-4,0h8M0,-4v8" fill="none" stroke="white" stroke-width="1.5" pointer-events="none"/>
  </g>
  <g id="zoomMin">
    <use xlink:href="#rim" fill="#404040"><set attributeName="fill" to="#808080" begin="zoomminus.mouseover" end="zoomminus.mouseout"/></use>
    <path d="M-4,0h8" fill="none" stroke="white" stroke-width="1.5" pointer-events="none"/>
  </g>
  <g id="arrowUp" transform="translate(30 24)">
    <use xlink:href="#rim"/>
    <path pointer-events="none" fill="none" stroke="white" stroke-width="1.5" d="M0,-3.0v7 M-2.5,-0.5L0,-3.0L2.5,-0.5"/>
  </g>
  <g id="arrowRight" transform="rotate(90) translate(36 -43)">
    <use xlink:href="#rim"/>
    <path pointer-events="none" fill="none" stroke="white" stroke-width="1.5" d="M0,-3.0v7 M-2.5,-0.5L0,-3.0L2.5,-0.5"/>
  </g>
  <g id="arrowDown" transform="rotate(180) translate(-30 -48)">
    <use xlink:href="#rim"/>
    <path pointer-events="none" fill="none" stroke="white" stroke-width="1.5" d="M0,-3.0v7 M-2.5,-0.5L0,-3.0L2.5,-0.5"/>
  </g>
  <g id="arrowLeft" transform="rotate(270) translate(-36 17)">
    <use xlink:href="#rim"/>
    <path pointer-events="none" fill="none" stroke="white" stroke-width="1.5" d="M0,-3.0v7 M-2.5,-0.5L0,-3.0L2.5,-0.5"/>
  </g>
  <g id="resetDef">
    <use xlink:href="#rim2" fill="#404040"><set attributeName="fill" to="#808080" begin="reset.mouseover" end="reset.mouseout"/></use>
  </g>
</defs>
<script type="application/ecmascript">
var viewWidth = 2328;
var viewHeight = 244;
var sectionId = 'dynsection-0';
</script>
<script type="application/ecmascript" xlink:href="svg.min.js"/>
<svg id="graph" class="graph">
<g id="viewport">
<title>backup/tinyengine_renderer_dvi._c_adapter.cpp</title>
<!-- Node1 -->
<g id="Node000001" class="node">
<title>Node1</title>
<g id="a_Node000001"><a xlink:title=" ">
<polygon fill="#999999" stroke="#666666" points="1229.88,-236 1094.62,-236 1094.62,-204 1229.88,-204 1229.88,-236"/>
<text xml:space="preserve" text-anchor="start" x="1102.62" y="-222.5" font-family="Helvetica,sans-Serif" font-size="10.00">backup/tinyengine_renderer</text>
<text xml:space="preserve" text-anchor="middle" x="1162.25" y="-210.5" font-family="Helvetica,sans-Serif" font-size="10.00">_dvi._c_adapter.cpp</text>
</a>
</g>
</g>
<!-- Node2 -->
<g id="Node000002" class="node">
<title>Node2</title>
<g id="a_Node000002"><a xlink:href="tinyengine__renderer__dvi__c__adapter_8h.html" target="_top" xlink:title=" ">
<polygon fill="white" stroke="#666666" points="1212.62,-168 1111.88,-168 1111.88,-136 1212.62,-136 1212.62,-168"/>
<text xml:space="preserve" text-anchor="start" x="1119.88" y="-154.5" font-family="Helvetica,sans-Serif" font-size="10.00">tinyengine_renderer</text>
<text xml:space="preserve" text-anchor="middle" x="1162.25" y="-142.5" font-family="Helvetica,sans-Serif" font-size="10.00">_dvi_c_adapter.h</text>
</a>
</g>
</g>
<!-- Node1&#45;&gt;Node2 -->
<g id="edge1_Node000001_Node000002" class="edge">
<title>Node1&#45;&gt;Node2</title>
<g id="a_edge1_Node000001_Node000002"><a xlink:title=" ">
<path fill="none" stroke="#63b8ff" d="M1162.25,-203.69C1162.25,-196.53 1162.25,-187.79 1162.25,-179.59"/>
<polygon fill="#63b8ff" stroke="#63b8ff" points="1165.75,-179.74 1162.25,-169.74 1158.75,-179.74 1165.75,-179.74"/>
</a>
</g>
</g>
<!-- Node3 -->
<g id="Node000003" class="node">
<title>Node3</title>
<g id="a_Node000003"><a xlink:href="tinyengine_8h.html" target="_top" xlink:title=" ">
<polygon fill="white" stroke="#666666" points="1196.5,-94 1128,-94 1128,-74 1196.5,-74 1196.5,-94"/>
<text xml:space="preserve" text-anchor="middle" x="1162.25" y="-80.5" font-family="Helvetica,sans-Serif" font-size="10.00">tinyengine.h</text>
</a>
</g>
</g>
<!-- Node2&#45;&gt;Node3 -->
<g id="edge2_Node000002_Node000003" class="edge">
<title>Node2&#45;&gt;Node3</title>
<g id="a_edge2_Node000002_Node000003"><a xlink:title=" ">
<path fill="none" stroke="#63b8ff" d="M1162.25,-135.69C1162.25,-126.8 1162.25,-115.46 1162.25,-105.77"/>
<polygon fill="#63b8ff" stroke="#63b8ff" points="1165.75,-105.83 1162.25,-95.83 1158.75,-105.83 1165.75,-105.83"/>
</a>
</g>
</g>
<!-- Node25 -->
<g id="Node000025" class="node">
<title>Node25</title>
<g id="a_Node000025"><a xlink:href="tinyengine__framebuffer_8h.html" target="_top" xlink:title=" ">
<polygon fill="white" stroke="#666666" points="2319.5,-26 2197,-26 2197,-6 2319.5,-6 2319.5,-26"/>
<text xml:space="preserve" text-anchor="middle" x="2258.25" y="-12.5" font-family="Helvetica,sans-Serif" font-size="10.00">tinyengine_framebuffer.h</text>
</a>
</g>
</g>
<!-- Node2&#45;&gt;Node25 -->
<g id="edge26_Node000002_Node000025" class="edge">
<title>Node2&#45;&gt;Node25</title>
<g id="a_edge26_Node000002_Node000025"><a xlink:title=" ">
<path fill="none" stroke="#63b8ff" d="M1212.93,-146.85C1362.7,-134.22 1816.03,-93.32 2188.25,-32 2194.15,-31.03 2200.31,-29.89 2206.42,-28.69"/>
<polygon fill="#63b8ff" stroke="#63b8ff" points="2206.71,-32.2 2215.81,-26.77 2205.31,-25.34 2206.71,-32.2"/>
</a>
</g>
</g>
<!-- Node26 -->
<g id="Node000026" class="node">
<title>Node26</title>
<g id="a_Node000026"><a xlink:href="tinyengine__renderer__dvi__c_8h.html" target="_top" xlink:title=" ">
<polygon fill="white" stroke="#666666" points="597.62,-100 496.88,-100 496.88,-68 597.62,-68 597.62,-100"/>
<text xml:space="preserve" text-anchor="start" x="504.88" y="-86.5" font-family="Helvetica,sans-Serif" font-size="10.00">tinyengine_renderer</text>
<text xml:space="preserve" text-anchor="middle" x="547.25" y="-74.5" font-family="Helvetica,sans-Serif" font-size="10.00">_dvi_c.h</text>
</a>
</g>
</g>
<!-- Node2&#45;&gt;Node26 -->
<g id="edge27_Node000002_Node000026" class="edge">
<title>Node2&#45;&gt;Node26</title>
<g id="a_edge27_Node000002_Node000026"><a xlink:title=" ">
<path fill="none" stroke="#63b8ff" d="M1111.4,-145.54C999.18,-133.5 730.69,-104.69 609.03,-91.63"/>
<polygon fill="#63b8ff" stroke="#63b8ff" points="609.55,-88.17 599.23,-90.58 608.8,-95.13 609.55,-88.17"/>
</a>
</g>
</g>
<!-- Node4 -->
<g id="Node000004" class="node">
<title>Node4</title>
<g id="a_Node000004"><a xlink:title=" ">
<polygon fill="#e0e0e0" stroke="#999999" points="68.5,-26 0,-26 0,-6 68.5,-6 68.5,-26"/>
<text xml:space="preserve" text-anchor="middle" x="34.25" y="-12.5" font-family="Helvetica,sans-Serif" font-size="10.00">pico/stdlib.h</text>
</a>
</g>
</g>
<!-- Node3&#45;&gt;Node4 -->
<g id="edge3_Node000003_Node000004" class="edge">
<title>Node3&#45;&gt;Node4</title>
<g id="a_edge3_Node000003_Node000004"><a xlink:title=" ">
<path fill="none" stroke="#63b8ff" d="M1127.68,-81.97C954.16,-76.71 182.31,-52.35 77.25,-32 74.23,-31.41 71.12,-30.66 68.04,-29.8"/>
<polygon fill="#63b8ff" stroke="#63b8ff" points="69.15,-26.48 58.56,-26.8 67.04,-33.16 69.15,-26.48"/>
</a>
</g>
</g>
<!-- Node5 -->
<g id="Node000005" class="node">
<title>Node5</title>
<g id="a_Node000005"><a xlink:title=" ">
<polygon fill="#e0e0e0" stroke="#999999" points="131.88,-26 86.62,-26 86.62,-6 131.88,-6 131.88,-26"/>
<text xml:space="preserve" text-anchor="middle" x="109.25" y="-12.5" font-family="Helvetica,sans-Serif" font-size="10.00">stdio.h</text>
</a>
</g>
</g>
<!-- Node3&#45;&gt;Node5 -->
<g id="edge4_Node000003_Node000005" class="edge">
<title>Node3&#45;&gt;Node5</title>
<g id="a_edge4_Node000003_Node000005"><a xlink:title=" ">
<path fill="none" stroke="#63b8ff" d="M1127.76,-82.07C960.58,-77.45 238.61,-56.25 141.25,-32 139.65,-31.6 138.03,-31.12 136.42,-30.58"/>
<polygon fill="#63b8ff" stroke="#63b8ff" points="138.05,-27.47 127.47,-26.94 135.42,-33.95 138.05,-27.47"/>
</a>
</g>
</g>
<!-- Node6 -->
<g id="Node000006" class="node">
<title>Node6</title>
<g id="a_Node000006"><a xlink:title=" ">
<polygon fill="#e0e0e0" stroke="#999999" points="230.12,-26 150.38,-26 150.38,-6 230.12,-6 230.12,-26"/>
<text xml:space="preserve" text-anchor="middle" x="190.25" y="-12.5" font-family="Helvetica,sans-Serif" font-size="10.00">hardware/spi.h</text>
</a>
</g>
</g>
<!-- Node3&#45;&gt;Node6 -->
<g id="edge5_Node000003_Node000006" class="edge">
<title>Node3&#45;&gt;Node6</title>
<g id="a_edge5_Node000003_Node000006"><a xlink:title=" ">
<path fill="none" stroke="#63b8ff" d="M1127.51,-82.2C981.22,-78.68 414.83,-63.25 239.25,-32 235.46,-31.32 231.54,-30.45 227.66,-29.46"/>
<polygon fill="#63b8ff" stroke="#63b8ff" points="228.95,-26.19 218.38,-26.85 227.06,-32.93 228.95,-26.19"/>
</a>
</g>
</g>
<!-- Node7 -->
<g id="Node000007" class="node">
<title>Node7</title>
<g id="a_Node000007"><a xlink:title=" ">
<polygon fill="#e0e0e0" stroke="#999999" points="296.38,-26 248.12,-26 248.12,-6 296.38,-6 296.38,-26"/>
<text xml:space="preserve" text-anchor="middle" x="272.25" y="-12.5" font-family="Helvetica,sans-Serif" font-size="10.00">stdint.h</text>
</a>
</g>
</g>
<!-- Node3&#45;&gt;Node7 -->
<g id="edge6_Node000003_Node000007" class="edge">
<title>Node3&#45;&gt;Node7</title>
<g id="a_edge6_Node000003_Node000007"><a xlink:title=" ">
<path fill="none" stroke="#63b8ff" d="M1127.54,-82.62C987.64,-80.85 465.11,-71.63 305.25,-32 303.65,-31.6 302.02,-31.13 300.41,-30.6"/>
<polygon fill="#63b8ff" stroke="#63b8ff" points="301.97,-27.45 291.38,-27.05 299.41,-33.97 301.97,-27.45"/>
</a>
</g>
</g>
<!-- Node8 -->
<g id="Node000008" class="node">
<title>Node8</title>
<g id="a_Node000008"><a xlink:href="tinyengine__scene_8h.html" target="_top" xlink:title=" ">
<polygon fill="white" stroke="#666666" points="414.25,-26 314.25,-26 314.25,-6 414.25,-6 414.25,-26"/>
<text xml:space="preserve" text-anchor="middle" x="364.25" y="-12.5" font-family="Helvetica,sans-Serif" font-size="10.00">tinyengine_scene.h</text>
</a>
</g>
</g>
<!-- Node3&#45;&gt;Node8 -->
<g id="edge7_Node000003_Node000008" class="edge">
<title>Node3&#45;&gt;Node8</title>
<g id="a_edge7_Node000003_Node000008"><a xlink:title=" ">
<path fill="none" stroke="#63b8ff" d="M1127.75,-82.82C1021.81,-81.79 692.14,-75.1 423.25,-32 418.3,-31.21 413.16,-30.19 408.08,-29.07"/>
<polygon fill="#63b8ff" stroke="#63b8ff" points="409.12,-25.72 398.58,-26.82 407.5,-32.53 409.12,-25.72"/>
</a>
</g>
</g>
<!-- Node9 -->
<g id="Node000009" class="node">
<title>Node9</title>
<g id="a_Node000009"><a xlink:title=" ">
<polygon fill="#e0e0e0" stroke="#999999" points="514.62,-26 431.88,-26 431.88,-6 514.62,-6 514.62,-26"/>
<text xml:space="preserve" text-anchor="middle" x="473.25" y="-12.5" font-family="Helvetica,sans-Serif" font-size="10.00">unordered_map</text>
</a>
</g>
</g>
<!-- Node3&#45;&gt;Node9 -->
<g id="edge8_Node000003_Node000009" class="edge">
<title>Node3&#45;&gt;Node9</title>
<g id="a_edge8_Node000003_Node000009"><a xlink:title=" ">
<path fill="none" stroke="#63b8ff" d="M1127.69,-82.73C1031.33,-81.45 751.79,-74.09 524.25,-32 520.41,-31.29 516.45,-30.41 512.51,-29.42"/>
<polygon fill="#63b8ff" stroke="#63b8ff" points="513.62,-26.1 503.05,-26.86 511.79,-32.85 513.62,-26.1"/>
</a>
</g>
</g>
<!-- Node10 -->
<g id="Node000010" class="node">
<title>Node10</title>
<g id="a_Node000010"><a xlink:title=" ">
<polygon fill="#e0e0e0" stroke="#999999" points="609.62,-26 532.88,-26 532.88,-6 609.62,-6 609.62,-26"/>
<text xml:space="preserve" text-anchor="middle" x="571.25" y="-12.5" font-family="Helvetica,sans-Serif" font-size="10.00">hardware/pll.h</text>
</a>
</g>
</g>
<!-- Node3&#45;&gt;Node10 -->
<g id="edge9_Node000003_Node000010" class="edge">
<title>Node3&#45;&gt;Node10</title>
<g id="a_edge9_Node000003_Node000010"><a xlink:title=" ">
<path fill="none" stroke="#63b8ff" d="M1127.5,-82.33C1040.72,-80.1 807.86,-70.67 618.25,-32 614.92,-31.32 611.49,-30.49 608.07,-29.57"/>
<polygon fill="#63b8ff" stroke="#63b8ff" points="609.37,-26.31 598.79,-26.85 607.4,-33.02 609.37,-26.31"/>
</a>
</g>
</g>
<!-- Node11 -->
<g id="Node000011" class="node">
<title>Node11</title>
<g id="a_Node000011"><a xlink:title=" ">
<polygon fill="#e0e0e0" stroke="#999999" points="713.12,-26 627.38,-26 627.38,-6 713.12,-6 713.12,-26"/>
<text xml:space="preserve" text-anchor="middle" x="670.25" y="-12.5" font-family="Helvetica,sans-Serif" font-size="10.00">hardware/vreg.h</text>
</a>
</g>
</g>
<!-- Node3&#45;&gt;Node11 -->
<g id="edge10_Node000003_Node000011" class="edge">
<title>Node3&#45;&gt;Node11</title>
<g id="a_edge10_Node000003_Node000011"><a xlink:title=" ">
<path fill="none" stroke="#63b8ff" d="M1127.72,-80.95C1053.1,-76.09 871.53,-61.97 722.25,-32 718.45,-31.24 714.52,-30.33 710.61,-29.35"/>
<polygon fill="#63b8ff" stroke="#63b8ff" points="711.77,-26.03 701.2,-26.82 709.95,-32.79 711.77,-26.03"/>
</a>
</g>
</g>
<!-- Node12 -->
<g id="Node000012" class="node">
<title>Node12</title>
<g id="a_Node000012"><a xlink:title=" ">
<polygon fill="#e0e0e0" stroke="#999999" points="827,-26 731.5,-26 731.5,-6 827,-6 827,-26"/>
<text xml:space="preserve" text-anchor="middle" x="779.25" y="-12.5" font-family="Helvetica,sans-Serif" font-size="10.00">hardware/clocks.h</text>
</a>
</g>
</g>
<!-- Node3&#45;&gt;Node12 -->
<g id="edge11_Node000003_Node000012" class="edge">
<title>Node3&#45;&gt;Node12</title>
<g id="a_edge11_Node000003_Node000012"><a xlink:title=" ">
<path fill="none" stroke="#63b8ff" d="M1127.78,-78.79C1068.07,-71.22 941.66,-54.06 836.25,-32 832.21,-31.15 828.02,-30.2 823.84,-29.2"/>
<polygon fill="#63b8ff" stroke="#63b8ff" points="824.89,-25.85 814.34,-26.82 823.19,-32.64 824.89,-25.85"/>
</a>
</g>
</g>
<!-- Node13 -->
<g id="Node000013" class="node">
<title>Node13</title>
<g id="a_Node000013"><a xlink:title=" ">
<polygon fill="#e0e0e0" stroke="#999999" points="955.12,-26 845.38,-26 845.38,-6 955.12,-6 955.12,-26"/>
<text xml:space="preserve" text-anchor="middle" x="900.25" y="-12.5" font-family="Helvetica,sans-Serif" font-size="10.00">hardware/structs/pll.h</text>
</a>
</g>
</g>
<!-- Node3&#45;&gt;Node13 -->
<g id="edge12_Node000003_Node000013" class="edge">
<title>Node3&#45;&gt;Node13</title>
<g id="a_edge12_Node000003_Node000013"><a xlink:title=" ">
<path fill="none" stroke="#63b8ff" d="M1127.73,-74.3C1081.9,-62.76 1000.73,-42.31 948.76,-29.22"/>
<polygon fill="#63b8ff" stroke="#63b8ff" points="949.84,-25.88 939.28,-26.83 948.13,-32.67 949.84,-25.88"/>
</a>
</g>
</g>
<!-- Node14 -->
<g id="Node000014" class="node">
<title>Node14</title>
<g id="a_Node000014"><a xlink:title=" ">
<polygon fill="#e0e0e0" stroke="#999999" points="1101.5,-26 973,-26 973,-6 1101.5,-6 1101.5,-26"/>
<text xml:space="preserve" text-anchor="middle" x="1037.25" y="-12.5" font-family="Helvetica,sans-Serif" font-size="10.00">hardware/structs/clocks.h</text>
</a>
</g>
</g>
<!-- Node3&#45;&gt;Node14 -->
<g id="edge13_Node000003_Node000014" class="edge">
<title>Node3&#45;&gt;Node14</title>
<g id="a_edge13_Node000003_Node000014"><a xlink:title=" ">
<path fill="none" stroke="#63b8ff" d="M1144.34,-73.54C1123.64,-62.61 1089.33,-44.5 1065.13,-31.72"/>
<polygon fill="#63b8ff" stroke="#63b8ff" points="1066.94,-28.72 1056.46,-27.15 1063.67,-34.91 1066.94,-28.72"/>
</a>
</g>
</g>
<!-- Node15 -->
<g id="Node000015" class="node">
<title>Node15</title>
<g id="a_Node000015"><a xlink:title=" ">
<polygon fill="#e0e0e0" stroke="#999999" points="1205.12,-26 1119.38,-26 1119.38,-6 1205.12,-6 1205.12,-26"/>
<text xml:space="preserve" text-anchor="middle" x="1162.25" y="-12.5" font-family="Helvetica,sans-Serif" font-size="10.00">hardware/dma.h</text>
</a>
</g>
</g>
<!-- Node3&#45;&gt;Node15 -->
<g id="edge14_Node000003_Node000015" class="edge">
<title>Node3&#45;&gt;Node15</title>
<g id="a_edge14_Node000003_Node000015"><a xlink:title=" ">
<path fill="none" stroke="#63b8ff" d="M1162.25,-73.54C1162.25,-64.23 1162.25,-49.7 1162.25,-37.7"/>
<polygon fill="#63b8ff" stroke="#63b8ff" points="1165.75,-37.95 1162.25,-27.95 1158.75,-37.95 1165.75,-37.95"/>
</a>
</g>
</g>
<!-- Node16 -->
<g id="Node000016" class="node">
<title>Node16</title>
<g id="a_Node000016"><a xlink:title=" ">
<polygon fill="#e0e0e0" stroke="#999999" points="1307.75,-26 1222.75,-26 1222.75,-6 1307.75,-6 1307.75,-26"/>
<text xml:space="preserve" text-anchor="middle" x="1265.25" y="-12.5" font-family="Helvetica,sans-Serif" font-size="10.00">hardware/gpio.h</text>
</a>
</g>
</g>
<!-- Node3&#45;&gt;Node16 -->
<g id="edge15_Node000003_Node000016" class="edge">
<title>Node3&#45;&gt;Node16</title>
<g id="a_edge15_Node000003_Node000016"><a xlink:title=" ">
<path fill="none" stroke="#63b8ff" d="M1177.01,-73.54C1193.68,-62.86 1221.08,-45.31 1240.93,-32.59"/>
<polygon fill="#63b8ff" stroke="#63b8ff" points="1242.71,-35.6 1249.25,-27.26 1238.94,-29.7 1242.71,-35.6"/>
</a>
</g>
</g>
<!-- Node17 -->
<g id="Node000017" class="node">
<title>Node17</title>
<g id="a_Node000017"><a xlink:title=" ">
<polygon fill="#e0e0e0" stroke="#999999" points="1403,-26 1325.5,-26 1325.5,-6 1403,-6 1403,-26"/>
<text xml:space="preserve" text-anchor="middle" x="1364.25" y="-12.5" font-family="Helvetica,sans-Serif" font-size="10.00">hardware/irq.h</text>
</a>
</g>
</g>
<!-- Node3&#45;&gt;Node17 -->
<g id="edge16_Node000003_Node000017" class="edge">
<title>Node3&#45;&gt;Node17</title>
<g id="a_edge16_Node000003_Node000017"><a xlink:title=" ">
<path fill="none" stroke="#63b8ff" d="M1191.19,-73.54C1226.22,-62.1 1285.37,-42.77 1324.61,-29.95"/>
<polygon fill="#63b8ff" stroke="#63b8ff" points="1325.5,-33.34 1333.92,-26.91 1323.33,-26.69 1325.5,-33.34"/>
</a>
</g>
</g>
<!-- Node18 -->
<g id="Node000018" class="node">
<title>Node18</title>
<g id="a_Node000018"><a xlink:title=" ">
<polygon fill="#e0e0e0" stroke="#999999" points="1529,-32 1421.5,-32 1421.5,0 1529,0 1529,-32"/>
<text xml:space="preserve" text-anchor="start" x="1429.5" y="-18.5" font-family="Helvetica,sans-Serif" font-size="10.00">hardware/structs/bus</text>
<text xml:space="preserve" text-anchor="middle" x="1475.25" y="-6.5" font-family="Helvetica,sans-Serif" font-size="10.00">_ctrl.h</text>
</a>
</g>
</g>
<!-- Node3&#45;&gt;Node18 -->
<g id="edge17_Node000003_Node000018" class="edge">
<title>Node3&#45;&gt;Node18</title>
<g id="a_edge17_Node000003_Node000018"><a xlink:title=" ">
<path fill="none" stroke="#63b8ff" d="M1196.7,-76.34C1242.9,-67.33 1327.78,-50.49 1410.23,-32.41"/>
<polygon fill="#63b8ff" stroke="#63b8ff" points="1410.83,-35.86 1419.84,-30.29 1409.32,-29.02 1410.83,-35.86"/>
</a>
</g>
</g>
<!-- Node19 -->
<g id="Node000019" class="node">
<title>Node19</title>
<g id="a_Node000019"><a xlink:title=" ">
<polygon fill="#e0e0e0" stroke="#999999" points="1657.5,-32 1547,-32 1547,0 1657.5,0 1657.5,-32"/>
<text xml:space="preserve" text-anchor="start" x="1555" y="-18.5" font-family="Helvetica,sans-Serif" font-size="10.00">hardware/structs/hstx</text>
<text xml:space="preserve" text-anchor="middle" x="1602.25" y="-6.5" font-family="Helvetica,sans-Serif" font-size="10.00">_ctrl.h</text>
</a>
</g>
</g>
<!-- Node3&#45;&gt;Node19 -->
<g id="edge18_Node000003_Node000019" class="edge">
<title>Node3&#45;&gt;Node19</title>
<g id="a_edge18_Node000003_Node000019"><a xlink:title=" ">
<path fill="none" stroke="#63b8ff" d="M1196.9,-79.42C1261.57,-72.5 1405.24,-55.98 1535.83,-32.34"/>
<polygon fill="#63b8ff" stroke="#63b8ff" points="1536.12,-35.85 1545.33,-30.61 1534.86,-28.96 1536.12,-35.85"/>
</a>
</g>
</g>
<!-- Node20 -->
<g id="Node000020" class="node">
<title>Node20</title>
<g id="a_Node000020"><a xlink:title=" ">
<polygon fill="#e0e0e0" stroke="#999999" points="1786.5,-32 1676,-32 1676,0 1786.5,0 1786.5,-32"/>
<text xml:space="preserve" text-anchor="start" x="1684" y="-18.5" font-family="Helvetica,sans-Serif" font-size="10.00">hardware/structs/hstx</text>
<text xml:space="preserve" text-anchor="middle" x="1731.25" y="-6.5" font-family="Helvetica,sans-Serif" font-size="10.00">_fifo.h</text>
</a>
</g>
</g>
<!-- Node3&#45;&gt;Node20 -->
<g id="edge19_Node000003_Node000020" class="edge">
<title>Node3&#45;&gt;Node20</title>
<g id="a_edge19_Node000003_Node000020"><a xlink:title=" ">
<path fill="none" stroke="#63b8ff" d="M1196.97,-81C1277.39,-76.04 1482.75,-61.53 1664.56,-32.13"/>
<polygon fill="#63b8ff" stroke="#63b8ff" points="1664.88,-35.63 1674.18,-30.56 1663.74,-28.72 1664.88,-35.63"/>
</a>
</g>
</g>
<!-- Node21 -->
<g id="Node000021" class="node">
<title>Node21</title>
<g id="a_Node000021"><a xlink:title=" ">
<polygon fill="#e0e0e0" stroke="#999999" points="1917.62,-26 1804.88,-26 1804.88,-6 1917.62,-6 1917.62,-26"/>
<text xml:space="preserve" text-anchor="middle" x="1861.25" y="-12.5" font-family="Helvetica,sans-Serif" font-size="10.00">hardware/structs/sio.h</text>
</a>
</g>
</g>
<!-- Node3&#45;&gt;Node21 -->
<g id="edge20_Node000003_Node000021" class="edge">
<title>Node3&#45;&gt;Node21</title>
<g id="a_edge20_Node000003_Node000021"><a xlink:title=" ">
<path fill="none" stroke="#63b8ff" d="M1196.76,-81.95C1292.37,-78.68 1568.57,-66.71 1795.25,-32 1800.98,-31.12 1806.96,-30.03 1812.87,-28.83"/>
<polygon fill="#63b8ff" stroke="#63b8ff" points="1813.56,-32.26 1822.6,-26.74 1812.09,-25.41 1813.56,-32.26"/>
</a>
</g>
</g>
<!-- Node22 -->
<g id="Node000022" class="node">
<title>Node22</title>
<g id="a_Node000022"><a xlink:title=" ">
<polygon fill="#e0e0e0" stroke="#999999" points="2020.75,-26 1935.75,-26 1935.75,-6 2020.75,-6 2020.75,-26"/>
<text xml:space="preserve" text-anchor="middle" x="1978.25" y="-12.5" font-family="Helvetica,sans-Serif" font-size="10.00">pico/multicore.h</text>
</a>
</g>
</g>
<!-- Node3&#45;&gt;Node22 -->
<g id="edge21_Node000003_Node000022" class="edge">
<title>Node3&#45;&gt;Node22</title>
<g id="a_edge21_Node000003_Node000022"><a xlink:title=" ">
<path fill="none" stroke="#63b8ff" d="M1196.83,-83.31C1305.28,-83.74 1648.02,-80.83 1926.25,-32 1930.33,-31.28 1934.55,-30.37 1938.73,-29.35"/>
<polygon fill="#63b8ff" stroke="#63b8ff" points="1939.4,-32.79 1948.16,-26.83 1937.6,-26.03 1939.4,-32.79"/>
</a>
</g>
</g>
<!-- Node23 -->
<g id="Node000023" class="node">
<title>Node23</title>
<g id="a_Node000023"><a xlink:title=" ">
<polygon fill="#e0e0e0" stroke="#999999" points="2103.25,-26 2039.25,-26 2039.25,-6 2103.25,-6 2103.25,-26"/>
<text xml:space="preserve" text-anchor="middle" x="2071.25" y="-12.5" font-family="Helvetica,sans-Serif" font-size="10.00">pico/sem.h</text>
</a>
</g>
</g>
<!-- Node3&#45;&gt;Node23 -->
<g id="edge22_Node000003_Node000023" class="edge">
<title>Node3&#45;&gt;Node23</title>
<g id="a_edge22_Node000003_Node000023"><a xlink:title=" ">
<path fill="none" stroke="#63b8ff" d="M1196.85,-82.31C1337.52,-79.31 1866.74,-65.95 2030.25,-32 2032.88,-31.45 2035.57,-30.77 2038.25,-30"/>
<polygon fill="#63b8ff" stroke="#63b8ff" points="2039.19,-33.38 2047.6,-26.93 2037.01,-26.72 2039.19,-33.38"/>
</a>
</g>
</g>
<!-- Node24 -->
<g id="Node000024" class="node">
<title>Node24</title>
<g id="a_Node000024"><a xlink:title=" ">
<polygon fill="#e0e0e0" stroke="#999999" points="2179.25,-26 2121.25,-26 2121.25,-6 2179.25,-6 2179.25,-26"/>
<text xml:space="preserve" text-anchor="middle" x="2150.25" y="-12.5" font-family="Helvetica,sans-Serif" font-size="10.00">functional</text>
</a>
</g>
</g>
<!-- Node3&#45;&gt;Node24 -->
<g id="edge23_Node000003_Node000024" class="edge">
<title>Node3&#45;&gt;Node24</title>
<g id="a_edge23_Node000003_Node000024"><a xlink:title=" ">
<path fill="none" stroke="#63b8ff" d="M1196.82,-82.63C1345.66,-80.81 1932.42,-71.23 2112.25,-32 2114.43,-31.52 2116.65,-30.94 2118.87,-30.28"/>
<polygon fill="#63b8ff" stroke="#63b8ff" points="2120,-33.59 2128.29,-26.99 2117.7,-26.98 2120,-33.59"/>
</a>
</g>
</g>
<!-- Node3&#45;&gt;Node25 -->
<g id="edge24_Node000003_Node000025" class="edge">
<title>Node3&#45;&gt;Node25</title>
<g id="a_edge24_Node000003_Node000025"><a xlink:title=" ">
<path fill="none" stroke="#63b8ff" d="M1196.9,-81.94C1352.01,-77.3 1982.41,-57.81 2179.25,-32 2185.96,-31.12 2192.99,-29.94 2199.97,-28.62"/>
<polygon fill="#63b8ff" stroke="#63b8ff" points="2200.26,-32.13 2209.39,-26.75 2198.9,-25.26 2200.26,-32.13"/>
</a>
</g>
</g>
<!-- Node25&#45;&gt;Node3 -->
<g id="edge25_Node000025_Node000003" class="edge">
<title>Node25&#45;&gt;Node3</title>
<g id="a_edge25_Node000025_Node000003"><a xlink:title=" ">
<path fill="none" stroke="#63b8ff" d="M2228.26,-26.45C2218.43,-28.61 2207.48,-30.66 2197.25,-32 2002.35,-57.56 1382.37,-76.91 1208.12,-81.8"/>
<polygon fill="#63b8ff" stroke="#63b8ff" points="1208.24,-78.3 1198.34,-82.07 1208.44,-85.29 1208.24,-78.3"/>
</a>
</g>
</g>
<!-- Node26&#45;&gt;Node4 -->
<g id="edge28_Node000026_Node000004" class="edge">
<title>Node26&#45;&gt;Node4</title>
<g id="a_edge28_Node000026_Node000004"><a xlink:title=" ">
<path fill="none" stroke="#63b8ff" d="M496.55,-81.27C409.72,-77.48 227.37,-65.86 77.25,-32 74.48,-31.38 71.65,-30.63 68.82,-29.81"/>
<polygon fill="#63b8ff" stroke="#63b8ff" points="70.11,-26.55 59.52,-26.85 67.98,-33.22 70.11,-26.55"/>
</a>
</g>
</g>
</g>
</svg>

<g id="navigator" transform="translate(0 0)" fill="#404254">
  <rect fill="#f2f5e9" fill-opacity="0.5" stroke="#606060" stroke-width=".5" x="0" y="0" width="60" height="60"/>
  <use id="zoomplus" xlink:href="#zoomPlus" x="17" y="9" onmousedown="handleZoom(evt,'in')"/>
  <use id="zoomminus" xlink:href="#zoomMin" x="42" y="9" onmousedown="handleZoom(evt,'out')"/>
  <use id="reset" xlink:href="#resetDef" x="30" y="36" onmousedown="handleReset()"/>
   <use id="arrowup" xlink:href="#arrowUp" x="0" y="0" onmousedown="handlePan(0,-1)"/>
  <use id="arrowright" xlink:href="#arrowRight" x="0" y="0" onmousedown="handlePan(1,0)"/>
  <use id="arrowdown" xlink:href="#arrowDown" x="0" y="0" onmousedown="handlePan(0,1)"/>
  <use id="arrowleft" xlink:href="#arrowLeft" x="0" y="0" onmousedown="handlePan(-1,0)"/>
</g>
<svg viewBox="0 0 15 15" width="100%" height="30px" preserveAspectRatio="xMaxYMin meet">
 <g id="arrow_out" transform="scale(0.3 0.3)">
  <a xlink:href="tinyengine__renderer__dvi_8__c__adapter_8cpp__incl_org.svg" target="_base">
   <rect id="button" ry="5" rx="5" y="6" x="6" height="38" width="38"
        fill="#f2f5e9" fill-opacity="0.5" stroke="#606060" stroke-width="1.0"/>
   <path id="arrow"
     d="M 11.500037,31.436501 C 11.940474,20.09759 22.043105,11.32322 32.158766,21.979434 L 37.068811,17.246167 C 37.068811,17.246167 37.088388,32 37.088388,32 L 22.160133,31.978069 C 22.160133,31.978069 26.997745,27.140456 26.997745,27.140456 C 18.528582,18.264221 13.291696,25.230495 11.500037,31.436501 z"
     style="fill:#404040;"/>
  </a>
 </g>
</svg>

<style type='text/css'>
<![CDATA[
[data-mouse-over-selected='false'] { opacity: 0.7; }
[data-mouse-over-selected='true']  { opacity: 1.0; }
]]>
</style>
<script type="application/ecmascript"><![CDATA[
document.addEventListener('DOMContentLoaded', (event) => {
  highlightEdges();
  highlightAdjacentNodes();
});
]]></script>
</svg>
