<?xml version="1.0" encoding="UTF-8" standalone="no"?>
<!DOCTYPE svg PUBLIC "-//W3C//DTD SVG 1.1//EN"
 "http://www.w3.org/Graphics/SVG/1.1/DTD/svg11.dtd">
<!-- Generated by graphviz version 13.1.2 (20250808.2320)
 -->
<!-- Title: inc/tinyengine.h Pages: 1 -->
<svg width="1615pt" height="332pt"
 viewBox="0.00 0.00 1615.00 332.00" xmlns="http://www.w3.org/2000/svg" xmlns:xlink="http://www.w3.org/1999/xlink">
<g id="graph0" class="graph" transform="scale(1 1) rotate(0) translate(4 328)">
<title>inc/tinyengine.h</title>
<!-- Node1 -->
<g id="Node000001" class="node">
<title>Node1</title>
<g id="a_Node000001"><a xlink:title=" ">
<polygon fill="#999999" stroke="#666666" points="731.12,-324 646.88,-324 646.88,-304 731.12,-304 731.12,-324"/>
<text xml:space="preserve" text-anchor="middle" x="689" y="-310.5" font-family="Helvetica,sans-Serif" font-size="10.00">inc/tinyengine.h</text>
</a>
</g>
</g>
<!-- Node2 -->
<g id="Node000002" class="node">
<title>Node2</title>
<g id="a_Node000002"><a xlink:href="tinyengine__renderer__dvi__c__adapter_8h.html" target="_top" xlink:title=" ">
<polygon fill="white" stroke="#666666" points="305.62,-212 170.38,-212 170.38,-180 305.62,-180 305.62,-212"/>
<text xml:space="preserve" text-anchor="start" x="178.38" y="-198.5" font-family="Helvetica,sans-Serif" font-size="10.00">backup/tinyengine_renderer</text>
<text xml:space="preserve" text-anchor="middle" x="238" y="-186.5" font-family="Helvetica,sans-Serif" font-size="10.00">_dvi_c_adapter.h</text>
</a>
</g>
</g>
<!-- Node1&#45;&gt;Node2 -->
<g id="edge1_Node000001_Node000002" class="edge">
<title>Node1&#45;&gt;Node2</title>
<g id="a_edge1_Node000001_Node000002"><a xlink:title=" ">
<path fill="none" stroke="#63b8ff" d="M635.19,-311.51C521.79,-307.84 266.48,-296.45 240,-268 226.31,-253.29 229.24,-228.53 233.18,-212.48"/>
<polygon fill="#63b8ff" stroke="#63b8ff" points="635.06,-315.01 645.16,-311.83 635.28,-308.02 635.06,-315.01"/>
</a>
</g>
</g>
<!-- Node4 -->
<g id="Node000004" class="node">
<title>Node4</title>
<g id="a_Node000004"><a xlink:href="tinyengine__audio_8h.html" target="_top" xlink:title=" ">
<polygon fill="white" stroke="#666666" points="361.38,-268 248.62,-268 248.62,-248 361.38,-248 361.38,-268"/>
<text xml:space="preserve" text-anchor="middle" x="305" y="-254.5" font-family="Helvetica,sans-Serif" font-size="10.00">inc/tinyengine_audio.h</text>
</a>
</g>
</g>
<!-- Node1&#45;&gt;Node4 -->
<g id="edge3_Node000001_Node000004" class="edge">
<title>Node1&#45;&gt;Node4</title>
<g id="a_edge3_Node000001_Node000004"><a xlink:title=" ">
<path fill="none" stroke="#63b8ff" d="M635.35,-305.46C563.2,-295.31 435.45,-277.34 361.74,-266.98"/>
<polygon fill="#63b8ff" stroke="#63b8ff" points="634.55,-308.88 644.94,-306.8 635.52,-301.95 634.55,-308.88"/>
</a>
</g>
</g>
<!-- Node5 -->
<g id="Node000005" class="node">
<title>Node5</title>
<g id="a_Node000005"><a xlink:href="_game_8cpp.html" target="_top" xlink:title=" ">
<polygon fill="white" stroke="#666666" points="500.75,-138 423.25,-138 423.25,-118 500.75,-118 500.75,-138"/>
<text xml:space="preserve" text-anchor="middle" x="462" y="-124.5" font-family="Helvetica,sans-Serif" font-size="10.00">src/Game.cpp</text>
</a>
</g>
</g>
<!-- Node1&#45;&gt;Node5 -->
<g id="edge39_Node000001_Node000005" class="edge">
<title>Node1&#45;&gt;Node5</title>
<g id="a_edge39_Node000001_Node000005"><a xlink:title=" ">
<path fill="none" stroke="#63b8ff" d="M635.4,-312.42C565.84,-308.41 446.78,-289.8 391,-212 382.71,-200.44 384.51,-192.65 391,-180 401.04,-160.42 422.49,-146.66 439.2,-138.41"/>
<polygon fill="#63b8ff" stroke="#63b8ff" points="634.87,-315.89 645.02,-312.88 635.21,-308.9 634.87,-315.89"/>
</a>
</g>
</g>
<!-- Node6 -->
<g id="Node000006" class="node">
<title>Node6</title>
<g id="a_Node000006"><a xlink:href="tinyengine__audio_8cpp.html" target="_top" xlink:title=" ">
<polygon fill="white" stroke="#666666" points="152,-206 28,-206 28,-186 152,-186 152,-206"/>
<text xml:space="preserve" text-anchor="middle" x="90" y="-192.5" font-family="Helvetica,sans-Serif" font-size="10.00">src/tinyengine_audio.cpp</text>
</a>
</g>
</g>
<!-- Node1&#45;&gt;Node6 -->
<g id="edge44_Node000001_Node000006" class="edge">
<title>Node1&#45;&gt;Node6</title>
<g id="a_edge44_Node000001_Node000006"><a xlink:title=" ">
<path fill="none" stroke="#63b8ff" d="M635.16,-310.32C530.27,-304.69 302.23,-290.25 227,-268 178.71,-253.71 127.46,-222.12 103.64,-206.34"/>
<polygon fill="#63b8ff" stroke="#63b8ff" points="634.74,-313.81 644.91,-310.84 635.11,-306.82 634.74,-313.81"/>
</a>
</g>
</g>
<!-- Node7 -->
<g id="Node000007" class="node">
<title>Node7</title>
<g id="a_Node000007"><a xlink:href="tinyengine__framebuffer_8h.html" target="_top" xlink:title=" ">
<polygon fill="white" stroke="#666666" points="758.12,-268 619.88,-268 619.88,-248 758.12,-248 758.12,-268"/>
<text xml:space="preserve" text-anchor="middle" x="689" y="-254.5" font-family="Helvetica,sans-Serif" font-size="10.00">inc/tinyengine_framebuffer.h</text>
</a>
</g>
</g>
<!-- Node1&#45;&gt;Node7 -->
<g id="edge6_Node000001_Node000007" class="edge">
<title>Node1&#45;&gt;Node7</title>
<g id="a_edge6_Node000001_Node000007"><a xlink:title=" ">
<path fill="none" stroke="#63b8ff" d="M682.42,-292.43C681.97,-284.11 682.41,-274.93 683.75,-268.3"/>
<polygon fill="#63b8ff" stroke="#63b8ff" points="678.92,-292.57 683.56,-302.09 685.87,-291.75 678.92,-292.57"/>
</a>
</g>
</g>
<!-- Node11 -->
<g id="Node000011" class="node">
<title>Node11</title>
<g id="a_Node000011"><a xlink:href="_dino_game_8cpp.html" target="_top" xlink:title=" ">
<polygon fill="white" stroke="#666666" points="682.12,-20 549.88,-20 549.88,0 682.12,0 682.12,-20"/>
<text xml:space="preserve" text-anchor="middle" x="616" y="-6.5" font-family="Helvetica,sans-Serif" font-size="10.00">src/scenes/DinoGame.cpp</text>
</a>
</g>
</g>
<!-- Node1&#45;&gt;Node11 -->
<g id="edge41_Node000001_Node000011" class="edge">
<title>Node1&#45;&gt;Node11</title>
<g id="a_edge41_Node000001_Node000011"><a xlink:title=" ">
<path fill="none" stroke="#63b8ff" d="M635.06,-312.76C540.84,-311.36 340.59,-303.95 176,-268 93.6,-250 0,-281.35 0,-197 0,-197 0,-197 0,-127 0,-71.57 390.21,-30.89 549.49,-16.6"/>
<polygon fill="#63b8ff" stroke="#63b8ff" points="635,-316.26 645.05,-312.89 635.09,-309.26 635,-316.26"/>
</a>
</g>
</g>
<!-- Node13 -->
<g id="Node000013" class="node">
<title>Node13</title>
<g id="a_Node000013"><a xlink:href="_snake_game_8cpp.html" target="_top" xlink:title=" ">
<polygon fill="white" stroke="#666666" points="1276.88,-20 1137.12,-20 1137.12,0 1276.88,0 1276.88,-20"/>
<text xml:space="preserve" text-anchor="middle" x="1207" y="-6.5" font-family="Helvetica,sans-Serif" font-size="10.00">src/scenes/SnakeGame.cpp</text>
</a>
</g>
</g>
<!-- Node1&#45;&gt;Node13 -->
<g id="edge42_Node000001_Node000013" class="edge">
<title>Node1&#45;&gt;Node13</title>
<g id="a_edge42_Node000001_Node000013"><a xlink:title=" ">
<path fill="none" stroke="#63b8ff" d="M742.73,-309.81C907.25,-299.34 1393,-262.85 1393,-197 1393,-197 1393,-197 1393,-127 1393,-63.64 1314.32,-33.63 1259.31,-20.39"/>
<polygon fill="#63b8ff" stroke="#63b8ff" points="742.72,-306.31 732.96,-310.43 743.16,-313.29 742.72,-306.31"/>
</a>
</g>
</g>
<!-- Node17 -->
<g id="Node000017" class="node">
<title>Node17</title>
<g id="a_Node000017"><a xlink:href="tinyengine__renderer_8h.html" target="_top" xlink:title=" ">
<polygon fill="white" stroke="#666666" points="524.38,-206 399.62,-206 399.62,-186 524.38,-186 524.38,-206"/>
<text xml:space="preserve" text-anchor="middle" x="462" y="-192.5" font-family="Helvetica,sans-Serif" font-size="10.00">inc/tinyengine_renderer.h</text>
</a>
</g>
</g>
<!-- Node1&#45;&gt;Node17 -->
<g id="edge37_Node000001_Node000017" class="edge">
<title>Node1&#45;&gt;Node17</title>
<g id="a_edge37_Node000001_Node000017"><a xlink:title=" ">
<path fill="none" stroke="#63b8ff" d="M660.25,-298.31C612.95,-274.14 520.05,-226.66 480.51,-206.46"/>
<polygon fill="#63b8ff" stroke="#63b8ff" points="658.58,-301.38 669.08,-302.82 661.76,-295.15 658.58,-301.38"/>
</a>
</g>
</g>
<!-- Node18 -->
<g id="Node000018" class="node">
<title>Node18</title>
<g id="a_Node000018"><a xlink:href="tinyengine__renderer__dvi_8h.html" target="_top" xlink:title=" ">
<polygon fill="white" stroke="#666666" points="894.25,-212 777.75,-212 777.75,-180 894.25,-180 894.25,-212"/>
<text xml:space="preserve" text-anchor="start" x="785.75" y="-198.5" font-family="Helvetica,sans-Serif" font-size="10.00">inc/tinyengine_renderer</text>
<text xml:space="preserve" text-anchor="middle" x="836" y="-186.5" font-family="Helvetica,sans-Serif" font-size="10.00">_dvi.h</text>
</a>
</g>
</g>
<!-- Node1&#45;&gt;Node18 -->
<g id="edge38_Node000001_Node000018" class="edge">
<title>Node1&#45;&gt;Node18</title>
<g id="a_edge38_Node000001_Node000018"><a xlink:title=" ">
<path fill="none" stroke="#63b8ff" d="M718.42,-298.52C733.57,-290.46 751.97,-279.7 767,-268 788.7,-251.11 810.23,-227.6 823.32,-212.34"/>
<polygon fill="#63b8ff" stroke="#63b8ff" points="717.14,-295.25 709.87,-302.96 720.36,-301.46 717.14,-295.25"/>
</a>
</g>
</g>
<!-- Node22 -->
<g id="Node000022" class="node">
<title>Node22</title>
<g id="a_Node000022"><a xlink:href="tinyengine__sprite_8cpp.html" target="_top" xlink:title=" ">
<polygon fill="white" stroke="#666666" points="1327.38,-138 1202.62,-138 1202.62,-118 1327.38,-118 1327.38,-138"/>
<text xml:space="preserve" text-anchor="middle" x="1265" y="-124.5" font-family="Helvetica,sans-Serif" font-size="10.00">src/tinyengine_sprite.cpp</text>
</a>
</g>
</g>
<!-- Node1&#45;&gt;Node22 -->
<g id="edge45_Node000001_Node000022" class="edge">
<title>Node1&#45;&gt;Node22</title>
<g id="a_edge45_Node000001_Node000022"><a xlink:title=" ">
<path fill="none" stroke="#63b8ff" d="M742.71,-303.72C822.13,-289.12 974.9,-257.66 1099,-212 1156.45,-190.86 1220.06,-155.38 1249.04,-138.49"/>
<polygon fill="#63b8ff" stroke="#63b8ff" points="742.23,-300.25 733.02,-305.48 743.49,-307.14 742.23,-300.25"/>
</a>
</g>
</g>
<!-- Node23 -->
<g id="Node000023" class="node">
<title>Node23</title>
<g id="a_Node000023"><a xlink:href="main_8cpp.html" target="_top" xlink:title=" ">
<polygon fill="white" stroke="#666666" points="1493.12,-268 1420.88,-268 1420.88,-248 1493.12,-248 1493.12,-268"/>
<text xml:space="preserve" text-anchor="middle" x="1457" y="-254.5" font-family="Helvetica,sans-Serif" font-size="10.00">src/main.cpp</text>
</a>
</g>
</g>
<!-- Node1&#45;&gt;Node23 -->
<g id="edge40_Node000001_Node000023" class="edge">
<title>Node1&#45;&gt;Node23</title>
<g id="a_edge40_Node000001_Node000023"><a xlink:title=" ">
<path fill="none" stroke="#63b8ff" d="M742.58,-311.76C862.18,-308.52 1159.8,-297.89 1407,-268 1411.38,-267.47 1415.95,-266.8 1420.48,-266.08"/>
<polygon fill="#63b8ff" stroke="#63b8ff" points="742.66,-308.25 732.75,-312.02 742.84,-315.25 742.66,-308.25"/>
</a>
</g>
</g>
<!-- Node24 -->
<g id="Node000024" class="node">
<title>Node24</title>
<g id="a_Node000024"><a xlink:href="tinyengine_8cpp.html" target="_top" xlink:title=" ">
<polygon fill="white" stroke="#666666" points="1606.75,-268 1511.25,-268 1511.25,-248 1606.75,-248 1606.75,-268"/>
<text xml:space="preserve" text-anchor="middle" x="1559" y="-254.5" font-family="Helvetica,sans-Serif" font-size="10.00">src/tinyengine.cpp</text>
</a>
</g>
</g>
<!-- Node1&#45;&gt;Node24 -->
<g id="edge43_Node000001_Node000024" class="edge">
<title>Node1&#45;&gt;Node24</title>
<g id="a_edge43_Node000001_Node000024"><a xlink:title=" ">
<path fill="none" stroke="#63b8ff" d="M742.66,-311.91C873.05,-308.85 1216.82,-298.33 1502,-268 1504.89,-267.69 1507.86,-267.34 1510.84,-266.95"/>
<polygon fill="#63b8ff" stroke="#63b8ff" points="742.87,-308.4 732.95,-312.13 743.03,-315.4 742.87,-308.4"/>
</a>
</g>
</g>
<!-- Node3 -->
<g id="Node000003" class="node">
<title>Node3</title>
<g id="a_Node000003"><a xlink:href="tinyengine__renderer__dvi_8__c__adapter_8cpp.html" target="_top" xlink:title=" ">
<polygon fill="white" stroke="#666666" points="305.62,-144 170.38,-144 170.38,-112 305.62,-112 305.62,-144"/>
<text xml:space="preserve" text-anchor="start" x="178.38" y="-130.5" font-family="Helvetica,sans-Serif" font-size="10.00">backup/tinyengine_renderer</text>
<text xml:space="preserve" text-anchor="middle" x="238" y="-118.5" font-family="Helvetica,sans-Serif" font-size="10.00">_dvi._c_adapter.cpp</text>
</a>
</g>
</g>
<!-- Node2&#45;&gt;Node3 -->
<g id="edge2_Node000002_Node000003" class="edge">
<title>Node2&#45;&gt;Node3</title>
<g id="a_edge2_Node000002_Node000003"><a xlink:title=" ">
<path fill="none" stroke="#63b8ff" d="M238,-168.31C238,-160.12 238,-151.38 238,-144.22"/>
<polygon fill="#63b8ff" stroke="#63b8ff" points="234.5,-168.18 238,-178.18 241.5,-168.18 234.5,-168.18"/>
</a>
</g>
</g>
<!-- Node4&#45;&gt;Node5 -->
<g id="edge4_Node000004_Node000005" class="edge">
<title>Node4&#45;&gt;Node5</title>
<g id="a_edge4_Node000004_Node000005"><a xlink:title=" ">
<path fill="none" stroke="#63b8ff" d="M314.63,-237.65C323.86,-220.68 339.15,-196.26 358,-180 380.38,-160.69 411.35,-146.74 433.67,-138.36"/>
<polygon fill="#63b8ff" stroke="#63b8ff" points="311.69,-235.73 310.17,-246.21 317.89,-238.96 311.69,-235.73"/>
</a>
</g>
</g>
<!-- Node4&#45;&gt;Node6 -->
<g id="edge5_Node000004_Node000006" class="edge">
<title>Node4&#45;&gt;Node6</title>
<g id="a_edge5_Node000004_Node000006"><a xlink:title=" ">
<path fill="none" stroke="#63b8ff" d="M260.46,-244.57C219.8,-233.22 160.57,-216.69 123.71,-206.41"/>
<polygon fill="#63b8ff" stroke="#63b8ff" points="259.38,-247.9 269.95,-247.22 261.26,-241.16 259.38,-247.9"/>
</a>
</g>
</g>
<!-- Node7&#45;&gt;Node1 -->
<g id="edge19_Node000007_Node000001" class="edge">
<title>Node7&#45;&gt;Node1</title>
<g id="a_edge19_Node000007_Node000001"><a xlink:title=" ">
<path fill="none" stroke="#63b8ff" d="M695.59,-279.73C696.02,-287.96 695.58,-297.01 694.27,-303.59"/>
<polygon fill="#63b8ff" stroke="#63b8ff" points="699.06,-279.33 694.42,-269.8 692.11,-280.14 699.06,-279.33"/>
</a>
</g>
</g>
<!-- Node7&#45;&gt;Node2 -->
<g id="edge7_Node000007_Node000002" class="edge">
<title>Node7&#45;&gt;Node2</title>
<g id="a_edge7_Node000007_Node000002"><a xlink:title=" ">
<path fill="none" stroke="#63b8ff" d="M608.22,-246.25C522.04,-234.79 387.05,-216.83 306.08,-206.06"/>
<polygon fill="#63b8ff" stroke="#63b8ff" points="607.65,-249.71 618.02,-247.56 608.57,-242.77 607.65,-249.71"/>
</a>
</g>
</g>
<!-- Node7&#45;&gt;Node5 -->
<g id="edge33_Node000007_Node000005" class="edge">
<title>Node7&#45;&gt;Node5</title>
<g id="a_edge33_Node000007_Node000005"><a xlink:title=" ">
<path fill="none" stroke="#63b8ff" d="M648.56,-243.8C626.48,-235.88 599.03,-224.86 576,-212 555.2,-200.38 552.23,-194.06 533,-180 512.91,-165.31 489.42,-148.51 475.13,-138.33"/>
<polygon fill="#63b8ff" stroke="#63b8ff" points="647.22,-247.04 657.82,-247.04 649.54,-240.43 647.22,-247.04"/>
</a>
</g>
</g>
<!-- Node8 -->
<g id="Node000008" class="node">
<title>Node8</title>
<g id="a_Node000008"><a xlink:href="_game_scene_8h.html" target="_top" xlink:title=" ">
<polygon fill="white" stroke="#666666" points="941,-138 847,-138 847,-118 941,-118 941,-138"/>
<text xml:space="preserve" text-anchor="middle" x="894" y="-124.5" font-family="Helvetica,sans-Serif" font-size="10.00">inc/GameScene.h</text>
</a>
</g>
</g>
<!-- Node7&#45;&gt;Node8 -->
<g id="edge8_Node000007_Node000008" class="edge">
<title>Node7&#45;&gt;Node8</title>
<g id="a_edge8_Node000007_Node000008"><a xlink:title=" ">
<path fill="none" stroke="#63b8ff" d="M769.58,-250.49C822.95,-244.32 886.14,-232.78 903,-212 920.35,-190.62 906.99,-155.25 898.95,-138.44"/>
<polygon fill="#63b8ff" stroke="#63b8ff" points="769.41,-246.99 759.86,-251.57 770.18,-253.95 769.41,-246.99"/>
</a>
</g>
</g>
<!-- Node7&#45;&gt;Node11 -->
<g id="edge34_Node000007_Node000011" class="edge">
<title>Node7&#45;&gt;Node11</title>
<g id="a_edge34_Node000007_Node000011"><a xlink:title=" ">
<path fill="none" stroke="#63b8ff" d="M658.54,-242.42C643.06,-234.39 624.34,-223.7 609,-212 559.27,-174.08 561.77,-147.08 510,-112 476.04,-88.99 447.66,-110.2 425,-76 392.94,-27.6 482.46,-14.63 549.57,-11.49"/>
<polygon fill="#63b8ff" stroke="#63b8ff" points="656.8,-245.46 667.3,-246.85 659.95,-239.22 656.8,-245.46"/>
</a>
</g>
</g>
<!-- Node7&#45;&gt;Node13 -->
<g id="edge35_Node000007_Node000013" class="edge">
<title>Node7&#45;&gt;Node13</title>
<g id="a_edge35_Node000007_Node000013"><a xlink:title=" ">
<path fill="none" stroke="#63b8ff" d="M769.54,-255.95C927.63,-251.94 1268.99,-232.94 1336,-144 1374.42,-93 1275.7,-41.13 1229.42,-20.4"/>
<polygon fill="#63b8ff" stroke="#63b8ff" points="769.91,-252.44 760,-256.18 770.08,-259.44 769.91,-252.44"/>
</a>
</g>
</g>
<!-- Node14 -->
<g id="Node000014" class="node">
<title>Node14</title>
<g id="a_Node000014"><a xlink:href="_tiny_engine_renderable_i_8h.html" target="_top" xlink:title=" ">
<polygon fill="white" stroke="#666666" points="759.62,-206 618.38,-206 618.38,-186 759.62,-186 759.62,-206"/>
<text xml:space="preserve" text-anchor="middle" x="689" y="-192.5" font-family="Helvetica,sans-Serif" font-size="10.00">inc/TinyEngineRenderableI.h</text>
</a>
</g>
</g>
<!-- Node7&#45;&gt;Node14 -->
<g id="edge15_Node000007_Node000014" class="edge">
<title>Node7&#45;&gt;Node14</title>
<g id="a_edge15_Node000007_Node000014"><a xlink:title=" ">
<path fill="none" stroke="#63b8ff" d="M689,-236.25C689,-225.97 689,-214.09 689,-206.11"/>
<polygon fill="#63b8ff" stroke="#63b8ff" points="685.5,-236.11 689,-246.11 692.5,-236.11 685.5,-236.11"/>
</a>
</g>
</g>
<!-- Node7&#45;&gt;Node17 -->
<g id="edge20_Node000007_Node000017" class="edge">
<title>Node7&#45;&gt;Node17</title>
<g id="a_edge20_Node000007_Node000017"><a xlink:title=" ">
<path fill="none" stroke="#63b8ff" d="M642.3,-244.66C599.46,-233.33 536.92,-216.8 497.88,-206.48"/>
<polygon fill="#63b8ff" stroke="#63b8ff" points="641.26,-248 651.82,-247.17 643.04,-241.23 641.26,-248"/>
</a>
</g>
</g>
<!-- Node7&#45;&gt;Node18 -->
<g id="edge22_Node000007_Node000018" class="edge">
<title>Node7&#45;&gt;Node18</title>
<g id="a_edge22_Node000007_Node000018"><a xlink:title=" ">
<path fill="none" stroke="#63b8ff" d="M722.38,-243.38C744.89,-234.19 774.64,-222.05 798.05,-212.49"/>
<polygon fill="#63b8ff" stroke="#63b8ff" points="721.31,-240.03 713.37,-247.05 723.95,-246.51 721.31,-240.03"/>
</a>
</g>
</g>
<!-- Node20 -->
<g id="Node000020" class="node">
<title>Node20</title>
<g id="a_Node000020"><a xlink:href="tinyengine__sprite_8h.html" target="_top" xlink:title=" ">
<polygon fill="white" stroke="#666666" points="1063.75,-206 950.25,-206 950.25,-186 1063.75,-186 1063.75,-206"/>
<text xml:space="preserve" text-anchor="middle" x="1007" y="-192.5" font-family="Helvetica,sans-Serif" font-size="10.00">inc/tinyengine_sprite.h</text>
</a>
</g>
</g>
<!-- Node7&#45;&gt;Node20 -->
<g id="edge26_Node000007_Node000020" class="edge">
<title>Node7&#45;&gt;Node20</title>
<g id="a_edge26_Node000007_Node000020"><a xlink:title=" ">
<path fill="none" stroke="#63b8ff" d="M754.79,-245.53C804.61,-236.72 874.7,-224.06 936,-212 944.78,-210.27 954.15,-208.35 963.11,-206.47"/>
<polygon fill="#63b8ff" stroke="#63b8ff" points="754.26,-242.07 745.02,-247.25 755.48,-248.96 754.26,-242.07"/>
</a>
</g>
</g>
<!-- Node21 -->
<g id="Node000021" class="node">
<title>Node21</title>
<g id="a_Node000021"><a xlink:href="tinyengine__framebuffer_8cpp.html" target="_top" xlink:title=" ">
<polygon fill="white" stroke="#666666" points="1184.75,-138 1035.25,-138 1035.25,-118 1184.75,-118 1184.75,-138"/>
<text xml:space="preserve" text-anchor="middle" x="1110" y="-124.5" font-family="Helvetica,sans-Serif" font-size="10.00">src/tinyengine_framebuffer.cpp</text>
</a>
</g>
</g>
<!-- Node7&#45;&gt;Node21 -->
<g id="edge36_Node000007_Node000021" class="edge">
<title>Node7&#45;&gt;Node21</title>
<g id="a_edge36_Node000007_Node000021"><a xlink:title=" ">
<path fill="none" stroke="#63b8ff" d="M769.74,-256.71C867.92,-254.82 1026.31,-246.33 1073,-212 1097.53,-193.96 1106.1,-155.95 1108.84,-138.33"/>
<polygon fill="#63b8ff" stroke="#63b8ff" points="769.83,-253.21 759.89,-256.88 769.95,-260.21 769.83,-253.21"/>
</a>
</g>
</g>
<!-- Node9 -->
<g id="Node000009" class="node">
<title>Node9</title>
<g id="a_Node000009"><a xlink:href="_game_scene_8cpp.html" target="_top" xlink:title=" ">
<polygon fill="white" stroke="#666666" points="845.62,-76 740.38,-76 740.38,-56 845.62,-56 845.62,-76"/>
<text xml:space="preserve" text-anchor="middle" x="793" y="-62.5" font-family="Helvetica,sans-Serif" font-size="10.00">src/GameScene.cpp</text>
</a>
</g>
</g>
<!-- Node8&#45;&gt;Node9 -->
<g id="edge9_Node000008_Node000009" class="edge">
<title>Node8&#45;&gt;Node9</title>
<g id="a_edge9_Node000008_Node000009"><a xlink:title=" ">
<path fill="none" stroke="#63b8ff" d="M868.49,-111.85C849.66,-100.66 824.64,-85.8 808.67,-76.31"/>
<polygon fill="#63b8ff" stroke="#63b8ff" points="866.53,-114.75 876.92,-116.85 870.11,-108.74 866.53,-114.75"/>
</a>
</g>
</g>
<!-- Node10 -->
<g id="Node000010" class="node">
<title>Node10</title>
<g id="a_Node000010"><a xlink:href="_dino_game_8h.html" target="_top" xlink:title=" ">
<polygon fill="white" stroke="#666666" points="721.88,-76 600.12,-76 600.12,-56 721.88,-56 721.88,-76"/>
<text xml:space="preserve" text-anchor="middle" x="661" y="-62.5" font-family="Helvetica,sans-Serif" font-size="10.00">src/scenes/DinoGame.h</text>
</a>
</g>
</g>
<!-- Node8&#45;&gt;Node10 -->
<g id="edge10_Node000008_Node000010" class="edge">
<title>Node8&#45;&gt;Node10</title>
<g id="a_edge10_Node000008_Node000010"><a xlink:title=" ">
<path fill="none" stroke="#63b8ff" d="M848.14,-114.67C844.71,-113.76 841.3,-112.86 838,-112 789.99,-99.47 734.53,-85.44 698.67,-76.43"/>
<polygon fill="#63b8ff" stroke="#63b8ff" points="847.04,-117.99 857.6,-117.18 848.84,-111.23 847.04,-117.99"/>
</a>
</g>
</g>
<!-- Node12 -->
<g id="Node000012" class="node">
<title>Node12</title>
<g id="a_Node000012"><a xlink:href="_snake_game_8h.html" target="_top" xlink:title=" ">
<polygon fill="white" stroke="#666666" points="992.62,-76 863.38,-76 863.38,-56 992.62,-56 992.62,-76"/>
<text xml:space="preserve" text-anchor="middle" x="928" y="-62.5" font-family="Helvetica,sans-Serif" font-size="10.00">src/scenes/SnakeGame.h</text>
</a>
</g>
</g>
<!-- Node8&#45;&gt;Node12 -->
<g id="edge12_Node000008_Node000012" class="edge">
<title>Node8&#45;&gt;Node12</title>
<g id="a_edge12_Node000008_Node000012"><a xlink:title=" ">
<path fill="none" stroke="#63b8ff" d="M904.8,-107.93C910.83,-97.29 918.07,-84.53 922.84,-76.11"/>
<polygon fill="#63b8ff" stroke="#63b8ff" points="901.94,-105.88 900.06,-116.31 908.03,-109.33 901.94,-105.88"/>
</a>
</g>
</g>
<!-- Node10&#45;&gt;Node11 -->
<g id="edge11_Node000010_Node000011" class="edge">
<title>Node10&#45;&gt;Node11</title>
<g id="a_edge11_Node000010_Node000011"><a xlink:title=" ">
<path fill="none" stroke="#63b8ff" d="M646,-47C638.55,-38.06 629.85,-27.62 623.75,-20.3"/>
<polygon fill="#63b8ff" stroke="#63b8ff" points="643.1,-48.99 652.19,-54.43 648.48,-44.51 643.1,-48.99"/>
</a>
</g>
</g>
<!-- Node12&#45;&gt;Node11 -->
<g id="edge13_Node000012_Node000011" class="edge">
<title>Node12&#45;&gt;Node11</title>
<g id="a_edge13_Node000012_Node000011"><a xlink:title=" ">
<path fill="none" stroke="#63b8ff" d="M862.26,-53.62C805.36,-43.77 724.03,-29.7 670.64,-20.46"/>
<polygon fill="#63b8ff" stroke="#63b8ff" points="861.35,-57.02 871.81,-55.27 862.55,-50.12 861.35,-57.02"/>
</a>
</g>
</g>
<!-- Node12&#45;&gt;Node13 -->
<g id="edge14_Node000012_Node000013" class="edge">
<title>Node12&#45;&gt;Node13</title>
<g id="a_edge14_Node000012_Node000013"><a xlink:title=" ">
<path fill="none" stroke="#63b8ff" d="M988.07,-53.37C1038.88,-43.54 1110.79,-29.62 1158.14,-20.46"/>
<polygon fill="#63b8ff" stroke="#63b8ff" points="987.56,-49.91 978.4,-55.24 988.89,-56.78 987.56,-49.91"/>
</a>
</g>
</g>
<!-- Node15 -->
<g id="Node000015" class="node">
<title>Node15</title>
<g id="a_Node000015"><a xlink:href="_tiny_engine_u_i_8h.html" target="_top" xlink:title=" ">
<polygon fill="white" stroke="#666666" points="656.62,-138 557.38,-138 557.38,-118 656.62,-118 656.62,-138"/>
<text xml:space="preserve" text-anchor="middle" x="607" y="-124.5" font-family="Helvetica,sans-Serif" font-size="10.00">inc/TinyEngineUI.h</text>
</a>
</g>
</g>
<!-- Node14&#45;&gt;Node15 -->
<g id="edge16_Node000014_Node000015" class="edge">
<title>Node14&#45;&gt;Node15</title>
<g id="a_edge16_Node000014_Node000015"><a xlink:title=" ">
<path fill="none" stroke="#63b8ff" d="M668.29,-178.33C652.61,-165.71 631.63,-148.82 618.73,-138.44"/>
<polygon fill="#63b8ff" stroke="#63b8ff" points="666.09,-181.05 676.07,-184.59 670.48,-175.6 666.09,-181.05"/>
</a>
</g>
</g>
<!-- Node15&#45;&gt;Node11 -->
<g id="edge18_Node000015_Node000011" class="edge">
<title>Node15&#45;&gt;Node11</title>
<g id="a_edge18_Node000015_Node000011"><a xlink:title=" ">
<path fill="none" stroke="#63b8ff" d="M597.63,-107.64C591.92,-93.32 586.5,-73.37 591,-56 594.45,-42.68 602.8,-29.1 608.9,-20.39"/>
<polygon fill="#63b8ff" stroke="#63b8ff" points="594.25,-108.64 601.49,-116.38 600.65,-105.82 594.25,-108.64"/>
</a>
</g>
</g>
<!-- Node16 -->
<g id="Node000016" class="node">
<title>Node16</title>
<g id="a_Node000016"><a xlink:href="_tiny_engine_u_i_8cpp.html" target="_top" xlink:title=" ">
<polygon fill="white" stroke="#666666" points="544.25,-76 433.75,-76 433.75,-56 544.25,-56 544.25,-76"/>
<text xml:space="preserve" text-anchor="middle" x="489" y="-62.5" font-family="Helvetica,sans-Serif" font-size="10.00">src/TinyEngineUI.cpp</text>
</a>
</g>
</g>
<!-- Node15&#45;&gt;Node16 -->
<g id="edge17_Node000015_Node000016" class="edge">
<title>Node15&#45;&gt;Node16</title>
<g id="a_edge17_Node000015_Node000016"><a xlink:title=" ">
<path fill="none" stroke="#63b8ff" d="M578.41,-112.46C556.29,-101.21 526.31,-85.97 507.31,-76.31"/>
<polygon fill="#63b8ff" stroke="#63b8ff" points="576.71,-115.53 587.21,-116.94 579.89,-109.29 576.71,-115.53"/>
</a>
</g>
</g>
<!-- Node17&#45;&gt;Node5 -->
<g id="edge21_Node000017_Node000005" class="edge">
<title>Node17&#45;&gt;Node5</title>
<g id="a_edge21_Node000017_Node000005"><a xlink:title=" ">
<path fill="none" stroke="#63b8ff" d="M462,-174.28C462,-162.27 462,-147.74 462,-138.44"/>
<polygon fill="#63b8ff" stroke="#63b8ff" points="458.5,-174.03 462,-184.03 465.5,-174.03 458.5,-174.03"/>
</a>
</g>
</g>
<!-- Node18&#45;&gt;Node5 -->
<g id="edge24_Node000018_Node000005" class="edge">
<title>Node18&#45;&gt;Node5</title>
<g id="a_edge24_Node000018_Node000005"><a xlink:title=" ">
<path fill="none" stroke="#63b8ff" d="M766.37,-179.55C669.38,-161.06 642.59,-159.95 548,-144 532.61,-141.4 515.68,-138.47 500.94,-135.89"/>
<polygon fill="#63b8ff" stroke="#63b8ff" points="765.61,-182.97 776.09,-181.42 766.93,-176.1 765.61,-182.97"/>
</a>
</g>
</g>
<!-- Node18&#45;&gt;Node8 -->
<g id="edge23_Node000018_Node000008" class="edge">
<title>Node18&#45;&gt;Node8</title>
<g id="a_edge23_Node000018_Node000008"><a xlink:title=" ">
<path fill="none" stroke="#63b8ff" d="M856.76,-171.37C866.81,-159.95 878.29,-146.88 885.81,-138.32"/>
<polygon fill="#63b8ff" stroke="#63b8ff" points="854.42,-168.73 850.45,-178.56 859.68,-173.35 854.42,-168.73"/>
</a>
</g>
</g>
<!-- Node19 -->
<g id="Node000019" class="node">
<title>Node19</title>
<g id="a_Node000019"><a xlink:href="tinyengine__renderer__dvi_8cpp.html" target="_top" xlink:title=" ">
<polygon fill="white" stroke="#666666" points="828.62,-144 711.38,-144 711.38,-112 828.62,-112 828.62,-144"/>
<text xml:space="preserve" text-anchor="start" x="719.38" y="-130.5" font-family="Helvetica,sans-Serif" font-size="10.00">src/tinyengine_renderer</text>
<text xml:space="preserve" text-anchor="middle" x="770" y="-118.5" font-family="Helvetica,sans-Serif" font-size="10.00">_dvi.cpp</text>
</a>
</g>
</g>
<!-- Node18&#45;&gt;Node19 -->
<g id="edge25_Node000018_Node000019" class="edge">
<title>Node18&#45;&gt;Node19</title>
<g id="a_edge25_Node000018_Node000019"><a xlink:title=" ">
<path fill="none" stroke="#63b8ff" d="M812.71,-171.71C803.59,-162.59 793.37,-152.37 785.22,-144.22"/>
<polygon fill="#63b8ff" stroke="#63b8ff" points="810.08,-174.03 819.62,-178.62 815.03,-169.08 810.08,-174.03"/>
</a>
</g>
</g>
<!-- Node20&#45;&gt;Node5 -->
<g id="edge28_Node000020_Node000005" class="edge">
<title>Node20&#45;&gt;Node5</title>
<g id="a_edge28_Node000020_Node000005"><a xlink:title=" ">
<path fill="none" stroke="#63b8ff" d="M938.61,-184.72C926.75,-183.05 914.53,-181.41 903,-180 745.59,-160.68 705.1,-165.64 548,-144 532.54,-141.87 515.59,-139.03 500.87,-136.39"/>
<polygon fill="#63b8ff" stroke="#63b8ff" points="937.95,-188.16 948.34,-186.1 938.93,-181.23 937.95,-188.16"/>
</a>
</g>
</g>
<!-- Node20&#45;&gt;Node8 -->
<g id="edge27_Node000020_Node000008" class="edge">
<title>Node20&#45;&gt;Node8</title>
<g id="a_edge27_Node000020_Node000008"><a xlink:title=" ">
<path fill="none" stroke="#63b8ff" d="M980.88,-179.74C959.05,-166.99 928.61,-149.21 910.16,-138.44"/>
<polygon fill="#63b8ff" stroke="#63b8ff" points="979.1,-182.76 989.5,-184.78 982.63,-176.71 979.1,-182.76"/>
</a>
</g>
</g>
<!-- Node20&#45;&gt;Node11 -->
<g id="edge29_Node000020_Node000011" class="edge">
<title>Node20&#45;&gt;Node11</title>
<g id="a_edge29_Node000020_Node000011"><a xlink:title=" ">
<path fill="none" stroke="#63b8ff" d="M1006.96,-174.76C1006.79,-137.24 1005.95,-60.28 1002,-56 980.75,-32.98 787.12,-19.67 682.45,-14.1"/>
<polygon fill="#63b8ff" stroke="#63b8ff" points="1003.46,-174.31 1006.99,-184.3 1010.46,-174.29 1003.46,-174.31"/>
</a>
</g>
</g>
<!-- Node20&#45;&gt;Node13 -->
<g id="edge30_Node000020_Node000013" class="edge">
<title>Node20&#45;&gt;Node13</title>
<g id="a_edge30_Node000020_Node000013"><a xlink:title=" ">
<path fill="none" stroke="#63b8ff" d="M1007.17,-174.23C1008.3,-156.15 1012.45,-130.07 1026,-112 1063.13,-62.48 1132.07,-33.91 1173.32,-20.49"/>
<polygon fill="#63b8ff" stroke="#63b8ff" points="1003.68,-173.89 1006.83,-184 1010.67,-174.13 1003.68,-173.89"/>
</a>
</g>
</g>
<!-- Node20&#45;&gt;Node21 -->
<g id="edge31_Node000020_Node000021" class="edge">
<title>Node20&#45;&gt;Node21</title>
<g id="a_edge31_Node000020_Node000021"><a xlink:title=" ">
<path fill="none" stroke="#63b8ff" d="M1031.36,-179.39C1051.21,-166.67 1078.61,-149.12 1095.27,-138.44"/>
<polygon fill="#63b8ff" stroke="#63b8ff" points="1029.56,-176.39 1023.03,-184.73 1033.34,-182.28 1029.56,-176.39"/>
</a>
</g>
</g>
<!-- Node20&#45;&gt;Node22 -->
<g id="edge32_Node000020_Node000022" class="edge">
<title>Node20&#45;&gt;Node22</title>
<g id="a_edge32_Node000020_Node000022"><a xlink:title=" ">
<path fill="none" stroke="#63b8ff" d="M1054.83,-182.76C1104.93,-169.95 1182.54,-150.09 1228.1,-138.44"/>
<polygon fill="#63b8ff" stroke="#63b8ff" points="1054.25,-179.3 1045.43,-185.17 1055.99,-186.08 1054.25,-179.3"/>
</a>
</g>
</g>
</g>
</svg>
