<?xml version="1.0" encoding="UTF-8" standalone="no"?>
<!DOCTYPE svg PUBLIC "-//W3C//DTD SVG 1.1//EN"
 "http://www.w3.org/Graphics/SVG/1.1/DTD/svg11.dtd">
<!-- Generated by graphviz version 13.1.2 (20250808.2320)
 -->
<!-- Title: inc/tinyengine_renderer_dvi.h Pages: 1 -->
<svg width="470pt" height="220pt"
 viewBox="0.00 0.00 470.00 220.00" xmlns="http://www.w3.org/2000/svg" xmlns:xlink="http://www.w3.org/1999/xlink">
<g id="graph0" class="graph" transform="scale(1 1) rotate(0) translate(4 216)">
<title>inc/tinyengine_renderer_dvi.h</title>
<!-- Node1 -->
<g id="Node000001" class="node">
<title>Node1</title>
<g id="a_Node000001"><a xlink:title=" ">
<polygon fill="#999999" stroke="#666666" points="346.88,-212 230.38,-212 230.38,-180 346.88,-180 346.88,-212"/>
<text xml:space="preserve" text-anchor="start" x="238.38" y="-198.5" font-family="Helvetica,sans-Serif" font-size="10.00">inc/tinyengine_renderer</text>
<text xml:space="preserve" text-anchor="middle" x="288.62" y="-186.5" font-family="Helvetica,sans-Serif" font-size="10.00">_dvi.h</text>
</a>
</g>
</g>
<!-- Node2 -->
<g id="Node000002" class="node">
<title>Node2</title>
<g id="a_Node000002"><a xlink:href="_game_scene_8h.html" target="_top" xlink:title="Abstract class for the actual game scene and its assets.">
<polygon fill="white" stroke="#666666" points="231.62,-138 137.62,-138 137.62,-118 231.62,-118 231.62,-138"/>
<text xml:space="preserve" text-anchor="middle" x="184.62" y="-124.5" font-family="Helvetica,sans-Serif" font-size="10.00">inc/GameScene.h</text>
</a>
</g>
</g>
<!-- Node1&#45;&gt;Node2 -->
<g id="edge1_Node000001_Node000002" class="edge">
<title>Node1&#45;&gt;Node2</title>
<g id="a_edge1_Node000001_Node000002"><a xlink:title=" ">
<path fill="none" stroke="#63b8ff" d="M254.61,-173.41C235.98,-161.59 213.85,-147.54 199.53,-138.46"/>
<polygon fill="#63b8ff" stroke="#63b8ff" points="252.64,-176.31 262.96,-178.71 256.4,-170.4 252.64,-176.31"/>
</a>
</g>
</g>
<!-- Node8 -->
<g id="Node000008" class="node">
<title>Node8</title>
<g id="a_Node000008"><a xlink:href="_game_8cpp.html" target="_top" xlink:title=" ">
<polygon fill="white" stroke="#666666" points="327.38,-138 249.88,-138 249.88,-118 327.38,-118 327.38,-138"/>
<text xml:space="preserve" text-anchor="middle" x="288.62" y="-124.5" font-family="Helvetica,sans-Serif" font-size="10.00">src/Game.cpp</text>
</a>
</g>
</g>
<!-- Node1&#45;&gt;Node8 -->
<g id="edge8_Node000001_Node000008" class="edge">
<title>Node1&#45;&gt;Node8</title>
<g id="a_edge8_Node000001_Node000008"><a xlink:title=" ">
<path fill="none" stroke="#63b8ff" d="M288.62,-168.31C288.62,-157.67 288.62,-146.13 288.62,-138.32"/>
<polygon fill="#63b8ff" stroke="#63b8ff" points="285.13,-168.18 288.63,-178.18 292.13,-168.18 285.13,-168.18"/>
</a>
</g>
</g>
<!-- Node9 -->
<g id="Node000009" class="node">
<title>Node9</title>
<g id="a_Node000009"><a xlink:href="tinyengine__renderer__dvi_8cpp.html" target="_top" xlink:title=" ">
<polygon fill="white" stroke="#666666" points="462.25,-144 345,-144 345,-112 462.25,-112 462.25,-144"/>
<text xml:space="preserve" text-anchor="start" x="353" y="-130.5" font-family="Helvetica,sans-Serif" font-size="10.00">src/tinyengine_renderer</text>
<text xml:space="preserve" text-anchor="middle" x="403.62" y="-118.5" font-family="Helvetica,sans-Serif" font-size="10.00">_dvi.cpp</text>
</a>
</g>
</g>
<!-- Node1&#45;&gt;Node9 -->
<g id="edge9_Node000001_Node000009" class="edge">
<title>Node1&#45;&gt;Node9</title>
<g id="a_edge9_Node000001_Node000009"><a xlink:title=" ">
<path fill="none" stroke="#63b8ff" d="M325.57,-173.8C342.24,-164.23 361.58,-153.13 376.83,-144.38"/>
<polygon fill="#63b8ff" stroke="#63b8ff" points="323.83,-170.76 316.9,-178.77 327.32,-176.83 323.83,-170.76"/>
</a>
</g>
</g>
<!-- Node3 -->
<g id="Node000003" class="node">
<title>Node3</title>
<g id="a_Node000003"><a xlink:href="_game_scene_8cpp.html" target="_top" xlink:title=" ">
<polygon fill="white" stroke="#666666" points="105.25,-76 0,-76 0,-56 105.25,-56 105.25,-76"/>
<text xml:space="preserve" text-anchor="middle" x="52.62" y="-62.5" font-family="Helvetica,sans-Serif" font-size="10.00">src/GameScene.cpp</text>
</a>
</g>
</g>
<!-- Node2&#45;&gt;Node3 -->
<g id="edge2_Node000002_Node000003" class="edge">
<title>Node2&#45;&gt;Node3</title>
<g id="a_edge2_Node000002_Node000003"><a xlink:title=" ">
<path fill="none" stroke="#63b8ff" d="M153.66,-112.92C128.81,-101.63 94.65,-86.1 73.11,-76.31"/>
<polygon fill="#63b8ff" stroke="#63b8ff" points="152.07,-116.05 162.62,-117 154.97,-109.67 152.07,-116.05"/>
</a>
</g>
</g>
<!-- Node4 -->
<g id="Node000004" class="node">
<title>Node4</title>
<g id="a_Node000004"><a xlink:href="_dino_game_8h.html" target="_top" xlink:title=" ">
<polygon fill="white" stroke="#666666" points="245.5,-76 123.75,-76 123.75,-56 245.5,-56 245.5,-76"/>
<text xml:space="preserve" text-anchor="middle" x="184.62" y="-62.5" font-family="Helvetica,sans-Serif" font-size="10.00">src/scenes/DinoGame.h</text>
</a>
</g>
</g>
<!-- Node2&#45;&gt;Node4 -->
<g id="edge3_Node000002_Node000004" class="edge">
<title>Node2&#45;&gt;Node4</title>
<g id="a_edge3_Node000002_Node000004"><a xlink:title=" ">
<path fill="none" stroke="#63b8ff" d="M184.62,-106.25C184.62,-95.97 184.62,-84.09 184.62,-76.11"/>
<polygon fill="#63b8ff" stroke="#63b8ff" points="181.13,-106.11 184.63,-116.11 188.13,-106.11 181.13,-106.11"/>
</a>
</g>
</g>
<!-- Node6 -->
<g id="Node000006" class="node">
<title>Node6</title>
<g id="a_Node000006"><a xlink:href="_snake_game_8h.html" target="_top" xlink:title=" ">
<polygon fill="white" stroke="#666666" points="393.25,-76 264,-76 264,-56 393.25,-56 393.25,-76"/>
<text xml:space="preserve" text-anchor="middle" x="328.62" y="-62.5" font-family="Helvetica,sans-Serif" font-size="10.00">src/scenes/SnakeGame.h</text>
</a>
</g>
</g>
<!-- Node2&#45;&gt;Node6 -->
<g id="edge5_Node000002_Node000006" class="edge">
<title>Node2&#45;&gt;Node6</title>
<g id="a_edge5_Node000002_Node000006"><a xlink:title=" ">
<path fill="none" stroke="#63b8ff" d="M217.68,-113.23C244.84,-101.91 282.57,-86.19 306.28,-76.31"/>
<polygon fill="#63b8ff" stroke="#63b8ff" points="216.41,-109.97 208.52,-117.04 219.1,-116.43 216.41,-109.97"/>
</a>
</g>
</g>
<!-- Node5 -->
<g id="Node000005" class="node">
<title>Node5</title>
<g id="a_Node000005"><a xlink:href="_dino_game_8cpp.html" target="_top" xlink:title=" ">
<polygon fill="white" stroke="#666666" points="250.75,-20 118.5,-20 118.5,0 250.75,0 250.75,-20"/>
<text xml:space="preserve" text-anchor="middle" x="184.62" y="-6.5" font-family="Helvetica,sans-Serif" font-size="10.00">src/scenes/DinoGame.cpp</text>
</a>
</g>
</g>
<!-- Node4&#45;&gt;Node5 -->
<g id="edge4_Node000004_Node000005" class="edge">
<title>Node4&#45;&gt;Node5</title>
<g id="a_edge4_Node000004_Node000005"><a xlink:title=" ">
<path fill="none" stroke="#63b8ff" d="M184.62,-44.13C184.62,-35.9 184.62,-26.85 184.62,-20.3"/>
<polygon fill="#63b8ff" stroke="#63b8ff" points="181.13,-44.08 184.63,-54.08 188.13,-44.08 181.13,-44.08"/>
</a>
</g>
</g>
<!-- Node6&#45;&gt;Node5 -->
<g id="edge6_Node000006_Node000005" class="edge">
<title>Node6&#45;&gt;Node5</title>
<g id="a_edge6_Node000006_Node000005"><a xlink:title=" ">
<path fill="none" stroke="#63b8ff" d="M293.06,-51.66C267.25,-41.98 232.95,-29.12 209.9,-20.48"/>
<polygon fill="#63b8ff" stroke="#63b8ff" points="291.53,-54.83 302.12,-55.06 293.99,-48.27 291.53,-54.83"/>
</a>
</g>
</g>
<!-- Node7 -->
<g id="Node000007" class="node">
<title>Node7</title>
<g id="a_Node000007"><a xlink:href="_snake_game_8cpp.html" target="_top" xlink:title=" ">
<polygon fill="white" stroke="#666666" points="408.5,-20 268.75,-20 268.75,0 408.5,0 408.5,-20"/>
<text xml:space="preserve" text-anchor="middle" x="338.62" y="-6.5" font-family="Helvetica,sans-Serif" font-size="10.00">src/scenes/SnakeGame.cpp</text>
</a>
</g>
</g>
<!-- Node6&#45;&gt;Node7 -->
<g id="edge7_Node000006_Node000007" class="edge">
<title>Node6&#45;&gt;Node7</title>
<g id="a_edge7_Node000006_Node000007"><a xlink:title=" ">
<path fill="none" stroke="#63b8ff" d="M332.44,-44.43C333.98,-36.11 335.67,-26.93 336.9,-20.3"/>
<polygon fill="#63b8ff" stroke="#63b8ff" points="329.02,-43.64 330.64,-54.11 335.9,-44.91 329.02,-43.64"/>
</a>
</g>
</g>
</g>
</svg>
