<?xml version="1.0" encoding="UTF-8" standalone="no"?>
<!DOCTYPE svg PUBLIC "-//W3C//DTD SVG 1.1//EN"
 "http://www.w3.org/Graphics/SVG/1.1/DTD/svg11.dtd">
<!-- Generated by graphviz version 13.1.2 (20250808.2320)
 -->
<!-- Title: inc/tinyengine_sprite.h Pages: 1 -->
<svg width="2187pt" height="208pt"
 viewBox="0.00 0.00 2187.00 208.00" xmlns="http://www.w3.org/2000/svg" xmlns:xlink="http://www.w3.org/1999/xlink">
<g id="graph0" class="graph" transform="scale(1 1) rotate(0) translate(4 204)">
<title>inc/tinyengine_sprite.h</title>
<!-- Node1 -->
<g id="Node000001" class="node">
<title>Node1</title>
<g id="a_Node000001"><a xlink:title=" ">
<polygon fill="#999999" stroke="#666666" points="1094,-200 980.5,-200 980.5,-180 1094,-180 1094,-200"/>
<text xml:space="preserve" text-anchor="middle" x="1037.25" y="-186.5" font-family="Helvetica,sans-Serif" font-size="10.00">inc/tinyengine_sprite.h</text>
</a>
</g>
</g>
<!-- Node2 -->
<g id="Node000002" class="node">
<title>Node2</title>
<g id="a_Node000002"><a xlink:href="tinyengine__framebuffer_8h.html" target="_top" xlink:title=" ">
<polygon fill="white" stroke="#666666" points="1098.5,-144 976,-144 976,-124 1098.5,-124 1098.5,-144"/>
<text xml:space="preserve" text-anchor="middle" x="1037.25" y="-130.5" font-family="Helvetica,sans-Serif" font-size="10.00">tinyengine_framebuffer.h</text>
</a>
</g>
</g>
<!-- Node1&#45;&gt;Node2 -->
<g id="edge1_Node000001_Node000002" class="edge">
<title>Node1&#45;&gt;Node2</title>
<g id="a_edge1_Node000001_Node000002"><a xlink:title=" ">
<path fill="none" stroke="#63b8ff" d="M1037.25,-179.59C1037.25,-173.01 1037.25,-163.96 1037.25,-155.73"/>
<polygon fill="#63b8ff" stroke="#63b8ff" points="1040.75,-155.81 1037.25,-145.81 1033.75,-155.81 1040.75,-155.81"/>
</a>
</g>
</g>
<!-- Node3 -->
<g id="Node000003" class="node">
<title>Node3</title>
<g id="a_Node000003"><a xlink:href="tinyengine_8h.html" target="_top" xlink:title=" ">
<polygon fill="white" stroke="#666666" points="1071.5,-88 1003,-88 1003,-68 1071.5,-68 1071.5,-88"/>
<text xml:space="preserve" text-anchor="middle" x="1037.25" y="-74.5" font-family="Helvetica,sans-Serif" font-size="10.00">tinyengine.h</text>
</a>
</g>
</g>
<!-- Node2&#45;&gt;Node3 -->
<g id="edge2_Node000002_Node000003" class="edge">
<title>Node2&#45;&gt;Node3</title>
<g id="a_edge2_Node000002_Node000003"><a xlink:title=" ">
<path fill="none" stroke="#63b8ff" d="M1031.98,-123.59C1030.67,-117.01 1030.23,-107.96 1030.66,-99.73"/>
<polygon fill="#63b8ff" stroke="#63b8ff" points="1034.14,-100.14 1031.83,-89.8 1027.19,-99.33 1034.14,-100.14"/>
</a>
</g>
</g>
<!-- Node3&#45;&gt;Node2 -->
<g id="edge24_Node000003_Node000002" class="edge">
<title>Node3&#45;&gt;Node2</title>
<g id="a_edge24_Node000003_Node000002"><a xlink:title=" ">
<path fill="none" stroke="#63b8ff" d="M1042.5,-88.3C1043.84,-94.93 1044.28,-104.11 1043.83,-112.43"/>
<polygon fill="#63b8ff" stroke="#63b8ff" points="1040.38,-111.75 1042.69,-122.09 1047.33,-112.57 1040.38,-111.75"/>
</a>
</g>
</g>
<!-- Node4 -->
<g id="Node000004" class="node">
<title>Node4</title>
<g id="a_Node000004"><a xlink:title=" ">
<polygon fill="#e0e0e0" stroke="#999999" points="68.5,-26 0,-26 0,-6 68.5,-6 68.5,-26"/>
<text xml:space="preserve" text-anchor="middle" x="34.25" y="-12.5" font-family="Helvetica,sans-Serif" font-size="10.00">pico/stdlib.h</text>
</a>
</g>
</g>
<!-- Node3&#45;&gt;Node4 -->
<g id="edge3_Node000003_Node000004" class="edge">
<title>Node3&#45;&gt;Node4</title>
<g id="a_edge3_Node000003_Node000004"><a xlink:title=" ">
<path fill="none" stroke="#63b8ff" d="M1002.61,-76.71C852.79,-75.26 259.9,-67.36 77.25,-32 74.23,-31.41 71.12,-30.66 68.04,-29.8"/>
<polygon fill="#63b8ff" stroke="#63b8ff" points="69.15,-26.48 58.56,-26.81 67.04,-33.16 69.15,-26.48"/>
</a>
</g>
</g>
<!-- Node5 -->
<g id="Node000005" class="node">
<title>Node5</title>
<g id="a_Node000005"><a xlink:title=" ">
<polygon fill="#e0e0e0" stroke="#999999" points="131.88,-26 86.62,-26 86.62,-6 131.88,-6 131.88,-26"/>
<text xml:space="preserve" text-anchor="middle" x="109.25" y="-12.5" font-family="Helvetica,sans-Serif" font-size="10.00">stdio.h</text>
</a>
</g>
</g>
<!-- Node3&#45;&gt;Node5 -->
<g id="edge4_Node000003_Node000005" class="edge">
<title>Node3&#45;&gt;Node5</title>
<g id="a_edge4_Node000003_Node000005"><a xlink:title=" ">
<path fill="none" stroke="#63b8ff" d="M1002.91,-77.04C859.61,-76.95 309,-73.81 141.25,-32 139.65,-31.6 138.03,-31.12 136.42,-30.58"/>
<polygon fill="#63b8ff" stroke="#63b8ff" points="138.05,-27.47 127.47,-26.94 135.42,-33.95 138.05,-27.47"/>
</a>
</g>
</g>
<!-- Node6 -->
<g id="Node000006" class="node">
<title>Node6</title>
<g id="a_Node000006"><a xlink:title=" ">
<polygon fill="#e0e0e0" stroke="#999999" points="230.12,-26 150.38,-26 150.38,-6 230.12,-6 230.12,-26"/>
<text xml:space="preserve" text-anchor="middle" x="190.25" y="-12.5" font-family="Helvetica,sans-Serif" font-size="10.00">hardware/spi.h</text>
</a>
</g>
</g>
<!-- Node3&#45;&gt;Node6 -->
<g id="edge5_Node000003_Node000006" class="edge">
<title>Node3&#45;&gt;Node6</title>
<g id="a_edge5_Node000003_Node000006"><a xlink:title=" ">
<path fill="none" stroke="#63b8ff" d="M1002.81,-76.16C869.76,-72.75 389.34,-58.8 239.25,-32 235.46,-31.32 231.54,-30.45 227.66,-29.45"/>
<polygon fill="#63b8ff" stroke="#63b8ff" points="228.95,-26.18 218.38,-26.85 227.06,-32.92 228.95,-26.18"/>
</a>
</g>
</g>
<!-- Node7 -->
<g id="Node000007" class="node">
<title>Node7</title>
<g id="a_Node000007"><a xlink:title=" ">
<polygon fill="#e0e0e0" stroke="#999999" points="296.38,-26 248.12,-26 248.12,-6 296.38,-6 296.38,-26"/>
<text xml:space="preserve" text-anchor="middle" x="272.25" y="-12.5" font-family="Helvetica,sans-Serif" font-size="10.00">stdint.h</text>
</a>
</g>
</g>
<!-- Node3&#45;&gt;Node7 -->
<g id="edge6_Node000003_Node000007" class="edge">
<title>Node3&#45;&gt;Node7</title>
<g id="a_edge6_Node000003_Node000007"><a xlink:title=" ">
<path fill="none" stroke="#63b8ff" d="M1002.55,-76.54C876.05,-74.59 439.92,-65.53 305.25,-32 303.65,-31.6 302.03,-31.13 300.41,-30.59"/>
<polygon fill="#63b8ff" stroke="#63b8ff" points="301.97,-27.45 291.38,-27.04 299.4,-33.96 301.97,-27.45"/>
</a>
</g>
</g>
<!-- Node8 -->
<g id="Node000008" class="node">
<title>Node8</title>
<g id="a_Node000008"><a xlink:href="tinyengine__scene_8h.html" target="_top" xlink:title=" ">
<polygon fill="white" stroke="#666666" points="414.25,-26 314.25,-26 314.25,-6 414.25,-6 414.25,-26"/>
<text xml:space="preserve" text-anchor="middle" x="364.25" y="-12.5" font-family="Helvetica,sans-Serif" font-size="10.00">tinyengine_scene.h</text>
</a>
</g>
</g>
<!-- Node3&#45;&gt;Node8 -->
<g id="edge7_Node000003_Node000008" class="edge">
<title>Node3&#45;&gt;Node8</title>
<g id="a_edge7_Node000003_Node000008"><a xlink:title=" ">
<path fill="none" stroke="#63b8ff" d="M1002.72,-76.59C908.94,-75.02 641.9,-67.52 423.25,-32 418.3,-31.2 413.17,-30.18 408.08,-29.05"/>
<polygon fill="#63b8ff" stroke="#63b8ff" points="409.12,-25.7 398.58,-26.79 407.51,-32.51 409.12,-25.7"/>
</a>
</g>
</g>
<!-- Node9 -->
<g id="Node000009" class="node">
<title>Node9</title>
<g id="a_Node000009"><a xlink:title=" ">
<polygon fill="#e0e0e0" stroke="#999999" points="514.62,-26 431.88,-26 431.88,-6 514.62,-6 514.62,-26"/>
<text xml:space="preserve" text-anchor="middle" x="473.25" y="-12.5" font-family="Helvetica,sans-Serif" font-size="10.00">unordered_map</text>
</a>
</g>
</g>
<!-- Node3&#45;&gt;Node9 -->
<g id="edge8_Node000003_Node000009" class="edge">
<title>Node3&#45;&gt;Node9</title>
<g id="a_edge8_Node000003_Node000009"><a xlink:title=" ">
<path fill="none" stroke="#63b8ff" d="M1002.71,-76.33C919.59,-74.21 702.15,-65.62 524.25,-32 520.46,-31.28 516.55,-30.4 512.66,-29.43"/>
<polygon fill="#63b8ff" stroke="#63b8ff" points="513.89,-26.14 503.33,-26.9 512.06,-32.89 513.89,-26.14"/>
</a>
</g>
</g>
<!-- Node10 -->
<g id="Node000010" class="node">
<title>Node10</title>
<g id="a_Node000010"><a xlink:title=" ">
<polygon fill="#e0e0e0" stroke="#999999" points="609.62,-26 532.88,-26 532.88,-6 609.62,-6 609.62,-26"/>
<text xml:space="preserve" text-anchor="middle" x="571.25" y="-12.5" font-family="Helvetica,sans-Serif" font-size="10.00">hardware/pll.h</text>
</a>
</g>
</g>
<!-- Node3&#45;&gt;Node10 -->
<g id="edge9_Node000003_Node000010" class="edge">
<title>Node3&#45;&gt;Node10</title>
<g id="a_edge9_Node000003_Node000010"><a xlink:title=" ">
<path fill="none" stroke="#63b8ff" d="M1002.66,-75.65C930.5,-72.31 758.91,-61.68 618.25,-32 614.92,-31.3 611.49,-30.45 608.08,-29.52"/>
<polygon fill="#63b8ff" stroke="#63b8ff" points="609.38,-26.26 598.8,-26.79 607.4,-32.97 609.38,-26.26"/>
</a>
</g>
</g>
<!-- Node11 -->
<g id="Node000011" class="node">
<title>Node11</title>
<g id="a_Node000011"><a xlink:title=" ">
<polygon fill="#e0e0e0" stroke="#999999" points="713.12,-26 627.38,-26 627.38,-6 713.12,-6 713.12,-26"/>
<text xml:space="preserve" text-anchor="middle" x="670.25" y="-12.5" font-family="Helvetica,sans-Serif" font-size="10.00">hardware/vreg.h</text>
</a>
</g>
</g>
<!-- Node3&#45;&gt;Node11 -->
<g id="edge10_Node000003_Node000011" class="edge">
<title>Node3&#45;&gt;Node11</title>
<g id="a_edge10_Node000003_Node000011"><a xlink:title=" ">
<path fill="none" stroke="#63b8ff" d="M1002.95,-73.68C944.78,-67.69 823.25,-53.67 722.25,-32 718.67,-31.23 714.97,-30.35 711.27,-29.4"/>
<polygon fill="#63b8ff" stroke="#63b8ff" points="712.34,-26.07 701.78,-26.84 710.52,-32.83 712.34,-26.07"/>
</a>
</g>
</g>
<!-- Node12 -->
<g id="Node000012" class="node">
<title>Node12</title>
<g id="a_Node000012"><a xlink:title=" ">
<polygon fill="#e0e0e0" stroke="#999999" points="827,-26 731.5,-26 731.5,-6 827,-6 827,-26"/>
<text xml:space="preserve" text-anchor="middle" x="779.25" y="-12.5" font-family="Helvetica,sans-Serif" font-size="10.00">hardware/clocks.h</text>
</a>
</g>
</g>
<!-- Node3&#45;&gt;Node12 -->
<g id="edge11_Node000003_Node000012" class="edge">
<title>Node3&#45;&gt;Node12</title>
<g id="a_edge11_Node000003_Node000012"><a xlink:title=" ">
<path fill="none" stroke="#63b8ff" d="M1002.66,-69.66C962.54,-61.06 894.45,-46.17 836.25,-32 832.72,-31.14 829.07,-30.23 825.41,-29.3"/>
<polygon fill="#63b8ff" stroke="#63b8ff" points="826.49,-25.97 815.94,-26.86 824.75,-32.75 826.49,-25.97"/>
</a>
</g>
</g>
<!-- Node13 -->
<g id="Node000013" class="node">
<title>Node13</title>
<g id="a_Node000013"><a xlink:title=" ">
<polygon fill="#e0e0e0" stroke="#999999" points="955.12,-26 845.38,-26 845.38,-6 955.12,-6 955.12,-26"/>
<text xml:space="preserve" text-anchor="middle" x="900.25" y="-12.5" font-family="Helvetica,sans-Serif" font-size="10.00">hardware/structs/pll.h</text>
</a>
</g>
</g>
<!-- Node3&#45;&gt;Node13 -->
<g id="edge12_Node000003_Node000013" class="edge">
<title>Node3&#45;&gt;Node13</title>
<g id="a_edge12_Node000003_Node000013"><a xlink:title=" ">
<path fill="none" stroke="#63b8ff" d="M1015.84,-67.62C993.32,-57.76 957.64,-42.13 931.87,-30.85"/>
<polygon fill="#63b8ff" stroke="#63b8ff" points="933.46,-27.72 922.89,-26.92 930.65,-34.13 933.46,-27.72"/>
</a>
</g>
</g>
<!-- Node14 -->
<g id="Node000014" class="node">
<title>Node14</title>
<g id="a_Node000014"><a xlink:title=" ">
<polygon fill="#e0e0e0" stroke="#999999" points="1101.5,-26 973,-26 973,-6 1101.5,-6 1101.5,-26"/>
<text xml:space="preserve" text-anchor="middle" x="1037.25" y="-12.5" font-family="Helvetica,sans-Serif" font-size="10.00">hardware/structs/clocks.h</text>
</a>
</g>
</g>
<!-- Node3&#45;&gt;Node14 -->
<g id="edge13_Node000003_Node000014" class="edge">
<title>Node3&#45;&gt;Node14</title>
<g id="a_edge13_Node000003_Node000014"><a xlink:title=" ">
<path fill="none" stroke="#63b8ff" d="M1037.25,-67.62C1037.25,-59.56 1037.25,-47.65 1037.25,-37.41"/>
<polygon fill="#63b8ff" stroke="#63b8ff" points="1040.75,-37.63 1037.25,-27.63 1033.75,-37.63 1040.75,-37.63"/>
</a>
</g>
</g>
<!-- Node15 -->
<g id="Node000015" class="node">
<title>Node15</title>
<g id="a_Node000015"><a xlink:title=" ">
<polygon fill="#e0e0e0" stroke="#999999" points="1205.12,-26 1119.38,-26 1119.38,-6 1205.12,-6 1205.12,-26"/>
<text xml:space="preserve" text-anchor="middle" x="1162.25" y="-12.5" font-family="Helvetica,sans-Serif" font-size="10.00">hardware/dma.h</text>
</a>
</g>
</g>
<!-- Node3&#45;&gt;Node15 -->
<g id="edge14_Node000003_Node000015" class="edge">
<title>Node3&#45;&gt;Node15</title>
<g id="a_edge14_Node000003_Node000015"><a xlink:title=" ">
<path fill="none" stroke="#63b8ff" d="M1056.78,-67.62C1077.15,-57.85 1109.31,-42.41 1132.76,-31.15"/>
<polygon fill="#63b8ff" stroke="#63b8ff" points="1133.99,-34.45 1141.49,-26.96 1130.96,-28.14 1133.99,-34.45"/>
</a>
</g>
</g>
<!-- Node16 -->
<g id="Node000016" class="node">
<title>Node16</title>
<g id="a_Node000016"><a xlink:title=" ">
<polygon fill="#e0e0e0" stroke="#999999" points="1307.75,-26 1222.75,-26 1222.75,-6 1307.75,-6 1307.75,-26"/>
<text xml:space="preserve" text-anchor="middle" x="1265.25" y="-12.5" font-family="Helvetica,sans-Serif" font-size="10.00">hardware/gpio.h</text>
</a>
</g>
</g>
<!-- Node3&#45;&gt;Node16 -->
<g id="edge15_Node000003_Node000016" class="edge">
<title>Node3&#45;&gt;Node16</title>
<g id="a_edge15_Node000003_Node000016"><a xlink:title=" ">
<path fill="none" stroke="#63b8ff" d="M1071.94,-68.58C1107.7,-59.81 1165.02,-45.49 1214.25,-32 1217.01,-31.24 1219.86,-30.45 1222.72,-29.64"/>
<polygon fill="#63b8ff" stroke="#63b8ff" points="1223.65,-33.01 1232.29,-26.88 1221.71,-26.29 1223.65,-33.01"/>
</a>
</g>
</g>
<!-- Node17 -->
<g id="Node000017" class="node">
<title>Node17</title>
<g id="a_Node000017"><a xlink:title=" ">
<polygon fill="#e0e0e0" stroke="#999999" points="1403,-26 1325.5,-26 1325.5,-6 1403,-6 1403,-26"/>
<text xml:space="preserve" text-anchor="middle" x="1364.25" y="-12.5" font-family="Helvetica,sans-Serif" font-size="10.00">hardware/irq.h</text>
</a>
</g>
</g>
<!-- Node3&#45;&gt;Node17 -->
<g id="edge16_Node000003_Node000017" class="edge">
<title>Node3&#45;&gt;Node17</title>
<g id="a_edge16_Node000003_Node000017"><a xlink:title=" ">
<path fill="none" stroke="#63b8ff" d="M1071.63,-73.16C1124.76,-66.84 1229.85,-52.85 1317.25,-32 1320.19,-31.3 1323.22,-30.5 1326.25,-29.66"/>
<polygon fill="#63b8ff" stroke="#63b8ff" points="1327.07,-33.06 1335.66,-26.86 1325.07,-26.36 1327.07,-33.06"/>
</a>
</g>
</g>
<!-- Node18 -->
<g id="Node000018" class="node">
<title>Node18</title>
<g id="a_Node000018"><a xlink:title=" ">
<polygon fill="#e0e0e0" stroke="#999999" points="1529,-32 1421.5,-32 1421.5,0 1529,0 1529,-32"/>
<text xml:space="preserve" text-anchor="start" x="1429.5" y="-18.5" font-family="Helvetica,sans-Serif" font-size="10.00">hardware/structs/bus</text>
<text xml:space="preserve" text-anchor="middle" x="1475.25" y="-6.5" font-family="Helvetica,sans-Serif" font-size="10.00">_ctrl.h</text>
</a>
</g>
</g>
<!-- Node3&#45;&gt;Node18 -->
<g id="edge17_Node000003_Node000018" class="edge">
<title>Node3&#45;&gt;Node18</title>
<g id="a_edge17_Node000003_Node000018"><a xlink:title=" ">
<path fill="none" stroke="#63b8ff" d="M1071.83,-74.18C1136.36,-68.64 1279.71,-54.98 1410.07,-32.26"/>
<polygon fill="#63b8ff" stroke="#63b8ff" points="1410.31,-35.77 1419.55,-30.59 1409.09,-28.88 1410.31,-35.77"/>
</a>
</g>
</g>
<!-- Node19 -->
<g id="Node000019" class="node">
<title>Node19</title>
<g id="a_Node000019"><a xlink:title=" ">
<polygon fill="#e0e0e0" stroke="#999999" points="1657.5,-32 1547,-32 1547,0 1657.5,0 1657.5,-32"/>
<text xml:space="preserve" text-anchor="start" x="1555" y="-18.5" font-family="Helvetica,sans-Serif" font-size="10.00">hardware/structs/hstx</text>
<text xml:space="preserve" text-anchor="middle" x="1602.25" y="-6.5" font-family="Helvetica,sans-Serif" font-size="10.00">_ctrl.h</text>
</a>
</g>
</g>
<!-- Node3&#45;&gt;Node19 -->
<g id="edge18_Node000003_Node000019" class="edge">
<title>Node3&#45;&gt;Node19</title>
<g id="a_edge18_Node000003_Node000019"><a xlink:title=" ">
<path fill="none" stroke="#63b8ff" d="M1071.78,-75.57C1151.7,-71.91 1355.71,-60.53 1535.58,-32.29"/>
<polygon fill="#63b8ff" stroke="#63b8ff" points="1536.02,-35.76 1545.35,-30.73 1534.92,-28.85 1536.02,-35.76"/>
</a>
</g>
</g>
<!-- Node20 -->
<g id="Node000020" class="node">
<title>Node20</title>
<g id="a_Node000020"><a xlink:title=" ">
<polygon fill="#e0e0e0" stroke="#999999" points="1786.5,-32 1676,-32 1676,0 1786.5,0 1786.5,-32"/>
<text xml:space="preserve" text-anchor="start" x="1684" y="-18.5" font-family="Helvetica,sans-Serif" font-size="10.00">hardware/structs/hstx</text>
<text xml:space="preserve" text-anchor="middle" x="1731.25" y="-6.5" font-family="Helvetica,sans-Serif" font-size="10.00">_fifo.h</text>
</a>
</g>
</g>
<!-- Node3&#45;&gt;Node20 -->
<g id="edge19_Node000003_Node000020" class="edge">
<title>Node3&#45;&gt;Node20</title>
<g id="a_edge19_Node000003_Node000020"><a xlink:title=" ">
<path fill="none" stroke="#63b8ff" d="M1071.89,-76.41C1165.69,-74.41 1432.54,-66.06 1664.33,-32.11"/>
<polygon fill="#63b8ff" stroke="#63b8ff" points="1664.82,-35.57 1674.19,-30.64 1663.79,-28.65 1664.82,-35.57"/>
</a>
</g>
</g>
<!-- Node21 -->
<g id="Node000021" class="node">
<title>Node21</title>
<g id="a_Node000021"><a xlink:title=" ">
<polygon fill="#e0e0e0" stroke="#999999" points="1917.62,-26 1804.88,-26 1804.88,-6 1917.62,-6 1917.62,-26"/>
<text xml:space="preserve" text-anchor="middle" x="1861.25" y="-12.5" font-family="Helvetica,sans-Serif" font-size="10.00">hardware/structs/sio.h</text>
</a>
</g>
</g>
<!-- Node3&#45;&gt;Node21 -->
<g id="edge20_Node000003_Node000021" class="edge">
<title>Node3&#45;&gt;Node21</title>
<g id="a_edge20_Node000003_Node000021"><a xlink:title=" ">
<path fill="none" stroke="#63b8ff" d="M1071.83,-76.96C1179.51,-76.41 1518.24,-71.43 1795.25,-32 1801.21,-31.15 1807.43,-30.04 1813.57,-28.81"/>
<polygon fill="#63b8ff" stroke="#63b8ff" points="1813.92,-32.31 1822.97,-26.8 1812.46,-25.47 1813.92,-32.31"/>
</a>
</g>
</g>
<!-- Node22 -->
<g id="Node000022" class="node">
<title>Node22</title>
<g id="a_Node000022"><a xlink:title=" ">
<polygon fill="#e0e0e0" stroke="#999999" points="2020.75,-26 1935.75,-26 1935.75,-6 2020.75,-6 2020.75,-26"/>
<text xml:space="preserve" text-anchor="middle" x="1978.25" y="-12.5" font-family="Helvetica,sans-Serif" font-size="10.00">pico/multicore.h</text>
</a>
</g>
</g>
<!-- Node3&#45;&gt;Node22 -->
<g id="edge21_Node000003_Node000022" class="edge">
<title>Node3&#45;&gt;Node22</title>
<g id="a_edge21_Node000003_Node000022"><a xlink:title=" ">
<path fill="none" stroke="#63b8ff" d="M1071.66,-76.32C1213.99,-73.33 1757.25,-60.26 1926.25,-32 1930.39,-31.31 1934.66,-30.4 1938.9,-29.38"/>
<polygon fill="#63b8ff" stroke="#63b8ff" points="1939.68,-32.79 1948.45,-26.84 1937.89,-26.02 1939.68,-32.79"/>
</a>
</g>
</g>
<!-- Node23 -->
<g id="Node000023" class="node">
<title>Node23</title>
<g id="a_Node000023"><a xlink:title=" ">
<polygon fill="#e0e0e0" stroke="#999999" points="2103.25,-26 2039.25,-26 2039.25,-6 2103.25,-6 2103.25,-26"/>
<text xml:space="preserve" text-anchor="middle" x="2071.25" y="-12.5" font-family="Helvetica,sans-Serif" font-size="10.00">pico/sem.h</text>
</a>
</g>
</g>
<!-- Node3&#45;&gt;Node23 -->
<g id="edge22_Node000003_Node000023" class="edge">
<title>Node3&#45;&gt;Node23</title>
<g id="a_edge22_Node000003_Node000023"><a xlink:title=" ">
<path fill="none" stroke="#63b8ff" d="M1071.8,-76.84C1224.68,-75.94 1841.06,-69.96 2030.25,-32 2033.05,-31.44 2035.91,-30.72 2038.75,-29.9"/>
<polygon fill="#63b8ff" stroke="#63b8ff" points="2039.64,-33.29 2048.04,-26.84 2037.45,-26.64 2039.64,-33.29"/>
</a>
</g>
</g>
<!-- Node24 -->
<g id="Node000024" class="node">
<title>Node24</title>
<g id="a_Node000024"><a xlink:title=" ">
<polygon fill="#e0e0e0" stroke="#999999" points="2179.25,-26 2121.25,-26 2121.25,-6 2179.25,-6 2179.25,-26"/>
<text xml:space="preserve" text-anchor="middle" x="2150.25" y="-12.5" font-family="Helvetica,sans-Serif" font-size="10.00">functional</text>
</a>
</g>
</g>
<!-- Node3&#45;&gt;Node24 -->
<g id="edge23_Node000003_Node000024" class="edge">
<title>Node3&#45;&gt;Node24</title>
<g id="a_edge23_Node000003_Node000024"><a xlink:title=" ">
<path fill="none" stroke="#63b8ff" d="M1071.95,-77.1C1232.8,-77.31 1906.79,-75.56 2112.25,-32 2114.58,-31.51 2116.95,-30.88 2119.32,-30.17"/>
<polygon fill="#63b8ff" stroke="#63b8ff" points="2120.42,-33.5 2128.7,-26.89 2118.1,-26.89 2120.42,-33.5"/>
</a>
</g>
</g>
</g>
</svg>
