<?xml version="1.0" encoding="UTF-8" standalone="no"?>
<!DOCTYPE svg PUBLIC "-//W3C//DTD SVG 1.1//EN"
 "http://www.w3.org/Graphics/SVG/1.1/DTD/svg11.dtd">
<!-- Generated by graphviz version 13.1.2 (20250808.2320)
 -->
<!-- Title: inc/tinyengine_framebuffer.h Pages: 1 -->
<!--zoomable 332 -->

<svg id="main" version="1.1" xmlns="http://www.w3.org/2000/svg" xmlns:xlink="http://www.w3.org/1999/xlink" xml:space="preserve" onload="init(evt)">

<style type="text/css"><![CDATA[
.node, .edge {opacity: 0.7;}
.node.selected, .edge.selected {opacity: 1;}
.edge:hover path { stroke: red; }
.edge:hover polygon { stroke: red; fill: red; }
]]></style>

<defs>
  <circle id="rim" cx="0" cy="0" r="7"/>
  <circle id="rim2" cx="0" cy="0" r="3.5"/>
  <g id="zoomPlus">
    <use xlink:href="#rim" fill="#404040"><set attributeName="fill" to="#808080" begin="zoomplus.mouseover" end="zoomplus.mouseout"/></use>
    <path d="M-4,0h8M0,-4v8" fill="none" stroke="white" stroke-width="1.5" pointer-events="none"/>
  </g>
  <g id="zoomMin">
    <use xlink:href="#rim" fill="#404040"><set attributeName="fill" to="#808080" begin="zoomminus.mouseover" end="zoomminus.mouseout"/></use>
    <path d="M-4,0h8" fill="none" stroke="white" stroke-width="1.5" pointer-events="none"/>
  </g>
  <g id="arrowUp" transform="translate(30 24)">
    <use xlink:href="#rim"/>
    <path pointer-events="none" fill="none" stroke="white" stroke-width="1.5" d="M0,-3.0v7 M-2.5,-0.5L0,-3.0L2.5,-0.5"/>
  </g>
  <g id="arrowRight" transform="rotate(90) translate(36 -43)">
    <use xlink:href="#rim"/>
    <path pointer-events="none" fill="none" stroke="white" stroke-width="1.5" d="M0,-3.0v7 M-2.5,-0.5L0,-3.0L2.5,-0.5"/>
  </g>
  <g id="arrowDown" transform="rotate(180) translate(-30 -48)">
    <use xlink:href="#rim"/>
    <path pointer-events="none" fill="none" stroke="white" stroke-width="1.5" d="M0,-3.0v7 M-2.5,-0.5L0,-3.0L2.5,-0.5"/>
  </g>
  <g id="arrowLeft" transform="rotate(270) translate(-36 17)">
    <use xlink:href="#rim"/>
    <path pointer-events="none" fill="none" stroke="white" stroke-width="1.5" d="M0,-3.0v7 M-2.5,-0.5L0,-3.0L2.5,-0.5"/>
  </g>
  <g id="resetDef">
    <use xlink:href="#rim2" fill="#404040"><set attributeName="fill" to="#808080" begin="reset.mouseover" end="reset.mouseout"/></use>
  </g>
</defs>
<script type="application/ecmascript">
var viewWidth = 1555;
var viewHeight = 332;
var sectionId = 'dynsection-1';
</script>
<script type="application/ecmascript" xlink:href="svg.min.js"/>
<svg id="graph" class="graph">
<g id="viewport">
<title>inc/tinyengine_framebuffer.h</title>
<!-- Node1 -->
<g id="Node000001" class="node">
<title>Node1</title>
<g id="a_Node000001"><a xlink:title=" ">
<polygon fill="#999999" stroke="#666666" points="1043.38,-324 905.12,-324 905.12,-304 1043.38,-304 1043.38,-324"/>
<text xml:space="preserve" text-anchor="middle" x="974.25" y="-310.5" font-family="Helvetica,sans-Serif" font-size="10.00">inc/tinyengine_framebuffer.h</text>
</a>
</g>
</g>
<!-- Node2 -->
<g id="Node000002" class="node">
<title>Node2</title>
<g id="a_Node000002"><a xlink:href="tinyengine__renderer__dvi__c__adapter_8h.html" target="_top" xlink:title=" ">
<polygon fill="white" stroke="#666666" points="301.88,-212 166.62,-212 166.62,-180 301.88,-180 301.88,-212"/>
<text xml:space="preserve" text-anchor="start" x="174.62" y="-198.5" font-family="Helvetica,sans-Serif" font-size="10.00">backup/tinyengine_renderer</text>
<text xml:space="preserve" text-anchor="middle" x="234.25" y="-186.5" font-family="Helvetica,sans-Serif" font-size="10.00">_dvi_c_adapter.h</text>
</a>
</g>
</g>
<!-- Node1&#45;&gt;Node2 -->
<g id="edge1_Node000001_Node000002" class="edge">
<title>Node1&#45;&gt;Node2</title>
<g id="a_edge1_Node000001_Node000002"><a xlink:title=" ">
<path fill="none" stroke="#63b8ff" d="M893.56,-313.81C741.48,-314.31 418.56,-310.17 316.25,-268 287.18,-256.02 261.14,-229.45 246.55,-212.43"/>
<polygon fill="#63b8ff" stroke="#63b8ff" points="893.15,-317.32 903.13,-313.77 893.12,-310.32 893.15,-317.32"/>
</a>
</g>
</g>
<!-- Node4 -->
<g id="Node000004" class="node">
<title>Node4</title>
<g id="a_Node000004"><a xlink:href="_game_scene_8h.html" target="_top" xlink:title="Abstract class for the actual game scene and its assets.">
<polygon fill="white" stroke="#666666" points="1313.25,-138 1219.25,-138 1219.25,-118 1313.25,-118 1313.25,-138"/>
<text xml:space="preserve" text-anchor="middle" x="1266.25" y="-124.5" font-family="Helvetica,sans-Serif" font-size="10.00">inc/GameScene.h</text>
</a>
</g>
</g>
<!-- Node1&#45;&gt;Node4 -->
<g id="edge3_Node000001_Node000004" class="edge">
<title>Node1&#45;&gt;Node4</title>
<g id="a_edge3_Node000001_Node000004"><a xlink:title=" ">
<path fill="none" stroke="#63b8ff" d="M1049.49,-301.7C1141.13,-286.22 1287.77,-255.31 1320.25,-212 1339.43,-186.42 1302.23,-154.19 1280.46,-138.49"/>
<polygon fill="#63b8ff" stroke="#63b8ff" points="1049.1,-298.22 1039.81,-303.31 1050.25,-305.12 1049.1,-298.22"/>
</a>
</g>
</g>
<!-- Node7 -->
<g id="Node000007" class="node">
<title>Node7</title>
<g id="a_Node000007"><a xlink:href="_dino_game_8cpp.html" target="_top" xlink:title=" ">
<polygon fill="white" stroke="#666666" points="556.38,-20 424.12,-20 424.12,0 556.38,0 556.38,-20"/>
<text xml:space="preserve" text-anchor="middle" x="490.25" y="-6.5" font-family="Helvetica,sans-Serif" font-size="10.00">src/scenes/DinoGame.cpp</text>
</a>
</g>
</g>
<!-- Node1&#45;&gt;Node7 -->
<g id="edge43_Node000001_Node000007" class="edge">
<title>Node1&#45;&gt;Node7</title>
<g id="a_edge43_Node000001_Node000007"><a xlink:title=" ">
<path fill="none" stroke="#63b8ff" d="M893.4,-306.77C720.46,-292.37 330.25,-253.6 330.25,-197 330.25,-197 330.25,-197 330.25,-127 330.25,-66.96 405.02,-34.8 452.33,-20.46"/>
<polygon fill="#63b8ff" stroke="#63b8ff" points="892.96,-310.25 903.21,-307.58 893.53,-303.27 892.96,-310.25"/>
</a>
</g>
</g>
<!-- Node9 -->
<g id="Node000009" class="node">
<title>Node9</title>
<g id="a_Node000009"><a xlink:href="_snake_game_8cpp.html" target="_top" xlink:title=" ">
<polygon fill="white" stroke="#666666" points="1364.12,-20 1224.38,-20 1224.38,0 1364.12,0 1364.12,-20"/>
<text xml:space="preserve" text-anchor="middle" x="1294.25" y="-6.5" font-family="Helvetica,sans-Serif" font-size="10.00">src/scenes/SnakeGame.cpp</text>
</a>
</g>
</g>
<!-- Node1&#45;&gt;Node9 -->
<g id="edge44_Node000001_Node000009" class="edge">
<title>Node1&#45;&gt;Node9</title>
<g id="a_edge44_Node000001_Node000009"><a xlink:title=" ">
<path fill="none" stroke="#63b8ff" d="M1054.7,-313.25C1212.47,-311.57 1547.25,-296.3 1547.25,-197 1547.25,-197 1547.25,-197 1547.25,-127 1547.25,-46.18 1439.26,-21.45 1364.39,-14.02"/>
<polygon fill="#63b8ff" stroke="#63b8ff" points="1055.13,-309.75 1045.17,-313.34 1055.2,-316.75 1055.13,-309.75"/>
</a>
</g>
</g>
<!-- Node10 -->
<g id="Node000010" class="node">
<title>Node10</title>
<g id="a_Node000010"><a xlink:href="_tiny_engine_renderable_i_8h.html" target="_top" xlink:title=" ">
<polygon fill="white" stroke="#666666" points="193.88,-268 52.62,-268 52.62,-248 193.88,-248 193.88,-268"/>
<text xml:space="preserve" text-anchor="middle" x="123.25" y="-254.5" font-family="Helvetica,sans-Serif" font-size="10.00">inc/TinyEngineRenderableI.h</text>
</a>
</g>
</g>
<!-- Node1&#45;&gt;Node10 -->
<g id="edge10_Node000001_Node000010" class="edge">
<title>Node1&#45;&gt;Node10</title>
<g id="a_edge10_Node000001_Node000010"><a xlink:title=" ">
<path fill="none" stroke="#63b8ff" d="M893.57,-308.1C760.55,-299.98 486.88,-283.14 255.25,-268 235.42,-266.7 213.92,-265.26 194.15,-263.91"/>
<polygon fill="#63b8ff" stroke="#63b8ff" points="893.13,-311.58 903.32,-308.69 893.55,-304.59 893.13,-311.58"/>
</a>
</g>
</g>
<!-- Node13 -->
<g id="Node000013" class="node">
<title>Node13</title>
<g id="a_Node000013"><a xlink:href="tinyengine_8h.html" target="_top" xlink:title=" ">
<polygon fill="white" stroke="#666666" points="821.38,-268 737.12,-268 737.12,-248 821.38,-248 821.38,-268"/>
<text xml:space="preserve" text-anchor="middle" x="779.25" y="-254.5" font-family="Helvetica,sans-Serif" font-size="10.00">inc/tinyengine.h</text>
</a>
</g>
</g>
<!-- Node1&#45;&gt;Node13 -->
<g id="edge14_Node000001_Node000013" class="edge">
<title>Node1&#45;&gt;Node13</title>
<g id="a_edge14_Node000001_Node000013"><a xlink:title=" ">
<path fill="none" stroke="#63b8ff" d="M924.01,-300.69C887.25,-290.91 838.75,-277.43 808.2,-268.48"/>
<polygon fill="#63b8ff" stroke="#63b8ff" points="922.99,-304.04 933.55,-303.21 924.78,-297.27 922.99,-304.04"/>
</a>
</g>
</g>
<!-- Node15 -->
<g id="Node000015" class="node">
<title>Node15</title>
<g id="a_Node000015"><a xlink:href="_game_8cpp.html" target="_top" xlink:title=" ">
<polygon fill="white" stroke="#666666" points="885,-138 807.5,-138 807.5,-118 885,-118 885,-138"/>
<text xml:space="preserve" text-anchor="middle" x="846.25" y="-124.5" font-family="Helvetica,sans-Serif" font-size="10.00">src/Game.cpp</text>
</a>
</g>
</g>
<!-- Node1&#45;&gt;Node15 -->
<g id="edge42_Node000001_Node000015" class="edge">
<title>Node1&#45;&gt;Node15</title>
<g id="a_edge42_Node000001_Node000015"><a xlink:title=" ">
<path fill="none" stroke="#63b8ff" d="M981.66,-292.79C990.52,-264.8 1001.46,-213.86 978.25,-180 972.17,-171.14 912.72,-150.56 875.71,-138.42"/>
<polygon fill="#63b8ff" stroke="#63b8ff" points="978.38,-291.55 978.47,-302.15 985.01,-293.81 978.38,-291.55"/>
</a>
</g>
</g>
<!-- Node17 -->
<g id="Node000017" class="node">
<title>Node17</title>
<g id="a_Node000017"><a xlink:href="tinyengine__renderer_8h.html" target="_top" xlink:title=" ">
<polygon fill="white" stroke="#666666" points="969.62,-206 844.88,-206 844.88,-186 969.62,-186 969.62,-206"/>
<text xml:space="preserve" text-anchor="middle" x="907.25" y="-192.5" font-family="Helvetica,sans-Serif" font-size="10.00">inc/tinyengine_renderer.h</text>
</a>
</g>
</g>
<!-- Node1&#45;&gt;Node17 -->
<g id="edge33_Node000001_Node000017" class="edge">
<title>Node1&#45;&gt;Node17</title>
<g id="a_edge33_Node000001_Node000017"><a xlink:title=" ">
<path fill="none" stroke="#63b8ff" d="M963.05,-293.6C948.46,-268.34 923.53,-225.18 912.62,-206.3"/>
<polygon fill="#63b8ff" stroke="#63b8ff" points="959.98,-295.29 968.01,-302.2 966.04,-291.79 959.98,-295.29"/>
</a>
</g>
</g>
<!-- Node18 -->
<g id="Node000018" class="node">
<title>Node18</title>
<g id="a_Node000018"><a xlink:href="tinyengine__renderer__dvi_8h.html" target="_top" xlink:title=" ">
<polygon fill="white" stroke="#666666" points="1179.5,-212 1063,-212 1063,-180 1179.5,-180 1179.5,-212"/>
<text xml:space="preserve" text-anchor="start" x="1071" y="-198.5" font-family="Helvetica,sans-Serif" font-size="10.00">inc/tinyengine_renderer</text>
<text xml:space="preserve" text-anchor="middle" x="1121.25" y="-186.5" font-family="Helvetica,sans-Serif" font-size="10.00">_dvi.h</text>
</a>
</g>
</g>
<!-- Node1&#45;&gt;Node18 -->
<g id="edge34_Node000001_Node000018" class="edge">
<title>Node1&#45;&gt;Node18</title>
<g id="a_edge34_Node000001_Node000018"><a xlink:title=" ">
<path fill="none" stroke="#63b8ff" d="M994.99,-296.63C1023.38,-274.23 1073.97,-234.31 1101.72,-212.41"/>
<polygon fill="#63b8ff" stroke="#63b8ff" points="993.15,-293.63 987.47,-302.57 997.49,-299.12 993.15,-293.63"/>
</a>
</g>
</g>
<!-- Node23 -->
<g id="Node000023" class="node">
<title>Node23</title>
<g id="a_Node000023"><a xlink:href="tinyengine__sprite_8h.html" target="_top" xlink:title=" ">
<polygon fill="white" stroke="#666666" points="1311,-206 1197.5,-206 1197.5,-186 1311,-186 1311,-206"/>
<text xml:space="preserve" text-anchor="middle" x="1254.25" y="-192.5" font-family="Helvetica,sans-Serif" font-size="10.00">inc/tinyengine_sprite.h</text>
</a>
</g>
</g>
<!-- Node1&#45;&gt;Node23 -->
<g id="edge35_Node000001_Node000023" class="edge">
<title>Node1&#45;&gt;Node23</title>
<g id="a_edge35_Node000001_Node000023"><a xlink:title=" ">
<path fill="none" stroke="#63b8ff" d="M1007.53,-299.21C1065.15,-275.34 1182.03,-226.92 1231.41,-206.46"/>
<polygon fill="#63b8ff" stroke="#63b8ff" points="1006.46,-295.87 998.56,-302.93 1009.14,-302.33 1006.46,-295.87"/>
</a>
</g>
</g>
<!-- Node24 -->
<g id="Node000024" class="node">
<title>Node24</title>
<g id="a_Node000024"><a xlink:href="tinyengine__framebuffer_8cpp.html" target="_top" xlink:title=" ">
<polygon fill="white" stroke="#666666" points="1519,-138 1369.5,-138 1369.5,-118 1519,-118 1519,-138"/>
<text xml:space="preserve" text-anchor="middle" x="1444.25" y="-124.5" font-family="Helvetica,sans-Serif" font-size="10.00">src/tinyengine_framebuffer.cpp</text>
</a>
</g>
</g>
<!-- Node1&#45;&gt;Node24 -->
<g id="edge45_Node000001_Node000024" class="edge">
<title>Node1&#45;&gt;Node24</title>
<g id="a_edge45_Node000001_Node000024"><a xlink:title=" ">
<path fill="none" stroke="#63b8ff" d="M1054.92,-307.88C1110.18,-302.4 1184.38,-291.13 1246.25,-268 1290.73,-251.37 1298.21,-239.04 1337.25,-212 1373.39,-186.97 1413.83,-154.22 1433,-138.38"/>
<polygon fill="#63b8ff" stroke="#63b8ff" points="1054.91,-304.36 1045.28,-308.78 1055.57,-311.33 1054.91,-304.36"/>
</a>
</g>
</g>
<!-- Node3 -->
<g id="Node000003" class="node">
<title>Node3</title>
<g id="a_Node000003"><a xlink:href="tinyengine__renderer__dvi_8__c__adapter_8cpp.html" target="_top" xlink:title=" ">
<polygon fill="white" stroke="#666666" points="301.88,-144 166.62,-144 166.62,-112 301.88,-112 301.88,-144"/>
<text xml:space="preserve" text-anchor="start" x="174.62" y="-130.5" font-family="Helvetica,sans-Serif" font-size="10.00">backup/tinyengine_renderer</text>
<text xml:space="preserve" text-anchor="middle" x="234.25" y="-118.5" font-family="Helvetica,sans-Serif" font-size="10.00">_dvi._c_adapter.cpp</text>
</a>
</g>
</g>
<!-- Node2&#45;&gt;Node3 -->
<g id="edge2_Node000002_Node000003" class="edge">
<title>Node2&#45;&gt;Node3</title>
<g id="a_edge2_Node000002_Node000003"><a xlink:title=" ">
<path fill="none" stroke="#63b8ff" d="M234.25,-168.31C234.25,-160.12 234.25,-151.38 234.25,-144.22"/>
<polygon fill="#63b8ff" stroke="#63b8ff" points="230.75,-168.18 234.25,-178.18 237.75,-168.18 230.75,-168.18"/>
</a>
</g>
</g>
<!-- Node5 -->
<g id="Node000005" class="node">
<title>Node5</title>
<g id="a_Node000005"><a xlink:href="_game_scene_8cpp.html" target="_top" xlink:title=" ">
<polygon fill="white" stroke="#666666" points="1165.88,-76 1060.62,-76 1060.62,-56 1165.88,-56 1165.88,-76"/>
<text xml:space="preserve" text-anchor="middle" x="1113.25" y="-62.5" font-family="Helvetica,sans-Serif" font-size="10.00">src/GameScene.cpp</text>
</a>
</g>
</g>
<!-- Node4&#45;&gt;Node5 -->
<g id="edge4_Node000004_Node000005" class="edge">
<title>Node4&#45;&gt;Node5</title>
<g id="a_edge4_Node000004_Node000005"><a xlink:title=" ">
<path fill="none" stroke="#63b8ff" d="M1231.92,-113.54C1203.11,-102.24 1162.69,-86.39 1137.24,-76.41"/>
<polygon fill="#63b8ff" stroke="#63b8ff" points="1230.35,-116.68 1240.93,-117.07 1232.9,-110.16 1230.35,-116.68"/>
</a>
</g>
</g>
<!-- Node6 -->
<g id="Node000006" class="node">
<title>Node6</title>
<g id="a_Node000006"><a xlink:href="_dino_game_8h.html" target="_top" xlink:title=" ">
<polygon fill="white" stroke="#666666" points="883.12,-76 761.38,-76 761.38,-56 883.12,-56 883.12,-76"/>
<text xml:space="preserve" text-anchor="middle" x="822.25" y="-62.5" font-family="Helvetica,sans-Serif" font-size="10.00">src/scenes/DinoGame.h</text>
</a>
</g>
</g>
<!-- Node4&#45;&gt;Node6 -->
<g id="edge5_Node000004_Node000006" class="edge">
<title>Node4&#45;&gt;Node6</title>
<g id="a_edge5_Node000004_Node000006"><a xlink:title=" ">
<path fill="none" stroke="#63b8ff" d="M1220.11,-115.02C1215.12,-113.91 1210.09,-112.88 1205.25,-112 1092.59,-91.61 959.55,-78.38 883.62,-71.85"/>
<polygon fill="#63b8ff" stroke="#63b8ff" points="1218.92,-118.33 1229.45,-117.18 1220.5,-111.51 1218.92,-118.33"/>
</a>
</g>
</g>
<!-- Node8 -->
<g id="Node000008" class="node">
<title>Node8</title>
<g id="a_Node000008"><a xlink:href="_snake_game_8h.html" target="_top" xlink:title=" ">
<polygon fill="white" stroke="#666666" points="1312.88,-76 1183.62,-76 1183.62,-56 1312.88,-56 1312.88,-76"/>
<text xml:space="preserve" text-anchor="middle" x="1248.25" y="-62.5" font-family="Helvetica,sans-Serif" font-size="10.00">src/scenes/SnakeGame.h</text>
</a>
</g>
</g>
<!-- Node4&#45;&gt;Node8 -->
<g id="edge7_Node000004_Node000008" class="edge">
<title>Node4&#45;&gt;Node8</title>
<g id="a_edge7_Node000004_Node000008"><a xlink:title=" ">
<path fill="none" stroke="#63b8ff" d="M1260.23,-106.93C1257.1,-96.5 1253.43,-84.26 1250.98,-76.11"/>
<polygon fill="#63b8ff" stroke="#63b8ff" points="1256.78,-107.6 1263,-116.18 1263.48,-105.59 1256.78,-107.6"/>
</a>
</g>
</g>
<!-- Node6&#45;&gt;Node7 -->
<g id="edge6_Node000006_Node000007" class="edge">
<title>Node6&#45;&gt;Node7</title>
<g id="a_edge6_Node000006_Node000007"><a xlink:title=" ">
<path fill="none" stroke="#63b8ff" d="M753.05,-53.74C692.47,-43.89 605.44,-29.74 548.39,-20.46"/>
<polygon fill="#63b8ff" stroke="#63b8ff" points="752.11,-57.14 762.55,-55.29 753.24,-50.23 752.11,-57.14"/>
</a>
</g>
</g>
<!-- Node8&#45;&gt;Node7 -->
<g id="edge8_Node000008_Node000007" class="edge">
<title>Node8&#45;&gt;Node7</title>
<g id="a_edge8_Node000008_Node000007"><a xlink:title=" ">
<path fill="none" stroke="#63b8ff" d="M1172.02,-55.74C939.97,-34.14 676.89,-19.99 556.48,-14.09"/>
<polygon fill="#63b8ff" stroke="#63b8ff" points="1171.6,-59.22 1181.89,-56.67 1172.26,-52.25 1171.6,-59.22"/>
</a>
</g>
</g>
<!-- Node8&#45;&gt;Node9 -->
<g id="edge9_Node000008_Node000009" class="edge">
<title>Node8&#45;&gt;Node9</title>
<g id="a_edge9_Node000008_Node000009"><a xlink:title=" ">
<path fill="none" stroke="#63b8ff" d="M1263.58,-47C1271.2,-38.06 1280.09,-27.62 1286.33,-20.3"/>
<polygon fill="#63b8ff" stroke="#63b8ff" points="1261.06,-44.56 1257.24,-54.44 1266.39,-49.1 1261.06,-44.56"/>
</a>
</g>
</g>
<!-- Node11 -->
<g id="Node000011" class="node">
<title>Node11</title>
<g id="a_Node000011"><a xlink:href="_tiny_engine_u_i_8h.html" target="_top" xlink:title=" ">
<polygon fill="white" stroke="#666666" points="148.88,-206 49.62,-206 49.62,-186 148.88,-186 148.88,-206"/>
<text xml:space="preserve" text-anchor="middle" x="99.25" y="-192.5" font-family="Helvetica,sans-Serif" font-size="10.00">inc/TinyEngineUI.h</text>
</a>
</g>
</g>
<!-- Node10&#45;&gt;Node11 -->
<g id="edge11_Node000010_Node000011" class="edge">
<title>Node10&#45;&gt;Node11</title>
<g id="a_edge11_Node000010_Node000011"><a xlink:title=" ">
<path fill="none" stroke="#63b8ff" d="M115.36,-237.27C111.16,-226.76 106.19,-214.35 102.9,-206.11"/>
<polygon fill="#63b8ff" stroke="#63b8ff" points="111.97,-238.23 118.94,-246.22 118.47,-235.64 111.97,-238.23"/>
</a>
</g>
</g>
<!-- Node11&#45;&gt;Node7 -->
<g id="edge13_Node000011_Node000007" class="edge">
<title>Node11&#45;&gt;Node7</title>
<g id="a_edge13_Node000011_Node000007"><a xlink:title=" ">
<path fill="none" stroke="#63b8ff" d="M108.49,-175.27C118.19,-156.54 135.11,-128.82 157.25,-112 236.5,-51.78 351.66,-27.24 423.69,-17.4"/>
<polygon fill="#63b8ff" stroke="#63b8ff" points="105.35,-173.72 104.07,-184.24 111.63,-176.81 105.35,-173.72"/>
</a>
</g>
</g>
<!-- Node12 -->
<g id="Node000012" class="node">
<title>Node12</title>
<g id="a_Node000012"><a xlink:href="_tiny_engine_u_i_8cpp.html" target="_top" xlink:title=" ">
<polygon fill="white" stroke="#666666" points="110.5,-138 0,-138 0,-118 110.5,-118 110.5,-138"/>
<text xml:space="preserve" text-anchor="middle" x="55.25" y="-124.5" font-family="Helvetica,sans-Serif" font-size="10.00">src/TinyEngineUI.cpp</text>
</a>
</g>
</g>
<!-- Node11&#45;&gt;Node12 -->
<g id="edge12_Node000011_Node000012" class="edge">
<title>Node11&#45;&gt;Node12</title>
<g id="a_edge12_Node000011_Node000012"><a xlink:title=" ">
<path fill="none" stroke="#63b8ff" d="M86.68,-176.15C78.46,-163.82 68.07,-148.23 61.54,-138.44"/>
<polygon fill="#63b8ff" stroke="#63b8ff" points="83.65,-177.91 92.11,-184.28 89.47,-174.02 83.65,-177.91"/>
</a>
</g>
</g>
<!-- Node13&#45;&gt;Node1 -->
<g id="edge19_Node000013_Node000001" class="edge">
<title>Node13&#45;&gt;Node1</title>
<g id="a_edge19_Node000013_Node000001"><a xlink:title=" ">
<path fill="none" stroke="#63b8ff" d="M829.79,-271.39C866.62,-281.19 915.1,-294.67 945.55,-303.59"/>
<polygon fill="#63b8ff" stroke="#63b8ff" points="830.79,-268.04 820.23,-268.87 829,-274.81 830.79,-268.04"/>
</a>
</g>
</g>
<!-- Node13&#45;&gt;Node2 -->
<g id="edge15_Node000013_Node000002" class="edge">
<title>Node13&#45;&gt;Node2</title>
<g id="a_edge15_Node000013_Node000002"><a xlink:title=" ">
<path fill="none" stroke="#63b8ff" d="M725.35,-251.62C644.62,-243.49 487.55,-227.39 354.25,-212 337.36,-210.05 319.14,-207.83 302.13,-205.71"/>
<polygon fill="#63b8ff" stroke="#63b8ff" points="724.89,-255.09 735.19,-252.61 725.59,-248.13 724.89,-255.09"/>
</a>
</g>
</g>
<!-- Node13&#45;&gt;Node7 -->
<g id="edge28_Node000013_Node000007" class="edge">
<title>Node13&#45;&gt;Node7</title>
<g id="a_edge28_Node000013_Node000007"><a xlink:title=" ">
<path fill="none" stroke="#63b8ff" d="M725.73,-254.24C629.53,-248.72 435.46,-234.86 415.25,-212 362.21,-152 451.16,-51.01 481.01,-20.2"/>
<polygon fill="#63b8ff" stroke="#63b8ff" points="725.27,-257.72 735.45,-254.78 725.66,-250.73 725.27,-257.72"/>
</a>
</g>
</g>
<!-- Node13&#45;&gt;Node9 -->
<g id="edge29_Node000013_Node000009" class="edge">
<title>Node13&#45;&gt;Node9</title>
<g id="a_edge29_Node000013_Node000009"><a xlink:title=" ">
<path fill="none" stroke="#63b8ff" d="M775.33,-236.61C770.63,-205.51 766.9,-146.22 798.25,-112 826.98,-80.63 1096,-38.94 1225.38,-20.48"/>
<polygon fill="#63b8ff" stroke="#63b8ff" points="771.84,-236.97 776.99,-246.23 778.74,-235.79 771.84,-236.97"/>
</a>
</g>
</g>
<!-- Node14 -->
<g id="Node000014" class="node">
<title>Node14</title>
<g id="a_Node000014"><a xlink:href="tinyengine__audio_8h.html" target="_top" xlink:title=" ">
<polygon fill="white" stroke="#666666" points="637.62,-206 524.88,-206 524.88,-186 637.62,-186 637.62,-206"/>
<text xml:space="preserve" text-anchor="middle" x="581.25" y="-192.5" font-family="Helvetica,sans-Serif" font-size="10.00">inc/tinyengine_audio.h</text>
</a>
</g>
</g>
<!-- Node13&#45;&gt;Node14 -->
<g id="edge16_Node000013_Node000014" class="edge">
<title>Node13&#45;&gt;Node14</title>
<g id="a_edge16_Node000013_Node000014"><a xlink:title=" ">
<path fill="none" stroke="#63b8ff" d="M737.75,-244.43C700.32,-233.08 646.1,-216.65 612.3,-206.41"/>
<polygon fill="#63b8ff" stroke="#63b8ff" points="736.28,-247.64 746.86,-247.19 738.31,-240.94 736.28,-247.64"/>
</a>
</g>
</g>
<!-- Node13&#45;&gt;Node15 -->
<g id="edge26_Node000013_Node000015" class="edge">
<title>Node13&#45;&gt;Node15</title>
<g id="a_edge26_Node000013_Node000015"><a xlink:title=" ">
<path fill="none" stroke="#63b8ff" d="M789.35,-237.7C803.94,-209.83 830.35,-159.37 841.29,-138.47"/>
<polygon fill="#63b8ff" stroke="#63b8ff" points="786.31,-235.97 784.77,-246.45 792.51,-239.22 786.31,-235.97"/>
</a>
</g>
</g>
<!-- Node16 -->
<g id="Node000016" class="node">
<title>Node16</title>
<g id="a_Node000016"><a xlink:href="tinyengine__audio_8cpp.html" target="_top" xlink:title=" ">
<polygon fill="white" stroke="#666666" points="582.25,-138 458.25,-138 458.25,-118 582.25,-118 582.25,-138"/>
<text xml:space="preserve" text-anchor="middle" x="520.25" y="-124.5" font-family="Helvetica,sans-Serif" font-size="10.00">src/tinyengine_audio.cpp</text>
</a>
</g>
</g>
<!-- Node13&#45;&gt;Node16 -->
<g id="edge31_Node000013_Node000016" class="edge">
<title>Node13&#45;&gt;Node16</title>
<g id="a_edge31_Node000013_Node000016"><a xlink:title=" ">
<path fill="none" stroke="#63b8ff" d="M725.49,-254.02C631.36,-248.26 444.76,-234.15 425.25,-212 415.85,-201.33 417.95,-192.21 425.25,-180 437.93,-158.79 462.8,-145.9 483.9,-138.38"/>
<polygon fill="#63b8ff" stroke="#63b8ff" points="725.07,-257.5 735.26,-254.61 725.49,-250.52 725.07,-257.5"/>
</a>
</g>
</g>
<!-- Node13&#45;&gt;Node17 -->
<g id="edge20_Node000013_Node000017" class="edge">
<title>Node13&#45;&gt;Node17</title>
<g id="a_edge20_Node000013_Node000017"><a xlink:title=" ">
<path fill="none" stroke="#63b8ff" d="M809.61,-242.77C833.67,-231.49 866.59,-216.06 887.39,-206.31"/>
<polygon fill="#63b8ff" stroke="#63b8ff" points="808.19,-239.57 800.62,-246.98 811.16,-245.91 808.19,-239.57"/>
</a>
</g>
</g>
<!-- Node13&#45;&gt;Node18 -->
<g id="edge22_Node000013_Node000018" class="edge">
<title>Node13&#45;&gt;Node18</title>
<g id="a_edge22_Node000013_Node000018"><a xlink:title=" ">
<path fill="none" stroke="#63b8ff" d="M832.56,-248.76C887.1,-240.18 974.25,-226.06 1049.25,-212 1053.64,-211.18 1058.18,-210.3 1062.74,-209.39"/>
<polygon fill="#63b8ff" stroke="#63b8ff" points="832.27,-245.27 822.93,-250.27 833.35,-252.18 832.27,-245.27"/>
</a>
</g>
</g>
<!-- Node20 -->
<g id="Node000020" class="node">
<title>Node20</title>
<g id="a_Node000020"><a xlink:href="main_8cpp.html" target="_top" xlink:title=" ">
<polygon fill="white" stroke="#666666" points="506.38,-206 434.12,-206 434.12,-186 506.38,-186 506.38,-206"/>
<text xml:space="preserve" text-anchor="middle" x="470.25" y="-192.5" font-family="Helvetica,sans-Serif" font-size="10.00">src/main.cpp</text>
</a>
</g>
</g>
<!-- Node13&#45;&gt;Node20 -->
<g id="edge27_Node000013_Node000020" class="edge">
<title>Node13&#45;&gt;Node20</title>
<g id="a_edge27_Node000013_Node000020"><a xlink:title=" ">
<path fill="none" stroke="#63b8ff" d="M725.7,-250.17C672.22,-242.8 587.89,-229.71 516.25,-212 509.89,-210.43 503.13,-208.42 496.82,-206.39"/>
<polygon fill="#63b8ff" stroke="#63b8ff" points="725.07,-253.62 735.45,-251.49 726.02,-246.68 725.07,-253.62"/>
</a>
</g>
</g>
<!-- Node21 -->
<g id="Node000021" class="node">
<title>Node21</title>
<g id="a_Node000021"><a xlink:href="tinyengine_8cpp.html" target="_top" xlink:title=" ">
<polygon fill="white" stroke="#666666" points="751,-206 655.5,-206 655.5,-186 751,-186 751,-206"/>
<text xml:space="preserve" text-anchor="middle" x="703.25" y="-192.5" font-family="Helvetica,sans-Serif" font-size="10.00">src/tinyengine.cpp</text>
</a>
</g>
</g>
<!-- Node13&#45;&gt;Node21 -->
<g id="edge30_Node000013_Node000021" class="edge">
<title>Node13&#45;&gt;Node21</title>
<g id="a_edge30_Node000013_Node000021"><a xlink:title=" ">
<path fill="none" stroke="#63b8ff" d="M758.41,-240.55C744.35,-229.45 726.34,-215.23 714.79,-206.11"/>
<polygon fill="#63b8ff" stroke="#63b8ff" points="756.17,-243.24 766.19,-246.69 760.51,-237.74 756.17,-243.24"/>
</a>
</g>
</g>
<!-- Node22 -->
<g id="Node000022" class="node">
<title>Node22</title>
<g id="a_Node000022"><a xlink:href="tinyengine__sprite_8cpp.html" target="_top" xlink:title=" ">
<polygon fill="white" stroke="#666666" points="1027.62,-138 902.88,-138 902.88,-118 1027.62,-118 1027.62,-138"/>
<text xml:space="preserve" text-anchor="middle" x="965.25" y="-124.5" font-family="Helvetica,sans-Serif" font-size="10.00">src/tinyengine_sprite.cpp</text>
</a>
</g>
</g>
<!-- Node13&#45;&gt;Node22 -->
<g id="edge32_Node000013_Node000022" class="edge">
<title>Node13&#45;&gt;Node22</title>
<g id="a_edge32_Node000013_Node000022"><a xlink:title=" ">
<path fill="none" stroke="#63b8ff" d="M832.69,-252.33C885.31,-246.5 960.33,-234.43 978.25,-212 995.55,-190.35 980.01,-155.12 970.85,-138.39"/>
<polygon fill="#63b8ff" stroke="#63b8ff" points="832.58,-248.82 823.01,-253.36 833.32,-255.78 832.58,-248.82"/>
</a>
</g>
</g>
<!-- Node14&#45;&gt;Node15 -->
<g id="edge17_Node000014_Node000015" class="edge">
<title>Node14&#45;&gt;Node15</title>
<g id="a_edge17_Node000014_Node000015"><a xlink:title=" ">
<path fill="none" stroke="#63b8ff" d="M630.38,-182.76C681.84,-169.95 761.55,-150.09 808.35,-138.44"/>
<polygon fill="#63b8ff" stroke="#63b8ff" points="629.54,-179.36 620.69,-185.18 631.24,-186.16 629.54,-179.36"/>
</a>
</g>
</g>
<!-- Node14&#45;&gt;Node16 -->
<g id="edge18_Node000014_Node000016" class="edge">
<title>Node14&#45;&gt;Node16</title>
<g id="a_edge18_Node000014_Node000016"><a xlink:title=" ">
<path fill="none" stroke="#63b8ff" d="M564.84,-177.25C553.3,-164.76 538.3,-148.53 528.97,-138.44"/>
<polygon fill="#63b8ff" stroke="#63b8ff" points="562.13,-179.46 571.48,-184.43 567.27,-174.71 562.13,-179.46"/>
</a>
</g>
</g>
<!-- Node17&#45;&gt;Node15 -->
<g id="edge21_Node000017_Node000015" class="edge">
<title>Node17&#45;&gt;Node15</title>
<g id="a_edge21_Node000017_Node000015"><a xlink:title=" ">
<path fill="none" stroke="#63b8ff" d="M890.84,-177.25C879.3,-164.76 864.3,-148.53 854.97,-138.44"/>
<polygon fill="#63b8ff" stroke="#63b8ff" points="888.13,-179.46 897.48,-184.43 893.27,-174.71 888.13,-179.46"/>
</a>
</g>
</g>
<!-- Node18&#45;&gt;Node4 -->
<g id="edge23_Node000018_Node000004" class="edge">
<title>Node18&#45;&gt;Node4</title>
<g id="a_edge23_Node000018_Node000004"><a xlink:title=" ">
<path fill="none" stroke="#63b8ff" d="M1165.48,-174.87C1192.07,-162.76 1224.68,-147.92 1245.47,-138.46"/>
<polygon fill="#63b8ff" stroke="#63b8ff" points="1164.28,-171.57 1156.62,-178.9 1167.18,-177.94 1164.28,-171.57"/>
</a>
</g>
</g>
<!-- Node18&#45;&gt;Node15 -->
<g id="edge24_Node000018_Node000015" class="edge">
<title>Node18&#45;&gt;Node15</title>
<g id="a_edge24_Node000018_Node000015"><a xlink:title=" ">
<path fill="none" stroke="#63b8ff" d="M1051.48,-180.87C1006.39,-171.36 946.58,-158.03 894.25,-144 888.01,-142.33 881.37,-140.37 875.07,-138.43"/>
<polygon fill="#63b8ff" stroke="#63b8ff" points="1050.62,-184.27 1061.13,-182.89 1052.06,-177.42 1050.62,-184.27"/>
</a>
</g>
</g>
<!-- Node19 -->
<g id="Node000019" class="node">
<title>Node19</title>
<g id="a_Node000019"><a xlink:href="tinyengine__renderer__dvi_8cpp.html" target="_top" xlink:title=" ">
<polygon fill="white" stroke="#666666" points="1162.88,-144 1045.62,-144 1045.62,-112 1162.88,-112 1162.88,-144"/>
<text xml:space="preserve" text-anchor="start" x="1053.62" y="-130.5" font-family="Helvetica,sans-Serif" font-size="10.00">src/tinyengine_renderer</text>
<text xml:space="preserve" text-anchor="middle" x="1104.25" y="-118.5" font-family="Helvetica,sans-Serif" font-size="10.00">_dvi.cpp</text>
</a>
</g>
</g>
<!-- Node18&#45;&gt;Node19 -->
<g id="edge25_Node000018_Node000019" class="edge">
<title>Node18&#45;&gt;Node19</title>
<g id="a_edge25_Node000018_Node000019"><a xlink:title=" ">
<path fill="none" stroke="#63b8ff" d="M1114.45,-168.6C1112.32,-160.32 1110.03,-151.46 1108.17,-144.22"/>
<polygon fill="#63b8ff" stroke="#63b8ff" points="1111.05,-169.42 1116.93,-178.23 1117.82,-167.67 1111.05,-169.42"/>
</a>
</g>
</g>
<!-- Node23&#45;&gt;Node4 -->
<g id="edge36_Node000023_Node000004" class="edge">
<title>Node23&#45;&gt;Node4</title>
<g id="a_edge36_Node000023_Node000004"><a xlink:title=" ">
<path fill="none" stroke="#63b8ff" d="M1258.02,-174.28C1260.2,-162.27 1262.84,-147.74 1264.53,-138.44"/>
<polygon fill="#63b8ff" stroke="#63b8ff" points="1254.59,-173.59 1256.24,-184.05 1261.47,-174.84 1254.59,-173.59"/>
</a>
</g>
</g>
<!-- Node23&#45;&gt;Node7 -->
<g id="edge38_Node000023_Node000007" class="edge">
<title>Node23&#45;&gt;Node7</title>
<g id="a_edge38_Node000023_Node000007"><a xlink:title=" ">
<path fill="none" stroke="#63b8ff" d="M1239.35,-177.26C1220.4,-155.19 1188.22,-119.49 1172.25,-112 1087.44,-72.23 844.66,-91.33 752.25,-76 667.64,-61.97 570.11,-34.78 521.37,-20.42"/>
<polygon fill="#63b8ff" stroke="#63b8ff" points="1236.46,-179.25 1245.6,-184.61 1241.79,-174.72 1236.46,-179.25"/>
</a>
</g>
</g>
<!-- Node23&#45;&gt;Node9 -->
<g id="edge39_Node000023_Node000009" class="edge">
<title>Node23&#45;&gt;Node9</title>
<g id="a_edge39_Node000023_Node000009"><a xlink:title=" ">
<path fill="none" stroke="#63b8ff" d="M1285.62,-179.98C1299.54,-171.52 1314.5,-159.51 1322.25,-144 1339.74,-109.02 1332.99,-93.61 1322.25,-56 1318.36,-42.38 1309.02,-28.86 1302.19,-20.25"/>
<polygon fill="#63b8ff" stroke="#63b8ff" points="1284.11,-176.82 1277.11,-184.78 1287.54,-182.92 1284.11,-176.82"/>
</a>
</g>
</g>
<!-- Node23&#45;&gt;Node15 -->
<g id="edge37_Node000023_Node000015" class="edge">
<title>Node23&#45;&gt;Node15</title>
<g id="a_edge37_Node000023_Node000015"><a xlink:title=" ">
<path fill="none" stroke="#63b8ff" d="M1204.53,-183.13C1199.05,-181.99 1193.54,-180.92 1188.25,-180 1058.56,-157.38 1022.94,-171.75 894.25,-144 887.42,-142.53 880.17,-140.51 873.44,-138.43"/>
<polygon fill="#63b8ff" stroke="#63b8ff" points="1203.65,-186.52 1214.17,-185.22 1205.13,-179.68 1203.65,-186.52"/>
</a>
</g>
</g>
<!-- Node23&#45;&gt;Node22 -->
<g id="edge41_Node000023_Node000022" class="edge">
<title>Node23&#45;&gt;Node22</title>
<g id="a_edge41_Node000023_Node000022"><a xlink:title=" ">
<path fill="none" stroke="#63b8ff" d="M1201.73,-183C1145.65,-170.2 1057.94,-150.17 1006.58,-138.44"/>
<polygon fill="#63b8ff" stroke="#63b8ff" points="1200.84,-186.39 1211.37,-185.21 1202.4,-179.57 1200.84,-186.39"/>
</a>
</g>
</g>
<!-- Node23&#45;&gt;Node24 -->
<g id="edge40_Node000023_Node000024" class="edge">
<title>Node23&#45;&gt;Node24</title>
<g id="a_edge40_Node000023_Node000024"><a xlink:title=" ">
<path fill="none" stroke="#63b8ff" d="M1292.31,-181.78C1329.24,-168.95 1384.37,-149.8 1417.08,-138.44"/>
<polygon fill="#63b8ff" stroke="#63b8ff" points="1291.2,-178.46 1282.9,-185.05 1293.5,-185.07 1291.2,-178.46"/>
</a>
</g>
</g>
</g>
</svg>

<g id="navigator" transform="translate(0 0)" fill="#404254">
  <rect fill="#f2f5e9" fill-opacity="0.5" stroke="#606060" stroke-width=".5" x="0" y="0" width="60" height="60"/>
  <use id="zoomplus" xlink:href="#zoomPlus" x="17" y="9" onmousedown="handleZoom(evt,'in')"/>
  <use id="zoomminus" xlink:href="#zoomMin" x="42" y="9" onmousedown="handleZoom(evt,'out')"/>
  <use id="reset" xlink:href="#resetDef" x="30" y="36" onmousedown="handleReset()"/>
   <use id="arrowup" xlink:href="#arrowUp" x="0" y="0" onmousedown="handlePan(0,-1)"/>
  <use id="arrowright" xlink:href="#arrowRight" x="0" y="0" onmousedown="handlePan(1,0)"/>
  <use id="arrowdown" xlink:href="#arrowDown" x="0" y="0" onmousedown="handlePan(0,1)"/>
  <use id="arrowleft" xlink:href="#arrowLeft" x="0" y="0" onmousedown="handlePan(-1,0)"/>
</g>
<svg viewBox="0 0 15 15" width="100%" height="30px" preserveAspectRatio="xMaxYMin meet">
 <g id="arrow_out" transform="scale(0.3 0.3)">
  <a xlink:href="tinyengine__framebuffer_8h__dep__incl_org.svg" target="_base">
   <rect id="button" ry="5" rx="5" y="6" x="6" height="38" width="38"
        fill="#f2f5e9" fill-opacity="0.5" stroke="#606060" stroke-width="1.0"/>
   <path id="arrow"
     d="M 11.500037,31.436501 C 11.940474,20.09759 22.043105,11.32322 32.158766,21.979434 L 37.068811,17.246167 C 37.068811,17.246167 37.088388,32 37.088388,32 L 22.160133,31.978069 C 22.160133,31.978069 26.997745,27.140456 26.997745,27.140456 C 18.528582,18.264221 13.291696,25.230495 11.500037,31.436501 z"
     style="fill:#404040;"/>
  </a>
 </g>
</svg>

<style type='text/css'>
<![CDATA[
[data-mouse-over-selected='false'] { opacity: 0.7; }
[data-mouse-over-selected='true']  { opacity: 1.0; }
]]>
</style>
<script type="application/ecmascript"><![CDATA[
document.addEventListener('DOMContentLoaded', (event) => {
  highlightEdges();
  highlightAdjacentNodes();
});
]]></script>
</svg>
