<?xml version="1.0" encoding="UTF-8" standalone="no"?>
<!DOCTYPE svg PUBLIC "-//W3C//DTD SVG 1.1//EN"
 "http://www.w3.org/Graphics/SVG/1.1/DTD/svg11.dtd">
<!-- Generated by graphviz version 13.1.2 (20250808.2320)
 -->
<!-- Title: src/tinyengine_renderer_dvi.cpp Pages: 1 -->
<!--zoomable 232 -->

<svg id="main" version="1.1" xmlns="http://www.w3.org/2000/svg" xmlns:xlink="http://www.w3.org/1999/xlink" xml:space="preserve" onload="init(evt)">

<style type="text/css"><![CDATA[
.node, .edge {opacity: 0.7;}
.node.selected, .edge.selected {opacity: 1;}
.edge:hover path { stroke: red; }
.edge:hover polygon { stroke: red; fill: red; }
]]></style>

<defs>
  <circle id="rim" cx="0" cy="0" r="7"/>
  <circle id="rim2" cx="0" cy="0" r="3.5"/>
  <g id="zoomPlus">
    <use xlink:href="#rim" fill="#404040"><set attributeName="fill" to="#808080" begin="zoomplus.mouseover" end="zoomplus.mouseout"/></use>
    <path d="M-4,0h8M0,-4v8" fill="none" stroke="white" stroke-width="1.5" pointer-events="none"/>
  </g>
  <g id="zoomMin">
    <use xlink:href="#rim" fill="#404040"><set attributeName="fill" to="#808080" begin="zoomminus.mouseover" end="zoomminus.mouseout"/></use>
    <path d="M-4,0h8" fill="none" stroke="white" stroke-width="1.5" pointer-events="none"/>
  </g>
  <g id="arrowUp" transform="translate(30 24)">
    <use xlink:href="#rim"/>
    <path pointer-events="none" fill="none" stroke="white" stroke-width="1.5" d="M0,-3.0v7 M-2.5,-0.5L0,-3.0L2.5,-0.5"/>
  </g>
  <g id="arrowRight" transform="rotate(90) translate(36 -43)">
    <use xlink:href="#rim"/>
    <path pointer-events="none" fill="none" stroke="white" stroke-width="1.5" d="M0,-3.0v7 M-2.5,-0.5L0,-3.0L2.5,-0.5"/>
  </g>
  <g id="arrowDown" transform="rotate(180) translate(-30 -48)">
    <use xlink:href="#rim"/>
    <path pointer-events="none" fill="none" stroke="white" stroke-width="1.5" d="M0,-3.0v7 M-2.5,-0.5L0,-3.0L2.5,-0.5"/>
  </g>
  <g id="arrowLeft" transform="rotate(270) translate(-36 17)">
    <use xlink:href="#rim"/>
    <path pointer-events="none" fill="none" stroke="white" stroke-width="1.5" d="M0,-3.0v7 M-2.5,-0.5L0,-3.0L2.5,-0.5"/>
  </g>
  <g id="resetDef">
    <use xlink:href="#rim2" fill="#404040"><set attributeName="fill" to="#808080" begin="reset.mouseover" end="reset.mouseout"/></use>
  </g>
</defs>
<script type="application/ecmascript">
var viewWidth = 2327;
var viewHeight = 232;
var sectionId = 'dynsection-0';
</script>
<script type="application/ecmascript" xlink:href="svg.min.js"/>
<svg id="graph" class="graph">
<g id="viewport">
<title>src/tinyengine_renderer_dvi.cpp</title>
<!-- Node1 -->
<g id="Node000001" class="node">
<title>Node1</title>
<g id="a_Node000001"><a xlink:title=" ">
<polygon fill="#999999" stroke="#666666" points="1361.88,-224 1244.62,-224 1244.62,-192 1361.88,-192 1361.88,-224"/>
<text xml:space="preserve" text-anchor="start" x="1252.62" y="-210.5" font-family="Helvetica,sans-Serif" font-size="10.00">src/tinyengine_renderer</text>
<text xml:space="preserve" text-anchor="middle" x="1303.25" y="-198.5" font-family="Helvetica,sans-Serif" font-size="10.00">_dvi.cpp</text>
</a>
</g>
</g>
<!-- Node2 -->
<g id="Node000002" class="node">
<title>Node2</title>
<g id="a_Node000002"><a xlink:href="tinyengine__renderer__dvi_8h.html" target="_top" xlink:title=" ">
<polygon fill="white" stroke="#666666" points="1125.62,-156 1024.88,-156 1024.88,-124 1125.62,-124 1125.62,-156"/>
<text xml:space="preserve" text-anchor="start" x="1032.88" y="-142.5" font-family="Helvetica,sans-Serif" font-size="10.00">tinyengine_renderer</text>
<text xml:space="preserve" text-anchor="middle" x="1075.25" y="-130.5" font-family="Helvetica,sans-Serif" font-size="10.00">_dvi.h</text>
</a>
</g>
</g>
<!-- Node1&#45;&gt;Node2 -->
<g id="edge1_Node000001_Node000002" class="edge">
<title>Node1&#45;&gt;Node2</title>
<g id="a_edge1_Node000001_Node000002"><a xlink:title=" ">
<path fill="none" stroke="#63b8ff" d="M1249.79,-191.53C1215.92,-181.72 1171.99,-169 1136.68,-158.78"/>
<polygon fill="#63b8ff" stroke="#63b8ff" points="1138.06,-155.54 1127.48,-156.12 1136.11,-162.26 1138.06,-155.54"/>
</a>
</g>
</g>
<!-- Node4 -->
<g id="Node000004" class="node">
<title>Node4</title>
<g id="a_Node000004"><a xlink:title=" ">
<polygon fill="#e0e0e0" stroke="#999999" points="68.5,-26 0,-26 0,-6 68.5,-6 68.5,-26"/>
<text xml:space="preserve" text-anchor="middle" x="34.25" y="-12.5" font-family="Helvetica,sans-Serif" font-size="10.00">pico/stdlib.h</text>
</a>
</g>
</g>
<!-- Node1&#45;&gt;Node4 -->
<g id="edge30_Node000001_Node000004" class="edge">
<title>Node1&#45;&gt;Node4</title>
<g id="a_edge30_Node000001_Node000004"><a xlink:title=" ">
<path fill="none" stroke="#63b8ff" d="M1244.39,-205.44C1077.28,-200.69 602.21,-184.96 449.25,-156 353.27,-137.83 332.89,-118.98 240.25,-88 181.26,-68.27 113.07,-44.6 71.83,-30.18"/>
<polygon fill="#63b8ff" stroke="#63b8ff" points="73.21,-26.96 62.62,-26.96 70.9,-33.57 73.21,-26.96"/>
</a>
</g>
</g>
<!-- Node5 -->
<g id="Node000005" class="node">
<title>Node5</title>
<g id="a_Node000005"><a xlink:title=" ">
<polygon fill="#e0e0e0" stroke="#999999" points="131.88,-26 86.62,-26 86.62,-6 131.88,-6 131.88,-26"/>
<text xml:space="preserve" text-anchor="middle" x="109.25" y="-12.5" font-family="Helvetica,sans-Serif" font-size="10.00">stdio.h</text>
</a>
</g>
</g>
<!-- Node1&#45;&gt;Node5 -->
<g id="edge27_Node000001_Node000005" class="edge">
<title>Node1&#45;&gt;Node5</title>
<g id="a_edge27_Node000001_Node000005"><a xlink:title=" ">
<path fill="none" stroke="#63b8ff" d="M1244.15,-205.98C1126.27,-203.19 853.82,-192.95 628.25,-156 407.84,-119.89 351.53,-107.29 141.25,-32 140.29,-31.66 139.32,-31.29 138.34,-30.92"/>
<polygon fill="#63b8ff" stroke="#63b8ff" points="139.92,-27.78 129.34,-27.08 137.17,-34.22 139.92,-27.78"/>
</a>
</g>
</g>
<!-- Node10 -->
<g id="Node000010" class="node">
<title>Node10</title>
<g id="a_Node000010"><a xlink:title=" ">
<polygon fill="#e0e0e0" stroke="#999999" points="324.62,-26 247.88,-26 247.88,-6 324.62,-6 324.62,-26"/>
<text xml:space="preserve" text-anchor="middle" x="286.25" y="-12.5" font-family="Helvetica,sans-Serif" font-size="10.00">hardware/pll.h</text>
</a>
</g>
</g>
<!-- Node1&#45;&gt;Node10 -->
<g id="edge41_Node000001_Node000010" class="edge">
<title>Node1&#45;&gt;Node10</title>
<g id="a_edge41_Node000001_Node000010"><a xlink:title=" ">
<path fill="none" stroke="#63b8ff" d="M1244.23,-207.88C1147.89,-207.83 951.7,-201.46 793.25,-156 708.42,-131.66 699.74,-93.49 615.25,-68 494.29,-31.5 456.61,-59.32 333.25,-32 330.11,-31.31 326.89,-30.49 323.67,-29.61"/>
<polygon fill="#63b8ff" stroke="#63b8ff" points="324.9,-26.32 314.31,-26.85 322.91,-33.04 324.9,-26.32"/>
</a>
</g>
</g>
<!-- Node11 -->
<g id="Node000011" class="node">
<title>Node11</title>
<g id="a_Node000011"><a xlink:title=" ">
<polygon fill="#e0e0e0" stroke="#999999" points="428.12,-26 342.38,-26 342.38,-6 428.12,-6 428.12,-26"/>
<text xml:space="preserve" text-anchor="middle" x="385.25" y="-12.5" font-family="Helvetica,sans-Serif" font-size="10.00">hardware/vreg.h</text>
</a>
</g>
</g>
<!-- Node1&#45;&gt;Node11 -->
<g id="edge42_Node000001_Node000011" class="edge">
<title>Node1&#45;&gt;Node11</title>
<g id="a_edge42_Node000001_Node000011"><a xlink:title=" ">
<path fill="none" stroke="#63b8ff" d="M1244.23,-203.6C1139.15,-197.01 923.98,-180.91 853.25,-156 784.28,-131.71 783.01,-92.85 714.25,-68 597.5,-25.8 558.8,-57.28 437.25,-32 433.62,-31.24 429.87,-30.36 426.12,-29.42"/>
<polygon fill="#63b8ff" stroke="#63b8ff" points="427.06,-26.04 416.49,-26.82 425.23,-32.8 427.06,-26.04"/>
</a>
</g>
</g>
<!-- Node12 -->
<g id="Node000012" class="node">
<title>Node12</title>
<g id="a_Node000012"><a xlink:title=" ">
<polygon fill="#e0e0e0" stroke="#999999" points="542,-26 446.5,-26 446.5,-6 542,-6 542,-26"/>
<text xml:space="preserve" text-anchor="middle" x="494.25" y="-12.5" font-family="Helvetica,sans-Serif" font-size="10.00">hardware/clocks.h</text>
</a>
</g>
</g>
<!-- Node1&#45;&gt;Node12 -->
<g id="edge43_Node000001_Node000012" class="edge">
<title>Node1&#45;&gt;Node12</title>
<g id="a_edge43_Node000001_Node000012"><a xlink:title=" ">
<path fill="none" stroke="#63b8ff" d="M1244.29,-203.03C1149.16,-196.02 966.39,-179.9 906.25,-156 844.46,-131.44 846.73,-93.33 785.25,-68 687.96,-27.92 654.27,-53.42 551.25,-32 547.21,-31.16 543.02,-30.21 538.83,-29.21"/>
<polygon fill="#63b8ff" stroke="#63b8ff" points="539.89,-25.86 529.34,-26.84 538.19,-32.66 539.89,-25.86"/>
</a>
</g>
</g>
<!-- Node13 -->
<g id="Node000013" class="node">
<title>Node13</title>
<g id="a_Node000013"><a xlink:title=" ">
<polygon fill="#e0e0e0" stroke="#999999" points="670.12,-26 560.38,-26 560.38,-6 670.12,-6 670.12,-26"/>
<text xml:space="preserve" text-anchor="middle" x="615.25" y="-12.5" font-family="Helvetica,sans-Serif" font-size="10.00">hardware/structs/pll.h</text>
</a>
</g>
</g>
<!-- Node1&#45;&gt;Node13 -->
<g id="edge44_Node000001_Node000013" class="edge">
<title>Node1&#45;&gt;Node13</title>
<g id="a_edge44_Node000001_Node000013"><a xlink:title=" ">
<path fill="none" stroke="#63b8ff" d="M1244.16,-206.95C1173.54,-204.97 1053.02,-195.38 958.25,-156 897.83,-130.9 899.71,-95.3 840.25,-68 773.61,-37.41 750.72,-48.37 679.25,-32 674.99,-31.02 670.58,-30.01 666.14,-28.98"/>
<polygon fill="#63b8ff" stroke="#63b8ff" points="667.19,-25.63 656.65,-26.77 665.6,-32.44 667.19,-25.63"/>
</a>
</g>
</g>
<!-- Node14 -->
<g id="Node000014" class="node">
<title>Node14</title>
<g id="a_Node000014"><a xlink:title=" ">
<polygon fill="#e0e0e0" stroke="#999999" points="816.5,-26 688,-26 688,-6 816.5,-6 816.5,-26"/>
<text xml:space="preserve" text-anchor="middle" x="752.25" y="-12.5" font-family="Helvetica,sans-Serif" font-size="10.00">hardware/structs/clocks.h</text>
</a>
</g>
</g>
<!-- Node1&#45;&gt;Node14 -->
<g id="edge45_Node000001_Node000014" class="edge">
<title>Node1&#45;&gt;Node14</title>
<g id="a_edge45_Node000001_Node000014"><a xlink:title=" ">
<path fill="none" stroke="#63b8ff" d="M1244.37,-203.73C1184.92,-198.79 1091.4,-186.49 1016.25,-156 951.6,-129.77 948.16,-100.18 886.25,-68 856.36,-52.46 820.61,-39.1 793.57,-29.95"/>
<polygon fill="#63b8ff" stroke="#63b8ff" points="794.95,-26.72 784.35,-26.89 792.74,-33.37 794.95,-26.72"/>
</a>
</g>
</g>
<!-- Node15 -->
<g id="Node000015" class="node">
<title>Node15</title>
<g id="a_Node000015"><a xlink:title=" ">
<polygon fill="#e0e0e0" stroke="#999999" points="1421.12,-26 1335.38,-26 1335.38,-6 1421.12,-6 1421.12,-26"/>
<text xml:space="preserve" text-anchor="middle" x="1378.25" y="-12.5" font-family="Helvetica,sans-Serif" font-size="10.00">hardware/dma.h</text>
</a>
</g>
</g>
<!-- Node1&#45;&gt;Node15 -->
<g id="edge31_Node000001_Node000015" class="edge">
<title>Node1&#45;&gt;Node15</title>
<g id="a_edge31_Node000001_Node000015"><a xlink:title=" ">
<path fill="none" stroke="#63b8ff" d="M1296.15,-191.57C1284.85,-164.52 1266.27,-107.66 1289.25,-68 1299.33,-50.61 1317.81,-38.64 1335.34,-30.69"/>
<polygon fill="#63b8ff" stroke="#63b8ff" points="1336.2,-34.13 1344.08,-27.05 1333.5,-27.67 1336.2,-34.13"/>
</a>
</g>
</g>
<!-- Node16 -->
<g id="Node000016" class="node">
<title>Node16</title>
<g id="a_Node000016"><a xlink:title=" ">
<polygon fill="#e0e0e0" stroke="#999999" points="1523.75,-26 1438.75,-26 1438.75,-6 1523.75,-6 1523.75,-26"/>
<text xml:space="preserve" text-anchor="middle" x="1481.25" y="-12.5" font-family="Helvetica,sans-Serif" font-size="10.00">hardware/gpio.h</text>
</a>
</g>
</g>
<!-- Node1&#45;&gt;Node16 -->
<g id="edge32_Node000001_Node000016" class="edge">
<title>Node1&#45;&gt;Node16</title>
<g id="a_edge32_Node000001_Node000016"><a xlink:title=" ">
<path fill="none" stroke="#63b8ff" d="M1301.2,-191.52C1298.39,-163.37 1296.73,-103.44 1327.25,-68 1331.07,-63.56 1394.99,-43.35 1439.26,-29.74"/>
<polygon fill="#63b8ff" stroke="#63b8ff" points="1440.07,-33.15 1448.6,-26.88 1438.01,-26.46 1440.07,-33.15"/>
</a>
</g>
</g>
<!-- Node17 -->
<g id="Node000017" class="node">
<title>Node17</title>
<g id="a_Node000017"><a xlink:title=" ">
<polygon fill="#e0e0e0" stroke="#999999" points="1619,-26 1541.5,-26 1541.5,-6 1619,-6 1619,-26"/>
<text xml:space="preserve" text-anchor="middle" x="1580.25" y="-12.5" font-family="Helvetica,sans-Serif" font-size="10.00">hardware/irq.h</text>
</a>
</g>
</g>
<!-- Node1&#45;&gt;Node17 -->
<g id="edge33_Node000001_Node000017" class="edge">
<title>Node1&#45;&gt;Node17</title>
<g id="a_edge33_Node000001_Node000017"><a xlink:title=" ">
<path fill="none" stroke="#63b8ff" d="M1308.06,-191.86C1318.69,-159.37 1344.83,-84.56 1365.25,-68 1424.57,-19.92 1459.46,-51.63 1533.25,-32 1535.83,-31.31 1538.49,-30.57 1541.15,-29.8"/>
<polygon fill="#63b8ff" stroke="#63b8ff" points="1542.04,-33.18 1550.6,-26.93 1540.01,-26.48 1542.04,-33.18"/>
</a>
</g>
</g>
<!-- Node18 -->
<g id="Node000018" class="node">
<title>Node18</title>
<g id="a_Node000018"><a xlink:title=" ">
<polygon fill="#e0e0e0" stroke="#999999" points="1745,-32 1637.5,-32 1637.5,0 1745,0 1745,-32"/>
<text xml:space="preserve" text-anchor="start" x="1645.5" y="-18.5" font-family="Helvetica,sans-Serif" font-size="10.00">hardware/structs/bus</text>
<text xml:space="preserve" text-anchor="middle" x="1691.25" y="-6.5" font-family="Helvetica,sans-Serif" font-size="10.00">_ctrl.h</text>
</a>
</g>
</g>
<!-- Node1&#45;&gt;Node18 -->
<g id="edge34_Node000001_Node000018" class="edge">
<title>Node1&#45;&gt;Node18</title>
<g id="a_edge34_Node000001_Node000018"><a xlink:title=" ">
<path fill="none" stroke="#63b8ff" d="M1314.28,-191.84C1321.65,-181.71 1331.55,-168.07 1340.25,-156 1368.37,-116.98 1362.35,-93.31 1403.25,-68 1486.34,-16.59 1526.08,-49.25 1625.86,-32.25"/>
<polygon fill="#63b8ff" stroke="#63b8ff" points="1626.33,-35.72 1635.52,-30.46 1625.05,-28.84 1626.33,-35.72"/>
</a>
</g>
</g>
<!-- Node19 -->
<g id="Node000019" class="node">
<title>Node19</title>
<g id="a_Node000019"><a xlink:title=" ">
<polygon fill="#e0e0e0" stroke="#999999" points="1873.5,-32 1763,-32 1763,0 1873.5,0 1873.5,-32"/>
<text xml:space="preserve" text-anchor="start" x="1771" y="-18.5" font-family="Helvetica,sans-Serif" font-size="10.00">hardware/structs/hstx</text>
<text xml:space="preserve" text-anchor="middle" x="1818.25" y="-6.5" font-family="Helvetica,sans-Serif" font-size="10.00">_ctrl.h</text>
</a>
</g>
</g>
<!-- Node1&#45;&gt;Node19 -->
<g id="edge35_Node000001_Node000019" class="edge">
<title>Node1&#45;&gt;Node19</title>
<g id="a_edge35_Node000001_Node000019"><a xlink:title=" ">
<path fill="none" stroke="#63b8ff" d="M1322.77,-191.58C1334.81,-181.79 1350.36,-168.63 1363.25,-156 1400.59,-119.43 1394.89,-92.14 1441.25,-68 1562.3,-4.97 1613.67,-53.42 1751.85,-32.21"/>
<polygon fill="#63b8ff" stroke="#63b8ff" points="1752.03,-35.72 1761.33,-30.65 1750.9,-28.82 1752.03,-35.72"/>
</a>
</g>
</g>
<!-- Node20 -->
<g id="Node000020" class="node">
<title>Node20</title>
<g id="a_Node000020"><a xlink:title=" ">
<polygon fill="#e0e0e0" stroke="#999999" points="2002.5,-32 1892,-32 1892,0 2002.5,0 2002.5,-32"/>
<text xml:space="preserve" text-anchor="start" x="1900" y="-18.5" font-family="Helvetica,sans-Serif" font-size="10.00">hardware/structs/hstx</text>
<text xml:space="preserve" text-anchor="middle" x="1947.25" y="-6.5" font-family="Helvetica,sans-Serif" font-size="10.00">_fifo.h</text>
</a>
</g>
</g>
<!-- Node1&#45;&gt;Node20 -->
<g id="edge36_Node000001_Node000020" class="edge">
<title>Node1&#45;&gt;Node20</title>
<g id="a_edge36_Node000001_Node000020"><a xlink:title=" ">
<path fill="none" stroke="#63b8ff" d="M1333.83,-191.52C1351.07,-182.2 1372.62,-169.54 1390.25,-156 1434.37,-122.12 1428.79,-91.41 1479.25,-68 1557.86,-31.52 1776.84,-45.06 1880.52,-31.94"/>
<polygon fill="#63b8ff" stroke="#63b8ff" points="1880.78,-35.44 1890.18,-30.57 1879.79,-28.51 1880.78,-35.44"/>
</a>
</g>
</g>
<!-- Node21 -->
<g id="Node000021" class="node">
<title>Node21</title>
<g id="a_Node000021"><a xlink:title=" ">
<polygon fill="#e0e0e0" stroke="#999999" points="2133.62,-26 2020.88,-26 2020.88,-6 2133.62,-6 2133.62,-26"/>
<text xml:space="preserve" text-anchor="middle" x="2077.25" y="-12.5" font-family="Helvetica,sans-Serif" font-size="10.00">hardware/structs/sio.h</text>
</a>
</g>
</g>
<!-- Node1&#45;&gt;Node21 -->
<g id="edge37_Node000001_Node000021" class="edge">
<title>Node1&#45;&gt;Node21</title>
<g id="a_edge37_Node000001_Node000021"><a xlink:title=" ">
<path fill="none" stroke="#63b8ff" d="M1347.06,-191.56C1369.52,-182.71 1396.79,-170.49 1419.25,-156 1468.44,-124.27 1463.38,-90.92 1517.25,-68 1618.53,-24.91 1902.39,-48.24 2011.25,-32 2016.99,-31.14 2022.96,-30.06 2028.88,-28.87"/>
<polygon fill="#63b8ff" stroke="#63b8ff" points="2029.56,-32.3 2038.61,-26.79 2028.1,-25.46 2029.56,-32.3"/>
</a>
</g>
</g>
<!-- Node22 -->
<g id="Node000022" class="node">
<title>Node22</title>
<g id="a_Node000022"><a xlink:title=" ">
<polygon fill="#e0e0e0" stroke="#999999" points="2236.75,-26 2151.75,-26 2151.75,-6 2236.75,-6 2236.75,-26"/>
<text xml:space="preserve" text-anchor="middle" x="2194.25" y="-12.5" font-family="Helvetica,sans-Serif" font-size="10.00">pico/multicore.h</text>
</a>
</g>
</g>
<!-- Node1&#45;&gt;Node22 -->
<g id="edge38_Node000001_Node000022" class="edge">
<title>Node1&#45;&gt;Node22</title>
<g id="a_edge38_Node000001_Node000022"><a xlink:title=" ">
<path fill="none" stroke="#63b8ff" d="M1362.24,-191.9C1389.97,-183.48 1422.87,-171.52 1450.25,-156 1503.22,-125.97 1498.69,-90.55 1555.25,-68 1676.65,-19.6 2013.47,-54.24 2142.25,-32 2146.33,-31.29 2150.55,-30.39 2154.74,-29.37"/>
<polygon fill="#63b8ff" stroke="#63b8ff" points="2155.4,-32.81 2164.17,-26.86 2153.61,-26.05 2155.4,-32.81"/>
</a>
</g>
</g>
<!-- Node23 -->
<g id="Node000023" class="node">
<title>Node23</title>
<g id="a_Node000023"><a xlink:title=" ">
<polygon fill="#e0e0e0" stroke="#999999" points="2319.25,-26 2255.25,-26 2255.25,-6 2319.25,-6 2319.25,-26"/>
<text xml:space="preserve" text-anchor="middle" x="2287.25" y="-12.5" font-family="Helvetica,sans-Serif" font-size="10.00">pico/sem.h</text>
</a>
</g>
</g>
<!-- Node1&#45;&gt;Node23 -->
<g id="edge39_Node000001_Node000023" class="edge">
<title>Node1&#45;&gt;Node23</title>
<g id="a_edge39_Node000001_Node000023"><a xlink:title=" ">
<path fill="none" stroke="#63b8ff" d="M1358.88,-191.54C1394.49,-181.57 1441.65,-168.23 1483.25,-156 1530.05,-142.24 1540.61,-134.52 1588.25,-124 1876.59,-60.32 1959.77,-103.57 2246.25,-32 2248.55,-31.43 2250.9,-30.77 2253.25,-30.06"/>
<polygon fill="#63b8ff" stroke="#63b8ff" points="2254.29,-33.4 2262.67,-26.92 2252.07,-26.76 2254.29,-33.4"/>
</a>
</g>
</g>
<!-- Node26 -->
<g id="Node000026" class="node">
<title>Node26</title>
<g id="a_Node000026"><a xlink:title=" ">
<polygon fill="#e0e0e0" stroke="#999999" points="1655.62,-150 1596.88,-150 1596.88,-130 1655.62,-130 1655.62,-150"/>
<text xml:space="preserve" text-anchor="middle" x="1626.25" y="-136.5" font-family="Helvetica,sans-Serif" font-size="10.00">memory.h</text>
</a>
</g>
</g>
<!-- Node1&#45;&gt;Node26 -->
<g id="edge28_Node000001_Node000026" class="edge">
<title>Node1&#45;&gt;Node26</title>
<g id="a_edge28_Node000001_Node000026"><a xlink:title=" ">
<path fill="none" stroke="#63b8ff" d="M1362.29,-198.97C1419.36,-190.58 1508,-175.85 1583.25,-156 1585.67,-155.36 1588.15,-154.65 1590.64,-153.9"/>
<polygon fill="#63b8ff" stroke="#63b8ff" points="1591.57,-157.27 1600,-150.86 1589.41,-150.62 1591.57,-157.27"/>
</a>
</g>
</g>
<!-- Node27 -->
<g id="Node000027" class="node">
<title>Node27</title>
<g id="a_Node000027"><a xlink:title=" ">
<polygon fill="#e0e0e0" stroke="#999999" points="1726.62,-150 1673.88,-150 1673.88,-130 1726.62,-130 1726.62,-150"/>
<text xml:space="preserve" text-anchor="middle" x="1700.25" y="-136.5" font-family="Helvetica,sans-Serif" font-size="10.00">malloc.h</text>
</a>
</g>
</g>
<!-- Node1&#45;&gt;Node27 -->
<g id="edge29_Node000001_Node000027" class="edge">
<title>Node1&#45;&gt;Node27</title>
<g id="a_edge29_Node000001_Node000027"><a xlink:title=" ">
<path fill="none" stroke="#63b8ff" d="M1362.33,-203.28C1434.6,-197.68 1560.17,-184.53 1664.25,-156 1666.05,-155.51 1667.87,-154.95 1669.7,-154.34"/>
<polygon fill="#63b8ff" stroke="#63b8ff" points="1670.45,-157.8 1678.59,-151.02 1668,-151.24 1670.45,-157.8"/>
</a>
</g>
</g>
<!-- Node28 -->
<g id="Node000028" class="node">
<title>Node28</title>
<g id="a_Node000028"><a xlink:title=" ">
<polygon fill="#e0e0e0" stroke="#999999" points="1808.25,-150 1744.25,-150 1744.25,-130 1808.25,-130 1808.25,-150"/>
<text xml:space="preserve" text-anchor="middle" x="1776.25" y="-136.5" font-family="Helvetica,sans-Serif" font-size="10.00">pico/rand.h</text>
</a>
</g>
</g>
<!-- Node1&#45;&gt;Node28 -->
<g id="edge40_Node000001_Node000028" class="edge">
<title>Node1&#45;&gt;Node28</title>
<g id="a_edge40_Node000001_Node000028"><a xlink:title=" ">
<path fill="none" stroke="#63b8ff" d="M1362.35,-204.39C1446.27,-199.69 1604.31,-187.23 1735.25,-156 1737.71,-155.41 1740.22,-154.73 1742.73,-153.97"/>
<polygon fill="#63b8ff" stroke="#63b8ff" points="1743.73,-157.33 1752.12,-150.85 1741.52,-150.69 1743.73,-157.33"/>
</a>
</g>
</g>
<!-- Node29 -->
<g id="Node000029" class="node">
<title>Node29</title>
<g id="a_Node000029"><a xlink:href="main_8h.html" target="_top" xlink:title=" ">
<polygon fill="white" stroke="#666666" points="605.88,-88 560.62,-88 560.62,-68 605.88,-68 605.88,-88"/>
<text xml:space="preserve" text-anchor="middle" x="583.25" y="-74.5" font-family="Helvetica,sans-Serif" font-size="10.00">main.h</text>
</a>
</g>
</g>
<!-- Node1&#45;&gt;Node29 -->
<g id="edge46_Node000001_Node000029" class="edge">
<title>Node1&#45;&gt;Node29</title>
<g id="a_edge46_Node000001_Node000029"><a xlink:title=" ">
<path fill="none" stroke="#63b8ff" d="M1244.54,-206.26C1110.82,-203.91 787.39,-194.32 686.25,-156 651.83,-142.96 619.02,-114.77 600.02,-96.36"/>
<polygon fill="#63b8ff" stroke="#63b8ff" points="602.71,-94.1 593.16,-89.52 597.77,-99.06 602.71,-94.1"/>
</a>
</g>
</g>
<!-- Node3 -->
<g id="Node000003" class="node">
<title>Node3</title>
<g id="a_Node000003"><a xlink:href="tinyengine_8h.html" target="_top" xlink:title=" ">
<polygon fill="white" stroke="#666666" points="1109.5,-88 1041,-88 1041,-68 1109.5,-68 1109.5,-88"/>
<text xml:space="preserve" text-anchor="middle" x="1075.25" y="-74.5" font-family="Helvetica,sans-Serif" font-size="10.00">tinyengine.h</text>
</a>
</g>
</g>
<!-- Node2&#45;&gt;Node3 -->
<g id="edge2_Node000002_Node000003" class="edge">
<title>Node2&#45;&gt;Node3</title>
<g id="a_edge2_Node000002_Node000003"><a xlink:title=" ">
<path fill="none" stroke="#63b8ff" d="M1075.25,-123.55C1075.25,-116.34 1075.25,-107.66 1075.25,-99.88"/>
<polygon fill="#63b8ff" stroke="#63b8ff" points="1078.75,-99.92 1075.25,-89.92 1071.75,-99.92 1078.75,-99.92"/>
</a>
</g>
</g>
<!-- Node25 -->
<g id="Node000025" class="node">
<title>Node25</title>
<g id="a_Node000025"><a xlink:href="tinyengine__framebuffer_8h.html" target="_top" xlink:title=" ">
<polygon fill="white" stroke="#666666" points="957.5,-26 835,-26 835,-6 957.5,-6 957.5,-26"/>
<text xml:space="preserve" text-anchor="middle" x="896.25" y="-12.5" font-family="Helvetica,sans-Serif" font-size="10.00">tinyengine_framebuffer.h</text>
</a>
</g>
</g>
<!-- Node2&#45;&gt;Node25 -->
<g id="edge26_Node000002_Node000025" class="edge">
<title>Node2&#45;&gt;Node25</title>
<g id="a_edge26_Node000002_Node000025"><a xlink:title=" ">
<path fill="none" stroke="#63b8ff" d="M1052.58,-123.55C1018.33,-100.21 953.75,-56.19 919.28,-32.7"/>
<polygon fill="#63b8ff" stroke="#63b8ff" points="921.5,-29.98 911.27,-27.24 917.56,-35.76 921.5,-29.98"/>
</a>
</g>
</g>
<!-- Node3&#45;&gt;Node4 -->
<g id="edge3_Node000003_Node000004" class="edge">
<title>Node3&#45;&gt;Node4</title>
<g id="a_edge3_Node000003_Node000004"><a xlink:title=" ">
<path fill="none" stroke="#63b8ff" d="M1040.76,-76.04C876.04,-71.37 173.37,-50.52 77.25,-32 74.22,-31.42 71.12,-30.66 68.04,-29.81"/>
<polygon fill="#63b8ff" stroke="#63b8ff" points="69.15,-26.49 58.56,-26.81 67.04,-33.16 69.15,-26.49"/>
</a>
</g>
</g>
<!-- Node3&#45;&gt;Node5 -->
<g id="edge4_Node000003_Node000005" class="edge">
<title>Node3&#45;&gt;Node5</title>
<g id="a_edge4_Node000003_Node000005"><a xlink:title=" ">
<path fill="none" stroke="#63b8ff" d="M1040.59,-76.13C882.03,-72.03 229.73,-53.96 141.25,-32 139.65,-31.6 138.03,-31.12 136.42,-30.58"/>
<polygon fill="#63b8ff" stroke="#63b8ff" points="138.05,-27.47 127.47,-26.95 135.42,-33.95 138.05,-27.47"/>
</a>
</g>
</g>
<!-- Node6 -->
<g id="Node000006" class="node">
<title>Node6</title>
<g id="a_Node000006"><a xlink:title=" ">
<polygon fill="#e0e0e0" stroke="#999999" points="230.12,-26 150.38,-26 150.38,-6 230.12,-6 230.12,-26"/>
<text xml:space="preserve" text-anchor="middle" x="190.25" y="-12.5" font-family="Helvetica,sans-Serif" font-size="10.00">hardware/spi.h</text>
</a>
</g>
</g>
<!-- Node3&#45;&gt;Node6 -->
<g id="edge5_Node000003_Node000006" class="edge">
<title>Node3&#45;&gt;Node6</title>
<g id="a_edge5_Node000003_Node000006"><a xlink:title=" ">
<path fill="none" stroke="#63b8ff" d="M1040.58,-76.26C903.23,-73.14 397.04,-59.97 239.25,-32 235.46,-31.33 231.54,-30.45 227.66,-29.46"/>
<polygon fill="#63b8ff" stroke="#63b8ff" points="228.95,-26.19 218.38,-26.86 227.06,-32.93 228.95,-26.19"/>
</a>
</g>
</g>
<!-- Node7 -->
<g id="Node000007" class="node">
<title>Node7</title>
<g id="a_Node000007"><a xlink:title=" ">
<polygon fill="#e0e0e0" stroke="#999999" points="1099.38,-26 1051.12,-26 1051.12,-6 1099.38,-6 1099.38,-26"/>
<text xml:space="preserve" text-anchor="middle" x="1075.25" y="-12.5" font-family="Helvetica,sans-Serif" font-size="10.00">stdint.h</text>
</a>
</g>
</g>
<!-- Node3&#45;&gt;Node7 -->
<g id="edge6_Node000003_Node000007" class="edge">
<title>Node3&#45;&gt;Node7</title>
<g id="a_edge6_Node000003_Node000007"><a xlink:title=" ">
<path fill="none" stroke="#63b8ff" d="M1075.25,-67.62C1075.25,-59.56 1075.25,-47.65 1075.25,-37.41"/>
<polygon fill="#63b8ff" stroke="#63b8ff" points="1078.75,-37.63 1075.25,-27.63 1071.75,-37.63 1078.75,-37.63"/>
</a>
</g>
</g>
<!-- Node8 -->
<g id="Node000008" class="node">
<title>Node8</title>
<g id="a_Node000008"><a xlink:href="tinyengine__scene_8h.html" target="_top" xlink:title=" ">
<polygon fill="white" stroke="#666666" points="1217.25,-26 1117.25,-26 1117.25,-6 1217.25,-6 1217.25,-26"/>
<text xml:space="preserve" text-anchor="middle" x="1167.25" y="-12.5" font-family="Helvetica,sans-Serif" font-size="10.00">tinyengine_scene.h</text>
</a>
</g>
</g>
<!-- Node3&#45;&gt;Node8 -->
<g id="edge7_Node000003_Node000008" class="edge">
<title>Node3&#45;&gt;Node8</title>
<g id="a_edge7_Node000003_Node000008"><a xlink:title=" ">
<path fill="none" stroke="#63b8ff" d="M1089.62,-67.62C1104.07,-58.2 1126.59,-43.52 1143.66,-32.39"/>
<polygon fill="#63b8ff" stroke="#63b8ff" points="1145.24,-35.53 1151.71,-27.14 1141.42,-29.67 1145.24,-35.53"/>
</a>
</g>
</g>
<!-- Node9 -->
<g id="Node000009" class="node">
<title>Node9</title>
<g id="a_Node000009"><a xlink:title=" ">
<polygon fill="#e0e0e0" stroke="#999999" points="1317.62,-26 1234.88,-26 1234.88,-6 1317.62,-6 1317.62,-26"/>
<text xml:space="preserve" text-anchor="middle" x="1276.25" y="-12.5" font-family="Helvetica,sans-Serif" font-size="10.00">unordered_map</text>
</a>
</g>
</g>
<!-- Node3&#45;&gt;Node9 -->
<g id="edge8_Node000003_Node000009" class="edge">
<title>Node3&#45;&gt;Node9</title>
<g id="a_edge8_Node000003_Node000009"><a xlink:title=" ">
<path fill="none" stroke="#63b8ff" d="M1107.07,-67.54C1137.63,-58.44 1185.1,-44.3 1226.25,-32 1228.78,-31.24 1231.38,-30.47 1234,-29.68"/>
<polygon fill="#63b8ff" stroke="#63b8ff" points="1234.76,-33.11 1243.33,-26.89 1232.75,-26.4 1234.76,-33.11"/>
</a>
</g>
</g>
<!-- Node3&#45;&gt;Node10 -->
<g id="edge9_Node000003_Node000010" class="edge">
<title>Node3&#45;&gt;Node10</title>
<g id="a_edge9_Node000003_Node000010"><a xlink:title=" ">
<path fill="none" stroke="#63b8ff" d="M1040.64,-76.04C913.38,-72.34 471.69,-57.87 333.25,-32 329.82,-31.36 326.3,-30.54 322.8,-29.63"/>
<polygon fill="#63b8ff" stroke="#63b8ff" points="323.85,-26.29 313.27,-26.85 321.89,-33.01 323.85,-26.29"/>
</a>
</g>
</g>
<!-- Node3&#45;&gt;Node11 -->
<g id="edge10_Node000003_Node000011" class="edge">
<title>Node3&#45;&gt;Node11</title>
<g id="a_edge10_Node000003_Node000011"><a xlink:title=" ">
<path fill="none" stroke="#63b8ff" d="M1040.84,-75.53C925.76,-70.46 554.92,-52.88 437.25,-32 433.17,-31.28 428.95,-30.36 424.77,-29.33"/>
<polygon fill="#63b8ff" stroke="#63b8ff" points="425.9,-26.01 415.34,-26.82 424.1,-32.77 425.9,-26.01"/>
</a>
</g>
</g>
<!-- Node3&#45;&gt;Node12 -->
<g id="edge11_Node000003_Node000012" class="edge">
<title>Node3&#45;&gt;Node12</title>
<g id="a_edge11_Node000003_Node000012"><a xlink:title=" ">
<path fill="none" stroke="#63b8ff" d="M1040.65,-76.08C956.36,-73.39 733.88,-63.63 551.25,-32 546.66,-31.2 541.89,-30.22 537.16,-29.13"/>
<polygon fill="#63b8ff" stroke="#63b8ff" points="538.31,-25.81 527.76,-26.82 536.64,-32.61 538.31,-25.81"/>
</a>
</g>
</g>
<!-- Node3&#45;&gt;Node13 -->
<g id="edge12_Node000003_Node000013" class="edge">
<title>Node3&#45;&gt;Node13</title>
<g id="a_edge12_Node000003_Node000013"><a xlink:title=" ">
<path fill="none" stroke="#63b8ff" d="M1040.63,-74.44C971.55,-69.02 811.85,-54.99 679.25,-32 674.04,-31.1 668.62,-30.03 663.24,-28.89"/>
<polygon fill="#63b8ff" stroke="#63b8ff" points="664.32,-25.54 653.8,-26.79 662.81,-32.38 664.32,-25.54"/>
</a>
</g>
</g>
<!-- Node3&#45;&gt;Node14 -->
<g id="edge13_Node000003_Node000014" class="edge">
<title>Node3&#45;&gt;Node14</title>
<g id="a_edge13_Node000003_Node000014"><a xlink:title=" ">
<path fill="none" stroke="#63b8ff" d="M1040.56,-70.97C992.41,-62.55 902.61,-46.64 826.25,-32 820.68,-30.93 814.88,-29.8 809.08,-28.65"/>
<polygon fill="#63b8ff" stroke="#63b8ff" points="809.99,-25.26 799.49,-26.73 808.61,-32.12 809.99,-25.26"/>
</a>
</g>
</g>
<!-- Node3&#45;&gt;Node15 -->
<g id="edge14_Node000003_Node000015" class="edge">
<title>Node3&#45;&gt;Node15</title>
<g id="a_edge14_Node000003_Node000015"><a xlink:title=" ">
<path fill="none" stroke="#63b8ff" d="M1109.99,-71.94C1158.65,-64.58 1249.72,-49.85 1326.25,-32 1329.57,-31.22 1333,-30.37 1336.44,-29.47"/>
<polygon fill="#63b8ff" stroke="#63b8ff" points="1337.13,-32.91 1345.86,-26.89 1335.29,-26.15 1337.13,-32.91"/>
</a>
</g>
</g>
<!-- Node3&#45;&gt;Node16 -->
<g id="edge15_Node000003_Node000016" class="edge">
<title>Node3&#45;&gt;Node16</title>
<g id="a_edge15_Node000003_Node000016"><a xlink:title=" ">
<path fill="none" stroke="#63b8ff" d="M1109.82,-74.47C1173.66,-69.38 1314.1,-56.28 1430.25,-32 1433.82,-31.25 1437.5,-30.38 1441.17,-29.44"/>
<polygon fill="#63b8ff" stroke="#63b8ff" points="1441.88,-32.87 1450.6,-26.86 1440.03,-26.12 1441.88,-32.87"/>
</a>
</g>
</g>
<!-- Node3&#45;&gt;Node17 -->
<g id="edge16_Node000003_Node000017" class="edge">
<title>Node3&#45;&gt;Node17</title>
<g id="a_edge16_Node000003_Node000017"><a xlink:title=" ">
<path fill="none" stroke="#63b8ff" d="M1109.81,-76.09C1186.68,-73.52 1377.34,-64.16 1533.25,-32 1536.58,-31.31 1540.01,-30.48 1543.43,-29.56"/>
<polygon fill="#63b8ff" stroke="#63b8ff" points="1544.1,-33.01 1552.71,-26.83 1542.13,-26.29 1544.1,-33.01"/>
</a>
</g>
</g>
<!-- Node3&#45;&gt;Node18 -->
<g id="edge17_Node000003_Node000018" class="edge">
<title>Node3&#45;&gt;Node18</title>
<g id="a_edge17_Node000003_Node000018"><a xlink:title=" ">
<path fill="none" stroke="#63b8ff" d="M1109.77,-76.02C1195.47,-73.2 1424.97,-63.27 1625.71,-32.24"/>
<polygon fill="#63b8ff" stroke="#63b8ff" points="1626.23,-35.7 1635.56,-30.69 1625.14,-28.79 1626.23,-35.7"/>
</a>
</g>
</g>
<!-- Node3&#45;&gt;Node19 -->
<g id="edge18_Node000003_Node000019" class="edge">
<title>Node3&#45;&gt;Node19</title>
<g id="a_edge18_Node000003_Node000019"><a xlink:title=" ">
<path fill="none" stroke="#63b8ff" d="M1109.73,-76.71C1208.41,-75.45 1500.44,-68.79 1751.34,-32.28"/>
<polygon fill="#63b8ff" stroke="#63b8ff" points="1751.63,-35.78 1761.01,-30.85 1750.61,-28.85 1751.63,-35.78"/>
</a>
</g>
</g>
<!-- Node3&#45;&gt;Node20 -->
<g id="edge19_Node000003_Node000020" class="edge">
<title>Node3&#45;&gt;Node20</title>
<g id="a_edge19_Node000003_Node000020"><a xlink:title=" ">
<path fill="none" stroke="#63b8ff" d="M1109.57,-75.87C1240.34,-71.44 1708.24,-54.5 1880.54,-32"/>
<polygon fill="#63b8ff" stroke="#63b8ff" points="1880.76,-35.5 1890.2,-30.68 1879.82,-28.57 1880.76,-35.5"/>
</a>
</g>
</g>
<!-- Node3&#45;&gt;Node21 -->
<g id="edge20_Node000003_Node000021" class="edge">
<title>Node3&#45;&gt;Node21</title>
<g id="a_edge20_Node000003_Node000021"><a xlink:title=" ">
<path fill="none" stroke="#63b8ff" d="M1109.93,-76.15C1257.26,-72.4 1831.93,-56.5 2011.25,-32 2017.29,-31.18 2023.59,-30.07 2029.8,-28.83"/>
<polygon fill="#63b8ff" stroke="#63b8ff" points="2030.27,-32.31 2039.32,-26.8 2028.81,-25.46 2030.27,-32.31"/>
</a>
</g>
</g>
<!-- Node3&#45;&gt;Node22 -->
<g id="edge21_Node000003_Node000022" class="edge">
<title>Node3&#45;&gt;Node22</title>
<g id="a_edge21_Node000003_Node000022"><a xlink:title=" ">
<path fill="none" stroke="#63b8ff" d="M1109.79,-76.03C1281.44,-71.17 2038.51,-48.9 2142.25,-32 2146.39,-31.33 2150.66,-30.43 2154.9,-29.41"/>
<polygon fill="#63b8ff" stroke="#63b8ff" points="2155.69,-32.83 2164.46,-26.88 2153.9,-26.06 2155.69,-32.83"/>
</a>
</g>
</g>
<!-- Node3&#45;&gt;Node23 -->
<g id="edge22_Node000003_Node000023" class="edge">
<title>Node3&#45;&gt;Node23</title>
<g id="a_edge22_Node000003_Node000023"><a xlink:title=" ">
<path fill="none" stroke="#63b8ff" d="M1109.83,-76.31C1291.59,-72.62 2132.41,-54.43 2246.25,-32 2249.05,-31.45 2251.91,-30.74 2254.75,-29.92"/>
<polygon fill="#63b8ff" stroke="#63b8ff" points="2255.64,-33.31 2264.05,-26.86 2253.45,-26.66 2255.64,-33.31"/>
</a>
</g>
</g>
<!-- Node24 -->
<g id="Node000024" class="node">
<title>Node24</title>
<g id="a_Node000024"><a xlink:title=" ">
<polygon fill="#e0e0e0" stroke="#999999" points="1033.25,-26 975.25,-26 975.25,-6 1033.25,-6 1033.25,-26"/>
<text xml:space="preserve" text-anchor="middle" x="1004.25" y="-12.5" font-family="Helvetica,sans-Serif" font-size="10.00">functional</text>
</a>
</g>
</g>
<!-- Node3&#45;&gt;Node24 -->
<g id="edge23_Node000003_Node000024" class="edge">
<title>Node3&#45;&gt;Node24</title>
<g id="a_edge23_Node000003_Node000024"><a xlink:title=" ">
<path fill="none" stroke="#63b8ff" d="M1064.16,-67.62C1053.36,-58.5 1036.73,-44.45 1023.72,-33.46"/>
<polygon fill="#63b8ff" stroke="#63b8ff" points="1026.09,-30.87 1016.19,-27.09 1021.57,-36.22 1026.09,-30.87"/>
</a>
</g>
</g>
<!-- Node3&#45;&gt;Node25 -->
<g id="edge24_Node000003_Node000025" class="edge">
<title>Node3&#45;&gt;Node25</title>
<g id="a_edge24_Node000003_Node000025"><a xlink:title=" ">
<path fill="none" stroke="#63b8ff" d="M1042.22,-67.62C1010.21,-57.57 962.14,-41.53 929.93,-30.2"/>
<polygon fill="#63b8ff" stroke="#63b8ff" points="931.27,-26.96 920.67,-26.91 928.93,-33.56 931.27,-26.96"/>
</a>
</g>
</g>
<!-- Node25&#45;&gt;Node3 -->
<g id="edge25_Node000025_Node000003" class="edge">
<title>Node25&#45;&gt;Node3</title>
<g id="a_edge25_Node000025_Node000003"><a xlink:title=" ">
<path fill="none" stroke="#63b8ff" d="M929.39,-26.41C961.43,-36.47 1009.5,-52.52 1041.68,-63.84"/>
<polygon fill="#63b8ff" stroke="#63b8ff" points="1040.32,-67.07 1050.92,-67.12 1042.67,-60.47 1040.32,-67.07"/>
</a>
</g>
</g>
<!-- Node29&#45;&gt;Node6 -->
<g id="edge47_Node000029_Node000006" class="edge">
<title>Node29&#45;&gt;Node6</title>
<g id="a_edge47_Node000029_Node000006"><a xlink:title=" ">
<path fill="none" stroke="#63b8ff" d="M560.49,-75.34C505.03,-71.03 358.74,-57.91 239.25,-32 235.92,-31.28 232.5,-30.44 229.07,-29.53"/>
<polygon fill="#63b8ff" stroke="#63b8ff" points="230.31,-26.24 219.74,-26.87 228.4,-32.98 230.31,-26.24"/>
</a>
</g>
</g>
</g>
</svg>

<g id="navigator" transform="translate(0 0)" fill="#404254">
  <rect fill="#f2f5e9" fill-opacity="0.5" stroke="#606060" stroke-width=".5" x="0" y="0" width="60" height="60"/>
  <use id="zoomplus" xlink:href="#zoomPlus" x="17" y="9" onmousedown="handleZoom(evt,'in')"/>
  <use id="zoomminus" xlink:href="#zoomMin" x="42" y="9" onmousedown="handleZoom(evt,'out')"/>
  <use id="reset" xlink:href="#resetDef" x="30" y="36" onmousedown="handleReset()"/>
   <use id="arrowup" xlink:href="#arrowUp" x="0" y="0" onmousedown="handlePan(0,-1)"/>
  <use id="arrowright" xlink:href="#arrowRight" x="0" y="0" onmousedown="handlePan(1,0)"/>
  <use id="arrowdown" xlink:href="#arrowDown" x="0" y="0" onmousedown="handlePan(0,1)"/>
  <use id="arrowleft" xlink:href="#arrowLeft" x="0" y="0" onmousedown="handlePan(-1,0)"/>
</g>
<svg viewBox="0 0 15 15" width="100%" height="30px" preserveAspectRatio="xMaxYMin meet">
 <g id="arrow_out" transform="scale(0.3 0.3)">
  <a xlink:href="tinyengine__renderer__dvi_8cpp__incl_org.svg" target="_base">
   <rect id="button" ry="5" rx="5" y="6" x="6" height="38" width="38"
        fill="#f2f5e9" fill-opacity="0.5" stroke="#606060" stroke-width="1.0"/>
   <path id="arrow"
     d="M 11.500037,31.436501 C 11.940474,20.09759 22.043105,11.32322 32.158766,21.979434 L 37.068811,17.246167 C 37.068811,17.246167 37.088388,32 37.088388,32 L 22.160133,31.978069 C 22.160133,31.978069 26.997745,27.140456 26.997745,27.140456 C 18.528582,18.264221 13.291696,25.230495 11.500037,31.436501 z"
     style="fill:#404040;"/>
  </a>
 </g>
</svg>

<style type='text/css'>
<![CDATA[
[data-mouse-over-selected='false'] { opacity: 0.7; }
[data-mouse-over-selected='true']  { opacity: 1.0; }
]]>
</style>
<script type="application/ecmascript"><![CDATA[
document.addEventListener('DOMContentLoaded', (event) => {
  highlightEdges();
  highlightAdjacentNodes();
});
]]></script>
</svg>
