<?xml version="1.0" encoding="UTF-8" standalone="no"?>
<!DOCTYPE svg PUBLIC "-//W3C//DTD SVG 1.1//EN"
 "http://www.w3.org/Graphics/SVG/1.1/DTD/svg11.dtd">
<!-- Generated by graphviz version 13.1.2 (20250808.2320)
 -->
<!-- Title: inc/tinyengine.h Pages: 1 -->
<!--zoomable 96 -->

<svg id="main" version="1.1" xmlns="http://www.w3.org/2000/svg" xmlns:xlink="http://www.w3.org/1999/xlink" xml:space="preserve" onload="init(evt)">

<style type="text/css"><![CDATA[
.node, .edge {opacity: 0.7;}
.node.selected, .edge.selected {opacity: 1;}
.edge:hover path { stroke: red; }
.edge:hover polygon { stroke: red; fill: red; }
]]></style>

<defs>
  <circle id="rim" cx="0" cy="0" r="7"/>
  <circle id="rim2" cx="0" cy="0" r="3.5"/>
  <g id="zoomPlus">
    <use xlink:href="#rim" fill="#404040"><set attributeName="fill" to="#808080" begin="zoomplus.mouseover" end="zoomplus.mouseout"/></use>
    <path d="M-4,0h8M0,-4v8" fill="none" stroke="white" stroke-width="1.5" pointer-events="none"/>
  </g>
  <g id="zoomMin">
    <use xlink:href="#rim" fill="#404040"><set attributeName="fill" to="#808080" begin="zoomminus.mouseover" end="zoomminus.mouseout"/></use>
    <path d="M-4,0h8" fill="none" stroke="white" stroke-width="1.5" pointer-events="none"/>
  </g>
  <g id="arrowUp" transform="translate(30 24)">
    <use xlink:href="#rim"/>
    <path pointer-events="none" fill="none" stroke="white" stroke-width="1.5" d="M0,-3.0v7 M-2.5,-0.5L0,-3.0L2.5,-0.5"/>
  </g>
  <g id="arrowRight" transform="rotate(90) translate(36 -43)">
    <use xlink:href="#rim"/>
    <path pointer-events="none" fill="none" stroke="white" stroke-width="1.5" d="M0,-3.0v7 M-2.5,-0.5L0,-3.0L2.5,-0.5"/>
  </g>
  <g id="arrowDown" transform="rotate(180) translate(-30 -48)">
    <use xlink:href="#rim"/>
    <path pointer-events="none" fill="none" stroke="white" stroke-width="1.5" d="M0,-3.0v7 M-2.5,-0.5L0,-3.0L2.5,-0.5"/>
  </g>
  <g id="arrowLeft" transform="rotate(270) translate(-36 17)">
    <use xlink:href="#rim"/>
    <path pointer-events="none" fill="none" stroke="white" stroke-width="1.5" d="M0,-3.0v7 M-2.5,-0.5L0,-3.0L2.5,-0.5"/>
  </g>
  <g id="resetDef">
    <use xlink:href="#rim2" fill="#404040"><set attributeName="fill" to="#808080" begin="reset.mouseover" end="reset.mouseout"/></use>
  </g>
</defs>
<script type="application/ecmascript">
var viewWidth = 2328;
var viewHeight = 96;
var sectionId = 'dynsection-0';
</script>
<script type="application/ecmascript" xlink:href="svg.min.js"/>
<svg id="graph" class="graph">
<g id="viewport">
<title>inc/tinyengine.h</title>
<!-- Node1 -->
<g id="Node000001" class="node">
<title>Node1</title>
<g id="a_Node000001"><a xlink:title=" ">
<polygon fill="#999999" stroke="#666666" points="1204.38,-88 1120.12,-88 1120.12,-68 1204.38,-68 1204.38,-88"/>
<text xml:space="preserve" text-anchor="middle" x="1162.25" y="-74.5" font-family="Helvetica,sans-Serif" font-size="10.00">inc/tinyengine.h</text>
</a>
</g>
</g>
<!-- Node2 -->
<g id="Node000002" class="node">
<title>Node2</title>
<g id="a_Node000002"><a xlink:title=" ">
<polygon fill="#e0e0e0" stroke="#999999" points="68.5,-26 0,-26 0,-6 68.5,-6 68.5,-26"/>
<text xml:space="preserve" text-anchor="middle" x="34.25" y="-12.5" font-family="Helvetica,sans-Serif" font-size="10.00">pico/stdlib.h</text>
</a>
</g>
</g>
<!-- Node1&#45;&gt;Node2 -->
<g id="edge1_Node000001_Node000002" class="edge">
<title>Node1&#45;&gt;Node2</title>
<g id="a_edge1_Node000001_Node000002"><a xlink:title=" ">
<path fill="none" stroke="#63b8ff" d="M1119.91,-76.9C945.54,-76.24 282.46,-71.16 77.25,-32 74.22,-31.42 71.12,-30.67 68.04,-29.82"/>
<polygon fill="#63b8ff" stroke="#63b8ff" points="69.15,-26.5 58.56,-26.83 67.04,-33.17 69.15,-26.5"/>
</a>
</g>
</g>
<!-- Node3 -->
<g id="Node000003" class="node">
<title>Node3</title>
<g id="a_Node000003"><a xlink:title=" ">
<polygon fill="#e0e0e0" stroke="#999999" points="131.88,-26 86.62,-26 86.62,-6 131.88,-6 131.88,-26"/>
<text xml:space="preserve" text-anchor="middle" x="109.25" y="-12.5" font-family="Helvetica,sans-Serif" font-size="10.00">stdio.h</text>
</a>
</g>
</g>
<!-- Node1&#45;&gt;Node3 -->
<g id="edge2_Node000001_Node000003" class="edge">
<title>Node1&#45;&gt;Node3</title>
<g id="a_edge2_Node000001_Node000003"><a xlink:title=" ">
<path fill="none" stroke="#63b8ff" d="M1119.75,-77.34C951.4,-78.34 331.2,-78.72 141.25,-32 139.65,-31.61 138.03,-31.13 136.42,-30.59"/>
<polygon fill="#63b8ff" stroke="#63b8ff" points="138.05,-27.48 127.47,-26.96 135.42,-33.96 138.05,-27.48"/>
</a>
</g>
</g>
<!-- Node4 -->
<g id="Node000004" class="node">
<title>Node4</title>
<g id="a_Node000004"><a xlink:title=" ">
<polygon fill="#e0e0e0" stroke="#999999" points="230.12,-26 150.38,-26 150.38,-6 230.12,-6 230.12,-26"/>
<text xml:space="preserve" text-anchor="middle" x="190.25" y="-12.5" font-family="Helvetica,sans-Serif" font-size="10.00">hardware/spi.h</text>
</a>
</g>
</g>
<!-- Node1&#45;&gt;Node4 -->
<g id="edge3_Node000001_Node000004" class="edge">
<title>Node1&#45;&gt;Node4</title>
<g id="a_edge3_Node000001_Node000004"><a xlink:title=" ">
<path fill="none" stroke="#63b8ff" d="M1119.75,-76.33C962.23,-73.62 411.91,-62.15 239.25,-32 235.45,-31.34 231.54,-30.47 227.66,-29.48"/>
<polygon fill="#63b8ff" stroke="#63b8ff" points="228.95,-26.21 218.37,-26.88 227.06,-32.95 228.95,-26.21"/>
</a>
</g>
</g>
<!-- Node5 -->
<g id="Node000005" class="node">
<title>Node5</title>
<g id="a_Node000005"><a xlink:title=" ">
<polygon fill="#e0e0e0" stroke="#999999" points="296.38,-26 248.12,-26 248.12,-6 296.38,-6 296.38,-26"/>
<text xml:space="preserve" text-anchor="middle" x="272.25" y="-12.5" font-family="Helvetica,sans-Serif" font-size="10.00">stdint.h</text>
</a>
</g>
</g>
<!-- Node1&#45;&gt;Node5 -->
<g id="edge4_Node000001_Node000005" class="edge">
<title>Node1&#45;&gt;Node5</title>
<g id="a_edge4_Node000001_Node000005"><a xlink:title=" ">
<path fill="none" stroke="#63b8ff" d="M1119.83,-76.86C969.45,-76.03 462.38,-70.38 305.25,-32 303.61,-31.6 301.95,-31.12 300.29,-30.57"/>
<polygon fill="#63b8ff" stroke="#63b8ff" points="301.62,-27.34 291.03,-26.92 299.05,-33.85 301.62,-27.34"/>
</a>
</g>
</g>
<!-- Node6 -->
<g id="Node000006" class="node">
<title>Node6</title>
<g id="a_Node000006"><a xlink:href="tinyengine__scene_8h.html" target="_top" xlink:title=" ">
<polygon fill="white" stroke="#666666" points="414.25,-26 314.25,-26 314.25,-6 414.25,-6 414.25,-26"/>
<text xml:space="preserve" text-anchor="middle" x="364.25" y="-12.5" font-family="Helvetica,sans-Serif" font-size="10.00">tinyengine_scene.h</text>
</a>
</g>
</g>
<!-- Node1&#45;&gt;Node6 -->
<g id="edge5_Node000001_Node000006" class="edge">
<title>Node1&#45;&gt;Node6</title>
<g id="a_edge5_Node000001_Node000006"><a xlink:title=" ">
<path fill="none" stroke="#63b8ff" d="M1119.87,-77.2C1006.29,-77.13 685.82,-73 423.25,-32 418.24,-31.22 413.03,-30.2 407.88,-29.07"/>
<polygon fill="#63b8ff" stroke="#63b8ff" points="408.8,-25.69 398.26,-26.79 407.19,-32.5 408.8,-25.69"/>
</a>
</g>
</g>
<!-- Node7 -->
<g id="Node000007" class="node">
<title>Node7</title>
<g id="a_Node000007"><a xlink:title=" ">
<polygon fill="#e0e0e0" stroke="#999999" points="514.62,-26 431.88,-26 431.88,-6 514.62,-6 514.62,-26"/>
<text xml:space="preserve" text-anchor="middle" x="473.25" y="-12.5" font-family="Helvetica,sans-Serif" font-size="10.00">unordered_map</text>
</a>
</g>
</g>
<!-- Node1&#45;&gt;Node7 -->
<g id="edge6_Node000001_Node000007" class="edge">
<title>Node1&#45;&gt;Node7</title>
<g id="a_edge6_Node000001_Node000007"><a xlink:title=" ">
<path fill="none" stroke="#63b8ff" d="M1119.68,-77.15C1016.61,-76.83 745.82,-71.91 524.25,-32 520.36,-31.3 516.35,-30.41 512.36,-29.43"/>
<polygon fill="#63b8ff" stroke="#63b8ff" points="513.34,-26.07 502.78,-26.83 511.51,-32.82 513.34,-26.07"/>
</a>
</g>
</g>
<!-- Node8 -->
<g id="Node000008" class="node">
<title>Node8</title>
<g id="a_Node000008"><a xlink:title=" ">
<polygon fill="#e0e0e0" stroke="#999999" points="609.62,-26 532.88,-26 532.88,-6 609.62,-6 609.62,-26"/>
<text xml:space="preserve" text-anchor="middle" x="571.25" y="-12.5" font-family="Helvetica,sans-Serif" font-size="10.00">hardware/pll.h</text>
</a>
</g>
</g>
<!-- Node1&#45;&gt;Node8 -->
<g id="edge7_Node000001_Node000008" class="edge">
<title>Node1&#45;&gt;Node8</title>
<g id="a_edge7_Node000001_Node000008"><a xlink:title=" ">
<path fill="none" stroke="#63b8ff" d="M1119.82,-76.74C1027.64,-75.47 802.54,-68.54 618.25,-32 614.91,-31.34 611.48,-30.52 608.06,-29.61"/>
<polygon fill="#63b8ff" stroke="#63b8ff" points="609.36,-26.34 598.78,-26.9 607.39,-33.06 609.36,-26.34"/>
</a>
</g>
</g>
<!-- Node9 -->
<g id="Node000009" class="node">
<title>Node9</title>
<g id="a_Node000009"><a xlink:title=" ">
<polygon fill="#e0e0e0" stroke="#999999" points="713.12,-26 627.38,-26 627.38,-6 713.12,-6 713.12,-26"/>
<text xml:space="preserve" text-anchor="middle" x="670.25" y="-12.5" font-family="Helvetica,sans-Serif" font-size="10.00">hardware/vreg.h</text>
</a>
</g>
</g>
<!-- Node1&#45;&gt;Node9 -->
<g id="edge8_Node000001_Node000009" class="edge">
<title>Node1&#45;&gt;Node9</title>
<g id="a_edge8_Node000001_Node000009"><a xlink:title=" ">
<path fill="none" stroke="#63b8ff" d="M1119.71,-75.18C1040.75,-71.25 866.42,-59.93 722.25,-32 718.44,-31.26 714.52,-30.37 710.6,-29.4"/>
<polygon fill="#63b8ff" stroke="#63b8ff" points="711.75,-26.09 701.19,-26.88 709.94,-32.85 711.75,-26.09"/>
</a>
</g>
</g>
<!-- Node10 -->
<g id="Node000010" class="node">
<title>Node10</title>
<g id="a_Node000010"><a xlink:title=" ">
<polygon fill="#e0e0e0" stroke="#999999" points="827,-26 731.5,-26 731.5,-6 827,-6 827,-26"/>
<text xml:space="preserve" text-anchor="middle" x="779.25" y="-12.5" font-family="Helvetica,sans-Serif" font-size="10.00">hardware/clocks.h</text>
</a>
</g>
</g>
<!-- Node1&#45;&gt;Node10 -->
<g id="edge9_Node000001_Node000010" class="edge">
<title>Node1&#45;&gt;Node10</title>
<g id="a_edge9_Node000001_Node000010"><a xlink:title=" ">
<path fill="none" stroke="#63b8ff" d="M1119.78,-72.79C1057.3,-66.21 937.1,-52.15 836.25,-32 832.15,-31.18 827.9,-30.24 823.66,-29.24"/>
<polygon fill="#63b8ff" stroke="#63b8ff" points="824.57,-25.86 814.02,-26.84 822.88,-32.65 824.57,-25.86"/>
</a>
</g>
</g>
<!-- Node11 -->
<g id="Node000011" class="node">
<title>Node11</title>
<g id="a_Node000011"><a xlink:title=" ">
<polygon fill="#e0e0e0" stroke="#999999" points="955.12,-26 845.38,-26 845.38,-6 955.12,-6 955.12,-26"/>
<text xml:space="preserve" text-anchor="middle" x="900.25" y="-12.5" font-family="Helvetica,sans-Serif" font-size="10.00">hardware/structs/pll.h</text>
</a>
</g>
</g>
<!-- Node1&#45;&gt;Node11 -->
<g id="edge10_Node000001_Node000011" class="edge">
<title>Node1&#45;&gt;Node11</title>
<g id="a_edge10_Node000001_Node000011"><a xlink:title=" ">
<path fill="none" stroke="#63b8ff" d="M1120.13,-67.51C1080.03,-58.46 1018.01,-44.41 964.25,-32 960.17,-31.06 955.95,-30.08 951.71,-29.09"/>
<polygon fill="#63b8ff" stroke="#63b8ff" points="952.53,-25.69 942,-26.83 950.94,-32.51 952.53,-25.69"/>
</a>
</g>
</g>
<!-- Node12 -->
<g id="Node000012" class="node">
<title>Node12</title>
<g id="a_Node000012"><a xlink:title=" ">
<polygon fill="#e0e0e0" stroke="#999999" points="1101.5,-26 973,-26 973,-6 1101.5,-6 1101.5,-26"/>
<text xml:space="preserve" text-anchor="middle" x="1037.25" y="-12.5" font-family="Helvetica,sans-Serif" font-size="10.00">hardware/structs/clocks.h</text>
</a>
</g>
</g>
<!-- Node1&#45;&gt;Node12 -->
<g id="edge11_Node000001_Node000012" class="edge">
<title>Node1&#45;&gt;Node12</title>
<g id="a_edge11_Node000001_Node000012"><a xlink:title=" ">
<path fill="none" stroke="#63b8ff" d="M1142.72,-67.62C1122.35,-57.85 1090.19,-42.41 1066.74,-31.15"/>
<polygon fill="#63b8ff" stroke="#63b8ff" points="1068.54,-28.14 1058.01,-26.96 1065.51,-34.45 1068.54,-28.14"/>
</a>
</g>
</g>
<!-- Node13 -->
<g id="Node000013" class="node">
<title>Node13</title>
<g id="a_Node000013"><a xlink:title=" ">
<polygon fill="#e0e0e0" stroke="#999999" points="1205.12,-26 1119.38,-26 1119.38,-6 1205.12,-6 1205.12,-26"/>
<text xml:space="preserve" text-anchor="middle" x="1162.25" y="-12.5" font-family="Helvetica,sans-Serif" font-size="10.00">hardware/dma.h</text>
</a>
</g>
</g>
<!-- Node1&#45;&gt;Node13 -->
<g id="edge12_Node000001_Node000013" class="edge">
<title>Node1&#45;&gt;Node13</title>
<g id="a_edge12_Node000001_Node000013"><a xlink:title=" ">
<path fill="none" stroke="#63b8ff" d="M1162.25,-67.62C1162.25,-59.56 1162.25,-47.65 1162.25,-37.41"/>
<polygon fill="#63b8ff" stroke="#63b8ff" points="1165.75,-37.63 1162.25,-27.63 1158.75,-37.63 1165.75,-37.63"/>
</a>
</g>
</g>
<!-- Node14 -->
<g id="Node000014" class="node">
<title>Node14</title>
<g id="a_Node000014"><a xlink:title=" ">
<polygon fill="#e0e0e0" stroke="#999999" points="1307.75,-26 1222.75,-26 1222.75,-6 1307.75,-6 1307.75,-26"/>
<text xml:space="preserve" text-anchor="middle" x="1265.25" y="-12.5" font-family="Helvetica,sans-Serif" font-size="10.00">hardware/gpio.h</text>
</a>
</g>
</g>
<!-- Node1&#45;&gt;Node14 -->
<g id="edge13_Node000001_Node000014" class="edge">
<title>Node1&#45;&gt;Node14</title>
<g id="a_edge13_Node000001_Node000014"><a xlink:title=" ">
<path fill="none" stroke="#63b8ff" d="M1178.34,-67.62C1194.67,-58.11 1220.2,-43.24 1239.37,-32.08"/>
<polygon fill="#63b8ff" stroke="#63b8ff" points="1241.08,-35.13 1247.96,-27.07 1237.56,-29.08 1241.08,-35.13"/>
</a>
</g>
</g>
<!-- Node15 -->
<g id="Node000015" class="node">
<title>Node15</title>
<g id="a_Node000015"><a xlink:title=" ">
<polygon fill="#e0e0e0" stroke="#999999" points="1403,-26 1325.5,-26 1325.5,-6 1403,-6 1403,-26"/>
<text xml:space="preserve" text-anchor="middle" x="1364.25" y="-12.5" font-family="Helvetica,sans-Serif" font-size="10.00">hardware/irq.h</text>
</a>
</g>
</g>
<!-- Node1&#45;&gt;Node15 -->
<g id="edge14_Node000001_Node000015" class="edge">
<title>Node1&#45;&gt;Node15</title>
<g id="a_edge14_Node000001_Node000015"><a xlink:title=" ">
<path fill="none" stroke="#63b8ff" d="M1195.89,-67.51C1227.34,-58.57 1275.57,-44.7 1317.25,-32 1319.49,-31.32 1321.79,-30.61 1324.11,-29.89"/>
<polygon fill="#63b8ff" stroke="#63b8ff" points="1325.02,-33.27 1333.51,-26.94 1322.92,-26.59 1325.02,-33.27"/>
</a>
</g>
</g>
<!-- Node16 -->
<g id="Node000016" class="node">
<title>Node16</title>
<g id="a_Node000016"><a xlink:title=" ">
<polygon fill="#e0e0e0" stroke="#999999" points="1529,-32 1421.5,-32 1421.5,0 1529,0 1529,-32"/>
<text xml:space="preserve" text-anchor="start" x="1429.5" y="-18.5" font-family="Helvetica,sans-Serif" font-size="10.00">hardware/structs/bus</text>
<text xml:space="preserve" text-anchor="middle" x="1475.25" y="-6.5" font-family="Helvetica,sans-Serif" font-size="10.00">_ctrl.h</text>
</a>
</g>
</g>
<!-- Node1&#45;&gt;Node16 -->
<g id="edge15_Node000001_Node000016" class="edge">
<title>Node1&#45;&gt;Node16</title>
<g id="a_edge15_Node000001_Node000016"><a xlink:title=" ">
<path fill="none" stroke="#63b8ff" d="M1204.85,-70.07C1252.48,-62.17 1332.16,-48.45 1410.32,-32.33"/>
<polygon fill="#63b8ff" stroke="#63b8ff" points="1410.78,-35.81 1419.86,-30.35 1409.35,-28.96 1410.78,-35.81"/>
</a>
</g>
</g>
<!-- Node17 -->
<g id="Node000017" class="node">
<title>Node17</title>
<g id="a_Node000017"><a xlink:title=" ">
<polygon fill="#e0e0e0" stroke="#999999" points="1657.5,-32 1547,-32 1547,0 1657.5,0 1657.5,-32"/>
<text xml:space="preserve" text-anchor="start" x="1555" y="-18.5" font-family="Helvetica,sans-Serif" font-size="10.00">hardware/structs/hstx</text>
<text xml:space="preserve" text-anchor="middle" x="1602.25" y="-6.5" font-family="Helvetica,sans-Serif" font-size="10.00">_ctrl.h</text>
</a>
</g>
</g>
<!-- Node1&#45;&gt;Node17 -->
<g id="edge16_Node000001_Node000017" class="edge">
<title>Node1&#45;&gt;Node17</title>
<g id="a_edge16_Node000001_Node000017"><a xlink:title=" ">
<path fill="none" stroke="#63b8ff" d="M1204.77,-73.46C1272.7,-67.48 1410.08,-53.99 1535.86,-32.3"/>
<polygon fill="#63b8ff" stroke="#63b8ff" points="1536.09,-35.82 1545.33,-30.65 1534.88,-28.92 1536.09,-35.82"/>
</a>
</g>
</g>
<!-- Node18 -->
<g id="Node000018" class="node">
<title>Node18</title>
<g id="a_Node000018"><a xlink:title=" ">
<polygon fill="#e0e0e0" stroke="#999999" points="1786.5,-32 1676,-32 1676,0 1786.5,0 1786.5,-32"/>
<text xml:space="preserve" text-anchor="start" x="1684" y="-18.5" font-family="Helvetica,sans-Serif" font-size="10.00">hardware/structs/hstx</text>
<text xml:space="preserve" text-anchor="middle" x="1731.25" y="-6.5" font-family="Helvetica,sans-Serif" font-size="10.00">_fifo.h</text>
</a>
</g>
</g>
<!-- Node1&#45;&gt;Node18 -->
<g id="edge17_Node000001_Node000018" class="edge">
<title>Node1&#45;&gt;Node18</title>
<g id="a_edge17_Node000001_Node000018"><a xlink:title=" ">
<path fill="none" stroke="#63b8ff" d="M1204.64,-75.19C1289.81,-71.13 1487.88,-59.54 1664.36,-32.14"/>
<polygon fill="#63b8ff" stroke="#63b8ff" points="1664.85,-35.6 1674.18,-30.59 1663.76,-28.69 1664.85,-35.6"/>
</a>
</g>
</g>
<!-- Node19 -->
<g id="Node000019" class="node">
<title>Node19</title>
<g id="a_Node000019"><a xlink:title=" ">
<polygon fill="#e0e0e0" stroke="#999999" points="1917.62,-26 1804.88,-26 1804.88,-6 1917.62,-6 1917.62,-26"/>
<text xml:space="preserve" text-anchor="middle" x="1861.25" y="-12.5" font-family="Helvetica,sans-Serif" font-size="10.00">hardware/structs/sio.h</text>
</a>
</g>
</g>
<!-- Node1&#45;&gt;Node19 -->
<g id="edge18_Node000001_Node000019" class="edge">
<title>Node1&#45;&gt;Node19</title>
<g id="a_edge18_Node000001_Node000019"><a xlink:title=" ">
<path fill="none" stroke="#63b8ff" d="M1204.72,-76.21C1306.94,-73.84 1574.56,-64.73 1795.25,-32 1800.99,-31.15 1806.97,-30.07 1812.88,-28.88"/>
<polygon fill="#63b8ff" stroke="#63b8ff" points="1813.56,-32.31 1822.61,-26.8 1812.1,-25.47 1813.56,-32.31"/>
</a>
</g>
</g>
<!-- Node20 -->
<g id="Node000020" class="node">
<title>Node20</title>
<g id="a_Node000020"><a xlink:title=" ">
<polygon fill="#e0e0e0" stroke="#999999" points="2020.75,-26 1935.75,-26 1935.75,-6 2020.75,-6 2020.75,-26"/>
<text xml:space="preserve" text-anchor="middle" x="1978.25" y="-12.5" font-family="Helvetica,sans-Serif" font-size="10.00">pico/multicore.h</text>
</a>
</g>
</g>
<!-- Node1&#45;&gt;Node20 -->
<g id="edge19_Node000001_Node000020" class="edge">
<title>Node1&#45;&gt;Node20</title>
<g id="a_edge19_Node000001_Node000020"><a xlink:title=" ">
<path fill="none" stroke="#63b8ff" d="M1204.41,-75.75C1343.31,-71.44 1785.63,-56.11 1926.25,-32 1930.33,-31.3 1934.55,-30.4 1938.74,-29.38"/>
<polygon fill="#63b8ff" stroke="#63b8ff" points="1939.4,-32.82 1948.17,-26.87 1937.61,-26.06 1939.4,-32.82"/>
</a>
</g>
</g>
<!-- Node21 -->
<g id="Node000021" class="node">
<title>Node21</title>
<g id="a_Node000021"><a xlink:title=" ">
<polygon fill="#e0e0e0" stroke="#999999" points="2103.25,-26 2039.25,-26 2039.25,-6 2103.25,-6 2103.25,-26"/>
<text xml:space="preserve" text-anchor="middle" x="2071.25" y="-12.5" font-family="Helvetica,sans-Serif" font-size="10.00">pico/sem.h</text>
</a>
</g>
</g>
<!-- Node1&#45;&gt;Node21 -->
<g id="edge20_Node000001_Node000021" class="edge">
<title>Node1&#45;&gt;Node21</title>
<g id="a_edge20_Node000001_Node000021"><a xlink:title=" ">
<path fill="none" stroke="#63b8ff" d="M1204.85,-76.47C1356.52,-74.33 1869.65,-64.77 2030.25,-32 2032.88,-31.46 2035.57,-30.79 2038.25,-30.02"/>
<polygon fill="#63b8ff" stroke="#63b8ff" points="2039.19,-33.4 2047.61,-26.96 2037.01,-26.74 2039.19,-33.4"/>
</a>
</g>
</g>
<!-- Node22 -->
<g id="Node000022" class="node">
<title>Node22</title>
<g id="a_Node000022"><a xlink:title=" ">
<polygon fill="#e0e0e0" stroke="#999999" points="2179.25,-26 2121.25,-26 2121.25,-6 2179.25,-6 2179.25,-26"/>
<text xml:space="preserve" text-anchor="middle" x="2150.25" y="-12.5" font-family="Helvetica,sans-Serif" font-size="10.00">functional</text>
</a>
</g>
</g>
<!-- Node1&#45;&gt;Node22 -->
<g id="edge21_Node000001_Node000022" class="edge">
<title>Node1&#45;&gt;Node22</title>
<g id="a_edge21_Node000001_Node000022"><a xlink:title=" ">
<path fill="none" stroke="#63b8ff" d="M1204.7,-76.83C1365.27,-75.92 1935.38,-70 2112.25,-32 2114.58,-31.5 2116.95,-30.87 2119.32,-30.16"/>
<polygon fill="#63b8ff" stroke="#63b8ff" points="2120.42,-33.48 2128.7,-26.87 2118.1,-26.88 2120.42,-33.48"/>
</a>
</g>
</g>
<!-- Node23 -->
<g id="Node000023" class="node">
<title>Node23</title>
<g id="a_Node000023"><a xlink:href="tinyengine__framebuffer_8h.html" target="_top" xlink:title=" ">
<polygon fill="white" stroke="#666666" points="2319.5,-26 2197,-26 2197,-6 2319.5,-6 2319.5,-26"/>
<text xml:space="preserve" text-anchor="middle" x="2258.25" y="-12.5" font-family="Helvetica,sans-Serif" font-size="10.00">tinyengine_framebuffer.h</text>
</a>
</g>
</g>
<!-- Node1&#45;&gt;Node23 -->
<g id="edge22_Node000001_Node000023" class="edge">
<title>Node1&#45;&gt;Node23</title>
<g id="a_edge22_Node000001_Node000023"><a xlink:title=" ">
<path fill="none" stroke="#63b8ff" d="M1204.85,-76.01C1372.42,-72.11 1985.6,-56.82 2179.25,-32 2185.96,-31.14 2192.99,-29.97 2199.98,-28.65"/>
<polygon fill="#63b8ff" stroke="#63b8ff" points="2200.26,-32.16 2209.39,-26.79 2198.9,-25.3 2200.26,-32.16"/>
</a>
</g>
</g>
<!-- Node23&#45;&gt;Node1 -->
<g id="edge23_Node000023_Node000001" class="edge">
<title>Node23&#45;&gt;Node1</title>
<g id="a_edge23_Node000023_Node000001"><a xlink:title=" ">
<path fill="none" stroke="#63b8ff" d="M2228.27,-26.5C2218.44,-28.65 2207.48,-30.69 2197.25,-32 2005.18,-56.62 1400.38,-71.86 1216.04,-75.91"/>
<polygon fill="#63b8ff" stroke="#63b8ff" points="1216.2,-72.4 1206.28,-76.12 1216.35,-79.4 1216.2,-72.4"/>
</a>
</g>
</g>
</g>
</svg>

<g id="navigator" transform="translate(0 0)" fill="#404254">
  <rect fill="#f2f5e9" fill-opacity="0.5" stroke="#606060" stroke-width=".5" x="0" y="0" width="60" height="60"/>
  <use id="zoomplus" xlink:href="#zoomPlus" x="17" y="9" onmousedown="handleZoom(evt,'in')"/>
  <use id="zoomminus" xlink:href="#zoomMin" x="42" y="9" onmousedown="handleZoom(evt,'out')"/>
  <use id="reset" xlink:href="#resetDef" x="30" y="36" onmousedown="handleReset()"/>
   <use id="arrowup" xlink:href="#arrowUp" x="0" y="0" onmousedown="handlePan(0,-1)"/>
  <use id="arrowright" xlink:href="#arrowRight" x="0" y="0" onmousedown="handlePan(1,0)"/>
  <use id="arrowdown" xlink:href="#arrowDown" x="0" y="0" onmousedown="handlePan(0,1)"/>
  <use id="arrowleft" xlink:href="#arrowLeft" x="0" y="0" onmousedown="handlePan(-1,0)"/>
</g>
<svg viewBox="0 0 15 15" width="100%" height="30px" preserveAspectRatio="xMaxYMin meet">
 <g id="arrow_out" transform="scale(0.3 0.3)">
  <a xlink:href="tinyengine_8h__incl_org.svg" target="_base">
   <rect id="button" ry="5" rx="5" y="6" x="6" height="38" width="38"
        fill="#f2f5e9" fill-opacity="0.5" stroke="#606060" stroke-width="1.0"/>
   <path id="arrow"
     d="M 11.500037,31.436501 C 11.940474,20.09759 22.043105,11.32322 32.158766,21.979434 L 37.068811,17.246167 C 37.068811,17.246167 37.088388,32 37.088388,32 L 22.160133,31.978069 C 22.160133,31.978069 26.997745,27.140456 26.997745,27.140456 C 18.528582,18.264221 13.291696,25.230495 11.500037,31.436501 z"
     style="fill:#404040;"/>
  </a>
 </g>
</svg>

<style type='text/css'>
<![CDATA[
[data-mouse-over-selected='false'] { opacity: 0.7; }
[data-mouse-over-selected='true']  { opacity: 1.0; }
]]>
</style>
<script type="application/ecmascript"><![CDATA[
document.addEventListener('DOMContentLoaded', (event) => {
  highlightEdges();
  highlightAdjacentNodes();
});
]]></script>
</svg>
