<?xml version="1.0" encoding="UTF-8" standalone="no"?>
<!DOCTYPE svg PUBLIC "-//W3C//DTD SVG 1.1//EN"
 "http://www.w3.org/Graphics/SVG/1.1/DTD/svg11.dtd">
<!-- Generated by graphviz version 13.1.2 (20250808.2320)
 -->
<!-- Title: src/generated/ws2812.pio.h Pages: 1 -->
<svg width="202pt" height="84pt"
 viewBox="0.00 0.00 202.00 84.00" xmlns="http://www.w3.org/2000/svg" xmlns:xlink="http://www.w3.org/1999/xlink">
<g id="graph0" class="graph" transform="scale(1 1) rotate(0) translate(4 80)">
<title>src/generated/ws2812.pio.h</title>
<!-- Node1 -->
<g id="Node000001" class="node">
<title>Node1</title>
<g id="a_Node000001"><a xlink:title=" ">
<polygon fill="#999999" stroke="#666666" points="160.88,-76 24.88,-76 24.88,-56 160.88,-56 160.88,-76"/>
<text xml:space="preserve" text-anchor="middle" x="92.88" y="-62.5" font-family="Helvetica,sans-Serif" font-size="10.00">src/generated/ws2812.pio.h</text>
</a>
</g>
</g>
<!-- Node2 -->
<g id="Node000002" class="node">
<title>Node2</title>
<g id="a_Node000002"><a xlink:title=" ">
<polygon fill="#e0e0e0" stroke="#999999" points="79.75,-20 0,-20 0,0 79.75,0 79.75,-20"/>
<text xml:space="preserve" text-anchor="middle" x="39.88" y="-6.5" font-family="Helvetica,sans-Serif" font-size="10.00">hardware/pio.h</text>
</a>
</g>
</g>
<!-- Node1&#45;&gt;Node2 -->
<g id="edge1_Node000001_Node000002" class="edge">
<title>Node1&#45;&gt;Node2</title>
<g id="a_edge1_Node000001_Node000002"><a xlink:title=" ">
<path fill="none" stroke="#63b8ff" d="M83.64,-55.59C76.27,-48.08 65.74,-37.35 56.86,-28.3"/>
<polygon fill="#63b8ff" stroke="#63b8ff" points="59.56,-26.06 50.06,-21.38 54.57,-30.97 59.56,-26.06"/>
</a>
</g>
</g>
<!-- Node3 -->
<g id="Node000003" class="node">
<title>Node3</title>
<g id="a_Node000003"><a xlink:title=" ">
<polygon fill="#e0e0e0" stroke="#999999" points="193.62,-20 98.12,-20 98.12,0 193.62,0 193.62,-20"/>
<text xml:space="preserve" text-anchor="middle" x="145.88" y="-6.5" font-family="Helvetica,sans-Serif" font-size="10.00">hardware/clocks.h</text>
</a>
</g>
</g>
<!-- Node1&#45;&gt;Node3 -->
<g id="edge2_Node000001_Node000003" class="edge">
<title>Node1&#45;&gt;Node3</title>
<g id="a_edge2_Node000001_Node000003"><a xlink:title=" ">
<path fill="none" stroke="#63b8ff" d="M102.11,-55.59C109.48,-48.08 120.01,-37.35 128.89,-28.3"/>
<polygon fill="#63b8ff" stroke="#63b8ff" points="131.18,-30.97 135.69,-21.38 126.19,-26.06 131.18,-30.97"/>
</a>
</g>
</g>
</g>
</svg>
